<svg xmlns="http://www.w3.org/2000/svg" width="15" height="15" viewBox="0 0 15 15" id="bicycle-share">
  <path d="M10 1C9.4477 1 9 1.4477 9 2s.4477 1 1 1 1-.4477 1-1-.4477-1-1-1zM8.1445 2.9941c-.13.0005-.2547.0517-.3477.1426l-2.6406 2.5c-.2256.2128-.2051.5775.043.7637L7 7.75v2.75c-.01.6762 1.0096.6762 1 0v-3c.0003-.1574-.0735-.3057-.1992-.4004l-.7676-.5762 1.818-1.7212.7484.9985C9.6943 5.9265 9.8426 6.0003 10 6h1.5c.6761.01.6761-1.0096 0-1h-1.25L9.5 4l-.5996-.8008C8.8103 3.0756 8.6685 3 8.5156 2.9941h-.3711zM3 7c-1.6569 0-3 1.3432-3 3s1.3431 3 3 3 3-1.3432 3-3-1.3431-3-3-3zm9 0c-1.6569 0-3 1.3432-3 3s1.3431 3 3 3 3-1.3432 3-3-1.3431-3-3-3zM3 8c1.1046 0 2 .8954 2 2s-.8954 2-2 2-2-.8954-2-2 .8954-2 2-2zm9 0c1.1046 0 2 .8954 2 2s-.8954 2-2 2-2-.8954-2-2 .8954-2 2-2z"/>
</svg>
