<svg xmlns="http://www.w3.org/2000/svg" width="15" height="15" viewBox="0 0 15 15" id="shop">
  <path d="M13.33 5H11.5l-.39-2.33c-.1601-.7182-.7017-1.2905-1.41-1.49A3.637 3.637 0 0 0 8.62 1H6.38c-.3669.007-.7307.0676-1.08.18-.7083.1995-1.2499.7718-1.41 1.49L3.5 5H1.67a.5.5 0 0 0-.48.65l1.88 6.3c.1964.6246.7753 1.0496 1.43 1.05h6c.651-.0047 1.2247-.4289 1.42-1.05l1.88-6.3A.5.5 0 0 0 13.33 5zM4.52 5l.36-2.17c.0807-.3625.3736-.6395.74-.7.2463-.0776.5019-.1213.76-.13h2.24c.2614.0078.5205.0515.77.13.3664.0605.6593.3375.74.7l.35 2.17H4.52z"/>
</svg>
