<svg xmlns="http://www.w3.org/2000/svg" width="15" height="15" viewBox="0 0 15 15" id="viewpoint">
  <path d="M6.02 8.425a2.3859 2.3859 0 0 0-.46.44l-4.55-3.5a7.9976 7.9976 0 0 1 1.51-1.51l3.5 4.57zm6.46-4.56-3.5 4.55c.17.13.32.28.45.45l4.56-3.5a7.945 7.945 0 0 0-1.51-1.5zM7.3042 10.0129a1.5 1.5 0 1 0 1.6829 1.2914 1.5 1.5 0 0 0-1.6829-1.2914zM6.43 2.235a7.9329 7.9329 0 0 0-2.06.55l2.2 5.32c.19-.08.4-.14.61-.17l-.75-5.7zm2.14.01-.75 5.69c.21.03.41.08.61.16l2.2-5.3a7.2129 7.2129 0 0 0-2.06-.55z"/>
</svg>
