<svg height="580" width="580" xmlns="http://www.w3.org/2000/svg" xmlns:xlink="http://www.w3.org/1999/xlink"><filter id="a" color-interpolation-filters="sRGB" height="1.883995" width="1.075628" x="-.037814" y="-.441997"><feGaussianBlur stdDeviation="5.9784528"/></filter><filter id="b" color-interpolation-filters="sRGB" height="1.716036" width="1.061259" x="-.030629" y="-.358018"><feGaussianBlur stdDeviation="4.3582921"/></filter><filter id="c" color-interpolation-filters="sRGB" height="1.579989" width="1.04962" x="-.02481" y="-.289994"><feGaussianBlur stdDeviation="4.3582921"/></filter><filter id="d" color-interpolation-filters="sRGB" height="1.469791" width="1.040192" x="-.020096" y="-.234895"><feGaussianBlur stdDeviation="4.3582921"/></filter><g filter="url(#d)" opacity=".8"><path d="m50.707498 381.73976c-8.872313 0-20.95631 9.96839-20.956308 22.26502.000002 12.29663 13.616029 22.26501 22.488339 22.26501H531.71346c8.87231 0 18.53535-9.96838 18.53535-22.26501 0-12.29663-12.13366-22.26502-21.00597-22.26502z" fill="#2b2b2b"/><path d="M50.707031 361.74023C38.780615 361.74023 30.166489 366.89096 22.935547 373.94531 15.704604 380.99966 9.7519511 391.3042 9.7519531 404.00391 9.7519553 417.5342 16.735297 427.87178 24.347656 434.66797 31.960016 441.46416 40.313824 446.26953 52.240234 446.26953L531.71289 446.26953C555.56571 446.26953 570.24805 426.77825 570.24805 404.00391 570.24805 391.27728 564.26138 380.96955 557.01758 373.92383 549.77377 366.87811 541.16861 361.74023 529.24219 361.74023L50.707031 361.74023zM50.707031 401.74023 529.24219 401.74023C526.18808 401.74023 528.0878 401.58502 529.12891 402.59766 530.17001 403.61029 530.24805 404.4339 530.24805 404.00391 530.24805 405.82283 525.60469 406.26953 531.71289 406.26953L52.240234 406.26953C55.294335 406.26953 52.402013 406.09224 50.988281 404.83008 50.384762 404.29127 50.169069 403.92499 50.007812 403.67773 50.073305 403.5972 50.075338 403.35059 50.869141 402.57617 51.898274 401.57217 53.761135 401.74023 50.707031 401.74023z" fill="#fff"/></g><path d="m50.707498 381.73976c-8.872313 0-20.95631 9.96839-20.956308 22.26502.000002 12.29663 13.616029 22.26501 22.488339 22.26501H531.71346c8.87231 0 18.53535-9.96838 18.53535-22.26501 0-12.29663-12.13366-22.26502-21.00597-22.26502z" fill="#2b2b2b"/><g filter="url(#c)" opacity=".8"><path d="m96.173071 300.48686c-7.186574 0-16.974611 8.0744-16.974609 18.03467.000002 9.96027 11.028983 18.03466 18.215554 18.03466H485.7879c7.18657 0 15.01364-8.07439 15.01364-18.03466 0-9.96027-9.82826-18.03467-17.01484-18.03467z" fill="#3f3f3f"/><path d="M96.173828 280.48633C85.090278 280.48633 77.471625 285.16432 71.025391 291.45312 64.579156 297.74193 59.199216 306.98996 59.199219 318.52148 59.199221 330.8836 65.536136 340.16271 72.291016 346.19336 79.045895 352.22401 86.33052 356.55664 97.414062 356.55664L485.78711 356.55664C507.9542 356.55664 520.80078 338.95948 520.80078 318.52148 520.80078 306.96304 515.39033 297.71182 508.93359 291.43164 502.47686 285.15146 494.87066 280.48633 483.78711 280.48633L96.173828 280.48633z" fill="#fff"/></g><path d="m96.173071 300.48686c-7.186574 0-16.974611 8.0744-16.974609 18.03467.000002 9.96027 11.028983 18.03466 18.215554 18.03466H485.7879c7.18657 0 15.01364-8.07439 15.01364-18.03466 0-9.96027-9.82826-18.03467-17.01484-18.03467z" fill="#3f3f3f"/><g filter="url(#b)" opacity=".8"><path d="m133.00018 232.33698c-5.82112 0-13.74943 6.54026-13.74943 14.60808.00001 8.06782 8.93348 14.60807 14.75461 14.60807H448.5882c5.82112 0 12.16105-6.54025 12.16105-14.60807 0-8.06782-7.96089-14.60808-13.78202-14.60808z" fill="#4f4f4f"/><path d="M133 212.33789C122.59917 212.33789 115.78718 216.63011 109.97656 222.29883 104.16594 227.96755 99.25 236.36002 99.25 246.94531 99.250014 258.36119 105.06468 266.7828 111.125 272.19336 117.18532 277.60392 123.60505 281.55273 134.00586 281.55273L448.58789 281.55273C469.38952 281.55273 480.75 265.49086 480.75 246.94531 480.75 236.3331 475.80554 227.93938 469.98633 222.2793 464.16711 216.61921 457.36761 212.33789 446.9668 212.33789L133 212.33789z" fill="#fff"/></g><path d="m133.00018 232.33698c-5.82112 0-13.74943 6.54026-13.74943 14.60808.00001 8.06782 8.93348 14.60807 14.75461 14.60807H448.5882c5.82112 0 12.16105-6.54025 12.16105-14.60807 0-8.06782-7.96089-14.60808-13.78202-14.60808z" fill="#4f4f4f"/><g fill="#5f5f5f" transform="matrix(.729 0 0 .729 69.944443 80.356021)"><g style="stroke:#fff;opacity:.8;stroke-width:54.869685;stroke-linecap:round;stroke-linejoin:round;filter:url(#a)"><g opacity="1" stroke="none"><path d="m127.41523 125.65693c-6.46791 0-15.27715 7.26696-15.27714 16.2312 0 8.96424 9.92608 16.23119 16.394 16.23119h349.53649c6.46791 0 13.51228-7.26695 13.51228-16.23119 0-8.96424-8.84544-16.2312-15.31336-16.2312z" fill="#5f5f5f"/><path d="M127.41602 98.222656C113.90734 98.222656 105.4578 103.68641 98.193359 110.77344 90.928922 117.86047 84.70311 128.41972 84.703125 141.88867 84.703125 156.49697 92.097202 167.09718 99.638672 173.83008 107.18014 180.56298 115.0226 185.55469 128.53125 185.55469L478.06836 185.55469C505.08568 185.55469 519.01562 165.22566 519.01562 141.88867 519.01562 128.3828 512.75262 117.81933 505.47852 110.74414 498.20441 103.66895 489.77624 98.222656 476.26758 98.222656L127.41602 98.222656z" fill="#fff"/></g></g><path d="m127.41523 125.65693c-6.46791 0-15.27715 7.26696-15.27714 16.2312 0 8.96424 9.92608 16.23119 16.394 16.23119h349.53649c6.46791 0 13.51228-7.26695 13.51228-16.23119 0-8.96424-8.84544-16.2312-15.31336-16.2312z"/></g></svg>