<svg height="1200pt" viewBox="0 0 1200 1200" width="1200pt" xmlns="http://www.w3.org/2000/svg" xmlns:xlink="http://www.w3.org/1999/xlink"><filter id="a" color-interpolation-filters="sRGB" height="1.096004" width="1.095996" x="-.047998" y="-.048002"><feGaussianBlur stdDeviation="19.202159"/></filter><path d="m810.91553 119.93994c-68.42518 7.07644-136.81254 14.57113-205.22315 21.8086-44.64171 5.90829-24.30493 69.63689 14.05777 58.24365 65.63259-.29274 131.31147.58605 196.9151-.44025 28.73152-5.93416 25.6335-41.5618 20.59815-63.32065-4.57238-9.92491-15.33053-16.67626-26.34787-16.29135zm-227.71728 120.0542c-22.03735 80.76653 50.90378 167.32408 134.21429 159.38516 77.84194-1.94265 139.33046-84.16855 119.18463-159.38516-84.46627 0-168.93261 0-253.39892 0zM180 439.99219c-55.16569-3.11694-82.203113 76.58751-36.46164 107.64949 31.70108 20.74579 71.32616 9.43036 107.06129 12.35051 96.46679 0 192.93356 0 289.40035 0 0 55.60009 0 111.2002 0 166.80029 94.06645-94.06686 188.13532-188.13128 282.2007-282.19922-70.36748-8.70834-141.62396-2.92186-212.40661-4.60107-143.26469 0-286.52939 0-429.79409 0zm727.8003 32.20019C791.8668 588.12559 675.93406 704.05953 560.00098 819.99315c113.33301 0 226.666 0 339.99902 0 0-69.5337 0-139.06738 0-208.60106 49.3917 43.44268 64.02825 110.82639 60 173.89751.3444 60.87712-.69375 121.80015.52755 182.64817 4.215 54.99763 86.58195 71.33773 111.43325 22.05285 14.4835-34.09395 5.5609-72.5334 8.0392-108.7467-2.639-89.38664 11.9138-183.56426-30.9791-266.30058C1019.452 553.45888 968.96497 502.42041 907.8003 472.19238ZM540 899.99265c0 60 0 119.99995 0 180.00005 120 0 240 0 360 0 0-60.0001 0-120.00005 0-180.00005-120 0-240 0-360 0z" style="opacity:.8;fill:#fff;stroke:#fff;stroke-width:84.468361;stroke-linecap:round;stroke-linejoin:round;filter:url(#a)" transform="matrix(1.0654877 0 0 1.0654877 -39.319753 -39.289893)"/><path d="M824.70076 88.504635C751.79457 96.044495 678.92868 104.03 606.03802 111.74143c-47.56519 6.29521-25.89661 74.19725 14.97838 62.05789 69.93071-.31191 139.91075.62443 209.81061-.46908 30.61308-6.32277 27.31218-44.28359 21.94708-67.46737C847.90227 95.287999 836.4396 88.094519 824.70076 88.504635ZM582.0708 216.42091c-23.48053 86.05574 54.23735 178.28174 143.00367 169.82292 82.93963-2.06987 148.45489-89.68055 126.98976-169.82292-89.99777 0-179.99562 0-269.99343 0zM152.46803 429.51637c-58.778363-3.32107-87.586404 81.60304-38.84943 114.6992 33.77711 22.10439 75.99715 10.04793 114.07249 13.15932 102.78417 0 205.56833 0 308.35251 0 0 59.24121 0 118.48244 0 177.72365 100.22664-100.22708 200.45586-200.45156 300.68137-300.67979-74.97569-9.27863-150.89859-3.11321-226.31663-4.90238-152.64676 0-305.29354 0-457.94031 0zm775.46226 34.3089c-123.52572 123.52541-247.05063 247.05159-370.5759 370.57744 120.75493 0 241.50983 0 362.26477 0 0-74.0873 0-148.17458 0-222.26186 52.62625 46.28764 68.22131 118.08415 63.92926 185.28565.36696 64.86382-.73918 129.77656.5621 194.60938 4.49103 58.59932 92.25198 76.00952 118.73078 23.49702 15.432-36.32667 5.925-77.28343 8.5656-115.86825-2.8118-95.24036 12.6941-195.58546-33.0078-283.73999C1046.8938 550.41373 993.10049 496.03287 927.93029 463.82527ZM536.0436 919.64119c0 63.92926 0 127.85851 0 191.78781 127.85852 0 255.71704 0 383.57556 0 0-63.9293 0-127.85855 0-191.78781-127.85852 0-255.71704 0-383.57556 0z" fill="#2b2b2b" stroke-width=".852392"/></svg>