<svg height="580" width="580" xmlns="http://www.w3.org/2000/svg"><g stroke-linejoin="round"><path d="m263.8617 35.444683c0 169.738667 0 339.477317 0 509.215977 18.24845 0 36.49689 0 54.74534 0 0-169.73866 0-339.47731 0-509.215977-18.24845 0-36.49689 0-54.74534 0zM126.99829 71.817254C87.236819 69.956285 58.2359 118.23077 78.860416 152.3821c17.3561 35.45837 72.852894 38.12193 93.533594 4.49839 24.99386-34.67407-2.72334-86.360911-45.39572-85.063236zm328.47213 0c-39.76147-1.860969-68.7624 46.413516-48.13787 80.564846 17.35609 35.45837 72.85289 38.12193 93.53359 4.49839C525.86 122.20642 498.1428 70.519579 455.47042 71.817254ZM90.5014 217.30753c-25.161127-.8764-47.923619 32.38432-29.368602 53.25612 10.298098 21.30014 50.064012 41.68606 32.598613 67.20704-26.225003 22.26807-54.91225 47.83141-57.258082 84.78097-7.4142 18.32228 11.813577 12.02807 22.846396 12.9913 13.4353 0 26.8706 0 40.3059 0 0 36.37257 0 72.74513 0 109.1177 18.248455 0 36.496905 0 54.745355 0 0-36.37257 0-72.74513 0-109.1177 21.28986 0 42.57972 0 63.86958 0 1.98218-39.28548-24.20327-71.76903-53.88996-94.17271-26.29074-22.16346 13.30399-46.54735 25.06043-65.81179 22.30603-19.34881 3.90295-54.90152-22.04597-58.00527-25.59996-.5611-51.24997-.0908-76.86366-.24566zm310.22367 0c-26.02221-.18703-44.14306 29.65946-33.75251 53.16204 15.86325 55.46872 49.00536 104.87476 60.94196 161.50621.42377 37.55232.0638 75.12475.18322 112.68488 18.24845 0 36.49691 0 54.74536 0 .45007-38.83495-.9183-77.77435.71729-116.54147 14.1443-59.30297 50.81453-110.95823 62.96907-170.8168 3.28674-24.33255-21.00665-43.85491-44.16824-39.99486-33.87871 0-67.75743 0-101.63615 0z" fill="#fff" opacity=".8" stroke="#fff" stroke-linecap="round" stroke-width="56.714"/><path d="m262.57302 38.129395c0 167.913745 0 335.827475 0 503.741215 18.4053 0 36.81058 0 55.21587 0 0-167.91374 0-335.82747 0-503.741214-18.40529 0-36.81057 0-55.21587-.000001zM124.53329 74.110911C84.430069 72.269949 55.179891 120.02542 75.981675 153.80958c17.50527 35.07714 73.479055 37.71206 94.337505 4.45002 25.20868-34.30127-2.74675-85.432413-45.78589-84.148689zm331.2953 0c-40.10322-1.840962-69.35341 45.914509-48.55161 79.698669 17.50527 35.07714 73.47905 37.71206 94.3375 4.45002 25.20868-34.30127-2.74674-85.432413-45.78589-84.148689zM87.722712 218.03698c-26.743134-.91508-49.352228 34.65001-27.938782 55.03806 11.982421 17.79853 31.885417 31.5167 37.141424 52.90648-10.732774 23.91381-40.876528 34.36774-51.997988 59.1764-4.400735 11.40975-24.19166 48.4739-3.689673 48.76815 18.562554 0 37.125108 0 55.687661 0 0 35.98151 0 71.96302 0 107.94454 18.405306 0 36.810596 0 55.215896 0 0-35.98152 0-71.96303 0-107.94454 21.47284 0 42.94568 0 64.41852 0 1.64783-37.40341-22.62947-69.69109-51.99799-91.1013-27.67684-16.76884 1.88404-41.98166 14.87736-57.45221 17.10151-14.72094 26.9385-41.40364 5.67112-57.4363-16.74996-15.52187-40.91483-8.18184-61.60012-9.89928-11.92914 0-23.858295 0-35.787428 0zm312.889998 0c-26.24587-.18503-44.52246 29.34057-34.0426 52.59046 15.93946 54.88596 49.52052 103.72731 61.46574 159.7698.42724 37.14859.0646 74.31706.1848 111.47337 18.40529 0 36.8106 0 55.21589 0 .44873-38.41774-.91897-76.93775.72345-115.28849 14.18464-58.68378 51.34644-109.74551 63.51028-168.98029 3.2727-23.73673-20.71423-43.21223-43.90151-39.56485-34.38535 0-68.7707 0-103.15605 0z" fill="#c8ab7f" stroke="#724908" stroke-width="19.261"/></g></svg>