<svg enable-background="new 0 0 580 580" height="580" viewBox="0 0 580 580" width="580" xmlns="http://www.w3.org/2000/svg"><path d="M543.07407 397.88149H31.074073v51.2h51.2v102.4H491.87407v-102.4h51.2v-51.2m-295.94-25.6c-6.4 0-11.26-4.86-12.54-11.26l-9.73-76.8v-1.54c0-7.17 5.63-12.8 12.8-12.8h98.82 1.79c6.91 1.02 11.78 7.42 11.01 14.34l-9.73 76.8c-1.28 6.4-6.14 11.26-12.54 11.26h-79.88m219.14-332.800006 65.54 119.810006c1.02 2.56 1.28 5.38 1.28 8.19 0 14.34-11.52 25.6-25.6 25.6h-41.22v179.2h-51.2v-179.2h-102.4v51.2h-51.2v-51.2h-102.4v179.2h-51.2v-179.2H72.544073c-4.1 0-7.94-1.02-11.78-2.82-12.54-6.4-17.66-21.76-11.26-34.3L107.87407 39.481484Z" fill="none" opacity=".8" stroke="#fff" stroke-linejoin="round" stroke-width="40"/><path d="M543.07407 397.88149H31.074073v51.2h51.2v102.4H491.87407v-102.4h51.2v-51.2m-295.94-25.6c-6.4 0-11.26-4.86-12.54-11.26l-9.73-76.8v-1.54c0-7.17 5.63-12.8 12.8-12.8h98.82 1.79c6.91 1.02 11.78 7.42 11.01 14.34l-9.73 76.8c-1.28 6.4-6.14 11.26-12.54 11.26h-79.88m219.14-332.800006 65.54 119.810006c1.02 2.56 1.28 5.38 1.28 8.19 0 14.34-11.52 25.6-25.6 25.6h-41.22v179.2h-51.2v-179.2h-102.4v51.2h-51.2v-51.2h-102.4v179.2h-51.2v-179.2H72.544073c-4.1 0-7.94-1.02-11.78-2.82-12.54-6.4-17.66-21.76-11.26-34.3L107.87407 39.481484Z" fill="#0072bd"/></svg>