<?xml version="1.0" encoding="UTF-8" standalone="no"?>
<svg
   xmlns:dc="http://purl.org/dc/elements/1.1/"
   xmlns:cc="http://creativecommons.org/ns#"
   xmlns:rdf="http://www.w3.org/1999/02/22-rdf-syntax-ns#"
   xmlns:svg="http://www.w3.org/2000/svg"
   xmlns="http://www.w3.org/2000/svg"
   xmlns:sodipodi="http://sodipodi.sourceforge.net/DTD/sodipodi-0.dtd"
   xmlns:inkscape="http://www.inkscape.org/namespaces/inkscape"
   height="580"
   width="580"
   version="1.0"
   id="svg824"
   sodipodi:docname="AED-night.svg"
   inkscape:version="0.92.4 (5da689c313, 2019-01-14)">
  <defs
     id="defs828" />
  <sodipodi:namedview
     pagecolor="#ffffff"
     bordercolor="#666666"
     borderopacity="1"
     objecttolerance="10"
     gridtolerance="10"
     guidetolerance="10"
     inkscape:pageopacity="0"
     inkscape:pageshadow="2"
     inkscape:window-width="1920"
     inkscape:window-height="1017"
     id="namedview826"
     showgrid="false"
     inkscape:zoom="1.462069"
     inkscape:cx="110.63357"
     inkscape:cy="290.10277"
     inkscape:window-x="-8"
     inkscape:window-y="-8"
     inkscape:window-maximized="1"
     inkscape:current-layer="g966" />
  <metadata
     id="metadata2975">
    <rdf:RDF>
      <cc:Work
         rdf:about="">
        <dc:format>image/svg+xml</dc:format>
        <dc:type
           rdf:resource="http://purl.org/dc/dcmitype/StillImage" />
        <dc:title></dc:title>
      </cc:Work>
    </rdf:RDF>
  </metadata>
  <g
     id="g966"
     transform="matrix(43.480197,0,0,-43.480197,307.88094,336.12543)">
    <path
       style="fill:#009a3b;fill-rule:evenodd;stroke-width:0.0201675;image-rendering:optimizeQuality;shape-rendering:geometricPrecision;text-rendering:geometricPrecision"
       d="M -6.4300319,7.0167043 H 5.670467 V -5.0837947 H -6.4300319 Z"
       id="path819"
       inkscape:connector-curvature="0" />
    <path
       style="fill:#373737;fill-opacity:1;fill-rule:evenodd;stroke-width:0.0201675;image-rendering:optimizeQuality;shape-rendering:geometricPrecision;text-rendering:geometricPrecision"
       d="m 1.3579294,-2.3208471 c 0.9326212,1.088512 1.7326071,2.22834915 1.509255,3.6301491 C 2.648494,2.4125176 1.7826441,3.5194157 0.68909491,3.5882299 0.30574382,3.6048977 -0.01903337,3.5388862 -0.42011779,3.3462197 -0.82120221,3.1535532 -1.0367198,2.9536838 -1.3478228,2.6605249 c -0.4396075,0.3864528 -0.8904268,0.7593509 -1.4722271,0.88737 -1.5279967,0.2387263 -2.6232169,-1.0700158 -2.7831146,-2.3797647 -0.1499216,-1.41634031 1.020479,-2.7392651 1.7747407,-3.4889773 0.6959456,-0.6917479 1.1949288,-1.2509699 2.4806023,-1.87558 1.19053636,0.572898 2.0442582,1.1035166 2.7057509,1.87558 z"
       id="path817"
       inkscape:connector-curvature="0" />
    <path
       style="fill:#373737;fill-opacity:1;fill-rule:evenodd;stroke-width:0.0201675;image-rendering:optimizeQuality;shape-rendering:geometricPrecision;text-rendering:geometricPrecision"
       d="m 3.895727,4.3545948 1.1898828,0.020168 V 5.3428033 L 3.895727,5.3629713 V 6.532686 H 2.8268494 L 2.8066814,5.3629708 1.6167991,5.3428028 V 4.3747632 L 2.8268485,4.3545952 V 3.2252146 h 1.0487101 z"
       id="path8"
       inkscape:connector-curvature="0" />
    <path
       style="fill:#009a3b;fill-rule:evenodd;stroke-width:0.0201675;image-rendering:optimizeQuality;shape-rendering:geometricPrecision;text-rendering:geometricPrecision"
       inkscape:connector-curvature="0"
       id="path10"
       d="m -2.3763645,-2.6435275 0.96804,2.31926213 0.020168,0.0201684 -1.3915579,0.0403368 2.29909453,2.76294757 0.0605052,0.020168 L -1.3074842,0.34126628 0.00340363,0.30092948 -2.3561935,-2.6435257 h -0.020168 z"
       class="fil1"
       sodipodi:nodetypes="ccccccccccc" />
  </g>
</svg>
