<?xml version="1.0" encoding="UTF-8" standalone="no"?>
<svg xmlns="http://www.w3.org/2000/svg" xmlns:sodipodi="http://sodipodi.sourceforge.net/DTD/sodipodi-0.dtd" xmlns:inkscape="http://www.inkscape.org/namespaces/inkscape" height="580" width="580" version="1.0">
 <metadata id="metadata2975"/>
 <path id="path8069" d="m 83.076,84.3 c 136.164,0 272.334,0 408.494,0 0,136.16 0,272.33 0,408.49 -136.16,0 -272.33,0 -408.494,0 0,-136.16 0,-272.33 0,-408.49 z" inkscape:connector-curvature="0" opacity="0.8" stroke="#ffffff" stroke-linejoin="round" stroke-linecap="round" stroke-width="103.84"/>
 <path id="rect4176" d="m 83.076,84.3 c 136.164,0 272.334,0 408.494,0 0,136.16 0,272.33 0,408.49 -136.16,0 -272.33,0 -408.494,0 0,-136.16 0,-272.33 0,-408.49 z" inkscape:connector-curvature="0" opacity="0.25" fill="#767572" stroke="#000000" stroke-linejoin="round" stroke-linecap="round" stroke-width="48.692"/>
 <path id="rect4178" d="m 83.076,84.3 c 136.164,0 272.334,0 408.494,0 0,136.16 0,272.33 0,408.49 -136.16,0 -272.33,0 -408.494,0 0,-136.16 0,-272.33 0,-408.49 z" inkscape:connector-curvature="0" fill="#767572" stroke="#202020" stroke-linejoin="round" stroke-linecap="round" stroke-width="48.692"/>
</svg>
