<?xml version="1.0" encoding="UTF-8" standalone="no"?>
<svg
   xmlns:dc="http://purl.org/dc/elements/1.1/"
   xmlns:cc="http://creativecommons.org/ns#"
   xmlns:rdf="http://www.w3.org/1999/02/22-rdf-syntax-ns#"
   xmlns:svg="http://www.w3.org/2000/svg"
   xmlns="http://www.w3.org/2000/svg"
   xmlns:sodipodi="http://sodipodi.sourceforge.net/DTD/sodipodi-0.dtd"
   xmlns:inkscape="http://www.inkscape.org/namespaces/inkscape"
   height="580"
   width="580"
   version="1.0"
   id="svg824"
   sodipodi:docname="allot-gdns-night.svg"
   inkscape:version="0.92.4 (5da689c313, 2019-01-14)">
  <defs
     id="defs828" />
  <sodipodi:namedview
     pagecolor="#ffffff"
     bordercolor="#666666"
     borderopacity="1"
     objecttolerance="10"
     gridtolerance="10"
     guidetolerance="10"
     inkscape:pageopacity="0"
     inkscape:pageshadow="2"
     inkscape:window-width="1920"
     inkscape:window-height="1017"
     id="namedview826"
     showgrid="false"
     inkscape:zoom="0.74568965"
     inkscape:cx="112.21201"
     inkscape:cy="299.76209"
     inkscape:window-x="-8"
     inkscape:window-y="-8"
     inkscape:window-maximized="1"
     inkscape:current-layer="g966" />
  <metadata
     id="metadata2975">
    <rdf:RDF>
      <cc:Work
         rdf:about="">
        <dc:format>image/svg+xml</dc:format>
        <dc:type
           rdf:resource="http://purl.org/dc/dcmitype/StillImage" />
        <dc:title />
      </cc:Work>
    </rdf:RDF>
  </metadata>
  <g
     id="g966"
     transform="matrix(43.480197,0,0,-43.480197,307.88094,336.12543)">
    <path
       inkscape:connector-curvature="0"
       id="path826-4"
       style="font-style:normal;font-weight:normal;font-size:4.94981194px;line-height:1.25;font-family:sans-serif;letter-spacing:0px;word-spacing:0px;fill:none;fill-opacity:1;stroke:#373737;stroke-width:0.59797335;stroke-linejoin:round;stroke-miterlimit:4;stroke-dasharray:none;stroke-opacity:1"
       d="m -2.7164643,1.8829458 h -0.509966 L -3.5792978,2.8859594 H -5.1357816 L -5.4886491,1.8829458 H -5.974446 l 1.30996,3.5987645 h 0.6380616 z M -3.7267286,3.2968324 -4.3575397,5.0635866 -4.9907676,3.2968324 Z"
       sodipodi:nodetypes="ccccccccccccc" />
    <path
       inkscape:connector-curvature="0"
       id="path828-5"
       style="font-style:normal;font-weight:normal;font-size:4.94981194px;line-height:1.25;font-family:sans-serif;letter-spacing:0px;word-spacing:0px;fill:none;fill-opacity:1;stroke:#373737;stroke-width:0.59797335;stroke-linejoin:round;stroke-miterlimit:4;stroke-dasharray:none;stroke-opacity:1"
       d="m -1.7472873,1.8829458 h -0.4543771 v 3.7606968 h 0.4543771 z"
       sodipodi:nodetypes="ccccc" />
    <path
       inkscape:connector-curvature="0"
       id="path830-6"
       style="font-style:normal;font-weight:normal;font-size:4.94981194px;line-height:1.25;font-family:sans-serif;letter-spacing:0px;word-spacing:0px;fill:none;fill-opacity:1;stroke:#373737;stroke-width:0.59797335;stroke-linejoin:round;stroke-miterlimit:4;stroke-dasharray:none;stroke-opacity:1"
       d="m -0.38415607,1.8829458 h -0.45437695 v 3.7606968 h 0.45437695 z"
       sodipodi:nodetypes="ccccc" />
    <path
       inkscape:connector-curvature="0"
       id="path832-9"
       style="font-style:normal;font-weight:normal;font-size:4.94981194px;line-height:1.25;font-family:sans-serif;letter-spacing:0px;word-spacing:0px;fill:none;fill-opacity:1;stroke:#373737;stroke-width:0.59797335;stroke-linejoin:round;stroke-miterlimit:4;stroke-dasharray:none;stroke-opacity:1"
       d="M 2.8206546,3.2315761 C 2.8206546,2.7917002 2.707866,2.4444722 2.4822886,2.189892 2.2567112,1.9353119 1.9545987,1.8080218 1.5759509,1.8080218 c -0.3818706,0 -0.68604685,0.1268899 -0.91117195,0.3818702 -0.2244192,0.2541807 -0.3359491,0.6018082 -0.3359491,1.0416841 0,0.4398759 0.1119285,0.7871518 0.3359491,1.041684 0.225523,0.2562395 0.52930135,0.3842872 0.91117195,0.3842872 0.3786478,0 0.6803603,-0.1284485 0.9063377,-0.3842872 0.2251779,-0.2549336 0.338366,-0.6018081 0.338366,-1.041684 z m -0.4688788,0 c 0,0.349645 -0.068872,0.6087413 -0.2054365,0.778242 -0.1373515,0.1704775 -0.3270871,0.2561913 -0.5703884,0.2561913 -0.2465241,0 -0.4383625,-0.085319 -0.5752227,-0.2561913 -0.13544435,-0.1691048 -0.20301985,-0.428597 -0.20301985,-0.778242 0,-0.338366 0.068088,-0.5956691 0.20543675,-0.7709913 0.136567,-0.1743235 0.327893,-0.2610252 0.5728058,-0.2610252 0.24169,0 0.430913,0.086283 0.5679717,0.2586085 0.1384678,0.1740972 0.2078532,0.4318194 0.2078532,0.773408 z"
       sodipodi:nodetypes="ssssssssssssssssss" />
    <path
       inkscape:connector-curvature="0"
       id="path834-9"
       style="font-style:normal;font-weight:normal;font-size:4.94981194px;line-height:1.25;font-family:sans-serif;letter-spacing:0px;word-spacing:0px;fill:none;fill-opacity:1;stroke:#373737;stroke-width:0.59797335;stroke-linejoin:round;stroke-miterlimit:4;stroke-dasharray:none;stroke-opacity:1"
       d="M 4.9281919,1.9071147 C 4.8695797,1.8896677 4.749325,1.8661407 4.6478314,1.8515257 4.5479165,1.837138 4.4585075,1.8297738 4.3795555,1.8297738 c -0.2755268,0 -0.4849914,0.074118 -0.6283941,0.2223548 -0.1434028,0.1482366 -0.2151041,0.3858986 -0.2151041,0.7129857 0,0.4785463 0,1.4356388 0,1.4356388 H 3.2291109 v 0.3818703 h 0.3069464 v 0.775825 H 3.9904345 V 4.5826234 H 4.9281919 V 4.2007531 H 3.9904345 c 0,0 0,-0.8201349 0,-1.2302023 0,-0.1417914 0.00316,-0.252974 0.00967,-0.3335321 0.00639,-0.078957 0.029211,-0.1529551 0.067673,-0.2223548 0.035656,-0.064336 0.083313,-0.1129484 0.145014,-0.1425973 0.062381,-0.029975 0.1579041,-0.043504 0.2851942,-0.043504 0.1549119,0.00339 0.2870532,0.043047 0.4302083,0.087009 -0.00459,-0.1153573 -2.1e-6,-0.408457 -2.1e-6,-0.4084569 z"
       sodipodi:nodetypes="sssssccccccccccssssccs" />
    <path
       inkscape:connector-curvature="0"
       id="path836-5"
       style="font-style:normal;font-weight:normal;font-size:4.94981194px;line-height:1.25;font-family:sans-serif;letter-spacing:0px;word-spacing:0px;fill:none;fill-opacity:1;stroke:#373737;stroke-width:0.59797335;stroke-linejoin:round;stroke-miterlimit:4;stroke-dasharray:none;stroke-opacity:1"
       d="m -3.2880832,-3.1185003 c -0.1965745,-0.090231 -0.4116786,-0.169183 -0.6453124,-0.2368561 -0.2320224,-0.066062 -0.4567941,-0.099093 -0.6743151,-0.099093 -0.2803605,0 -0.5373575,0.03867 -0.7709912,0.1160112 -0.2336337,0.077341 -0.4326252,0.1933519 -0.5969744,0.3480336 -0.1659605,0.156293 -0.2940563,0.3512563 -0.3842872,0.58489 -0.090231,0.235245 -0.1353464,0.5099659 -0.1353464,0.824163 0,0.5752221 0.1675718,1.02879363 0.5027153,1.36071443 0.3367548,0.3335323 0.7983828,0.5002983 1.3848839,0.5002983 0.2046309,0 0.4132899,-0.024975 0.6259773,-0.074924 0.2142984,-0.048338 0.4447095,-0.1313184 0.6912335,-0.2489409 v -0.5679711 c -0.1855815,0.09644 -0.3655292,0.2284366 -0.5413855,0.3093631 -0.1111776,0.049949 -0.237662,0.091037 -0.3794535,0.1232619 -0.1401802,0.033837 -0.2996956,0.050755 -0.4785462,0.050755 -0.4028167,0 -0.7218476,-0.1297071 -0.9570926,-0.389121 -0.2336337,-0.2578024 -0.3504505,-0.60744733 -0.3504505,-1.04893433 0,-0.4656561 0.1224563,-0.828191 0.3673688,-1.087605 0.2449126,-0.2578027 0.5784449,-0.3867041 1.0005968,-0.3867041 0.1546816,0 0.3085576,0.015307 0.4616279,0.045921 0.1546817,0.030614 0.2900281,0.07009 0.4060393,0.1184282 v 0.8821687 h -0.9643434 v 0.4205406 h 1.4380556 z"
       sodipodi:nodetypes="ccssccscscccccscscsccccccc" />
    <path
       inkscape:connector-curvature="0"
       id="path838-2"
       style="font-style:normal;font-weight:normal;font-size:4.94981194px;line-height:1.25;font-family:sans-serif;letter-spacing:0px;word-spacing:0px;fill:none;fill-opacity:1;stroke:#373737;stroke-width:0.59797335;stroke-linejoin:round;stroke-miterlimit:4;stroke-dasharray:none;stroke-opacity:1"
       d="m -0.29837702,-3.3843592 h -0.4543774 v 0.2827774 C -0.88326692,-3.2143706 -1.019419,-3.3021846 -1.1612107,-3.365024 c -0.1417915,-0.062839 -0.2956676,-0.094259 -0.4616282,-0.094259 -0.3222533,0 -0.5784447,0.1240675 -0.7685742,0.3722025 -0.1885183,0.2481353 -0.2827775,0.5921407 -0.2827775,1.0320166 0,0.2288 0.032225,0.4326252 0.096676,0.6114758 0.066062,0.1788506 0.1546817,0.3311153 0.265859,0.45679413 0.1095662,0.1224562 0.2368563,0.2159096 0.3818701,0.2803601 0.1466254,0.064451 0.2980845,0.096676 0.4543775,0.096676 0.1417914,0 0.2674703,-0.015307 0.3770366,-0.045921 0.10956628,-0.029003 0.22477188,-0.074924 0.34561678,-0.1377631 v 1.1697792 h 0.4543774 z m -0.4543774,0.6646476 v 1.5492331 c -0.1224562,0.054783 -0.2320224,0.092648 -0.32869848,0.1135942 -0.096676,0.020947 -0.2022141,0.03142 -0.3166142,0.03142 -0.2545801,0 -0.4527659,-0.08862 -0.5945576,-0.265859 -0.1417914,-0.1772393 -0.2126872,-0.4285969 -0.2126872,-0.7540729 0,-0.3206421 0.054783,-0.564749 0.1643493,-0.7323207 0.1095662,-0.1659606 0.2851942,-0.2489409 0.5268843,-0.2489409 0.1289014,0 0.2594139,0.028197 0.391538,0.084591 0.13212408,0.058005 0.25538598,0.1321236 0.36978588,0.2223552 z"
       sodipodi:nodetypes="cccsscscccsccccccccssscscc" />
    <path
       inkscape:connector-curvature="0"
       id="path840-6"
       style="font-style:normal;font-weight:normal;font-size:4.94981194px;line-height:1.25;font-family:sans-serif;letter-spacing:0px;word-spacing:0px;fill:none;fill-opacity:1;stroke:#373737;stroke-width:0.59797335;stroke-linejoin:round;stroke-miterlimit:4;stroke-dasharray:none;stroke-opacity:1"
       d="M 2.8532609,-3.3843592 H 2.3988837 v 1.5371487 c 0,0.1240675 -0.00725,0.2400788 -0.021752,0.3480336 -0.014501,0.1095662 -0.041087,0.1949633 -0.079758,0.2561914 -0.040282,0.067673 -0.098288,0.1176225 -0.1740167,0.149848 -0.07573,0.033837 -0.1740169,0.050755 -0.2948621,0.050755 -0.1240675,0 -0.2537743,-0.030614 -0.389121,-0.091842 C 1.3040276,-1.1954525 1.0502532,-1.3686641 1.0502532,-1.3686641 V -3.3843592 H 0.59587625 v 2.69967753 H 1.0502532 v -0.2996955 c 0,0 0.2884168,0.2094645 0.4398759,0.2755263 0.151459,0.066062 0.3069464,0.099093 0.4664618,0.099093 0.2916392,0 0.5139942,-0.087814 0.6670643,-0.263442 C 2.7767256,-1.0488279 2.8532609,-1.3017968 2.8532609,-1.6321065 Z"
       sodipodi:nodetypes="ccscccssccccccssssc" />
    <path
       inkscape:connector-curvature="0"
       id="path842-4"
       style="font-style:normal;font-weight:normal;font-size:4.94981194px;line-height:1.25;font-family:sans-serif;letter-spacing:0px;word-spacing:0px;fill:none;fill-opacity:1;stroke:#373737;stroke-width:0.59797335;stroke-linejoin:round;stroke-miterlimit:4;stroke-dasharray:none;stroke-opacity:1"
       d="m 5.6568648,-2.6061173 c 0,-0.2465238 -0.1023155,-0.4487379 -0.3069464,-0.606642 -0.2030198,-0.157904 -0.4809631,-0.2368561 -0.8338306,-0.2368561 -0.1997972,0 -0.3834815,0.023363 -0.5510534,0.07009 -0.1659604,0.048338 -0.3053351,0.1007042 -0.4181237,0.1570986 v 0.509966 c 0.1693405,-0.086844 0.3469552,-0.200509 0.5027153,-0.2586083 0.175628,-0.062839 0.3440053,-0.094259 0.505132,-0.094259 0.1997972,0 0.3560902,0.032225 0.4688788,0.096676 0.1127888,0.064451 0.169183,0.1659606 0.169183,0.3045294 0,0.1063436 -0.030614,0.1869069 -0.091842,0.24169 -0.2795347,0.1708457 -0.578655,0.1722346 -0.8894195,0.2537741 -0.2368563,0.062839 -0.4052336,0.1546816 -0.5051322,0.2755268 -0.098287,0.1224562 -0.1474308,0.2723039 -0.1474308,0.4495435 0,0.1111772 0.022558,0.2159095 0.067673,0.3141968 0.046727,0.098287 0.1168168,0.18610123 0.2102704,0.26344203 0.090231,0.075729 0.2046309,0.1353464 0.3431999,0.1788506 0.1401802,0.045115 0.2964729,0.067673 0.4688785,0.067673 0.1611267,0 0.3238647,-0.020141 0.488214,-0.060423 0.1659604,-0.038671 0.3037238,-0.086203 0.41329,-0.1425971 V -1.3082421 c -0.1529854,0.072103 -0.3110596,0.166841 -0.4471269,0.2151041 -0.1659604,0.059617 -0.3286984,0.089425 -0.4882137,0.089425 -0.1659606,0 -0.3061408,-0.032225 -0.4205407,-0.096676 -0.1143999,-0.062839 -0.1715999,-0.1570984 -0.1715999,-0.2827775 0,-0.1111772 0.034642,-0.1949632 0.1039266,-0.2513576 0.2699374,-0.1694063 0.5639116,-0.1781563 0.8700841,-0.2489411 0.2110759,-0.048338 0.3738139,-0.1313184 0.488214,-0.2489409 0.1143999,-0.1192336 0.1716,-0.2771375 0.1716002,-0.4737112 z"
       sodipodi:nodetypes="scsccccssscccscccsccccscscccs" />
    <path
       inkscape:connector-curvature="0"
       id="path826"
       style="font-style:normal;font-weight:normal;font-size:4.94981194px;line-height:1.25;font-family:sans-serif;letter-spacing:0px;word-spacing:0px;fill:#a1a1a1;fill-opacity:1;stroke:none;stroke-width:0.12374528"
       d="m -2.7164643,1.8829458 h -0.509966 L -3.5792978,2.8859594 H -5.1357816 L -5.4886491,1.8829458 H -5.974446 l 1.30996,3.5987646 h 0.6380617 z m -1.0102644,1.4138867 -0.630811,1.7667542 -0.6332279,-1.7667542 z"
       sodipodi:nodetypes="ccccccccccccc" />
    <path
       inkscape:connector-curvature="0"
       id="path828"
       style="font-style:normal;font-weight:normal;font-size:4.94981194px;line-height:1.25;font-family:sans-serif;letter-spacing:0px;word-spacing:0px;fill:#a1a1a1;fill-opacity:1;stroke:none;stroke-width:0.12374528"
       d="m -1.7472872,1.8829458 h -0.4543773 v 3.7606969 h 0.4543773 z"
       sodipodi:nodetypes="ccccc" />
    <path
       inkscape:connector-curvature="0"
       id="path830"
       style="font-style:normal;font-weight:normal;font-size:4.94981194px;line-height:1.25;font-family:sans-serif;letter-spacing:0px;word-spacing:0px;fill:#a1a1a1;fill-opacity:1;stroke:none;stroke-width:0.12374528"
       d="M -0.38415603,1.8829458 H -0.838533 v 3.7606969 h 0.45437697 z"
       sodipodi:nodetypes="ccccc" />
    <path
       inkscape:connector-curvature="0"
       id="path832"
       style="font-style:normal;font-weight:normal;font-size:4.94981194px;line-height:1.25;font-family:sans-serif;letter-spacing:0px;word-spacing:0px;fill:#a1a1a1;fill-opacity:1;stroke:none;stroke-width:0.12374528"
       d="m 2.8206546,3.2315762 c 0,-0.4398759 -0.1127887,-0.7871039 -0.3383661,-1.0416841 C 2.2567112,1.935312 1.9545986,1.8080219 1.5759509,1.8080219 c -0.3818706,0 -0.68604695,0.1268899 -0.91117198,0.3818702 -0.22441925,0.2541808 -0.33594915,0.6018082 -0.33594915,1.0416841 0,0.4398759 0.11192859,0.7871518 0.33594915,1.041684 0.22552303,0.2562394 0.52930138,0.3842872 0.91117198,0.3842872 0.3786477,0 0.6803602,-0.1284485 0.9063376,-0.3842872 0.2251779,-0.2549336 0.3383661,-0.6018081 0.3383661,-1.041684 z m -0.4688787,0 c 0,0.3496449 -0.068872,0.6087413 -0.2054365,0.7782419 -0.1373516,0.1704776 -0.3270872,0.2561914 -0.5703885,0.2561914 -0.2465241,0 -0.4383626,-0.085319 -0.5752228,-0.2561914 C 0.86528395,3.8407133 0.79770845,3.5812211 0.79770845,3.2315762 c 0,-0.3383661 0.068088,-0.5956691 0.20543655,-0.7709912 0.1365671,-0.1743237 0.3278931,-0.2610253 0.5728059,-0.2610253 0.2416901,0 0.4309129,0.086283 0.5679716,0.2586084 0.138468,0.1740972 0.2078534,0.4318195 0.2078534,0.7734081 z"
       sodipodi:nodetypes="ssssssssssssssssss" />
    <path
       inkscape:connector-curvature="0"
       id="path834"
       style="font-style:normal;font-weight:normal;font-size:4.94981194px;line-height:1.25;font-family:sans-serif;letter-spacing:0px;word-spacing:0px;fill:#a1a1a1;fill-opacity:1;stroke:none;stroke-width:0.12374528"
       d="M 4.9281919,1.9071148 C 4.8695798,1.8896677 4.749325,1.8661408 4.6478314,1.8515258 4.5479165,1.8371382 4.4585076,1.8297738 4.3795555,1.8297738 c -0.2755267,0 -0.4849914,0.074118 -0.6283941,0.2223548 -0.1434027,0.1482367 -0.2151041,0.3858986 -0.2151041,0.7129858 0,0.4785463 0,1.4356388 0,1.4356388 H 3.2291109 v 0.3818703 h 0.3069464 v 0.775825 H 3.9904345 V 4.5826235 H 4.9281919 V 4.2007532 H 3.9904345 c 0,0 0,-0.8201349 0,-1.2302023 0,-0.1417915 0.00316,-0.2529741 0.00967,-0.3335322 0.00639,-0.078957 0.029211,-0.152955 0.067673,-0.2223548 0.035656,-0.064336 0.083313,-0.1129483 0.1450141,-0.1425972 0.062381,-0.029975 0.1579041,-0.043504 0.2851942,-0.043504 0.1549119,0.00339 0.2870531,0.043047 0.4302083,0.087009 -0.00459,-0.1153573 -2.2e-6,-0.4084569 -2.2e-6,-0.4084569 z"
       sodipodi:nodetypes="sssssccccccccccssssccs" />
    <path
       inkscape:connector-curvature="0"
       id="path836"
       style="font-style:normal;font-weight:normal;font-size:4.94981194px;line-height:1.25;font-family:sans-serif;letter-spacing:0px;word-spacing:0px;fill:#a1a1a1;fill-opacity:1;stroke:none;stroke-width:0.12374528"
       d="m -3.2880831,-3.1185001 c -0.1965746,-0.090231 -0.4116787,-0.169183 -0.6453124,-0.2368562 -0.2320225,-0.066062 -0.4567942,-0.099093 -0.6743152,-0.099093 -0.2803605,0 -0.5373575,0.03867 -0.7709912,0.1160112 -0.2336337,0.077341 -0.4326252,0.1933521 -0.5969744,0.3480337 -0.1659605,0.1562929 -0.2940563,0.3512562 -0.3842872,0.5848899 -0.090231,0.235245 -0.1353464,0.509966 -0.1353464,0.824163 0,0.5752221 0.1675718,1.02879358 0.5027153,1.36071444 0.3367548,0.33353225 0.7983828,0.50029837 1.3848839,0.50029837 0.2046309,0 0.4132899,-0.0249746 0.6259772,-0.0749239 0.2142985,-0.048338 0.4447096,-0.13131825 0.6912335,-0.24894074 v -0.56797152 c -0.1855814,0.0964404 -0.3655291,0.22843672 -0.5413855,0.30936318 -0.1111774,0.0499493 -0.2376619,0.0910366 -0.3794534,0.12326191 -0.1401802,0.0338366 -0.2996956,0.0507549 -0.4785462,0.0507549 -0.4028167,0 -0.7218476,-0.12970699 -0.9570926,-0.38912096 -0.2336337,-0.25780249 -0.3504505,-0.60744728 -0.3504505,-1.04893428 0,-0.4656561 0.1224563,-0.8281912 0.3673688,-1.0876051 0.2449126,-0.2578027 0.5784449,-0.3867041 1.0005968,-0.3867041 0.1546816,0 0.3085576,0.015307 0.461628,0.045921 0.1546816,0.030614 0.290028,0.07009 0.4060392,0.1184281 v 0.8821688 h -0.9643434 v 0.4205406 h 1.4380557 z"
       sodipodi:nodetypes="ccssccscscccccscscsccccccc" />
    <path
       inkscape:connector-curvature="0"
       id="path838"
       style="font-style:normal;font-weight:normal;font-size:4.94981194px;line-height:1.25;font-family:sans-serif;letter-spacing:0px;word-spacing:0px;fill:#a1a1a1;fill-opacity:1;stroke:none;stroke-width:0.12374528"
       d="m -0.29837716,-3.3843591 h -0.45437727 v 0.2827773 c -0.13051262,-0.1127887 -0.26666467,-0.2006027 -0.40845627,-0.2634421 -0.1417916,-0.062839 -0.2956676,-0.094259 -0.4616281,-0.094259 -0.3222534,0 -0.5784448,0.1240675 -0.7685743,0.3722026 -0.1885183,0.2481351 -0.2827774,0.5921406 -0.2827774,1.0320165 0,0.2287999 0.032225,0.4326251 0.096676,0.6114758 0.066062,0.1788506 0.1546817,0.3311153 0.2658591,0.45679405 0.1095661,0.1224562 0.2368562,0.2159096 0.3818702,0.2803602 0.1466253,0.0644506 0.2980844,0.0966759 0.4543773,0.0966759 0.1417915,0 0.2674703,-0.015307 0.3770366,-0.045921 0.10956627,-0.0290026 0.22477185,-0.0749237 0.34561687,-0.1377632 v 1.16977933 h 0.45437727 z m -0.45437727,0.6646476 v 1.5492331 c -0.12245629,0.054783 -0.23202244,0.092648 -0.32869847,0.1135943 -0.096676,0.020947 -0.2022142,0.03142 -0.3166142,0.03142 -0.2545801,0 -0.452766,-0.08862 -0.5945575,-0.265859 -0.1417915,-0.1772394 -0.2126872,-0.428597 -0.2126872,-0.7540729 0,-0.3206421 0.054783,-0.5647491 0.1643492,-0.7323208 0.1095662,-0.1659605 0.2851943,-0.2489408 0.5268843,-0.2489408 0.1289013,0 0.259414,0.028197 0.391538,0.084591 0.132124,0.058005 0.25538592,0.1321237 0.36978587,0.2223551 z"
       sodipodi:nodetypes="cccsscscccsccccccccssscscc" />
    <path
       inkscape:connector-curvature="0"
       id="path840"
       style="font-style:normal;font-weight:normal;font-size:4.94981194px;line-height:1.25;font-family:sans-serif;letter-spacing:0px;word-spacing:0px;fill:#a1a1a1;fill-opacity:1;stroke:none;stroke-width:0.12374528"
       d="M 2.8532609,-3.3843591 H 2.3988836 v 1.5371486 c 0,0.1240675 -0.00725,0.2400787 -0.021752,0.3480336 -0.014501,0.1095662 -0.041087,0.1949634 -0.079758,0.2561915 -0.040282,0.067673 -0.098288,0.1176225 -0.1740168,0.1498478 -0.07573,0.033837 -0.1740169,0.050755 -0.2948619,0.050755 -0.1240675,0 -0.2537745,-0.030614 -0.389121,-0.091842 C 1.3040276,-1.1954527 1.0502532,-1.368664 1.0502532,-1.368664 V -3.3843591 H 0.59587617 v 2.69967735 H 1.0502532 v -0.2996954 c 0,0 0.2884168,0.20946453 0.4398759,0.2755264 0.1514591,0.066062 0.3069463,0.099093 0.4664617,0.099093 0.2916393,0 0.5139942,-0.087814 0.6670645,-0.263442 C 2.7767257,-1.0488277 2.8532609,-1.3017966 2.8532609,-1.6321063 Z"
       sodipodi:nodetypes="ccscccssccccccssssc" />
    <path
       inkscape:connector-curvature="0"
       id="path842"
       style="font-style:normal;font-weight:normal;font-size:4.94981194px;line-height:1.25;font-family:sans-serif;letter-spacing:0px;word-spacing:0px;fill:#a1a1a1;fill-opacity:1;stroke:none;stroke-width:0.12374528"
       d="m 5.6568647,-2.6061172 c 0,-0.2465239 -0.1023155,-0.4487379 -0.3069464,-0.606642 -0.2030196,-0.1579041 -0.4809631,-0.2368562 -0.8338306,-0.2368562 -0.1997971,0 -0.3834815,0.023363 -0.5510533,0.07009 -0.1659605,0.048338 -0.305335,0.1007042 -0.4181237,0.1570986 v 0.509966 c 0.1693406,-0.086844 0.3469553,-0.200509 0.5027153,-0.2586084 0.1756281,-0.062839 0.3440054,-0.094259 0.5051321,-0.094259 0.1997971,0 0.35609,0.032225 0.4688787,0.096676 0.1127887,0.064451 0.169183,0.1659605 0.169183,0.3045295 0,0.1063436 -0.030614,0.1869069 -0.091842,0.24169 -0.2795348,0.1708458 -0.5786549,0.1722346 -0.8894195,0.2537741 -0.2368563,0.062839 -0.4052337,0.1546816 -0.5051322,0.2755267 -0.098287,0.1224563 -0.1474309,0.2723041 -0.1474309,0.4495435 0,0.1111774 0.022558,0.2159097 0.067673,0.314197 0.046727,0.098287 0.1168168,0.18610122 0.2102703,0.26344195 0.090231,0.0757295 0.2046309,0.13534633 0.3431999,0.1788505 0.1401802,0.0451153 0.2964731,0.0676729 0.4688786,0.0676729 0.1611267,0 0.3238647,-0.020141 0.4882139,-0.0604229 0.1659605,-0.0386707 0.3037239,-0.086203 0.41329,-0.14259705 v -0.485796 c -0.1529851,0.072103 -0.3110595,0.1668409 -0.4471266,0.2151041 -0.1659605,0.059617 -0.3286984,0.089425 -0.4882139,0.089425 -0.1659605,0 -0.3061407,-0.032225 -0.4205406,-0.096676 -0.1143999,-0.062839 -0.1715999,-0.1570984 -0.1715999,-0.2827773 0,-0.1111775 0.034642,-0.1949634 0.1039267,-0.2513577 0.2699373,-0.1694064 0.5639116,-0.1781564 0.8700841,-0.2489413 0.2110759,-0.048338 0.3738139,-0.1313182 0.4882139,-0.2489407 0.1143999,-0.1192338 0.1716,-0.2771376 0.1716001,-0.4737113 z"
       sodipodi:nodetypes="scsccccssscccscccsccccscscccs" />
  </g>
</svg>
