<?xml version="1.0" encoding="UTF-8" standalone="no"?>
<svg
   xmlns:dc="http://purl.org/dc/elements/1.1/"
   xmlns:cc="http://creativecommons.org/ns#"
   xmlns:rdf="http://www.w3.org/1999/02/22-rdf-syntax-ns#"
   xmlns:svg="http://www.w3.org/2000/svg"
   xmlns="http://www.w3.org/2000/svg"
   xmlns:sodipodi="http://sodipodi.sourceforge.net/DTD/sodipodi-0.dtd"
   xmlns:inkscape="http://www.inkscape.org/namespaces/inkscape"
   enable-background="new 0 0 580 580"
   viewBox="0 0 580 580"
   height="580"
   width="580"
   version="1.1"
   id="svg2818"
   sodipodi:docname="battlefield.svg"
   inkscape:version="0.92.4 (5da689c313, 2019-01-14)">
  <defs
     id="defs2822" />
  <sodipodi:namedview
     pagecolor="#ffffff"
     bordercolor="#666666"
     borderopacity="1"
     objecttolerance="10"
     gridtolerance="10"
     guidetolerance="10"
     inkscape:pageopacity="0"
     inkscape:pageshadow="2"
     inkscape:window-width="1920"
     inkscape:window-height="1017"
     id="namedview2820"
     showgrid="false"
     inkscape:zoom="1.462069"
     inkscape:cx="290"
     inkscape:cy="290"
     inkscape:window-x="-8"
     inkscape:window-y="-8"
     inkscape:window-maximized="1"
     inkscape:current-layer="svg2818" />
  <metadata
     id="metadata26">
    <rdf:RDF>
      <cc:Work
         rdf:about="">
        <dc:format>image/svg+xml</dc:format>
        <dc:type
           rdf:resource="http://purl.org/dc/dcmitype/StillImage" />
        <dc:title></dc:title>
      </cc:Work>
    </rdf:RDF>
  </metadata>
  <path
     style="fill:#231f20;fill-opacity:1;fill-rule:evenodd;stroke:none;stroke-width:76.68557739"
     d="m 113.16478,119.90931 c -9.41758,-0.0622 -18.287438,0.89054 -26.459244,2.98741 83.050484,29.21721 130.519344,56.05579 175.687144,85.96316 -6.59496,4.21771 -11.50322,8.05286 -17.10126,12.19387 -46.47147,36.50234 -74.84406,62.95793 -94.55225,83.58635 -20.245,-18.86466 -52.45293,-27.98964 -76.302139,-28.60312 -23.619151,-0.53679 -36.733428,9.20303 -44.478672,18.9421 -16.4874,19.40145 -13.878544,39.49184 -7.897068,59.73684 8.512099,26.76327 27.989014,45.70431 44.476414,52.45264 l -5.9816,8.58908 41.409855,25.61345 c 25.53629,-35.96554 57.28559,-78.75591 89.57022,-102.52845 l -10.9659,-8.58908 c 32.51469,-35.27537 60.96396,-65.87189 94.55224,-90.33459 5.75142,-3.52754 10.50571,-7.36393 16.02707,-10.96815 4.98456,3.60422 10.12208,7.44061 15.10665,10.96815 33.66496,24.4627 62.42324,54.44574 94.5545,90.33459 l -10.81211,8.58908 c 32.36131,23.77254 63.87869,66.56291 89.72173,102.52845 l 41.48674,-25.61345 -5.9816,-8.58908 c 16.48741,-6.74833 35.88968,-25.68937 44.40179,-52.45264 6.05816,-20.245 8.51158,-40.33539 -7.82244,-59.73684 -8.20536,-9.73907 -21.01331,-19.47889 -44.63246,-18.9421 -23.84923,0.61348 -56.28701,9.73846 -76.22525,28.60312 -19.63152,-20.62842 -48.38834,-47.08401 -94.8598,-83.58635 -5.2913,-4.14101 -11.50281,-8.58965 -16.10395,-12.19387 44.86107,-30.52086 93.17388,-57.35944 174.9974,-85.96316 -53.83328,-13.41998 -134.89004,20.09074 -204.36717,65.79533 -59.7213,-38.56325 -126.59389,-68.4469 -177.44884,-68.78274 z M 99.70449,296.99179 c 16.81331,0.0959 33.35772,6.19219 43.90199,15.62454 L 72.442414,398.65637 C 45.219033,384.46953 31.800127,352.87537 54.192317,317.36993 65.810185,302.79968 82.891173,296.89594 99.70449,296.99179 Z m 381.99014,0 c 16.7558,-0.0958 33.83786,5.80789 45.49407,20.37814 22.77561,35.50544 9.27756,67.0996 -18.32924,81.28644 l -70.70273,-86.04004 c 10.35254,-9.43234 26.78209,-15.52868 43.5379,-15.62454 z"
     id="path7580"
     inkscape:connector-curvature="0" />
</svg>
