<?xml version="1.0" encoding="UTF-8" standalone="no"?>
<svg
   xmlns:dc="http://purl.org/dc/elements/1.1/"
   xmlns:cc="http://creativecommons.org/ns#"
   xmlns:rdf="http://www.w3.org/1999/02/22-rdf-syntax-ns#"
   xmlns:svg="http://www.w3.org/2000/svg"
   xmlns="http://www.w3.org/2000/svg"
   xmlns:sodipodi="http://sodipodi.sourceforge.net/DTD/sodipodi-0.dtd"
   xmlns:inkscape="http://www.inkscape.org/namespaces/inkscape"
   enable-background="new 0 0 580 580"
   viewBox="0 0 580 580"
   height="580"
   width="580"
   version="1.1"
   id="svg2818"
   sodipodi:docname="battlefield-night.svg"
   inkscape:version="0.92.4 (5da689c313, 2019-01-14)">
  <defs
     id="defs2822" />
  <sodipodi:namedview
     pagecolor="#ffffff"
     bordercolor="#666666"
     borderopacity="1"
     objecttolerance="10"
     gridtolerance="10"
     guidetolerance="10"
     inkscape:pageopacity="0"
     inkscape:pageshadow="2"
     inkscape:window-width="1920"
     inkscape:window-height="1017"
     id="namedview2820"
     showgrid="false"
     inkscape:zoom="1.462069"
     inkscape:cx="176.12029"
     inkscape:cy="290"
     inkscape:window-x="-8"
     inkscape:window-y="-8"
     inkscape:window-maximized="1"
     inkscape:current-layer="svg2818" />
  <metadata
     id="metadata26">
    <rdf:RDF>
      <cc:Work
         rdf:about="">
        <dc:format>image/svg+xml</dc:format>
        <dc:type
           rdf:resource="http://purl.org/dc/dcmitype/StillImage" />
        <dc:title></dc:title>
      </cc:Work>
    </rdf:RDF>
  </metadata>
  <g
     id="g7605"
     transform="matrix(91.934312,0,0,-91.934312,125.807,114.36764)"
     style="stroke:#a1a1a1;stroke-opacity:1">
    <path
       d="m 0,0 c 1.125,-0.22 2.85,-1.71 3.301,-2.636 0.402,-0.824 0.402,-0.699 0.402,-0.699 0,0 1.197,0.3 0.797,1.1 -0.5,0.9 -1.531,0.041 -1.531,0.041"
       style="fill:none;stroke:#a1a1a1;stroke-width:0.30000001;stroke-linecap:butt;stroke-linejoin:miter;stroke-miterlimit:4.13399982;stroke-dasharray:none;stroke-opacity:1"
       id="path7607"
       inkscape:connector-curvature="0" />
  </g>
  <g
     id="g7609"
     transform="matrix(91.934312,0,0,-91.934312,460.68695,110.24024)"
     style="stroke:#a1a1a1;stroke-opacity:1">
    <path
       d="m 0,0 c -1.127,-0.31 -2.84,-1.781 -3.242,-2.681 -0.33,-0.738 -0.5,-0.699 -0.5,-0.699 0,0 -1.199,0.3 -0.799,1.1 0.5,0.9 1.578,0.009 1.578,0.009"
       style="fill:none;stroke:#a1a1a1;stroke-width:0.30000001;stroke-linecap:butt;stroke-linejoin:miter;stroke-miterlimit:4.13399982;stroke-dasharray:none;stroke-opacity:1"
       id="path7611"
       inkscape:connector-curvature="0" />
  </g>
</svg>
