<?xml version="1.0" encoding="UTF-8" standalone="no"?>
<svg
   xmlns:dc="http://purl.org/dc/elements/1.1/"
   xmlns:cc="http://creativecommons.org/ns#"
   xmlns:rdf="http://www.w3.org/1999/02/22-rdf-syntax-ns#"
   xmlns:svg="http://www.w3.org/2000/svg"
   xmlns="http://www.w3.org/2000/svg"
   xmlns:sodipodi="http://sodipodi.sourceforge.net/DTD/sodipodi-0.dtd"
   xmlns:inkscape="http://www.inkscape.org/namespaces/inkscape"
   version="1.1"
   height="580"
   width="580"
   id="svg6035"
   sodipodi:docname="bollard-night.svg"
   inkscape:version="0.92.4 (5da689c313, 2019-01-14)">
  <sodipodi:namedview
     pagecolor="#ffffff"
     bordercolor="#666666"
     borderopacity="1"
     objecttolerance="10"
     gridtolerance="10"
     guidetolerance="10"
     inkscape:pageopacity="0"
     inkscape:pageshadow="2"
     inkscape:window-width="1920"
     inkscape:window-height="1017"
     id="namedview6037"
     showgrid="false"
     inkscape:zoom="0.83350636"
     inkscape:cx="183.5844"
     inkscape:cy="271.48838"
     inkscape:window-x="-8"
     inkscape:window-y="-8"
     inkscape:window-maximized="1"
     inkscape:current-layer="svg6035" />
  <defs
     id="defs14">
    <inkscape:perspective
       sodipodi:type="inkscape:persp3d"
       inkscape:vp_x="0 : 290 : 1"
       inkscape:vp_y="0 : 1000 : 0"
       inkscape:vp_z="580 : 290 : 1"
       inkscape:persp3d-origin="290 : 193.33333 : 1"
       id="perspective840" />
    <filter
       height="1.235"
       y="-0.118"
       width="1.315"
       x="-0.158"
       id="filter3902">
      <feGaussianBlur
         id="feGaussianBlur3904"
         stdDeviation="1.0821" />
    </filter>
  </defs>
  <metadata
     id="metadata2165">
    <rdf:RDF>
      <cc:Work
         rdf:about="">
        <dc:format>image/svg+xml</dc:format>
        <dc:type
           rdf:resource="http://purl.org/dc/dcmitype/StillImage" />
        <dc:title></dc:title>
      </cc:Work>
    </rdf:RDF>
  </metadata>
  <path
     style="color:#000000;font-style:normal;font-variant:normal;font-weight:normal;font-stretch:normal;font-size:medium;line-height:normal;font-family:sans-serif;font-variant-ligatures:normal;font-variant-position:normal;font-variant-caps:normal;font-variant-numeric:normal;font-variant-alternates:normal;font-feature-settings:normal;text-indent:0;text-align:start;text-decoration:none;text-decoration-line:none;text-decoration-style:solid;text-decoration-color:#000000;letter-spacing:normal;word-spacing:normal;text-transform:none;writing-mode:lr-tb;direction:ltr;text-orientation:mixed;dominant-baseline:auto;baseline-shift:baseline;text-anchor:start;white-space:normal;shape-padding:0;clip-rule:nonzero;display:inline;overflow:visible;visibility:visible;opacity:0.97000002;isolation:auto;mix-blend-mode:normal;color-interpolation:sRGB;color-interpolation-filters:linearRGB;solid-color:#000000;solid-opacity:1;vector-effect:none;fill:#373737;fill-opacity:1;fill-rule:nonzero;stroke:none;stroke-width:68.03149414;stroke-linecap:round;stroke-linejoin:round;stroke-miterlimit:4;stroke-dasharray:none;stroke-dashoffset:319.99996948;stroke-opacity:1;paint-order:markers fill stroke;color-rendering:auto;image-rendering:auto;shape-rendering:auto;text-rendering:auto;enable-background:accumulate"
     d="M 284.61523 189.88281 C 235.11342 189.91211 194.67741 228.49792 187.79297 277.03125 A 34.019149 34.019149 0 0 0 186.62109 285.82812 L 186.62109 466.31055 C 180.55698 471.08366 173.53627 478.69392 171.36523 490.81445 A 34.019149 34.019149 0 0 0 170.62109 497.70312 L 170.62109 522.73047 L 170.62109 523.1543 A 34.019149 34.019149 0 0 0 171.80664 531.90039 C 175.5908 549.38689 187.94097 556.3159 195.63477 560.37109 C 204.09794 564.83181 212.15525 567.17841 221.17383 569.23633 C 239.21098 573.35217 260.78987 575.40711 284.63086 575.41016 A 34.019149 34.019149 0 0 0 284.64258 575.41016 C 308.47819 575.40516 330.05165 573.35041 348.08398 569.23438 C 357.10015 567.17634 365.15553 564.83007 373.61719 560.36914 C 381.22892 556.35629 393.41592 549.54987 397.33789 532.4707 A 34.019149 34.019149 0 0 0 398.65234 523.1543 L 398.65234 522.73047 L 398.65234 497.70312 A 34.019149 34.019149 0 0 0 398.55859 495.83984 L 398.57031 495.84961 C 398.56731 495.80211 398.55553 495.76221 398.55273 495.71484 A 34.019149 34.019149 0 0 0 397.90234 490.66797 C 395.70065 478.6199 388.69685 471.05369 382.65234 466.29883 L 382.65234 285.82812 A 34.019149 34.019149 0 0 0 381.48633 277.16406 C 374.65751 228.57423 334.20307 189.92019 284.66211 189.88281 A 34.019149 34.019149 0 0 0 284.61523 189.88281 z M 284.63281 257.91602 C 299.41554 257.93892 312.89413 269.90753 314.44531 288.63477 A 34.019149 34.019149 0 0 0 314.62109 289.95312 L 314.62109 486.75 A 34.019149 34.019149 0 0 0 320.0293 505.08594 C 310.02877 506.42871 297.82771 507.37569 284.64062 507.37891 C 271.46801 507.37691 259.27996 506.43311 249.28125 505.09375 A 34.019149 34.019149 0 0 0 254.65234 486.75586 L 254.65234 289.92773 A 34.019149 34.019149 0 0 0 254.81641 288.63477 C 256.36771 269.90613 269.84906 257.93758 284.63281 257.91602 z "
     id="path917" />
  <path
     style="color:#000000;font-style:normal;font-variant:normal;font-weight:normal;font-stretch:normal;font-size:medium;line-height:normal;font-family:sans-serif;font-variant-ligatures:normal;font-variant-position:normal;font-variant-caps:normal;font-variant-numeric:normal;font-variant-alternates:normal;font-feature-settings:normal;text-indent:0;text-align:start;text-decoration:none;text-decoration-line:none;text-decoration-style:solid;text-decoration-color:#000000;letter-spacing:normal;word-spacing:normal;text-transform:none;writing-mode:lr-tb;direction:ltr;text-orientation:mixed;dominant-baseline:auto;baseline-shift:baseline;text-anchor:start;white-space:normal;shape-padding:0;clip-rule:nonzero;display:inline;overflow:visible;visibility:visible;opacity:0.97000002;isolation:auto;mix-blend-mode:normal;color-interpolation:sRGB;color-interpolation-filters:linearRGB;solid-color:#000000;solid-opacity:1;vector-effect:none;fill:#a1a1a1;fill-opacity:1;fill-rule:nonzero;stroke:none;stroke-width:46.56891632;stroke-linecap:round;stroke-linejoin:round;stroke-miterlimit:4;stroke-dasharray:none;stroke-dashoffset:319.99996948;stroke-opacity:1;paint-order:markers fill stroke;color-rendering:auto;image-rendering:auto;shape-rendering:auto;text-rendering:auto;enable-background:accumulate"
     d="m 215.37161,476.98654 -6.57473,6.41385 c -4.69219,2.89045 -10.12482,7.5 -11.80469,14.83984 -0.37282,1.37102 -0.56588,2.76823 -0.57617,4.16993 v 15.15625 0.25781 c 0.011,1.78868 0.31956,3.56862 0.91796,5.29492 2.92804,10.58932 12.48238,14.78649 18.43555,17.24219 6.54848,2.70129 12.78349,4.12098 19.76172,5.36719 13.95647,2.49243 30.65429,3.73839 49.10156,3.74023 h 0.008 c 18.44311,-0.003 35.1371,-1.24769 49.08985,-3.74023 6.97636,-1.24629 13.20855,-2.66773 19.75586,-5.36914 5.88966,-2.43007 15.31884,-6.55191 18.35351,-16.89454 0.67132,-1.83425 1.01378,-3.73261 1.01758,-5.64062 v -0.25781 -15.15625 c -0.0109,-0.3761 -0.035,-0.75189 -0.0723,-1.12696 l 0.01,0.006 c -0.002,-0.0287 -0.0115,-0.0533 -0.0137,-0.082 -0.0702,-1.0273 -0.23866,-2.04904 -0.50391,-3.05664 -1.70358,-7.29596 -7.12378,-11.87646 -11.80078,-14.75586 l -6.15055,-7.04425 -46.48812,-12.72528 c 7.84878,63.22691 -46.40234,62.60839 -46.40234,0 z"
     id="path917-9"
     inkscape:connector-curvature="0"
     sodipodi:nodetypes="ccccccccscccsccccccccccccc" />
  <path
     style="color:#000000;font-style:normal;font-variant:normal;font-weight:normal;font-stretch:normal;font-size:medium;line-height:normal;font-family:sans-serif;font-variant-ligatures:normal;font-variant-position:normal;font-variant-caps:normal;font-variant-numeric:normal;font-variant-alternates:normal;font-feature-settings:normal;text-indent:0;text-align:start;text-decoration:none;text-decoration-line:none;text-decoration-style:solid;text-decoration-color:#000000;letter-spacing:normal;word-spacing:normal;text-transform:none;writing-mode:lr-tb;direction:ltr;text-orientation:mixed;dominant-baseline:auto;baseline-shift:baseline;text-anchor:start;white-space:normal;shape-padding:0;clip-rule:nonzero;display:inline;overflow:visible;visibility:visible;opacity:0.97000002;isolation:auto;mix-blend-mode:normal;color-interpolation:sRGB;color-interpolation-filters:linearRGB;solid-color:#000000;solid-opacity:1;vector-effect:none;fill:#a1a1a1;fill-opacity:1;fill-rule:nonzero;stroke:none;stroke-width:60.41801834;stroke-linecap:round;stroke-linejoin:round;stroke-miterlimit:4;stroke-dasharray:none;stroke-dashoffset:319.99996948;stroke-opacity:1;paint-order:markers fill stroke;color-rendering:auto;image-rendering:auto;shape-rendering:auto;text-rendering:auto;enable-background:accumulate"
     d="m 284.92369,215.71912 c -36.87737,0.0325 -67.00111,22.88336 -72.12983,74.26373 -0.5758,3.03633 -0.86928,6.16675 -0.87296,9.3114 v 181.32672 c 81.76655,-0.004 45.57386,0 146.04013,0 V 299.29425 c -0.011,-3.09754 -0.30321,-6.18011 -0.86932,-9.1714 -5.08739,-51.44104 -35.22429,-74.36415 -72.13165,-74.40373 h -0.0346 z"
     id="path917-9-6"
     inkscape:connector-curvature="0"
     sodipodi:nodetypes="cccccccccc" />
  <path
     style="opacity:0.97000002;fill:#000000;fill-opacity:1;stroke:none;stroke-width:32.09381104;stroke-linecap:round;stroke-linejoin:round;stroke-miterlimit:4;stroke-dasharray:none;stroke-dashoffset:319.99996948;stroke-opacity:0.97254902;paint-order:markers fill stroke"
     d="m 284.63608,223.89809 a 64,67.868156 0 0 0 -63.71875,61.92969 h -0.28125 v 200.92773 a 80,18.66374 0 0 0 -15.95507,10.94727 h -0.0449 v 25.02734 0.42383 h 0.0645 a 80,18.66374 0 0 0 79.93554,18.24023 80,18.66374 0 0 0 79.91016,-18.24023 h 0.0898 v -0.42383 -25.02734 h -0.0312 A 80,18.66374 0 0 0 348.63608,486.74965 V 285.82778 h -0.29101 a 64,67.868156 0 0 0 -63.70899,-61.92969 z"
     id="path848"
     inkscape:connector-curvature="0" />
</svg>
