<?xml version="1.0" encoding="UTF-8" standalone="no"?>
<svg
   xmlns:dc="http://purl.org/dc/elements/1.1/"
   xmlns:cc="http://creativecommons.org/ns#"
   xmlns:rdf="http://www.w3.org/1999/02/22-rdf-syntax-ns#"
   xmlns:svg="http://www.w3.org/2000/svg"
   xmlns="http://www.w3.org/2000/svg"
   xmlns:sodipodi="http://sodipodi.sourceforge.net/DTD/sodipodi-0.dtd"
   xmlns:inkscape="http://www.inkscape.org/namespaces/inkscape"
   enable-background="new 0 0 580 580"
   viewBox="0 0 580 580"
   height="580"
   width="580"
   version="1.1"
   id="svg10"
   sodipodi:docname="border_control.svg"
   inkscape:version="0.92.4 (5da689c313, 2019-01-14)">
  <sodipodi:namedview
     pagecolor="#ffffff"
     bordercolor="#666666"
     borderopacity="1"
     objecttolerance="10"
     gridtolerance="10"
     guidetolerance="10"
     inkscape:pageopacity="0"
     inkscape:pageshadow="2"
     inkscape:window-width="1920"
     inkscape:window-height="1017"
     id="namedview12"
     showgrid="false"
     inkscape:zoom="1.1508772"
     inkscape:cx="309.51826"
     inkscape:cy="407.86412"
     inkscape:window-x="-8"
     inkscape:window-y="-8"
     inkscape:window-maximized="1"
     inkscape:current-layer="svg10" />
  <metadata
     id="metadata24">
    <rdf:RDF>
      <cc:Work
         rdf:about="">
        <dc:format>image/svg+xml</dc:format>
        <dc:type
           rdf:resource="http://purl.org/dc/dcmitype/StillImage" />
        <dc:title></dc:title>
      </cc:Work>
    </rdf:RDF>
  </metadata>
  <defs
     id="defs22">
    <filter
       id="filter3844"
       color-interpolation-filters="sRGB">
      <feGaussianBlur
         id="feGaussianBlur3846"
         stdDeviation="0.1106" />
    </filter>
  </defs>
  <path
     d="m 60.716,105.36 c -18.787,0 -20.353,20.35 -19.048,34.44 0,106.2 0,212.64 0,318.84 4.174,19.05 25.57,14.88 39.92,15.4 15.395,-2.62 36.792,5.47 44.882,-12.01 3.39,-22.17 0,-45.4 2.61,-67.84 0,-35.22 0,-70.71 0,-105.92 -34.967,12.52 -79.585,-12.01 -80.889,-50.89 -2.87,-29.74 18.525,-61.31 49.575,-63.66 11.484,-5.47 36.274,0 31.314,-18.53 -2.61,-14.6 4.18,-31.82 -5.49,-44.35 -12.78,-9.66 -29.739,-4.17 -44.611,-5.48 -5.74,0 -11.741,0 -17.482,0 z"
     id="path899"
     style="fill:#f8f8f8;fill-opacity:1;stroke:#f8f8f8;stroke-opacity:1;stroke-width:40;stroke-miterlimit:4;stroke-dasharray:none" />
  <path
     d="m 104.04941,261.74994 c -26.308032,-3.04727 -31.420063,-43.40384 -7.841776,-54.83675 16.946986,-6.73416 35.761176,-2.37871 53.442916,-3.87736 124.20591,-0.24464 248.33106,-1.29482 372.28078,-1.58492 25.36626,1.23592 36.29102,36.99213 16.17997,52.11567 -15.28011,11.35361 -35.0333,5.19764 -52.5162,7.00558 -126.1046,0.36409 -252.32941,1.2342 -378.43189,1.58852 l -3.05858,-0.6648 v 0 z"
     id="path897"
     style="fill:#f8f8f8;fill-opacity:1;stroke:#f8f8f8;stroke-width:40;stroke-miterlimit:4;stroke-dasharray:none;stroke-opacity:1"
     inkscape:connector-curvature="0" />
  <path
     d="m 467.49,259.3 c -16.96,0 -16.18,19.04 -15.4,31.05 0,57.14 0,114.02 0,171.16 4.17,17.48 24.53,11.22 37.57,12.53 13.83,0 28.7,2.61 42.01,-2.62 11.48,-9.91 5.22,-26.61 6.78,-39.65 0,-53.49 0,-106.71 0,-160.2 -4.43,-17.22 -24.52,-11.23 -37.57,-12.27 -11.22,0 -22.44,0 -33.39,0 z"
     id="path8077"
     style="fill:#f8f8f8;fill-opacity:1;stroke:#f8f8f8;stroke-opacity:1;stroke-width:40;stroke-miterlimit:4;stroke-dasharray:none" />
  <path
     style="fill:#2c2c2c"
     d="M 475.64258 201.55859 C 465.29833 201.56133 454.95196 201.57236 444.60547 201.58203 L 398.00391 260.59961 C 412.85175 260.58627 427.69538 260.59016 442.54102 260.58594 L 489.14648 201.5625 C 484.64493 201.56213 480.14457 201.5574 475.64258 201.55859 z M 403.84961 201.63672 C 388.991 201.65972 374.13021 201.68311 359.26758 201.71094 L 312.68555 260.70312 C 327.54276 260.68159 342.39932 260.66332 357.25586 260.64453 L 403.84961 201.63672 z M 122.85156 201.77344 C 113.81968 201.68287 104.8775 202.24777 96.392578 205.58594 C 73.412546 216.6321 77.50527 255.14908 101.96875 260.10938 L 147.8418 202.01367 C 139.62807 202.48566 131.20276 201.85718 122.85156 201.77344 z M 318.50195 201.77734 C 303.64407 201.80486 288.78312 201.82756 273.92188 201.84961 L 227.36328 260.8125 C 242.21887 260.795 257.07518 260.77699 271.93164 260.75586 L 318.50195 201.77734 z M 233.16602 201.9043 C 218.32274 201.91663 203.47879 201.91938 188.63281 201.91602 L 142.08984 260.86133 C 156.93314 260.86007 171.77539 260.86087 186.62109 260.84961 L 233.16602 201.9043 z M 528.87305 202.8125 L 483.26367 260.57227 C 484.04087 260.57263 484.81851 260.57186 485.5957 260.57227 C 503.08466 258.82397 522.81603 265.04752 538.13477 253.74609 C 556.4058 240.10356 549.24949 209.43137 528.87305 202.8125 z "
     id="path12" />
  <path
     id="path18"
     d="m 60.716,105.36 c -18.787,0 -20.353,20.35 -19.048,34.44 0,106.2 0,212.64 0,318.84 4.174,19.05 25.57,14.88 39.92,15.4 15.395,-2.62 36.792,5.47 44.882,-12.01 3.39,-22.17 0,-45.4 2.61,-67.84 0,-35.22 0,-70.71 0,-105.92 -34.967,12.52 -79.585,-12.01 -80.889,-50.89 -2.87,-29.74 18.525,-61.31 49.575,-63.66 11.484,-5.47 36.274,0 31.314,-18.53 -2.61,-14.6 4.18,-31.82 -5.49,-44.35 -12.78,-9.66 -29.739,-4.17 -44.611,-5.48 -5.74,0 -11.741,0 -17.482,0 z"
     inkscape:connector-curvature="0"
     fill="#5f5f5f" />
  <path
     id="path15"
     d="m 467.49,288.76401 c -16.96,0 -16.18,16.43546 -15.4,26.80258 0,49.32365 0,98.42286 0,147.74651 4.17,15.08886 24.53,9.68519 37.57,10.81599 13.83,0 28.7,2.25297 42.01,-2.26161 11.48,-8.55438 5.22,-22.96994 6.78,-34.22615 0,-46.17295 0,-92.11283 0,-138.28577 -4.43,-14.86443 -24.52,-9.69382 -37.57,-10.59155 -11.22,0 -22.44,0 -33.39,0 z"
     inkscape:connector-curvature="0"
     style="fill:#5f5f5f;stroke-width:0.92908937" />
</svg>
