<?xml version="1.0" encoding="UTF-8" standalone="no"?>
<svg
   xmlns:dc="http://purl.org/dc/elements/1.1/"
   xmlns:cc="http://creativecommons.org/ns#"
   xmlns:rdf="http://www.w3.org/1999/02/22-rdf-syntax-ns#"
   xmlns:svg="http://www.w3.org/2000/svg"
   xmlns="http://www.w3.org/2000/svg"
   xmlns:sodipodi="http://sodipodi.sourceforge.net/DTD/sodipodi-0.dtd"
   xmlns:inkscape="http://www.inkscape.org/namespaces/inkscape"
   version="1.0"
   height="580"
   width="580"
   id="svg836"
   sodipodi:docname="bridge_movable.svg"
   inkscape:version="0.92.4 (5da689c313, 2019-01-14)">
  <defs
     id="defs840" />
  <sodipodi:namedview
     pagecolor="#ffffff"
     bordercolor="#666666"
     borderopacity="1"
     objecttolerance="10"
     gridtolerance="10"
     guidetolerance="10"
     inkscape:pageopacity="0"
     inkscape:pageshadow="2"
     inkscape:window-width="1920"
     inkscape:window-height="1017"
     id="namedview838"
     showgrid="false"
     inkscape:zoom="0.8137931"
     inkscape:cx="281.32123"
     inkscape:cy="65.745274"
     inkscape:window-x="1912"
     inkscape:window-y="-8"
     inkscape:window-maximized="1"
     inkscape:current-layer="svg836" />
  <metadata
     id="metadata2175">
    <rdf:RDF>
      <cc:Work
         rdf:about="">
        <dc:format>image/svg+xml</dc:format>
        <dc:type
           rdf:resource="http://purl.org/dc/dcmitype/StillImage" />
        <dc:title></dc:title>
      </cc:Work>
    </rdf:RDF>
  </metadata>
  <g
     id="g1457">
    <path
       sodipodi:nodetypes="cccc"
       inkscape:connector-curvature="0"
       id="path1396"
       d="M 533.07295,481.03756 294.53804,65.651676 52.572689,482.33867 Z"
       style="fill:none;stroke:#e4001c;stroke-width:74.9509201;stroke-linecap:butt;stroke-linejoin:round;stroke-miterlimit:4;stroke-dasharray:none;stroke-opacity:1" />
    <path
       sodipodi:nodetypes="cccc"
       inkscape:connector-curvature="0"
       id="path1396-2"
       d="M 511.14408,466.52948 293.50032,87.52355 72.726559,467.71664 Z"
       style="fill:#f8f8f8;fill-opacity:1;stroke:none;stroke-width:68.38663483;stroke-linecap:butt;stroke-linejoin:round;stroke-miterlimit:4;stroke-dasharray:none;stroke-opacity:1" />
  </g>
  <rect
     style="opacity:1;fill:#1a1819;fill-opacity:1;stroke:none;stroke-width:59.90556335;stroke-linecap:butt;stroke-linejoin:round;stroke-miterlimit:4;stroke-dasharray:none;stroke-opacity:1"
     id="rect1459"
     width="224.17682"
     height="33.887192"
     x="-138.05916"
     y="359.3129"
     transform="rotate(-45.164731)" />
  <path
     style="fill:#1a1819;fill-opacity:1;stroke:none;stroke-width:1px;stroke-linecap:butt;stroke-linejoin:miter;stroke-opacity:1"
     d="m 181.73194,451.74506 -0.24076,-76.6083 -36.17074,0.5189 -44.74499,76.39846 z"
     id="path1461"
     inkscape:connector-curvature="0"
     sodipodi:nodetypes="ccccc" />
  <path
     style="fill:#1a1819;fill-opacity:1;stroke:none;stroke-width:1px;stroke-linecap:butt;stroke-linejoin:miter;stroke-opacity:1"
     d="m 404.3411,451.74506 0.24076,-76.6083 36.17074,0.5189 44.74499,76.39846 z"
     id="path1461-3"
     inkscape:connector-curvature="0"
     sodipodi:nodetypes="ccccc" />
  <path
     style="fill:none;stroke:#1a1819;stroke-width:12;stroke-linecap:butt;stroke-linejoin:miter;stroke-opacity:1;stroke-miterlimit:4;stroke-dasharray:none"
     d="m 153.98499,421.75673 c 0,0 19.55323,-11.94873 29.59397,-12.02965 12.60969,-0.10164 22.55618,12.02965 35.38445,12.02965 12.86877,0 24.71133,-11.98577 37.58002,-12.02965 13.14442,-0.0448 23.56676,12.08597 36.71113,12.02965 12.79982,-0.0548 24.56303,-11.96418 37.3628,-12.02965 13.21334,-0.0676 23.71484,12.02965 36.92836,12.02965 13.56802,0 23.96314,-12.02965 36.40188,-12.02965 10.77045,0 23.76961,12.02965 23.76961,12.02965"
     id="path1478"
     inkscape:connector-curvature="0"
     sodipodi:nodetypes="csssssssc" />
  <path
     style="fill:none;stroke:#1a1819;stroke-width:12;stroke-linecap:butt;stroke-linejoin:miter;stroke-miterlimit:4;stroke-dasharray:none;stroke-opacity:1"
     d="m 153.98499,446.73767 c 0,0 19.55323,-11.94873 29.59397,-12.02965 12.60969,-0.10164 22.55618,12.02965 35.38445,12.02965 12.86877,0 24.71133,-11.98577 37.58001,-12.02965 13.14442,-0.0448 23.56676,12.08597 36.71113,12.02965 12.79982,-0.0548 24.56303,-11.96418 37.3628,-12.02965 13.21334,-0.0676 23.71484,12.02965 36.92836,12.02965 13.56802,0 23.96314,-12.02965 36.40188,-12.02965 10.77045,0 23.76961,12.02965 23.76961,12.02965"
     id="path1478-4"
     inkscape:connector-curvature="0"
     sodipodi:nodetypes="csssssssc" />
</svg>
