<?xml version="1.0" encoding="UTF-8" standalone="no"?>
<!-- Created with Inkscape (http://www.inkscape.org/) -->

<svg
   xmlns:dc="http://purl.org/dc/elements/1.1/"
   xmlns:cc="http://creativecommons.org/ns#"
   xmlns:rdf="http://www.w3.org/1999/02/22-rdf-syntax-ns#"
   xmlns:svg="http://www.w3.org/2000/svg"
   xmlns="http://www.w3.org/2000/svg"
   xmlns:sodipodi="http://sodipodi.sourceforge.net/DTD/sodipodi-0.dtd"
   xmlns:inkscape="http://www.inkscape.org/namespaces/inkscape"
   width="16"
   height="16"
   id="svg2"
   inkscape:label="Pozadí"
   version="1.1"
   inkscape:version="0.92.4 (5da689c313, 2019-01-14)"
   inkscape:export-filename="F:\GIS\render\symbols\church.png"
   inkscape:export-xdpi="90"
   inkscape:export-ydpi="90"
   sodipodi:docname="bunker-dis-night.svg">
  <defs
     id="defs3" />
  <sodipodi:namedview
     id="base"
     pagecolor="#ffffff"
     bordercolor="#666666"
     borderopacity="1.0"
     inkscape:pageopacity="0.0"
     inkscape:pageshadow="2"
     inkscape:zoom="22.627417"
     inkscape:cx="7.939021"
     inkscape:cy="6.5043267"
     inkscape:document-units="px"
     inkscape:current-layer="layer1"
     showgrid="false"
     inkscape:window-width="960"
     inkscape:window-height="1017"
     inkscape:window-x="-8"
     inkscape:window-y="-8"
     inkscape:window-maximized="0"
     inkscape:snap-grids="true"
     inkscape:snap-center="false">
    <inkscape:grid
       type="xygrid"
       id="grid3768"
       empspacing="4"
       visible="true"
       enabled="true"
       snapvisiblegridlinesonly="true"
       dotted="false"
       spacingx="0.5"
       spacingy="0.5"
       originx="0"
       originy="0" />
  </sodipodi:namedview>
  <metadata
     id="metadata6">
    <rdf:RDF>
      <cc:Work
         rdf:about="">
        <dc:format>image/svg+xml</dc:format>
        <dc:type
           rdf:resource="http://purl.org/dc/dcmitype/StillImage" />
        <dc:title />
      </cc:Work>
    </rdf:RDF>
  </metadata>
  <g
     inkscape:label="Vrstva 1"
     inkscape:groupmode="layer"
     id="layer1"
     transform="translate(0,-1036.3622)">
    <path
       style="color:#000000;font-style:normal;font-variant:normal;font-weight:normal;font-stretch:normal;font-size:medium;line-height:normal;font-family:Sans;-inkscape-font-specification:Sans;text-indent:0;text-align:start;text-decoration:none;text-decoration-line:none;letter-spacing:normal;word-spacing:normal;text-transform:none;writing-mode:lr-tb;direction:ltr;baseline-shift:baseline;text-anchor:start;display:inline;overflow:visible;visibility:visible;fill:#a1a1a1;fill-opacity:1;stroke:none;stroke-width:0.95650405;stroke-miterlimit:4;stroke-dasharray:none;stroke-opacity:1;marker:none;enable-background:accumulate"
       d="m 1.8028566,1038.7849 -1.02539063,1.0723 2.65624973,2.6562 c -0.264495,0.3909 -0.453541,0.824 -0.558594,1.291 h 1.533204 c 0.305972,-0.867 1.118419,-1.4785 2.101562,-1.4785 h 0.755859 v -1.4902 h -0.755859 c -0.747518,0 -1.466029,0.2235 -2.050781,0.6055 z m 12.3945314,0 -2.65625,2.6563 c -0.584752,-0.382 -1.303265,-0.6055 -2.0507813,-0.6055 h -0.75586 v 1.4902 h 0.75586 c 0.9829983,0 1.7935323,0.6117 2.0996093,1.4785 h 1.533203 c -0.105062,-0.467 -0.292177,-0.9002 -0.556641,-1.291 l 2.654297,-2.6562 z m -11.3398443,6.4902 c 0.09334,0.4848 0.271045,0.9427 0.529297,1.3379 l -2.60937473,2.6094 1.02539063,1.0723 2.6093751,-2.6094 c 0.595066,0.4027 1.328152,0.6055 2.097656,0.6055 h 0.755859 v -1.4922 h -0.755859 c -1.000462,0 -1.822349,-0.632 -2.115234,-1.5235 z m 8.7480473,0 c -0.292824,0.8916 -1.114693,1.5235 -2.1152343,1.5235 h -0.75586 v 1.4922 h 0.75586 c 0.7695033,0 1.5025913,-0.2028 2.0976563,-0.6055 l 2.609375,2.6094 1.023437,-1.0723 -2.607422,-2.6094 c 0.258252,-0.3952 0.435958,-0.8531 0.529297,-1.3379 z"
       id="rect2987-0"
       inkscape:connector-curvature="0" />
  </g>
</svg>
