<?xml version="1.0" encoding="UTF-8" standalone="no"?>
<!-- Created with Inkscape (http://www.inkscape.org/) -->

<svg
   xmlns:dc="http://purl.org/dc/elements/1.1/"
   xmlns:cc="http://creativecommons.org/ns#"
   xmlns:rdf="http://www.w3.org/1999/02/22-rdf-syntax-ns#"
   xmlns:svg="http://www.w3.org/2000/svg"
   xmlns="http://www.w3.org/2000/svg"
   xmlns:sodipodi="http://sodipodi.sourceforge.net/DTD/sodipodi-0.dtd"
   xmlns:inkscape="http://www.inkscape.org/namespaces/inkscape"
   width="16"
   height="16"
   id="svg2"
   inkscape:label="Pozadí"
   version="1.1"
   inkscape:version="0.92.4 (5da689c313, 2019-01-14)"
   inkscape:export-filename="F:\GIS\render\symbols\church.png"
   inkscape:export-xdpi="90"
   inkscape:export-ydpi="90"
   sodipodi:docname="bunker.svg">
  <defs
     id="defs3" />
  <sodipodi:namedview
     id="base"
     pagecolor="#ffffff"
     bordercolor="#666666"
     borderopacity="1.0"
     inkscape:pageopacity="0.0"
     inkscape:pageshadow="2"
     inkscape:zoom="22.754914"
     inkscape:cx="8.7008056"
     inkscape:cy="6.7857061"
     inkscape:document-units="px"
     inkscape:current-layer="layer1"
     showgrid="false"
     inkscape:window-width="960"
     inkscape:window-height="1017"
     inkscape:window-x="952"
     inkscape:window-y="-8"
     inkscape:window-maximized="0"
     inkscape:snap-grids="true"
     inkscape:snap-center="false">
    <inkscape:grid
       type="xygrid"
       id="grid3768"
       empspacing="4"
       visible="true"
       enabled="true"
       snapvisiblegridlinesonly="true"
       dotted="false"
       spacingx="0.5"
       spacingy="0.5"
       originx="0"
       originy="0" />
  </sodipodi:namedview>
  <metadata
     id="metadata6">
    <rdf:RDF>
      <cc:Work
         rdf:about="">
        <dc:format>image/svg+xml</dc:format>
        <dc:type
           rdf:resource="http://purl.org/dc/dcmitype/StillImage" />
        <dc:title />
      </cc:Work>
    </rdf:RDF>
  </metadata>
  <g
     inkscape:label="Vrstva 1"
     inkscape:groupmode="layer"
     id="layer1"
     transform="translate(0,-1036.3622)">
    <path
       style="color:#000000;font-style:normal;font-variant:normal;font-weight:normal;font-stretch:normal;font-size:medium;line-height:normal;font-family:Sans;-inkscape-font-specification:Sans;text-indent:0;text-align:start;text-decoration:none;text-decoration-line:none;letter-spacing:normal;word-spacing:normal;text-transform:none;writing-mode:lr-tb;direction:ltr;baseline-shift:baseline;text-anchor:start;display:inline;overflow:visible;visibility:visible;fill:#000000;fill-opacity:1;stroke:none;stroke-width:1.5587045;marker:none;enable-background:accumulate"
       d="m 1.5803391,1038.1603 -1.0716093,1.1203 2.7764423,2.7764 c -0.421002,0.6221 -0.6819332,1.3387 -0.6819332,2.1432 0,0.7819 0.2337287,1.5318 0.6332237,2.1432 l -2.7277328,2.7278 1.0716093,1.1203 2.7277328,-2.7277 c 0.6221262,0.421 1.3874314,0.6332 2.1919281,0.6332 h 3.117409 c 0.804496,0 1.569802,-0.2122 2.191928,-0.6332 l 2.727732,2.7277 1.07161,-1.1203 -2.727733,-2.7278 c 0.399494,-0.6114 0.633224,-1.3613 0.633224,-2.1432 0,-0.8045 -0.260932,-1.5211 -0.681934,-2.1432 l 2.776443,-2.7764 -1.07161,-1.1203 -2.776442,2.7764 c -0.611343,-0.3992 -1.361708,-0.6332 -2.143218,-0.6332 H 6.5 c -0.781511,0 -1.5318755,0.234 -2.1432186,0.6332 z M 6.5,1041.8622 h 3.117409 c 1.308765,0 2.338057,1.0293 2.338057,2.338 0,1.3087 -1.029292,2.3381 -2.338057,2.3381 H 6.5 c -1.3087644,0 -2.3380566,-1.0294 -2.3380566,-2.3381 0,-1.3087 1.0292922,-2.338 2.3380566,-2.338 z"
       id="rect2987"
       inkscape:connector-curvature="0" />
  </g>
</svg>
