<?xml version="1.0" encoding="UTF-8" standalone="no"?>
<!-- Created with Inkscape (http://www.inkscape.org/) -->

<svg
   xmlns:dc="http://purl.org/dc/elements/1.1/"
   xmlns:cc="http://creativecommons.org/ns#"
   xmlns:rdf="http://www.w3.org/1999/02/22-rdf-syntax-ns#"
   xmlns:svg="http://www.w3.org/2000/svg"
   xmlns="http://www.w3.org/2000/svg"
   xmlns:sodipodi="http://sodipodi.sourceforge.net/DTD/sodipodi-0.dtd"
   xmlns:inkscape="http://www.inkscape.org/namespaces/inkscape"
   width="16"
   height="16"
   id="svg2"
   inkscape:label="Pozadí"
   version="1.1"
   inkscape:version="0.92.4 (5da689c313, 2019-01-14)"
   inkscape:export-filename="F:\GIS\render\symbols\church.png"
   inkscape:export-xdpi="90"
   inkscape:export-ydpi="90"
   sodipodi:docname="bunker-dis.svg">
  <defs
     id="defs3" />
  <sodipodi:namedview
     id="base"
     pagecolor="#ffffff"
     bordercolor="#666666"
     borderopacity="1.0"
     inkscape:pageopacity="0.0"
     inkscape:pageshadow="2"
     inkscape:zoom="8"
     inkscape:cx="-14.675582"
     inkscape:cy="-21.077292"
     inkscape:document-units="px"
     inkscape:current-layer="layer1"
     showgrid="false"
     inkscape:window-width="1920"
     inkscape:window-height="1017"
     inkscape:window-x="-8"
     inkscape:window-y="-8"
     inkscape:window-maximized="1"
     inkscape:snap-grids="true"
     inkscape:snap-center="false">
    <inkscape:grid
       type="xygrid"
       id="grid3768"
       empspacing="4"
       visible="true"
       enabled="true"
       snapvisiblegridlinesonly="true"
       dotted="false"
       spacingx="0.5"
       spacingy="0.5"
       originx="0"
       originy="0" />
  </sodipodi:namedview>
  <metadata
     id="metadata6">
    <rdf:RDF>
      <cc:Work
         rdf:about="">
        <dc:format>image/svg+xml</dc:format>
        <dc:type
           rdf:resource="http://purl.org/dc/dcmitype/StillImage" />
        <dc:title />
      </cc:Work>
    </rdf:RDF>
  </metadata>
  <g
     inkscape:label="Vrstva 1"
     inkscape:groupmode="layer"
     id="layer1"
     transform="translate(0,-1036.3622)">
    <path
       style="color:#000000;font-style:normal;font-variant:normal;font-weight:normal;font-stretch:normal;font-size:medium;line-height:normal;font-family:Sans;-inkscape-font-specification:Sans;text-indent:0;text-align:start;text-decoration:none;text-decoration-line:none;letter-spacing:normal;word-spacing:normal;text-transform:none;writing-mode:lr-tb;direction:ltr;baseline-shift:baseline;text-anchor:start;display:inline;overflow:visible;visibility:visible;fill:#000000;fill-opacity:1;stroke:none;stroke-width:0.95650405;stroke-miterlimit:4;stroke-dasharray:none;stroke-opacity:1;marker:none;enable-background:accumulate"
       d="M 1.8203125,2.4667969 0.79492188,3.5390625 3.4511719,6.1953125 C 3.1866769,6.5861862 2.9976306,7.0192698 2.8925781,7.4863281 H 4.4257812 C 4.7317532,6.6192826 5.5442007,6.0078125 6.5273438,6.0078125 H 7.2832031 V 4.5175781 H 6.5273438 c -0.7475185,0 -1.4660291,0.2235688 -2.0507813,0.6054688 z m 12.3945315,0 -2.65625,2.65625 C 10.973842,4.7411469 10.255329,4.5175781 9.5078125,4.5175781 H 8.7519531 v 1.4902344 h 0.7558594 c 0.9829985,0 1.7935325,0.6116737 2.0996095,1.4785156 h 1.533203 C 13.035563,7.0193349 12.848448,6.5861392 12.583984,6.1953125 l 2.654297,-2.65625 z M 2.875,8.9570312 c 0.093339,0.4847883 0.2710449,0.9426573 0.5292969,1.3378908 l -2.60937502,2.609375 1.02539062,1.072265 2.609375,-2.609374 c 0.5950662,0.402699 1.3281518,0.605468 2.0976563,0.605468 H 7.2832031 V 10.480469 H 6.5273438 c -1.0004623,0 -1.8223493,-0.6319382 -2.1152344,-1.5234378 z m 8.748047,0 C 11.330223,9.8486421 10.508354,10.480469 9.5078125,10.480469 H 8.7519531 v 1.492187 h 0.7558594 c 0.7695035,0 1.5025915,-0.202769 2.0976565,-0.605468 l 2.609375,2.609374 1.023437,-1.072265 -2.607422,-2.609375 c 0.258252,-0.3952335 0.435958,-0.8531025 0.529297,-1.3378908 z"
       transform="translate(0,1036.3622)"
       id="rect2987-0"
       inkscape:connector-curvature="0" />
  </g>
</svg>
