<?xml version="1.0" encoding="UTF-8" standalone="no"?>
<svg xmlns="http://www.w3.org/2000/svg" version="1.1" height="580" width="580">
 <metadata id="metadata3003"/>
 <g transform="translate(0,-472.36218)" id="layer1">
  <path id="path3760" d="m 505.69,604.64 c -147.62,0.1 -295.26,-0.2 -442.871,0.15 -19.113,1.26 -29.102,21.25 -26.374,38.59 0.101,100.91 -0.203,201.83 0.152,302.74 1.473,19.42 21.821,28.54 39.093,25.97 144.33,-0.1 288.67,0.2 433,-0.15 19.12,-1.28 29.18,-21.27 26.44,-38.64 -0.1,-100.92 0.2,-201.84 -0.15,-302.74 -1.31,-14.54 -14.82,-26.19 -29.29,-25.92 z"/>
  <path id="path3758" d="m 193.88,758.31 c 0,17.57 -19.31,17.74 -32.15,16.84 -28.53,-0.23 -57.11,0.46 -85.613,-0.35 -18.16,-4.43 -12.612,-25.3 -13.466,-39.06 0.229,-26.11 -0.459,-52.27 0.345,-78.35 4.434,-18.16 25.299,-12.62 39.064,-13.47 26.18,0.23 52.4,-0.46 78.55,0.35 18.02,4.53 12.37,25.35 13.27,39.06 0,24.99 0,49.99 0,74.98 z" opacity="0.9" fill="#ffffff"/>
  <path id="rect3015" d="m 272.66,473.41 c 8.75,0 17.5,0 26.25,0 0,48.12 0,96.23 0,144.35 -8.75,0 -17.5,0 -26.25,0 0,-48.12 0,-96.23 0,-144.35 z"/>
  <path id="path3758-1" d="m 351.4,758.59 c 0,17.57 -19.32,17.75 -32.16,16.85 -28.53,-0.23 -57.1,0.46 -85.6,-0.35 -18.16,-4.44 -12.62,-25.3 -13.47,-39.07 0.23,-26.11 -0.46,-52.27 0.35,-78.36 4.44,-18.15 25.3,-12.61 39.06,-13.46 26.17,0.23 52.4,-0.46 78.55,0.35 18.02,4.53 12.37,25.34 13.27,39.05 0,25 0,49.99 0,74.99 z" opacity="0.9" fill="#ffffff"/>
  <path id="path3758-7" d="m 509.06,758.51 c -0,17.57 -19.33,17.74 -32.17,16.84 -28.53,-0.23 -57.11,0.46 -85.61,-0.35 -18.15,-4.43 -12.6,-25.3 -13.46,-39.06 0.23,-26.11 -0.46,-52.27 0.35,-78.36 4.43,-18.15 25.29,-12.61 39.05,-13.46 26.18,0.23 52.4,-0.46 78.56,0.35 18.03,4.52 12.38,25.34 13.28,39.05 0,25 0,49.99 0,74.99 z" opacity="0.9" fill="#ffffff"/>
 </g>
</svg>
