<?xml version="1.0" encoding="UTF-8" standalone="no"?>
<svg
   xmlns:dc="http://purl.org/dc/elements/1.1/"
   xmlns:cc="http://creativecommons.org/ns#"
   xmlns:rdf="http://www.w3.org/1999/02/22-rdf-syntax-ns#"
   xmlns:svg="http://www.w3.org/2000/svg"
   xmlns="http://www.w3.org/2000/svg"
   xmlns:sodipodi="http://sodipodi.sourceforge.net/DTD/sodipodi-0.dtd"
   xmlns:inkscape="http://www.inkscape.org/namespaces/inkscape"
   height="580"
   width="580"
   version="1.0"
   id="svg7"
   sodipodi:docname="canoe.svg"
   inkscape:version="0.92.4 (5da689c313, 2019-01-14)">
  <defs
     id="defs11" />
  <sodipodi:namedview
     pagecolor="#ffffff"
     bordercolor="#666666"
     borderopacity="1"
     objecttolerance="10"
     gridtolerance="10"
     guidetolerance="10"
     inkscape:pageopacity="0"
     inkscape:pageshadow="2"
     inkscape:window-width="1920"
     inkscape:window-height="1017"
     id="namedview9"
     showgrid="false"
     inkscape:zoom="1.6275862"
     inkscape:cx="274.99405"
     inkscape:cy="283.33379"
     inkscape:window-x="-8"
     inkscape:window-y="-8"
     inkscape:window-maximized="1"
     inkscape:current-layer="g2035" />
  <metadata
     id="metadata2975">
    <rdf:RDF>
      <cc:Work
         rdf:about="">
        <dc:format>image/svg+xml</dc:format>
        <dc:type
           rdf:resource="http://purl.org/dc/dcmitype/StillImage" />
      </cc:Work>
    </rdf:RDF>
  </metadata>
  <g
     id="g2035"
     transform="matrix(49.205862,0,0,-49.205862,284.1358,268.67859)"
     style="fill:#0098e3;fill-opacity:0.78431373">
    <path
       d="M 0,0 -0.638,0.639 C -0.872,0.468 -1.0700858,0.22957505 -1.0455854,0.12207314 -1.0210849,0.01457124 -1.027427,4.2690928e-4 -0.93592686,-0.04807314 -0.84442676,-0.09657319 -0.494,-0.114 0,0 m 1.953,-1.17 c 0,0 0.4339148,0.38990152 0.185,0.697 C 1.8890852,-0.16590152 1.277,-0.494 1.277,-0.494 Z M 5.058,-4.666 C 4.8659443,-4.8580557 4.7635003,-5.0435 4.329,-5.03 3.8944997,-5.0165 3.2300002,-4.3835005 3.001,-3.881 2.7719998,-3.3784995 2.339,-2.338 2.339,-2.338 L 2.18,-2.179 c 0,0 -0.093,-0.046 -0.182,-0.046 -0.089,0 -0.2105,0.025 -0.315,0.137 -0.1045,0.112 -0.1584865,0.3292432 -0.073,0.479 L 0.695,-0.694 C 0.01,-0.922 -0.90635236,-1.0334885 -1.3208537,-0.81148777 -1.7353551,-0.58948704 -1.8076585,-0.49726853 -1.9086585,-0.05026834 -2.0096586,0.39673184 -1.61,0.967 -1.252,1.253 l -0.364,0.364 c -0.482,0.248 -1.0404995,0.4329998 -1.543,0.662 -0.5025005,0.2290002 -1.136,0.8924988 -1.15,1.327 -0.014,0.4345012 0.1727335,0.537839 0.365,0.73 0.1922665,0.192161 0.2944997,0.3775 0.729,0.364 0.4345003,-0.0135 1.0979999,-0.6469999 1.327,-1.149 0.2290001,-0.5020001 0.415,-1.061 0.663,-1.543 L -0.776,1.56 c 0.203,0.09 0.46799989,-0.0275 0.553,-0.189 0.0850001,-0.1615002 0.058,-0.256 0.007,-0.372 L 0.601,0.183 C 1.6211352,0.57042433 2.6314111,0.50908473 2.938,-0.15 3.28,-1.0010001 2.572,-1.788 2.572,-1.788 L 2.73,-1.947 c 0,0 1.0394999,-0.4329999 1.542,-0.662 0.5025001,-0.2290001 1.136,-0.8935 1.15,-1.328 0.014,-0.4345 -0.1719443,-0.5369443 -0.364,-0.729 z m -3.726,0.861 c -0.325,0.2 -0.581,0.357 -1.059,0.357 -0.478,0 -0.733,-0.157 -1.058,-0.357 -0.376,-0.232 -0.843,-0.654 -1.635,-0.654 -0.809,0 -1.32,0.433 -1.732,0.672 -0.339,0.197 -0.584,0.339 -0.96,0.339 v -1.109 c 0.376,0 0.621,-0.141 0.96,-0.339 0.412,-0.239 0.923,-0.671 1.732,-0.671 0.792,0 1.259,0.422 1.635,0.654 0.325,0.199 0.58,0.356 1.058,0.356 0.478,0 0.734,-0.157 1.059,-0.356 0.376,-0.232 0.843,-0.654 1.635,-0.654 0.211,0 0.4,0.03 0.573,0.078 -0.486,0.206 -0.941,0.658 -1.22,1.133 -0.424,0.14 -0.728,0.391 -0.988,0.551 z m -3.752,0.093 c 0.792,0 1.259,0.423 1.635,0.654 0.325,0.2 0.58,0.357 1.058,0.357 0.478,0 0.734,-0.157 1.059,-0.357 0.167,-0.102 0.352,-0.243 0.574,-0.367 -0.104,0.259 -0.212,0.521 -0.323,0.746 -0.417,-0.086 -0.756,0.403 -1.068,1.07 -0.075,0.009 -0.154,0.016 -0.242,0.016 -0.478,0 -0.733,-0.157 -1.058,-0.357 -0.376,-0.231 -0.843,-0.654 -1.635,-0.654 -0.809,0 -1.32,0.433 -1.732,0.672 -0.339,0.197 -0.584,0.339 -0.96,0.339 v -1.108 c 0.376,0 0.621,-0.142 0.96,-0.339 0.412,-0.239 0.923,-0.672 1.732,-0.672 m 2.977,5.317 c -0.514,0 -0.912,0.398 -0.912,0.912 0,0.515 0.398,0.912 0.912,0.912 0.516,0 0.912,-0.3975 0.912,-0.912 0,-0.5145 -0.396,-0.912 -0.912,-0.912 z"
       style="fill:#0098e3;fill-opacity:0.78431373;fill-rule:nonzero;stroke:none"
       id="path2037"
       inkscape:connector-curvature="0"
       sodipodi:nodetypes="cczzcczcczzzcczzcczzcczzzzzcczccccczzzsscsccccscscsccsccsccccscscccccssszs" />
  </g>
</svg>
