<?xml version="1.0" encoding="UTF-8" standalone="no"?>
<svg
   xmlns:dc="http://purl.org/dc/elements/1.1/"
   xmlns:cc="http://creativecommons.org/ns#"
   xmlns:rdf="http://www.w3.org/1999/02/22-rdf-syntax-ns#"
   xmlns:svg="http://www.w3.org/2000/svg"
   xmlns="http://www.w3.org/2000/svg"
   xmlns:sodipodi="http://sodipodi.sourceforge.net/DTD/sodipodi-0.dtd"
   xmlns:inkscape="http://www.inkscape.org/namespaces/inkscape"
   height="580"
   width="580"
   version="1.0"
   id="svg876"
   sodipodi:docname="caravan_site.svg"
   inkscape:version="0.92.4 (5da689c313, 2019-01-14)">
  <defs
     id="defs880" />
  <sodipodi:namedview
     pagecolor="#ffffff"
     bordercolor="#666666"
     borderopacity="1"
     objecttolerance="10"
     gridtolerance="10"
     guidetolerance="10"
     inkscape:pageopacity="0"
     inkscape:pageshadow="2"
     inkscape:window-width="1920"
     inkscape:window-height="1017"
     id="namedview878"
     showgrid="false"
     inkscape:zoom="1.1508772"
     inkscape:cx="181.42786"
     inkscape:cy="295.34912"
     inkscape:window-x="-8"
     inkscape:window-y="-8"
     inkscape:window-maximized="1"
     inkscape:current-layer="svg876" />
  <metadata
     id="metadata2975">
    <rdf:RDF>
      <cc:Work
         rdf:about="">
        <dc:format>image/svg+xml</dc:format>
        <dc:type
           rdf:resource="http://purl.org/dc/dcmitype/StillImage" />
      </cc:Work>
    </rdf:RDF>
  </metadata>
  <path
     style="fill:#0098e3;fill-opacity:0.78431374;fill-rule:evenodd;stroke:none;stroke-width:43.90314865"
     d="m 334.18562,111.02727 c -39.03524,-0.002 -75.05332,3.48647 -111.95118,8.71094 -30.11756,4.34641 -101.37314,19.09723 -110.63671,95.92774 -7.37575,62.6498 2.5e-4,117.35454 36.8789,153.0039 H 27.392651 v 27.04297 h 32.0039 v 68.26953 h 23.92774 V 395.71282 H 235.75593 c 0,41.7958 23.35714,68.88477 65.76758,68.88477 41.7519,0 65.19531,-27.08897 65.19531,-68.88477 h 90.35351 l 34.99024,68.26953 h 28.88867 l -35.03516,-68.26953 c 51.01546,-13.47827 57.1627,-97.68468 57.77735,-162.88086 0.61464,-52.85939 -39.38099,-103.21588 -96.45508,-112.43554 -41.81775,-6.64722 -78.60988,-9.36697 -113.05273,-9.36915 z M 181.0528,173.25579 h 75.03125 c 2.41467,0 5.48633,3.03072 5.48633,5.5332 v 92.15235 c 0,2.45857 -3.07166,4.96093 -5.48633,4.96093 H 181.0528 c -3.07322,0 -5.48828,-2.50236 -5.48828,-4.96093 v -92.15235 c 0,-2.50248 2.41506,-5.5332 5.48828,-5.5332 z m 148.17383,0.61524 H 469.3653 c 3.07322,0 5.48828,3.0736 5.48828,5.48828 v 92.19531 c 0,2.50248 -2.41506,5.5332 -5.48828,5.5332 H 329.22663 c -3.07322,0 -5.57617,-3.03072 -5.57617,-5.5332 v -92.19531 c 0,-2.41468 2.50295,-5.48828 5.57617,-5.48828 z m -27.08789,193.61328 c 19.71252,0 33.80469,14.13701 33.80469,33.76172 0,19.66861 -14.09217,33.84765 -33.80469,33.84765 -19.6247,0 -33.80664,-14.17904 -33.80664,-33.84765 0,-19.62471 14.18194,-33.76172 33.80664,-33.76172 z"
     id="path1393"
     inkscape:connector-curvature="0" />
</svg>
