<?xml version="1.0" encoding="UTF-8" standalone="no"?>
<svg
   xmlns:dc="http://purl.org/dc/elements/1.1/"
   xmlns:cc="http://creativecommons.org/ns#"
   xmlns:rdf="http://www.w3.org/1999/02/22-rdf-syntax-ns#"
   xmlns:svg="http://www.w3.org/2000/svg"
   xmlns="http://www.w3.org/2000/svg"
   xmlns:sodipodi="http://sodipodi.sourceforge.net/DTD/sodipodi-0.dtd"
   xmlns:inkscape="http://www.inkscape.org/namespaces/inkscape"
   height="200"
   width="580"
   version="1.0"
   id="svg1019"
   sodipodi:docname="castle-50k.svg"
   inkscape:version="0.92.4 (5da689c313, 2019-01-14)">
  <defs
     id="defs1023" />
  <sodipodi:namedview
     pagecolor="#ffffff"
     bordercolor="#666666"
     borderopacity="1"
     objecttolerance="10"
     gridtolerance="10"
     guidetolerance="10"
     inkscape:pageopacity="0"
     inkscape:pageshadow="2"
     inkscape:window-width="1920"
     inkscape:window-height="1017"
     id="namedview1021"
     showgrid="false"
     inkscape:zoom="1.462069"
     inkscape:cx="448.45606"
     inkscape:cy="-28.802621"
     inkscape:window-x="1912"
     inkscape:window-y="-8"
     inkscape:window-maximized="1"
     inkscape:current-layer="g1247" />
  <metadata
     id="metadata2975">
    <rdf:RDF>
      <cc:Work
         rdf:about="">
        <dc:format>image/svg+xml</dc:format>
        <dc:type
           rdf:resource="http://purl.org/dc/dcmitype/StillImage" />
        <dc:title></dc:title>
      </cc:Work>
    </rdf:RDF>
  </metadata>
  <g
     id="g1247"
     transform="matrix(52.157718,0,0,-52.157718,-22.792046,74.83469)">
    <g
       id="g11821"
       style="fill:none;fill-opacity:1;stroke:#f8f8f8;stroke-width:0.47931546;stroke-miterlimit:4;stroke-dasharray:none;stroke-opacity:1"
       transform="matrix(0.98143588,0,0,0.98143588,-0.03032078,0.02438125)">
      <g
         transform="matrix(0.5949889,0,0,0.5949889,1.8048115,0.91549408)"
         id="g124-7"
         style="fill:none;fill-opacity:1;stroke:#f8f8f8;stroke-width:0.80558723;stroke-miterlimit:4;stroke-dasharray:none;stroke-opacity:1">
        <path
           inkscape:connector-curvature="0"
           id="path126-6"
           style="fill:none;fill-opacity:1;fill-rule:evenodd;stroke:#f8f8f8;stroke-width:0.80558723;stroke-miterlimit:4;stroke-dasharray:none;stroke-opacity:1"
           d="m 0,0 c -1.062,-0.395 -1.814,-1.451 -1.814,-2.597 0,-1.458 1.042,-2.328 2.47,-2.328 0.876,0 1.547,0.379 2.074,1.086 L 2.648,-3.758 C 2.373,-4.01 2.084,-4.227 1.705,-4.353 v 3.742 c 0.394,0.082 0.758,0.358 0.877,0.64 L 2.545,0.104 C 2.352,-0.008 2.143,-0.075 1.896,-0.075 1.615,-0.075 1.398,0.096 1.303,0.163 H 1.221 l -2.01,-1.532 v -0.156 l 0.746,0.535 v -2.462 c 0,-0.15 -0.039,-0.313 -0.156,-0.417 l 0.029,-0.104 c 0.445,0.089 0.75,0.431 0.75,0.908 v 2.574 l 0.231,0.156 C 1.027,-0.521 1.287,-0.611 1.57,-0.611 V -4.396 C 1.393,-4.441 1.205,-4.464 0.959,-4.464 c -1.428,0 -2.148,1.026 -2.148,2.359 0,0.855 0.439,1.636 1.212,2.015 z" />
      </g>
      <path
         style="fill:none;fill-opacity:1;fill-rule:evenodd;stroke:#f8f8f8;stroke-width:0.47931546;stroke-miterlimit:4;stroke-dasharray:none;stroke-opacity:1"
         d="m 5.3660585,-0.38604106 c -0.052954,-0.0309394 -0.150532,-0.11483286 -0.213006,-0.11483286 -0.110668,0 -0.25168,0.14160737 -0.28738,0.23859056 h -0.0708 c -0.114836,-0.14101238 -0.455765,-0.30939423 -0.672341,-0.32307897 l -0.0095,0.008925 c 0.04462,0.0309394 0.07973,0.0838934 0.07973,0.14636728 0,0.1017431 -0.101148,0.16778686 -0.193966,0.16778686 -0.111263,0 -0.195157,-0.0702087 -0.195157,-0.18563653 0,-0.0404593 0.03034,-0.10590803 0.09282,-0.16362194 l 0.367109,-0.36294337 c -0.239185,-0.0969834 -0.614623,-0.29689947 -0.614623,-0.59796387 0,-0.2034863 0.198726,-0.3492586 0.358183,-0.3980476 h 0.07556 l 0.653893,0.4028075 c 0,-0.1814717 0.03629,-0.2350206 0.102338,-0.2927346 l 0.124353,-0.1100729 h 0.04819 l 0.402807,0.2921395 -0.04403,0.052954 -0.105908,-0.070804 -0.190396,0.1594571 v 0.85856903 l 0.332004,0.23026069 z"
         id="path11754-3"
         inkscape:connector-curvature="0" />
      <path
         inkscape:connector-curvature="0"
         id="path134-7"
         d="m 7.2270045,-0.2622821 c -0.102338,-0.0618788 -0.203486,-0.11899778 -0.340333,-0.11899778 -0.129113,0 -0.248111,0.0708037 -0.345094,0.11899778 h -0.06723 c -0.172547,-0.1285176 -0.389718,-0.22133587 -0.600939,-0.23442563 -0.09282,-0.008925 -0.164812,-0.008925 -0.164812,-0.0487891 0,-0.0356993 0.05771,-0.052954 0.120783,-0.10114809 V -1.0714671 l -0.05355,-0.022015 c -0.03986,-0.018445 -0.07556,-0.058309 -0.07556,-0.080323 0,-0.030939 0.03927,-0.048789 0.07556,-0.048789 h 0.556315 l -0.649728,-0.694947 0.05712,-0.039864 c 0.09282,0.061879 0.203486,0.1285175 0.319509,0.1285175 0.142203,0 0.317724,-0.061879 0.438507,-0.1416074 h 0.06961 c 0.124353,0.1416074 0.398643,0.2522754 0.681857,0.27429 0.04879,0.00476 0.07497,0.00476 0.07497,0.030939 0,0.030939 -0.04343,0.079729 -0.09282,0.097578 v 0.491461 c 0.05414,0.012495 0.102934,0.052954 0.102934,0.075564 0,0.0345094 -0.01844,0.0481942 -0.06307,0.0481942 h -0.59737 l 0.606888,0.65032279 z"
         style="fill:none;fill-opacity:1;fill-rule:evenodd;stroke:#f8f8f8;stroke-width:0.47931546;stroke-miterlimit:4;stroke-dasharray:none;stroke-opacity:1" />
      <g
         transform="matrix(0.5949889,0,0,0.5949889,8.5484165,-0.49236799)"
         id="g136-2"
         style="fill:none;fill-opacity:1;stroke:#f8f8f8;stroke-width:0.80558723;stroke-miterlimit:4;stroke-dasharray:none;stroke-opacity:1">
        <path
           inkscape:connector-curvature="0"
           id="path138-3"
           style="fill:none;fill-opacity:1;fill-rule:evenodd;stroke:#f8f8f8;stroke-width:0.80558723;stroke-miterlimit:4;stroke-dasharray:none;stroke-opacity:1"
           d="M 0,0 0.201,0.483 0.133,0.536 C 0.053,0.446 -0.066,0.387 -0.18,0.387 H -0.484 V 1.763 L -1.049,1.413 V 0.387 h -0.357 l -0.201,-0.484 0.089,-0.037 C -1.459,-0.022 -1.369,0 -1.279,0 h 0.23 v -1.792 l -0.558,-0.365 0.082,-0.096 c 0.089,0.073 0.201,0.125 0.291,0.125 0.148,0 0.416,-0.215 0.586,-0.356 h 0.089 l 0.768,0.58 -0.09,0.089 -0.275,-0.193 -0.328,0.223 V 0 Z" />
      </g>
      <g
         transform="matrix(0.5949889,0,0,0.5949889,9.1375775,0.67612978)"
         id="g140-2"
         style="fill:none;fill-opacity:1;stroke:#f8f8f8;stroke-width:0.80558723;stroke-miterlimit:4;stroke-dasharray:none;stroke-opacity:1">
        <path
           inkscape:connector-curvature="0"
           id="path142-0"
           style="fill:none;fill-opacity:1;fill-rule:evenodd;stroke:#f8f8f8;stroke-width:0.80558723;stroke-miterlimit:4;stroke-dasharray:none;stroke-opacity:1"
           d="m 0,0 c 0.037,-0.148 0.068,-0.379 0.068,-0.564 v -3.282 l -0.545,-0.282 0.106,-0.104 c 0.08,0.051 0.191,0.133 0.297,0.133 0.142,0 0.342,-0.148 0.513,-0.349 H 0.58 L 1.242,-3.942 1.16,-3.854 0.967,-3.979 0.633,-3.756 v 2.945 c 0,0.342 0.074,0.789 0.32,1.057 L 0.871,0.357 C 0.641,0.156 0.461,-0.074 0.275,-0.298 L 0.104,0.067 Z" />
      </g>
      <g
         style="fill:none;fill-opacity:1;fill-rule:evenodd;stroke:#f8f8f8;stroke-width:0.80558723;stroke-miterlimit:4;stroke-dasharray:none;stroke-opacity:1"
         transform="matrix(0.5949889,0,0,0.5949889,10.585541,-1.2134305)"
         id="g144-7">
        <path
           inkscape:connector-curvature="0"
           id="path146-7"
           d="m -0.566,-0.648 -0.43,-0.252 0.103,-0.082 c 0,0 0.186,0.111 0.282,0.111 0.195,0 0.484,-0.275 0.656,-0.401 H 0.164 L 1.316,-0.625 1.211,-0.521 0.625,-0.849 0,-0.529 v 0.373 L 1.338,0.609 V 0.721 L 0.662,1.599 H 0.58 C 0.342,1.412 -0.32,1.152 -0.744,1.152 c 0,-0.074 0.082,-0.171 0.178,-0.215 z"
           style="fill:none;fill-opacity:1;fill-rule:evenodd;stroke:#f8f8f8;stroke-width:0.80558723;stroke-miterlimit:4;stroke-dasharray:none;stroke-opacity:1" />
        <path
           inkscape:connector-curvature="0"
           id="path11750-9"
           d="M 0,0 V 1.175 C 0.074,1.197 0.178,1.242 0.252,1.271 L 0.84,0.49 Z"
           style="fill:none;fill-opacity:1;fill-rule:evenodd;stroke:#f8f8f8;stroke-width:0.80558723;stroke-miterlimit:4;stroke-dasharray:none;stroke-opacity:1" />
      </g>
    </g>
    <g
       id="g124"
       transform="matrix(0.58394345,0,0,0.58394345,1.740986,0.92287999)">
      <path
         d="m 0,0 c -1.062,-0.395 -1.814,-1.451 -1.814,-2.597 0,-1.458 1.042,-2.328 2.47,-2.328 0.876,0 1.547,0.379 2.074,1.086 L 2.648,-3.758 C 2.373,-4.01 2.084,-4.227 1.705,-4.353 v 3.742 c 0.394,0.082 0.758,0.358 0.877,0.64 L 2.545,0.104 C 2.352,-0.008 2.143,-0.075 1.896,-0.075 1.615,-0.075 1.398,0.096 1.303,0.163 H 1.221 l -2.01,-1.532 v -0.156 l 0.746,0.535 v -2.462 c 0,-0.15 -0.039,-0.313 -0.156,-0.417 l 0.029,-0.104 c 0.445,0.089 0.75,0.431 0.75,0.908 v 2.574 l 0.231,0.156 C 1.027,-0.521 1.287,-0.611 1.57,-0.611 V -4.396 C 1.393,-4.441 1.205,-4.464 0.959,-4.464 c -1.428,0 -2.148,1.026 -2.148,2.359 0,0.855 0.439,1.636 1.212,2.015 z"
         style="fill:#231f20;fill-opacity:1;fill-rule:evenodd;stroke:none"
         id="path126"
         inkscape:connector-curvature="0" />
    </g>
    <path
       inkscape:connector-curvature="0"
       id="path11754"
       d="m 5.236121,-0.35449329 c -0.051971,-0.030365 -0.1477377,-0.11270109 -0.2090517,-0.11270109 -0.1086135,0 -0.2470081,0.13897855 -0.2820448,0.23416133 h -0.069489 c -0.1127011,-0.1383946 -0.4473007,-0.3036506 -0.6598561,-0.3170813 l -0.00934,0.008759 c 0.043796,0.030365 0.078248,0.082336 0.078248,0.14365008 0,0.0998543 -0.09927,0.16467205 -0.1903656,0.16467205 -0.1091974,0 -0.1915334,-0.0689053 -0.1915334,-0.18219035 0,-0.0397082 0.029781,-0.10394194 0.091095,-0.16058445 L 4.1540738,-0.93201336 C 3.9193286,-1.0271962 3.5508603,-1.2234011 3.5508603,-1.5188766 c 0,-0.1997086 0.195037,-0.3427748 0.3515339,-0.3906582 h 0.074162 l 0.6417539,0.3953298 c 0,-0.1781027 0.035621,-0.2306576 0.1004382,-0.2873002 l 0.1220442,-0.1080296 h 0.047299 l 0.3953297,0.2867164 -0.043212,0.051971 -0.1039419,-0.06949 -0.1868619,0.1564969 v 0.84263039 L 5.275246,-0.4152243 Z"
       style="fill:#231f20;fill-opacity:1;fill-rule:evenodd;stroke:none;stroke-width:0.58394343" />
    <path
       inkscape:connector-curvature="0"
       id="path130"
       d="m 4.2153878,-1.6753733 c -0.1524092,0.043796 -0.3345995,0.14365 -0.3345995,0.3264243 0,0.1518253 0.095766,0.2382489 0.2131393,0.300147 l 0.1173727,0.0601463 0.1564968,-0.1564968 0.051387,0.056058 -0.4473006,0.44379706 c 0.1605844,0.008175 0.3170813,0.0560586 0.4560598,0.134307 L 4.6183085,-0.65872815 V -1.4184383 Z"
       style="fill:#f8f8f8;fill-opacity:1;fill-rule:evenodd;stroke:none;stroke-width:0.58394343" />
    <path
       style="fill:#231f20;fill-opacity:1;fill-rule:evenodd;stroke:none;stroke-width:0.58394343"
       d="M 7.0625206,-0.23303181 C 6.9620823,-0.29376188 6.8628119,-0.3498205 6.7285049,-0.3498205 c -0.1267158,0 -0.2435044,0.0694893 -0.3386871,0.11678869 H 6.3238318 C 6.1544883,-0.35916359 5.9413489,-0.45025876 5.734049,-0.46310553 c -0.091095,-0.008759 -0.1617524,-0.008759 -0.1617524,-0.0478834 0,-0.0350365 0.056642,-0.0519709 0.1185407,-0.0992703 V -1.0271949 l -0.052555,-0.021606 c -0.039124,-0.018102 -0.074162,-0.057226 -0.074162,-0.078832 0,-0.030365 0.03854,-0.047883 0.074162,-0.047883 h 0.5459872 l -0.6376663,-0.6820459 0.056058,-0.039124 c 0.091095,0.06073 0.1997086,0.1261319 0.3135777,0.1261319 0.1395624,0 0.3118257,-0.06073 0.4303663,-0.1389786 h 0.068322 c 0.1220442,0.1389786 0.3912421,0.247592 0.6691992,0.2691979 0.047883,0.00468 0.073578,0.00468 0.073578,0.030365 0,0.030365 -0.042628,0.078249 -0.091095,0.095766 v 0.4823374 c 0.053139,0.012263 0.1010223,0.0519709 0.1010223,0.0741612 0,0.0338688 -0.018102,0.0472994 -0.061898,0.0472994 H 6.5194532 l 0.5956223,0.63825019 z"
       id="path134"
       inkscape:connector-curvature="0" />
    <g
       id="g136"
       transform="matrix(0.58394345,0,0,0.58394345,8.359401,-0.45884637)">
      <path
         d="M 0,0 0.201,0.483 0.133,0.536 C 0.053,0.446 -0.066,0.387 -0.18,0.387 H -0.484 V 1.763 L -1.049,1.413 V 0.387 h -0.357 l -0.201,-0.484 0.089,-0.037 C -1.459,-0.022 -1.369,0 -1.279,0 h 0.23 v -1.792 l -0.558,-0.365 0.082,-0.096 c 0.089,0.073 0.201,0.125 0.291,0.125 0.148,0 0.416,-0.215 0.586,-0.356 h 0.089 l 0.768,0.58 -0.09,0.089 -0.275,-0.193 -0.328,0.223 V 0 Z"
         style="fill:#231f20;fill-opacity:1;fill-rule:evenodd;stroke:none"
         id="path138"
         inkscape:connector-curvature="0" />
    </g>
    <g
       id="g140"
       transform="matrix(0.58394345,0,0,0.58394345,8.9376249,0.68795927)">
      <path
         d="m 0,0 c 0.037,-0.148 0.068,-0.379 0.068,-0.564 v -3.282 l -0.545,-0.282 0.106,-0.104 c 0.08,0.051 0.191,0.133 0.297,0.133 0.142,0 0.342,-0.148 0.513,-0.349 H 0.58 L 1.242,-3.942 1.16,-3.854 0.967,-3.979 0.633,-3.756 v 2.945 c 0,0.342 0.074,0.789 0.32,1.057 L 0.871,0.357 C 0.641,0.156 0.461,-0.074 0.275,-0.298 L 0.104,0.067 Z"
         style="fill:#231f20;fill-opacity:1;fill-rule:evenodd;stroke:none"
         id="path142"
         inkscape:connector-curvature="0" />
    </g>
    <g
       id="g144"
       transform="matrix(0.58394345,0,0,0.58394345,10.358709,-1.166523)"
       style="fill-rule:evenodd">
      <path
         style="fill:#231f20;fill-opacity:1;fill-rule:evenodd;stroke:none"
         d="m -0.566,-0.648 -0.43,-0.252 0.103,-0.082 c 0,0 0.186,0.111 0.282,0.111 0.195,0 0.484,-0.275 0.656,-0.401 H 0.164 L 1.316,-0.625 1.211,-0.521 0.625,-0.849 0,-0.529 v 0.373 L 1.338,0.609 V 0.721 L 0.662,1.599 H 0.58 C 0.342,1.412 -0.32,1.152 -0.744,1.152 c 0,-0.074 0.082,-0.171 0.178,-0.215 z"
         id="path146"
         inkscape:connector-curvature="0" />
      <path
         style="fill:#f8f8f8;fill-opacity:1;fill-rule:evenodd;stroke:none"
         d="M 0,0 V 1.175 C 0.074,1.197 0.178,1.242 0.252,1.271 L 0.84,0.49 Z"
         id="path11750"
         inkscape:connector-curvature="0" />
    </g>
    <path
       style="fill:#f8f8f8;fill-opacity:1;fill-rule:evenodd;stroke:none;stroke-width:0.58394343"
       d="m 6.0201815,-0.96296112 v 0.47416209 l 0.074162,0.0338687 c 0.099854,-0.0951828 0.1518253,-0.14306613 0.2908039,-0.14306613 0.164088,0 0.3170812,0.0788324 0.4513883,0.15240923 l 0.00934,-0.009343 -0.4694906,-0.50803078 z"
       id="path11763"
       inkscape:connector-curvature="0" />
    <path
       style="fill:#f8f8f8;fill-opacity:1;fill-rule:evenodd;stroke:none;stroke-width:0.58394343"
       d="m 6.7366802,-1.6490946 h -0.065403 c -0.081752,0.078249 -0.2429204,0.1302193 -0.3772274,0.1302193 -0.1740152,0 -0.3602932,-0.095182 -0.4519723,-0.1518252 l -0.00875,0.00875 0.516206,0.5605857 h 0.3871546 z"
       id="path11761"
       inkscape:connector-curvature="0" />
  </g>
</svg>
