<?xml version="1.0" encoding="UTF-8" standalone="no"?>
<svg
   xmlns:dc="http://purl.org/dc/elements/1.1/"
   xmlns:cc="http://creativecommons.org/ns#"
   xmlns:rdf="http://www.w3.org/1999/02/22-rdf-syntax-ns#"
   xmlns:svg="http://www.w3.org/2000/svg"
   xmlns="http://www.w3.org/2000/svg"
   xmlns:sodipodi="http://sodipodi.sourceforge.net/DTD/sodipodi-0.dtd"
   xmlns:inkscape="http://www.inkscape.org/namespaces/inkscape"
   height="580"
   width="580"
   version="1.0"
   id="svg4521"
   sodipodi:docname="cathedral.svg"
   inkscape:version="0.92.4 (5da689c313, 2019-01-14)">
  <defs
     id="defs4525" />
  <sodipodi:namedview
     pagecolor="#ffffff"
     bordercolor="#666666"
     borderopacity="1"
     objecttolerance="10"
     gridtolerance="10"
     guidetolerance="10"
     inkscape:pageopacity="0"
     inkscape:pageshadow="2"
     inkscape:window-width="1920"
     inkscape:window-height="1017"
     id="namedview4523"
     showgrid="false"
     inkscape:zoom="0.73103448"
     inkscape:cx="-95.34977"
     inkscape:cy="140.88122"
     inkscape:window-x="-8"
     inkscape:window-y="-8"
     inkscape:window-maximized="1"
     inkscape:current-layer="svg4521" />
  <metadata
     id="metadata10">
    <rdf:RDF>
      <cc:Work
         rdf:about="">
        <dc:format>image/svg+xml</dc:format>
        <dc:type
           rdf:resource="http://purl.org/dc/dcmitype/StillImage" />
        <dc:title></dc:title>
      </cc:Work>
    </rdf:RDF>
  </metadata>
  <path
     inkscape:connector-curvature="0"
     id="path2207"
     style="fill:#0098e3;fill-opacity:0.75;fill-rule:evenodd;stroke:none;stroke-width:5.23078156"
     d="m 313.39134,243.40824 h 69.57463 c 8.10771,19.60497 27.71268,32.43085 50.00627,32.43085 30.40653,0 55.38874,-24.98222 55.38874,-55.43583 0,-30.35422 -24.98221,-55.37828 -55.38874,-55.37828 -22.29359,0 -41.23948,12.81541 -50.00627,31.76653 h -69.57463 v -68.95739 c 19.56312,-8.11294 32.43085,-27.67084 32.43085,-49.305348 0,-31.06561 -24.37022,-55.43582 -55.43583,-55.43582 -30.39607,0 -56.08967,24.37021 -56.08967,55.43582 0,21.634508 13.5268,40.533328 33.08993,49.305348 v 68.95739 h -69.5694 c -8.77202,-18.95112 -28.37699,-31.76653 -50.01673,-31.76653 -30.39607,0 -56.089676,25.02406 -56.089676,55.37828 0,30.45361 25.693606,55.43583 56.089676,55.43583 21.63974,0 40.53855,-12.82588 50.01673,-32.43085 h 69.5694 v 211.49619 c -19.56313,8.8191 -33.08993,27.72314 -33.08993,50.01674 0,31.06038 25.6936,56.08967 56.08967,56.08967 31.06561,0 55.43583,-25.02929 55.43583,-56.08967 0,-22.2936 -12.86773,-39.87948 -32.43085,-50.01674 z" />
</svg>
