<?xml version="1.0" encoding="UTF-8" standalone="no"?>
<svg
   xmlns:dc="http://purl.org/dc/elements/1.1/"
   xmlns:cc="http://creativecommons.org/ns#"
   xmlns:rdf="http://www.w3.org/1999/02/22-rdf-syntax-ns#"
   xmlns:svg="http://www.w3.org/2000/svg"
   xmlns="http://www.w3.org/2000/svg"
   xmlns:sodipodi="http://sodipodi.sourceforge.net/DTD/sodipodi-0.dtd"
   xmlns:inkscape="http://www.inkscape.org/namespaces/inkscape"
   height="580"
   width="580"
   version="1.0"
   id="svg824"
   sodipodi:docname="cathedral-50k-night.svg"
   inkscape:version="0.92.4 (5da689c313, 2019-01-14)">
  <defs
     id="defs828" />
  <sodipodi:namedview
     pagecolor="#ffffff"
     bordercolor="#666666"
     borderopacity="1"
     objecttolerance="10"
     gridtolerance="10"
     guidetolerance="10"
     inkscape:pageopacity="0"
     inkscape:pageshadow="2"
     inkscape:window-width="1920"
     inkscape:window-height="1017"
     id="namedview826"
     showgrid="false"
     inkscape:zoom="1.0338389"
     inkscape:cx="296.86038"
     inkscape:cy="240.42277"
     inkscape:window-x="-8"
     inkscape:window-y="-8"
     inkscape:window-maximized="1"
     inkscape:current-layer="g966" />
  <metadata
     id="metadata2975">
    <rdf:RDF>
      <cc:Work
         rdf:about="">
        <dc:format>image/svg+xml</dc:format>
        <dc:type
           rdf:resource="http://purl.org/dc/dcmitype/StillImage" />
        <dc:title></dc:title>
      </cc:Work>
    </rdf:RDF>
  </metadata>
  <g
     id="g966"
     transform="matrix(43.480197,0,0,-43.480197,307.88094,336.12543)">
    <path
       inkscape:connector-curvature="0"
       id="path1389-5"
       style="font-style:normal;font-variant:normal;font-weight:normal;font-stretch:normal;font-size:5.56689739px;line-height:1.25;font-family:sans-serif;-inkscape-font-specification:'sans-serif, Normal';font-variant-ligatures:normal;font-variant-caps:normal;font-variant-numeric:normal;font-feature-settings:normal;text-align:start;letter-spacing:0px;word-spacing:0px;writing-mode:lr-tb;text-anchor:start;fill:none;fill-opacity:1;stroke:#373737;stroke-width:0.82796311;stroke-miterlimit:4;stroke-dasharray:none;stroke-opacity:1"
       d="m -3.0316118,-0.2458352 c 0,0 -0.1747255,-0.07699 -0.2493926,-0.1122267 -0.073307,-0.034594 -0.1694608,-0.07189 -0.2892956,-0.1097328 -0.1012949,-0.031988 -0.2121603,-0.057237 -0.3316924,-0.079806 -0.1182299,-0.022323 -0.2485614,-0.034915 -0.3915466,-0.034915 -0.2693442,0 -0.5149211,0.036409 -0.7357086,0.1122267 -0.219811,0.075482 -0.4106582,0.1953664 -0.5736033,0.3566316 C -5.7624537,0.0443 -5.8874283,0.2445374 -5.97694,0.4873792 c -0.090051,0.2443055 -0.1346721,0.5278812 -0.1346721,0.8504292 0,0.3059217 0.043228,0.5794224 0.1296842,0.8205021 0.086456,0.2410796 0.2111783,0.4447251 0.3740891,0.6110121 0.1579746,0.1612487 0.3482139,0.2845833 0.5711094,0.3691013 0.2243491,0.085069 0.473015,0.1271903 0.7456843,0.1271903 0.1995142,0 0.3981508,-0.024299 0.5960488,-0.072324 0.1994678,-0.048407 0.6633845,-0.2543806 0.6633845,-0.2543806 V 2.3528372 h -0.037409 c -0.204502,0.1712496 -0.4073415,0.295946 -0.6085184,0.3740891 -0.2011768,0.078143 -0.4164858,0.1172146 -0.6459272,0.1172146 -0.1878758,0 -0.3572902,-0.031185 -0.5087611,-0.092275 -0.149464,-0.060282 -0.2835472,-0.1537273 -0.401522,-0.2818142 -0.1147918,-0.1246308 -0.2049977,-0.2824777 -0.2693443,-0.4738462 -0.063675,-0.1893724 -0.094769,-0.4090041 -0.094769,-0.6583967 0,-0.2610311 0.034187,-0.4857571 0.104745,-0.67336044 0.070765,-0.1881512 0.1628639,-0.3409053 0.274332,-0.4588827 0.1163107,-0.1231025 0.2515029,-0.2154788 0.4065102,-0.274332 0.1559087,-0.059195 0.3208853,-0.087287 0.4937976,-0.087287 0.2377544,0 0.4605452,0.040734 0.6683727,0.1222023 0.207827,0.081468 0.4023535,0.2036709 0.583579,0.3666074 h 0.034915 z"
       sodipodi:nodetypes="cssssssssssssscccsssssssssssccc" />
    <path
       inkscape:connector-curvature="0"
       id="path1391-1"
       style="font-style:normal;font-variant:normal;font-weight:normal;font-stretch:normal;font-size:5.56689739px;line-height:1.25;font-family:sans-serif;-inkscape-font-specification:'sans-serif, Normal';font-variant-ligatures:normal;font-variant-caps:normal;font-variant-numeric:normal;font-feature-settings:normal;text-align:start;letter-spacing:0px;word-spacing:0px;writing-mode:lr-tb;text-anchor:start;fill:none;fill-opacity:1;stroke:#373737;stroke-width:0.82796311;stroke-miterlimit:4;stroke-dasharray:none;stroke-opacity:1"
       d="m -0.20100427,-0.5151792 h -0.4663643 v 0.2967772 c 0,0 -0.097983,-0.068322 -0.1695871,-0.1197086 -0.069719,-0.050034 -0.1385325,-0.088619 -0.20450203,-0.1197085 -0.078697,-0.037087 -0.1681198,-0.069048 -0.2693443,-0.094769 -0.1016209,-0.025822 -0.2202968,-0.039903 -0.3566315,-0.039903 -0.2510555,0 -0.4638705,0.083131 -0.6384456,0.2493927 -0.1745749,0.1662618 -0.2618622,0.3782457 -0.2618622,0.6359515 0,0.2111525 0.044719,0.3816899 0.1346721,0.51125514 0.091273,0.131466 0.2209914,0.23473696 0.3890527,0.30924686 0.1694508,0.075126 0.3732578,0.1255279 0.611012,0.1521296 0.2377547,0.026602 0.76563593,0.059854 0.76563593,0.059854 0,0 0,0.048216 0,0.072324 0,0.1064076 -0.019764,0.1941774 -0.05736,0.2643563 -0.037225,0.069487 -0.089834,0.1246047 -0.1596113,0.1645992 -0.066557,0.038148 -0.14631033,0.064011 -0.23941713,0.077312 -0.093107,0.013301 -0.1903696,0.019952 -0.2917893,0.019952 -0.123034,0 -0.2600274,-0.01742 -0.4114982,-0.049878 -0.1511299,-0.032385 -0.3075841,-0.078143 -0.4688582,-0.1396599 h -0.024939 v 0.4763401 c 0,0 0.223622,0.052372 0.3965343,0.0823 0.1729125,0.029928 0.3433308,0.044891 0.5112553,0.044891 0.1961891,0 0.3663884,-0.017594 0.51125503,-0.049878 0.1460978,-0.032559 0.2725632,-0.086601 0.379077,-0.1645993 0.1046389,-0.076625 0.1845507,-0.1754063 0.239417,-0.2967774 0.054867,-0.1213712 0.0823,-0.2718381 0.0823,-0.4514009 0,-0.6301326 0,-1.8903981 0,-1.8903981 z m -0.4663643,0.6858299 v 0.77561154 c 0,0 -0.311747,-0.020712 -0.50626733,-0.037409 -0.1928698,-0.016555 -0.3458972,-0.040475 -0.4588826,-0.072324 -0.1347453,-0.037982 -0.2431572,-0.098522 -0.3267044,-0.17956294 -0.082717,-0.080235 -0.1246965,-0.1903699 -0.1246965,-0.3316924 0,-0.1596113 0.047806,-0.2806393 0.1446476,-0.3616193 0.096024,-0.080296 0.2435739,-0.1197086 0.4414254,-0.1197086 0.1645993,0 0.3153842,0.030908 0.4514009,0.094769 0.13665603,0.064162 0.37907693,0.2319352 0.37907693,0.2319357 z"
       sodipodi:nodetypes="cccssssssssscsssssscccsssssscccsssssssc" />
    <path
       inkscape:connector-curvature="0"
       id="path1393-8"
       style="font-style:normal;font-variant:normal;font-weight:normal;font-stretch:normal;font-size:5.56689739px;line-height:1.25;font-family:sans-serif;-inkscape-font-specification:'sans-serif, Normal';font-variant-ligatures:normal;font-variant-caps:normal;font-variant-numeric:normal;font-feature-settings:normal;text-align:start;letter-spacing:0px;word-spacing:0px;writing-mode:lr-tb;text-anchor:start;fill:none;fill-opacity:1;stroke:#373737;stroke-width:0.82796311;stroke-miterlimit:4;stroke-dasharray:none;stroke-opacity:1"
       d="m 2.1532633,-0.49024 c 0,0 -0.1845672,-0.042279 -0.2892954,-0.05736 -0.1030993,-0.014846 -0.1953576,-0.022445 -0.276826,-0.022445 -0.2843076,0 -0.500448,0.076481 -0.64842117,0.2294415 -0.1479728,0.1529609 -0.2219594,0.3981971 -0.2219594,0.7357085 0,0.49379764 0,1.4813929 0,1.4813929 h -0.3167288 v 0.3940405 h 0.3167288 V 3.0710882 H 1.1856196 V 2.2705376 H 2.1532633 V 1.8764971 H 1.1856196 c 0,0 0,-0.8462728 0,-1.2694091 0,-0.1463103 0.00326,-0.2610363 0.00998,-0.344162 0.00659,-0.081474 0.030141,-0.1578295 0.06983,-0.2294412 0.036792,-0.066386 0.085968,-0.1165482 0.1496355,-0.1471417 0.064369,-0.030931 0.1629367,-0.044891 0.2942834,-0.044891 0.076481,0 0.1564919,0.010031 0.239417,0.032421 0.083344,0.022503 0.1400428,0.05736 0.1795629,0.05736 h 0.024939 z"
       sodipodi:nodetypes="cssssccccccccccssssssscc" />
    <path
       inkscape:connector-curvature="0"
       id="path1395-6"
       style="font-style:normal;font-variant:normal;font-weight:normal;font-stretch:normal;font-size:5.56689739px;line-height:1.25;font-family:sans-serif;-inkscape-font-specification:'sans-serif, Normal';font-variant-ligatures:normal;font-variant-caps:normal;font-variant-numeric:normal;font-feature-settings:normal;text-align:start;letter-spacing:0px;word-spacing:0px;writing-mode:lr-tb;text-anchor:start;fill:none;fill-opacity:1;stroke:#373737;stroke-width:0.82796311;stroke-miterlimit:4;stroke-dasharray:none;stroke-opacity:1"
       d="M 5.0512069,-0.5151792 H 4.5823486 c 0,0 0,1.057425 0,1.5861377 0,0.1280216 -0.00759,0.2477152 -0.022445,0.3591256 -0.015074,0.1130433 -0.04327,0.2006338 -0.0823,0.2643563 -0.042445,0.069299 -0.1017208,0.1206713 -0.1795627,0.1546234 -0.078451,0.034218 -0.1795626,0.052373 -0.3042592,0.052373 -0.1280215,0 -0.2618622,-0.03159 -0.4015223,-0.094769 C 3.4525994,1.743488 3.190737,1.5647566 3.190737,1.5647566 V -0.5151792 H 2.7218787 V 3.3653717 H 3.1907372 V 1.9612906 c 0,0 0.2976086,0.2161403 0.4538947,0.2843077 0.1562863,0.068168 0.3167288,0.1022511 0.4813281,0.1022511 0.3009337,0 0.5303752,-0.090613 0.6883239,-0.2718382 0.1579487,-0.1812254 0.236923,-0.4422565 0.236923,-0.7830932 0,-0.602699 0,-1.8080972 0,-1.8080972 z"
       sodipodi:nodetypes="ccssssssccccccssssc" />
    <rect
       style="opacity:0.25;fill:#0098e3;fill-opacity:0.25098039;stroke:none;stroke-width:0.79202515;stroke-linecap:butt;stroke-linejoin:round;stroke-miterlimit:4;stroke-dasharray:none;stroke-opacity:1"
       id="rect1387"
       width="13.392209"
       height="6.2066879"
       x="-7.1031923"
       y="-4.4019194"
       transform="scale(1,-1)" />
    <path
       inkscape:connector-curvature="0"
       id="path1389"
       style="font-style:normal;font-variant:normal;font-weight:normal;font-stretch:normal;font-size:5.56689739px;line-height:1.25;font-family:sans-serif;-inkscape-font-specification:'sans-serif, Normal';font-variant-ligatures:normal;font-variant-caps:normal;font-variant-numeric:normal;font-feature-settings:normal;text-align:start;letter-spacing:0px;word-spacing:0px;writing-mode:lr-tb;text-anchor:start;fill:#a1a1a1;fill-opacity:1;stroke:none;stroke-width:0.05320379"
       d="m -3.0316117,-0.24583519 c 0,0 -0.1747255,-0.0769906 -0.2493927,-0.11222673 -0.073307,-0.0345944 -0.1694607,-0.0718903 -0.2892956,-0.1097328 -0.1012948,-0.0319879 -0.2121602,-0.0572367 -0.3316923,-0.0798057 -0.1182299,-0.0223231 -0.2485614,-0.034915 -0.3915466,-0.034915 -0.2693442,0 -0.5149211,0.0364091 -0.7357086,0.11222673 -0.219811,0.0754822 -0.4106582,0.19536631 -0.5736033,0.35663162 -0.1596028,0.15795739 -0.2845774,0.35819464 -0.3740891,0.6010365 -0.090051,0.24430559 -0.1346721,0.52788127 -0.1346721,0.85042927 0,0.3059217 0.043228,0.5794224 0.1296842,0.8205021 0.086456,0.2410796 0.2111783,0.4447251 0.3740891,0.6110121 0.1579746,0.1612487 0.3482139,0.2845833 0.5711094,0.3691013 0.2243491,0.085069 0.473015,0.1271903 0.7456843,0.1271903 0.1995142,0 0.3981508,-0.024299 0.5960487,-0.072324 0.199468,-0.048407 0.6633846,-0.2543806 0.6633846,-0.2543806 V 2.3528372 h -0.037409 c -0.2045021,0.1712496 -0.4073415,0.295946 -0.6085184,0.3740891 -0.2011768,0.078143 -0.4164858,0.1172146 -0.6459272,0.1172146 -0.1878758,0 -0.3572902,-0.031185 -0.5087611,-0.092275 -0.149464,-0.060282 -0.2835472,-0.1537273 -0.401522,-0.2818142 -0.1147918,-0.1246308 -0.2049977,-0.2824777 -0.2693443,-0.4738462 -0.063675,-0.1893724 -0.094769,-0.4090041 -0.094769,-0.6583967 0,-0.2610311 0.034187,-0.48575708 0.104745,-0.67336045 0.070765,-0.18815119 0.1628639,-0.3409054 0.274332,-0.45888264 0.1163107,-0.12310245 0.2515029,-0.21547895 0.4065102,-0.27433202 0.1559087,-0.05919524 0.3208853,-0.08728745 0.4937976,-0.08728745 0.2377544,0 0.4605452,0.0407342 0.6683726,0.12220244 0.2078272,0.08146829 0.4023536,0.20367074 0.583579,0.36660734 h 0.034915 z"
       sodipodi:nodetypes="cssssssssssssscccsssssssssssccc" />
    <path
       inkscape:connector-curvature="0"
       id="path1391"
       style="font-style:normal;font-variant:normal;font-weight:normal;font-stretch:normal;font-size:5.56689739px;line-height:1.25;font-family:sans-serif;-inkscape-font-specification:'sans-serif, Normal';font-variant-ligatures:normal;font-variant-caps:normal;font-variant-numeric:normal;font-feature-settings:normal;text-align:start;letter-spacing:0px;word-spacing:0px;writing-mode:lr-tb;text-anchor:start;fill:#a1a1a1;fill-opacity:1;stroke:none;stroke-width:0.05320379"
       d="m -0.20100413,-0.51517934 h -0.46636439 v 0.29677736 c 0,0 -0.097983,-0.0683221 -0.1695871,-0.11970852 -0.069719,-0.0500336 -0.1385325,-0.0886194 -0.20450208,-0.11970851 -0.078697,-0.0370871 -0.1681198,-0.0690483 -0.2693441,-0.0947692 -0.1016211,-0.0258218 -0.2202969,-0.0399029 -0.3566316,-0.0399029 -0.2510554,0 -0.4638705,0.083131 -0.6384455,0.24939274 -0.1745749,0.16626183 -0.2618623,0.37824565 -0.2618623,0.63595149 0,0.21115252 0.044719,0.38168986 0.134672,0.51125512 0.091273,0.13146603 0.2209915,0.23473706 0.3890528,0.30924696 0.1694507,0.075126 0.3732577,0.1255279 0.6110121,0.1521296 0.2377545,0.026602 0.76563578,0.059854 0.76563578,0.059854 0,0 0,0.048216 0,0.072324 0,0.1064076 -0.019764,0.1941774 -0.05736,0.2643563 -0.037225,0.069487 -0.089834,0.1246047 -0.1596113,0.1645992 -0.066557,0.038148 -0.14631048,0.064011 -0.23941708,0.077312 -0.093107,0.013301 -0.1903697,0.019952 -0.2917894,0.019952 -0.1230339,0 -0.2600274,-0.01742 -0.4114981,-0.049878 -0.15113,-0.032385 -0.3075843,-0.078143 -0.4688583,-0.1396599 h -0.024939 v 0.4763401 c 0,0 0.2236221,0.052372 0.3965344,0.0823 0.1729124,0.029928 0.3433307,0.044891 0.5112552,0.044891 0.196189,0 0.3663883,-0.017594 0.51125508,-0.049878 0.1460978,-0.032559 0.2725632,-0.086601 0.37907692,-0.1645993 0.10463895,-0.076625 0.18455063,-0.1754062 0.23941703,-0.2967773 0.0548665,-0.1213712 0.0822996,-0.2718381 0.0822996,-0.4514009 -2e-8,-0.63013268 -8e-8,-1.89039805 -8e-8,-1.89039805 z m -0.46636439,0.68583003 v 0.77561143 c 0,0 -0.311747,-0.0207119 -0.50626728,-0.0374089 -0.1928698,-0.0165553 -0.3458971,-0.0404756 -0.4588826,-0.0723239 -0.1347452,-0.0379819 -0.2431571,-0.0985218 -0.3267045,-0.17956278 -0.082717,-0.0802351 -0.1246964,-0.1903698 -0.1246964,-0.33169235 0,-0.15961135 0.047806,-0.28063938 0.1446477,-0.36161947 0.096024,-0.08029601 0.2435737,-0.11970852 0.4414252,-0.11970852 0.1645993,0 0.3153844,0.0309078 0.4514009,0.09476924 0.13665618,0.0641618 0.37907698,0.23193524 0.37907698,0.23193525 z"
       sodipodi:nodetypes="cccssssssssscsssssscccsssssscccsssssssc" />
    <path
       inkscape:connector-curvature="0"
       id="path1393"
       style="font-style:normal;font-variant:normal;font-weight:normal;font-stretch:normal;font-size:5.56689739px;line-height:1.25;font-family:sans-serif;-inkscape-font-specification:'sans-serif, Normal';font-variant-ligatures:normal;font-variant-caps:normal;font-variant-numeric:normal;font-feature-settings:normal;text-align:start;letter-spacing:0px;word-spacing:0px;writing-mode:lr-tb;text-anchor:start;fill:#a1a1a1;fill-opacity:1;stroke:none;stroke-width:0.05320379"
       d="m 2.1532635,-0.49024007 c 0,0 -0.1845674,-0.0422795 -0.2892956,-0.0573604 -0.1030992,-0.0148463 -0.1953576,-0.0224453 -0.2768258,-0.0224453 -0.2843078,0 -0.5004482,0.0764805 -0.64842126,0.22944132 -0.147973,0.1529609 -0.22195951,0.3981971 -0.22195951,0.73570861 0,0.49379764 0,1.48139294 0,1.48139294 H 0.40003255 V 2.2705376 H 0.71676133 V 3.0710882 H 1.1856197 V 2.2705376 H 2.1532635 V 1.8764971 H 1.1856197 c 0,0 0,-0.8462728 0,-1.2694091 0,-0.14631042 0.00326,-0.26103645 0.00998,-0.34416199 0.00659,-0.0814737 0.030141,-0.15782956 0.06983,-0.22944132 0.036792,-0.06638624 0.085968,-0.11654813 0.1496356,-0.14714172 0.064369,-0.0309308 0.1629366,-0.0448907 0.2942834,-0.0448907 0.076481,0 0.1564918,0.0100312 0.239417,0.032421 0.083344,0.0225028 0.1400429,0.05736036 0.1795629,0.05736036 h 0.024939 z"
       sodipodi:nodetypes="cssssccccccccccssssssscc" />
    <path
       inkscape:connector-curvature="0"
       id="path1395"
       style="font-style:normal;font-variant:normal;font-weight:normal;font-stretch:normal;font-size:5.56689739px;line-height:1.25;font-family:sans-serif;-inkscape-font-specification:'sans-serif, Normal';font-variant-ligatures:normal;font-variant-caps:normal;font-variant-numeric:normal;font-feature-settings:normal;text-align:start;letter-spacing:0px;word-spacing:0px;writing-mode:lr-tb;text-anchor:start;fill:#a1a1a1;fill-opacity:1;stroke:none;stroke-width:0.05320379"
       d="M 5.051207,-0.51517934 H 4.5823487 c 0,0 0,1.05742523 0,1.58613784 0,0.1280216 -0.00759,0.2477152 -0.022445,0.3591255 -0.015074,0.1130433 -0.04327,0.2006339 -0.0823,0.2643563 -0.042445,0.069299 -0.101721,0.1206714 -0.1795627,0.1546235 -0.078451,0.034218 -0.1795628,0.052373 -0.3042592,0.052373 -0.1280216,0 -0.2618623,-0.03159 -0.4015223,-0.094769 C 3.4525994,1.743488 3.1907371,1.5647566 3.1907371,1.5647566 V -0.51517934 H 2.7218789 V 3.3653717 H 3.1907372 V 1.9612906 c 0,0 0.2976087,0.2161403 0.4538948,0.2843077 0.1562862,0.068168 0.3167288,0.1022511 0.481328,0.1022511 0.3009338,0 0.5303752,-0.090613 0.6883239,-0.2718382 C 4.9722327,1.8947858 5.051207,1.6337547 5.051207,1.292918 c 0,-0.60269912 0,-1.80809734 0,-1.80809734 z"
       sodipodi:nodetypes="ccssssssccccccssssc" />
  </g>
</svg>
