<?xml version="1.0" encoding="UTF-8" standalone="no"?>
<svg
   xmlns:dc="http://purl.org/dc/elements/1.1/"
   xmlns:cc="http://creativecommons.org/ns#"
   xmlns:rdf="http://www.w3.org/1999/02/22-rdf-syntax-ns#"
   xmlns:svg="http://www.w3.org/2000/svg"
   xmlns="http://www.w3.org/2000/svg"
   xmlns:sodipodi="http://sodipodi.sourceforge.net/DTD/sodipodi-0.dtd"
   xmlns:inkscape="http://www.inkscape.org/namespaces/inkscape"
   height="580"
   width="580"
   version="1.0"
   id="svg22813"
   sodipodi:docname="cemetery.svg"
   inkscape:version="0.92.4 (5da689c313, 2019-01-14)">
  <defs
     id="defs22817" />
  <sodipodi:namedview
     pagecolor="#ffffff"
     bordercolor="#666666"
     borderopacity="1"
     objecttolerance="10"
     gridtolerance="10"
     guidetolerance="10"
     inkscape:pageopacity="0"
     inkscape:pageshadow="2"
     inkscape:window-width="1920"
     inkscape:window-height="1017"
     id="namedview22815"
     showgrid="false"
     inkscape:zoom="0.5754386"
     inkscape:cx="209.08585"
     inkscape:cy="454.81556"
     inkscape:window-x="-8"
     inkscape:window-y="-8"
     inkscape:window-maximized="1"
     inkscape:current-layer="svg22813" />
  <metadata
     id="metadata2975">
    <rdf:RDF>
      <cc:Work
         rdf:about="">
        <dc:format>image/svg+xml</dc:format>
        <dc:type
           rdf:resource="http://purl.org/dc/dcmitype/StillImage" />
        <dc:title />
      </cc:Work>
    </rdf:RDF>
  </metadata>
  <g
     id="g1456"
     transform="matrix(0.95790016,0,0,0.95790016,5.9724626,16.888534)">
    <g
       style="fill:#ffffff;fill-opacity:0.87843137"
       id="g874">
      <path
         style="color:#000000;font-style:normal;font-variant:normal;font-weight:normal;font-stretch:normal;font-size:197.39929199px;line-height:1.25;font-family:sans-serif;font-variant-ligatures:normal;font-variant-position:normal;font-variant-caps:normal;font-variant-numeric:normal;font-variant-alternates:normal;font-feature-settings:normal;text-indent:0;text-align:start;text-decoration:none;text-decoration-line:none;text-decoration-style:solid;text-decoration-color:#000000;letter-spacing:0px;word-spacing:0px;text-transform:none;writing-mode:lr-tb;direction:ltr;text-orientation:mixed;dominant-baseline:auto;baseline-shift:baseline;text-anchor:start;white-space:normal;shape-padding:0;clip-rule:nonzero;display:inline;overflow:visible;visibility:visible;opacity:1;isolation:auto;mix-blend-mode:normal;color-interpolation:sRGB;color-interpolation-filters:linearRGB;solid-color:#000000;solid-opacity:1;vector-effect:none;fill:#ffffff;fill-opacity:0.87843137;fill-rule:nonzero;stroke:none;stroke-width:25;stroke-linecap:butt;stroke-linejoin:miter;stroke-miterlimit:4;stroke-dasharray:none;stroke-dashoffset:0;stroke-opacity:1;color-rendering:auto;image-rendering:auto;shape-rendering:auto;text-rendering:auto;enable-background:accumulate"
         d="m 82.884766,183.37109 c -12.228166,0 -23.749779,1.91514 -34.314454,5.90625 l -0.01367,0.004 -0.01563,0.006 c -10.477051,3.98752 -19.758612,9.95166 -27.38086,17.73437 -7.872204,8.03348 -13.835813,17.87121 -17.8359372,29.0254 -4.0335258,11.24733 -5.9335938,23.67399 -5.9335938,37.11718 0,14.09207 1.95455423,26.93835 6.1679688,38.40821 l 0.00391,0.0117 0.00391,0.0137 c 4.1297399,11.16559 10.0894172,20.88594 17.9316412,28.64648 7.824721,7.74456 17.206487,13.5684 27.675781,17.2168 l 0.05469,0.0195 0.05273,0.0176 c 10.325446,3.49357 21.547393,5.16015 33.503906,5.16015 6.373304,0 12.370149,-0.51618 18.013672,-1.62109 5.20303,-0.94307 10.1037,-2.11291 14.70117,-3.54492 l 0.043,-0.0137 0.043,-0.0137 c 5.14697,-1.64417 9.45561,-3.24799 13.17968,-5.02539 l -0.0977,0.0469 c 2.88491,-1.3463 6.12606,-2.80594 9.71289,-4.3711 l 7.57617,-3.30664 -0.0762,-8.26562 -0.43555,-46.89063 -19.79492,14.92188 c -2.45379,1.84978 -15.23052,9.4391 -21.62891,11.94726 -6.824712,2.67529 -14.131513,4.03711 -22.236322,4.03711 -5.498675,0 -10.521834,-0.90304 -15.349609,-2.68945 -4.46038,-1.73757 -8.21423,-4.25273 -11.65625,-7.88867 l -0.002,-0.004 c -3.103331,-3.28951 -5.983846,-7.9187 -8.388672,-14.22656 -2.129341,-5.75384 -3.398438,-13.26325 -3.398438,-22.58594 0,-8.93078 1.144712,-16.38157 3.152344,-22.41601 2.141222,-6.29986 4.906629,-10.99368 8.134766,-14.50586 l 0.0039,-0.004 c 3.605505,-3.90909 7.351789,-6.48524 11.548828,-8.16406 l 0.0332,-0.0137 0.03125,-0.0117 c 4.393848,-1.78651 9.522997,-2.7793 15.691407,-2.7793 7.780158,0 14.800123,1.2992 21.371096,3.85156 6.23134,2.42044 19.24183,9.77767 22.48047,12.07032 l 18.95312,13.41797 1.7461,-53.23829 -7.16602,-3.58203 c -10.36127,-5.18064 -20.03962,-8.94183 -29.23828,-11.16601 -8.86795,-2.16015 -17.845303,-3.25196 -26.847658,-3.25196 z m -26.339844,21.49219 c -0.0068,0.003 -0.01277,0.007 -0.01953,0.01 -0.01522,0.006 -0.03166,0.009 -0.04688,0.0156 z"
         id="path8302-6"
         inkscape:connector-curvature="0" />
      <path
         style="color:#000000;font-style:normal;font-variant:normal;font-weight:normal;font-stretch:normal;font-size:197.39929199px;line-height:1.25;font-family:sans-serif;font-variant-ligatures:normal;font-variant-position:normal;font-variant-caps:normal;font-variant-numeric:normal;font-variant-alternates:normal;font-feature-settings:normal;text-indent:0;text-align:start;text-decoration:none;text-decoration-line:none;text-decoration-style:solid;text-decoration-color:#000000;letter-spacing:0px;word-spacing:0px;text-transform:none;writing-mode:lr-tb;direction:ltr;text-orientation:mixed;dominant-baseline:auto;baseline-shift:baseline;text-anchor:start;white-space:normal;shape-padding:0;clip-rule:nonzero;display:inline;overflow:visible;visibility:visible;opacity:1;isolation:auto;mix-blend-mode:normal;color-interpolation:sRGB;color-interpolation-filters:linearRGB;solid-color:#000000;solid-opacity:1;vector-effect:none;fill:#ffffff;fill-opacity:0.87843137;fill-rule:nonzero;stroke:none;stroke-width:25;stroke-linecap:butt;stroke-linejoin:miter;stroke-miterlimit:4;stroke-dasharray:none;stroke-dashoffset:0;stroke-opacity:1;color-rendering:auto;image-rendering:auto;shape-rendering:auto;text-rendering:auto;enable-background:accumulate"
         d="m 206.47461,220.16797 c -19.01412,0 -36.23926,6.8702 -48.54297,20.07617 l -0.0137,0.0156 -0.0137,0.0156 c -12.33353,13.32687 -18.22461,31.45551 -18.22461,51.98633 0,20.81212 6.26268,39.05699 19.40625,51.7793 l 0.0137,0.0137 0.0156,0.0137 c 13.07291,12.5701 31.27999,18.49023 52.06055,18.49023 8.29978,0 16.36501,-1.03687 24.08594,-3.14257 7.13173,-1.94503 14.1237,-4.35945 20.96094,-7.23829 l 7.81836,-3.29101 -0.86914,-42.82422 h 2.90039 v -22.69922 c 0,-18.29903 -4.84412,-34.40326 -15.64063,-46 -10.74402,-11.61063 -26.46857,-17.19531 -43.95703,-17.19531 z m -1.08789,40.54101 c 8.47541,0.52963 11.84555,2.55569 13.7539,4.73438 0.29027,0.33138 0.54713,0.80012 0.81641,1.2207 h -31.52539 c 0.32277,-0.4288 0.63773,-0.9206 0.97266,-1.25195 2.27844,-2.25412 6.27642,-4.22787 15.98242,-4.70313 z m -19.64063,45.35352 h 65.17188 l -7.02344,4.82812 c 0.6167,-0.42396 -1.89141,1.0616 -4.67383,2.36524 -2.7678,1.29679 -6.3006,2.83398 -9.90234,4.26367 -0.003,0.001 -0.007,6.1e-4 -0.01,0.002 -6.35567,2.48577 -12.38065,3.63672 -18.33398,3.63672 -4.56304,0 -8.4478,-0.62911 -11.82422,-1.75195 -3.20041,-1.08586 -5.65588,-2.55675 -7.79492,-4.53125 l -0.0391,-0.0352 -0.0391,-0.0371 c -2.09131,-1.89767 -3.84951,-4.36448 -5.31054,-7.93554 -0.093,-0.23157 -0.13262,-0.56319 -0.22071,-0.80469 z"
         id="path866"
         inkscape:connector-curvature="0" />
      <path
         style="color:#000000;font-style:normal;font-variant:normal;font-weight:normal;font-stretch:normal;font-size:197.39929199px;line-height:1.25;font-family:sans-serif;font-variant-ligatures:normal;font-variant-position:normal;font-variant-caps:normal;font-variant-numeric:normal;font-variant-alternates:normal;font-feature-settings:normal;text-indent:0;text-align:start;text-decoration:none;text-decoration-line:none;text-decoration-style:solid;text-decoration-color:#000000;letter-spacing:0px;word-spacing:0px;text-transform:none;writing-mode:lr-tb;direction:ltr;text-orientation:mixed;dominant-baseline:auto;baseline-shift:baseline;text-anchor:start;white-space:normal;shape-padding:0;clip-rule:nonzero;display:inline;overflow:visible;visibility:visible;opacity:1;isolation:auto;mix-blend-mode:normal;color-interpolation:sRGB;color-interpolation-filters:linearRGB;solid-color:#000000;solid-opacity:1;vector-effect:none;fill:#ffffff;fill-opacity:0.87843137;fill-rule:nonzero;stroke:none;stroke-width:25;stroke-linecap:butt;stroke-linejoin:miter;stroke-miterlimit:4;stroke-dasharray:none;stroke-dashoffset:0;stroke-opacity:1;color-rendering:auto;image-rendering:auto;shape-rendering:auto;text-rendering:auto;enable-background:accumulate"
         d="m 338.03516,220.15625 c -8.45028,-0.0159 -16.86604,1.90466 -24.47266,5.07031 l -0.19531,0.082 v -2.04101 H 269.56836 V 359.957 h 43.79883 v -89.39062 c 2.82737,-1.88696 5.62345,-3.59615 8.34765,-4.94532 5.11812,-2.42892 11.89009,-3.14124 17,-1.44336 0.52814,0.43907 1.94492,2.4561 2.28907,6.69727 l 0.0137,0.1543 0.0156,0.15429 c 0.41496,3.9124 0.63086,8.14092 0.63086,12.67969 V 359.957 h 43.79688 v -12.5 c 0,-25.09398 0.74941,-51.01032 -0.4375,-76.59765 2.90355,-1.94369 5.77427,-3.70562 8.57031,-5.08594 l 0.0137,-0.006 0.0137,-0.006 c 5.02305,-2.49478 11.89872,-3.27346 17.04688,-1.61719 0.71099,0.58572 2.09719,2.6462 2.42969,6.81445 l 0.0117,0.15235 0.0156,0.15234 c 0.41854,4.00606 0.63281,8.20509 0.63281,12.59961 v 76.09375 h 43.79883 v -12.5 -72.49219 c 0,-15.16556 -3.36914,-28.59993 -11.50586,-38.86328 l -0.0371,-0.0488 -0.0371,-0.0469 c -7.63612,-9.4419 -18.8144,-13.73448 -29.74804,-15.03516 -10.93365,-1.30068 -22.12152,0.2459 -32.08008,4.50196 l -0.0938,0.041 -0.0938,0.041 c -4.34879,1.94307 -8.71095,4.572 -13.125,7.60351 -2.43283,-2.42102 -5.07819,-4.63245 -8.04102,-6.41015 l -0.0371,-0.0215 -0.0351,-0.0215 c -7.75184,-4.58135 -16.23723,-6.53293 -24.6875,-6.54883 z m 99.95507,48.50977 0.0274,0.30468 c -0.003,-0.034 -0.0148,-0.0714 -0.0176,-0.10547 -0.007,-0.0646 -0.003,-0.13464 -0.01,-0.19921 z"
         id="path8306-0"
         inkscape:connector-curvature="0" />
      <path
         style="color:#000000;font-style:normal;font-variant:normal;font-weight:normal;font-stretch:normal;font-size:197.39929199px;line-height:1.25;font-family:sans-serif;font-variant-ligatures:normal;font-variant-position:normal;font-variant-caps:normal;font-variant-numeric:normal;font-variant-alternates:normal;font-feature-settings:normal;text-indent:0;text-align:start;text-decoration:none;text-decoration-line:none;text-decoration-style:solid;text-decoration-color:#000000;letter-spacing:0px;word-spacing:0px;text-transform:none;writing-mode:lr-tb;direction:ltr;text-orientation:mixed;dominant-baseline:auto;baseline-shift:baseline;text-anchor:start;white-space:normal;shape-padding:0;clip-rule:nonzero;display:inline;overflow:visible;visibility:visible;opacity:1;isolation:auto;mix-blend-mode:normal;color-interpolation:sRGB;color-interpolation-filters:linearRGB;solid-color:#000000;solid-opacity:1;vector-effect:none;fill:#ffffff;fill-opacity:0.87843137;fill-rule:nonzero;stroke:none;stroke-width:25;stroke-linecap:butt;stroke-linejoin:miter;stroke-miterlimit:4;stroke-dasharray:none;stroke-dashoffset:0;stroke-opacity:1;color-rendering:auto;image-rendering:auto;shape-rendering:auto;text-rendering:auto;enable-background:accumulate"
         d="m 448.07031,223.26758 49.66211,118.63086 -26.44922,59.25586 h 47.625 L 594.76367,223.26758 H 575.8457 547.82227 l -26.22266,62.75195 -25.99609,-62.75195 z"
         id="path8308-9"
         inkscape:connector-curvature="0" />
    </g>
    <g
       id="g848">
      <path
         inkscape:connector-curvature="0"
         id="path8302"
         style="font-style:normal;font-weight:normal;font-size:197.39929199px;line-height:1.25;font-family:sans-serif;letter-spacing:0px;word-spacing:0px;fill:#000000;fill-opacity:1;stroke:none;stroke-width:5.11957884"
         d="m 133.3814,336.6588 c -3.66637,1.59987 -6.99943,3.09975 -9.99918,4.49964 -2.93309,1.39988 -6.79944,2.86642 -11.59905,4.39963 -4.06633,1.26657 -8.49929,2.33315 -13.298901,3.19975 -4.732945,0.93325 -9.965848,1.39987 -15.698709,1.39987 -10.799111,0 -20.631636,-1.49987 -29.497573,-4.49962 -8.799276,-3.06642 -16.465312,-7.83269 -22.998108,-14.29882 -6.399473,-6.33282 -11.399062,-14.36549 -14.998766,-24.09802 -3.599704,-9.7992 -5.3995555,-21.16493 -5.3995555,-34.0972 0,-12.26566 1.7331905,-23.23142 5.1995715,-32.89729 3.466382,-9.66587 8.465971,-17.83187 14.998766,-24.49799 6.332813,-6.46613 13.965518,-11.39906 22.898117,-14.79877 8.999259,-3.39973 18.965106,-5.09959 29.89754,-5.09959 7.999341,0 15.965351,0.96659 23.898028,2.89977 7.99935,1.93317 16.86529,5.33289 26.59782,10.19916 l -0.72232,22.02004 c -4.8496,-3.43305 -17.10955,-10.38767 -25.17555,-13.52074 -8.066005,-3.13308 -16.698628,-4.69962 -25.897871,-4.69962 -7.532714,0 -14.332155,1.23323 -20.398322,3.69969 -5.999506,2.39981 -11.365731,6.16616 -16.098676,11.29907 -4.599621,4.99959 -8.199324,11.33241 -10.799111,18.99844 -2.533125,7.59937 -3.799687,16.39865 -3.799687,26.39783 0,10.46581 1.399885,19.46507 4.199655,26.99778 2.866431,7.53271 6.532796,13.66554 10.999095,18.39849 4.666283,4.93292 10.099169,8.59928 16.298658,10.99909 6.266151,2.33314 12.865608,3.49971 19.798371,3.49971 9.532549,0 18.465148,-1.6332 26.797798,-4.8996 8.33265,-3.26639 20.25929,-10.33824 24.59227,-13.60464 z"
         sodipodi:nodetypes="ccccscccssccscccsscccscccsscc" />
      <path
         style="font-style:normal;font-weight:normal;font-size:197.39929199px;line-height:1.25;font-family:sans-serif;letter-spacing:0px;word-spacing:0px;fill:#000000;fill-opacity:1;stroke:none;stroke-width:5.11957884"
         d="m 206.47461,232.66797 c -16.26533,0 -29.39731,5.3652 -39.39649,16.09765 -9.93251,10.73246 -14.89843,25.23094 -14.89843,43.4961 0,18.46515 5.20047,32.73103 15.59961,42.79687 10.39915,9.99918 24.86467,15 43.39648,15 7.26607,0 14.19743,-0.90132 20.79688,-2.70117 6.59946,-1.79986 13.06562,-4.03278 19.39843,-6.69922 l -0.39453,-19.46679 c -2.13316,1.46654 -9.37081,4.90233 -17.10351,7.96875 -7.66603,2.99975 -15.29907,4.49804 -22.89844,4.49804 -5.73287,0 -10.99922,-0.79856 -15.79883,-2.39843 -4.73294,-1.59987 -8.83245,-3.99948 -12.29883,-7.19922 -3.5997,-3.26639 -6.43154,-7.43375 -8.49804,-12.5 -2.06649,-5.13291 -3.10157,-11.13196 -3.10157,-17.99805 h 82.29493 v -10.19922 c 0,-16.19867 -4.0995,-28.69682 -12.29883,-37.49609 -8.13265,-8.79927 -19.7334,-13.19922 -34.79883,-13.19922 z m -1,15.49805 c 22.08274,1.14486 29.49918,12.63371 29.79883,30.99804 h -63.9961 c 3.11027,-20.0023 10.38477,-30.03313 34.19727,-30.99804 z"
         id="path8331"
         inkscape:connector-curvature="0"
         sodipodi:nodetypes="scscsccccscccccscscccc" />
      <path
         inkscape:connector-curvature="0"
         id="path8306"
         style="font-style:normal;font-weight:normal;font-size:197.39929199px;line-height:1.25;font-family:sans-serif;letter-spacing:0px;word-spacing:0px;fill:#000000;fill-opacity:1;stroke:none;stroke-width:5.11957884"
         d="M 445.05576,347.45792 H 426.2573 v -63.59477 c 0,-4.79961 -0.23331,-9.43256 -0.69993,-13.89886 -0.56655,-7.10239 -3.3392,-14.06591 -9.29924,-17.19858 -9.32603,-3.71716 -20.04336,-2.25013 -28.19768,1.79985 -5.26624,2.59979 -10.53247,5.93285 -15.7987,9.99918 1.67905,27.02504 0.69995,55.19527 0.69995,82.89318 h -18.79846 v -63.59477 c 0,-4.93293 -0.23332,-9.59921 -0.69995,-13.99884 -0.57251,-7.05542 -3.29203,-14.07939 -9.29923,-17.0986 -9.22997,-3.6705 -19.7615,-2.28923 -27.89771,1.59987 -5.13291,2.53312 -10.26582,5.76619 -15.39873,9.6992 v 83.39314 H 282.06917 V 235.7671 h 18.79845 v 12.39898 c 5.86619,-4.86626 11.69904,-8.66594 17.49857,-11.39905 12.27923,-5.11026 27.05598,-5.76614 37.99687,0.69994 5.33289,3.19974 9.29923,7.63271 11.89902,13.2989 7.59937,-6.39947 14.53214,-10.99909 20.79829,-13.79886 15.42222,-6.5911 37.35681,-5.26666 47.19611,6.89943 5.86619,7.39939 8.79928,17.76521 8.79928,31.09744 z"
         sodipodi:nodetypes="scsccccccscccccccccccccscs" />
      <path
         inkscape:connector-curvature="0"
         id="path8308"
         style="font-style:normal;font-weight:normal;font-size:197.39929199px;line-height:1.25;font-family:sans-serif;letter-spacing:0px;word-spacing:0px;fill:#000000;fill-opacity:1;stroke:none;stroke-width:5.11957884"
         d="M 575.84498,235.7671 510.65035,388.65453 H 490.55201 L 511.35029,342.05836 466.85396,235.7671 h 20.39832 l 34.29717,82.7932 34.59716,-82.7932 z" />
    </g>
    <path
       id="path839"
       d="m 174.39844,333.24609 c 0.0126,0.0116 0.0265,0.0216 0.0391,0.0332 0.0136,0.0124 0.0254,0.0267 0.0391,0.0391 z"
       style="color:#000000;font-style:normal;font-variant:normal;font-weight:normal;font-stretch:normal;font-size:197.39929199px;line-height:1.25;font-family:sans-serif;font-variant-ligatures:normal;font-variant-position:normal;font-variant-caps:normal;font-variant-numeric:normal;font-variant-alternates:normal;font-feature-settings:normal;text-indent:0;text-align:start;text-decoration:none;text-decoration-line:none;text-decoration-style:solid;text-decoration-color:#000000;letter-spacing:0px;word-spacing:0px;text-transform:none;writing-mode:lr-tb;direction:ltr;text-orientation:mixed;dominant-baseline:auto;baseline-shift:baseline;text-anchor:start;white-space:normal;shape-padding:0;clip-rule:nonzero;display:inline;overflow:visible;visibility:visible;opacity:1;isolation:auto;mix-blend-mode:normal;color-interpolation:sRGB;color-interpolation-filters:linearRGB;solid-color:#000000;solid-opacity:1;vector-effect:none;fill:#9a1010;fill-opacity:1;fill-rule:nonzero;stroke:none;stroke-width:25;stroke-linecap:butt;stroke-linejoin:miter;stroke-miterlimit:4;stroke-dasharray:none;stroke-dashoffset:0;stroke-opacity:1;color-rendering:auto;image-rendering:auto;shape-rendering:auto;text-rendering:auto;enable-background:accumulate"
       inkscape:connector-curvature="0" />
  </g>
</svg>
