<?xml version="1.0" encoding="UTF-8" standalone="no"?>
<svg xmlns="http://www.w3.org/2000/svg" width="580" height="580" version="1.1">
 <metadata id="metadata3003"/>
 <g transform="translate(0,-472.36218)" id="layer1">
  <path id="rect3987" d="m 442.44,473.02 c 10.09,0 20.18,0 30.27,0 -60.56,126.23 -121.11,252.47 -181.67,378.7 -10.09,0 -20.18,0 -30.27,0 60.56,-126.23 121.11,-252.47 181.67,-378.7 z"/>
  <path id="path3879" d="m 306.56,605.56 c 0.76,40.55 -51.76,63.32 -83.49,40.94 -29.02,-16.14 -30.94,-61.58 -3.04,-79.79 31.84,-25.1 86.85,-3.92 86.53,38.85 z"/>
  <path id="path15" d="m 131.98,655.16 c -21.74,-0.49 -24.61,23.64 -18.98,39.48 12.5,64.53 24.22,129.23 37.21,193.66 12.41,48.39 63.14,79.26 111.74,75.51 24.39,-0.51 48.97,1.45 73.22,-0.81 29.32,-6.31 14.51,-48.2 -12.24,-40.9 -28.29,-0.83 -56.82,1.54 -84.91,-2.23 -27.01,-5.58 -45.52,-30.54 -47.75,-57.21 -12.61,-63.97 -24.24,-128.16 -37.46,-191.99 -2.89,-8.85 -11.39,-15.6 -20.83,-15.51 z"/>
  <path id="path3808" d="m 261.25,669.2 c -27.59,-1.63 -52.38,26.51 -43.81,53.3 7.66,40.72 14.56,81.87 22.7,122.32 6.34,23.37 32.03,33.27 54.26,30.85 34.26,0 68.52,0 102.78,0 0,41.61 0,83.22 0,124.83 1.25,27.9 48.76,24.3 45.32,-3.57 -0.12,-51.79 0.23,-103.61 -0.18,-155.4 -2.1,-20.68 -24.43,-30.26 -43,-27.8 -24.41,0 -48.82,0 -73.23,0 C 318.96,775.89 312.63,737.59 305,700.05 299.71,681.19 280.37,668.92 261.25,669.2 Z"/>
 </g>
</svg>
