<?xml version="1.0" encoding="UTF-8" standalone="no"?>
<svg
   xmlns:dc="http://purl.org/dc/elements/1.1/"
   xmlns:cc="http://creativecommons.org/ns#"
   xmlns:rdf="http://www.w3.org/1999/02/22-rdf-syntax-ns#"
   xmlns:svg="http://www.w3.org/2000/svg"
   xmlns="http://www.w3.org/2000/svg"
   xmlns:sodipodi="http://sodipodi.sourceforge.net/DTD/sodipodi-0.dtd"
   xmlns:inkscape="http://www.inkscape.org/namespaces/inkscape"
   height="580"
   width="580"
   version="1.0"
   id="svg4521"
   sodipodi:docname="charging_station.svg"
   inkscape:version="0.92.4 (5da689c313, 2019-01-14)">
  <defs
     id="defs4525" />
  <sodipodi:namedview
     pagecolor="#ffffff"
     bordercolor="#666666"
     borderopacity="1"
     objecttolerance="10"
     gridtolerance="10"
     guidetolerance="10"
     inkscape:pageopacity="0"
     inkscape:pageshadow="2"
     inkscape:window-width="1920"
     inkscape:window-height="1017"
     id="namedview4523"
     showgrid="false"
     inkscape:zoom="2.924138"
     inkscape:cx="287.99307"
     inkscape:cy="311.82954"
     inkscape:window-x="-8"
     inkscape:window-y="-8"
     inkscape:window-maximized="1"
     inkscape:current-layer="svg4521" />
  <metadata
     id="metadata10">
    <rdf:RDF>
      <cc:Work
         rdf:about="">
        <dc:format>image/svg+xml</dc:format>
        <dc:type
           rdf:resource="http://purl.org/dc/dcmitype/StillImage" />
        <dc:title />
      </cc:Work>
    </rdf:RDF>
  </metadata>
  <path
     style="fill:#0098e3;fill-opacity:0.78431373;fill-rule:nonzero"
     d="M 35.773438 33.566406 L 35.773438 547.90625 L 550.11328 547.90625 L 550.11328 33.566406 L 35.773438 33.566406 z M 197.72852 78.306641 L 283.26758 78.306641 C 313.51256 78.306641 337.86133 102.6554 337.86133 132.90039 L 337.86133 143.97461 C 345.51494 143.64568 353.69997 143.77766 360.62109 144.41211 C 376.95099 145.90904 397.42103 150.03616 412.41602 164.6543 C 427.22402 179.09015 431.92409 198.75144 433.72852 214.30078 C 434.77516 223.32007 434.73451 231.2566 434.52344 236.4082 C 459.22775 242.89351 477.57422 268.44135 477.57422 299.16992 L 477.57422 304.89844 L 451.57422 304.89844 L 451.57422 341.11328 C 451.57422 345.85519 447.81613 349.73438 443.07422 349.73438 C 438.33231 349.73438 434.57422 345.85519 434.57422 341.11328 L 434.57422 304.89844 L 408.82812 304.89844 L 408.82812 341.11328 C 408.82812 345.85519 405.07004 349.73438 400.32812 349.73438 C 395.58621 349.73438 391.82812 345.85519 391.82812 341.11328 L 391.82812 304.89844 L 366.80273 304.89844 L 366.80273 299.16992 C 366.80273 268.5841 384.98088 243.13134 409.51172 236.5 C 409.71896 232.59575 409.86216 225.50329 408.89648 217.18164 C 407.43504 204.58793 403.12287 190.50965 394.96484 182.55664 C 386.9938 174.78592 371.86078 170.55407 358.32422 169.30664 C 349.69276 168.51123 337.86133 169.00195 337.86133 169.00195 L 337.86133 410.71289 L 337.86133 448.57227 L 337.86133 461.24414 L 356.16211 461.24414 C 365.85007 461.24414 373.65234 469.04251 373.65234 478.73047 L 373.65234 485.67773 C 373.65234 495.36569 365.85007 503.16602 356.16211 503.16602 L 337.86133 503.16602 L 143.13477 503.16602 L 125.79883 503.16602 C 116.11088 503.16602 108.31055 495.36569 108.31055 485.67773 L 108.31055 478.73047 C 108.31055 469.04251 116.11088 461.24414 125.79883 461.24414 L 143.13477 461.24414 L 143.13477 448.57227 L 143.13477 410.71289 L 143.13477 132.90039 C 143.13477 102.6554 167.48354 78.306641 197.72852 78.306641 z M 200.77734 116.65234 C 186.57662 116.65234 175.14062 128.08445 175.14062 142.28516 L 175.14062 279.37891 C 175.14062 293.57963 186.57662 305.01172 200.77734 305.01172 L 279.42969 305.01172 C 293.63041 305.01172 305.06445 293.57963 305.06445 279.37891 L 305.06445 142.28516 C 305.06445 128.08445 293.63041 116.65234 279.42969 116.65234 L 200.77734 116.65234 z M 229.70508 155.69727 L 250.98438 155.69727 L 250.98438 189.31055 L 284.59766 189.31055 L 284.59766 210.58984 L 250.98438 210.58984 L 250.98438 244.20312 L 229.70508 244.20312 L 229.70508 210.58984 L 196.0918 210.58984 L 196.0918 189.31055 L 229.70508 189.31055 L 229.70508 155.69727 z M 196.0918 381.3125 L 196.0918 402.59375 L 284.59766 402.59375 L 284.59766 381.3125 L 196.0918 381.3125 z "
     id="rect956" />
  <path
     style="fill:#f8f8f8;fill-opacity:0.78431373;fill-rule:nonzero"
     d="m 197.72852,78.306641 c -31.51384,-1.011288 -58.08302,29.195479 -54.59375,60.222789 0,107.57157 0,215.14314 0,322.71471 -11.77239,0.45538 -27.79235,-3.13655 -33.45404,10.66701 -4.89004,13.19589 1.10654,33.38015 18.36972,31.25487 76.03722,0 152.07444,0 228.11166,0 18.46398,0.25278 22.41798,-25.38586 12.37804,-36.81168 -8.33042,-7.90319 -20.37212,-4.27559 -30.67882,-5.1102 0,-97.41406 0,-194.82813 0,-292.24219 22.96106,-0.69738 53.54508,0.70879 64.71129,24.68462 4.31951,12.7931 12.7271,34.91631 2.99769,44.24691 -26.54223,10.25983 -41.25593,39.35286 -38.76758,66.96496 8.3418,0 16.68359,0 25.02539,0 0.4087,13.16904 -0.83903,26.50013 0.6613,39.56238 11.82001,14.88685 19.23088,-6.03802 16.3387,-16.85724 0,-7.56838 0,-15.13676 0,-22.70514 8.58203,0 17.16407,0 25.7461,0 0.4087,13.16904 -0.83903,26.50013 0.6613,39.56238 11.82001,14.88685 19.23088,-6.03802 16.3387,-16.85724 0,-7.56838 0,-15.13676 0,-22.70514 8.66667,0 17.33333,0 26,0 2.39094,-27.69266 -11.81409,-57.53217 -39.07783,-67.17775 -9.22981,-12.66428 -1.67943,-39.23795 -13.30532,-55.11398 -14.30482,-32.03911 -52.62907,-40.23429 -84.43823,-38.73376 -6.89937,-4.75449 0.10878,-23.4098 -7.16858,-32.26244 -9.18825,-23.416618 -35.05531,-35.924297 -59.32315,-33.303869 -25.51086,0 -51.02173,0 -76.53259,0 z m 3.04882,38.345699 c 27.93424,0.32171 55.95044,-0.65891 83.831,0.51896 15.35593,2.57846 22.42804,18.85953 20.45611,32.99452 -0.0873,43.94597 0.17506,87.9007 -0.13188,131.84117 -1.10536,16.55 -18.35181,25.32607 -33.38354,23.00473 -25.30763,-0.31743 -50.6964,0.65299 -75.95045,-0.51896 -15.35613,-2.57824 -22.43028,-18.85885 -20.45796,-32.99451 0.0873,-43.94597 -0.17509,-87.9007 0.1319,-131.84116 1.03923,-12.76774 12.69534,-23.27629 25.50482,-23.00475 z m 28.92774,39.04493 c 0,11.20443 0,22.40885 0,33.61328 -11.20443,0 -22.40885,0 -33.61328,0 0,7.0931 0,14.18619 0,21.27929 11.20443,0 22.40885,0 33.61328,0 0,11.20443 0,22.40885 0,33.61328 7.0931,0 14.1862,0 21.2793,0 0,-11.20443 0,-22.40885 0,-33.61328 11.20443,0 22.40885,0 33.61328,0 0,-7.0931 0,-14.18619 0,-21.27929 -11.20443,0 -22.40885,0 -33.61328,0 0,-11.20443 0,-22.40885 0,-33.61328 -7.0931,0 -14.1862,0 -21.2793,0 z M 196.0918,381.3125 c 29.50195,0 59.00391,0 88.50586,0 0,7.09375 0,14.1875 0,21.28125 -29.50195,0 -59.00391,0 -88.50586,0 0,-7.09375 0,-14.1875 0,-21.28125 z"
     id="path885"
     inkscape:connector-curvature="0" />
</svg>
