<?xml version="1.0" encoding="UTF-8" standalone="no"?>
<svg
   xmlns:dc="http://purl.org/dc/elements/1.1/"
   xmlns:cc="http://creativecommons.org/ns#"
   xmlns:rdf="http://www.w3.org/1999/02/22-rdf-syntax-ns#"
   xmlns:svg="http://www.w3.org/2000/svg"
   xmlns="http://www.w3.org/2000/svg"
   xmlns:sodipodi="http://sodipodi.sourceforge.net/DTD/sodipodi-0.dtd"
   xmlns:inkscape="http://www.inkscape.org/namespaces/inkscape"
   height="580"
   width="580"
   version="1.0"
   id="svg827"
   sodipodi:docname="climbing.svg"
   inkscape:version="0.92.4 (5da689c313, 2019-01-14)">
  <defs
     id="defs831" />
  <sodipodi:namedview
     pagecolor="#ffffff"
     bordercolor="#666666"
     borderopacity="1"
     objecttolerance="10"
     gridtolerance="10"
     guidetolerance="10"
     inkscape:pageopacity="0"
     inkscape:pageshadow="2"
     inkscape:window-width="1920"
     inkscape:window-height="1017"
     id="namedview829"
     showgrid="false"
     inkscape:zoom="0.25845972"
     inkscape:cx="-1092.3073"
     inkscape:cy="407.65966"
     inkscape:window-x="-8"
     inkscape:window-y="-8"
     inkscape:window-maximized="1"
     inkscape:current-layer="svg827" />
  <metadata
     id="metadata2975">
    <rdf:RDF>
      <cc:Work
         rdf:about="">
        <dc:format>image/svg+xml</dc:format>
        <dc:type
           rdf:resource="http://purl.org/dc/dcmitype/StillImage" />
        <dc:title></dc:title>
      </cc:Work>
    </rdf:RDF>
  </metadata>
  <path
     style="fill:#0098e3;stroke-width:0.35280073;fill-opacity:0.78431374"
     d="m 322.73922,562.18932 c -2.25204,-0.8657 -4.60487,-3.08542 -5.76112,-5.43517 l -0.86527,-1.75843 c -1.83899,-58.02982 0.15589,-106.96754 -0.79731,-174.36597 -8.10107,4.15565 -20.38727,4.67279 -41.51257,5.10769 -12.29936,26.06004 -38.82662,39.4534 -55.12291,60.65399 -4.20592,17.11838 -7.80543,20.41655 -16.35623,36.3322 -8.55081,15.91565 -20.16013,44.86336 -23.46953,51.55775 -10.145,16.03695 -4.31204,26.35173 -7.2406,33.75322 -2.92856,7.40149 -7.80586,7.14567 -12.00031,6.01044 -11.73642,-3.17646 -26.2034,-5.39039 -37.67866,-6.52822 -8.24472,-0.81751 -22.297546,-0.43122 -22.127806,-5.07642 -1.6e-4,-4.15137 -0.0476,-7.09543 12.615426,-9.00609 27.28628,-5.53307 32.32253,-11.84861 36.29843,-23.74662 3.64181,-10.89821 20.03879,-67.5069 26.46771,-98.03795 14.39544,-27.78219 26.39472,-44.19219 47.43358,-93.67643 1.05188,-2.47406 3.06811,-7.45878 3.06811,-7.45878 19.31842,0.95715 33.73383,-0.99316 58.52304,-7.8524 20.81168,-5.27591 43.82962,-13.50668 57.40717,-20.93518 9.57077,-5.23632 19.19665,-12.96503 30.32494,-24.34819 6.16311,-6.30425 8.37492,-7.84558 14.12,-9.83975 3.65629,-1.26914 9.07696,-1.69352 12.37516,-0.96882 4.44472,0.97662 9.9229,4.9738 13.25761,9.67348 1.74886,2.46471 4.41505,7.67001 5.26068,10.2707 0.31547,0.97021 4.07387,24.14921 8.352,51.50891 4.27813,27.35969 8.48747,54.26957 9.35408,59.79972 3.38687,14.93591 4.93114,23.99194 36.59579,20.18034 11.63452,0.98307 9.3572,3.61379 10.64875,8.58464 0.0176,6.04016 -22.41463,11.0782 -29.17063,14.58395 -6.756,3.50575 -14.55331,6.31861 -17.72145,8.62744 -6.30479,4.59471 -15.29651,5.9658 -17.99838,4.63861 -9.63547,-11.52944 -2.21917,-18.58639 -6.89283,-34.42823 -8.23955,-27.92878 -14.66872,-53.57929 -28.68684,-78.16494 0,0 -29.65926,28.55856 -43.95477,31.10574 -1.74508,59.0951 -0.20364,181.69237 -0.20364,181.69237 l -0.8403,1.85929 c -2.33994,5.17749 -8.44017,7.70958 -13.70135,5.68711 z"
     id="path4583"
     inkscape:connector-curvature="0"
     sodipodi:nodetypes="cccccczczssccscsccsccsssscccsscscccccc" />
  <circle
     style="opacity:1;fill:#0098e3;fill-opacity:0.78431374;stroke:none;stroke-width:69.69893646;stroke-linecap:round;stroke-linejoin:round;stroke-miterlimit:4;stroke-dasharray:none;stroke-opacity:1;paint-order:stroke fill markers"
     id="path4575"
     cx="253.54245"
     cy="92.863213"
     r="38.985847" />
  <path
     style="fill:#0098e3;stroke-width:0.35280073;fill-opacity:0.78431374"
     d="m 212.16766,212.95543 c 0,0 -35.93579,19.46965 -59.17333,26.11571 -3.40267,1.03353 -6.57174,1.33483 -8.91995,-0.57941 -17.98096,-14.65789 -33.19531,-35.93289 -42.69066,-52.34916 -9.184256,-15.87843 -21.925916,-36.17214 -31.677696,-44.76583 -3.39219,-2.98934 -8.70284,-12.61237 -5.67068,-17.7673 1.63823,-2.78513 7.21937,-4.26815 11.46862,-6.21784 4.24925,-1.94968 15.54824,-10.18994 17.56096,13.44676 12.328096,18.97473 43.822576,38.27035 61.112376,58.56161 0,0 34.57875,-20.41188 53.01288,-27.91743 7.08317,-2.81635 12.36253,-3.82047 21.60447,-4.10912 7.7109,-0.24084 11.57706,-0.48933 19.55495,-1.96064 22.49105,-4.14786 41.71167,-8.54286 62.27656,-13.4983 0,0 25.28469,-38.6879 43.83192,-60.47407 26.94248,-31.6475 34.5321,-41.92273 33.18912,-60.16061 -1.12717,-15.3072504 21.3541,-12.8148104 29.08149,-7.54654 4.62705,3.15457 4.48319,5.57528 3.67549,10.82659 -0.66489,4.32282 -9.21131,14.10447 -13.18785,21.51783 -19.37151,36.11381 -21.02704,60.17846 -51.79307,111.50176 -3.02719,5.0499 -8.06719,15.71335 -8.06719,15.71335 -4.85564,33.29843 -13.28829,100.08934 -13.28829,100.08934 0,0 -3.09111,3.19223 -9.89996,7.00882 -12.61562,7.07148 -28.86576,13.24176 -45.80467,16.50198 -15.81387,3.04368 -46.58529,4.61583 -46.58529,4.61583 0,0 -11.87677,-59.33843 -19.6102,-88.55333 z"
     id="path4581"
     inkscape:connector-curvature="0"
     sodipodi:nodetypes="ccsssszcccsscsssscsccsscc" />
  <path
     style="fill:#0098e3;stroke-width:0.35280073;fill-opacity:0.78431374"
     d="m 385.47472,222.1078 c 0,0 25.60738,-18.964 34.90077,-28.43981 27.79271,-28.33826 47.73013,-64.45126 57.99099,-104.81715 5.22011,-20.5357 7.83885,-39.89936 8.53961,-63.14439 0.0824,-2.73421 0.24728,-8.20262 0.24728,-8.20262 h 21.16624 l -0.21609,9.96662 c -0.98591,45.47271 -12.6206,89.63188 -33.58201,127.45866 -16.50059,29.77683 -39.15849,56.52197 -64.5041,76.13999 -3.66092,2.83362 -13.31506,9.41044 -13.31506,9.41044 z"
     id="path4579"
     inkscape:connector-curvature="0"
     sodipodi:nodetypes="csssccssscc" />
</svg>
