<?xml version="1.0" encoding="UTF-8" standalone="no"?>
<svg
   xmlns:dc="http://purl.org/dc/elements/1.1/"
   xmlns:cc="http://creativecommons.org/ns#"
   xmlns:rdf="http://www.w3.org/1999/02/22-rdf-syntax-ns#"
   xmlns:svg="http://www.w3.org/2000/svg"
   xmlns="http://www.w3.org/2000/svg"
   xmlns:sodipodi="http://sodipodi.sourceforge.net/DTD/sodipodi-0.dtd"
   xmlns:inkscape="http://www.inkscape.org/namespaces/inkscape"
   height="788.77966"
   width="710.13562"
   version="1.1"
   id="svg12"
   sodipodi:docname="covered_parking.svg"
   inkscape:version="0.92.4 (5da689c313, 2019-01-14)">
  <metadata
     id="metadata18">
    <rdf:RDF>
      <cc:Work
         rdf:about="">
        <dc:format>image/svg+xml</dc:format>
        <dc:type
           rdf:resource="http://purl.org/dc/dcmitype/StillImage" />
      </cc:Work>
    </rdf:RDF>
  </metadata>
  <defs
     id="defs16" />
  <sodipodi:namedview
     pagecolor="#ffffff"
     bordercolor="#666666"
     borderopacity="1"
     objecttolerance="10"
     gridtolerance="10"
     guidetolerance="10"
     inkscape:pageopacity="0"
     inkscape:pageshadow="2"
     inkscape:window-width="1920"
     inkscape:window-height="1017"
     id="namedview14"
     showgrid="false"
     inkscape:zoom="0.40689655"
     inkscape:cx="357.52542"
     inkscape:cy="291.16949"
     inkscape:window-x="-8"
     inkscape:window-y="-8"
     inkscape:window-maximized="1"
     inkscape:current-layer="svg12" />
  <g
     transform="translate(70.348648,207.6772)"
     id="g4557"
     style="fill:#0098e3;fill-opacity:0.78431373">
    <path
       id="path4552"
       d="M 35.773438,33.566406 V 547.90625 H 550.11328 V 33.566406 Z M 146.67578,104.80078 H 297.1875 c 33.57132,0 59.2154,3.63637 76.93359,10.91016 17.9047,7.08728 33.85181,19.86195 47.83985,38.32617 13.98805,18.46422 20.98242,41.12537 20.98242,67.98242 0,18.83724 -3.73112,37.20859 -11.19141,55.11328 -7.4603,17.9047 -17.99825,31.98624 -31.61328,42.24414 -13.61503,10.25791 -26.85756,17.06475 -39.72656,20.42188 -12.6825,3.35714 -32.63712,5.03515 -59.86719,5.03515 h -62.94726 v 141.83985 h -90.92188 z"
       style="fill:#0098e3;fill-opacity:0.78431373;stroke-width:0.98687333"
       inkscape:connector-curvature="0" />
    <path
       id="rect4539"
       d="m 234.52056,174.18069 v 101.27345 h 58.19028 c 22.19437,0 37.76776,-5.12894 46.72011,-15.38684 8.95235,-10.2579 13.42852,-22.00786 13.42852,-35.24988 0,-15.48011 -5.0357,-27.78959 -15.10709,-36.92845 -9.88489,-9.13885 -24.99198,-13.70828 -45.32127,-13.70828 z"
       style="fill:#0098e3;fill-opacity:0.78431373;stroke-width:0.98687333"
       inkscape:connector-curvature="0" />
  </g>
  <path
     style="color:#000000;font-style:normal;font-variant:normal;font-weight:normal;font-stretch:normal;font-size:medium;line-height:normal;font-family:sans-serif;font-variant-ligatures:normal;font-variant-position:normal;font-variant-caps:normal;font-variant-numeric:normal;font-variant-alternates:normal;font-feature-settings:normal;text-indent:0;text-align:start;text-decoration:none;text-decoration-line:none;text-decoration-style:solid;text-decoration-color:#000000;letter-spacing:normal;word-spacing:normal;text-transform:none;writing-mode:lr-tb;direction:ltr;text-orientation:mixed;dominant-baseline:auto;baseline-shift:baseline;text-anchor:start;white-space:normal;shape-padding:0;clip-rule:nonzero;display:inline;overflow:visible;visibility:visible;opacity:1;isolation:auto;mix-blend-mode:normal;color-interpolation:sRGB;color-interpolation-filters:linearRGB;solid-color:#000000;solid-opacity:1;vector-effect:none;fill:#0098e3;fill-opacity:0.78431373;fill-rule:nonzero;stroke:none;stroke-width:46.07914734;stroke-linecap:round;stroke-linejoin:round;stroke-miterlimit:4;stroke-dasharray:none;stroke-dashoffset:0;stroke-opacity:1;paint-order:stroke fill markers;color-rendering:auto;image-rendering:auto;shape-rendering:auto;text-rendering:auto;enable-background:accumulate"
     d="m 361.98839,28.294748 c -15.9555,-0.21855 -30.9961,2.17351 -38.9856,6.20028 0,0 -98.7314,49.43959 -148.41699,72.781642 -49.70046,23.34904 -146.173302,61.91416 -145.681142,75.51969 0.65184,18.01977 13.0196,19.33003 29.45287,19.33116 16.43326,0.001 202.688162,-62.28262 300.723362,-62.28262 98.0327,0 290.7927,62.97245 304.5795,62.28262 13.7156,-0.68626 26.852,-1.12025 27.401,-19.33116 0.4939,-16.38475 -94.6127,-54.22254 -147.733,-77.57158 -50.255,-22.089582 -146.3651,-70.729752 -146.3651,-70.729752 -7.2726,-3.66538 -20.4512,-6.00166 -34.9749,-6.20028 z"
     id="path821"
     inkscape:connector-curvature="0"
     sodipodi:nodetypes="ccssssssscc" />
</svg>
