<?xml version="1.0" encoding="UTF-8" standalone="no"?>
<svg xmlns="http://www.w3.org/2000/svg" xmlns:sodipodi="http://sodipodi.sourceforge.net/DTD/sodipodi-0.dtd" xmlns:inkscape="http://www.inkscape.org/namespaces/inkscape" height="24" width="24" version="1.0">
 <metadata id="metadata2975"/>
 <path id="path8089" d="m 21.285,10.716 c -1.742,0 -3.483,0 -5.225,0 m 5.317,10.157 c 0,-3.984 0,-7.967 0,-11.951 M 2.966,10.716 c 1.7403,0 3.4807,0 5.221,0 M 2.874,20.873 c 0,-3.984 0,-7.967 0,-11.951" opacity="0.8" stroke="#ffffff" stroke-linejoin="round" stroke-linecap="round" stroke-width="3"/>
 <path id="line6223" d="m 21.377,20.873 c 0,-3.984 0,-7.967 0,-11.951" fill="none" stroke="#5f5f5f" stroke-linejoin="round" stroke-linecap="round" stroke-width="1.456"/>
 <path id="path8078" d="m 15.473,6.225 c 0.916,4.777 1.832,9.555 2.748,14.332 M 8.778,6.225 C 7.862,11.002 6.946,15.78 6.03,20.557" opacity="0.8" stroke="#ffffff" stroke-linejoin="round" stroke-linecap="round" stroke-width="4"/>
 <path id="line6225" d="m 21.285,10.716 c -1.742,0 -3.483,0 -5.225,0" fill="none" stroke="#5f5f5f" stroke-linejoin="round" stroke-linecap="round" stroke-width="1.456"/>
 <g id="g3050" fill="none" stroke="#5f5f5f">
  <path id="line6217" d="m 2.874,20.873 c 0,-3.984 0,-7.967 0,-11.951" stroke-linejoin="round" stroke-linecap="round" stroke-width="1.456"/>
  <path id="line6219" d="m 2.966,10.716 c 1.7403,0 3.4807,0 5.221,0" stroke-linejoin="round" stroke-linecap="round" stroke-width="1.456"/>
 </g>
 <path id="line6215" d="M 8.778,6.225 C 7.862,11.002 6.946,15.78 6.03,20.557" fill="none" stroke="#2c2c2c" stroke-linejoin="round" stroke-linecap="round" stroke-width="2.08"/>
 <path id="line6221" d="m 15.473,6.225 c 0.916,4.777 1.832,9.555 2.748,14.332" fill="none" stroke="#2c2c2c" stroke-linejoin="round" stroke-linecap="round" stroke-width="2.08"/>
</svg>
