<?xml version="1.0" encoding="UTF-8" standalone="no"?>
<svg
   xmlns:dc="http://purl.org/dc/elements/1.1/"
   xmlns:cc="http://creativecommons.org/ns#"
   xmlns:rdf="http://www.w3.org/1999/02/22-rdf-syntax-ns#"
   xmlns:svg="http://www.w3.org/2000/svg"
   xmlns="http://www.w3.org/2000/svg"
   xmlns:sodipodi="http://sodipodi.sourceforge.net/DTD/sodipodi-0.dtd"
   xmlns:inkscape="http://www.inkscape.org/namespaces/inkscape"
   height="580"
   width="580"
   version="1.0"
   id="svg22813"
   sodipodi:docname="disused-railway-night-25k.svg"
   inkscape:version="0.92.4 (5da689c313, 2019-01-14)">
  <defs
     id="defs22817" />
  <sodipodi:namedview
     pagecolor="#ffffff"
     bordercolor="#666666"
     borderopacity="1"
     objecttolerance="10"
     gridtolerance="10"
     guidetolerance="10"
     inkscape:pageopacity="0"
     inkscape:pageshadow="2"
     inkscape:window-width="1920"
     inkscape:window-height="1017"
     id="namedview22815"
     showgrid="false"
     inkscape:zoom="1.6275861"
     inkscape:cx="193.78919"
     inkscape:cy="355.03866"
     inkscape:window-x="-8"
     inkscape:window-y="-8"
     inkscape:window-maximized="1"
     inkscape:current-layer="svg22813" />
  <metadata
     id="metadata2975">
    <rdf:RDF>
      <cc:Work
         rdf:about="">
        <dc:format>image/svg+xml</dc:format>
        <dc:type
           rdf:resource="http://purl.org/dc/dcmitype/StillImage" />
        <dc:title></dc:title>
      </cc:Work>
    </rdf:RDF>
  </metadata>
  <path
     inkscape:connector-curvature="0"
     id="path921-4"
     style="font-style:normal;font-weight:normal;font-size:57.90618896px;line-height:1.25;font-family:sans-serif;letter-spacing:0px;word-spacing:0px;fill:none;fill-opacity:1;stroke:#373737;stroke-width:12;stroke-linecap:round;stroke-linejoin:round;stroke-miterlimit:4;stroke-dasharray:none;stroke-opacity:1"
     d="m 44.390839,202.49473 c 0,3.82649 -0.84613,7.29089 -2.51643,10.40502 -1.6661,3.10628 -3.8729,5.5241 -6.64451,7.23827 -1.92196,1.18868 -4.07198,2.04319 -6.44659,2.57298 -2.35666,0.52579 -5.4664,0.79169 -9.33059,0.79169 -3.54373,0 -10.63121,0 -10.63121,0 v -42.10074 c 0,0 7.01208,0 10.51812,0 4.10922,0 7.36748,0.31267 9.78297,0.90479 2.42892,0.59541 4.48955,1.38951 6.16385,2.4316 2.86848,1.78537 5.09883,4.1752 6.70105,7.15345 1.60223,2.97825 2.40334,6.51256 2.40334,10.60294 z m -5.85283,-0.0848 c 0,-3.29869 -0.57491,-6.07902 -1.72474,-8.34098 -1.14983,-2.26196 -2.8643,-4.04475 -5.14596,-5.34388 -1.65792,-0.94398 -3.42298,-1.58372 -5.28733,-1.95094 -1.86793,-0.36792 -4.09981,-0.56549 -6.70106,-0.56549 -1.75302,0 -5.25906,0 -5.25906,0 v 32.4874 c 0,0 3.50604,0 5.25906,0 2.6955,0 5.04193,-0.19971 7.04035,-0.59376 2.01656,-0.39763 3.86384,-1.13151 5.5418,-2.20541 2.09198,-1.33886 3.64917,-3.10443 4.69357,-5.28733 1.04792,-2.19025 1.58337,-4.91977 1.58337,-8.19961 z"
     sodipodi:nodetypes="sssssccssssssssssccsssss" />
  <path
     style="font-style:normal;font-weight:normal;font-size:57.90618896px;line-height:1.25;font-family:sans-serif;letter-spacing:0px;word-spacing:0px;fill:none;fill-opacity:1;stroke:#373737;stroke-width:12;stroke-linecap:round;stroke-linejoin:round;stroke-miterlimit:4;stroke-dasharray:none;stroke-opacity:1"
     d="m 58.782559,186.63273 h -5.99419 v -5.51352 h 5.99419 z"
     id="path1726-7"
     inkscape:connector-curvature="0"
     sodipodi:nodetypes="ccccc" />
  <path
     style="font-style:normal;font-weight:normal;font-size:57.90618896px;line-height:1.25;font-family:sans-serif;letter-spacing:0px;word-spacing:0px;fill:none;fill-opacity:1;stroke:#373737;stroke-width:12;stroke-linecap:round;stroke-linejoin:round;stroke-miterlimit:4;stroke-dasharray:none;stroke-opacity:1"
     d="m 58.443269,223.50269 h -5.31561 v -31.58262 h 5.31561 z"
     id="path923-7"
     inkscape:connector-curvature="0"
     sodipodi:nodetypes="ccccc" />
  <path
     inkscape:connector-curvature="0"
     id="path925-1"
     style="font-style:normal;font-weight:normal;font-size:57.90618896px;line-height:1.25;font-family:sans-serif;letter-spacing:0px;word-spacing:0px;fill:none;fill-opacity:1;stroke:#373737;stroke-width:12;stroke-linecap:round;stroke-linejoin:round;stroke-miterlimit:4;stroke-dasharray:none;stroke-opacity:1"
     d="m 91.580989,214.3983 c 0,2.884 -1.20048,5.24507 -3.59086,7.0969 -2.3786,1.84271 -5.62663,2.7709 -9.75471,2.7709 -2.33735,0 -4.48938,-0.26211 -6.44658,-0.81996 -1.94474,-0.5543 -4.89149,-1.83784 -4.89149,-1.83784 v -5.96592 h 0.28274 c 0,0 3.54071,2.27971 5.59835,3.02537 2.05162,0.74348 4.02441,1.10271 5.90938,1.10271 2.33736,0 4.16577,-0.37699 5.48525,-1.13098 1.31948,-0.75399 1.97922,-1.94152 1.97922,-3.56259 0,-1.24408 -0.35815,-2.18656 -1.07443,-2.82745 -0.71629,-0.64089 -2.09264,-1.18608 -4.12808,-1.63992 -0.75432,-0.16819 -1.74391,-0.36588 -2.96883,-0.59377 -1.20669,-0.2245 -2.30929,-0.47045 -3.30811,-0.73514 -2.77111,-0.73434 -4.75094,-1.80115 -5.90937,-3.22329 -1.16014,-1.42424 -1.72475,-3.18559 -1.72475,-5.25906 0,-1.30063 0.25615,-2.52944 0.79169,-3.67568 0.53891,-1.15347 1.36968,-2.17342 2.45988,-3.08192 1.05868,-0.88223 2.39575,-1.57754 4.01498,-2.09232 1.64179,-0.52195 3.46834,-0.79168 5.48525,-0.79168 1.88497,0 3.78611,0.24666 5.71145,0.70686 1.93891,0.46345 3.55317,1.00846 4.83494,1.66819 v 5.68318 h -0.28274 c -1.35718,-0.99903 -3.00947,-1.82946 -4.94804,-2.51643 -1.9445,-0.68907 -3.84533,-1.04616 -5.71145,-1.04616 -1.94152,0 -3.57742,0.38418 -4.91976,1.13098 -1.33435,0.74235 -2.00749,1.83785 -2.00749,3.30812 0,1.30063 0.40906,2.27617 1.2158,2.94055 0.79551,0.65513 2.07301,1.19892 3.84533,1.61165 0.97973,0.22816 2.07315,0.45408 3.27984,0.67858 1.22492,0.22789 2.24264,0.4356 3.05365,0.62204 2.46884,0.56755 4.37783,1.5317 5.71145,2.91228 1.34304,1.39033 2.00749,3.24214 2.00749,5.5418 z"
     sodipodi:nodetypes="sssscccssssssssssssssscccssssssssss" />
  <path
     inkscape:connector-curvature="0"
     id="path927-2"
     style="font-style:normal;font-weight:normal;font-size:57.90618896px;line-height:1.25;font-family:sans-serif;letter-spacing:0px;word-spacing:0px;fill:none;fill-opacity:1;stroke:#373737;stroke-width:12;stroke-linecap:round;stroke-linejoin:round;stroke-miterlimit:4;stroke-dasharray:none;stroke-opacity:1"
     d="m 145.30255,223.50269 h -5.3156 c 0,0 0,-11.98839 0,-17.98259 0,-1.35717 -0.0753,-2.66628 -0.19793,-3.93015 -0.12244,-1.26205 -0.36455,-2.27297 -0.76341,-3.02537 -0.43053,-0.81214 -1.05558,-1.42316 -1.86612,-1.83785 -0.81053,-0.41469 -1.97921,-0.62204 -3.50603,-0.62204 -1.48913,0 -2.97447,0.38452 -4.46738,1.13098 -1.48537,0.74269 -4.46737,2.82746 -4.46737,2.82746 0,0 0.10303,0.94252 0.14137,1.52682 0.0371,0.56553 0.0566,1.13098 0.0566,1.69647 0,6.73876 0,20.21627 0,20.21627 h -5.3156 c 0,0 0,-11.98839 0,-17.98259 0,-1.39487 -0.0762,-2.71331 -0.19793,-3.95843 -0.12335,-1.26197 -0.36455,-2.27297 -0.76341,-3.02537 -0.43053,-0.81214 -1.05931,-1.40617 -1.86611,-1.80957 -0.81434,-0.40717 -1.97922,-0.62204 -3.50604,-0.62204 -1.45143,0 -2.9141,0.35442 -4.38255,1.07444 -1.45326,0.71257 -4.35428,2.74262 -4.35428,2.74262 v 23.58094 h -5.315601 v -31.58262 h 5.315601 v 3.50604 c 0,0 3.30642,-2.45408 4.94804,-3.2233 1.65708,-0.77646 3.42122,-1.15925 5.28734,-1.15925 2.14886,0 3.96533,0.45655 5.45698,1.35717 1.50546,0.90896 3.36466,3.76051 3.36466,3.76051 0,0 4.11275,-3.10236 5.8811,-3.90188 1.77542,-0.80272 3.66626,-1.2158 5.68317,-1.2158 3.46834,0 6.01205,1.06372 7.6624,3.16674 1.64838,2.10051 2.48816,5.02344 2.48815,8.79337 z"
     sodipodi:nodetypes="ccsssssscssccssssssccccccssscssssc" />
  <path
     inkscape:connector-curvature="0"
     id="path929-9"
     style="font-style:normal;font-weight:normal;font-size:57.90618896px;line-height:1.25;font-family:sans-serif;letter-spacing:0px;word-spacing:0px;fill:none;fill-opacity:1;stroke:#373737;stroke-width:12;stroke-linecap:round;stroke-linejoin:round;stroke-miterlimit:4;stroke-dasharray:none;stroke-opacity:1"
     d="m 180.08019,223.50269 h -5.28733 v -3.36467 c 0,0 -1.11087,0.77459 -1.92267,1.35718 -0.79042,0.56725 -1.57059,1.00471 -2.31851,1.35718 -0.89221,0.42046 -1.90602,0.78282 -3.05364,1.07443 -1.15211,0.29275 -2.49759,0.45239 -4.04326,0.45239 -2.8463,0 -5.25906,-0.94248 -7.23827,-2.82745 -1.97921,-1.88497 -2.96882,-4.2883 -2.96882,-7.21 0,-2.39391 0.507,-4.32735 1.52682,-5.79627 1.03479,-1.49048 2.50546,-2.6613 4.41082,-3.50604 1.92112,-0.85173 4.23175,-1.42315 6.92726,-1.72475 2.6955,-0.30159 8.68027,-0.67858 8.68027,-0.67858 0,0 0,-0.54665 0,-0.81997 0,-1.20637 -0.22408,-2.20144 -0.65031,-2.99709 -0.42203,-0.7878 -1.01847,-1.41269 -1.80957,-1.86612 -0.75459,-0.4325 -1.65877,-0.72571 -2.71435,-0.87651 -1.05559,-0.1508 -2.15829,-0.2262 -3.30812,-0.2262 -1.39487,0 -2.94802,0.1975 -4.66529,0.56549 -1.71341,0.36716 -5.31561,1.58338 -5.31561,1.58338 h -0.28275 v -5.40043 c 0,0 2.53528,-0.59377 4.49565,-0.93306 1.96037,-0.33929 3.89246,-0.50894 5.79627,-0.50894 2.22427,0 4.15388,0.19947 5.79628,0.56549 1.65636,0.36913 3.09014,0.98182 4.29772,1.86611 1.18633,0.86873 2.09232,1.98864 2.71435,3.36467 0.62204,1.37603 0.93306,3.08192 0.93306,5.11769 0,7.14402 0,21.43207 0,21.43207 z m -5.28733,-7.77549 v -8.79337 c 0,0 -3.53438,0.23482 -5.73972,0.42412 -2.18664,0.18769 -3.92156,0.45889 -5.20251,0.81996 -1.52766,0.43062 -2.75676,1.11697 -3.70396,2.03576 -0.93779,0.90966 -1.41373,2.15829 -1.41373,3.76051 0,1.80957 0.54199,3.18171 1.63992,4.09981 1.08865,0.91034 2.76148,1.35717 5.00459,1.35717 1.86612,0 3.57563,-0.35041 5.11769,-1.07443 1.54932,-0.72743 4.29772,-2.62953 4.29772,-2.62953 z"
     sodipodi:nodetypes="cccssssssssscsssssscccsssssscccsssssssc" />
  <path
     inkscape:connector-curvature="0"
     id="path931-2"
     style="font-style:normal;font-weight:normal;font-size:57.90618896px;line-height:1.25;font-family:sans-serif;letter-spacing:0px;word-spacing:0px;fill:none;fill-opacity:1;stroke:#373737;stroke-width:12;stroke-linecap:round;stroke-linejoin:round;stroke-miterlimit:4;stroke-dasharray:none;stroke-opacity:1"
     d="m 216.78049,223.50269 h -5.3156 c 0,0 0,-11.98839 0,-17.98259 0,-1.45142 -0.0861,-2.80843 -0.25447,-4.07152 -0.17088,-1.28162 -0.49056,-2.27466 -0.93306,-2.9971 -0.48122,-0.78566 -1.15326,-1.36809 -2.03577,-1.75302 -0.88942,-0.38794 -2.03576,-0.59377 -3.44949,-0.59377 -1.45142,0 -2.96882,0.35815 -4.55219,1.07444 -1.58337,0.71629 -4.5522,2.74262 -4.5522,2.74262 v 23.58094 h -5.31561 v -31.58262 h 5.31561 v 3.50604 c 0,0 3.37409,-2.45046 5.14596,-3.2233 1.77187,-0.77284 3.59087,-1.15925 5.45698,-1.15925 3.41179,0 6.01305,1.02731 7.80377,3.08192 1.79072,2.05461 2.68607,5.01401 2.68607,8.87819 0,6.83301 0,20.49902 0,20.49902 z"
     sodipodi:nodetypes="ccssssssccccccssssc" />
  <path
     inkscape:connector-curvature="0"
     id="path933-6"
     style="font-style:normal;font-weight:normal;font-size:57.90618896px;line-height:1.25;font-family:sans-serif;letter-spacing:0px;word-spacing:0px;fill:none;fill-opacity:1;stroke:#373737;stroke-width:12;stroke-linecap:round;stroke-linejoin:round;stroke-miterlimit:4;stroke-dasharray:none;stroke-opacity:1"
     d="m 243.41509,223.21995 c 0,0 -2.09251,0.47933 -3.27985,0.65031 -1.16887,0.16832 -2.21484,0.25447 -3.13847,0.25447 -3.22329,0 -5.67375,-0.86708 -7.35137,-2.60125 -1.67762,-1.73417 -2.51643,-4.5145 -2.51643,-8.34098 0,-5.59835 0,-16.79506 0,-16.79506 h -3.59086 v -4.46737 h 3.59086 v -9.07612 h 5.31561 v 9.07612 h 10.97051 v 4.46737 h -10.97051 c 0,0 0,9.59448 0,14.39172 0,1.65877 0.0369,2.95946 0.1131,3.90188 0.0746,0.9237 0.34172,1.78937 0.79168,2.60126 0.41713,0.75264 0.97465,1.32135 1.69647,1.6682 0.72978,0.35067 1.84727,0.50894 3.33639,0.50894 0.86709,0 1.7742,-0.11373 2.71436,-0.36757 0.94489,-0.25512 2.03576,-0.65032 2.03576,-0.65032 h 0.28275 z"
     sodipodi:nodetypes="cssssccccccccccssssssccc" />
  <path
     inkscape:connector-curvature="0"
     id="path935-7"
     style="font-style:normal;font-weight:normal;font-size:57.90618896px;line-height:1.25;font-family:sans-serif;letter-spacing:0px;word-spacing:0px;fill:none;fill-opacity:1;stroke:#373737;stroke-width:12;stroke-linecap:round;stroke-linejoin:round;stroke-miterlimit:4;stroke-dasharray:none;stroke-opacity:1"
     d="m 255.23382,223.50269 h -5.3156 v -43.99513 h 5.3156 z"
     sodipodi:nodetypes="ccccc" />
  <path
     style="font-style:normal;font-weight:normal;font-size:57.90618896px;line-height:1.25;font-family:sans-serif;letter-spacing:0px;word-spacing:0px;fill:none;fill-opacity:1;stroke:#373737;stroke-width:12;stroke-linecap:round;stroke-linejoin:round;stroke-miterlimit:4;stroke-dasharray:none;stroke-opacity:1"
     d="m 278.92773,191.04453 c -4.59932,0 -8.31823,1.51128 -11.14062,4.55078 -2.81367,3.03011 -4.21289,7.13597 -4.21289,12.30078 0,5.22136 1.46685,9.25819 4.41211,12.09961 2.93584,2.83234 7.02932,4.24219 12.26953,4.24219 2.05461,0 4.01669,-0.25473 5.88281,-0.76367 1.86612,-0.50894 5.48438,-1.89453 5.48438,-1.89453 v -5.79688 h -0.28321 c 0,0 -2.47555,1.68278 -4.66406,2.54492 -2.16577,0.85318 -4.32574,1.27344 -6.47461,1.27344 -1.62107,0 -3.11252,-0.22445 -4.46875,-0.67969 -1.33928,-0.44955 -2.49247,-1.13462 -3.47656,-2.03515 -1.01399,-0.9279 -1.82324,-2.10125 -2.4043,-3.53516 -0.58762,-1.4501 -0.87695,-5.08789 -0.87695,-5.08789 h 23.27148 c 0,0 0,-1.92318 0,-2.88477 0,-4.58047 -1.16506,-8.11065 -3.47851,-10.60351 -2.30473,-2.48346 -5.57982,-3.73047 -9.83985,-3.73047 z m -0.2832,4.38086 c 2.82745,0 4.72409,0.97946 6.30664,2.29101 2.31132,1.91552 2.11914,6.47461 2.11914,6.47461 h -18.0957 c 0,0 0.25155,-3.73032 2.85547,-6.24804 1.71522,-1.65844 3.96815,-2.51758 6.81445,-2.51758 z"
     id="path1744-9"
     inkscape:connector-curvature="0"
     sodipodi:nodetypes="sssssscccsssssccsssssccss" />
  <path
     inkscape:connector-curvature="0"
     style="font-style:normal;font-weight:normal;font-size:57.90618896px;line-height:1.25;font-family:sans-serif;letter-spacing:0px;word-spacing:0px;fill:none;fill-opacity:1;fill-rule:evenodd;stroke:#373737;stroke-width:12;stroke-linecap:round;stroke-linejoin:round;stroke-miterlimit:4;stroke-dasharray:none;stroke-opacity:1"
     d="m 320.60352,179.50742 v 13.68555 c -2.85154,-1.2627 -5.3266,-2.28023 -8.45313,-2.14844 -6.80567,0.28688 -10.32738,3.96161 -12.89258,9.75391 -0.90058,2.03353 -1.13086,4.47569 -1.13086,7.15234 0,5.14596 1.09527,9.17591 3.30664,12.07422 2.21831,2.9074 5.22226,4.35351 8.99219,4.35351 1.94151,0 3.74162,-0.36642 5.40039,-1.10156 1.65877,-0.73514 4.77735,-3.08203 4.77735,-3.08203 v 3.30859 h 5.3164 v -43.99609 z m -7.54883,16.39844 c 2.35617,0.004 5.14323,0.62157 7.54883,1.69726 v 18.125 c -2.92742,1.98521 -5.38087,3.52844 -8.90625,3.58985 -2.82702,0.0492 -4.88466,-0.96775 -6.16211,-2.91211 -1.28611,-1.95753 -1.92383,-4.81532 -1.92383,-8.56641 0,-3.80763 0.82951,-6.7488 2.48828,-8.82226 1.65877,-2.07346 3.97683,-3.11616 6.95508,-3.11133 z"
     id="path1753-0" />
  <path
     inkscape:connector-curvature="0"
     style="font-style:normal;font-weight:normal;font-size:57.90618896px;line-height:1.25;font-family:sans-serif;letter-spacing:0px;word-spacing:0px;fill:none;fill-opacity:1;stroke:#373737;stroke-width:12;stroke-linecap:round;stroke-linejoin:round;stroke-miterlimit:4;stroke-dasharray:none;stroke-opacity:1"
     d="m 357.16406,181.40195 v 42.10156 h 5.59766 v -16.74023 h 7.88867 l 14.08008,16.74023 h 7.26758 l -15.83399,-18.4082 c 0,0 4.78238,-2.56827 6.30469,-4.60742 1.53134,-2.05124 2.3214,-4.60013 2.29102,-7.63477 -0.0394,-3.93984 -1.79556,-7.31619 -4.86329,-9.18945 -3.37808,-2.06277 -7.50098,-2.26172 -10.94336,-2.26172 z m 5.59766,4.80664 h 6.58789 c 1.50797,0 2.84202,0.0159 3.92969,0.33985 3.60175,1.07276 5.56466,3.24695 5.62695,6.70117 0.0699,3.87646 -2.4534,7.52506 -5.85352,8.39648 -1.31114,0.33603 -2.86484,0.45313 -4.63671,0.45313 h -5.6543 z"
     id="path1749-1" />
  <path
     inkscape:connector-curvature="0"
     id="path943-8"
     style="font-style:normal;font-weight:normal;font-size:57.90618896px;line-height:1.25;font-family:sans-serif;letter-spacing:0px;word-spacing:0px;fill:none;fill-opacity:1;stroke:#373737;stroke-width:12;stroke-linecap:round;stroke-linejoin:round;stroke-miterlimit:4;stroke-dasharray:none;stroke-opacity:1"
     d="m 420.41348,223.50269 h -5.28734 v -3.36467 c 0,0 -1.11086,0.77459 -1.92266,1.35718 -0.79043,0.56725 -1.57059,1.00471 -2.31851,1.35718 -0.89221,0.42047 -1.90603,0.78282 -3.05365,1.07443 -1.15211,0.29275 -2.49758,0.45239 -4.04325,0.45239 -2.8463,0 -5.25906,-0.94248 -7.23828,-2.82745 -1.97921,-1.88497 -2.96882,-4.2883 -2.96882,-7.21 0,-2.39391 0.50699,-4.32735 1.52682,-5.79627 1.03479,-1.49048 2.50546,-2.6613 4.41083,-3.50604 1.92112,-0.85173 4.23175,-1.42315 6.92725,-1.72475 2.6955,-0.3016 8.68027,-0.67858 8.68027,-0.67858 0,0 0,-0.54665 0,-0.81997 0,-1.20637 -0.22407,-2.20145 -0.65031,-2.99709 -0.42203,-0.7878 -1.01848,-1.41269 -1.80957,-1.86612 -0.75458,-0.4325 -1.65877,-0.72571 -2.71435,-0.87651 -1.05558,-0.1508 -2.15829,-0.2262 -3.30812,-0.2262 -1.39487,0 -2.94802,0.1975 -4.66529,0.56549 -1.71341,0.36716 -5.31561,1.58338 -5.31561,1.58338 h -0.28274 v -5.40043 c 0,0 2.53527,-0.59377 4.49564,-0.93306 1.96037,-0.33929 3.89246,-0.50894 5.79628,-0.50894 2.22426,0 4.15387,0.19947 5.79627,0.56549 1.65636,0.36913 3.09014,0.98182 4.29772,1.86611 1.18633,0.86873 2.09232,1.98864 2.71436,3.36467 0.62204,1.37603 0.93306,3.08192 0.93306,5.11769 0,7.14402 0,21.43207 0,21.43207 z m -5.28734,-7.77549 v -8.79337 c 0,0 -3.53438,0.23482 -5.73972,0.42412 -2.18663,0.18769 -3.92155,0.45889 -5.20251,0.81996 -1.52765,0.43061 -2.75676,1.11697 -3.70396,2.03576 -0.93779,0.90966 -1.41373,2.15829 -1.41373,3.76051 0,1.80957 0.54199,3.18171 1.63993,4.09981 1.08865,0.91034 2.76147,1.35717 5.00458,1.35717 1.86612,0 3.57562,-0.35041 5.11769,-1.07443 1.54932,-0.72743 4.29772,-2.62953 4.29772,-2.62953 z"
     sodipodi:nodetypes="cccssssssssscsssssscccsssssscccsssssssc" />
  <path
     style="font-style:normal;font-weight:normal;font-size:57.90618896px;line-height:1.25;font-family:sans-serif;letter-spacing:0px;word-spacing:0px;fill:none;fill-opacity:1;stroke:#373737;stroke-width:12;stroke-linecap:round;stroke-linejoin:round;stroke-miterlimit:4;stroke-dasharray:none;stroke-opacity:1"
     d="m 436.41685,186.63273 h -5.99419 v -5.51352 h 5.99419 z"
     id="path1730-3"
     inkscape:connector-curvature="0"
     sodipodi:nodetypes="ccccc" />
  <path
     style="font-style:normal;font-weight:normal;font-size:57.90618896px;line-height:1.25;font-family:sans-serif;letter-spacing:0px;word-spacing:0px;fill:none;fill-opacity:1;stroke:#373737;stroke-width:12;stroke-linecap:round;stroke-linejoin:round;stroke-miterlimit:4;stroke-dasharray:none;stroke-opacity:1"
     d="m 436.07756,223.50269 h -5.31561 v -31.58262 h 5.31561 z"
     id="path945-6"
     inkscape:connector-curvature="0"
     sodipodi:nodetypes="ccccc" />
  <path
     inkscape:connector-curvature="0"
     id="path947-1"
     style="font-style:normal;font-weight:normal;font-size:57.90618896px;line-height:1.25;font-family:sans-serif;letter-spacing:0px;word-spacing:0px;fill:none;fill-opacity:1;stroke:#373737;stroke-width:12;stroke-linecap:round;stroke-linejoin:round;stroke-miterlimit:4;stroke-dasharray:none;stroke-opacity:1"
     d="m 452.0244,223.50269 h -5.31561 v -43.99513 h 5.31561 z"
     sodipodi:nodetypes="ccccc" />
  <path
     inkscape:connector-curvature="0"
     id="path949-1"
     style="font-style:normal;font-weight:normal;font-size:57.90618896px;line-height:1.25;font-family:sans-serif;letter-spacing:0px;word-spacing:0px;fill:none;fill-opacity:1;stroke:#373737;stroke-width:12;stroke-linecap:round;stroke-linejoin:round;stroke-miterlimit:4;stroke-dasharray:none;stroke-opacity:1"
     d="m 502.32473,191.92007 -8.22788,31.58262 h -4.91977 l -8.11478,-24.34435 -8.05823,24.34435 h -4.89149 l -8.31271,-31.58262 h 5.54181 l 5.79627,24.45745 7.88859,-24.45745 h 4.38255 l 8.0865,24.45745 5.48526,-24.45745 z"
     sodipodi:nodetypes="cccccccccccccc" />
  <path
     inkscape:connector-curvature="0"
     id="path951-8"
     style="font-style:normal;font-weight:normal;font-size:57.90618896px;line-height:1.25;font-family:sans-serif;letter-spacing:0px;word-spacing:0px;fill:none;fill-opacity:1;stroke:#373737;stroke-width:12;stroke-linecap:round;stroke-linejoin:round;stroke-miterlimit:4;stroke-dasharray:none;stroke-opacity:1"
     d="m 533.96389,223.50269 h -5.28733 v -3.36467 c 0,0 -1.11087,0.77459 -1.92267,1.35718 -0.79043,0.56725 -1.57059,1.00471 -2.31851,1.35718 -0.89221,0.42047 -1.90603,0.78282 -3.05364,1.07443 -1.15212,0.29275 -2.49759,0.45239 -4.04326,0.45239 -2.8463,0 -5.25906,-0.94248 -7.23827,-2.82745 -1.97922,-1.88497 -2.96883,-4.2883 -2.96883,-7.21 0,-2.39391 0.507,-4.32734 1.52683,-5.79627 1.03479,-1.49048 2.50545,-2.6613 4.41082,-3.50604 1.92112,-0.85173 4.23175,-1.42315 6.92725,-1.72475 2.69551,-0.3016 8.68028,-0.67858 8.68028,-0.67858 0,0 0,-0.54665 0,-0.81997 0,-1.20637 -0.22408,-2.20144 -0.65032,-2.99709 -0.42203,-0.7878 -1.01847,-1.41269 -1.80956,-1.86612 -0.75458,-0.4325 -1.65877,-0.72571 -2.71436,-0.87651 -1.05558,-0.1508 -2.15828,-0.2262 -3.30811,-0.2262 -1.39488,0 -2.94803,0.1975 -4.6653,0.56549 -1.71341,0.36716 -5.3156,1.58338 -5.3156,1.58338 h -0.28275 v -5.40043 c 0,0 2.53528,-0.59377 4.49565,-0.93306 1.96037,-0.33929 3.89246,-0.50894 5.79627,-0.50894 2.22426,0 4.15387,0.19947 5.79627,0.56549 1.65636,0.36913 3.09015,0.98182 4.29773,1.86611 1.18633,0.86873 2.09231,1.98864 2.71435,3.36467 0.62204,1.37603 0.93306,3.08192 0.93306,5.11769 0,7.14402 0,21.43207 0,21.43207 z m -5.28733,-7.77549 v -8.79337 c 0,0 -3.53439,0.23482 -5.73973,0.42412 -2.18663,0.18769 -3.92155,0.45888 -5.20251,0.81996 -1.52765,0.43061 -2.75675,1.11697 -3.70396,2.03576 -0.93778,0.90965 -1.41372,2.15829 -1.41372,3.76051 0,1.80957 0.54199,3.18171 1.63992,4.09981 1.08865,0.91034 2.76148,1.35717 5.00459,1.35717 1.86611,0 3.57561,-0.35041 5.11768,-1.07443 1.54932,-0.72743 4.29773,-2.62953 4.29773,-2.62953 z"
     sodipodi:nodetypes="cccssssssssscsssssscccsssssscccsssssssc" />
  <path
     inkscape:connector-curvature="0"
     id="path953-3"
     style="font-style:normal;font-weight:normal;font-size:57.90618896px;line-height:1.25;font-family:sans-serif;letter-spacing:0px;word-spacing:0px;fill:none;fill-opacity:1;stroke:#373737;stroke-width:12;stroke-linecap:round;stroke-linejoin:round;stroke-miterlimit:4;stroke-dasharray:none;stroke-opacity:1"
     d="m 571.1166,191.92007 -18.435,43.23172 h -5.68313 l 5.88113,-13.17592 -12.58218,-30.0558 h 5.768 l 9.69818,23.41129 9.7829,-23.41129 z"
     sodipodi:nodetypes="ccccccccc" />
  <path
     inkscape:connector-curvature="0"
     id="path921"
     style="font-style:normal;font-weight:normal;font-size:57.90618896px;line-height:1.25;font-family:sans-serif;letter-spacing:0px;word-spacing:0px;fill:#a1a1a1;fill-opacity:1;stroke:none;stroke-width:1.44765472"
     d="m 44.390835,202.49473 c 0,3.82648 -0.846125,7.29089 -2.516431,10.40502 -1.666095,3.10627 -3.872897,5.52409 -6.644509,7.23827 -1.921956,1.18868 -4.071975,2.04318 -6.446587,2.57298 -2.356658,0.52578 -5.466405,0.79169 -9.330587,0.79169 -3.543738,0 -10.6312147,0 -10.6312147,0 v -42.10074 c 0,0 7.0120777,0 10.5181167,0 4.109228,0 7.367481,0.31266 9.782979,0.90479 2.428918,0.59541 4.489546,1.3895 6.163842,2.4316 2.868488,1.78536 5.098836,4.1752 6.701058,7.15345 1.602222,2.97824 2.403333,6.51256 2.403333,10.60294 z m -5.852823,-0.0848 c 0,-3.2987 -0.574915,-6.07902 -1.724744,-8.34098 -1.14983,-2.26196 -2.864298,-4.04475 -5.145961,-5.34388 -1.657919,-0.94399 -3.42298,-1.58372 -5.287332,-1.95094 -1.867927,-0.36793 -4.099803,-0.56549 -6.701058,-0.56549 -1.753019,0 -5.259058,0 -5.259058,0 v 32.4874 c 0,0 3.506039,0 5.259058,0 2.695503,0 5.041933,-0.19971 7.040352,-0.59376 2.016563,-0.39763 3.863839,-1.13152 5.541803,-2.20541 2.091971,-1.33887 3.649162,-3.10443 4.693568,-5.28733 1.04792,-2.19025 1.583372,-4.91977 1.583372,-8.19961 z"
     sodipodi:nodetypes="sssssccssssssssssccsssss" />
  <path
     style="font-style:normal;font-weight:normal;font-size:57.90618896px;line-height:1.25;font-family:sans-serif;letter-spacing:0px;word-spacing:0px;fill:#a1a1a1;fill-opacity:1;stroke:none;stroke-width:1.44765472"
     d="m 58.78256,186.63273 h -5.994195 v -5.51352 h 5.994195 z"
     id="path1726"
     inkscape:connector-curvature="0"
     sodipodi:nodetypes="ccccc" />
  <path
     style="font-style:normal;font-weight:normal;font-size:57.90618896px;line-height:1.25;font-family:sans-serif;letter-spacing:0px;word-spacing:0px;fill:#a1a1a1;fill-opacity:1;stroke:none;stroke-width:1.44765472"
     d="m 58.443266,223.50269 h -5.315607 v -31.58262 h 5.315607 z"
     id="path923"
     inkscape:connector-curvature="0"
     sodipodi:nodetypes="ccccc" />
  <path
     inkscape:connector-curvature="0"
     id="path925"
     style="font-style:normal;font-weight:normal;font-size:57.90618896px;line-height:1.25;font-family:sans-serif;letter-spacing:0px;word-spacing:0px;fill:#a1a1a1;fill-opacity:1;stroke:none;stroke-width:1.44765472"
     d="m 91.580989,214.3983 c 0,2.884 -1.200485,5.24507 -3.590862,7.0969 -2.378598,1.84271 -5.626627,2.7709 -9.754705,2.7709 -2.337359,0 -4.489382,-0.26211 -6.446587,-0.81996 -1.94474,-0.5543 -4.89149,-1.83784 -4.89149,-1.83784 v -5.96592 h 0.282745 c 0,0 3.540703,2.27971 5.598352,3.02537 2.051613,0.74348 4.024405,1.10271 5.909372,1.10271 2.337359,0 4.165777,-0.37699 5.485254,-1.13098 1.319477,-0.75399 1.979216,-1.94152 1.979216,-3.56259 0,-1.24408 -0.358145,-2.18656 -1.074431,-2.82745 -0.71629,-0.64089 -2.092638,-1.18608 -4.128078,-1.63992 -0.754313,-0.16819 -1.743908,-0.36588 -2.968823,-0.59377 -1.206695,-0.2245 -2.309294,-0.47045 -3.308118,-0.73514 -2.77111,-0.73434 -4.750941,-1.80115 -5.909371,-3.22329 -1.16014,-1.42424 -1.724745,-3.18559 -1.724745,-5.25906 0,-1.30063 0.256148,-2.52944 0.791686,-3.67568 0.538918,-1.15347 1.369688,-2.17342 2.459882,-3.08192 1.05868,-0.88223 2.395753,-1.57754 4.01498,-2.09232 1.641787,-0.52195 3.468339,-0.79168 5.485254,-0.79168 1.884967,0 3.786112,0.24666 5.71145,0.70686 1.938907,0.46345 3.553163,1.00846 4.834941,1.66819 v 5.68318 h -0.282745 c -1.357177,-0.99903 -3.009473,-1.82946 -4.948039,-2.51643 -1.944502,-0.68907 -3.845333,-1.04616 -5.71145,-1.04616 -1.941516,0 -3.577415,0.38418 -4.919764,1.13098 -1.334343,0.74235 -2.00749,1.83785 -2.00749,3.30812 0,1.30063 0.409064,2.27617 1.215804,2.94055 0.795508,0.65513 2.073006,1.19892 3.845333,1.61165 0.979728,0.22816 2.073147,0.45408 3.279842,0.67858 1.224915,0.22789 2.242636,0.4356 3.053647,0.62204 2.468835,0.56755 4.377824,1.5317 5.71145,2.91228 1.343043,1.39033 2.00749,3.24214 2.00749,5.5418 z"
     sodipodi:nodetypes="sssscccssssssssssssssscccssssssssss" />
  <path
     inkscape:connector-curvature="0"
     id="path927"
     style="font-style:normal;font-weight:normal;font-size:57.90618896px;line-height:1.25;font-family:sans-serif;letter-spacing:0px;word-spacing:0px;fill:#a1a1a1;fill-opacity:1;stroke:none;stroke-width:1.44765472"
     d="m 145.30255,223.50269 h -5.3156 c 0,0 0,-11.98839 0,-17.98259 0,-1.35717 -0.0753,-2.66628 -0.19793,-3.93015 -0.12244,-1.26205 -0.36455,-2.27297 -0.76341,-3.02537 -0.43053,-0.81214 -1.05558,-1.42316 -1.86612,-1.83785 -0.81053,-0.41469 -1.97921,-0.62204 -3.50603,-0.62204 -1.48913,0 -2.97447,0.38452 -4.46738,1.13098 -1.48537,0.74269 -4.46737,2.82746 -4.46737,2.82746 0,0 0.10303,0.94252 0.14137,1.52682 0.0371,0.56553 0.0566,1.13098 0.0566,1.69647 0,6.73876 0,20.21627 0,20.21627 h -5.3156 c 0,0 0,-11.98839 0,-17.98259 0,-1.39487 -0.0762,-2.71331 -0.19793,-3.95843 -0.12335,-1.26197 -0.36455,-2.27297 -0.76341,-3.02537 -0.43053,-0.81214 -1.05931,-1.40617 -1.86611,-1.80957 -0.81434,-0.40717 -1.97922,-0.62204 -3.50604,-0.62204 -1.45143,0 -2.9141,0.35442 -4.38255,1.07444 -1.45326,0.71257 -4.35428,2.74262 -4.35428,2.74262 v 23.58094 h -5.315603 v -31.58262 h 5.315603 v 3.50604 c 0,0 3.30642,-2.45408 4.94804,-3.2233 1.65708,-0.77646 3.42122,-1.15925 5.28734,-1.15925 2.14886,0 3.96533,0.45655 5.45698,1.35717 1.50546,0.90896 3.36466,3.76051 3.36466,3.76051 0,0 4.11275,-3.10236 5.8811,-3.90188 1.77542,-0.80272 3.66626,-1.2158 5.68317,-1.2158 3.46834,0 6.01205,1.06372 7.6624,3.16674 1.64838,2.10051 2.48816,5.02344 2.48815,8.79337 z"
     sodipodi:nodetypes="ccsssssscssccssssssccccccssscssssc" />
  <path
     inkscape:connector-curvature="0"
     id="path929"
     style="font-style:normal;font-weight:normal;font-size:57.90618896px;line-height:1.25;font-family:sans-serif;letter-spacing:0px;word-spacing:0px;fill:#a1a1a1;fill-opacity:1;stroke:none;stroke-width:1.44765472"
     d="m 180.08019,223.50269 h -5.28733 v -3.36467 c 0,0 -1.11087,0.77459 -1.92267,1.35718 -0.79042,0.56724 -1.57059,1.00471 -2.31851,1.35718 -0.89221,0.42046 -1.90602,0.78282 -3.05364,1.07443 -1.15211,0.29275 -2.49759,0.45239 -4.04326,0.45239 -2.8463,0 -5.25906,-0.94248 -7.23827,-2.82745 -1.97921,-1.88497 -2.96882,-4.2883 -2.96882,-7.21 0,-2.39391 0.507,-4.32735 1.52682,-5.79627 1.03479,-1.49048 2.50546,-2.66131 4.41082,-3.50604 1.92112,-0.85173 4.23175,-1.42316 6.92726,-1.72475 2.6955,-0.3016 8.68027,-0.67858 8.68027,-0.67858 0,0 0,-0.54665 0,-0.81997 0,-1.20637 -0.22408,-2.20145 -0.65031,-2.99709 -0.42203,-0.7878 -1.01847,-1.41269 -1.80957,-1.86612 -0.75459,-0.43251 -1.65877,-0.72571 -2.71435,-0.87651 -1.05559,-0.1508 -2.15829,-0.2262 -3.30812,-0.2262 -1.39487,0 -2.94802,0.1975 -4.66529,0.56549 -1.71341,0.36716 -5.31561,1.58338 -5.31561,1.58338 h -0.28275 v -5.40043 c 0,0 2.53528,-0.59377 4.49565,-0.93306 1.96037,-0.33929 3.89246,-0.50894 5.79627,-0.50894 2.22427,0 4.15388,0.19947 5.79628,0.56549 1.65636,0.36913 3.09014,0.98182 4.29772,1.86611 1.18633,0.86873 2.09232,1.98864 2.71435,3.36467 0.62204,1.37603 0.93306,3.08192 0.93306,5.11769 0,7.14402 0,21.43207 0,21.43207 z m -5.28733,-7.77549 v -8.79337 c 0,0 -3.53438,0.23482 -5.73972,0.42412 -2.18664,0.18769 -3.92156,0.45888 -5.20251,0.81996 -1.52766,0.43061 -2.75676,1.11697 -3.70396,2.03576 -0.93779,0.90966 -1.41373,2.15829 -1.41373,3.76051 0,1.80957 0.54199,3.1817 1.63992,4.09981 1.08865,0.91034 2.76148,1.35717 5.00459,1.35717 1.86612,0 3.57563,-0.35041 5.11769,-1.07443 1.54932,-0.72743 4.29772,-2.62953 4.29772,-2.62953 z"
     sodipodi:nodetypes="cccssssssssscsssssscccsssssscccsssssssc" />
  <path
     inkscape:connector-curvature="0"
     id="path931"
     style="font-style:normal;font-weight:normal;font-size:57.90618896px;line-height:1.25;font-family:sans-serif;letter-spacing:0px;word-spacing:0px;fill:#a1a1a1;fill-opacity:1;stroke:none;stroke-width:1.44765472"
     d="m 216.78049,223.50269 h -5.3156 c 0,0 0,-11.9884 0,-17.98259 0,-1.45142 -0.0861,-2.80843 -0.25447,-4.07152 -0.17088,-1.28162 -0.49056,-2.27466 -0.93306,-2.9971 -0.48122,-0.78567 -1.15326,-1.36809 -2.03577,-1.75302 -0.88942,-0.38795 -2.03576,-0.59377 -3.44949,-0.59377 -1.45142,0 -2.96882,0.35815 -4.55219,1.07444 -1.58337,0.71629 -4.5522,2.74262 -4.5522,2.74262 v 23.58094 h -5.31561 v -31.58262 h 5.31561 v 3.50604 c 0,0 3.37409,-2.45047 5.14596,-3.2233 1.77187,-0.77284 3.59087,-1.15925 5.45698,-1.15925 3.41179,0 6.01305,1.0273 7.80377,3.08192 1.79072,2.05461 2.68607,5.01401 2.68607,8.87819 0,6.833 0,20.49902 0,20.49902 z"
     sodipodi:nodetypes="ccssssssccccccssssc" />
  <path
     inkscape:connector-curvature="0"
     id="path933"
     style="font-style:normal;font-weight:normal;font-size:57.90618896px;line-height:1.25;font-family:sans-serif;letter-spacing:0px;word-spacing:0px;fill:#a1a1a1;fill-opacity:1;stroke:none;stroke-width:1.44765472"
     d="m 243.41509,223.21995 c 0,0 -2.09251,0.47933 -3.27985,0.65031 -1.16887,0.16832 -2.21484,0.25447 -3.13847,0.25447 -3.22329,0 -5.67375,-0.86708 -7.35137,-2.60125 -1.67762,-1.73417 -2.51643,-4.5145 -2.51643,-8.34098 0,-5.59835 0,-16.79506 0,-16.79506 h -3.59086 v -4.46737 h 3.59086 v -9.07612 h 5.31561 v 9.07612 h 10.97051 v 4.46737 h -10.97051 c 0,0 0,9.59448 0,14.39172 0,1.65877 0.0369,2.95946 0.1131,3.90188 0.0746,0.9237 0.34172,1.78937 0.79168,2.60126 0.41713,0.75264 0.97465,1.32135 1.69647,1.6682 0.72978,0.35067 1.84727,0.50894 3.33639,0.50894 0.86709,0 1.7742,-0.11373 2.71436,-0.36757 0.94489,-0.25512 2.03576,-0.65032 2.03576,-0.65032 h 0.28275 z"
     sodipodi:nodetypes="cssssccccccccccssssssccc" />
  <path
     inkscape:connector-curvature="0"
     id="path935"
     style="font-style:normal;font-weight:normal;font-size:57.90618896px;line-height:1.25;font-family:sans-serif;letter-spacing:0px;word-spacing:0px;fill:#a1a1a1;fill-opacity:1;stroke:none;stroke-width:1.44765472"
     d="m 255.23382,223.50269 h -5.3156 v -43.99513 h 5.3156 z"
     sodipodi:nodetypes="ccccc" />
  <path
     style="font-style:normal;font-weight:normal;font-size:57.90618896px;line-height:1.25;font-family:sans-serif;letter-spacing:0px;word-spacing:0px;fill:#a1a1a1;fill-opacity:1;stroke:none;stroke-width:1.44765472"
     d="m 278.92773,191.04453 c -4.59932,0 -8.31823,1.51128 -11.14062,4.55078 -2.81367,3.03011 -4.21289,7.13597 -4.21289,12.30078 0,5.22136 1.46685,9.25819 4.41211,12.09961 2.93584,2.83234 7.02932,4.24219 12.26953,4.24219 2.05461,0 4.01669,-0.25473 5.88281,-0.76367 1.86612,-0.50894 5.48438,-1.89453 5.48438,-1.89453 v -5.79688 h -0.28321 c 0,0 -2.47555,1.68278 -4.66406,2.54492 -2.16577,0.85318 -4.32574,1.27344 -6.47461,1.27344 -1.62107,0 -3.11252,-0.22445 -4.46875,-0.67969 -1.33928,-0.44955 -2.49247,-1.13462 -3.47656,-2.03515 -1.01399,-0.9279 -1.82324,-2.10125 -2.4043,-3.53516 -0.58762,-1.4501 -0.87695,-5.08789 -0.87695,-5.08789 h 23.27148 c 0,0 0,-1.92318 0,-2.88477 0,-4.58047 -1.16506,-8.11065 -3.47851,-10.60351 -2.30473,-2.48346 -5.57982,-3.73047 -9.83985,-3.73047 z m -0.2832,4.38086 c 2.82745,0 4.72409,0.97946 6.30664,2.29101 2.31132,1.91552 2.11914,6.47461 2.11914,6.47461 h -18.0957 c 0,0 0.25155,-3.73032 2.85547,-6.24804 1.71522,-1.65844 3.96815,-2.51758 6.81445,-2.51758 z"
     id="path1744"
     inkscape:connector-curvature="0"
     sodipodi:nodetypes="sssssscccsssssccsssssccss" />
  <path
     style="font-style:normal;font-weight:normal;font-size:57.90618896px;line-height:1.25;font-family:sans-serif;letter-spacing:0px;word-spacing:0px;fill:#a1a1a1;fill-opacity:1;fill-rule:evenodd;stroke:none;stroke-width:1.44765472"
     d="m 320.60352,179.50742 v 13.68555 c -2.85154,-1.2627 -5.3266,-2.28023 -8.45313,-2.14844 -6.80567,0.28688 -10.32738,3.96161 -12.89258,9.75391 -0.90058,2.03353 -1.13086,4.47569 -1.13086,7.15234 0,5.14596 1.09527,9.17591 3.30664,12.07422 2.21831,2.9074 5.22226,4.35351 8.99219,4.35351 1.94151,0 3.74162,-0.36642 5.40039,-1.10156 1.65877,-0.73514 4.77735,-3.08203 4.77735,-3.08203 v 3.30859 h 5.3164 v -43.99609 z"
     id="path1834" />
  <path
     style="font-style:normal;font-weight:normal;font-size:57.90618896px;line-height:1.25;font-family:sans-serif;letter-spacing:0px;word-spacing:0px;fill:#373737;fill-opacity:1;fill-rule:evenodd;stroke:none;stroke-width:1.44765472"
     d="m 313.05469,195.90586 c 2.35617,0.004 5.14323,0.62157 7.54883,1.69726 v 18.125 c -2.92742,1.98521 -5.38087,3.52844 -8.90625,3.58985 -2.82702,0.0492 -4.88466,-0.96775 -6.16211,-2.91211 -1.28611,-1.95753 -1.92383,-4.81532 -1.92383,-8.56641 0,-3.80763 0.82951,-6.7488 2.48828,-8.82226 1.65877,-2.07346 3.97683,-3.11616 6.95508,-3.11133 z"
     id="path1753" />
  <path
     style="font-style:normal;font-weight:normal;font-size:57.90618896px;line-height:1.25;font-family:sans-serif;letter-spacing:0px;word-spacing:0px;fill:#a1a1a1;fill-opacity:1;stroke:none;stroke-width:1.44765472"
     d="m 357.16406,181.40195 v 42.10156 h 5.59766 v -16.74023 h 7.88867 l 14.08008,16.74023 h 7.26758 l -15.83399,-18.4082 c 0,0 4.78238,-2.56827 6.30469,-4.60742 1.53134,-2.05124 2.3214,-4.60013 2.29102,-7.63477 -0.0394,-3.93984 -1.79556,-7.31619 -4.86329,-9.18945 -3.37808,-2.06277 -7.50098,-2.26172 -10.94336,-2.26172 z"
     id="path1830" />
  <path
     style="font-style:normal;font-weight:normal;font-size:57.90618896px;line-height:1.25;font-family:sans-serif;letter-spacing:0px;word-spacing:0px;fill:#373737;fill-opacity:1;stroke:none;stroke-width:1.44765472"
     d="m 362.76172,186.20859 h 6.58789 c 1.50797,0 2.84202,0.0159 3.92969,0.33985 3.60175,1.07276 5.56466,3.24695 5.62695,6.70117 0.0699,3.87646 -2.4534,7.52506 -5.85352,8.39648 -1.31114,0.33603 -2.86484,0.45313 -4.63671,0.45313 h -5.6543 z"
     id="path1749" />
  <path
     inkscape:connector-curvature="0"
     id="path943"
     style="font-style:normal;font-weight:normal;font-size:57.90618896px;line-height:1.25;font-family:sans-serif;letter-spacing:0px;word-spacing:0px;fill:#a1a1a1;fill-opacity:1;stroke:none;stroke-width:1.44765472"
     d="m 420.41348,223.50269 h -5.28734 v -3.36467 c 0,0 -1.11086,0.77459 -1.92266,1.35718 -0.79043,0.56725 -1.57059,1.00471 -2.31851,1.35718 -0.89221,0.42047 -1.90603,0.78282 -3.05365,1.07443 -1.15211,0.29275 -2.49758,0.45239 -4.04325,0.45239 -2.8463,0 -5.25906,-0.94248 -7.23828,-2.82745 -1.97921,-1.88497 -2.96882,-4.2883 -2.96882,-7.21 0,-2.39391 0.50699,-4.32735 1.52682,-5.79627 1.03479,-1.49048 2.50546,-2.6613 4.41083,-3.50604 1.92112,-0.85173 4.23175,-1.42315 6.92725,-1.72475 2.6955,-0.3016 8.68027,-0.67858 8.68027,-0.67858 0,0 0,-0.54665 0,-0.81997 0,-1.20637 -0.22407,-2.20145 -0.65031,-2.99709 -0.42203,-0.7878 -1.01848,-1.41269 -1.80957,-1.86612 -0.75458,-0.4325 -1.65877,-0.72571 -2.71435,-0.87651 -1.05558,-0.1508 -2.15829,-0.2262 -3.30812,-0.2262 -1.39487,0 -2.94802,0.1975 -4.66529,0.56549 -1.71341,0.36716 -5.31561,1.58338 -5.31561,1.58338 h -0.28274 v -5.40043 c 0,0 2.53527,-0.59377 4.49564,-0.93306 1.96037,-0.33929 3.89246,-0.50894 5.79628,-0.50894 2.22426,0 4.15387,0.19947 5.79627,0.56549 1.65636,0.36913 3.09014,0.98182 4.29772,1.86611 1.18633,0.86873 2.09232,1.98864 2.71436,3.36467 0.62204,1.37603 0.93306,3.08192 0.93306,5.11769 0,7.14402 0,21.43207 0,21.43207 z m -5.28734,-7.77549 v -8.79337 c 0,0 -3.53438,0.23482 -5.73972,0.42412 -2.18663,0.18769 -3.92155,0.45889 -5.20251,0.81996 -1.52765,0.43061 -2.75676,1.11697 -3.70396,2.03576 -0.93779,0.90966 -1.41373,2.15829 -1.41373,3.76051 0,1.80957 0.54199,3.18171 1.63993,4.09981 1.08865,0.91034 2.76147,1.35717 5.00458,1.35717 1.86612,0 3.57562,-0.35041 5.11769,-1.07443 1.54932,-0.72743 4.29772,-2.62953 4.29772,-2.62953 z"
     sodipodi:nodetypes="cccssssssssscsssssscccsssssscccsssssssc" />
  <path
     style="font-style:normal;font-weight:normal;font-size:57.90618896px;line-height:1.25;font-family:sans-serif;letter-spacing:0px;word-spacing:0px;fill:#a1a1a1;fill-opacity:1;stroke:none;stroke-width:1.44765472"
     d="m 436.41685,186.63273 h -5.99419 v -5.51352 h 5.99419 z"
     id="path1730"
     inkscape:connector-curvature="0"
     sodipodi:nodetypes="ccccc" />
  <path
     style="font-style:normal;font-weight:normal;font-size:57.90618896px;line-height:1.25;font-family:sans-serif;letter-spacing:0px;word-spacing:0px;fill:#a1a1a1;fill-opacity:1;stroke:none;stroke-width:1.44765472"
     d="m 436.07756,223.50269 h -5.31561 v -31.58262 h 5.31561 z"
     id="path945"
     inkscape:connector-curvature="0"
     sodipodi:nodetypes="ccccc" />
  <path
     inkscape:connector-curvature="0"
     id="path947"
     style="font-style:normal;font-weight:normal;font-size:57.90618896px;line-height:1.25;font-family:sans-serif;letter-spacing:0px;word-spacing:0px;fill:#a1a1a1;fill-opacity:1;stroke:none;stroke-width:1.44765472"
     d="m 452.0244,223.50269 h -5.31561 v -43.99513 h 5.31561 z"
     sodipodi:nodetypes="ccccc" />
  <path
     inkscape:connector-curvature="0"
     id="path949"
     style="font-style:normal;font-weight:normal;font-size:57.90618896px;line-height:1.25;font-family:sans-serif;letter-spacing:0px;word-spacing:0px;fill:#a1a1a1;fill-opacity:1;stroke:none;stroke-width:1.44765472"
     d="m 502.32473,191.92007 -8.22788,31.58262 h -4.91977 l -8.11478,-24.34435 -8.05823,24.34435 h -4.89149 l -8.31271,-31.58262 h 5.54181 l 5.79627,24.45745 7.88859,-24.45745 h 4.38255 l 8.0865,24.45745 5.48526,-24.45745 z"
     sodipodi:nodetypes="cccccccccccccc" />
  <path
     inkscape:connector-curvature="0"
     id="path951"
     style="font-style:normal;font-weight:normal;font-size:57.90618896px;line-height:1.25;font-family:sans-serif;letter-spacing:0px;word-spacing:0px;fill:#a1a1a1;fill-opacity:1;stroke:none;stroke-width:1.44765472"
     d="m 533.96389,223.50269 h -5.28733 v -3.36467 c 0,0 -1.11087,0.77459 -1.92267,1.35718 -0.79043,0.56725 -1.57059,1.00471 -2.31851,1.35718 -0.89221,0.42047 -1.90603,0.78282 -3.05364,1.07443 -1.15212,0.29275 -2.49759,0.45239 -4.04326,0.45239 -2.8463,0 -5.25906,-0.94248 -7.23827,-2.82745 -1.97922,-1.88497 -2.96883,-4.2883 -2.96883,-7.21 0,-2.39391 0.507,-4.32734 1.52683,-5.79627 1.03479,-1.49048 2.50545,-2.6613 4.41082,-3.50604 1.92112,-0.85173 4.23175,-1.42315 6.92725,-1.72475 2.69551,-0.3016 8.68028,-0.67858 8.68028,-0.67858 0,0 0,-0.54665 0,-0.81997 0,-1.20637 -0.22408,-2.20144 -0.65032,-2.99709 -0.42203,-0.7878 -1.01847,-1.41269 -1.80956,-1.86612 -0.75458,-0.4325 -1.65877,-0.72571 -2.71436,-0.87651 -1.05558,-0.1508 -2.15828,-0.2262 -3.30811,-0.2262 -1.39488,0 -2.94803,0.1975 -4.6653,0.56549 -1.71341,0.36716 -5.3156,1.58338 -5.3156,1.58338 h -0.28275 v -5.40043 c 0,0 2.53528,-0.59377 4.49565,-0.93306 1.96037,-0.33929 3.89246,-0.50894 5.79627,-0.50894 2.22426,0 4.15387,0.19947 5.79627,0.56549 1.65636,0.36913 3.09015,0.98182 4.29773,1.86611 1.18633,0.86873 2.09231,1.98864 2.71435,3.36467 0.62204,1.37603 0.93306,3.08192 0.93306,5.11769 0,7.14402 0,21.43207 0,21.43207 z m -5.28733,-7.77549 v -8.79337 c 0,0 -3.53439,0.23482 -5.73973,0.42412 -2.18663,0.18769 -3.92155,0.45888 -5.20251,0.81996 -1.52765,0.43061 -2.75675,1.11697 -3.70396,2.03576 -0.93778,0.90965 -1.41372,2.15829 -1.41372,3.76051 0,1.80957 0.54199,3.18171 1.63992,4.09981 1.08865,0.91034 2.76148,1.35717 5.00459,1.35717 1.86611,0 3.57561,-0.35041 5.11768,-1.07443 1.54932,-0.72743 4.29773,-2.62953 4.29773,-2.62953 z"
     sodipodi:nodetypes="cccssssssssscsssssscccsssssscccsssssssc" />
  <path
     inkscape:connector-curvature="0"
     id="path953"
     style="font-style:normal;font-weight:normal;font-size:57.90618896px;line-height:1.25;font-family:sans-serif;letter-spacing:0px;word-spacing:0px;fill:#a1a1a1;fill-opacity:1;stroke:none;stroke-width:1.44765472"
     d="m 571.11663,191.92007 -18.43498,43.23172 h -5.68318 l 5.8811,-13.17592 -12.58215,-30.0558 h 5.768 l 9.69815,23.41129 9.78298,-23.41129 z"
     sodipodi:nodetypes="ccccccccc" />
</svg>
