<?xml version="1.0" encoding="UTF-8" standalone="no"?>
<svg
   xmlns:dc="http://purl.org/dc/elements/1.1/"
   xmlns:cc="http://creativecommons.org/ns#"
   xmlns:rdf="http://www.w3.org/1999/02/22-rdf-syntax-ns#"
   xmlns:svg="http://www.w3.org/2000/svg"
   xmlns="http://www.w3.org/2000/svg"
   xmlns:sodipodi="http://sodipodi.sourceforge.net/DTD/sodipodi-0.dtd"
   xmlns:inkscape="http://www.inkscape.org/namespaces/inkscape"
   enable-background="new 0 0 580 580"
   viewBox="0 0 580 580"
   height="580"
   width="580"
   version="1.1"
   id="svg2818"
   sodipodi:docname="farmyard.svg"
   inkscape:version="0.92.4 (5da689c313, 2019-01-14)">
  <defs
     id="defs2822" />
  <sodipodi:namedview
     pagecolor="#ffffff"
     bordercolor="#666666"
     borderopacity="1"
     objecttolerance="10"
     gridtolerance="10"
     guidetolerance="10"
     inkscape:pageopacity="0"
     inkscape:pageshadow="2"
     inkscape:window-width="1920"
     inkscape:window-height="1017"
     id="namedview2820"
     showgrid="false"
     inkscape:zoom="0.42143775"
     inkscape:cx="624.5302"
     inkscape:cy="741.82332"
     inkscape:window-x="-8"
     inkscape:window-y="-8"
     inkscape:window-maximized="1"
     inkscape:current-layer="svg2818" />
  <metadata
     id="metadata26">
    <rdf:RDF>
      <cc:Work
         rdf:about="">
        <dc:format>image/svg+xml</dc:format>
        <dc:type
           rdf:resource="http://purl.org/dc/dcmitype/StillImage" />
      </cc:Work>
    </rdf:RDF>
  </metadata>
  <path
     style="color:#000000;font-style:normal;font-variant:normal;font-weight:normal;font-stretch:normal;font-size:212.35202026px;line-height:1.25;font-family:'Gill Sans MT';-inkscape-font-specification:'Gill Sans MT, Normal';font-variant-ligatures:normal;font-variant-position:normal;font-variant-caps:normal;font-variant-numeric:normal;font-variant-alternates:normal;font-feature-settings:normal;text-indent:0;text-align:start;text-decoration:none;text-decoration-line:none;text-decoration-style:solid;text-decoration-color:#000000;letter-spacing:0px;word-spacing:0px;text-transform:none;writing-mode:lr-tb;direction:ltr;text-orientation:mixed;dominant-baseline:auto;baseline-shift:baseline;text-anchor:start;white-space:normal;shape-padding:0;clip-rule:nonzero;display:inline;overflow:visible;visibility:visible;opacity:1;isolation:auto;mix-blend-mode:normal;color-interpolation:sRGB;color-interpolation-filters:linearRGB;solid-color:#000000;solid-opacity:1;vector-effect:none;fill:#ffffff;fill-opacity:0.87843137;fill-rule:nonzero;stroke:none;stroke-width:53.7985878;stroke-linecap:butt;stroke-linejoin:miter;stroke-miterlimit:4;stroke-dasharray:none;stroke-dashoffset:0;stroke-opacity:1;color-rendering:auto;image-rendering:auto;shape-rendering:auto;text-rendering:auto;enable-background:accumulate"
     d="M 13.505429,80.470969 V 107.37026 445.98192 H 111.92742 V 300.72574 H 233.53324 V 207.20867 H 111.92742 V 173.98804 H 233.53324 V 80.470969 Z"
     id="path3966-7"
     inkscape:connector-curvature="0" />
  <path
     style="color:#000000;font-style:normal;font-variant:normal;font-weight:normal;font-stretch:normal;font-size:212.35202026px;line-height:1.25;font-family:'Gill Sans MT';-inkscape-font-specification:'Gill Sans MT, Normal';font-variant-ligatures:normal;font-variant-position:normal;font-variant-caps:normal;font-variant-numeric:normal;font-variant-alternates:normal;font-feature-settings:normal;text-indent:0;text-align:start;text-decoration:none;text-decoration-line:none;text-decoration-style:solid;text-decoration-color:#000000;letter-spacing:0px;word-spacing:0px;text-transform:none;writing-mode:lr-tb;direction:ltr;text-orientation:mixed;dominant-baseline:auto;baseline-shift:baseline;text-anchor:start;white-space:normal;shape-padding:0;clip-rule:nonzero;display:inline;overflow:visible;visibility:visible;opacity:1;isolation:auto;mix-blend-mode:normal;color-interpolation:sRGB;color-interpolation-filters:linearRGB;solid-color:#000000;solid-opacity:1;vector-effect:none;fill:#ffffff;fill-opacity:0.87843137;fill-rule:nonzero;stroke:none;stroke-width:53.7985878;stroke-linecap:butt;stroke-linejoin:miter;stroke-miterlimit:4;stroke-dasharray:none;stroke-dashoffset:0;stroke-opacity:1;color-rendering:auto;image-rendering:auto;shape-rendering:auto;text-rendering:auto;enable-background:accumulate"
     d="m 476.62299,182.44451 c -23.7165,0 -45.96512,9.39464 -65.84863,25.17606 -17.29626,-15.49455 -39.20022,-24.73055 -62.67535,-24.73055 -11.65708,0 -22.92613,2.51848 -33.79225,6.94759 v -2.9337 h -94.4081 v 259.07801 h 94.4081 V 281.37086 c 4.42354,-4.0791 8.2206,-7.19267 10.13349,-8.26312 3.17372,-1.69863 6.16123,-2.505 10.49492,-2.505 9.81055,0 9.24504,1.21642 9.58288,1.71903 l 0.0547,0.0841 0.0588,0.0841 c 0.0899,0.13149 4.45941,11.99415 4.45941,32.35061 V 445.98204 H 443.7217 V 280.89186 c 7.85736,-7.28299 14.03316,-9.39793 20.18289,-9.39793 6.8749,0 6.77623,0.48684 8.81372,3.13123 2.00335,2.60011 4.89651,9.40975 4.89651,22.85181 v 148.5051 h 94.40812 V 297.92249 c 0,-33.74243 -7.18332,-63.09777 -26.13856,-84.49741 -17.36037,-19.75591 -42.79105,-30.98042 -69.26146,-30.98042 z m -87.574,59.69541 0.11771,0.16813 c -0.0261,-0.0386 -0.0578,-0.0707 -0.0841,-0.10927 -0.0129,-0.0194 -0.0193,-0.0395 -0.0336,-0.0588 z"
     id="path3968-2"
     inkscape:connector-curvature="0" />
  <path
     inkscape:connector-curvature="0"
     id="path3966"
     style="font-style:normal;font-variant:normal;font-weight:normal;font-stretch:normal;font-size:212.35202026px;line-height:1.25;font-family:'Gill Sans MT';-inkscape-font-specification:'Gill Sans MT, Normal';font-variant-ligatures:normal;font-variant-caps:normal;font-variant-numeric:normal;font-feature-settings:normal;text-align:start;letter-spacing:0px;word-spacing:0px;writing-mode:lr-tb;text-anchor:start;fill:#000000;fill-opacity:1;stroke:none;stroke-width:11.42424011;stroke-opacity:0.87843137"
     d="M 41.708261,108.26686 H 207.93986 v 39.71708 H 86.334197 V 235.0045 H 207.93986 v 39.7171 H 86.334197 V 419.979 H 41.708261 Z" />
  <path
     sodipodi:nodetypes="ccccccccccsccccccc"
     inkscape:connector-curvature="0"
     id="path3968"
     style="font-style:normal;font-variant:normal;font-weight:normal;font-stretch:normal;font-size:212.35202026px;line-height:1.25;font-family:'Gill Sans MT';-inkscape-font-specification:'Gill Sans MT, Normal';font-variant-ligatures:normal;font-variant-caps:normal;font-variant-numeric:normal;font-feature-settings:normal;text-align:start;letter-spacing:0px;word-spacing:0px;writing-mode:lr-tb;text-anchor:start;fill:#000000;fill-opacity:1;stroke:none;stroke-width:11.42424011;stroke-opacity:0.87843137"
     d="M 418.12799,270.92838 V 419.979 H 377.29527 V 305.7366 c 0.32602,-72.3673 -48.90868,-77.4242 -88.58247,-34.80822 V 419.979 H 248.1032 V 214.69971 h 40.6096 v 26.99869 c 20.67667,-20.67669 40.90709,-31.01503 60.69126,-31.01503 26.03177,0 46.18782,12.34651 60.46813,37.03953 21.71795,-24.99053 44.4028,-37.48578 68.05454,-37.48578 53.51894,4.33811 68.15161,46.72038 68.50081,88.58248 V 419.979 h -40.6096 V 298.37332 c -1.6264,-63.60783 -54.26352,-65.4756 -87.68995,-27.44494 z" />
</svg>
