<?xml version="1.0" encoding="UTF-8" standalone="no"?>
<svg
   xmlns:dc="http://purl.org/dc/elements/1.1/"
   xmlns:cc="http://creativecommons.org/ns#"
   xmlns:rdf="http://www.w3.org/1999/02/22-rdf-syntax-ns#"
   xmlns:svg="http://www.w3.org/2000/svg"
   xmlns="http://www.w3.org/2000/svg"
   xmlns:sodipodi="http://sodipodi.sourceforge.net/DTD/sodipodi-0.dtd"
   xmlns:inkscape="http://www.inkscape.org/namespaces/inkscape"
   enable-background="new 0 0 580 580"
   viewBox="0 0 1083.3556 449.36957"
   height="449.36957"
   width="1083.3556"
   version="1.1"
   id="svg2818"
   sodipodi:docname="fire-sta.svg"
   inkscape:version="0.92.4 (5da689c313, 2019-01-14)">
  <defs
     id="defs2822" />
  <sodipodi:namedview
     pagecolor="#ffffff"
     bordercolor="#666666"
     borderopacity="1"
     objecttolerance="10"
     gridtolerance="10"
     guidetolerance="10"
     inkscape:pageopacity="0"
     inkscape:pageshadow="2"
     inkscape:window-width="1920"
     inkscape:window-height="1017"
     id="namedview2820"
     showgrid="false"
     inkscape:zoom="0.68298044"
     inkscape:cx="914.88848"
     inkscape:cy="531.95555"
     inkscape:window-x="-8"
     inkscape:window-y="-8"
     inkscape:window-maximized="1"
     inkscape:current-layer="svg2818" />
  <metadata
     id="metadata26">
    <rdf:RDF>
      <cc:Work
         rdf:about="">
        <dc:format>image/svg+xml</dc:format>
        <dc:type
           rdf:resource="http://purl.org/dc/dcmitype/StillImage" />
        <dc:title></dc:title>
      </cc:Work>
    </rdf:RDF>
  </metadata>
  <path
     inkscape:connector-curvature="0"
     id="path3291-9"
     style="font-style:normal;font-variant:normal;font-weight:normal;font-stretch:normal;font-size:494.32476807px;line-height:1.25;font-family:'Gill Sans MT';-inkscape-font-specification:'Gill Sans MT, Normal';font-variant-ligatures:normal;font-variant-caps:normal;font-variant-numeric:normal;font-feature-settings:normal;text-align:start;letter-spacing:0px;word-spacing:0px;writing-mode:lr-tb;text-anchor:start;fill:#ff0000;fill-opacity:0;stroke:#f8f8f8;stroke-width:66.667;stroke-miterlimit:4;stroke-dasharray:none;stroke-opacity:1"
     d="M 57.350726,54.798176 H 237.17101 v 42.96378 H 105.62463 v 94.134114 h 131.54638 v 42.96377 H 105.62463 V 391.99139 H 57.350726 Z"
     sodipodi:nodetypes="ccccccccccc" />
  <path
     inkscape:connector-curvature="0"
     id="path3293-0"
     style="font-style:normal;font-variant:normal;font-weight:normal;font-stretch:normal;font-size:494.32476807px;line-height:1.25;font-family:'Gill Sans MT';-inkscape-font-specification:'Gill Sans MT, Normal';font-variant-ligatures:normal;font-variant-caps:normal;font-variant-numeric:normal;font-feature-settings:normal;text-align:start;letter-spacing:0px;word-spacing:0px;writing-mode:lr-tb;text-anchor:start;fill:#ff0000;fill-opacity:0;stroke:#f8f8f8;stroke-width:66.667;stroke-miterlimit:4;stroke-dasharray:none;stroke-opacity:1"
     d="m 509.19446,250.54886 c -28.90328,-17.99755 -66.89079,-37.43895 -85.92755,-63.48018 -9.88025,-13.51564 -14.97483,-29.37349 -14.48217,-47.06706 1.61915,-58.150714 51.1664,-89.218234 99.44424,-89.548094 28.15912,-0.1924 53.98632,7.88474 77.47962,23.65421 v 54.790884 c -24.29787,-23.33239 -50.45188,-35.561154 -78.4451,-34.998584 -25.7204,0.51689 -53.74045,12.635644 -54.06677,39.101874 2.73043,40.14503 57.78424,62.5665 83.99659,77.96235 41.2343,24.39033 61.7906,55.6759 61.7906,93.65137 0,27.03339 -9.129,48.95784 -27.27476,65.89388 -18.05975,16.85577 -41.51555,25.3438 -70.47989,25.3438 -33.30899,0 -63.6411,-10.21798 -90.99631,-30.65393 v -61.30786 c 26.06791,32.98717 56.2391,49.48075 90.51357,49.48075 28.2107,-1.46678 52.44073,-17.0096 52.85992,-44.41199 0,-20.59686 -14.84533,-40.00079 -44.41199,-58.41142 z"
     sodipodi:nodetypes="ssssccsccsssccccs" />
  <path
     inkscape:connector-curvature="0"
     id="path3295-6"
     style="font-style:normal;font-variant:normal;font-weight:normal;font-stretch:normal;font-size:494.32476807px;line-height:1.25;font-family:'Gill Sans MT';-inkscape-font-specification:'Gill Sans MT, Normal';font-variant-ligatures:normal;font-variant-caps:normal;font-variant-numeric:normal;font-feature-settings:normal;text-align:start;letter-spacing:0px;word-spacing:0px;writing-mode:lr-tb;text-anchor:start;fill:#ff0000;fill-opacity:0;stroke:#f8f8f8;stroke-width:66.667;stroke-miterlimit:4;stroke-dasharray:none;stroke-opacity:1"
     d="m 625.39703,205.17139 82.54838,-81.10016 v 45.86021 h 70.23852 v 39.5846 h -70.23852 c 0,0 0,72.57177 0,108.85765 0,25.42426 10.5398,38.13639 31.6194,38.13639 15.76947,0 49.96349,-15.93039 49.96349,-15.93039 v 41.03282 c 0,0 -35.32041,14.2408 -55.27362,14.2408 -20.11413,0 -36.71384,-6.0289 -50.20486,-17.61998 -20.98771,-18.03201 -20.03367,-48.713 -20.03367,-70.23852 v -98.47877 h -38.61912 z"
     sodipodi:nodetypes="ccccccssccsssccc" />
  <path
     inkscape:connector-curvature="0"
     id="path3297-0"
     style="font-style:normal;font-variant:normal;font-weight:normal;font-stretch:normal;font-size:494.32476807px;line-height:1.25;font-family:'Gill Sans MT';-inkscape-font-specification:'Gill Sans MT, Normal';font-variant-ligatures:normal;font-variant-caps:normal;font-variant-numeric:normal;font-feature-settings:normal;text-align:start;letter-spacing:0px;word-spacing:0px;writing-mode:lr-tb;text-anchor:start;fill:#ff0000;fill-opacity:0;stroke:#f8f8f8;stroke-width:66.667;stroke-miterlimit:4;stroke-dasharray:none;stroke-opacity:1"
     d="m 993.1421,258.51405 c 0,0 0,62.91699 0,94.37549 0,7.56291 2.5746,11.34436 7.7238,11.34436 5.3101,0 24.8611,-11.8271 24.8611,-11.8271 v 26.79201 c 0,0 -28.2826,16.6095 -42.96381,16.6545 -18.82673,0.0577 -29.92982,-7.402 -33.30899,-22.206 -18.66591,14.48217 -38.55686,22.59881 -59.61827,21.72326 -33.05517,-1.37416 -55.11496,-23.95732 -54.06677,-53.8254 1.24973,-35.61115 29.78002,-54.05677 57.92868,-63.72155 l 56.2391,-19.30957 v -11.8271 c 0,-26.71156 -13.35578,-40.06734 -40.06734,-40.06734 -23.97604,0 -47.30843,12.3903 -69.99716,37.1709 v -48.03253 c 17.05678,-20.11413 41.60708,-31.01315 73.6177,-30.17119 36.61427,0.96305 72.26304,18.04132 77.96236,55.03225 1.0192,6.61484 1.6896,19.2291 1.6896,37.89501 z m -43.20516,89.54809 v -65.89387 l -29.44708,11.34436 c -20.34485,7.83777 -41.56433,18.01221 -41.03282,40.55008 0.46924,19.89735 13.87196,31.01833 31.61941,31.13667 13.99912,0.0933 38.86049,-17.13724 38.86049,-17.13724 z"
     sodipodi:nodetypes="sssccscssscssccsssccsssc" />
  <path
     inkscape:connector-curvature="0"
     id="path3291"
     style="font-style:normal;font-variant:normal;font-weight:normal;font-stretch:normal;font-size:494.32476807px;line-height:1.25;font-family:'Gill Sans MT';-inkscape-font-specification:'Gill Sans MT, Normal';font-variant-ligatures:normal;font-variant-caps:normal;font-variant-numeric:normal;font-feature-settings:normal;text-align:start;letter-spacing:0px;word-spacing:0px;writing-mode:lr-tb;text-anchor:start;fill:#000000;fill-opacity:1;stroke:none;stroke-width:95.37651062"
     d="M 57.350726,54.798176 H 237.17101 v 42.96378 H 105.62463 v 94.134114 h 131.54638 v 42.96377 H 105.62463 V 391.99139 H 57.350726 Z"
     sodipodi:nodetypes="ccccccccccc" />
  <path
     inkscape:connector-curvature="0"
     id="path3293"
     style="font-style:normal;font-variant:normal;font-weight:normal;font-stretch:normal;font-size:494.32476807px;line-height:1.25;font-family:'Gill Sans MT';-inkscape-font-specification:'Gill Sans MT, Normal';font-variant-ligatures:normal;font-variant-caps:normal;font-variant-numeric:normal;font-feature-settings:normal;text-align:start;letter-spacing:0px;word-spacing:0px;writing-mode:lr-tb;text-anchor:start;fill:#000000;fill-opacity:1;stroke:none;stroke-width:95.37651062"
     d="m 509.19446,250.54886 c -28.90328,-17.99755 -66.89079,-37.43895 -85.92755,-63.48018 -9.88025,-13.51564 -14.97483,-29.37349 -14.48217,-47.06706 1.61915,-58.150714 51.1664,-89.218234 99.44424,-89.548094 28.15912,-0.1924 53.98632,7.88474 77.47962,23.65421 v 54.790884 c -24.29787,-23.33239 -50.45188,-35.561154 -78.4451,-34.998584 -25.7204,0.51689 -53.74045,12.635644 -54.06677,39.101874 2.73043,40.14503 57.78424,62.5665 83.99659,77.96235 41.2343,24.39033 61.7906,55.6759 61.7906,93.65137 0,27.03339 -9.129,48.95784 -27.27476,65.89388 -18.05975,16.85577 -41.51555,25.3438 -70.47989,25.3438 -33.30899,0 -63.6411,-10.21798 -90.99631,-30.65393 v -61.30786 c 26.06791,32.98717 56.2391,49.48075 90.51357,49.48075 28.2107,-1.46678 52.44073,-17.0096 52.85992,-44.41199 0,-20.59686 -14.84533,-40.00079 -44.41199,-58.41142 z"
     sodipodi:nodetypes="ssssccsccsssccccs" />
  <path
     inkscape:connector-curvature="0"
     id="path3295"
     style="font-style:normal;font-variant:normal;font-weight:normal;font-stretch:normal;font-size:494.32476807px;line-height:1.25;font-family:'Gill Sans MT';-inkscape-font-specification:'Gill Sans MT, Normal';font-variant-ligatures:normal;font-variant-caps:normal;font-variant-numeric:normal;font-feature-settings:normal;text-align:start;letter-spacing:0px;word-spacing:0px;writing-mode:lr-tb;text-anchor:start;fill:#000000;fill-opacity:1;stroke:none;stroke-width:95.37651062"
     d="m 625.39703,205.17139 82.54838,-81.10016 v 45.86021 h 70.23852 v 39.5846 h -70.23852 c 0,0 0,72.57177 0,108.85765 0,25.42426 10.5398,38.13639 31.6194,38.13639 15.76947,0 49.96349,-15.93039 49.96349,-15.93039 v 41.03282 c 0,0 -35.32041,14.2408 -55.27362,14.2408 -20.11413,0 -36.71384,-6.0289 -50.20486,-17.61998 -20.98771,-18.03201 -20.03367,-48.713 -20.03367,-70.23852 v -98.47877 h -38.61912 z"
     sodipodi:nodetypes="ccccccssccsssccc" />
  <path
     inkscape:connector-curvature="0"
     id="path3297"
     style="font-style:normal;font-variant:normal;font-weight:normal;font-stretch:normal;font-size:494.32476807px;line-height:1.25;font-family:'Gill Sans MT';-inkscape-font-specification:'Gill Sans MT, Normal';font-variant-ligatures:normal;font-variant-caps:normal;font-variant-numeric:normal;font-feature-settings:normal;text-align:start;letter-spacing:0px;word-spacing:0px;writing-mode:lr-tb;text-anchor:start;fill:#181818;fill-opacity:1;stroke:none;stroke-width:95.37651062"
     d="m 993.1421,258.51405 c 0,0 0,62.91699 0,94.37549 0,7.56291 2.5746,11.34436 7.7238,11.34436 5.3101,0 24.8611,-11.8271 24.8611,-11.8271 v 26.79201 c 0,0 -28.2826,16.6095 -42.96381,16.6545 -18.82673,0.0577 -29.92982,-7.402 -33.30899,-22.206 -18.66591,14.48217 -38.55686,22.59881 -59.61827,21.72326 -33.05517,-1.37416 -55.11496,-23.95732 -54.06677,-53.8254 1.24973,-35.61115 29.78002,-54.05677 57.92868,-63.72155 l 56.2391,-19.30957 v -11.8271 c 0,-26.71156 -13.35578,-40.06734 -40.06734,-40.06734 -23.97604,0 -47.30843,12.3903 -69.99716,37.1709 v -48.03253 c 17.05678,-20.11413 41.60708,-31.01315 73.6177,-30.17119 36.61427,0.96305 72.26304,18.04132 77.96236,55.03225 1.0192,6.61484 1.6896,19.2291 1.6896,37.89501 z m -43.20516,89.54809 v -65.89387 l -29.44708,11.34436 c -20.34485,7.83777 -41.56433,18.01221 -41.03282,40.55008 0.46924,19.89735 13.87196,31.01833 31.61941,31.13667 13.99912,0.0933 38.86049,-17.13724 38.86049,-17.13724 z"
     sodipodi:nodetypes="sssccscssscssccsssccsssc" />
</svg>
