<?xml version="1.0" encoding="UTF-8" standalone="no"?>
<svg
   xmlns:dc="http://purl.org/dc/elements/1.1/"
   xmlns:cc="http://creativecommons.org/ns#"
   xmlns:rdf="http://www.w3.org/1999/02/22-rdf-syntax-ns#"
   xmlns:svg="http://www.w3.org/2000/svg"
   xmlns="http://www.w3.org/2000/svg"
   xmlns:sodipodi="http://sodipodi.sourceforge.net/DTD/sodipodi-0.dtd"
   xmlns:inkscape="http://www.inkscape.org/namespaces/inkscape"
   height="580"
   width="580"
   version="1.0"
   id="svg19186"
   sodipodi:docname="football.svg"
   inkscape:version="0.92.4 (5da689c313, 2019-01-14)">
  <defs
     id="defs19190" />
  <sodipodi:namedview
     pagecolor="#ffffff"
     bordercolor="#666666"
     borderopacity="1"
     objecttolerance="10"
     gridtolerance="10"
     guidetolerance="10"
     inkscape:pageopacity="0"
     inkscape:pageshadow="2"
     inkscape:window-width="1920"
     inkscape:window-height="1017"
     id="namedview19188"
     showgrid="false"
     inkscape:zoom="0.57543862"
     inkscape:cx="-601.42848"
     inkscape:cy="302.29541"
     inkscape:window-x="-8"
     inkscape:window-y="-8"
     inkscape:window-maximized="1"
     inkscape:current-layer="svg19186" />
  <metadata
     id="metadata2975">
    <rdf:RDF>
      <cc:Work
         rdf:about="">
        <dc:format>image/svg+xml</dc:format>
        <dc:type
           rdf:resource="http://purl.org/dc/dcmitype/StillImage" />
        <dc:title />
      </cc:Work>
    </rdf:RDF>
  </metadata>
  <path
     stroke-miterlimit="10"
     id="path10456"
     d="M 291.66,59.766 C 156.28,59.766 46.396,164.4 46.396,293.33 c 0,128.9 109.884,233.52 245.264,233.52 135.38,0 245.27,-104.62 245.27,-233.52 C 536.93,164.4 427.04,59.766 291.66,59.766 Z m -18.4,19.401 51.16,42.303 -13.52,54 -56.85,26.4 -71.9,-19.06 -10.68,-43.96 27.58,-41.621 74.21,-18.062 z m 127.4,22.563 65.87,54.02 -18.55,67.54 -60.19,9.01 -56.33,-56.33 9.01,-51.16 60.19,-23.08 z M 163.6,111.76 c -2.34,9.2 -4.69,18.41 -6.87,27.61 l -33.1,8.52 c 2.67,-4.86 6.04,-9.36 10.05,-13.54 3.52,-4.51 7.19,-8.88 12.37,-12.39 5.18,-4.02 10.36,-7.2 17.55,-10.2 z m 10.54,88.63 66.36,18.55 16.89,71.88 -69.2,53.5 -60.2,-1.68 -15.21,-79.92 61.36,-62.33 z m 282.19,40.76 33.76,56.88 -46.64,77.06 -58.52,-5.53 -21.39,-48.97 35.95,-69.23 56.84,-10.21 z m -397.057,19.41 34.957,11.2 18.55,77.57 -22.567,40.62 c -5.35,2.18 -10.376,-3.51 -15.726,-15.21 -5.851,-12.7 -13.707,-38.29 -16.381,-57.35 -2.509,-19.23 -2.344,-37.93 1.167,-56.83 z m 462.437,31.25 c 0.17,19.4 -1.35,35.78 -4.53,52.34 -3.84,16.38 -9.53,31.26 -15.21,43.3 -5.68,11.37 -10.87,19.41 -16.9,24.76 l -27.06,-31.45 47.29,-79.92 16.41,-9.03 z m -250.96,12.88 75.41,19.74 24.08,56.67 -41.62,54.67 -93.96,-19.72 -30.94,-61.88 67.03,-49.48 z m -43.79,125.38 99.65,17.58 28.58,43.79 -7.18,19.23 c -13.87,2.01 -27.93,3.51 -42.82,3.85 -15.37,0.33 -31.75,0 -46.63,-1.69 -15.89,-2.33 -30.6,-6.53 -43.48,-10.71 -12.87,-4.51 -22.72,-9.52 -31.43,-15.7 l -1.16,-22.56 44.47,-33.79 z"
     inkscape:connector-curvature="0"
     fill="#2f922e"
     fill-rule="evenodd"
     stroke-width="0.183"
     style="fill:#0098e3;fill-opacity:0.78431374" />
</svg>
