<?xml version="1.0" encoding="UTF-8" standalone="no"?>
<svg
   xmlns:dc="http://purl.org/dc/elements/1.1/"
   xmlns:cc="http://creativecommons.org/ns#"
   xmlns:rdf="http://www.w3.org/1999/02/22-rdf-syntax-ns#"
   xmlns:svg="http://www.w3.org/2000/svg"
   xmlns="http://www.w3.org/2000/svg"
   xmlns:sodipodi="http://sodipodi.sourceforge.net/DTD/sodipodi-0.dtd"
   xmlns:inkscape="http://www.inkscape.org/namespaces/inkscape"
   version="1.0"
   width="580"
   height="580"
   id="svg10"
   sodipodi:docname="garden-50k.svg"
   inkscape:version="0.92.4 (5da689c313, 2019-01-14)">
  <defs
     id="defs14" />
  <sodipodi:namedview
     pagecolor="#ffffff"
     bordercolor="#666666"
     borderopacity="1"
     objecttolerance="10"
     gridtolerance="10"
     guidetolerance="10"
     inkscape:pageopacity="0"
     inkscape:pageshadow="2"
     inkscape:window-width="1920"
     inkscape:window-height="1017"
     id="namedview12"
     showgrid="false"
     inkscape:zoom="0.8137931"
     inkscape:cx="-284.44929"
     inkscape:cy="483.79998"
     inkscape:window-x="-8"
     inkscape:window-y="-8"
     inkscape:window-maximized="1"
     inkscape:current-layer="svg10" />
  <metadata
     id="metadata2975">
    <rdf:RDF>
      <cc:Work
         rdf:about="">
        <dc:format>image/svg+xml</dc:format>
        <dc:type
           rdf:resource="http://purl.org/dc/dcmitype/StillImage" />
        <dc:title></dc:title>
      </cc:Work>
    </rdf:RDF>
  </metadata>
  <g
     id="g1957"
     transform="matrix(45.358549,0,0,-45.358549,603.55994,174.42823)">
    <path
       d="m -7.5007606,-0.26445127 c 0.178351,-0.23302835 0.343684,-0.3410806 0.506413,-0.3410806 0.286404,0 0.574109,0.32676042 0.91519,0.92690605 0.218708,0.36972095 0.369721,0.87483272 0.369721,1.38124622 0,0.3280623 -0.0677,0.6691429 -0.204388,0.9711684 -0.20569,0.4504347 -0.669143,0.6561245 -1.14952,0.6561245 -0.572807,0 -1.1612363,-0.3020255 -1.352606,-0.8748326 -0.053375,-0.1640312 -0.082016,-0.3267605 -0.082016,-0.4933953 0,-0.8344758 0.58843,-1.69368643 0.997206,-2.22613667 M -9.2751614,-1.7823902 c 0.4374164,0.026037 0.6274842,0.1913697 0.6274842,0.4790751 0,0.2447448 -0.1366926,0.58842913 -0.3684191,1.02454365 -0.3436843,0.6561245 -1.0805227,1.28491045 -1.9149987,1.39426455 l -0.13539,0.011717 c -0.72382,0 -1.270591,-0.73683821 -1.270591,-1.46195993 0,-0.27078154 0.08332,-0.54677044 0.272084,-0.77719517 0.477773,-0.5754107 1.312249,-0.7121034 2.03737,-0.7121034 0.2746874,0 0.5337525,0.01432 0.7524606,0.041659 m 4.0044428,0.82015573 c -0.05598,-0.14971103 -0.08462,-0.27468713 -0.08462,-0.38404113 0,-0.393154 0.382739,-0.5181301 1.122181,-0.5181301 h 0.20569 c 0.725121,0.01432 1.639009,0.408776 2.089444,1.10786103 0.122372,0.1757477 0.178351,0.38143747 0.178351,0.5871273 0,0.70949971 -0.656124,1.43592327 -1.421603,1.43592327 l -0.274686,-0.028641 c -0.982885,-0.2317266 -1.528354,-1.44763983 -1.814757,-2.20010007 m -2.230042,-4.03178103 c -0.408776,-0.5311484 -0.9972055,-1.3929628 -0.9972055,-2.2131184 0,-0.165333 0.02864,-0.3280623 0.082016,-0.4933952 0.1913697,-0.5858255 0.7797985,-0.887851 1.3526055,-0.887851 0.480377,0 0.94383,0.22001 1.14952,0.6561245 0.136692,0.3020255 0.204388,0.6418043 0.204388,0.9685647 0,0.5064136 -0.151013,1.0128271 -0.369721,1.3968683 -0.341081,0.5871273 -0.628786,0.9282079 -0.91519,0.9282079 -0.162729,0 -0.328061,-0.1093541 -0.506413,-0.3554008 m -1.7744003,1.516637 c -0.2187081,0.029942 -0.4777732,0.040357 -0.7524601,0.040357 -0.725122,0 -1.559598,-0.1353908 -2.037371,-0.7081979 -0.188766,-0.2343302 -0.272083,-0.5064136 -0.272083,-0.7811006 0,-0.7238199 0.54677,-1.4606582 1.27059,-1.4606582 l 0.135391,0.011717 c 0.834476,0.109354 1.5713139,0.7524602 1.9149982,1.3955664 0.2317265,0.4374163 0.3684191,0.7784969 0.3684191,1.0245436 0,0.2877054 -0.1900678,0.4504347 -0.6274842,0.4777732 m 4.0044423,-0.821458 c 0.286403,-0.7498565 0.831872,-1.9670717 1.814757,-2.1974963 l 0.274687,-0.029942 c 0.765479,0 1.421603,0.7251217 1.421603,1.4372251 0,0.2030861 -0.05598,0.4100778 -0.178351,0.5884291 -0.450435,0.6951796 -1.364323,1.092239 -2.089444,1.1052574 h -0.20569 c -0.739442,0 -1.122181,-0.1223724 -1.122181,-0.5194319 0,-0.1080523 0.02864,-0.2304247 0.08462,-0.3840412"
       style="fill:#0098e3;fill-opacity:0.78431373;fill-rule:nonzero;stroke:none;stroke-width:1.30183434"
       id="path1959"
       inkscape:connector-curvature="0" />
  </g>
</svg>
