<?xml version="1.0" encoding="UTF-8" standalone="no"?>
<svg xmlns="http://www.w3.org/2000/svg" xmlns:sodipodi="http://sodipodi.sourceforge.net/DTD/sodipodi-0.dtd" xmlns:inkscape="http://www.inkscape.org/namespaces/inkscape" enable-background="new 0 0 580 580" viewBox="0 0 580 580" height="580" width="580" version="1.1">
 <metadata id="metadata15"/>
 <defs id="defs13">
  <filter id="filter3779" color-interpolation-filters="sRGB">
   <feGaussianBlur id="feGaussianBlur3781" stdDeviation="0.11848"/>
  </filter>
 </defs>
 <path transform="matrix(32.767,0,0,32.767,27.559,-235.03)" id="path3005" d="m 14.229,17.09 c -2.105,0 -4.21,0 -6.3155,0 0.7751,-0.724 1.5502,-1.449 2.3255,-2.173 1.38,-0.01 2.763,0.02 4.142,-0.02 0.971,-0.168 0.627,-1.7 -0.315,-1.491 -0.738,0 -1.477,0 -2.215,0 0.393,-0.404 0.874,-0.735 1.195,-1.198 0.4,-0.835 -0.869,-1.462 -1.351,-0.718 -0.684,0.639 -1.367,1.277 -2.0504,1.916 -2.6196,0 -5.2393,0 -7.8589,0 -1.05472,-0.03 -0.9081,1.692 0.1225,1.506 2.0415,0 4.083,0 6.1244,0 -0.7751,0.724 -1.5502,1.449 -2.3253,2.173 -1.3576,0.01 -2.7171,-0.02 -4.0734,0.02 -0.97074,0.168 -0.6273,1.7 0.3151,1.491 0.7155,0 1.4309,0 2.1463,0 -0.4096,0.418 -0.9056,0.765 -1.2433,1.243 -0.3998,0.835 0.8693,1.461 1.3514,0.718 0.6994,-0.654 1.3987,-1.307 2.0981,-1.961 2.6427,0 5.2855,0 7.9275,0 0.982,0.02 0.982,-1.527 0,-1.506 z" inkscape:connector-curvature="0" opacity="0.8" fill="#666666" filter="url(#filter3779)" stroke="#ffffff" stroke-linejoin="round" stroke-linecap="round" stroke-width="1.221"/>
 <path id="path9" d="m 493.73,325.07 -251.44,0 c 25.34,-23.81 71.66,-48.93 97,-72.53 45.43,0 114.24,2.62 159.46,2.19 31.68,-5.46 22.5,-47.84 -10.26,-48.94 -135.01,0 -272.19,0 -402.605,0 -34.515,-2.18 -36.263,48.94 4.15,49.37 l 248.595,-2.18 c -25.56,23.81 -71.21,48.71 -96.55,72.52 -44.57,0 -116.66,0 -161.001,0 -31.894,5.47 -27.088,50.47 10.267,48.94 256.674,0 96.114,0 402.384,0 32.11,0 32.11,-50.03 0,-49.37 z" inkscape:connector-curvature="0" sodipodi:nodetypes="ccccccccccccc" fill="#5f5f5f"/>
 <path id="path2987" d="M 453.97,168.22 C 475.6,146.38 443.27,112.74 421.42,134.14 276.37,269.8 276.15,270.89 128.48,407.2 c -24.03,23.38 11.14,58.77 41.07,29.06 C 308.27,303.88 307.17,302.57 453.97,168.22 Z" inkscape:connector-curvature="0" sodipodi:nodetypes="ccccc" fill="#da0600" stroke="#da0600" stroke-width="6.553"/>
</svg>
