<?xml version="1.0" encoding="UTF-8" standalone="no"?>
<svg
   xmlns:dc="http://purl.org/dc/elements/1.1/"
   xmlns:cc="http://creativecommons.org/ns#"
   xmlns:rdf="http://www.w3.org/1999/02/22-rdf-syntax-ns#"
   xmlns:svg="http://www.w3.org/2000/svg"
   xmlns="http://www.w3.org/2000/svg"
   xmlns:sodipodi="http://sodipodi.sourceforge.net/DTD/sodipodi-0.dtd"
   xmlns:inkscape="http://www.inkscape.org/namespaces/inkscape"
   enable-background="new 0 0 580 580"
   viewBox="0 0 580 580"
   height="580"
   width="580"
   version="1.1"
   id="svg9"
   sodipodi:docname="gate-night.svg"
   inkscape:version="0.92.4 (5da689c313, 2019-01-14)">
  <sodipodi:namedview
     pagecolor="#ffffff"
     bordercolor="#666666"
     borderopacity="1"
     objecttolerance="10"
     gridtolerance="10"
     guidetolerance="10"
     inkscape:pageopacity="0"
     inkscape:pageshadow="2"
     inkscape:window-width="1920"
     inkscape:window-height="1017"
     id="namedview11"
     showgrid="false"
     inkscape:zoom="1.1508772"
     inkscape:cx="29.287945"
     inkscape:cy="248.65441"
     inkscape:window-x="-8"
     inkscape:window-y="-8"
     inkscape:window-maximized="1"
     inkscape:current-layer="svg9" />
  <metadata
     id="metadata15">
    <rdf:RDF>
      <cc:Work
         rdf:about="">
        <dc:format>image/svg+xml</dc:format>
        <dc:type
           rdf:resource="http://purl.org/dc/dcmitype/StillImage" />
      </cc:Work>
    </rdf:RDF>
  </metadata>
  <defs
     id="defs13">
    <filter
       id="filter3779"
       color-interpolation-filters="sRGB"
       x="-0.0030647535"
       width="1.0061295"
       y="-0.0043824425"
       height="1.0087649">
      <feGaussianBlur
         id="feGaussianBlur3781"
         stdDeviation="0.01776573" />
    </filter>
    <filter
       inkscape:collect="always"
       style="color-interpolation-filters:sRGB"
       id="filter817"
       x="-0.0041012966"
       width="1.0082026"
       y="-0.0043617639"
       height="1.0087235">
      <feGaussianBlur
         inkscape:collect="always"
         stdDeviation="0.58831215"
         id="feGaussianBlur819" />
    </filter>
  </defs>
  <path
     id="path3005"
     transform="matrix(33.115,0,0,33.115,24.77,-240.61)"
     d="m 14.229,17.09 c -2.105,0 -4.21,0 -6.3155,0 0.7751,-0.724 1.5502,-1.449 2.3255,-2.173 1.38,-0.01 2.763,0.02 4.142,-0.02 0.971,-0.168 0.627,-1.7 -0.315,-1.491 -0.738,0 -1.477,0 -2.215,0 0.393,-0.404 0.874,-0.735 1.195,-1.198 0.4,-0.835 -0.869,-1.462 -1.351,-0.718 -0.684,0.639 -1.367,1.277 -2.0504,1.916 -2.6196,0 -5.2393,0 -7.8589,0 -1.05472,-0.03 -0.9081,1.692 0.1225,1.506 2.0415,0 4.083,0 6.1244,0 -0.7751,0.724 -1.5502,1.449 -2.3253,2.173 -1.3576,0.01 -2.7171,-0.02 -4.0734,0.02 -0.97074,0.168 -0.6273,1.7 0.3151,1.491 0.7155,0 1.4309,0 2.1463,0 -0.4096,0.418 -0.9056,0.765 -1.2433,1.243 -0.3998,0.835 0.8693,1.461 1.3514,0.718 0.6994,-0.654 1.3987,-1.307 2.0981,-1.961 2.6427,0 5.2855,0 7.9275,0 0.982,0.02 0.982,-1.527 0,-1.506 z"
     style="stroke:#454545;stroke-opacity:1;stroke-width:1.20791182;stroke-miterlimit:4;stroke-dasharray:none;opacity:1;fill:#373737;fill-opacity:1;filter:url(#filter3779)"
     filter="url(#filter3779)"
     stroke-linejoin="round"
     stroke-linecap="round"
     stroke-width="1.208"
     stroke="#ffffff"
     fill="#666666"
     opacity="0.8" />
  <path
     id="path9"
     d="m 495.97,325.43 -254.19,0 c 25.68,-24.05 72.52,-49.45 98.2,-73.28 45.72,0 115.35,2.63 161,2.2 32.15,-5.52 22.76,-48.34 -10.42,-49.45 -136.36,0 -275.03,0 -406.66,0 -34.93,-2.21 -36.7,49.45 4.05,49.89 l 251.17,-2.2 c -25.68,24.06 -71.88,49.23 -97.54,73.29 -44.96,0 -117.8,0 -162.71,0 -32.14,5.52 -27.39,51 10.44,49.45 259.37,0 97.14,0 406.66,0 32.52,0 32.52,-50.55 0,-49.89 z"
     inkscape:connector-curvature="0"
     sodipodi:nodetypes="ccccccccccccc"
     fill="#5f5f5f"
     style="fill:#a1a1a1;fill-opacity:1" />
  <path
     id="path2987-4"
     d="m 451.88,168.93 c 21.86,-22.08 -10.9,-56.08 -32.96,-34.44 -146.63,137.1 -146.94,138.2 -296.02,275.96 -24.3,23.62 11.12,59.38 41.51,29.36 C 304.63,306.03 303.53,304.7 451.88,168.93 Z"
     inkscape:connector-curvature="0"
     sodipodi:nodetypes="ccccc"
     style="fill:#373737;fill-opacity:1;stroke:#454545;stroke-width:44;stroke-miterlimit:4;stroke-dasharray:none;stroke-opacity:1;filter:url(#filter817)" />
  <path
     id="path2987"
     d="m 453.88,166.93 c 21.86,-22.08 -10.9,-56.08 -32.96,-34.44 -146.63,137.1 -146.94,138.2 -296.02,275.96 -24.3,23.62 11.12,59.38 41.51,29.36 C 306.63,304.03 305.53,302.7 453.88,166.93 Z"
     inkscape:connector-curvature="0"
     sodipodi:nodetypes="ccccc"
     style="fill:#a1a1a1;fill-opacity:1;stroke:#a1a1a1;stroke-width:6.62300014;stroke-opacity:1" />
</svg>
