<?xml version="1.0" encoding="UTF-8" standalone="no"?>
<svg xmlns="http://www.w3.org/2000/svg" version="1.1" height="580" width="580">
 <metadata id="metadata3003"/>
 <g transform="translate(0,-472.36218)" id="layer1">
  <path id="rect3195" d="m 220.1,618.28 c 45.38,0.34 90.81,-0.7 136.16,0.57 55.16,4.03 102.98,53.8 101.72,109.66 -0.21,65.93 0.43,131.89 -0.33,197.8 -3.2,55.83 -54.74,101.69 -110.08,101.69 -46.36,-0.3 -92.76,0.7 -139.09,-0.6 -55.15,-4 -102.99,-53.73 -101.72,-109.59 0.21,-65.93 -0.43,-131.89 0.33,-197.81 3.56,-57.35 56.2,-102.86 113.01,-101.72 z"/>
  <path id="rect3199" d="m 220.18,647.55 c 44.33,0.27 88.7,-0.55 133.01,0.43 44.35,3.32 79.51,46.27 75.52,90.29 -0.88,26.78 2.23,53.91 -2.64,80.35 -9.29,40 -50.4,67.1 -90.71,63.07 -41.27,-0.26 -82.57,0.54 -123.81,-0.43 -44.35,-3.32 -79.51,-46.27 -75.52,-90.29 0.88,-26.78 -2.23,-53.91 2.64,-80.35 8.8,-36.46 43.99,-63.71 81.51,-63.07 z" opacity="0.9" fill="#ffffff"/>
  <path id="rect3013" d="m 267.74,471.94 c 9.75,0 19.51,0 29.26,0 0,53.66 0,107.32 0,160.98 -9.75,0 -19.51,0 -29.26,0 0,-53.66 0,-107.32 0,-160.98 z"/>
 </g>
</svg>
