<?xml version="1.0" encoding="UTF-8" standalone="no"?>
<svg xmlns="http://www.w3.org/2000/svg" version="1.1" height="580" width="580">
 <metadata id="metadata3003"/>
 <g transform="translate(0,-472.36218)" id="layer1">
  <path id="rect3195" d="m 462.55,831 c -0.6,31.68 1.34,63.49 -1.28,95.06 -7.4,53.86 -60.14,94.64 -113.83,91.64 -44.18,-0.5 -88.44,1 -132.56,-0.9 -53.97,-5.2 -99.54,-55.14 -97.03,-109.84 0,-25.32 0,-50.64 0,-75.96 114.9,0 229.8,0 344.7,0 z"/>
  <path id="rect3013" d="m 275.84,471.93 c 9.57,0 19.15,0 28.72,0 0,119.69 0,239.38 0,359.07 -9.57,0 -19.15,0 -28.72,0 0,-119.69 0,-239.38 0,-359.07 z"/>
 </g>
</svg>
