<?xml version="1.0" encoding="UTF-8" standalone="no"?>
<svg
   xmlns:dc="http://purl.org/dc/elements/1.1/"
   xmlns:cc="http://creativecommons.org/ns#"
   xmlns:rdf="http://www.w3.org/1999/02/22-rdf-syntax-ns#"
   xmlns:svg="http://www.w3.org/2000/svg"
   xmlns="http://www.w3.org/2000/svg"
   xmlns:sodipodi="http://sodipodi.sourceforge.net/DTD/sodipodi-0.dtd"
   xmlns:inkscape="http://www.inkscape.org/namespaces/inkscape"
   height="580"
   width="580"
   version="1.0"
   id="svg6"
   sodipodi:docname="ice_cream.svg"
   inkscape:version="0.92.4 (5da689c313, 2019-01-14)">
  <defs
     id="defs10" />
  <sodipodi:namedview
     pagecolor="#ffffff"
     bordercolor="#666666"
     borderopacity="1"
     objecttolerance="10"
     gridtolerance="10"
     guidetolerance="10"
     inkscape:pageopacity="0"
     inkscape:pageshadow="2"
     inkscape:window-width="1440"
     inkscape:window-height="848"
     id="namedview8"
     showgrid="false"
     inkscape:zoom="0.8137931"
     inkscape:cx="219.40402"
     inkscape:cy="329.43044"
     inkscape:window-x="-8"
     inkscape:window-y="-8"
     inkscape:window-maximized="1"
     inkscape:current-layer="svg6" />
  <metadata
     id="metadata10">
    <rdf:RDF>
      <cc:Work
         rdf:about="">
        <dc:format>image/svg+xml</dc:format>
        <dc:type
           rdf:resource="http://purl.org/dc/dcmitype/StillImage" />
        <dc:title></dc:title>
      </cc:Work>
    </rdf:RDF>
  </metadata>
  <path
     inkscape:connector-curvature="0"
     style="fill:#0098e3;fill-opacity:0.78431373;stroke-width:1.07379556"
     d="M 269.52197,246.18705 A 96.172494,22.877456 0 0 1 175.46676,264.3308 96.172494,22.877456 0 0 1 82.656342,247.42358 c -4.535275,6.05366 -2.203052,12.41765 6.667906,18.02714 5.611961,3.54873 10.435017,9.92323 10.435017,13.79279 0,2.5492 4.387355,7.69461 6.560715,7.69461 0.58379,0 1.61497,1.4625 2.29264,3.24914 0.67768,1.78665 3.45268,6.78515 6.16476,11.10662 2.71208,4.32145 7.54075,13.62942 10.73036,20.68517 3.18965,7.0558 6.54963,14.21745 7.46639,15.916 0.99086,1.83579 3.00305,14.15225 4.96157,30.36828 1.81207,15.00398 3.55143,28.66971 3.86554,30.36827 0.51605,2.79136 1.93835,13.60628 5.0797,38.60373 4.74806,37.78372 9.80331,79.66744 11.11974,92.13428 0.6577,6.22797 1.89499,13.40827 2.74987,15.95622 0.85483,2.54784 1.88666,6.94867 2.29264,9.77961 0.97549,6.80166 5.73877,16.47751 8.77678,17.82803 1.10275,0.49022 2.43449,0.79904 3.8568,0.96108 v 0.15482 c 0.37492,-0.0103 0.74177,-0.0381 1.10914,-0.0659 0.24547,0.0144 0.48659,0.0392 0.73505,0.0443 v -0.11056 c 1.42214,-0.16213 2.75414,-0.47086 3.85681,-0.96108 3.03795,-1.35051 7.80132,-11.02636 8.77678,-17.82803 0.40598,-2.83104 1.43781,-7.23176 2.29265,-9.77961 0.85486,-2.54784 2.0921,-9.72824 2.74985,-15.95621 1.31645,-12.46684 6.37169,-54.35066 11.11976,-92.13429 3.14131,-24.99746 4.56369,-35.81238 5.07968,-38.60373 0.3141,-1.69856 2.05343,-15.3643 3.86556,-30.36828 1.95845,-16.21603 3.97071,-28.53249 4.96156,-30.36827 0.91679,-1.69855 4.2767,-8.86024 7.4664,-15.916 3.18959,-7.05575 8.0183,-16.36369 10.73035,-20.68517 2.71214,-4.32147 5.4871,-9.31998 6.16477,-11.10661 0.67766,-1.78664 1.70886,-3.24915 2.29263,-3.24915 2.1733,0 6.56071,-5.14543 6.56071,-7.69461 0,-3.86956 4.82303,-10.24406 10.43503,-13.7928 9.07838,-5.74068 11.32847,-12.27159 6.35727,-18.45138 -0.24541,-0.30506 -0.47387,-0.55842 -0.7088,-0.83441 z"
     id="path5128-8-7" />
  <path
     inkscape:connector-curvature="0"
     style="fill:#0098e3;fill-opacity:0.78431373;stroke-width:1.37445891"
     d="m 160.26708,9.2049682 c -4.0766,0.068049 -12.83324,2.2717738 -17.65423,4.8254678 -19.36161,10.255881 -32.33898,36.160872 -28.55738,57.004852 1.92189,10.593514 1.97276,10.444298 -4.54153,13.752585 -8.74849,4.442981 -15.06592,10.875092 -19.060872,19.410437 -3.177207,6.7885 -3.488397,8.7724 -2.9008,18.52377 0.361901,6.00648 1.079466,12.25374 1.594783,13.88326 0.777663,2.45921 -0.08954,3.59214 -5.105948,6.66518 -13.897472,8.51355 -21.391815,21.44974 -21.30756,36.77409 0.0918,16.64119 8.742534,30.13788 23.501766,37.1963 a 96.172494,22.877456 0 0 0 89.255531,14.38392 96.172494,22.877456 0 0 0 81.6885,-10.85731 h 0.0613 l 0.17939,-0.0925 a 96.172494,22.877456 0 0 0 11.03663,-6.18062 c 2.73779,-1.91417 5.53461,-4.20844 7.34826,-6.10422 21.01324,-21.96546 11.38483,-59.0892 -17.61047,-67.90035 -7.2522,-2.20377 -7.27859,-2.23394 -6.16256,-6.63904 2.16255,-8.53599 1.25379,-23.66882 -1.78512,-29.71884 C 243.55655,90.812551 230.045,81.591498 214.61018,79.811588 l -8.45083,-0.973134 -0.1247,-9.13421 c -0.14258,-10.47411 -2.49858,-16.350206 -9.77217,-24.360564 -5.91698,-6.516301 -11.23835,-9.504395 -23.98087,-13.463058 -6.62519,-2.058177 -10.54879,-4.160351 -12.4367,-6.669192 -3.43839,-4.568666 -3.44736,-6.205412 -0.0679,-10.696458 1.47875,-1.965147 2.68861,-4.034873 2.68861,-4.6002793 0,-0.518052 -0.83971,-0.7324309 -2.19858,-0.7097424 z"
     id="path5181-3-1" />
  <path
     style="opacity:0.95;fill:#0098e3;fill-opacity:0.78431373;fill-rule:evenodd;stroke:none;stroke-width:0.88594353;stroke-linecap:round;stroke-linejoin:round;stroke-miterlimit:4;stroke-dasharray:none;stroke-dashoffset:319.99996948;stroke-opacity:1;paint-order:markers fill stroke"
     d="m 427.43108,70.827693 a 86.886432,88.542995 0 0 0 -86.88541,88.542067 86.886432,88.542995 0 0 0 0.0618,1.78883 c -0.0378,0.65512 -0.064,1.31315 -0.064,1.9786 v 135.99846 c 0,17.6991 13.57204,31.94748 30.42941,31.94748 h 112.91843 c 16.85735,0 30.4294,-14.24838 30.4294,-31.94748 V 163.13719 c 0,-0.73794 -0.0324,-1.46666 -0.0789,-2.19181 a 86.886432,88.542995 0 0 0 0.0767,-1.57562 A 86.886432,88.542995 0 0 0 427.431,70.827693 Z"
     id="rect5291"
     inkscape:connector-curvature="0" />
  <path
     style="opacity:0.95;fill:#0098e3;fill-opacity:0.78431373;fill-rule:evenodd;stroke:none;stroke-width:0.90769261;stroke-linecap:round;stroke-linejoin:round;stroke-miterlimit:4;stroke-dasharray:none;stroke-dashoffset:319.99996948;stroke-opacity:1;paint-order:markers fill stroke"
     d="m 406.43647,364.32469 v 190.0687 c 0,10.63725 8.82493,19.20213 19.78634,19.20213 10.9614,0 19.78632,-8.56488 19.78632,-19.20213 v -190.0687 z"
     id="rect5296"
     inkscape:connector-curvature="0" />
</svg>
