<?xml version="1.0" encoding="UTF-8" standalone="no"?>
<svg
   xmlns:dc="http://purl.org/dc/elements/1.1/"
   xmlns:cc="http://creativecommons.org/ns#"
   xmlns:rdf="http://www.w3.org/1999/02/22-rdf-syntax-ns#"
   xmlns:svg="http://www.w3.org/2000/svg"
   xmlns="http://www.w3.org/2000/svg"
   xmlns:sodipodi="http://sodipodi.sourceforge.net/DTD/sodipodi-0.dtd"
   xmlns:inkscape="http://www.inkscape.org/namespaces/inkscape"
   height="580"
   width="580"
   version="1.0"
   id="svg6"
   sodipodi:docname="ice_cream.svg"
   inkscape:version="0.92.4 (5da689c313, 2019-01-14)">
  <defs
     id="defs10" />
  <sodipodi:namedview
     pagecolor="#ffffff"
     bordercolor="#666666"
     borderopacity="1"
     objecttolerance="10"
     gridtolerance="10"
     guidetolerance="10"
     inkscape:pageopacity="0"
     inkscape:pageshadow="2"
     inkscape:window-width="1440"
     inkscape:window-height="848"
     id="namedview8"
     showgrid="false"
     inkscape:zoom="0.8137931"
     inkscape:cx="215.75168"
     inkscape:cy="301.6707"
     inkscape:window-x="-8"
     inkscape:window-y="-8"
     inkscape:window-maximized="1"
     inkscape:current-layer="svg6" />
  <metadata
     id="metadata10">
    <rdf:RDF>
      <cc:Work
         rdf:about="">
        <dc:format>image/svg+xml</dc:format>
        <dc:type
           rdf:resource="http://purl.org/dc/dcmitype/StillImage" />
        <dc:title></dc:title>
      </cc:Work>
    </rdf:RDF>
  </metadata>
  <path
     inkscape:connector-curvature="0"
     style="fill:#0098e3;fill-opacity:0.78431373;stroke-width:1.09132695"
     d="m 406.02008,242.04759 a 97.742661,23.250966 0 0 1 -95.59081,18.43998 97.742661,23.250966 0 0 1 -94.3257,-17.18326 c -4.60932,6.1525 -2.23902,12.62039 6.77677,18.32146 5.70359,3.60667 10.60539,10.08524 10.60539,14.01798 0,2.59082 4.45898,7.82024 6.66783,7.82024 0.59332,0 1.64134,1.48638 2.33007,3.30219 0.68874,1.81582 3.50905,6.89592 6.26541,11.28795 2.75636,4.392 7.66386,13.85194 10.90555,21.02289 3.24172,7.17099 6.65656,14.44957 7.58829,16.17585 1.00704,1.86576 3.05208,14.38331 5.04257,30.86409 1.84166,15.24894 3.60942,29.13779 3.92866,30.86408 0.52447,2.83693 1.96999,13.82842 5.16263,39.234 4.82558,38.40059 9.96336,80.96813 11.30129,93.63851 0.66843,6.32965 1.92593,13.62718 2.79476,16.21673 0.86879,2.58944 1.91747,7.06212 2.33007,9.93928 0.99142,6.91271 5.83247,16.74653 8.92008,18.1191 1.12075,0.49822 2.47424,0.81209 3.91977,0.97677 v 0.15735 c 0.38104,-0.0105 0.75388,-0.0387 1.12725,-0.067 0.24947,0.0146 0.49453,0.0398 0.74705,0.045 v -0.11237 c 1.44535,-0.16478 2.7991,-0.47855 3.91977,-0.97677 3.08755,-1.37256 7.92869,-11.20638 8.92008,-18.1191 0.41261,-2.87726 1.46128,-7.34983 2.33008,-9.93928 0.86882,-2.58944 2.12626,-9.88707 2.79475,-16.21672 1.33794,-12.67038 6.47571,-55.23802 11.3013,-93.63852 3.1926,-25.40559 4.6382,-36.39708 5.16262,-39.234 0.31923,-1.72629 2.08695,-15.61515 3.92867,-30.86409 1.99042,-16.48078 4.03554,-28.99833 5.04256,-30.86408 0.93176,-1.72628 4.34653,-9.0049 7.5883,-16.17585 3.24167,-7.17095 8.14922,-16.63086 10.90554,-21.02289 2.75642,-4.39203 5.57669,-9.47215 6.26542,-11.28795 0.68873,-1.81581 1.73676,-3.30219 2.33006,-3.30219 2.20879,0 6.66783,-5.22944 6.66783,-7.82024 0,-3.93274 4.90177,-10.41131 10.6054,-14.01799 9.2266,-5.8344 11.51342,-12.47194 6.46106,-18.75263 -0.24942,-0.31004 -0.48161,-0.56753 -0.72037,-0.84803 z"
     id="path5128-8-7" />
  <path
     inkscape:connector-curvature="0"
     style="fill:#0098e3;fill-opacity:0.78431373;stroke-width:1.3968991"
     d="m 294.98143,7.196411 c -4.14316,0.06916 -13.04276,2.308864 -17.94246,4.904251 -19.67772,10.423324 -32.86697,36.751255 -29.02363,57.935545 1.95327,10.76647 2.00497,10.614818 -4.61568,13.977118 -8.89132,4.51552 -15.31189,11.052645 -19.37207,19.727335 -3.22908,6.89934 -3.54535,8.91563 -2.94816,18.8262 0.36781,6.10455 1.09709,12.4538 1.62082,14.10993 0.79036,2.49936 -0.091,3.65079 -5.18931,6.774 -14.12437,8.65255 -21.74107,21.79994 -21.65544,37.37448 0.0933,16.91289 8.88527,30.62993 23.88547,37.80359 a 97.742661,23.250966 0 0 0 90.71277,14.61876 97.742661,23.250966 0 0 0 83.02219,-11.03457 h 0.0623 l 0.18231,-0.094 a 97.742661,23.250966 0 0 0 11.21682,-6.28153 c 2.78249,-1.94542 5.62498,-4.27715 7.46824,-6.20388 21.35631,-22.32408 11.5707,-60.05392 -17.89799,-69.00893 -7.37061,-2.23975 -7.39743,-2.27041 -6.26318,-6.74743 2.19786,-8.67536 1.27426,-24.05525 -1.81426,-30.20405 -6.79945,-13.536855 -20.5316,-22.908456 -36.21841,-24.717426 l -8.58881,-0.989021 -0.12673,-9.283341 c -0.14491,-10.645116 -2.53938,-16.617149 -9.93172,-24.758288 -6.01358,-6.62269 -11.42183,-9.659569 -24.37239,-13.682864 -6.73336,-2.09178 -10.72102,-4.228275 -12.63975,-6.778077 -3.49453,-4.643256 -3.50365,-6.306725 -0.069,-10.871094 1.50289,-1.997231 2.7325,-4.100749 2.7325,-4.675386 0,-0.52651 -0.85342,-0.744389 -2.23447,-0.72133 z"
     id="path5181-3-1" />
</svg>
