<?xml version="1.0" encoding="UTF-8" standalone="no"?>
<svg
   xmlns:dc="http://purl.org/dc/elements/1.1/"
   xmlns:cc="http://creativecommons.org/ns#"
   xmlns:rdf="http://www.w3.org/1999/02/22-rdf-syntax-ns#"
   xmlns:svg="http://www.w3.org/2000/svg"
   xmlns="http://www.w3.org/2000/svg"
   xmlns:sodipodi="http://sodipodi.sourceforge.net/DTD/sodipodi-0.dtd"
   xmlns:inkscape="http://www.inkscape.org/namespaces/inkscape"
   version="1.1"
   width="580"
   height="580"
   viewBox="0 0 580 580"
   enable-background="new 0 0 580 580"
   id="svg7"
   sodipodi:docname="kissing_gate-night.svg"
   inkscape:version="0.92.4 (5da689c313, 2019-01-14)">
  <defs
     id="defs11" />
  <sodipodi:namedview
     pagecolor="#ffffff"
     bordercolor="#666666"
     borderopacity="1"
     objecttolerance="10"
     gridtolerance="10"
     guidetolerance="10"
     inkscape:pageopacity="0"
     inkscape:pageshadow="2"
     inkscape:window-width="1920"
     inkscape:window-height="1017"
     id="namedview9"
     showgrid="false"
     inkscape:zoom="1.1508772"
     inkscape:cx="101.62597"
     inkscape:cy="303.47755"
     inkscape:window-x="-8"
     inkscape:window-y="-8"
     inkscape:window-maximized="1"
     inkscape:current-layer="svg7" />
  <metadata
     id="metadata15">
    <rdf:RDF>
      <cc:Work
         rdf:about="">
        <dc:format>image/svg+xml</dc:format>
        <dc:type
           rdf:resource="http://purl.org/dc/dcmitype/StillImage" />
      </cc:Work>
    </rdf:RDF>
  </metadata>
  <path
     id="path8091"
     d="m 105.78,150.46 c -24.672,-26.94 8.25,-61.543 36.13,-37.01 113.43,103.37 216.6,207.61 330.03,311.48 30.02,28.52 -8.28,66.36 -35.68,39.99 C 324.99,360.66 220.95,262.91 105.78,150.46 Z m 371.29,-0.72 c 22.5,-23.32 -14.04,-60.098 -39.75,-37.75 -148.23,143.24 -219.49,209.8 -332.93,313.67 -27.114,27.06 10.46,67.08 37.86,38.53 C 261.18,354.88 335.8,286.3 477.07,149.74 Z m 47.86,181.35 -269.88,0 c 29.18,-27.41 48.54,-51.81 77.72,-78.97 52.31,0 145.88,-2.52 197.94,-2.77 36.47,-6.29 23.64,-64.13 -11.82,-56.34 -249,0 -121.73,0 -463.541,0 -39.739,-2.51 -34.205,63.89 4.779,56.85 l 272.642,2.51 c -29.43,27.42 -48.79,51.56 -77.97,78.98 -51.31,0 -153.93,0 -204.984,0 -36.721,6.28 -23.642,64.13 11.821,56.34 394.873,0 122.483,0 463.293,0 36.97,0 36.97,-57.6 0,-56.85 z"
     opacity="0.8"
     fill="#da0600"
     stroke="#ffffff"
     stroke-linejoin="round"
     stroke-linecap="round"
     stroke-width="40"
     style="stroke:#454545;stroke-opacity:1;opacity:1;fill:#373737;fill-opacity:1" />
  <path
     d="m 524.93,331.09 -269.88,0 c 29.18,-27.41 48.54,-51.81 77.72,-78.97 52.31,0 145.88,-2.52 197.94,-2.77 36.47,-6.29 23.64,-64.13 -11.82,-56.34 -249,0 -121.73,0 -463.541,0 -39.739,-2.51 -34.205,63.89 4.779,56.85 l 272.642,2.51 c -29.43,27.42 -48.79,51.56 -77.97,78.98 -51.31,0 -153.93,0 -204.984,0 -36.721,6.28 -23.642,64.13 11.821,56.34 394.873,0 122.483,0 463.293,0 36.97,0 36.97,-57.6 0,-56.85 z"
     id="path9"
     inkscape:connector-curvature="0"
     sodipodi:nodetypes="ccccccccccccc"
     fill="#5f5f5f"
     style="fill:#a1a1a1;fill-opacity:1" />
  <path
     d="m 477.07,149.74 c 22.5,-23.32 -14.04,-60.098 -39.75,-37.75 -148.23,143.24 -219.49,209.8 -332.93,313.67 -27.114002,27.06 10.46,67.08 37.86,38.53 C 261.18,354.88 335.8,286.3 477.07,149.74 Z"
     id="path2987-3"
     inkscape:connector-curvature="0"
     sodipodi:nodetypes="ccccc"
     style="fill:#454545;fill-opacity:1;stroke:#454545;stroke-opacity:1;stroke-width:38;stroke-miterlimit:4;stroke-dasharray:none" />
  <path
     inkscape:connector-curvature="0"
     id="path8069-1"
     d="m 105.78,150.46 c -24.672002,-26.94 8.25,-61.543 36.13,-37.01 113.43,103.37 216.6,207.61 330.03,311.48 30.02,28.52 -8.28,66.36 -35.68,39.99 C 324.99,360.66 220.95,262.91 105.78,150.46 Z"
     sodipodi:nodetypes="ccccc"
     style="fill:#000000;fill-opacity:1;stroke:#454545;stroke-opacity:1;stroke-width:38;stroke-miterlimit:4;stroke-dasharray:none" />
  <path
     d="m 477.07,149.74 c 22.5,-23.32 -14.04,-60.098 -39.75,-37.75 -148.23,143.24 -219.49,209.8 -332.93,313.67 -27.114,27.06 10.46,67.08 37.86,38.53 C 261.18,354.88 335.8,286.3 477.07,149.74 Z"
     id="path2987"
     inkscape:connector-curvature="0"
     sodipodi:nodetypes="ccccc"
     fill="#2c2c2c"
     style="fill:#a1a1a1;fill-opacity:1" />
  <path
     inkscape:connector-curvature="0"
     id="path8069"
     d="m 105.78,150.46 c -24.672,-26.94 8.25,-61.543 36.13,-37.01 113.43,103.37 216.6,207.61 330.03,311.48 30.02,28.52 -8.28,66.36 -35.68,39.99 C 324.99,360.66 220.95,262.91 105.78,150.46 Z"
     sodipodi:nodetypes="ccccc"
     fill="#2c2c2c"
     style="fill:#a1a1a1;fill-opacity:1" />
</svg>
