<?xml version="1.0" encoding="UTF-8" standalone="no"?>
<svg
   xmlns:dc="http://purl.org/dc/elements/1.1/"
   xmlns:cc="http://creativecommons.org/ns#"
   xmlns:rdf="http://www.w3.org/1999/02/22-rdf-syntax-ns#"
   xmlns:svg="http://www.w3.org/2000/svg"
   xmlns="http://www.w3.org/2000/svg"
   xmlns:sodipodi="http://sodipodi.sourceforge.net/DTD/sodipodi-0.dtd"
   xmlns:inkscape="http://www.inkscape.org/namespaces/inkscape"
   height="580"
   width="580"
   version="1.0"
   id="svg22813"
   sodipodi:docname="library-night.svg"
   inkscape:version="0.92.4 (5da689c313, 2019-01-14)">
  <defs
     id="defs22817" />
  <sodipodi:namedview
     pagecolor="#ffffff"
     bordercolor="#666666"
     borderopacity="1"
     objecttolerance="10"
     gridtolerance="10"
     guidetolerance="10"
     inkscape:pageopacity="0"
     inkscape:pageshadow="2"
     inkscape:window-width="1920"
     inkscape:window-height="1017"
     id="namedview22815"
     showgrid="false"
     inkscape:zoom="2.3017545"
     inkscape:cx="303.49581"
     inkscape:cy="296.59687"
     inkscape:window-x="-8"
     inkscape:window-y="-8"
     inkscape:window-maximized="1"
     inkscape:current-layer="svg22813" />
  <metadata
     id="metadata2975">
    <rdf:RDF>
      <cc:Work
         rdf:about="">
        <dc:format>image/svg+xml</dc:format>
        <dc:type
           rdf:resource="http://purl.org/dc/dcmitype/StillImage" />
        <dc:title></dc:title>
      </cc:Work>
    </rdf:RDF>
  </metadata>
  <path
     style="font-style:normal;font-variant:normal;font-weight:normal;font-stretch:normal;font-size:398.0723877px;line-height:1.25;font-family:'Gill Sans MT';-inkscape-font-specification:'Gill Sans MT, Normal';font-variant-ligatures:normal;font-variant-caps:normal;font-variant-numeric:normal;font-feature-settings:normal;text-align:start;letter-spacing:0px;word-spacing:0px;writing-mode:lr-tb;text-anchor:start;fill:#373737;fill-opacity:1;stroke:none;stroke-width:11.24557495"
     d="M 330.02148 123.59375 L 330.02148 416.4375 C 356.85586 427.1488 393.87495 435.55183 415.11133 434.79492 C 479.74478 432.49125 530.73505 384.54347 530.5957 327.22852 C 530.46517 273.54059 499.1353 211.60379 446.22266 211.00391 C 423.54472 210.7468 403.48438 218.18555 403.48438 218.18555 L 403.48438 123.59375 L 330.02148 123.59375 z M 425.00195 287.62695 C 426.70992 287.66994 428.46518 287.82186 430.25 288.11328 C 445.20037 290.55431 449.88844 304.59107 453.375 324.16797 C 456.88459 343.87419 444.74805 358.24208 429.27539 363.14648 C 414.10242 367.95589 403.48438 363.74023 403.48438 363.74023 L 403.48438 292.36914 C 403.48438 292.36914 413.04619 287.32607 425.00195 287.62695 z "
     id="path861" />
  <path
     style="color:#000000;font-style:normal;font-variant:normal;font-weight:normal;font-stretch:normal;font-size:398.0723877px;line-height:1.25;font-family:'Gill Sans MT';-inkscape-font-specification:'Gill Sans MT, Normal';font-variant-ligatures:normal;font-variant-position:normal;font-variant-caps:normal;font-variant-numeric:normal;font-variant-alternates:normal;font-feature-settings:normal;text-indent:0;text-align:start;text-decoration:none;text-decoration-line:none;text-decoration-style:solid;text-decoration-color:#000000;letter-spacing:0px;word-spacing:0px;text-transform:none;writing-mode:lr-tb;direction:ltr;text-orientation:mixed;dominant-baseline:auto;baseline-shift:baseline;text-anchor:start;white-space:normal;shape-padding:0;clip-rule:nonzero;display:inline;overflow:visible;visibility:visible;opacity:1;isolation:auto;mix-blend-mode:normal;color-interpolation:sRGB;color-interpolation-filters:linearRGB;solid-color:#000000;solid-opacity:1;vector-effect:none;fill:#373737;fill-opacity:1;fill-rule:nonzero;stroke:none;stroke-width:41.5748024;stroke-linecap:butt;stroke-linejoin:miter;stroke-miterlimit:4;stroke-dasharray:none;stroke-dashoffset:0;stroke-opacity:1;color-rendering:auto;image-rendering:auto;shape-rendering:auto;text-rendering:auto;enable-background:accumulate"
     d="m 51.732422,121.80469 v 20.78906 291.64648 H 254.84375 V 357.37891 H 132.2793 V 121.80469 Z"
     id="path853-0"
     inkscape:connector-curvature="0" />
  <path
     style="color:#000000;font-style:normal;font-variant:normal;font-weight:normal;font-stretch:normal;font-size:398.0723877px;line-height:1.25;font-family:'Gill Sans MT';-inkscape-font-specification:'Gill Sans MT, Normal';font-variant-ligatures:normal;font-variant-position:normal;font-variant-caps:normal;font-variant-numeric:normal;font-variant-alternates:normal;font-feature-settings:normal;text-indent:0;text-align:start;text-decoration:none;text-decoration-line:none;text-decoration-style:solid;text-decoration-color:#000000;letter-spacing:0px;word-spacing:0px;text-transform:none;writing-mode:lr-tb;direction:ltr;text-orientation:mixed;dominant-baseline:auto;baseline-shift:baseline;text-anchor:start;white-space:normal;shape-padding:0;clip-rule:nonzero;display:inline;overflow:visible;visibility:visible;opacity:1;isolation:auto;mix-blend-mode:normal;color-interpolation:sRGB;color-interpolation-filters:linearRGB;solid-color:#000000;solid-opacity:1;vector-effect:none;fill:#373737;fill-opacity:1;fill-rule:nonzero;stroke:none;stroke-width:41.5748024;stroke-linecap:butt;stroke-linejoin:miter;stroke-miterlimit:4;stroke-dasharray:none;stroke-dashoffset:0;stroke-opacity:1;color-rendering:auto;image-rendering:auto;shape-rendering:auto;text-rendering:auto;enable-background:accumulate"
     d="m 281.60156,139.25586 c -11.03948,0 -22.181,5.47598 -29.19531,12.56445 -7.1186,7.19386 -12.24805,18.2323 -12.24805,28.96875 0,10.73646 4.67958,21.70894 12.24805,29.35742 1.49428,1.51008 3.25619,2.84975 5.06055,4.14258 h -14.18946 v 20.78711 199.16406 h 77.03711 V 214.28906 h -14.02734 c 1.73474,-1.25079 3.46354,-2.51991 4.98047,-4.02929 7.45705,-7.41996 12.35937,-18.71106 12.35937,-29.47071 0,-10.75964 -4.7399,-22.13067 -12.5957,-29.70312 -7.896,-7.61119 -18.86541,-11.83008 -29.42969,-11.83008 z"
     id="path855-0"
     inkscape:connector-curvature="0" />
  <path
     inkscape:connector-curvature="0"
     id="path853"
     style="font-style:normal;font-variant:normal;font-weight:normal;font-stretch:normal;font-size:398.0723877px;line-height:1.25;font-family:'Gill Sans MT';-inkscape-font-specification:'Gill Sans MT, Normal';font-variant-ligatures:normal;font-variant-caps:normal;font-variant-numeric:normal;font-feature-settings:normal;text-align:start;letter-spacing:0px;word-spacing:0px;writing-mode:lr-tb;text-anchor:start;fill:#a1a1a1;fill-opacity:1;stroke:none;stroke-width:9.95180988"
     d="m 72.520001,142.59289 h 38.971289 v 235.5731 H 234.056 v 35.28749 H 72.520001 Z"
     sodipodi:nodetypes="ccccccc" />
  <path
     inkscape:connector-curvature="0"
     id="path855"
     style="font-style:normal;font-variant:normal;font-weight:normal;font-stretch:normal;font-size:398.0723877px;line-height:1.25;font-family:'Gill Sans MT';-inkscape-font-specification:'Gill Sans MT, Normal';font-variant-ligatures:normal;font-variant-caps:normal;font-variant-numeric:normal;font-feature-settings:normal;text-align:start;letter-spacing:0px;word-spacing:0px;writing-mode:lr-tb;text-anchor:start;fill:#a1a1a1;fill-opacity:1;stroke:none;stroke-width:9.95180988"
     d="m 281.60098,160.04276 c 5.65084,0 10.84701,2.0035 15.00395,6.0105 4.15694,4.007 6.23541,8.98344 6.23541,14.73543 0,5.75199 -2.07847,10.59918 -6.23541,14.73544 -4.15694,4.13626 -9.35311,6.20439 -15.00395,6.20439 -5.65084,0 -10.26232,-2.00338 -14.41938,-6.20439 -4.15706,-4.20101 -6.2354,-9.24197 -6.2354,-14.73544 0,-5.49347 2.07834,-10.14664 6.2354,-14.34765 4.15706,-4.20101 8.76854,-6.39828 14.41938,-6.39828 z m -17.53708,75.03438 h 35.46387 V 413.45348 H 264.0639 Z"
     sodipodi:nodetypes="zzzzzzzzzccccc" />
  <path
     style="font-style:normal;font-variant:normal;font-weight:normal;font-stretch:normal;font-size:398.0723877px;line-height:1.25;font-family:'Gill Sans MT';-inkscape-font-specification:'Gill Sans MT, Normal';font-variant-ligatures:normal;font-variant-caps:normal;font-variant-numeric:normal;font-feature-settings:normal;text-align:start;letter-spacing:0px;word-spacing:0px;writing-mode:lr-tb;text-anchor:start;fill:#a1a1a1;fill-opacity:1;stroke:none;stroke-width:9.95180988"
     d="M 349.02148 142.59375 L 349.02148 403.56445 C 372.76866 413.04345 397.25952 417.22647 416.05273 416.55664 C 473.25032 414.518 511.07059 373.24059 510.94727 322.51953 C 510.83176 275.00822 480.41506 231.73009 433.58984 231.19922 C 413.52092 230.97169 384.48438 247.87305 384.48438 247.87305 L 384.48438 142.59375 L 349.02148 142.59375 z M 429.16406 265.0293 C 452.29636 265.27226 474.41357 293.5122 475.09375 324.07227 C 475.77393 354.63234 445.99546 382.74068 421.70312 383.5957 C 397.41078 384.45072 384.48438 378.16602 384.48438 378.16602 L 384.48438 281.60938 C 384.48438 281.60938 406.03176 264.78634 429.16406 265.0293 z "
     id="path824" />
</svg>
