<?xml version="1.0" encoding="UTF-8" standalone="no"?>
<svg
   xmlns:dc="http://purl.org/dc/elements/1.1/"
   xmlns:cc="http://creativecommons.org/ns#"
   xmlns:rdf="http://www.w3.org/1999/02/22-rdf-syntax-ns#"
   xmlns:svg="http://www.w3.org/2000/svg"
   xmlns="http://www.w3.org/2000/svg"
   xmlns:sodipodi="http://sodipodi.sourceforge.net/DTD/sodipodi-0.dtd"
   xmlns:inkscape="http://www.inkscape.org/namespaces/inkscape"
   enable-background="new 0 0 580 580"
   viewBox="0 0 580 580"
   height="580"
   width="580"
   version="1.1"
   id="svg10"
   sodipodi:docname="lift_gate-night.svg"
   inkscape:version="0.92.4 (5da689c313, 2019-01-14)">
  <sodipodi:namedview
     pagecolor="#ffffff"
     bordercolor="#666666"
     borderopacity="1"
     objecttolerance="10"
     gridtolerance="10"
     guidetolerance="10"
     inkscape:pageopacity="0"
     inkscape:pageshadow="2"
     inkscape:window-width="1920"
     inkscape:window-height="1017"
     id="namedview12"
     showgrid="false"
     inkscape:zoom="0.8137931"
     inkscape:cx="289.39384"
     inkscape:cy="320.82159"
     inkscape:window-x="-8"
     inkscape:window-y="-8"
     inkscape:window-maximized="1"
     inkscape:current-layer="svg10" />
  <metadata
     id="metadata24">
    <rdf:RDF>
      <cc:Work
         rdf:about="">
        <dc:format>image/svg+xml</dc:format>
        <dc:type
           rdf:resource="http://purl.org/dc/dcmitype/StillImage" />
      </cc:Work>
    </rdf:RDF>
  </metadata>
  <defs
     id="defs22">
    <filter
       id="filter3844"
       color-interpolation-filters="sRGB">
      <feGaussianBlur
         id="feGaussianBlur3846"
         stdDeviation="0.1106" />
    </filter>
  </defs>
  <path
     id="path8077"
     d="m 60.716,105.36 c -18.787,0 -20.353,20.35 -19.048,34.44 0,106.2 0,212.64 0,318.84 4.174,19.05 25.57,14.88 39.92,15.4 15.395,-2.62 36.792,5.47 44.882,-12.01 3.39,-22.17 0,-45.4 2.61,-67.84 0,-35.22 0,-70.71 0,-105.92 -34.967,12.52 -79.585,-12.01 -80.889,-50.89 -2.87,-29.74 18.525,-61.31 49.575,-63.66 11.484,-5.47 36.274,0 31.314,-18.53 -2.61,-14.6 4.18,-31.82 -5.49,-44.35 -12.78,-9.66 -29.739,-4.17 -44.611,-5.48 -5.74,0 -11.741,0 -17.482,0 z m 46.444,155.77 c -26.355,2.61 -39.922,-35.74 -19.31,-51.92 15.13,-10.18 34.44,-9.92 51.4,-15.14 121.32,-26.62 242.39,-54.01 363.45,-80.62 25.05,-4.18 43.32,28.44 26.88,47.49 -12.52,14.34 -33.13,12.52 -49.83,18 -123.15,27.14 -246.31,54.8 -369.46,81.93 l -3.13,0 0,0 z m 360.33,-1.83 c -16.96,0 -16.18,19.04 -15.4,31.05 0,57.14 0,114.02 0,171.16 4.17,17.48 24.53,11.22 37.57,12.53 13.83,0 28.7,2.61 42.01,-2.62 11.48,-9.91 5.22,-26.61 6.78,-39.65 0,-53.49 0,-106.71 0,-160.2 -4.43,-17.22 -24.52,-11.23 -37.57,-12.27 -11.22,0 -22.44,0 -33.39,0 z"
     inkscape:connector-curvature="0"
     opacity="0.8"
     fill="none"
     stroke="#ffffff"
     stroke-linejoin="round"
     stroke-linecap="round"
     stroke-width="43.37"
     style="opacity:1;stroke:#454545;stroke-opacity:1;fill:#373737;fill-opacity:1" />
  <path
     id="path12"
     d="m 107.16,261.13 c -26.355,2.61 -39.922,-35.74 -19.31,-51.92 15.13,-10.18 34.44,-9.92 51.4,-15.14 121.32,-26.62 242.39,-54.01 363.45,-80.62 25.05,-4.18 43.32,28.44 26.88,47.49 -12.52,14.34 -33.13,12.52 -49.83,18 -123.15,27.14 -246.31,54.8 -369.46,81.93 l -3.13,0 0,0 z"
     inkscape:connector-curvature="0"
     fill="#2c2c2c"
     style="fill:#a1a1a1;fill-opacity:1" />
  <path
     id="path18"
     d="m 60.716,105.36 c -18.787,0 -20.353,20.35 -19.048,34.44 0,106.2 0,212.64 0,318.84 4.174,19.05 25.57,14.88 39.92,15.4 15.395,-2.62 36.792,5.47 44.882,-12.01 3.39,-22.17 0,-45.4 2.61,-67.84 0,-35.22 0,-70.71 0,-105.92 -34.967,12.52 -79.585,-12.01 -80.889,-50.89 -2.87,-29.74 18.525,-61.31 49.575,-63.66 11.484,-5.47 36.274,0 31.314,-18.53 -2.61,-14.6 4.18,-31.82 -5.49,-44.35 -12.78,-9.66 -29.739,-4.17 -44.611,-5.48 -5.74,0 -11.741,0 -17.482,0 z"
     inkscape:connector-curvature="0"
     fill="#5f5f5f"
     style="fill:#a1a1a1;fill-opacity:1" />
  <path
     id="path15"
     d="m 467.49,259.3 c -16.96,0 -16.18,19.04 -15.4,31.05 0,57.14 0,114.02 0,171.16 4.17,17.48 24.53,11.22 37.57,12.53 13.83,0 28.7,2.61 42.01,-2.62 11.48,-9.91 5.22,-26.61 6.78,-39.65 0,-53.49 0,-106.71 0,-160.2 -4.43,-17.22 -24.52,-11.23 -37.57,-12.27 -11.22,0 -22.44,0 -33.39,0 z"
     inkscape:connector-curvature="0"
     fill="#5f5f5f"
     style="fill:#a1a1a1;fill-opacity:1" />
</svg>
