<?xml version="1.0" encoding="UTF-8" standalone="no"?>
<svg
   xmlns:dc="http://purl.org/dc/elements/1.1/"
   xmlns:cc="http://creativecommons.org/ns#"
   xmlns:rdf="http://www.w3.org/1999/02/22-rdf-syntax-ns#"
   xmlns:svg="http://www.w3.org/2000/svg"
   xmlns="http://www.w3.org/2000/svg"
   xmlns:sodipodi="http://sodipodi.sourceforge.net/DTD/sodipodi-0.dtd"
   xmlns:inkscape="http://www.inkscape.org/namespaces/inkscape"
   height="580"
   width="580"
   version="1.0"
   id="svg8"
   sodipodi:docname="lighthouse-50k.svg"
   inkscape:version="0.92.4 (5da689c313, 2019-01-14)">
  <defs
     id="defs12" />
  <sodipodi:namedview
     pagecolor="#ffffff"
     bordercolor="#666666"
     borderopacity="1"
     objecttolerance="10"
     gridtolerance="10"
     guidetolerance="10"
     inkscape:pageopacity="0"
     inkscape:pageshadow="2"
     inkscape:window-width="1920"
     inkscape:window-height="1017"
     id="namedview10"
     showgrid="false"
     inkscape:zoom="0.8137931"
     inkscape:cx="607.77172"
     inkscape:cy="92.485013"
     inkscape:window-x="-8"
     inkscape:window-y="-8"
     inkscape:window-maximized="1"
     inkscape:current-layer="svg8" />
  <metadata
     id="metadata2975">
    <rdf:RDF>
      <cc:Work
         rdf:about="">
        <dc:format>image/svg+xml</dc:format>
        <dc:type
           rdf:resource="http://purl.org/dc/dcmitype/StillImage" />
      </cc:Work>
    </rdf:RDF>
  </metadata>
  <path
     style="fill:#231f20;fill-opacity:1;fill-rule:nonzero;stroke:none;stroke-width:51.58753967"
     d="m 546.77396,174.4618 -2.42474,8.66671 -101.47268,-34.66683 2.42475,-8.66671 z"
     id="path4531" />
  <path
     style="fill:#231f20;fill-opacity:1;fill-rule:nonzero;stroke:none;stroke-width:51.58753967"
     d="m 442.87666,74.79505 98.9449,-35.234421 3.14671,8.666707 -99.66714,35.234035 z"
     id="path4529" />
  <path
     style="fill:#231f20;fill-opacity:1;fill-rule:nonzero;stroke:none;stroke-width:51.58753967"
     d="M 302.45508 71.802734 C 275.83591 71.802734 246.74155 89.136924 242.4082 118.74805 L 242.4082 146.03711 L 220.74023 146.03711 L 220.74023 165.17578 L 241.78906 165.17578 L 221.30859 450.45508 C 218.93557 481.35576 171.26879 527.11523 120.45508 527.11523 L 120.45508 541.30078 L 484.91992 541.30078 L 484.91992 527.11523 C 434.20939 527.11523 386.59407 480.73671 384.06641 450.45508 L 362.9668 165.17578 L 384.63477 165.17578 L 384.63477 146.03711 L 362.9668 146.03711 L 362.9668 118.74805 C 358.06597 89.136924 329.59011 71.802734 302.45508 71.802734 z M 258.50195 169.50977 L 346.97461 169.50977 L 367.30078 451.02344 C 369.20951 473.92831 385.40158 505.33563 423.06641 524.68945 L 183.64844 524.68945 C 212.64063 506.73699 235.54647 478.2605 237.45508 450.45508 L 258.50195 169.50977 z "
     id="path4527" />
  <path
     style="fill:#231f20;fill-opacity:1;fill-rule:nonzero;stroke:none;stroke-width:51.58753967"
     d="m 60.4582,48.227336 3.09525,-8.666707 99.04809,35.234421 -3.14671,8.666321 z"
     id="path4523" />
  <path
     style="fill:#231f20;fill-opacity:1;fill-rule:nonzero;stroke:none;stroke-width:51.58753967"
     d="M 162.60154,148.46168 61.12883,183.12851 57.98211,174.4618 159.45483,139.79497 Z"
     id="path5137" />
</svg>
