<?xml version="1.0" encoding="UTF-8" standalone="no"?>
<svg
   xmlns:dc="http://purl.org/dc/elements/1.1/"
   xmlns:cc="http://creativecommons.org/ns#"
   xmlns:rdf="http://www.w3.org/1999/02/22-rdf-syntax-ns#"
   xmlns:svg="http://www.w3.org/2000/svg"
   xmlns="http://www.w3.org/2000/svg"
   xmlns:sodipodi="http://sodipodi.sourceforge.net/DTD/sodipodi-0.dtd"
   xmlns:inkscape="http://www.inkscape.org/namespaces/inkscape"
   height="580"
   width="580"
   version="1.0"
   id="svg8"
   sodipodi:docname="lighthouse-night.svg"
   inkscape:version="0.92.4 (5da689c313, 2019-01-14)">
  <defs
     id="defs12" />
  <sodipodi:namedview
     pagecolor="#ffffff"
     bordercolor="#666666"
     borderopacity="1"
     objecttolerance="10"
     gridtolerance="10"
     guidetolerance="10"
     inkscape:pageopacity="0"
     inkscape:pageshadow="2"
     inkscape:window-width="1920"
     inkscape:window-height="1017"
     id="namedview10"
     showgrid="false"
     inkscape:zoom="0.40689655"
     inkscape:cx="-119.19492"
     inkscape:cy="290"
     inkscape:window-x="-8"
     inkscape:window-y="-8"
     inkscape:window-maximized="1"
     inkscape:current-layer="svg8" />
  <metadata
     id="metadata2975">
    <rdf:RDF>
      <cc:Work
         rdf:about="">
        <dc:format>image/svg+xml</dc:format>
        <dc:type
           rdf:resource="http://purl.org/dc/dcmitype/StillImage" />
        <dc:title></dc:title>
      </cc:Work>
    </rdf:RDF>
  </metadata>
  <path
     inkscape:connector-curvature="0"
     id="path1398"
     style="fill:#a1a1a1;fill-opacity:1;fill-rule:evenodd;stroke:none;stroke-width:77.1860199"
     d="m 412.20265,202.90013 c 8.02735,-3.93649 18.52465,-7.25549 31.4919,-9.87981 13.12162,-2.54714 24.8539,-3.93649 35.27401,-4.09086 2.31558,0.46312 3.78211,2.62432 4.24523,6.17488 l 0.61749,7.79579 -0.61749,8.2589 c -0.46312,3.78212 -1.92965,5.86614 -4.24523,6.25207 -10.42011,-0.0772 -22.15239,-1.69809 -35.27401,-4.63116 -12.96725,-2.93307 -23.46455,-6.25207 -31.4919,-9.87981 m -170.81267,4.78553 h 104.20113 v -4.78553 c -0.30874,-17.6756 -5.01709,-30.79722 -14.3566,-39.36487 -9.33951,-8.56765 -21.99801,-12.81288 -37.82115,-12.81288 -17.6756,0.23156 -30.72003,5.09428 -39.36487,14.43379 -8.41328,9.26232 -12.81288,21.84364 -12.65851,37.74396 z m -23.69611,42.37513 H 369.21004 V 226.44187 H 217.69387 Z M 84.316429,530.78635 H 155.1732 c 34.96526,-33.57592 58.66137,-72.40049 71.01114,-116.55089 12.34976,-44.15041 18.06153,-92.39167 17.13529,-144.72379 h -44.99945 v -61.82601 h 23.61893 v -4.78553 c 0.46311,-20.68585 7.25548,-37.58959 20.68585,-50.86559 13.276,-13.35318 30.25692,-20.22274 50.7884,-20.76304 20.68586,0.5403 37.51241,7.40986 50.94278,20.76304 13.27599,13.276 20.22273,30.17974 20.68585,50.86559 v 4.78553 h 23.61892 v 61.82601 H 343.4299 c -0.69467,52.33212 5.0171,100.57338 17.36686,144.72379 12.19539,44.1504 35.8915,82.97497 70.85677,116.55089 h 70.85677 v 19.45088 H 84.316429 Z M 293.41336,84.110842 c -3.62774,-7.718602 -6.94674,-18.061529 -9.80262,-31.260339 -3.01026,-13.19881 -4.55398,-25.085457 -4.70835,-35.428384 0.30874,-2.392767 2.46995,-3.782115 6.25207,-4.245231 l 8.2589,-0.617488 8.41328,0.617488 c 3.62774,0.463116 5.78895,1.852464 6.17488,4.245231 -0.15437,10.342927 -1.62091,22.229574 -4.63116,35.428384 -3.01026,13.19881 -6.32925,23.541737 -9.957,31.260339 m -83.3609,35.428388 c -8.56765,-2.54714 -18.37027,-7.56423 -29.71662,-15.12846 -11.11479,-7.564234 -20.06837,-15.051278 -26.55199,-22.38395 -2.2384,-1.698093 -2.2384,-4.09086 0,-7.332673 l 4.24523,-7.255486 6.94674,-3.936487 c 3.16463,-2.084022 5.5574,-2.238394 6.94674,-0.308744 7.64142,6.560812 15.36002,15.437205 23.07862,26.629178 7.48705,11.191972 12.65851,21.148972 15.05128,29.716622 m -35.42839,83.3609 c -7.87297,3.62774 -18.37027,6.94674 -31.49189,9.87981 -12.96725,2.93307 -24.77672,4.55398 -35.11964,4.63116 -2.46996,-0.38593 -3.78212,-2.46995 -4.24523,-6.25207 l -0.61749,-8.2589 0.61749,-7.79579 c 0.46311,-3.55056 1.77527,-5.71176 4.24523,-6.17488 10.34292,0.15437 22.15239,1.54372 35.11964,4.09086 13.12162,2.62432 23.61892,5.94332 31.49189,9.87981 m 202.1502,-83.3609 c 2.54713,-8.56765 7.56423,-18.52465 15.20564,-29.716622 7.7186,-11.191973 15.43721,-20.068366 23.07862,-26.629178 1.38935,-1.92965 3.62775,-1.775278 6.94674,0.308744 l 6.94675,3.936487 4.16804,7.255486 c 2.16121,3.241813 2.16121,5.63458 0,7.332673 -6.56081,7.332672 -15.36002,14.819716 -26.62918,22.38395 -11.19197,7.56423 -21.14897,12.58132 -29.71661,15.12846 m -37.97553,295.85402 c -5.86613,-20.76304 -9.18513,-43.14699 -11.19197,-67.15184 -2.08402,-24.08204 -3.01025,-50.32529 -2.85588,-78.72974 h -62.52068 c 0.69467,55.11082 -4.24523,103.58364 -15.28283,145.49565 -10.96042,41.91201 -32.80406,80.50502 -65.37656,115.77903 h 223.68509 c -26.08888,-28.01852 -45.38538,-58.19826 -57.58077,-90.30764 z" />
</svg>
