<?xml version="1.0" encoding="UTF-8" standalone="no"?>
<svg
   xmlns:dc="http://purl.org/dc/elements/1.1/"
   xmlns:cc="http://creativecommons.org/ns#"
   xmlns:rdf="http://www.w3.org/1999/02/22-rdf-syntax-ns#"
   xmlns:svg="http://www.w3.org/2000/svg"
   xmlns="http://www.w3.org/2000/svg"
   xmlns:sodipodi="http://sodipodi.sourceforge.net/DTD/sodipodi-0.dtd"
   xmlns:inkscape="http://www.inkscape.org/namespaces/inkscape"
   width="580"
   height="580"
   version="1.1"
   id="svg4146"
   sodipodi:docname="memorial-night.svg"
   inkscape:version="0.92.4 (5da689c313, 2019-01-14)">
  <defs
     id="defs4150" />
  <sodipodi:namedview
     pagecolor="#ffffff"
     bordercolor="#666666"
     borderopacity="1"
     objecttolerance="10"
     gridtolerance="10"
     guidetolerance="10"
     inkscape:pageopacity="0"
     inkscape:pageshadow="2"
     inkscape:window-width="1920"
     inkscape:window-height="1017"
     id="namedview4148"
     showgrid="false"
     inkscape:zoom="1.2111994"
     inkscape:cx="219.35212"
     inkscape:cy="132.40392"
     inkscape:window-x="-8"
     inkscape:window-y="-8"
     inkscape:window-maximized="1"
     inkscape:current-layer="svg4146" />
  <metadata
     id="metadata16">
    <rdf:RDF>
      <cc:Work
         rdf:about="">
        <dc:format>image/svg+xml</dc:format>
        <dc:type
           rdf:resource="http://purl.org/dc/dcmitype/StillImage" />
        <dc:title />
      </cc:Work>
    </rdf:RDF>
  </metadata>
  <path
     style="color:#000000;font-style:normal;font-variant:normal;font-weight:normal;font-stretch:normal;font-size:186.09791565px;line-height:1.25;font-family:'Gill Sans MT';-inkscape-font-specification:'Gill Sans MT, Normal';font-variant-ligatures:normal;font-variant-position:normal;font-variant-caps:normal;font-variant-numeric:normal;font-variant-alternates:normal;font-feature-settings:normal;text-indent:0;text-align:start;text-decoration:none;text-decoration-line:none;text-decoration-style:solid;text-decoration-color:#000000;letter-spacing:0px;word-spacing:0px;text-transform:none;writing-mode:lr-tb;direction:ltr;text-orientation:mixed;dominant-baseline:auto;baseline-shift:baseline;text-anchor:start;white-space:normal;shape-padding:0;clip-rule:nonzero;display:inline;overflow:visible;visibility:visible;opacity:1;isolation:auto;mix-blend-mode:normal;color-interpolation:sRGB;color-interpolation-filters:linearRGB;solid-color:#000000;solid-opacity:1;vector-effect:none;fill:#373737;fill-opacity:1;fill-rule:nonzero;stroke:none;stroke-width:25;stroke-linecap:butt;stroke-linejoin:miter;stroke-miterlimit:4;stroke-dasharray:none;stroke-dashoffset:0;stroke-opacity:1;color-rendering:auto;image-rendering:auto;shape-rendering:auto;text-rendering:auto;enable-background:accumulate"
     d="M 83.826172,212.06055 V 364.00391 H 127 v -75.76953 l 20.94727,26.06445 h 15.37695 l 20.54883,-25.80664 v 75.51172 h 43.26367 V 212.06055 h -35.37891 l -3.75195,4.65234 -32.36328,40.12109 -36.27149,-44.77343 z"
     id="path4699-4"
     inkscape:connector-curvature="0" />
  <path
     style="color:#000000;font-style:normal;font-variant:normal;font-weight:normal;font-stretch:normal;font-size:186.09791565px;line-height:1.25;font-family:'Gill Sans MT';-inkscape-font-specification:'Gill Sans MT, Normal';font-variant-ligatures:normal;font-variant-position:normal;font-variant-caps:normal;font-variant-numeric:normal;font-variant-alternates:normal;font-feature-settings:normal;text-indent:0;text-align:start;text-decoration:none;text-decoration-line:none;text-decoration-style:solid;text-decoration-color:#000000;letter-spacing:0px;word-spacing:0px;text-transform:none;writing-mode:lr-tb;direction:ltr;text-orientation:mixed;dominant-baseline:auto;baseline-shift:baseline;text-anchor:start;white-space:normal;shape-padding:0;clip-rule:nonzero;display:inline;overflow:visible;visibility:visible;opacity:1;isolation:auto;mix-blend-mode:normal;color-interpolation:sRGB;color-interpolation-filters:linearRGB;solid-color:#000000;solid-opacity:1;vector-effect:none;fill:#373737;fill-opacity:1;fill-rule:nonzero;stroke:none;stroke-width:25;stroke-linecap:butt;stroke-linejoin:miter;stroke-miterlimit:4;stroke-dasharray:none;stroke-dashoffset:0;stroke-opacity:1;color-rendering:auto;image-rendering:auto;shape-rendering:auto;text-rendering:auto;enable-background:accumulate"
     d="M 274.60938 253.76953 C 260.21163 253.76953 246.68548 259.43622 237.26172 269.88086 C 227.82982 280.27557 223.21875 294.17787 223.21875 309.25 C 223.21875 319.39698 225.30137 329.02376 229.73242 337.49023 L 229.76367 337.55078 L 229.79688 337.61328 C 234.11772 345.64854 240.15052 352.46207 247.56836 357.43359 C 255.85121 362.98487 265.94599 365.27539 276.88086 365.27539 C 284.50032 365.27539 291.49244 364.47107 297.91406 362.59375 C 304.34622 360.73109 310.55096 357.70887 316.52734 353.72461 L 322.09375 350.01367 L 322.09375 323.6582 L 323.54883 323.6582 L 323.54883 309.06836 C 323.54883 293.93048 319.50243 280.18046 310.66016 269.79688 C 301.81835 259.41384 288.60946 253.76953 274.60938 253.76953 z M 272.58984 323.6582 L 288.39844 323.6582 C 285.51712 324.36946 282.57157 324.82812 279.42578 324.82812 C 276.46006 324.82812 274.3562 324.41656 272.58984 323.6582 z "
     id="path4783" />
  <path
     style="color:#000000;font-style:normal;font-variant:normal;font-weight:normal;font-stretch:normal;font-size:186.09791565px;line-height:1.25;font-family:'Gill Sans MT';-inkscape-font-specification:'Gill Sans MT, Normal';font-variant-ligatures:normal;font-variant-position:normal;font-variant-caps:normal;font-variant-numeric:normal;font-variant-alternates:normal;font-feature-settings:normal;text-indent:0;text-align:start;text-decoration:none;text-decoration-line:none;text-decoration-style:solid;text-decoration-color:#000000;letter-spacing:0px;word-spacing:0px;text-transform:none;writing-mode:lr-tb;direction:ltr;text-orientation:mixed;dominant-baseline:auto;baseline-shift:baseline;text-anchor:start;white-space:normal;shape-padding:0;clip-rule:nonzero;display:inline;overflow:visible;visibility:visible;opacity:1;isolation:auto;mix-blend-mode:normal;color-interpolation:sRGB;color-interpolation-filters:linearRGB;solid-color:#000000;solid-opacity:1;vector-effect:none;fill:#373737;fill-opacity:1;fill-rule:nonzero;stroke:none;stroke-width:25;stroke-linecap:butt;stroke-linejoin:miter;stroke-miterlimit:4;stroke-dasharray:none;stroke-dashoffset:0;stroke-opacity:1;color-rendering:auto;image-rendering:auto;shape-rendering:auto;text-rendering:auto;enable-background:accumulate"
     d="m 421.72461,253.58789 c -9.64279,0 -18.67626,3.69241 -26.74805,9.81641 -7.18002,-6.0344 -16.13211,-9.63477 -25.59179,-9.63477 -4.20698,0 -8.27522,0.79387 -12.21485,2.1582 v -0.52343 h -41.53906 v 108.59961 h 41.53906 v -67.92774 c 1.5094,-1.34925 2.75466,-2.34594 3.32422,-2.66601 1.0615,-0.56603 2.00499,-0.83008 3.5293,-0.83008 3.6872,0 2.8145,0.30338 2.62109,0.0156 l 0.0254,0.041 0.0274,0.0391 c -0.30865,-0.45167 1.54687,4.15075 1.54687,12.30274 v 59.02539 h 41.62891 v -68.16407 c 2.70936,-2.38516 4.69763,-2.89648 6.67187,-2.89648 2.44267,0 1.82205,-0.0337 2.36719,0.67383 0.52927,0.68693 1.67187,3.09962 1.67187,8.36328 v 62.02344 h 41.53711 v -61.8418 c 0,-13.95947 -2.96293,-26.32184 -11.02343,-35.42773 -7.33262,-8.34691 -18.21475,-13.14649 -29.37305,-13.14649 z m -34.38672,24.98242 0.0547,0.0801 c -0.0113,-0.0168 -0.0258,-0.0301 -0.0371,-0.0469 -0.007,-0.0108 -0.0102,-0.0224 -0.0176,-0.0332 z"
     id="path4703-5"
     inkscape:connector-curvature="0" />
  <path
     style="color:#000000;font-style:normal;font-variant:normal;font-weight:normal;font-stretch:normal;font-size:186.09791565px;line-height:1.25;font-family:'Gill Sans MT';-inkscape-font-specification:'Gill Sans MT, Normal';font-variant-ligatures:normal;font-variant-position:normal;font-variant-caps:normal;font-variant-numeric:normal;font-variant-alternates:normal;font-feature-settings:normal;text-indent:0;text-align:start;text-decoration:none;text-decoration-line:none;text-decoration-style:solid;text-decoration-color:#000000;letter-spacing:0px;word-spacing:0px;text-transform:none;writing-mode:lr-tb;direction:ltr;text-orientation:mixed;dominant-baseline:auto;baseline-shift:baseline;text-anchor:start;white-space:normal;shape-padding:0;clip-rule:nonzero;display:inline;overflow:visible;visibility:visible;opacity:1;isolation:auto;mix-blend-mode:normal;color-interpolation:sRGB;color-interpolation-filters:linearRGB;solid-color:#000000;solid-opacity:1;vector-effect:none;fill:#373737;fill-opacity:1;fill-rule:nonzero;stroke:none;stroke-width:25;stroke-linecap:butt;stroke-linejoin:miter;stroke-miterlimit:4;stroke-dasharray:none;stroke-dashoffset:0;stroke-opacity:1;color-rendering:auto;image-rendering:auto;shape-rendering:auto;text-rendering:auto;enable-background:accumulate"
     d="m 460.29297,212.06055 v 12.5 139.44336 h 41.53906 V 212.06055 Z"
     id="path4705-2"
     inkscape:connector-curvature="0" />
  <g
     id="g4755"
     style="fill:#a1a1a1;fill-opacity:0.94117647">
    <path
       d="m 197.73532,224.56022 h 16.90147 V 351.50299 H 196.3723 v -98.77365 l -39.0733,49.06879 h -3.36212 l -39.43676,-49.06879 v 98.77365 H 96.326492 V 224.56022 H 113.4097 l 42.25368,52.15831 z"
       style="font-style:normal;font-variant:normal;font-weight:normal;font-stretch:normal;font-size:186.09791565px;line-height:1.25;font-family:'Gill Sans MT';-inkscape-font-specification:'Gill Sans MT, Normal';font-variant-ligatures:normal;font-variant-caps:normal;font-variant-numeric:normal;font-feature-settings:normal;text-align:start;letter-spacing:0px;word-spacing:0px;writing-mode:lr-tb;text-anchor:start;fill:#a1a1a1;fill-opacity:0.94117647;stroke:none;stroke-width:4.65241432"
       id="path4699"
       inkscape:connector-curvature="0" />
    <path
       id="path4718"
       d="m 274.60938,266.26953 c -11.50997,0 -20.86926,3.99775 -28.07813,11.99414 -7.20887,7.93582 -10.8125,18.2648 -10.8125,30.98633 0,8.48103 1.69548,15.96143 5.08789,22.44336 3.45299,6.42135 8.0263,11.54096 13.7207,15.35742 5.6944,3.81646 13.14555,5.72461 22.35352,5.72461 6.72424,0 12.5716,-0.72775 17.53906,-2.18164 5.02804,-1.45389 10.08522,-3.87712 15.17383,-7.26953 v -16.17383 c -9.20797,6.78482 -19.2638,10.17773 -30.16797,10.17773 -7.81466,0 -14.20637,-2.36275 -19.17383,-7.08789 -4.90688,-4.72514 -7.57204,-11.08563 -7.99609,-19.08203 h 58.79297 v -2.08984 c 0,-13.02443 -3.30317,-23.41389 -9.90625,-31.16797 -6.60309,-7.75408 -15.4473,-11.63086 -26.5332,-11.63086 z m 0,14.35547 c 5.93671,0 10.66221,1.78718 14.17578,5.36133 3.51356,3.57414 5.48219,8.66254 5.90625,15.26562 h -42.07227 c 1.15099,-6.60308 3.60544,-11.69148 7.36133,-15.26562 3.81646,-3.57415 8.69218,-5.36133 14.62891,-5.36133 z"
       style="font-style:normal;font-variant:normal;font-weight:normal;font-stretch:normal;font-size:186.09791565px;line-height:1.25;font-family:'Gill Sans MT';-inkscape-font-specification:'Gill Sans MT, Normal';font-variant-ligatures:normal;font-variant-caps:normal;font-variant-numeric:normal;font-feature-settings:normal;text-align:start;letter-spacing:0px;word-spacing:0px;writing-mode:lr-tb;text-anchor:start;fill:#a1a1a1;fill-opacity:0.94117647;stroke:none;stroke-width:4.65241432"
       inkscape:connector-curvature="0" />
    <path
       d="m 397.37258,290.80308 v 60.69991 h -16.62886 v -46.52448 c 0.13276,-29.47114 -19.91773,-31.53048 -36.07465,-14.17543 v 60.69991 h -16.538 v -83.59867 h 16.538 v 10.99504 c 8.42045,-8.42045 16.65916,-12.63067 24.71613,-12.63067 10.60128,0 18.8097,5.02804 24.62526,15.08411 8.8445,-10.17723 18.08276,-15.26584 27.71478,-15.26584 21.79524,1.76667 27.75431,19.02657 27.89652,36.07464 v 49.34139 h -16.538 V 301.97986 C 432.643,276.29253 410.86003,275.45785 397.37258,290.80308 Z"
       style="font-style:normal;font-variant:normal;font-weight:normal;font-stretch:normal;font-size:186.09791565px;line-height:1.25;font-family:'Gill Sans MT';-inkscape-font-specification:'Gill Sans MT, Normal';font-variant-ligatures:normal;font-variant-caps:normal;font-variant-numeric:normal;font-feature-settings:normal;text-align:start;letter-spacing:0px;word-spacing:0px;writing-mode:lr-tb;text-anchor:start;fill:#a1a1a1;fill-opacity:0.94117647;stroke:none;stroke-width:4.65241432"
       id="path4703"
       inkscape:connector-curvature="0"
       sodipodi:nodetypes="ccccccccccsccccccc" />
    <path
       d="m 472.79312,224.56022 h 16.538 v 126.94277 h -16.538 z"
       style="font-style:normal;font-variant:normal;font-weight:normal;font-stretch:normal;font-size:186.09791565px;line-height:1.25;font-family:'Gill Sans MT';-inkscape-font-specification:'Gill Sans MT, Normal';font-variant-ligatures:normal;font-variant-caps:normal;font-variant-numeric:normal;font-feature-settings:normal;text-align:start;letter-spacing:0px;word-spacing:0px;writing-mode:lr-tb;text-anchor:start;fill:#a1a1a1;fill-opacity:0.94117647;stroke:none;stroke-width:4.65241432"
       id="path4705"
       inkscape:connector-curvature="0" />
  </g>
</svg>
