<?xml version="1.0" encoding="UTF-8" standalone="no"?>
<svg
   xmlns:dc="http://purl.org/dc/elements/1.1/"
   xmlns:cc="http://creativecommons.org/ns#"
   xmlns:rdf="http://www.w3.org/1999/02/22-rdf-syntax-ns#"
   xmlns:svg="http://www.w3.org/2000/svg"
   xmlns="http://www.w3.org/2000/svg"
   xmlns:sodipodi="http://sodipodi.sourceforge.net/DTD/sodipodi-0.dtd"
   xmlns:inkscape="http://www.inkscape.org/namespaces/inkscape"
   height="580"
   width="580"
   version="1.0"
   id="svg824"
   sodipodi:docname="mine-dis-label.svg"
   inkscape:version="0.92.4 (5da689c313, 2019-01-14)">
  <defs
     id="defs828" />
  <sodipodi:namedview
     pagecolor="#ffffff"
     bordercolor="#666666"
     borderopacity="1"
     objecttolerance="10"
     gridtolerance="10"
     guidetolerance="10"
     inkscape:pageopacity="0"
     inkscape:pageshadow="2"
     inkscape:window-width="1920"
     inkscape:window-height="1017"
     id="namedview826"
     showgrid="false"
     inkscape:zoom="1.0338389"
     inkscape:cx="252.40992"
     inkscape:cy="266.27834"
     inkscape:window-x="-8"
     inkscape:window-y="-8"
     inkscape:window-maximized="1"
     inkscape:current-layer="g966" />
  <metadata
     id="metadata2975">
    <rdf:RDF>
      <cc:Work
         rdf:about="">
        <dc:format>image/svg+xml</dc:format>
        <dc:type
           rdf:resource="http://purl.org/dc/dcmitype/StillImage" />
        <dc:title />
      </cc:Work>
    </rdf:RDF>
  </metadata>
  <g
     id="g966"
     transform="matrix(43.480197,0,0,-43.480197,307.88094,336.12543)">
    <g
       id="g906-5"
       style="fill:#f8f8f8;fill-opacity:1;stroke:#f8f8f8;stroke-width:0.73596722;stroke-miterlimit:4;stroke-dasharray:none;stroke-opacity:1"
       transform="matrix(1.2890234,0,0,1.2890234,-0.0498338,0.12215378)">
      <path
         sodipodi:nodetypes="czzzccccc"
         d="m -3.4549025,-3.410094 c 0,0 -0.3981047,0.5906397 -0.5472111,0.9554476 -0.1491064,0.3648079 -0.2236594,0.765806 -0.2236594,1.1335087 0,0.36770265 0.046324,0.64926981 0.1672019,0.99019116 0.1208784,0.34092135 0.6036691,1.09442166 0.6036691,1.09442166 h 0.2801216 C -3.5850836,0.10557647 -3.837071,-0.39877573 -3.8240528,-1.3233091 c 0.01573,-0.9726057 0.6492705,-2.0867849 0.6492705,-2.0867849 z"
         style="font-style:normal;font-variant:normal;font-weight:normal;font-stretch:normal;font-size:0.91995901px;line-height:1.25;font-family:Arial;-inkscape-font-specification:'Arial, Normal';font-variant-ligatures:normal;font-variant-caps:normal;font-variant-numeric:normal;font-feature-settings:normal;text-align:start;letter-spacing:0px;word-spacing:0px;writing-mode:lr-tb;text-anchor:start;fill:#f8f8f8;fill-opacity:1;stroke:#f8f8f8;stroke-width:0.73596722;stroke-miterlimit:4;stroke-dasharray:none;stroke-opacity:1"
         id="path885-1"
         inkscape:connector-curvature="0" />
      <path
         sodipodi:nodetypes="cczccccccccccccc"
         d="m -1.5096581,-2.8093882 v 0.290979 c 0,0 -0.4111322,-0.3430906 -0.6449271,-0.3430906 -0.2337949,0 -0.3539494,0.050667 -0.5081245,0.1520034 -0.3592413,0.2655452 -0.4815363,0.6533144 -0.4842368,1.0509941 0.015625,0.6236091 0.2993748,1.19955781 0.9749952,1.20734191 0.2765574,-0.001348 0.4491545,-0.11951021 0.6362403,-0.3170352 v 1.1421855 h 0.3886956 V -2.8093882 Z m -1.2355678,1.1508806 c 0.014849,-0.4268843 0.177261,-0.8741914 0.6275534,-0.8816178 0.4923608,0.04649 0.6116735,0.4826287 0.6145303,0.8490451 -0.017125,0.4423313 -0.1552846,0.90868407 -0.6318993,0.91636001 -0.5062086,-0.0467458 -0.6073928,-0.50358201 -0.6101844,-0.88378731 z"
         style="font-style:normal;font-variant:normal;font-weight:normal;font-stretch:normal;font-size:0.91995901px;line-height:1.25;font-family:Arial;-inkscape-font-specification:'Arial, Normal';font-variant-ligatures:normal;font-variant-caps:normal;font-variant-numeric:normal;font-feature-settings:normal;text-align:start;letter-spacing:0px;word-spacing:0px;writing-mode:lr-tb;text-anchor:start;fill:#f8f8f8;fill-opacity:1;stroke:#f8f8f8;stroke-width:0.73596722;stroke-miterlimit:4;stroke-dasharray:none;stroke-opacity:1"
         id="path887-9"
         inkscape:connector-curvature="0" />
      <path
         sodipodi:nodetypes="cccccccccc"
         d="m -0.52815234,-0.07550479 v 0.4494941 h 0.39086609 v -0.4494941 z m 0,-2.73388341 v 2.30610361 h 0.39086609 V -2.8093882 Z"
         style="font-style:normal;font-variant:normal;font-weight:normal;font-stretch:normal;font-size:0.91995901px;line-height:1.25;font-family:Arial;-inkscape-font-specification:'Arial, Normal';font-variant-ligatures:normal;font-variant-caps:normal;font-variant-numeric:normal;font-feature-settings:normal;text-align:start;letter-spacing:0px;word-spacing:0px;writing-mode:lr-tb;text-anchor:start;fill:#f8f8f8;fill-opacity:1;stroke:#f8f8f8;stroke-width:0.73596722;stroke-miterlimit:4;stroke-dasharray:none;stroke-opacity:1"
         id="path889-5"
         inkscape:connector-curvature="0" />
      <path
         sodipodi:nodetypes="cczzzzzzzzzzcczzzzzzzzzzzzzc"
         d="m 0.30352143,-2.1210315 0.38652024,0.060803 c 0,0 0.081072,-0.2736063 0.18023463,-0.3561234 0.0991626,-0.082517 0.2381375,-0.1237724 0.4169219,-0.1237724 0.1787844,0 0.3126929,0.035467 0.399553,0.108574 0.08686,0.073107 0.1428409,0.078102 0.1302887,0.2584068 -0.012552,0.180305 -0.2876938,0.283517 -0.5146433,0.3409202 -0.2269495,0.057403 -0.43477822,0.1065708 -0.59715458,0.1867462 -0.16237636,0.080175 -0.33856,0.3177682 -0.33657912,0.5298368 0.001981,0.21206857 0.0924832,0.38522275 0.26274794,0.50378101 0.17026473,0.11855826 0.35556277,0.16638315 0.58629906,0.160676 0.2307363,-0.005707 0.6626541,-0.13448342 0.7795617,-0.2909788 0.1169076,-0.15649538 0.1346297,-0.35612341 0.1346297,-0.35612341 l -0.3821792,-0.052116 c 0,0 -0.068763,0.2113544 -0.1520035,0.27794631 -0.083241,0.0665919 -0.186021,0.099887 -0.3517775,0.099887 -0.1657565,0 -0.30762441,-0.0296767 -0.38434969,-0.08903 -0.0767253,-0.0593533 -0.11509029,-0.14331671 -0.11509029,-0.20846101 0,-0.065144 0.0159191,-0.095541 0.0477609,-0.1368002 0.0318418,-0.041259 0.0962609,-0.083243 0.14983297,-0.1042329 0.0535721,-0.02099 0.10991771,-0.036523 0.34526601,-0.099887 0.2353483,-0.063364 0.4426422,-0.1168918 0.5776118,-0.1824052 0.1349696,-0.065513 0.3507944,-0.3632607 0.3517828,-0.5385285 9.884e-4,-0.1752678 -0.039088,-0.2540625 -0.1150902,-0.3691513 -0.076002,-0.1150888 -0.1845728,-0.2041211 -0.3278923,-0.2670938 -0.1433195,-0.062973 -0.2461009,-0.093371 -0.4864097,-0.093371 -0.2403088,0 -0.53447631,0.051538 -0.68618517,0.1867462 -0.15170886,0.1352082 -0.21314048,0.2390751 -0.2996568,0.5537514 z"
         style="font-style:normal;font-variant:normal;font-weight:normal;font-stretch:normal;font-size:0.91995901px;line-height:1.25;font-family:Arial;-inkscape-font-specification:'Arial, Normal';font-variant-ligatures:normal;font-variant-caps:normal;font-variant-numeric:normal;font-feature-settings:normal;text-align:start;letter-spacing:0px;word-spacing:0px;writing-mode:lr-tb;text-anchor:start;fill:#f8f8f8;fill-opacity:1;stroke:#f8f8f8;stroke-width:0.73596722;stroke-miterlimit:4;stroke-dasharray:none;stroke-opacity:1"
         id="path891-8"
         inkscape:connector-curvature="0" />
      <path
         sodipodi:nodetypes="cczcczzzcc"
         d="M 2.6282422,-3.410094 H 2.3481206 c 0,0 0.6492705,1.1518634 0.6492705,2.0867849 0,0.93492148 -0.6492734,2.08678422 -0.6492734,2.08678422 h 0.2801216 c 0,0 0.4827904,-0.75350081 0.6036691,-1.09442166 0.1208787,-0.34092085 0.1672019,-0.62248801 0.1672019,-0.99019116 0,-0.3677032 -0.076003,-0.7687008 -0.2258348,-1.1335087 C 3.0234441,-2.8194543 2.6282364,-3.410094 2.6282364,-3.410094 Z"
         style="font-style:normal;font-variant:normal;font-weight:normal;font-stretch:normal;font-size:0.91995901px;line-height:1.25;font-family:Arial;-inkscape-font-specification:'Arial, Normal';font-variant-ligatures:normal;font-variant-caps:normal;font-variant-numeric:normal;font-feature-settings:normal;text-align:start;letter-spacing:0px;word-spacing:0px;writing-mode:lr-tb;text-anchor:start;fill:#f8f8f8;fill-opacity:1;stroke:#f8f8f8;stroke-width:0.73596722;stroke-miterlimit:4;stroke-dasharray:none;stroke-opacity:1"
         id="path893-8"
         inkscape:connector-curvature="0" />
    </g>
    <g
       id="g852-0"
       style="stroke:#f8f8f8;stroke-width:0.73596722;stroke-miterlimit:4;stroke-dasharray:none;stroke-opacity:1"
       transform="matrix(1.2890234,0,0,1.2890234,-0.02115795,1.4699194)">
      <path
         sodipodi:nodetypes="cccccccccccccc"
         d="M -2.2465449,0.32883006 H -2.6560445 V 2.9823049 L -3.512271,1.1767838 h -0.2440452 l -0.850022,1.8055211 V 0.32883006 H -4.9889514 V 3.4083499 h 0.5584085 l 0.8210675,-1.7145211 0.794181,1.7145211 h 0.5687495 z"
         style="font-style:normal;font-variant:normal;font-weight:normal;font-stretch:normal;font-size:4.23563242px;line-height:1.25;font-family:sans-serif;-inkscape-font-specification:'sans-serif, Normal';font-variant-ligatures:normal;font-variant-caps:normal;font-variant-numeric:normal;font-feature-settings:normal;text-align:start;letter-spacing:0px;word-spacing:0px;writing-mode:lr-tb;text-anchor:start;fill:#000000;fill-opacity:1;stroke:#f8f8f8;stroke-width:0.73596722;stroke-miterlimit:4;stroke-dasharray:none;stroke-opacity:1"
         id="path835-2"
         inkscape:connector-curvature="0" />
      <path
         sodipodi:nodetypes="cccccccccc"
         d="m -1.0283869,3.0257366 h -0.4384542 v 0.4032951 h 0.4384542 z m -0.024818,-2.69690654 h -0.388818 V 2.638987 h 0.3888178 z"
         style="font-style:normal;font-variant:normal;font-weight:normal;font-stretch:normal;font-size:4.23563242px;line-height:1.25;font-family:sans-serif;-inkscape-font-specification:'sans-serif, Normal';font-variant-ligatures:normal;font-variant-caps:normal;font-variant-numeric:normal;font-feature-settings:normal;text-align:start;letter-spacing:0px;word-spacing:0px;writing-mode:lr-tb;text-anchor:start;fill:#000000;fill-opacity:1;stroke:#f8f8f8;stroke-width:0.73596722;stroke-miterlimit:4;stroke-dasharray:none;stroke-opacity:1"
         id="path837-9"
         inkscape:connector-curvature="0" />
      <path
         sodipodi:nodetypes="cczcccccccczzzzc"
         d="M 1.6519741,0.32883006 H 1.2631563 V 1.6441925 c 0,0.053083 -0.0062,0.2047498 -0.018614,0.2978179 C 1.2091463,2.2675462 1.0759013,2.3315778 0.77506544,2.3328966 0.51384233,2.3220959 0.32719035,2.2005615 0.10911152,2.0536922 V 0.32883016 H -0.2797059 V 2.638987 H 0.10911192 V 2.3825327 c 0,0 0.2468028,0.1792424 0.37640874,0.2357725 0.12960594,0.05653 0.20612861,0.084795 0.39915872,0.084795 0.19303012,0 0.43983292,-0.075144 0.57081762,-0.2254316 C 1.5864817,2.3273809 1.6519741,1.9695857 1.6519741,1.8282601 Z"
         style="font-style:normal;font-variant:normal;font-weight:normal;font-stretch:normal;font-size:4.23563242px;line-height:1.25;font-family:sans-serif;-inkscape-font-specification:'sans-serif, Normal';font-variant-ligatures:normal;font-variant-caps:normal;font-variant-numeric:normal;font-feature-settings:normal;text-align:start;letter-spacing:0px;word-spacing:0px;writing-mode:lr-tb;text-anchor:start;fill:#000000;fill-opacity:1;stroke:#f8f8f8;stroke-width:0.73596722;stroke-miterlimit:4;stroke-dasharray:none;stroke-opacity:1"
         id="path839-0"
         inkscape:connector-curvature="0" />
      <path
         sodipodi:nodetypes="cccccczzzzzzzccczzzcc"
         d="M 4.3344036,1.443579 H 2.6322915 c 0,0 7.435e-4,-0.2731519 0.064114,-0.3722724 C 2.8936946,0.73245921 3.084418,0.61595036 3.4533593,0.61423891 3.7495062,0.63534442 4.0800564,0.7354551 4.2889042,0.8934432 V 0.46946633 C 4.1579195,0.41431486 4.0241772,0.36812549 3.8876773,0.33089827 3.7511774,0.29367105 3.7242911,0.27505747 3.4574959,0.27505747 c -0.2667952,0 -0.6824991,0.10271931 -0.8975901,0.31022698 -0.215091,0.20750767 -0.322636,0.50532535 -0.322636,0.88518105 0,0.3798557 0.10203,0.6776732 0.3081588,0.8996582 0.2061288,0.221985 0.4908479,0.332977 0.8148628,0.332977 0.3240149,0 0.5508249,-0.091 0.7197266,-0.2729998 C 4.2489197,2.2481007 4.3344042,1.9895786 4.3344042,1.6545335 Z M 3.9559266,1.7413969 C 3.9545479,1.9454574 3.9021546,2.1033278 3.8008132,2.2150101 3.6994718,2.3266924 3.5471163,2.3825327 3.339609,2.3825327 c -0.2075074,0 -0.3750294,-0.061355 -0.4984313,-0.184068 C 2.7177758,2.0757522 2.648837,1.9233968 2.6322915,1.7413969 Z"
         style="font-style:normal;font-variant:normal;font-weight:normal;font-stretch:normal;font-size:4.23563242px;line-height:1.25;font-family:sans-serif;-inkscape-font-specification:'sans-serif, Normal';font-variant-ligatures:normal;font-variant-caps:normal;font-variant-numeric:normal;font-feature-settings:normal;text-align:start;letter-spacing:0px;word-spacing:0px;writing-mode:lr-tb;text-anchor:start;fill:#000000;fill-opacity:1;stroke:#f8f8f8;stroke-width:0.73596722;stroke-miterlimit:4;stroke-dasharray:none;stroke-opacity:1"
         id="path841-4"
         inkscape:connector-curvature="0" />
    </g>
    <g
       id="g852"
       style="stroke:#000000;stroke-width:0.08509621;stroke-miterlimit:4;stroke-dasharray:none;stroke-opacity:1"
       transform="matrix(1.2890234,0,0,1.2890234,-0.02115795,1.4699194)">
      <path
         sodipodi:nodetypes="cccccccccccccc"
         d="M -2.2465449,0.32883006 H -2.6560445 V 2.9823049 L -3.512271,1.1767838 h -0.2440452 l -0.850022,1.8055211 V 0.32883006 H -4.9889514 V 3.4083499 h 0.5584085 l 0.8210675,-1.7145211 0.794181,1.7145211 h 0.5687495 z"
         style="font-style:normal;font-variant:normal;font-weight:normal;font-stretch:normal;font-size:4.23563242px;line-height:1.25;font-family:sans-serif;-inkscape-font-specification:'sans-serif, Normal';font-variant-ligatures:normal;font-variant-caps:normal;font-variant-numeric:normal;font-feature-settings:normal;text-align:start;letter-spacing:0px;word-spacing:0px;writing-mode:lr-tb;text-anchor:start;fill:#000000;fill-opacity:1;stroke:#000000;stroke-width:0.08509621;stroke-miterlimit:4;stroke-dasharray:none;stroke-opacity:1"
         id="path835"
         inkscape:connector-curvature="0" />
      <path
         sodipodi:nodetypes="cccccccccc"
         d="m -1.0283869,3.0257366 h -0.4384542 v 0.4032951 h 0.4384542 z m -0.024818,-2.69690654 h -0.388818 V 2.638987 h 0.3888178 z"
         style="font-style:normal;font-variant:normal;font-weight:normal;font-stretch:normal;font-size:4.23563242px;line-height:1.25;font-family:sans-serif;-inkscape-font-specification:'sans-serif, Normal';font-variant-ligatures:normal;font-variant-caps:normal;font-variant-numeric:normal;font-feature-settings:normal;text-align:start;letter-spacing:0px;word-spacing:0px;writing-mode:lr-tb;text-anchor:start;fill:#000000;fill-opacity:1;stroke:#000000;stroke-width:0.08509621;stroke-miterlimit:4;stroke-dasharray:none;stroke-opacity:1"
         id="path837"
         inkscape:connector-curvature="0" />
      <path
         sodipodi:nodetypes="cczcccccccczzzzc"
         d="M 1.6519741,0.32883006 H 1.2631563 V 1.6441925 c 0,0.053083 -0.0062,0.2047498 -0.018614,0.2978179 C 1.2091463,2.2675462 1.0759013,2.3315778 0.77506544,2.3328966 0.51384233,2.3220959 0.32719035,2.2005615 0.10911152,2.0536922 V 0.32883016 H -0.2797059 V 2.638987 H 0.10911192 V 2.3825327 c 0,0 0.2468028,0.1792424 0.37640874,0.2357725 0.12960594,0.05653 0.20612861,0.084795 0.39915872,0.084795 0.19303012,0 0.43983292,-0.075144 0.57081762,-0.2254316 C 1.5864817,2.3273809 1.6519741,1.9695857 1.6519741,1.8282601 Z"
         style="font-style:normal;font-variant:normal;font-weight:normal;font-stretch:normal;font-size:4.23563242px;line-height:1.25;font-family:sans-serif;-inkscape-font-specification:'sans-serif, Normal';font-variant-ligatures:normal;font-variant-caps:normal;font-variant-numeric:normal;font-feature-settings:normal;text-align:start;letter-spacing:0px;word-spacing:0px;writing-mode:lr-tb;text-anchor:start;fill:#000000;fill-opacity:1;stroke:#000000;stroke-width:0.08509621;stroke-miterlimit:4;stroke-dasharray:none;stroke-opacity:1"
         id="path839"
         inkscape:connector-curvature="0" />
      <path
         sodipodi:nodetypes="cccccczzzzzzzccczzzcc"
         d="M 4.3344036,1.443579 H 2.6322915 c 0,0 7.435e-4,-0.2731519 0.064114,-0.3722724 C 2.8936946,0.73245921 3.084418,0.61595036 3.4533593,0.61423891 3.7495062,0.63534442 4.0800564,0.7354551 4.2889042,0.8934432 V 0.46946633 C 4.1579195,0.41431486 4.0241772,0.36812549 3.8876773,0.33089827 3.7511774,0.29367105 3.7242911,0.27505747 3.4574959,0.27505747 c -0.2667952,0 -0.6824991,0.10271931 -0.8975901,0.31022698 -0.215091,0.20750767 -0.322636,0.50532535 -0.322636,0.88518105 0,0.3798557 0.10203,0.6776732 0.3081588,0.8996582 0.2061288,0.221985 0.4908479,0.332977 0.8148628,0.332977 0.3240149,0 0.5508249,-0.091 0.7197266,-0.2729998 C 4.2489197,2.2481007 4.3344042,1.9895786 4.3344042,1.6545335 Z M 3.9559266,1.7413969 C 3.9545479,1.9454574 3.9021546,2.1033278 3.8008132,2.2150101 3.6994718,2.3266924 3.5471163,2.3825327 3.339609,2.3825327 c -0.2075074,0 -0.3750294,-0.061355 -0.4984313,-0.184068 C 2.7177758,2.0757522 2.648837,1.9233968 2.6322915,1.7413969 Z"
         style="font-style:normal;font-variant:normal;font-weight:normal;font-stretch:normal;font-size:4.23563242px;line-height:1.25;font-family:sans-serif;-inkscape-font-specification:'sans-serif, Normal';font-variant-ligatures:normal;font-variant-caps:normal;font-variant-numeric:normal;font-feature-settings:normal;text-align:start;letter-spacing:0px;word-spacing:0px;writing-mode:lr-tb;text-anchor:start;fill:#000000;fill-opacity:1;stroke:#000000;stroke-width:0.08509621;stroke-miterlimit:4;stroke-dasharray:none;stroke-opacity:1"
         id="path841"
         inkscape:connector-curvature="0" />
    </g>
    <g
       id="g906"
       transform="matrix(1.2890234,0,0,1.2890234,-0.0498338,0.12215378)">
      <path
         sodipodi:nodetypes="czzzccccc"
         d="m -3.4549025,-3.410094 c 0,0 -0.3981047,0.5906397 -0.5472111,0.9554476 -0.1491064,0.3648079 -0.2236594,0.765806 -0.2236594,1.1335087 0,0.36770265 0.046324,0.64926981 0.1672019,0.99019116 0.1208784,0.34092135 0.6036691,1.09442166 0.6036691,1.09442166 h 0.2801216 C -3.5850836,0.10557647 -3.837071,-0.39877573 -3.8240528,-1.3233091 c 0.01573,-0.9726057 0.6492705,-2.0867849 0.6492705,-2.0867849 z"
         style="font-style:normal;font-variant:normal;font-weight:normal;font-stretch:normal;font-size:0.91995901px;line-height:1.25;font-family:Arial;-inkscape-font-specification:'Arial, Normal';font-variant-ligatures:normal;font-variant-caps:normal;font-variant-numeric:normal;font-feature-settings:normal;text-align:start;letter-spacing:0px;word-spacing:0px;writing-mode:lr-tb;text-anchor:start;fill:#020000;fill-opacity:1;stroke:#000000;stroke-width:0.08624616;stroke-miterlimit:4;stroke-dasharray:none;stroke-opacity:1"
         id="path885"
         inkscape:connector-curvature="0" />
      <path
         sodipodi:nodetypes="cczccccccccccccc"
         d="m -1.5096581,-2.8093882 v 0.290979 c 0,0 -0.4111322,-0.3430906 -0.6449271,-0.3430906 -0.2337949,0 -0.3539494,0.050667 -0.5081245,0.1520034 -0.3592413,0.2655452 -0.4815363,0.6533144 -0.4842368,1.0509941 0.015625,0.6236091 0.2993748,1.19955781 0.9749952,1.20734191 0.2765574,-0.001348 0.4491545,-0.11951021 0.6362403,-0.3170352 v 1.1421855 h 0.3886956 V -2.8093882 Z m -1.2355678,1.1508806 c 0.014849,-0.4268843 0.177261,-0.8741914 0.6275534,-0.8816178 0.4923608,0.04649 0.6116735,0.4826287 0.6145303,0.8490451 -0.017125,0.4423313 -0.1552846,0.90868407 -0.6318993,0.91636001 -0.5062086,-0.0467458 -0.6073928,-0.50358201 -0.6101844,-0.88378731 z"
         style="font-style:normal;font-variant:normal;font-weight:normal;font-stretch:normal;font-size:0.91995901px;line-height:1.25;font-family:Arial;-inkscape-font-specification:'Arial, Normal';font-variant-ligatures:normal;font-variant-caps:normal;font-variant-numeric:normal;font-feature-settings:normal;text-align:start;letter-spacing:0px;word-spacing:0px;writing-mode:lr-tb;text-anchor:start;fill:#020000;fill-opacity:1;stroke:#000000;stroke-width:0.08624616;stroke-miterlimit:4;stroke-dasharray:none;stroke-opacity:1"
         id="path887"
         inkscape:connector-curvature="0" />
      <path
         sodipodi:nodetypes="cccccccccc"
         d="m -0.52815234,-0.07550479 v 0.4494941 h 0.39086609 v -0.4494941 z m 0,-2.73388341 v 2.30610361 h 0.39086609 V -2.8093882 Z"
         style="font-style:normal;font-variant:normal;font-weight:normal;font-stretch:normal;font-size:0.91995901px;line-height:1.25;font-family:Arial;-inkscape-font-specification:'Arial, Normal';font-variant-ligatures:normal;font-variant-caps:normal;font-variant-numeric:normal;font-feature-settings:normal;text-align:start;letter-spacing:0px;word-spacing:0px;writing-mode:lr-tb;text-anchor:start;fill:#020000;fill-opacity:1;stroke:#000000;stroke-width:0.08624616;stroke-miterlimit:4;stroke-dasharray:none;stroke-opacity:1"
         id="path889"
         inkscape:connector-curvature="0" />
      <path
         sodipodi:nodetypes="cczzzzzzzzzzcczzzzzzzzzzzzzc"
         d="m 0.30352143,-2.1210315 0.38652024,0.060803 c 0,0 0.081072,-0.2736063 0.18023463,-0.3561234 0.0991626,-0.082517 0.2381375,-0.1237724 0.4169219,-0.1237724 0.1787844,0 0.3126929,0.035467 0.399553,0.108574 0.08686,0.073107 0.1428409,0.078102 0.1302887,0.2584068 -0.012552,0.180305 -0.2876938,0.283517 -0.5146433,0.3409202 -0.2269495,0.057403 -0.43477822,0.1065708 -0.59715458,0.1867462 -0.16237636,0.080175 -0.33856,0.3177682 -0.33657912,0.5298368 0.001981,0.21206857 0.0924832,0.38522275 0.26274794,0.50378101 0.17026473,0.11855826 0.35556277,0.16638315 0.58629906,0.160676 0.2307363,-0.005707 0.6626541,-0.13448342 0.7795617,-0.2909788 0.1169076,-0.15649538 0.1346297,-0.35612341 0.1346297,-0.35612341 l -0.3821792,-0.052116 c 0,0 -0.068763,0.2113544 -0.1520035,0.27794631 -0.083241,0.0665919 -0.186021,0.099887 -0.3517775,0.099887 -0.1657565,0 -0.30762441,-0.0296767 -0.38434969,-0.08903 -0.0767253,-0.0593533 -0.11509029,-0.14331671 -0.11509029,-0.20846101 0,-0.065144 0.0159191,-0.095541 0.0477609,-0.1368002 0.0318418,-0.041259 0.0962609,-0.083243 0.14983297,-0.1042329 0.0535721,-0.02099 0.10991771,-0.036523 0.34526601,-0.099887 0.2353483,-0.063364 0.4426422,-0.1168918 0.5776118,-0.1824052 0.1349696,-0.065513 0.3507944,-0.3632607 0.3517828,-0.5385285 9.884e-4,-0.1752678 -0.039088,-0.2540625 -0.1150902,-0.3691513 -0.076002,-0.1150888 -0.1845728,-0.2041211 -0.3278923,-0.2670938 -0.1433195,-0.062973 -0.2461009,-0.093371 -0.4864097,-0.093371 -0.2403088,0 -0.53447631,0.051538 -0.68618517,0.1867462 -0.15170886,0.1352082 -0.21314048,0.2390751 -0.2996568,0.5537514 z"
         style="font-style:normal;font-variant:normal;font-weight:normal;font-stretch:normal;font-size:0.91995901px;line-height:1.25;font-family:Arial;-inkscape-font-specification:'Arial, Normal';font-variant-ligatures:normal;font-variant-caps:normal;font-variant-numeric:normal;font-feature-settings:normal;text-align:start;letter-spacing:0px;word-spacing:0px;writing-mode:lr-tb;text-anchor:start;fill:#020000;fill-opacity:1;stroke:#000000;stroke-width:0.08624616;stroke-miterlimit:4;stroke-dasharray:none;stroke-opacity:1"
         id="path891"
         inkscape:connector-curvature="0" />
      <path
         sodipodi:nodetypes="cczcczzzcc"
         d="M 2.6282422,-3.410094 H 2.3481206 c 0,0 0.6492705,1.1518634 0.6492705,2.0867849 0,0.93492148 -0.6492734,2.08678422 -0.6492734,2.08678422 h 0.2801216 c 0,0 0.4827904,-0.75350081 0.6036691,-1.09442166 0.1208787,-0.34092085 0.1672019,-0.62248801 0.1672019,-0.99019116 0,-0.3677032 -0.076003,-0.7687008 -0.2258348,-1.1335087 C 3.0234441,-2.8194543 2.6282364,-3.410094 2.6282364,-3.410094 Z"
         style="font-style:normal;font-variant:normal;font-weight:normal;font-stretch:normal;font-size:0.91995901px;line-height:1.25;font-family:Arial;-inkscape-font-specification:'Arial, Normal';font-variant-ligatures:normal;font-variant-caps:normal;font-variant-numeric:normal;font-feature-settings:normal;text-align:start;letter-spacing:0px;word-spacing:0px;writing-mode:lr-tb;text-anchor:start;fill:#020000;fill-opacity:1;stroke:#000000;stroke-width:0.08624616;stroke-miterlimit:4;stroke-dasharray:none;stroke-opacity:1"
         id="path893"
         inkscape:connector-curvature="0" />
    </g>
  </g>
</svg>
