<?xml version="1.0" encoding="UTF-8" standalone="no"?>
<svg
   xmlns:dc="http://purl.org/dc/elements/1.1/"
   xmlns:cc="http://creativecommons.org/ns#"
   xmlns:rdf="http://www.w3.org/1999/02/22-rdf-syntax-ns#"
   xmlns:svg="http://www.w3.org/2000/svg"
   xmlns="http://www.w3.org/2000/svg"
   xmlns:sodipodi="http://sodipodi.sourceforge.net/DTD/sodipodi-0.dtd"
   xmlns:inkscape="http://www.inkscape.org/namespaces/inkscape"
   version="1.0"
   width="580"
   height="580"
   id="svg10"
   sodipodi:docname="nature_reserve.svg"
   inkscape:version="0.92.4 (5da689c313, 2019-01-14)">
  <defs
     id="defs14" />
  <sodipodi:namedview
     pagecolor="#ffffff"
     bordercolor="#666666"
     borderopacity="1"
     objecttolerance="10"
     gridtolerance="10"
     guidetolerance="10"
     inkscape:pageopacity="0"
     inkscape:pageshadow="2"
     inkscape:window-width="1920"
     inkscape:window-height="1017"
     id="namedview12"
     showgrid="false"
     inkscape:zoom="0.8137931"
     inkscape:cx="129.66088"
     inkscape:cy="483.79998"
     inkscape:window-x="-8"
     inkscape:window-y="-8"
     inkscape:window-maximized="1"
     inkscape:current-layer="svg10" />
  <metadata
     id="metadata2975">
    <rdf:RDF>
      <cc:Work
         rdf:about="">
        <dc:format>image/svg+xml</dc:format>
        <dc:type
           rdf:resource="http://purl.org/dc/dcmitype/StillImage" />
        <dc:title></dc:title>
      </cc:Work>
    </rdf:RDF>
  </metadata>
  <g
     id="g943"
     transform="matrix(47.908937,0,0,-47.908937,371.80973,427.99023)"
     style="fill:#0098e3;fill-opacity:0.78431374">
    <path
       d="M 0,0 C 0.574,0.153 1.121,0.434 1.639,0.784 2.1,1.092 3.641,2.197 3.836,3.318 2.66,3.346 2.311,2.954 1.975,3.122 1.373,3.57 0.924,4.004 0.197,4.326 -0.266,4.521 -1.4,4.41 -1.805,4.605 -2.156,4.788 -2.24,5.46 -2.113,6.048 -2.072,6.426 -1.973,6.831 -2.379,7.28 -2.506,7.42 -2.953,7.56 -3.219,7.56 -3.57,7.56 -4.018,7.252 -4.283,6.888 -4.381,6.677 -4.381,6.384 -4.381,6.131 L -6.439,5.208 C -6.594,5.138 -6.705,4.927 -6.621,4.704 l 2.295,0.531 c 0.308,0 0.756,-0.321 0.728,-0.601 C -3.836,3.472 -4.213,1.75 -3.486,0.966 -3.094,0.546 -2.701,0.28 -2.268,0.084 v -2.576 h 0.645 v 2.393 c 0.322,-0.07 0.658,-0.07 0.98,-0.042 V -2.492 H 0 Z"
       style="fill:#0098e3;fill-opacity:0.78431374;fill-rule:evenodd;stroke:none"
       id="path945"
       inkscape:connector-curvature="0" />
  </g>
</svg>
