<?xml version="1.0" encoding="UTF-8" standalone="no"?>
<svg
   xmlns:dc="http://purl.org/dc/elements/1.1/"
   xmlns:cc="http://creativecommons.org/ns#"
   xmlns:rdf="http://www.w3.org/1999/02/22-rdf-syntax-ns#"
   xmlns:svg="http://www.w3.org/2000/svg"
   xmlns="http://www.w3.org/2000/svg"
   xmlns:sodipodi="http://sodipodi.sourceforge.net/DTD/sodipodi-0.dtd"
   xmlns:inkscape="http://www.inkscape.org/namespaces/inkscape"
   height="580"
   width="580"
   version="1.0"
   id="svg4521"
   sodipodi:docname="parking.svg"
   inkscape:version="0.92.4 (5da689c313, 2019-01-14)">
  <defs
     id="defs4525" />
  <sodipodi:namedview
     pagecolor="#ffffff"
     bordercolor="#666666"
     borderopacity="1"
     objecttolerance="10"
     gridtolerance="10"
     guidetolerance="10"
     inkscape:pageopacity="0"
     inkscape:pageshadow="2"
     inkscape:window-width="1920"
     inkscape:window-height="1017"
     id="namedview4523"
     showgrid="false"
     inkscape:zoom="0.73103448"
     inkscape:cx="154.98042"
     inkscape:cy="140.88122"
     inkscape:window-x="-8"
     inkscape:window-y="-8"
     inkscape:window-maximized="1"
     inkscape:current-layer="svg4521" />
  <metadata
     id="metadata10">
    <rdf:RDF>
      <cc:Work
         rdf:about="">
        <dc:format>image/svg+xml</dc:format>
        <dc:type
           rdf:resource="http://purl.org/dc/dcmitype/StillImage" />
        <dc:title />
      </cc:Work>
    </rdf:RDF>
  </metadata>
  <g
     id="g4557"
     style="fill:#0098e3;fill-opacity:0.78431374">
    <path
       id="path4552"
       d="M 35.773438,33.566406 V 547.90625 H 550.11328 V 33.566406 Z M 146.67578,104.80078 H 297.1875 c 33.57132,0 59.2154,3.63637 76.93359,10.91016 17.9047,7.08728 33.85181,19.86195 47.83985,38.32617 13.98805,18.46422 20.98242,41.12537 20.98242,67.98242 0,18.83724 -3.73112,37.20859 -11.19141,55.11328 -7.4603,17.9047 -17.99825,31.98624 -31.61328,42.24414 -13.61503,10.25791 -26.85756,17.06475 -39.72656,20.42188 -12.6825,3.35714 -32.63712,5.03515 -59.86719,5.03515 h -62.94726 v 141.83985 h -90.92188 z"
       style="fill:#0098e3;fill-opacity:0.78431374;stroke-width:0.98687333"
       inkscape:connector-curvature="0" />
    <path
       id="rect4539"
       d="m 234.52056,174.18069 v 101.27345 h 58.19028 c 22.19437,0 37.76776,-5.12894 46.72011,-15.38684 8.95235,-10.2579 13.42852,-22.00786 13.42852,-35.24988 0,-15.48011 -5.0357,-27.78959 -15.10709,-36.92845 -9.88489,-9.13885 -24.99198,-13.70828 -45.32127,-13.70828 z"
       style="fill:#0098e3;fill-opacity:0.78431374;stroke-width:0.98687333"
       inkscape:connector-curvature="0" />
  </g>
</svg>
