<?xml version="1.0" encoding="UTF-8" standalone="no"?>
<svg
   xmlns:dc="http://purl.org/dc/elements/1.1/"
   xmlns:cc="http://creativecommons.org/ns#"
   xmlns:rdf="http://www.w3.org/1999/02/22-rdf-syntax-ns#"
   xmlns:svg="http://www.w3.org/2000/svg"
   xmlns="http://www.w3.org/2000/svg"
   xmlns:sodipodi="http://sodipodi.sourceforge.net/DTD/sodipodi-0.dtd"
   xmlns:inkscape="http://www.inkscape.org/namespaces/inkscape"
   enable-background="new 0 0 580 580"
   viewBox="0 0 1436.1085 424.37604"
   height="424.37604"
   width="1436.1085"
   version="1.1"
   id="svg2818"
   sodipodi:docname="police-station.svg"
   inkscape:version="0.92.4 (5da689c313, 2019-01-14)">
  <defs
     id="defs2822" />
  <sodipodi:namedview
     pagecolor="#ffffff"
     bordercolor="#666666"
     borderopacity="1"
     objecttolerance="10"
     gridtolerance="10"
     guidetolerance="10"
     inkscape:pageopacity="0"
     inkscape:pageshadow="2"
     inkscape:window-width="1920"
     inkscape:window-height="1001"
     id="namedview2820"
     showgrid="false"
     inkscape:zoom="0.68298044"
     inkscape:cx="782.52967"
     inkscape:cy="519.07889"
     inkscape:window-x="-9"
     inkscape:window-y="-9"
     inkscape:window-maximized="1"
     inkscape:current-layer="svg2818"
     fit-margin-top="5"
     fit-margin-left="5"
     fit-margin-right="5"
     fit-margin-bottom="5" />
  <metadata
     id="metadata26">
    <rdf:RDF>
      <cc:Work
         rdf:about="">
        <dc:format>image/svg+xml</dc:format>
        <dc:type
           rdf:resource="http://purl.org/dc/dcmitype/StillImage" />
        <dc:title></dc:title>
      </cc:Work>
    </rdf:RDF>
  </metadata>
  <path
     inkscape:connector-curvature="0"
     id="path3293-0"
     style="font-style:normal;font-variant:normal;font-weight:normal;font-stretch:normal;font-size:494.32476807px;line-height:1.25;font-family:'Gill Sans MT';-inkscape-font-specification:'Gill Sans MT, Normal';font-variant-ligatures:normal;font-variant-caps:normal;font-variant-numeric:normal;font-feature-settings:normal;text-align:start;letter-spacing:0px;word-spacing:0px;writing-mode:lr-tb;text-anchor:start;fill:#ff0000;fill-opacity:0;stroke:#f8f8f8;stroke-width:66.66699982;stroke-miterlimit:4;stroke-dasharray:none;stroke-opacity:1"
     d="m 881.24249,238.43201 c -28.90328,-17.99755 -66.89079,-37.43895 -85.92755,-63.48018 -9.88025,-13.51564 -14.97483,-29.37349 -14.48217,-47.06706 1.61915,-58.150713 51.1664,-89.218233 99.44424,-89.548093 28.15912,-0.1924 53.98632,7.88474 77.47962,23.65421 v 54.790883 c -24.29787,-23.332389 -50.45188,-35.561153 -78.4451,-34.998583 -25.7204,0.51689 -53.74045,12.635644 -54.06677,39.101873 2.73043,40.14503 57.78424,62.5665 83.99659,77.96235 41.2343,24.39033 61.7906,55.6759 61.7906,93.65137 0,27.03339 -9.129,48.95784 -27.27476,65.89388 -18.05975,16.85577 -41.51555,25.3438 -70.47989,25.3438 -33.30899,0 -63.6411,-10.21798 -90.99631,-30.65393 v -61.30786 c 26.06791,32.98717 56.2391,49.48075 90.51357,49.48075 28.2107,-1.46678 52.44073,-17.0096 52.85992,-44.41199 0,-20.59686 -14.84533,-40.00079 -44.41199,-58.41142 z"
     sodipodi:nodetypes="ssssccsccsssccccs" />
  <path
     inkscape:connector-curvature="0"
     id="path3295-6"
     style="font-style:normal;font-variant:normal;font-weight:normal;font-stretch:normal;font-size:494.32476807px;line-height:1.25;font-family:'Gill Sans MT';-inkscape-font-specification:'Gill Sans MT, Normal';font-variant-ligatures:normal;font-variant-caps:normal;font-variant-numeric:normal;font-feature-settings:normal;text-align:start;letter-spacing:0px;word-spacing:0px;writing-mode:lr-tb;text-anchor:start;fill:#ff0000;fill-opacity:0;stroke:#f8f8f8;stroke-width:66.66699982;stroke-miterlimit:4;stroke-dasharray:none;stroke-opacity:1"
     d="m 997.44506,193.05454 82.54834,-81.10016 v 45.86021 h 70.2386 v 39.5846 h -70.2386 c 0,0 0,72.57177 0,108.85765 0,25.42426 10.5398,38.13639 31.6194,38.13639 15.7695,0 49.9635,-15.93039 49.9635,-15.93039 v 41.03282 c 0,0 -35.3204,14.2408 -55.2736,14.2408 -20.1141,0 -36.7138,-6.0289 -50.2049,-17.61998 -20.9877,-18.03201 -20.0336,-48.713 -20.0336,-70.23852 v -98.47877 h -38.61914 z"
     sodipodi:nodetypes="ccccccssccsssccc" />
  <path
     inkscape:connector-curvature="0"
     id="path3297-0"
     style="font-style:normal;font-variant:normal;font-weight:normal;font-stretch:normal;font-size:494.32476807px;line-height:1.25;font-family:'Gill Sans MT';-inkscape-font-specification:'Gill Sans MT, Normal';font-variant-ligatures:normal;font-variant-caps:normal;font-variant-numeric:normal;font-feature-settings:normal;text-align:start;letter-spacing:0px;word-spacing:0px;writing-mode:lr-tb;text-anchor:start;fill:#ff0000;fill-opacity:0;stroke:#f8f8f8;stroke-width:66.66699982;stroke-miterlimit:4;stroke-dasharray:none;stroke-opacity:1"
     d="m 1365.1901,246.3972 c 0,0 0,62.91699 0,94.37549 0,7.56291 2.5746,11.34436 7.7238,11.34436 5.3101,0 24.8611,-11.8271 24.8611,-11.8271 v 26.79201 c 0,0 -28.2826,16.6095 -42.9638,16.6545 -18.8267,0.0577 -29.9298,-7.402 -33.309,-22.206 -18.6659,14.48217 -38.5568,22.59881 -59.6182,21.72326 -33.0552,-1.37416 -55.115,-23.95732 -54.0668,-53.8254 1.2497,-35.61115 29.78,-54.05677 57.9287,-63.72155 l 56.2391,-19.30957 v -11.8271 c 0,-26.71156 -13.3558,-40.06734 -40.0674,-40.06734 -23.976,0 -47.3084,12.3903 -69.9971,37.1709 v -48.03253 c 17.0567,-20.11413 41.607,-31.01315 73.6177,-30.17119 36.6142,0.96305 72.263,18.04132 77.9623,55.03225 1.0192,6.61484 1.6896,19.2291 1.6896,37.89501 z m -43.2051,89.54809 v -65.89387 l -29.4471,11.34436 c -20.3449,7.83777 -41.5643,18.01221 -41.0328,40.55008 0.4692,19.89735 13.8719,31.01833 31.6194,31.13667 13.9991,0.0933 38.8605,-17.13724 38.8605,-17.13724 z"
     sodipodi:nodetypes="sssccscssscssccsssccsssc" />
  <path
     inkscape:connector-curvature="0"
     id="path3293"
     style="font-style:normal;font-variant:normal;font-weight:normal;font-stretch:normal;font-size:494.32476807px;line-height:1.25;font-family:'Gill Sans MT';-inkscape-font-specification:'Gill Sans MT, Normal';font-variant-ligatures:normal;font-variant-caps:normal;font-variant-numeric:normal;font-feature-settings:normal;text-align:start;letter-spacing:0px;word-spacing:0px;writing-mode:lr-tb;text-anchor:start;fill:#000000;fill-opacity:1;stroke:none;stroke-width:95.37651062"
     d="m 881.24249,238.43201 c -28.90328,-17.99755 -66.89079,-37.43895 -85.92755,-63.48018 -9.88025,-13.51564 -14.97483,-29.37349 -14.48217,-47.06706 1.61915,-58.150713 51.1664,-89.218233 99.44424,-89.548093 28.15912,-0.1924 53.98632,7.88474 77.47962,23.65421 v 54.790883 c -24.29787,-23.332389 -50.45188,-35.561153 -78.4451,-34.998583 -25.7204,0.51689 -53.74045,12.635644 -54.06677,39.101873 2.73043,40.14503 57.78424,62.5665 83.99659,77.96235 41.2343,24.39033 61.7906,55.6759 61.7906,93.65137 0,27.03339 -9.129,48.95784 -27.27476,65.89388 -18.05975,16.85577 -41.51555,25.3438 -70.47989,25.3438 -33.30899,0 -63.6411,-10.21798 -90.99631,-30.65393 v -61.30786 c 26.06791,32.98717 56.2391,49.48075 90.51357,49.48075 28.2107,-1.46678 52.44073,-17.0096 52.85992,-44.41199 0,-20.59686 -14.84533,-40.00079 -44.41199,-58.41142 z"
     sodipodi:nodetypes="ssssccsccsssccccs" />
  <path
     inkscape:connector-curvature="0"
     id="path3295"
     style="font-style:normal;font-variant:normal;font-weight:normal;font-stretch:normal;font-size:494.32476807px;line-height:1.25;font-family:'Gill Sans MT';-inkscape-font-specification:'Gill Sans MT, Normal';font-variant-ligatures:normal;font-variant-caps:normal;font-variant-numeric:normal;font-feature-settings:normal;text-align:start;letter-spacing:0px;word-spacing:0px;writing-mode:lr-tb;text-anchor:start;fill:#000000;fill-opacity:1;stroke:none;stroke-width:95.37651062"
     d="m 997.44506,193.05454 82.54834,-81.10016 v 45.86021 h 70.2386 v 39.5846 h -70.2386 c 0,0 0,72.57177 0,108.85765 0,25.42426 10.5398,38.13639 31.6194,38.13639 15.7695,0 49.9635,-15.93039 49.9635,-15.93039 v 41.03282 c 0,0 -35.3204,14.2408 -55.2736,14.2408 -20.1141,0 -36.7138,-6.0289 -50.2049,-17.61998 -20.9877,-18.03201 -20.0336,-48.713 -20.0336,-70.23852 v -98.47877 h -38.61914 z"
     sodipodi:nodetypes="ccccccssccsssccc" />
  <path
     inkscape:connector-curvature="0"
     id="path3297"
     style="font-style:normal;font-variant:normal;font-weight:normal;font-stretch:normal;font-size:494.32476807px;line-height:1.25;font-family:'Gill Sans MT';-inkscape-font-specification:'Gill Sans MT, Normal';font-variant-ligatures:normal;font-variant-caps:normal;font-variant-numeric:normal;font-feature-settings:normal;text-align:start;letter-spacing:0px;word-spacing:0px;writing-mode:lr-tb;text-anchor:start;fill:#181818;fill-opacity:1;stroke:none;stroke-width:95.37651062"
     d="m 1365.1901,246.3972 c 0,0 0,62.91699 0,94.37549 0,7.56291 2.5746,11.34436 7.7238,11.34436 5.3101,0 24.8611,-11.8271 24.8611,-11.8271 v 26.79201 c 0,0 -28.2826,16.6095 -42.9638,16.6545 -18.8267,0.0577 -29.9298,-7.402 -33.309,-22.206 -18.6659,14.48217 -38.5568,22.59881 -59.6182,21.72326 -33.0552,-1.37416 -55.115,-23.95732 -54.0668,-53.8254 1.2497,-35.61115 29.78,-54.05677 57.9287,-63.72155 l 56.2391,-19.30957 v -11.8271 c 0,-26.71156 -13.3558,-40.06734 -40.0674,-40.06734 -23.976,0 -47.3084,12.3903 -69.9971,37.1709 v -48.03253 c 17.0567,-20.11413 41.607,-31.01315 73.6177,-30.17119 36.6142,0.96305 72.263,18.04132 77.9623,55.03225 1.0192,6.61484 1.6896,19.2291 1.6896,37.89501 z m -43.2051,89.54809 v -65.89387 l -29.4471,11.34436 c -20.3449,7.83777 -41.5643,18.01221 -41.0328,40.55008 0.4692,19.89735 13.8719,31.01833 31.6194,31.13667 13.9991,0.0933 38.8605,-17.13724 38.8605,-17.13724 z"
     sodipodi:nodetypes="sssccscssscssccsssccsssc" />
  <path
     inkscape:connector-curvature="0"
     id="path823-8"
     style="font-style:normal;font-variant:normal;font-weight:normal;font-stretch:normal;font-size:496.0206604px;line-height:1.25;font-family:'Gill Sans MT';-inkscape-font-specification:'Gill Sans MT, Normal';font-variant-ligatures:normal;font-variant-caps:normal;font-variant-numeric:normal;font-feature-settings:normal;text-align:start;letter-spacing:0px;word-spacing:0px;writing-mode:lr-tb;text-anchor:start;fill:#000000;fill-opacity:1;stroke:#f8f8f8;stroke-width:66.66699982;stroke-miterlimit:4;stroke-dasharray:none;stroke-opacity:1"
     d="M 38.3335,382.16739 V 43.332966 h 107.29353 q 48.43952,0 77.26103,26.15734 28.82151,26.157335 28.82151,70.237304 0,29.54811 -14.77405,52.31468 -14.77405,22.76658 -40.447,33.18106 -25.67294,10.1723 -73.62806,10.1723 H 87.01521 V 382.16739 Z M 137.15012,86.444137 H 87.01521 V 192.28449 h 53.04128 q 29.5481,0 45.53314,-13.80527 15.98504,-14.04746 15.98504,-39.9626 0,-52.072483 -64.42455,-52.072483 z" />
  <path
     inkscape:connector-curvature="0"
     id="path825-9"
     style="font-style:normal;font-variant:normal;font-weight:normal;font-stretch:normal;font-size:496.0206604px;line-height:1.25;font-family:'Gill Sans MT';-inkscape-font-specification:'Gill Sans MT, Normal';font-variant-ligatures:normal;font-variant-caps:normal;font-variant-numeric:normal;font-feature-settings:normal;text-align:start;letter-spacing:0px;word-spacing:0px;writing-mode:lr-tb;text-anchor:start;fill:#000000;fill-opacity:1;stroke:#f8f8f8;stroke-width:66.66699982;stroke-miterlimit:4;stroke-dasharray:none;stroke-opacity:1"
     d="m 382.37517,158.86121 q 50.86149,0 84.52695,32.93889 33.66547,32.69665 33.66547,82.34716 0,48.19732 -34.14986,80.1674 -34.14986,31.72789 -85.98014,31.72789 -50.1349,0 -83.80037,-32.21229 -33.66546,-32.45447 -33.66546,-80.89398 0,-48.92391 33.90766,-81.37838 34.14986,-32.69668 85.49575,-32.69669 z m -2.42198,39.72041 q -31.72788,0 -52.07248,20.82899 -20.3446,20.82898 -20.3446,53.04126 0,31.97008 20.82899,52.31468 20.829,20.1024 53.52567,20.1024 32.45448,0 53.04127,-20.3446 20.829,-20.58679 20.829,-52.55687 0,-31.72789 -21.55559,-52.55687 -21.55558,-20.829 -54.25226,-20.82899 z" />
  <path
     inkscape:connector-curvature="0"
     id="path827-3"
     style="font-style:normal;font-variant:normal;font-weight:normal;font-stretch:normal;font-size:496.0206604px;line-height:1.25;font-family:'Gill Sans MT';-inkscape-font-specification:'Gill Sans MT, Normal';font-variant-ligatures:normal;font-variant-caps:normal;font-variant-numeric:normal;font-feature-settings:normal;text-align:start;letter-spacing:0px;word-spacing:0px;writing-mode:lr-tb;text-anchor:start;fill:#000000;fill-opacity:1;stroke:#f8f8f8;stroke-width:66.66699982;stroke-miterlimit:4;stroke-dasharray:none;stroke-opacity:1"
     d="m 557.30801,43.817361 h 44.07996 V 382.16739 h -44.07996 z" />
  <path
     inkscape:connector-curvature="0"
     id="path823"
     style="font-style:normal;font-variant:normal;font-weight:normal;font-stretch:normal;font-size:496.0206604px;line-height:1.25;font-family:'Gill Sans MT';-inkscape-font-specification:'Gill Sans MT, Normal';font-variant-ligatures:normal;font-variant-caps:normal;font-variant-numeric:normal;font-feature-settings:normal;text-align:start;letter-spacing:0px;word-spacing:0px;writing-mode:lr-tb;text-anchor:start;fill:#000000;fill-opacity:1;stroke:none;stroke-width:2.58344078"
     d="M 38.3335,382.16739 V 43.332966 h 107.29353 q 48.43952,0 77.26103,26.15734 28.82151,26.157335 28.82151,70.237304 0,29.5481 -14.77405,52.31467 -14.77405,22.76658 -40.447,33.18107 -25.67294,10.1723 -73.62806,10.1723 H 87.01521 V 382.16739 Z M 137.15012,86.444137 H 87.01521 V 192.28448 h 53.04128 q 29.5481,0 45.53314,-13.80526 15.98504,-14.04746 15.98504,-39.9626 0,-52.072483 -64.42455,-52.072483 z" />
  <path
     inkscape:connector-curvature="0"
     id="path825"
     style="font-style:normal;font-variant:normal;font-weight:normal;font-stretch:normal;font-size:496.0206604px;line-height:1.25;font-family:'Gill Sans MT';-inkscape-font-specification:'Gill Sans MT, Normal';font-variant-ligatures:normal;font-variant-caps:normal;font-variant-numeric:normal;font-feature-settings:normal;text-align:start;letter-spacing:0px;word-spacing:0px;writing-mode:lr-tb;text-anchor:start;fill:#000000;fill-opacity:1;stroke:none;stroke-width:2.58344078"
     d="m 382.37517,158.86121 q 50.86149,0 84.52695,32.93888 33.66547,32.69667 33.66547,82.34718 0,48.19732 -34.14986,80.1674 -34.14986,31.72788 -85.98014,31.72788 -50.13491,0 -83.80037,-32.21228 -33.66546,-32.45447 -33.66546,-80.89399 0,-48.92391 33.90766,-81.37839 34.14986,-32.69668 85.49575,-32.69668 z m -2.42198,39.72041 q -31.72788,0 -52.07248,20.82899 -20.3446,20.82899 -20.3446,53.04127 0,31.97008 20.82899,52.31468 20.829,20.1024 53.52567,20.1024 32.45448,0 53.04127,-20.3446 20.82899,-20.58679 20.82899,-52.55687 0,-31.72789 -21.55558,-52.55688 -21.55559,-20.82899 -54.25226,-20.82899 z" />
  <path
     inkscape:connector-curvature="0"
     id="path827"
     style="font-style:normal;font-variant:normal;font-weight:normal;font-stretch:normal;font-size:496.0206604px;line-height:1.25;font-family:'Gill Sans MT';-inkscape-font-specification:'Gill Sans MT, Normal';font-variant-ligatures:normal;font-variant-caps:normal;font-variant-numeric:normal;font-feature-settings:normal;text-align:start;letter-spacing:0px;word-spacing:0px;writing-mode:lr-tb;text-anchor:start;fill:#000000;fill-opacity:1;stroke:none;stroke-width:2.58344078"
     d="m 557.30801,43.817361 h 44.07996 V 382.16739 h -44.07996 z" />
</svg>
