<?xml version="1.0" encoding="UTF-8" standalone="no"?>
<svg
   xmlns:dc="http://purl.org/dc/elements/1.1/"
   xmlns:cc="http://creativecommons.org/ns#"
   xmlns:rdf="http://www.w3.org/1999/02/22-rdf-syntax-ns#"
   xmlns:svg="http://www.w3.org/2000/svg"
   xmlns="http://www.w3.org/2000/svg"
   xmlns:sodipodi="http://sodipodi.sourceforge.net/DTD/sodipodi-0.dtd"
   xmlns:inkscape="http://www.inkscape.org/namespaces/inkscape"
   height="580"
   width="580"
   version="1.0"
   id="svg1650"
   sodipodi:docname="post_office-night-50k.svg"
   inkscape:version="0.92.4 (5da689c313, 2019-01-14)">
  <defs
     id="defs1654" />
  <sodipodi:namedview
     pagecolor="#ffffff"
     bordercolor="#666666"
     borderopacity="1"
     objecttolerance="10"
     gridtolerance="10"
     guidetolerance="10"
     inkscape:pageopacity="0"
     inkscape:pageshadow="2"
     inkscape:window-width="1920"
     inkscape:window-height="1017"
     id="namedview1652"
     showgrid="false"
     inkscape:zoom="1.0338389"
     inkscape:cx="44.565233"
     inkscape:cy="275.0169"
     inkscape:window-x="-8"
     inkscape:window-y="-8"
     inkscape:window-maximized="1"
     inkscape:current-layer="svg1650" />
  <metadata
     id="metadata2975">
    <rdf:RDF>
      <cc:Work
         rdf:about="">
        <dc:format>image/svg+xml</dc:format>
        <dc:type
           rdf:resource="http://purl.org/dc/dcmitype/StillImage" />
        <dc:title />
      </cc:Work>
    </rdf:RDF>
  </metadata>
  <g
     aria-label="P"
     style="font-variant:normal;font-weight:normal;font-stretch:normal;font-size:470.9822998px;font-family:'OS Univers';-inkscape-font-specification:OSUnivers-Regular;writing-mode:lr-tb;fill:none;fill-opacity:1;fill-rule:nonzero;stroke:#373737;stroke-width:36;stroke-miterlimit:4;stroke-dasharray:none;stroke-opacity:1"
     id="text10488-0">
    <path
       d="m 436.97389,210.96909 c 0,15.17814 -2.683,29.28308 -8.04901,42.31482 -5.21269,12.87842 -12.57179,24.07038 -22.0773,33.57589 -11.80522,11.80522 -25.75684,20.69746 -41.85487,26.67673 -16.09803,5.82595 -36.4122,8.73893 -60.94253,8.73893 H 258.51576 V 449.90982 H 212.98133 V 107.48177 h 92.90862 c 20.54415,0 37.94536,1.76312 52.20361,5.28935 14.25825,3.37292 26.9067,8.73893 37.94535,16.09803 13.03173,8.73893 23.07384,19.62427 30.12631,32.656 7.20578,13.03174 10.80867,29.51305 10.80867,49.44394 z m -47.37419,1.14986 c 0,-11.80522 -2.06975,-22.07729 -6.20924,-30.81622 -4.13949,-8.73893 -10.42539,-15.86806 -18.85769,-21.38738 -7.3591,-4.75275 -15.7914,-8.12567 -25.2969,-10.11876 -9.35219,-2.14641 -21.23407,-3.21961 -35.64564,-3.21961 h -45.07447 v 136.83324 h 38.40529 c 18.39775,0 33.34592,-1.6098 44.84451,-4.82941 11.49859,-3.37292 20.85077,-8.66227 28.05656,-15.86806 7.20579,-7.35909 12.26517,-15.10148 15.17814,-23.22715 3.06629,-8.12567 4.59944,-17.24789 4.59944,-27.36665 z"
       style="fill:none;stroke:#373737;stroke-width:36;stroke-miterlimit:4;stroke-dasharray:none;stroke-opacity:1"
       id="path824-8"
       inkscape:connector-curvature="0"
       sodipodi:nodetypes="scscsccccscccsssccsccscccs" />
  </g>
  <g
     aria-label="P"
     style="font-variant:normal;font-weight:normal;font-stretch:normal;font-size:470.9822998px;font-family:'OS Univers';-inkscape-font-specification:OSUnivers-Regular;writing-mode:lr-tb;fill:#a1a1a1;fill-opacity:1;fill-rule:nonzero;stroke:none;stroke-width:67.28318024"
     id="text10488">
    <path
       d="m 436.97389,210.96909 c 0,15.17814 -2.683,29.28308 -8.04901,42.31482 -5.21269,12.87842 -12.57179,24.07038 -22.0773,33.57589 -11.80522,11.80522 -25.75684,20.69746 -41.85487,26.67673 -16.09803,5.82595 -36.4122,8.73893 -60.94253,8.73893 H 258.51576 V 449.90982 H 212.98133 V 107.48177 h 92.90862 c 20.54415,0 37.94536,1.76312 52.20361,5.28935 14.25825,3.37292 26.9067,8.73893 37.94535,16.09803 13.03173,8.73893 23.07384,19.62427 30.12631,32.656 7.20578,13.03174 10.80867,29.51305 10.80867,49.44394 z m -47.37419,1.14986 c 0,-11.80522 -2.06975,-22.07729 -6.20924,-30.81622 -4.13949,-8.73893 -10.42539,-15.86806 -18.85769,-21.38738 -7.3591,-4.75275 -15.7914,-8.12567 -25.2969,-10.11876 -9.35219,-2.14641 -21.23407,-3.21961 -35.64564,-3.21961 h -45.07447 v 136.83324 h 38.40529 c 18.39775,0 33.34592,-1.6098 44.84451,-4.82941 11.49859,-3.37292 20.85077,-8.66227 28.05656,-15.86806 7.20579,-7.35909 12.26517,-15.10148 15.17814,-23.22715 3.06629,-8.12567 4.59944,-17.24789 4.59944,-27.36665 z"
       style="stroke-width:67.28318024;fill:#a1a1a1;fill-opacity:1"
       id="path824"
       inkscape:connector-curvature="0"
       sodipodi:nodetypes="scscsccccscccsssccsccscccs" />
  </g>
</svg>
