<?xml version="1.0" encoding="UTF-8" standalone="no"?>
<svg
   xmlns:dc="http://purl.org/dc/elements/1.1/"
   xmlns:cc="http://creativecommons.org/ns#"
   xmlns:rdf="http://www.w3.org/1999/02/22-rdf-syntax-ns#"
   xmlns:svg="http://www.w3.org/2000/svg"
   xmlns="http://www.w3.org/2000/svg"
   xmlns:sodipodi="http://sodipodi.sourceforge.net/DTD/sodipodi-0.dtd"
   xmlns:inkscape="http://www.inkscape.org/namespaces/inkscape"
   height="580"
   width="580"
   version="1.0"
   id="svg6"
   sodipodi:docname="power_wind.svg"
   inkscape:version="0.92.4 (5da689c313, 2019-01-14)">
  <defs
     id="defs10" />
  <sodipodi:namedview
     pagecolor="#ffffff"
     bordercolor="#666666"
     borderopacity="1"
     objecttolerance="10"
     gridtolerance="10"
     guidetolerance="10"
     inkscape:pageopacity="0"
     inkscape:pageshadow="2"
     inkscape:window-width="1920"
     inkscape:window-height="1017"
     id="namedview8"
     showgrid="false"
     inkscape:zoom="1.1508772"
     inkscape:cx="253.2453"
     inkscape:cy="287.35988"
     inkscape:window-x="-8"
     inkscape:window-y="-8"
     inkscape:window-maximized="1"
     inkscape:current-layer="svg6" />
  <metadata
     id="metadata10">
    <rdf:RDF>
      <cc:Work
         rdf:about="">
        <dc:format>image/svg+xml</dc:format>
        <dc:type
           rdf:resource="http://purl.org/dc/dcmitype/StillImage" />
      </cc:Work>
    </rdf:RDF>
  </metadata>
  <g
     id="g334"
     transform="matrix(3.7366436,0,0,-3.7366436,314.40731,561.29771)">
    <path
       d="m 0,0 -4.219,81.873 c 1.885,1.152 3.178,3.234 3.178,5.624 0,3.628 -2.954,6.581 -6.554,6.581 -3.67,0 -6.609,-2.953 -6.609,-6.581 0,-2.502 1.407,-4.668 3.488,-5.765 L -15.244,0 Z"
       style="fill:#231f20;fill-opacity:1;fill-rule:nonzero;stroke:none"
       id="path336"
       inkscape:connector-curvature="0" />
  </g>
  <g
     id="g338"
     transform="matrix(3.7366436,0,0,-3.7366436,136.4814,404.91657)">
    <path
       d="m 0,0 -0.281,0.422 c -0.548,2.305 0.028,5.174 1.659,8.437 9.023633,15.972715 14.027299,13.43273 29.897,31.866 0.842255,-1.583973 1.727637,-2.88272 3.389,-3.544 C 29.080641,29.549761 5.8384343,-0.99951367 0,0 Z"
       style="fill:#231f20;fill-opacity:1;fill-rule:nonzero;stroke:none"
       id="path340"
       inkscape:connector-curvature="0"
       sodipodi:nodetypes="cccccc" />
  </g>
  <g
     id="g342"
     transform="matrix(3.7366436,0,0,-3.7366436,461.74316,290.57524)">
    <path
       d="m 0,0 c -7.2,0.505 -15.215,2.952 -20.334,5.091 -5.767561,2.2001099 -11.805707,3.6074183 -17.845,4.836 0.868759,1.573384 1.448979,3.156546 1.393,4.839 C -17.628312,9.2393319 10.032733,8.0745344 12.685,3.318 L 12.741,3.122 12.516,2.756 C 10.744,1.125 8.044,0.196 4.388,-0.056 2.8369019,-0.0883048 1.301295,-0.08879907 0,0 Z"
       style="fill:#231f20;fill-opacity:1;fill-rule:nonzero;stroke:none"
       id="path344"
       inkscape:connector-curvature="0"
       sodipodi:nodetypes="ccccccccc" />
  </g>
  <g
     id="g346"
     transform="matrix(3.7366436,0,0,-3.7366436,268.26723,199.46241)">
    <path
       d="m -14.764,48.178 c 0.113597,0.18334 0.258478,0.16437 0.463,0.197 2.418,-0.702 4.613,-2.587 6.623,-5.653 C -3.262,36.056 -0.647,25.651 0.253,18.76 1.306928,12.690608 2.9090053,6.6809636 4.978,0.873 H 4.585 C 2.9520614,0.83226816 1.4384344,0.42104658 0.156,-0.31 -8.5467989,21.310302 -17.662288,42.951575 -14.764,48.178 Z"
       style="fill:#231f20;fill-opacity:1;fill-rule:nonzero;stroke:none"
       id="path348"
       inkscape:connector-curvature="0"
       sodipodi:nodetypes="cccccccc" />
  </g>
</svg>
