<?xml version="1.0" encoding="UTF-8" standalone="no"?>
<svg
   xmlns:dc="http://purl.org/dc/elements/1.1/"
   xmlns:cc="http://creativecommons.org/ns#"
   xmlns:rdf="http://www.w3.org/1999/02/22-rdf-syntax-ns#"
   xmlns:svg="http://www.w3.org/2000/svg"
   xmlns="http://www.w3.org/2000/svg"
   xmlns:sodipodi="http://sodipodi.sourceforge.net/DTD/sodipodi-0.dtd"
   xmlns:inkscape="http://www.inkscape.org/namespaces/inkscape"
   height="580"
   width="580"
   version="1.0"
   id="svg894"
   sodipodi:docname="power_solar.svg"
   inkscape:version="0.92.4 (5da689c313, 2019-01-14)">
  <defs
     id="defs898" />
  <sodipodi:namedview
     pagecolor="#ffffff"
     bordercolor="#666666"
     borderopacity="1"
     objecttolerance="10"
     gridtolerance="10"
     guidetolerance="10"
     inkscape:pageopacity="0"
     inkscape:pageshadow="2"
     inkscape:window-width="1920"
     inkscape:window-height="1017"
     id="namedview896"
     showgrid="false"
     inkscape:zoom="0.57543862"
     inkscape:cx="-136.94776"
     inkscape:cy="431.41895"
     inkscape:window-x="-8"
     inkscape:window-y="-8"
     inkscape:window-maximized="1"
     inkscape:current-layer="svg894" />
  <metadata
     id="metadata10">
    <rdf:RDF>
      <cc:Work
         rdf:about="">
        <dc:format>image/svg+xml</dc:format>
        <dc:type
           rdf:resource="http://purl.org/dc/dcmitype/StillImage" />
        <dc:title />
      </cc:Work>
    </rdf:RDF>
  </metadata>
  <g
     transform="translate(32,289.643)"
     style="display:block;visibility:visible"
     id="OpenLayers.Layer.Vector_118_root">
    <g
       id="OpenLayers.Layer.Vector_118_vroot" />
    <g
       id="OpenLayers.Layer.Vector_118_troot" />
  </g>
  <g
     transform="translate(32,289.643)"
     style="display:block;visibility:visible"
     id="OpenLayers.Layer.Vector_118_root-9">
    <g
       id="OpenLayers.Layer.Vector_118_vroot-4" />
    <g
       id="OpenLayers.Layer.Vector_118_troot-4" />
  </g>
  <path
     style="fill:#000000;fill-opacity:1;stroke-width:0.96853435"
     d="M 31.091797 33.550781 L 31.091797 538.33203 L 535.875 538.33203 L 535.875 33.550781 L 31.091797 33.550781 z M 281.29297 60.488281 A 17.378048 17.378048 0 0 1 281.41406 60.488281 A 17.378048 17.378048 0 0 1 298.75586 76.779297 L 298.96484 76.779297 L 298.96484 130.86914 L 263.99219 130.86914 L 263.99219 76.779297 L 264.0918 76.779297 A 17.378048 17.378048 0 0 1 281.29297 60.488281 z M 474.18555 73.265625 A 17.378048 17.378048 0 0 1 486.21875 78.353516 A 17.378048 17.378048 0 0 1 486.96094 102.13477 L 487.10938 102.2832 L 401.50781 187.88672 L 376.77734 163.15625 L 462.37891 77.554688 L 462.44922 77.625 A 17.378048 17.378048 0 0 1 474.18555 73.265625 z M 93.175781 78.859375 A 17.378048 17.378048 0 0 1 104.41602 83.207031 L 104.56445 83.058594 L 184.51758 163.01172 L 159.78906 187.74219 L 79.833984 107.78711 L 79.904297 107.7168 A 17.378048 17.378048 0 0 1 80.634766 83.947266 A 17.378048 17.378048 0 0 1 93.175781 78.859375 z M 278.91602 160.32031 A 121.64634 121.64634 0 0 1 389.06055 230.6582 L 227.60938 392.10742 A 121.64634 121.64634 0 0 1 157.26953 281.9668 A 121.64634 121.64634 0 0 1 278.91602 160.32031 z M 503.09375 168.12695 L 503.09375 274.16016 L 400.68555 376.56836 L 347.66797 323.55273 L 503.09375 168.12695 z M 74.943359 266.1543 L 129.03125 266.1543 L 129.03125 301.12695 L 74.943359 301.12695 L 74.943359 301.02734 A 17.378048 17.378048 0 0 1 58.650391 283.70508 A 17.378048 17.378048 0 0 1 74.943359 266.36328 L 74.943359 266.1543 z M 502.12109 328.69531 L 502.12109 403.66211 L 502.12109 478.63086 L 464.3418 441.14648 L 426.56445 403.66211 L 464.3418 366.17969 L 502.12109 328.69531 z M 322.06836 349.58789 L 375.08398 402.60352 L 272.41406 505.27344 L 166.38086 505.27344 L 322.06836 349.58789 z M 159.17773 381.27539 L 183.9082 406.00586 L 103.95508 485.95898 L 103.88477 485.88867 A 17.378048 17.378048 0 0 1 80.115234 485.16016 A 17.378048 17.378048 0 0 1 79.373047 461.37695 L 79.224609 461.22852 L 159.17773 381.27539 z M 400.64453 429.41016 L 438.12891 467.1875 L 475.61328 504.9668 L 400.64453 504.9668 L 325.67773 504.9668 L 363.16211 467.1875 L 400.64453 429.41016 z "
     id="path2066" />
</svg>
