<?xml version="1.0" encoding="UTF-8" standalone="no"?>
<svg
   xmlns:dc="http://purl.org/dc/elements/1.1/"
   xmlns:cc="http://creativecommons.org/ns#"
   xmlns:rdf="http://www.w3.org/1999/02/22-rdf-syntax-ns#"
   xmlns:svg="http://www.w3.org/2000/svg"
   xmlns="http://www.w3.org/2000/svg"
   xmlns:sodipodi="http://sodipodi.sourceforge.net/DTD/sodipodi-0.dtd"
   xmlns:inkscape="http://www.inkscape.org/namespaces/inkscape"
   height="580"
   width="580"
   version="1.0"
   id="svg6"
   sodipodi:docname="pub-50k-night.svg"
   inkscape:version="0.92.4 (5da689c313, 2019-01-14)">
  <defs
     id="defs10" />
  <sodipodi:namedview
     pagecolor="#ffffff"
     bordercolor="#666666"
     borderopacity="1"
     objecttolerance="10"
     gridtolerance="10"
     guidetolerance="10"
     inkscape:pageopacity="0"
     inkscape:pageshadow="2"
     inkscape:window-width="1920"
     inkscape:window-height="1017"
     id="namedview8"
     showgrid="false"
     inkscape:zoom="1.1508772"
     inkscape:cx="-8.1977159"
     inkscape:cy="312.4104"
     inkscape:window-x="-8"
     inkscape:window-y="-8"
     inkscape:window-maximized="1"
     inkscape:current-layer="svg6" />
  <metadata
     id="metadata10">
    <rdf:RDF>
      <cc:Work
         rdf:about="">
        <dc:format>image/svg+xml</dc:format>
        <dc:type
           rdf:resource="http://purl.org/dc/dcmitype/StillImage" />
        <dc:title />
      </cc:Work>
    </rdf:RDF>
  </metadata>
  <path
     style="color:#000000;font-style:normal;font-variant:normal;font-weight:normal;font-stretch:normal;font-size:419.73849487px;line-height:1.25;font-family:'Gill Sans MT';-inkscape-font-specification:'Gill Sans MT, Normal';font-variant-ligatures:normal;font-variant-position:normal;font-variant-caps:normal;font-variant-numeric:normal;font-variant-alternates:normal;font-feature-settings:normal;text-indent:0;text-align:start;text-decoration:none;text-decoration-line:none;text-decoration-style:solid;text-decoration-color:#000000;letter-spacing:0px;word-spacing:0px;text-transform:none;writing-mode:lr-tb;direction:ltr;text-orientation:mixed;dominant-baseline:auto;baseline-shift:baseline;text-anchor:start;white-space:normal;shape-padding:0;clip-rule:nonzero;display:inline;overflow:visible;visibility:visible;opacity:1;isolation:auto;mix-blend-mode:normal;color-interpolation:sRGB;color-interpolation-filters:linearRGB;solid-color:#000000;solid-opacity:1;vector-effect:none;fill:#373737;fill-opacity:1;fill-rule:nonzero;stroke:none;stroke-width:30;stroke-linecap:butt;stroke-linejoin:miter;stroke-miterlimit:4;stroke-dasharray:none;stroke-dashoffset:0;stroke-opacity:1;color-rendering:auto;image-rendering:auto;shape-rendering:auto;text-rendering:auto;enable-background:accumulate"
     d="M 46.775391 124.79492 L 46.775391 139.79492 L 46.775391 441.51953 L 117.9707 441.51953 L 117.9707 317.32031 L 133.4375 317.32031 L 133.56836 317.31836 C 168.723 316.69826 198.62196 311.15256 221.26562 295.75 C 243.90929 280.34744 257.01685 254.27971 257.33789 221.51172 L 257.33789 221.47852 L 257.33789 221.44531 C 257.50587 190.29041 245.44092 164.85077 225.81641 148.5918 C 206.19189 132.33282 180.2027 125.04811 152.70703 124.79492 L 152.63672 124.79492 L 46.775391 124.79492 z M 76.775391 154.79492 L 152.42969 154.79492 C 174.75117 155.00046 193.79574 161.02025 206.67578 171.69141 C 219.54882 182.35676 227.45548 197.46398 227.33594 221.24805 C 227.07755 246.99436 219.3007 260.80458 204.39258 270.94531 C 189.48657 281.0846 165.17301 286.74873 133.0918 287.32031 L 87.970703 287.32031 L 87.970703 411.51953 L 76.775391 411.51953 L 76.775391 154.79492 z "
     id="path878" />
  <path
     style="color:#000000;font-style:normal;font-variant:normal;font-weight:normal;font-stretch:normal;font-size:419.73849487px;line-height:1.25;font-family:'Gill Sans MT';-inkscape-font-specification:'Gill Sans MT, Normal';font-variant-ligatures:normal;font-variant-position:normal;font-variant-caps:normal;font-variant-numeric:normal;font-variant-alternates:normal;font-feature-settings:normal;text-indent:0;text-align:start;text-decoration:none;text-decoration-line:none;text-decoration-style:solid;text-decoration-color:#000000;letter-spacing:0px;word-spacing:0px;text-transform:none;writing-mode:lr-tb;direction:ltr;text-orientation:mixed;dominant-baseline:auto;baseline-shift:baseline;text-anchor:start;white-space:normal;shape-padding:0;clip-rule:nonzero;display:inline;overflow:visible;visibility:visible;opacity:1;isolation:auto;mix-blend-mode:normal;color-interpolation:sRGB;color-interpolation-filters:linearRGB;solid-color:#000000;solid-opacity:1;vector-effect:none;fill:#373737;fill-opacity:1;fill-rule:nonzero;stroke:none;stroke-width:30;stroke-linecap:butt;stroke-linejoin:miter;stroke-miterlimit:4;stroke-dasharray:none;stroke-dashoffset:0;stroke-opacity:1;color-rendering:auto;image-rendering:auto;shape-rendering:auto;text-rendering:auto;enable-background:accumulate"
     d="m 262.99805,125.20508 v 316.31445 h 70.99023 V 316.91016 H 464.875 v 124.60937 h 70.99023 V 125.20508 H 464.875 v 15 108.78906 H 333.98828 V 125.20508 Z"
     id="path886" />
  <path
     style="font-style:normal;font-variant:normal;font-weight:normal;font-stretch:normal;font-size:419.73849487px;line-height:1.25;font-family:'Gill Sans MT';-inkscape-font-specification:'Gill Sans MT, Normal';font-variant-ligatures:normal;font-variant-caps:normal;font-variant-numeric:normal;font-feature-settings:normal;text-align:start;letter-spacing:0px;word-spacing:0px;writing-mode:lr-tb;text-anchor:start;fill:#a1a1a1;fill-opacity:1;stroke:none;stroke-width:10.49346352"
     d="M 106.92969 139.39453 C 91.508857 139.41263 76.17005 139.79492 61.775391 139.79492 L 61.775391 426.51953 L 102.9707 426.51953 L 102.9707 302.32031 C 190.41158 308.04915 242.15713 286.48182 241.9043 220.49609 C 242.12063 146.0822 173.75327 139.31599 106.92969 139.39453 z M 121.40234 176.13672 C 163.58316 176.31617 198.70415 181.38462 199.91211 220.33984 C 200.683 272.89459 143.46175 265.83984 102.9707 265.83984 L 102.9707 176.27539 C 109.20639 176.18609 115.37651 176.11108 121.40234 176.13672 z "
     id="path817" />
  <path
     inkscape:connector-curvature="0"
     id="path840"
     style="font-style:normal;font-variant:normal;font-weight:normal;font-stretch:normal;font-size:419.73849487px;line-height:1.25;font-family:'Gill Sans MT';-inkscape-font-specification:'Gill Sans MT, Normal';font-variant-ligatures:normal;font-variant-caps:normal;font-variant-numeric:normal;font-feature-settings:normal;text-align:start;letter-spacing:0px;word-spacing:0px;writing-mode:lr-tb;text-anchor:start;fill:#a1a1a1;fill-opacity:1;stroke:none;stroke-width:10.49346352"
     d="m 479.87492,140.20432 h 40.99009 V 426.52008 H 479.87492 V 301.91021 H 318.98883 V 426.52008 H 277.99874 V 140.20432 h 40.99009 v 123.79006 h 160.88609 z" />
  <path
     style="font-style:normal;font-variant:normal;font-weight:normal;font-stretch:normal;font-size:419.73849487px;line-height:1.25;font-family:'Gill Sans MT';-inkscape-font-specification:'Gill Sans MT, Normal';font-variant-ligatures:normal;font-variant-caps:normal;font-variant-numeric:normal;font-feature-settings:normal;text-align:start;letter-spacing:0px;word-spacing:0px;writing-mode:lr-tb;text-anchor:start;fill:#454545;fill-opacity:1;stroke:none;stroke-width:10.49346352"
     d="m 121.40234,176.13672 c -6.02583,-0.0256 -12.19595,0.0494 -18.43164,0.13867 v 89.56445 c 40.49105,0 97.7123,7.05475 96.94141,-45.5 -1.20796,-38.95522 -36.32895,-44.02367 -78.50977,-44.20312 z m 62.31055,44.61523 c 0.52549,35.23557 -38.47906,30.50586 -66.08008,30.50586 v -60.04883 c 43.2034,-0.32233 66.9794,5.41811 66.08008,29.54297 z"
     id="path827"
     inkscape:connector-curvature="0"
     sodipodi:nodetypes="scccscccc" />
</svg>
