<?xml version="1.0" encoding="UTF-8" standalone="no"?>
<svg
   xmlns:dc="http://purl.org/dc/elements/1.1/"
   xmlns:cc="http://creativecommons.org/ns#"
   xmlns:rdf="http://www.w3.org/1999/02/22-rdf-syntax-ns#"
   xmlns:svg="http://www.w3.org/2000/svg"
   xmlns="http://www.w3.org/2000/svg"
   xmlns:sodipodi="http://sodipodi.sourceforge.net/DTD/sodipodi-0.dtd"
   xmlns:inkscape="http://www.inkscape.org/namespaces/inkscape"
   height="580"
   width="580"
   version="1.0"
   id="svg6"
   sodipodi:docname="pub.svg"
   inkscape:version="0.92.4 (5da689c313, 2019-01-14)">
  <defs
     id="defs10" />
  <sodipodi:namedview
     pagecolor="#ffffff"
     bordercolor="#666666"
     borderopacity="1"
     objecttolerance="10"
     gridtolerance="10"
     guidetolerance="10"
     inkscape:pageopacity="0"
     inkscape:pageshadow="2"
     inkscape:window-width="1920"
     inkscape:window-height="1017"
     id="namedview8"
     showgrid="false"
     inkscape:zoom="0.8137931"
     inkscape:cx="125.43388"
     inkscape:cy="301.6707"
     inkscape:window-x="-8"
     inkscape:window-y="-8"
     inkscape:window-maximized="1"
     inkscape:current-layer="svg6" />
  <metadata
     id="metadata10">
    <rdf:RDF>
      <cc:Work
         rdf:about="">
        <dc:format>image/svg+xml</dc:format>
        <dc:type
           rdf:resource="http://purl.org/dc/dcmitype/StillImage" />
      </cc:Work>
    </rdf:RDF>
  </metadata>
  <g
     id="g72"
     transform="matrix(59.719134,0,0,-59.719134,387.89484,211.03034)"
     style="opacity:1;fill:#0098e3;fill-opacity:0.78431374">
    <path
       d="M -0.08230619,-0.06172964 H -5.5273062 c 0.097,0.686 0.279,1.33000004 0.56,1.86000004 h 4.49400001 c 0.028,-0.068 0.434,-1.24400004 0.391,-1.86000004 m 2.12899999,0.153 c 0.111,-0.573 -0.029,-1.80499996 -0.113,-1.91799996 -0.084,-0.154 -0.196,-0.195 -0.504,-0.321 -0.307,-0.112 -0.35,-0.141 -0.74199999,-0.183 0.154,0.925 0.126,1.84899996 -0.014,2.70299996 0.51899999,0.392 0.93899999,0.434 1.02299999,0.35 0.112,-0.084 0.252,-0.196 0.35,-0.631 m 0.615,-2.42199996 c 0.211,0.309 0.826,2.98299996 -0.49,3.823 -0.504,0.306 -1.147,0.112 -1.73399999,-0.24 -0.127,0.379 -0.295,0.716 -0.477,1.038 H -5.3873062 c -1.205,-1.97500004 -1.091,-5.376 0.405,-7.476 h 4.53700001 c 0.42,0.588 0.699,1.246 0.91,1.946 0.96499999,0.112 1.72299999,0.266 2.19699999,0.909"
       style="fill:#0098e3;fill-opacity:0.78431374;fill-rule:evenodd;stroke:none"
       id="path74"
       inkscape:connector-curvature="0" />
  </g>
</svg>
