<?xml version="1.0" encoding="UTF-8" standalone="no"?>
<svg
   xmlns:dc="http://purl.org/dc/elements/1.1/"
   xmlns:cc="http://creativecommons.org/ns#"
   xmlns:rdf="http://www.w3.org/1999/02/22-rdf-syntax-ns#"
   xmlns:svg="http://www.w3.org/2000/svg"
   xmlns="http://www.w3.org/2000/svg"
   xmlns:sodipodi="http://sodipodi.sourceforge.net/DTD/sodipodi-0.dtd"
   xmlns:inkscape="http://www.inkscape.org/namespaces/inkscape"
   height="580"
   width="580"
   version="1.1"
   id="svg4548"
   sodipodi:docname="recycling.svg"
   inkscape:version="0.92.4 (5da689c313, 2019-01-14)">
  <metadata
     id="metadata4554">
    <rdf:RDF>
      <cc:Work
         rdf:about="">
        <dc:format>image/svg+xml</dc:format>
        <dc:type
           rdf:resource="http://purl.org/dc/dcmitype/StillImage" />
        <dc:title />
      </cc:Work>
    </rdf:RDF>
  </metadata>
  <defs
     id="defs4552" />
  <sodipodi:namedview
     pagecolor="#ffffff"
     bordercolor="#666666"
     borderopacity="1"
     objecttolerance="10"
     gridtolerance="10"
     guidetolerance="10"
     inkscape:pageopacity="0"
     inkscape:pageshadow="2"
     inkscape:window-width="1920"
     inkscape:window-height="1017"
     id="namedview4550"
     showgrid="false"
     inkscape:zoom="1.0545644"
     inkscape:cx="317.54378"
     inkscape:cy="205.23711"
     inkscape:window-x="-8"
     inkscape:window-y="-8"
     inkscape:window-maximized="1"
     inkscape:current-layer="svg4548" />
  <path
     d="m 205.75578,353.03438 c -21.96294,-38.26509 -43.91762,-76.53491 -65.88055,-114.8 H 7.3801868 c 18.1375182,12.19957 39.1542852,26.81456 51.8675712,36.50132 -11.537474,18.16441 -43.924332,54.79383 -31.799545,83.21762 17.155147,31.16812 38.208562,66.08842 55.761939,97.09275 -1.536375,-7.67797 1.285508,-14.07055 3.062512,-17.74647 8.946427,-18.50671 18.416766,-33.95332 28.928636,-51.6415 12.5998,-21.20153 25.63123,-42.17869 37.43315,-63.80317 17.70871,10.39044 35.41262,20.78903 53.12133,31.17945 z m -98.46427,92.11207 c -17.089889,30.74768 10.83949,60.04584 43.64758,58.78235 H 271.65826 V 398.3773 H 134.22519 c -8.92447,15.62047 -18.02697,31.1385 -26.93368,46.76915 z M 283.70436,183.68683 h 131.78303 c 22.20427,-38.25411 44.40034,-76.51299 66.60462,-114.767093 -17.91099,10.098917 -38.61679,22.927879 -52.118,31.865263 -15.80689,-20.816244 -32.00247,-73.676502 -60.59364,-74.095217 -35.8296,-0.516054 -80.29945,0.01253 -116.1846,-0.103696 9.58858,2.772766 16.08189,10.685259 19.68247,16.221269 23.06347,35.460806 41.91682,73.583124 63.95842,109.700034 -17.58136,10.61239 -35.42577,20.77928 -53.1323,31.17944 z M 219.2281,32.077104 c -34.19041,-0.299206 -46.03013,37.078466 -58.92221,62.697312 -12.19527,24.234154 -21.91296,46.717204 -35.2785,73.821754 28.63527,13.37938 64.12522,33.48489 87.88361,45.40232 22.35402,-38.34047 44.5174,-76.7919 66.53663,-115.325546 C 261.09843,73.735943 242.10787,32.133105 219.2281,32.077104 Z M 388.58663,396.94011 v -61.61284 c -21.9764,38.25844 -43.9398,76.52435 -65.92443,114.77805 21.9862,38.01507 43.94645,76.04514 65.92443,114.06496 v -61.6348 c 29.12819,-0.15235 70.68831,4.56179 84.44788,-9.77705 28.29798,-29.48929 49.72199,-73.37282 68.11406,-101.35428 -4.85307,2.9543 -15.75046,5.60756 -21.11623,5.68196 -41.25153,0.57206 -94.11542,-0.16289 -131.44571,-0.146 z m 97.77309,-194.11996 c -27.69827,19.35468 -66.20291,40.92045 -89.25273,56.18391 22.40609,38.67625 44.83207,77.34097 67.27792,115.99415 28.04371,-0.53051 66.84172,2.3387 81.26946,-10.67298 22.71429,-21.94607 4.56566,-54.06294 -10.08995,-75.88815 -16.40131,-28.53912 -32.80457,-57.07712 -49.2047,-85.61693 z"
     id="path4546"
     inkscape:connector-curvature="0"
     style="fill:#0098e3;fill-opacity:0.78431373;stroke-width:1.09709454"
     sodipodi:nodetypes="ccccccssccccccccccccccscccscccccccccscsccccccc" />
</svg>
