<?xml version="1.0" encoding="UTF-8" standalone="no"?>
<svg
   xmlns:dc="http://purl.org/dc/elements/1.1/"
   xmlns:cc="http://creativecommons.org/ns#"
   xmlns:rdf="http://www.w3.org/1999/02/22-rdf-syntax-ns#"
   xmlns:svg="http://www.w3.org/2000/svg"
   xmlns="http://www.w3.org/2000/svg"
   xmlns:sodipodi="http://sodipodi.sourceforge.net/DTD/sodipodi-0.dtd"
   xmlns:inkscape="http://www.inkscape.org/namespaces/inkscape"
   height="580"
   width="580"
   version="1.0"
   id="svg824"
   sodipodi:docname="reservoir-night.svg"
   inkscape:version="0.92.4 (5da689c313, 2019-01-14)">
  <defs
     id="defs828" />
  <sodipodi:namedview
     pagecolor="#ffffff"
     bordercolor="#666666"
     borderopacity="1"
     objecttolerance="10"
     gridtolerance="10"
     guidetolerance="10"
     inkscape:pageopacity="0"
     inkscape:pageshadow="2"
     inkscape:window-width="1920"
     inkscape:window-height="1017"
     id="namedview826"
     showgrid="false"
     inkscape:zoom="1.0545644"
     inkscape:cx="468.79699"
     inkscape:cy="333.39311"
     inkscape:window-x="-8"
     inkscape:window-y="-8"
     inkscape:window-maximized="1"
     inkscape:current-layer="g966" />
  <metadata
     id="metadata2975">
    <rdf:RDF>
      <cc:Work
         rdf:about="">
        <dc:format>image/svg+xml</dc:format>
        <dc:type
           rdf:resource="http://purl.org/dc/dcmitype/StillImage" />
        <dc:title></dc:title>
      </cc:Work>
    </rdf:RDF>
  </metadata>
  <g
     id="g966"
     transform="matrix(43.480197,0,0,-43.480197,307.88094,336.12543)">
    <path
       inkscape:connector-curvature="0"
       id="path824-0"
       style="font-style:normal;font-weight:normal;font-size:2.69870543px;line-height:1.25;font-family:sans-serif;letter-spacing:0px;word-spacing:0px;fill:#000000;fill-opacity:1;stroke:#373737;stroke-width:0.51577431;stroke-linejoin:round;stroke-miterlimit:4;stroke-dasharray:none;stroke-opacity:1"
       d="m -5.1146389,0.39004874 h -0.345213 L -6.1287862,1.1852477 H -6.5035505 V 0.39004874 H -6.7695123 V 2.3901351 h 0.5601317 c 0.1208918,0 0.2214837,-0.00884 0.3022293,-0.024178 0.2724715,-0.051763 0.4493379,-0.2659767 0.4486422,-0.5198344 C -5.4592818,1.5641729 -5.636315,1.3561863 -5.8668545,1.264499 Z M -5.7365596,1.827317 c -0.034045,0.3950266 -0.4033641,0.3316885 -0.7669909,0.3344673 V 1.4068827 c 0.4792831,-0.014945 0.796148,0.082116 0.7669909,0.4204343 z"
       sodipodi:nodetypes="cccccccsssccsccs" />
    <path
       inkscape:connector-curvature="0"
       id="path826-4"
       style="font-style:normal;font-weight:normal;font-size:2.69870543px;line-height:1.25;font-family:sans-serif;letter-spacing:0px;word-spacing:0px;fill:#000000;fill-opacity:1;stroke:#373737;stroke-width:0.51577431;stroke-linejoin:round;stroke-miterlimit:4;stroke-dasharray:none;stroke-opacity:1"
       d="m -3.6854301,1.1140558 h -1.1054876 c 0.00216,-0.15555973 0.046461,-0.31097729 0.1558165,-0.40968856 0.1065435,-0.0961738 0.2489045,-0.13146683 0.3774508,-0.12895135 0.2046464,0.004006 0.3776094,0.077866 0.5426693,0.18133791 V 0.48138931 c -0.1766833,-0.074022 -0.3631591,-0.13315358 -0.539983,-0.12626534 -0.5249023,0.0204474 -0.7923237,0.30671283 -0.7925124,0.77639353 -1.914e-4,0.4764104 0.2621926,0.8051883 0.7293801,0.8005718 0.5162678,-0.0051 0.638225,-0.3981264 0.6326663,-0.8180335 z m -0.2458132,0.1934269 c -0.00821,0.2710916 -0.1641249,0.4205 -0.4002854,0.4164047 -0.2637108,-0.00458 -0.4351463,-0.1803097 -0.4593885,-0.4164047 z"
       sodipodi:nodetypes="ccssccsssccscc" />
    <path
       inkscape:connector-curvature="0"
       id="path828-3"
       style="font-style:normal;font-weight:normal;font-size:2.69870543px;line-height:1.25;font-family:sans-serif;letter-spacing:0px;word-spacing:0px;fill:#000000;fill-opacity:1;stroke:#373737;stroke-width:0.51577431;stroke-linejoin:round;stroke-miterlimit:4;stroke-dasharray:none;stroke-opacity:1"
       d="m -2.2306996,0.82257248 c -0.00156,-0.36068857 -0.351194,-0.46910069 -0.63401,-0.46879122 -0.1935813,2.1183e-4 -0.3728541,0.0443351 -0.5386398,0.12626432 V 0.76346946 C -3.224532,0.66163925 -3.039388,0.5689513 -2.843218,0.56735661 c 0.1611949,-0.001315 0.3676977,0.0577234 0.3546158,0.22297803 -0.015369,0.19414865 -0.2509627,0.20701004 -0.388197,0.24043976 -0.2845788,0.069322 -0.5221687,0.1259062 -0.5198341,0.4378967 0.00245,0.32723 0.3357421,0.4620947 0.6058015,0.4580452 0.1775334,-0.00266 0.3477319,-0.035165 0.501029,-0.1128322 V 1.5438926 c -0.165996,0.089962 -0.3363486,0.1692298 -0.5198341,0.1692485 -0.144067,1.47e-5 -0.3291029,-0.062169 -0.3290945,-0.2108888 8.3e-6,-0.1445518 0.1370146,-0.1875704 0.2404399,-0.2162624 0.3224093,-0.089442 0.6692375,-0.08391 0.6675919,-0.46341742 z"
       sodipodi:nodetypes="ssccsssssccssss" />
    <path
       inkscape:connector-curvature="0"
       id="path830-6"
       style="font-style:normal;font-weight:normal;font-size:2.69870543px;line-height:1.25;font-family:sans-serif;letter-spacing:0px;word-spacing:0px;fill:#000000;fill-opacity:1;stroke:#373737;stroke-width:0.51577431;stroke-linejoin:round;stroke-miterlimit:4;stroke-dasharray:none;stroke-opacity:1"
       d="M -0.61209388,1.1140558 H -1.7175816 c 0.059721,-0.35875908 0.2069659,-0.54199739 0.5332673,-0.53863991 0.20467481,0.00211 0.37760948,0.077866 0.54266953,0.18133791 V 0.48138931 C -0.81832803,0.4073673 -1.0046751,0.35375058 -1.1816278,0.35512397 c -0.5346601,0.004149 -0.7917,0.30290062 -0.7925124,0.77639353 -8.282e-4,0.4826514 0.2790317,0.8084404 0.72938,0.8005718 0.5159977,-0.00901 0.64378316,-0.381453 0.63266632,-0.8180335 z M -0.85790705,1.3074827 C -0.86611105,1.5785743 -1.0220335,1.7279829 -1.2581929,1.7238874 -1.521904,1.7193142 -1.6933393,1.5435778 -1.7175816,1.3074827 Z"
       sodipodi:nodetypes="ccsccsssccscc" />
    <path
       inkscape:connector-curvature="0"
       id="path832-3"
       style="font-style:normal;font-weight:normal;font-size:2.69870543px;line-height:1.25;font-family:sans-serif;letter-spacing:0px;word-spacing:0px;fill:#000000;fill-opacity:1;stroke:#373737;stroke-width:0.51577431;stroke-linejoin:round;stroke-miterlimit:4;stroke-dasharray:none;stroke-opacity:1"
       d="M 0.70696926,1.6150849 H 0.69353685 C 0.61445495,1.6337268 0.53087056,1.6421278 0.45846961,1.6406077 0.28910341,1.6370519 0.14205927,1.5510227 0.02325941,1.4552408 V 0.39005027 H -0.22926996 V 1.8904509 H 0.02325941 V 1.6688161 c 0.14746111,0.1192301 0.32097035,0.2192269 0.49968578,0.2216352 0.0621302,8.373e-4 0.13232254,-0.00793 0.18402403,-0.016115 z"
       sodipodi:nodetypes="ccsccccccscc" />
    <path
       inkscape:connector-curvature="0"
       id="path834-2"
       style="font-style:normal;font-weight:normal;font-size:2.69870543px;line-height:1.25;font-family:sans-serif;letter-spacing:0px;word-spacing:0px;fill:#000000;fill-opacity:1;stroke:#373737;stroke-width:0.51577431;stroke-linejoin:round;stroke-miterlimit:4;stroke-dasharray:none;stroke-opacity:1"
       d="M 2.3387576,1.8904494 1.7316125,0.39004874 H 1.4777399 L 0.87462442,1.8904494 H 1.1486458 L 1.6134073,0.69630786 2.0741391,1.8904494 Z" />
    <path
       inkscape:connector-curvature="0"
       id="path836-6"
       style="font-style:normal;font-weight:normal;font-size:2.69870543px;line-height:1.25;font-family:sans-serif;letter-spacing:0px;word-spacing:0px;fill:#000000;fill-opacity:1;stroke:#373737;stroke-width:0.51577431;stroke-linejoin:round;stroke-miterlimit:4;stroke-dasharray:none;stroke-opacity:1"
       d="M 3.832692,1.1395775 C 3.822416,0.67329902 3.5832389,0.33439982 3.1409226,0.34840831 2.6444943,0.36413064 2.4387886,0.72333564 2.4478102,1.1395775 2.457963,1.6078011 2.6971782,1.9464067 3.1409226,1.9320898 3.6344228,1.9161674 3.8417988,1.5528012 3.832692,1.1395775 Z m -0.2605888,0 C 3.5667955,1.4536319 3.4602722,1.7250134 3.1409226,1.7144847 2.7838854,1.7027136 2.7035798,1.4136928 2.7083989,1.1395775 2.7138801,0.82780375 2.8249273,0.55525963 3.1409226,0.56601339 3.4902472,0.5779014 3.5766614,0.86986671 3.5721032,1.1395775 Z"
       sodipodi:nodetypes="ssssssssss" />
    <path
       inkscape:connector-curvature="0"
       id="path838-0"
       style="font-style:normal;font-weight:normal;font-size:2.69870543px;line-height:1.25;font-family:sans-serif;letter-spacing:0px;word-spacing:0px;fill:#000000;fill-opacity:1;stroke:#373737;stroke-width:0.51577431;stroke-linejoin:round;stroke-miterlimit:4;stroke-dasharray:none;stroke-opacity:1"
       d="M 4.4962532,2.1416355 H 4.211486 V 2.4035676 H 4.4962532 Z M 4.4801343,0.39004874 H 4.2276048 V 1.8904494 h 0.2525295 z" />
    <path
       inkscape:connector-curvature="0"
       id="path840-1"
       style="font-style:normal;font-weight:normal;font-size:2.69870543px;line-height:1.25;font-family:sans-serif;letter-spacing:0px;word-spacing:0px;fill:#000000;fill-opacity:1;stroke:#373737;stroke-width:0.51577431;stroke-linejoin:round;stroke-miterlimit:4;stroke-dasharray:none;stroke-opacity:1"
       d="M 5.918745,1.6150849 H 5.9053128 C 5.8262316,1.6337299 5.7426463,1.6421278 5.6702457,1.6406077 5.5008795,1.6370518 5.3538353,1.5510227 5.2350354,1.4552408 V 0.39005027 H 4.9825058 V 1.8904509 H 5.2350351 V 1.6688161 c 0.1002951,0.080595 0.1885453,0.1373582 0.2646186,0.1705917 0.1398732,0.061106 0.2820684,0.056626 0.4190917,0.034928 z"
       sodipodi:nodetypes="ccsccccccscc" />
    <path
       inkscape:connector-curvature="0"
       id="path824"
       style="font-style:normal;font-weight:normal;font-size:2.69870543px;line-height:1.25;font-family:sans-serif;letter-spacing:0px;word-spacing:0px;fill:#a1a1a1;fill-opacity:1;stroke:none;stroke-width:0.06877396"
       d="m -5.1146389,0.39004874 h -0.345213 L -6.1287862,1.1852477 H -6.5035505 V 0.39004874 H -6.7695123 V 2.3901351 h 0.5601317 c 0.1208918,0 0.2214837,-0.00884 0.3022293,-0.024178 0.2724715,-0.051763 0.4493379,-0.2659767 0.4486422,-0.5198344 C -5.4592818,1.5641729 -5.636315,1.3561863 -5.8668545,1.264499 Z M -5.7365596,1.827317 c -0.034045,0.3950266 -0.4033641,0.3316885 -0.7669909,0.3344673 V 1.4068827 c 0.4792831,-0.014945 0.796148,0.082116 0.7669909,0.4204343 z"
       sodipodi:nodetypes="cccccccsssccsccs" />
    <path
       inkscape:connector-curvature="0"
       id="path826"
       style="font-style:normal;font-weight:normal;font-size:2.69870543px;line-height:1.25;font-family:sans-serif;letter-spacing:0px;word-spacing:0px;fill:#a1a1a1;fill-opacity:1;stroke:none;stroke-width:0.06877396"
       d="m -3.6854301,1.1140558 h -1.1054876 c 0.00216,-0.15555973 0.046461,-0.31097729 0.1558165,-0.40968856 0.1065435,-0.0961738 0.2489045,-0.13146683 0.3774508,-0.12895135 0.2046464,0.004006 0.3776094,0.077866 0.5426693,0.18133791 V 0.48138931 c -0.1766833,-0.074022 -0.3631591,-0.13315358 -0.539983,-0.12626534 -0.5249023,0.0204474 -0.7923237,0.30671283 -0.7925124,0.77639353 -1.914e-4,0.4764104 0.2621926,0.8051883 0.7293801,0.8005718 0.5162678,-0.0051 0.638225,-0.3981264 0.6326663,-0.8180335 z m -0.2458132,0.1934269 c -0.00821,0.2710916 -0.1641249,0.4205 -0.4002854,0.4164047 -0.2637108,-0.00458 -0.4351463,-0.1803097 -0.4593885,-0.4164047 z"
       sodipodi:nodetypes="ccssccsssccscc" />
    <path
       inkscape:connector-curvature="0"
       id="path828"
       style="font-style:normal;font-weight:normal;font-size:2.69870543px;line-height:1.25;font-family:sans-serif;letter-spacing:0px;word-spacing:0px;fill:#a1a1a1;fill-opacity:1;stroke:none;stroke-width:0.06877396"
       d="m -2.2306996,0.82257248 c -0.00156,-0.36068857 -0.351194,-0.46910069 -0.63401,-0.46879122 -0.1935813,2.1183e-4 -0.3728541,0.0443351 -0.5386398,0.12626432 V 0.76346946 C -3.224532,0.66163925 -3.039388,0.5689513 -2.843218,0.56735661 c 0.1611949,-0.001315 0.3676977,0.0577234 0.3546158,0.22297803 -0.015369,0.19414865 -0.2509627,0.20701004 -0.388197,0.24043976 -0.2845788,0.069322 -0.5221687,0.1259062 -0.5198341,0.4378967 0.00245,0.32723 0.3357421,0.4620947 0.6058015,0.4580452 0.1775334,-0.00266 0.3477319,-0.035165 0.501029,-0.1128322 V 1.5438926 c -0.165996,0.089962 -0.3363486,0.1692298 -0.5198341,0.1692485 -0.144067,1.47e-5 -0.3291029,-0.062169 -0.3290945,-0.2108888 8.3e-6,-0.1445518 0.1370146,-0.1875704 0.2404399,-0.2162624 0.3224093,-0.089442 0.6692375,-0.08391 0.6675919,-0.46341742 z"
       sodipodi:nodetypes="ssccsssssccssss" />
    <path
       inkscape:connector-curvature="0"
       id="path830"
       style="font-style:normal;font-weight:normal;font-size:2.69870543px;line-height:1.25;font-family:sans-serif;letter-spacing:0px;word-spacing:0px;fill:#a1a1a1;fill-opacity:1;stroke:none;stroke-width:0.06877396"
       d="M -0.61209388,1.1140558 H -1.7175816 c 0.059721,-0.35875908 0.2069659,-0.54199739 0.5332673,-0.53863991 0.20467481,0.00211 0.37760948,0.077866 0.54266953,0.18133791 V 0.48138931 C -0.81832803,0.4073673 -1.0046751,0.35375058 -1.1816278,0.35512397 c -0.5346601,0.004149 -0.7917,0.30290062 -0.7925124,0.77639353 -8.282e-4,0.4826514 0.2790317,0.8084404 0.72938,0.8005718 0.5159977,-0.00901 0.64378316,-0.381453 0.63266632,-0.8180335 z M -0.85790705,1.3074827 C -0.86611105,1.5785743 -1.0220335,1.7279829 -1.2581929,1.7238874 -1.521904,1.7193142 -1.6933393,1.5435778 -1.7175816,1.3074827 Z"
       sodipodi:nodetypes="ccsccsssccscc" />
    <path
       inkscape:connector-curvature="0"
       id="path832"
       style="font-style:normal;font-weight:normal;font-size:2.69870543px;line-height:1.25;font-family:sans-serif;letter-spacing:0px;word-spacing:0px;fill:#a1a1a1;fill-opacity:1;stroke:none;stroke-width:0.06877396"
       d="M 0.70696926,1.6150849 H 0.69353685 C 0.61445495,1.6337268 0.53087056,1.6421278 0.45846961,1.6406077 0.28910341,1.6370519 0.14205927,1.5510227 0.02325941,1.4552408 V 0.39005027 H -0.22926996 V 1.8904509 H 0.02325941 V 1.6688161 c 0.14746111,0.1192301 0.32097035,0.2192269 0.49968578,0.2216352 0.0621302,8.373e-4 0.13232254,-0.00793 0.18402403,-0.016115 z"
       sodipodi:nodetypes="ccsccccccscc" />
    <path
       inkscape:connector-curvature="0"
       id="path834"
       style="font-style:normal;font-weight:normal;font-size:2.69870543px;line-height:1.25;font-family:sans-serif;letter-spacing:0px;word-spacing:0px;fill:#a1a1a1;fill-opacity:1;stroke:none;stroke-width:0.06877396"
       d="M 2.3387576,1.8904494 1.7316125,0.39004874 H 1.4777399 L 0.87462442,1.8904494 H 1.1486458 L 1.6134073,0.69630786 2.0741391,1.8904494 Z" />
    <path
       inkscape:connector-curvature="0"
       id="path836"
       style="font-style:normal;font-weight:normal;font-size:2.69870543px;line-height:1.25;font-family:sans-serif;letter-spacing:0px;word-spacing:0px;fill:#a1a1a1;fill-opacity:1;stroke:none;stroke-width:0.06877396"
       d="M 3.832692,1.1395775 C 3.822416,0.67329902 3.5832389,0.33439982 3.1409226,0.34840831 2.6444943,0.36413064 2.4387886,0.72333564 2.4478102,1.1395775 2.457963,1.6078011 2.6971782,1.9464067 3.1409226,1.9320898 3.6344228,1.9161674 3.8417988,1.5528012 3.832692,1.1395775 Z m -0.2605888,0 C 3.5667955,1.4536319 3.4602722,1.7250134 3.1409226,1.7144847 2.7838854,1.7027136 2.7035798,1.4136928 2.7083989,1.1395775 2.7138801,0.82780375 2.8249273,0.55525963 3.1409226,0.56601339 3.4902472,0.5779014 3.5766614,0.86986671 3.5721032,1.1395775 Z"
       sodipodi:nodetypes="ssssssssss" />
    <path
       inkscape:connector-curvature="0"
       id="path838"
       style="font-style:normal;font-weight:normal;font-size:2.69870543px;line-height:1.25;font-family:sans-serif;letter-spacing:0px;word-spacing:0px;fill:#a1a1a1;fill-opacity:1;stroke:none;stroke-width:0.06877396"
       d="M 4.4962532,2.1416355 H 4.211486 V 2.4035676 H 4.4962532 Z M 4.4801343,0.39004874 H 4.2276048 V 1.8904494 h 0.2525295 z" />
    <path
       inkscape:connector-curvature="0"
       id="path840"
       style="font-style:normal;font-weight:normal;font-size:2.69870543px;line-height:1.25;font-family:sans-serif;letter-spacing:0px;word-spacing:0px;fill:#a1a1a1;fill-opacity:1;stroke:none;stroke-width:0.06877396"
       d="M 5.918745,1.6150849 H 5.9053128 C 5.8262316,1.6337299 5.7426463,1.6421278 5.6702457,1.6406077 5.5008795,1.6370518 5.3538353,1.5510227 5.2350354,1.4552408 V 0.39005027 H 4.9825058 V 1.8904509 H 5.2350351 V 1.6688161 c 0.1002951,0.080595 0.1885453,0.1373582 0.2646186,0.1705917 0.1398732,0.061106 0.2820684,0.056626 0.4190917,0.034928 z"
       sodipodi:nodetypes="ccsccccccscc" />
  </g>
</svg>
