<?xml version="1.0" encoding="UTF-8" standalone="no"?>
<svg
   xmlns:dc="http://purl.org/dc/elements/1.1/"
   xmlns:cc="http://creativecommons.org/ns#"
   xmlns:rdf="http://www.w3.org/1999/02/22-rdf-syntax-ns#"
   xmlns:svg="http://www.w3.org/2000/svg"
   xmlns="http://www.w3.org/2000/svg"
   xmlns:sodipodi="http://sodipodi.sourceforge.net/DTD/sodipodi-0.dtd"
   xmlns:inkscape="http://www.inkscape.org/namespaces/inkscape"
   height="580"
   width="580"
   version="1.0"
   id="svg11048"
   sodipodi:docname="ruins.svg"
   inkscape:version="0.92.4 (5da689c313, 2019-01-14)">
  <defs
     id="defs11052" />
  <sodipodi:namedview
     pagecolor="#ffffff"
     bordercolor="#666666"
     borderopacity="1"
     objecttolerance="10"
     gridtolerance="10"
     guidetolerance="10"
     inkscape:pageopacity="0"
     inkscape:pageshadow="2"
     inkscape:window-width="1920"
     inkscape:window-height="1017"
     id="namedview11050"
     showgrid="false"
     inkscape:zoom="0.40689655"
     inkscape:cx="290"
     inkscape:cy="290"
     inkscape:window-x="-8"
     inkscape:window-y="-8"
     inkscape:window-maximized="1"
     inkscape:current-layer="svg11048" />
  <metadata
     id="metadata12">
    <rdf:RDF>
      <cc:Work
         rdf:about="">
        <dc:format>image/svg+xml</dc:format>
        <dc:type
           rdf:resource="http://purl.org/dc/dcmitype/StillImage" />
      </cc:Work>
    </rdf:RDF>
  </metadata>
  <g
     id="g3400"
     transform="matrix(88.19205,0,0,-88.19205,155.86555,287.34101)">
    <path
       d="M 0,0 H 3.1 Z"
       style="fill:#ffffff;fill-opacity:1;fill-rule:nonzero;stroke:none"
       id="path3402"
       inkscape:connector-curvature="0" />
  </g>
  <g
     id="g3404"
     transform="matrix(88.19205,0,0,-88.19205,155.88341,287.33241)">
    <path
       d="M 0,0 H 3.1"
       style="fill:none;stroke:#231f20;stroke-width:0.50999999;stroke-linecap:butt;stroke-linejoin:miter;stroke-miterlimit:4.13399982;stroke-dasharray:none;stroke-opacity:1"
       id="path3406"
       inkscape:connector-curvature="0" />
  </g>
  <g
     id="g3408"
     transform="matrix(88.19205,0,0,-88.19205,288.18009,425.44977)">
    <path
       d="M 0,0 V 3.167 Z"
       style="fill:#ffffff;fill-opacity:1;fill-rule:nonzero;stroke:none"
       id="path3410"
       inkscape:connector-curvature="0" />
  </g>
  <g
     id="g3412"
     transform="matrix(88.19205,0,0,-88.19205,288.17149,425.47622)">
    <path
       d="M 0,0 V 3.167"
       style="fill:none;stroke:#231f20;stroke-width:0.50999999;stroke-linecap:butt;stroke-linejoin:miter;stroke-miterlimit:4.13399982;stroke-dasharray:none;stroke-opacity:1"
       id="path3414"
       inkscape:connector-curvature="0" />
  </g>
  <g
     id="g3424"
     transform="matrix(88.19205,0,0,-88.19205,425.01888,276.65214)">
    <path
       d="M 0,0 C 0,0.352 0.285,0.638 0.638,0.638 0.99,0.638 1.275,0.352 1.275,0 1.275,-0.353 0.99,-0.639 0.638,-0.639 0.285,-0.639 0,-0.353 0,0 Z"
       style="fill:none;stroke:#231f20;stroke-width:0.30000001;stroke-linecap:butt;stroke-linejoin:miter;stroke-miterlimit:4.13399982;stroke-dasharray:none;stroke-opacity:1"
       id="path3426"
       inkscape:connector-curvature="0" />
  </g>
  <g
     id="g3428"
     transform="matrix(88.19205,0,0,-88.19205,47.451503,284.91617)">
    <path
       d="M 0,0 C 0,0.352 0.285,0.638 0.638,0.638 0.99,0.638 1.275,0.352 1.275,0 1.275,-0.353 0.99,-0.639 0.638,-0.639 0.285,-0.639 0,-0.353 0,0 Z"
       style="fill:none;stroke:#231f20;stroke-width:0.30000001;stroke-linecap:butt;stroke-linejoin:miter;stroke-miterlimit:4.13399982;stroke-dasharray:none;stroke-opacity:1"
       id="path3430"
       inkscape:connector-curvature="0" />
  </g>
  <g
     id="g3432"
     transform="matrix(88.19205,0,0,-88.19205,231.15533,478.7883)">
    <path
       d="M 0,0 C 0,0.353 0.285,0.638 0.638,0.638 0.99,0.638 1.275,0.353 1.275,0 1.275,-0.353 0.99,-0.638 0.638,-0.638 0.285,-0.638 0,-0.353 0,0 Z"
       style="fill:none;stroke:#231f20;stroke-width:0.30000001;stroke-linecap:butt;stroke-linejoin:miter;stroke-miterlimit:4.13399982;stroke-dasharray:none;stroke-opacity:1"
       id="path3434"
       inkscape:connector-curvature="0" />
  </g>
  <g
     id="g3436"
     transform="matrix(88.19205,0,0,-88.19205,231.15533,101.21168)">
    <path
       d="M 0,0 C 0,0.353 0.285,0.638 0.638,0.638 0.99,0.638 1.275,0.353 1.275,0 1.275,-0.353 0.99,-0.638 0.638,-0.638 0.285,-0.638 0,-0.353 0,0 Z"
       style="fill:none;stroke:#231f20;stroke-width:0.30000001;stroke-linecap:butt;stroke-linejoin:miter;stroke-miterlimit:4.13399982;stroke-dasharray:none;stroke-opacity:1"
       id="path3438"
       inkscape:connector-curvature="0" />
  </g>
</svg>
