<?xml version="1.0" encoding="UTF-8" standalone="no"?>
<svg
   xmlns:dc="http://purl.org/dc/elements/1.1/"
   xmlns:cc="http://creativecommons.org/ns#"
   xmlns:rdf="http://www.w3.org/1999/02/22-rdf-syntax-ns#"
   xmlns:svg="http://www.w3.org/2000/svg"
   xmlns="http://www.w3.org/2000/svg"
   xmlns:sodipodi="http://sodipodi.sourceforge.net/DTD/sodipodi-0.dtd"
   xmlns:inkscape="http://www.inkscape.org/namespaces/inkscape"
   height="580"
   width="580"
   version="1.0"
   id="svg2831"
   sodipodi:docname="archaeological_site-50k.svg"
   inkscape:version="0.92.4 (5da689c313, 2019-01-14)">
  <defs
     id="defs2835" />
  <sodipodi:namedview
     pagecolor="#ffffff"
     bordercolor="#666666"
     borderopacity="1"
     objecttolerance="10"
     gridtolerance="10"
     guidetolerance="10"
     inkscape:pageopacity="0"
     inkscape:pageshadow="2"
     inkscape:window-width="1920"
     inkscape:window-height="1017"
     id="namedview2833"
     showgrid="false"
     inkscape:zoom="1.1607907"
     inkscape:cx="305.81364"
     inkscape:cy="246.84412"
     inkscape:window-x="-8"
     inkscape:window-y="-8"
     inkscape:window-maximized="1"
     inkscape:current-layer="svg2831" />
  <metadata
     id="metadata2975">
    <rdf:RDF>
      <cc:Work
         rdf:about="">
        <dc:format>image/svg+xml</dc:format>
        <dc:type
           rdf:resource="http://purl.org/dc/dcmitype/StillImage" />
        <dc:title></dc:title>
      </cc:Work>
    </rdf:RDF>
  </metadata>
  <g
     id="g1051"
     transform="matrix(94.247395,0,0,-94.247395,274.33116,305.71598)">
    <path
       d="m 0,0 -0.17,-1.496 v -1.002 c 0.009,-0.068 0.084,-0.104 0.144,-0.104 h 0.374 c 0.059,0 0.144,0.036 0.152,0.104 v 1.002 L 0.322,0 1.818,-0.17 h 1.004 c 0.067,0.008 0.101,0.086 0.101,0.145 V 0.35 c 0,0.058 -0.034,0.144 -0.101,0.152 H 1.818 L 0.322,0.322 0.492,1.818 V 2.822 C 0.484,2.891 0.407,2.924 0.348,2.924 h -0.374 c -0.06,0 -0.144,-0.033 -0.154,-0.102 V 1.818 L 0,0.322 -1.496,0.494 H -2.5 C -2.568,0.484 -2.602,0.408 -2.602,0.35 v -0.375 c 0,-0.059 0.034,-0.145 0.102,-0.153 h 1.004 z"
       style="fill:#231f20;fill-opacity:1;fill-rule:evenodd;stroke:none"
       id="path1053"
       inkscape:connector-curvature="0" />
  </g>
</svg>
