<?xml version="1.0" encoding="UTF-8" standalone="no"?>
<svg
   xmlns:dc="http://purl.org/dc/elements/1.1/"
   xmlns:cc="http://creativecommons.org/ns#"
   xmlns:rdf="http://www.w3.org/1999/02/22-rdf-syntax-ns#"
   xmlns:svg="http://www.w3.org/2000/svg"
   xmlns="http://www.w3.org/2000/svg"
   xmlns:sodipodi="http://sodipodi.sourceforge.net/DTD/sodipodi-0.dtd"
   xmlns:inkscape="http://www.inkscape.org/namespaces/inkscape"
   version="1.0"
   width="580"
   height="580"
   id="svg5150"
   sodipodi:docname="saddle_90.svg"
   inkscape:version="0.92.4 (5da689c313, 2019-01-14)">
  <defs
     id="defs5154" />
  <sodipodi:namedview
     pagecolor="#ffffff"
     bordercolor="#666666"
     borderopacity="1"
     objecttolerance="10"
     gridtolerance="10"
     guidetolerance="10"
     inkscape:pageopacity="0"
     inkscape:pageshadow="2"
     inkscape:window-width="1920"
     inkscape:window-height="1017"
     id="namedview5152"
     showgrid="false"
     inkscape:zoom="0.40689655"
     inkscape:cx="-119.19492"
     inkscape:cy="290"
     inkscape:window-x="-8"
     inkscape:window-y="-8"
     inkscape:window-maximized="1"
     inkscape:current-layer="svg5150" />
  <metadata
     id="metadata2975">
    <rdf:RDF>
      <cc:Work
         rdf:about="">
        <dc:format>image/svg+xml</dc:format>
        <dc:type
           rdf:resource="http://purl.org/dc/dcmitype/StillImage" />
      </cc:Work>
    </rdf:RDF>
  </metadata>
  <path
     id="path1171"
     d="m 87.8538,189.47845 48.5355,-46.95155 35.4116,36.54301 236.39821,-0.0566 36.2036,-36.2036 47.74349,47.7435 -56.00244,56.00245 -292.96636,0.0566 z"
     fill="none"
     stroke="#ffffff"
     stroke-linejoin="round"
     stroke-width="64"
     style="stroke:#f8f8f8;stroke-opacity:1" />
  <path
     id="path1173"
     d="m 143.1774,333.38776 292.96636,0.0566 56.00244,56.00244 -47.74349,47.7435 -36.2036,-36.2036 -236.39821,-0.0566 -35.4116,36.543 -48.5355,-46.95154 z"
     fill="none"
     stroke="#ffffff"
     stroke-linejoin="round"
     stroke-width="64"
     style="stroke:#f8f8f8;stroke-opacity:1" />
  <path
     id="path1175"
     d="m 112.1215,166.00268 45.3677,46.8384 264.68223,-0.0566 46.10303,-46.10302"
     fill="none"
     stroke="#666666"
     stroke-width="67.5" />
  <path
     id="path1177"
     d="m 112.1215,413.99733 45.3677,-46.83841 264.68223,0.0566 46.10303,46.10302"
     fill="none"
     stroke="#666666"
     stroke-width="67.5" />
  <path
     id="path1179"
     d="m 87.8538,189.47845 48.5355,-46.95155 35.4116,36.54301 236.39821,-0.0566 36.2036,-36.2036 47.74349,47.7435 -56.00244,56.00245 -292.96636,0.0566 z"
     fill="#666666"
     style="fill:#000000;fill-opacity:1" />
  <path
     id="path1181"
     d="m 143.1774,333.38776 292.96636,0.0566 56.00244,56.00244 -47.74349,47.7435 -36.2036,-36.2036 -236.39821,-0.0566 -35.4116,36.543 -48.5355,-46.95154 z"
     fill="#666666"
     style="fill:#000000;fill-opacity:1" />
</svg>
