<?xml version="1.0" encoding="UTF-8" standalone="no"?>
<svg
   xmlns:dc="http://purl.org/dc/elements/1.1/"
   xmlns:cc="http://creativecommons.org/ns#"
   xmlns:rdf="http://www.w3.org/1999/02/22-rdf-syntax-ns#"
   xmlns:svg="http://www.w3.org/2000/svg"
   xmlns="http://www.w3.org/2000/svg"
   xmlns:sodipodi="http://sodipodi.sourceforge.net/DTD/sodipodi-0.dtd"
   xmlns:inkscape="http://www.inkscape.org/namespaces/inkscape"
   version="1.0"
   width="580"
   height="580"
   id="svg9"
   sodipodi:docname="saddle_0-night.svg"
   inkscape:version="0.92.4 (5da689c313, 2019-01-14)">
  <defs
     id="defs13" />
  <sodipodi:namedview
     pagecolor="#ffffff"
     bordercolor="#666666"
     borderopacity="1"
     objecttolerance="10"
     gridtolerance="10"
     guidetolerance="10"
     inkscape:pageopacity="0"
     inkscape:pageshadow="2"
     inkscape:window-width="1920"
     inkscape:window-height="1017"
     id="namedview11"
     showgrid="false"
     inkscape:zoom="0.40689655"
     inkscape:cx="290"
     inkscape:cy="290"
     inkscape:window-x="-8"
     inkscape:window-y="-8"
     inkscape:window-maximized="1"
     inkscape:current-layer="svg9" />
  <metadata
     id="metadata2975">
    <rdf:RDF>
      <cc:Work
         rdf:about="">
        <dc:format>image/svg+xml</dc:format>
        <dc:type
           rdf:resource="http://purl.org/dc/dcmitype/StillImage" />
        <dc:title></dc:title>
      </cc:Work>
    </rdf:RDF>
  </metadata>
  <path
     id="path1171"
     d="m 189.47846,492.1462 -46.95155,-48.53545 36.54301,-35.41165 -0.0566,-236.39819 -36.2036,-36.2036 47.7435,-47.743495 56.00245,56.002445 0.0566,292.96632 z"
     fill="none"
     stroke="#ffffff"
     stroke-linejoin="round"
     stroke-width="64"
     style="stroke:#373737;stroke-opacity:1" />
  <path
     id="path1173"
     d="m 333.38777,436.82258 0.0566,-292.96632 56.00244,-56.002445 47.7435,47.743495 -36.2036,36.2036 -0.0566,236.39819 36.543,35.41165 -46.95154,48.53545 z"
     fill="none"
     stroke="#ffffff"
     stroke-linejoin="round"
     stroke-width="64"
     style="stroke:#373737;stroke-opacity:1" />
  <path
     id="path1175"
     d="m 166.00269,467.87847 46.8384,-45.36764 -0.0566,-264.68224 -46.10302,-46.10303"
     fill="none"
     stroke="#666666"
     stroke-width="67.5" />
  <path
     id="path1177"
     d="m 413.99734,467.87847 -46.83841,-45.36763 0.0566,-264.68225 46.10302,-46.10303"
     fill="none"
     stroke="#666666"
     stroke-width="67.5" />
  <path
     id="path1179"
     d="m 189.47846,492.1462 -46.95155,-48.53545 36.54301,-35.41165 -0.0566,-236.39819 -36.2036,-36.2036 47.7435,-47.743495 56.00245,56.002445 0.0566,292.96632 z"
     fill="#666666"
     style="fill:#a1a1a1;fill-opacity:1" />
  <path
     id="path1181"
     d="m 333.38777,436.82258 0.0566,-292.96632 56.00244,-56.002445 47.7435,47.743495 -36.2036,36.2036 -0.0566,236.39819 36.543,35.41165 -46.95154,48.53545 z"
     fill="#666666"
     style="fill:#a1a1a1;fill-opacity:1" />
</svg>
