<?xml version="1.0" encoding="UTF-8" standalone="no"?>
<svg
   xmlns:dc="http://purl.org/dc/elements/1.1/"
   xmlns:cc="http://creativecommons.org/ns#"
   xmlns:rdf="http://www.w3.org/1999/02/22-rdf-syntax-ns#"
   xmlns:svg="http://www.w3.org/2000/svg"
   xmlns="http://www.w3.org/2000/svg"
   xmlns:sodipodi="http://sodipodi.sourceforge.net/DTD/sodipodi-0.dtd"
   xmlns:inkscape="http://www.inkscape.org/namespaces/inkscape"
   height="580"
   width="580"
   version="1.0"
   id="svg22813"
   sodipodi:docname="school.svg"
   inkscape:version="0.92.4 (5da689c313, 2019-01-14)">
  <defs
     id="defs22817" />
  <sodipodi:namedview
     pagecolor="#ffffff"
     bordercolor="#666666"
     borderopacity="1"
     objecttolerance="10"
     gridtolerance="10"
     guidetolerance="10"
     inkscape:pageopacity="0"
     inkscape:pageshadow="2"
     inkscape:window-width="958"
     inkscape:window-height="1008"
     id="namedview22815"
     showgrid="false"
     inkscape:zoom="0.5754386"
     inkscape:cx="330.99475"
     inkscape:cy="427.21452"
     inkscape:window-x="2873"
     inkscape:window-y="0"
     inkscape:window-maximized="0"
     inkscape:current-layer="svg22813" />
  <metadata
     id="metadata2975">
    <rdf:RDF>
      <cc:Work
         rdf:about="">
        <dc:format>image/svg+xml</dc:format>
        <dc:type
           rdf:resource="http://purl.org/dc/dcmitype/StillImage" />
      </cc:Work>
    </rdf:RDF>
  </metadata>
  <path
     style="color:#000000;font-style:normal;font-variant:normal;font-weight:normal;font-stretch:normal;font-size:197.93014526px;line-height:1.25;font-family:'Gill Sans MT';-inkscape-font-specification:'Gill Sans MT, Normal';font-variant-ligatures:normal;font-variant-position:normal;font-variant-caps:normal;font-variant-numeric:normal;font-variant-alternates:normal;font-feature-settings:normal;text-indent:0;text-align:start;text-decoration:none;text-decoration-line:none;text-decoration-style:solid;text-decoration-color:#000000;letter-spacing:0px;word-spacing:0px;text-transform:none;writing-mode:lr-tb;direction:ltr;text-orientation:mixed;dominant-baseline:auto;baseline-shift:baseline;text-anchor:start;white-space:normal;shape-padding:0;clip-rule:nonzero;display:inline;overflow:visible;visibility:visible;opacity:1;isolation:auto;mix-blend-mode:normal;color-interpolation:sRGB;color-interpolation-filters:linearRGB;solid-color:#000000;solid-opacity:1;vector-effect:none;fill:#ffffff;fill-opacity:0.87843137;fill-rule:nonzero;stroke:none;stroke-width:40.13336182;stroke-linecap:butt;stroke-linejoin:miter;stroke-miterlimit:4;stroke-dasharray:none;stroke-dashoffset:0;stroke-opacity:1;color-rendering:auto;image-rendering:auto;shape-rendering:auto;text-rendering:auto;enable-background:accumulate"
     d="m 108.98793,120.07741 c -27.424936,0 -52.373015,8.24501 -71.181852,25.09119 l -0.03136,0.0314 -0.03528,0.0274 c -18.694065,16.89026 -28.7204376,40.9124 -28.7204376,66.86673 0,17.87044 5.1994206,35.06531 15.3086816,49.38677 l 0.145022,0.20772 0.152848,0.2038 c 20.496942,27.53808 52.103535,41.79765 74.368213,55.95546 l 0.1019,0.0626 c 9.304555,7.27425 25.753215,17.48963 26.251305,29.77462 -1.76391,10.79174 -13.35889,15.37629 -22.62205,15.75156 -20.98568,-0.0736 -38.514259,-5.127 -56.73149,-28.17966 l -36.6821906,-38.34397 0.8717986,106.17904 8.054107,6.02 c 25.107887,18.75707 54.259697,28.61854 85.126625,28.61854 27.1639,0 51.93593,-8.54214 70.32745,-25.77314 18.49148,-17.20571 28.28147,-41.40005 28.28147,-67.59963 0,-37.76828 -22.45258,-70.52297 -59.47105,-92.50269 l -0.0314,-0.0197 -0.0392,-0.0235 C 128.23686,240.46067 85.087155,224.7453 85.229289,207.04217 c 2.059592,-10.0236 15.556451,-11.86621 22.982621,-11.92635 16.92245,0 32.38273,3.83259 49.1281,19.91259 l 34.40425,26.9495 -0.43591,-93.52888 -8.885,-5.96121 c -21.95682,-14.73815 -47.06382,-22.41041 -73.43542,-22.41041 z"
     id="path831-9"
     inkscape:connector-curvature="0"
     sodipodi:nodetypes="scccscccccccccccscscccccccccs" />
  <path
     style="color:#000000;font-style:normal;font-variant:normal;font-weight:normal;font-stretch:normal;font-size:197.93014526px;line-height:1.25;font-family:'Gill Sans MT';-inkscape-font-specification:'Gill Sans MT, Normal';font-variant-ligatures:normal;font-variant-position:normal;font-variant-caps:normal;font-variant-numeric:normal;font-variant-alternates:normal;font-feature-settings:normal;text-indent:0;text-align:start;text-decoration:none;text-decoration-line:none;text-decoration-style:solid;text-decoration-color:#000000;letter-spacing:0px;word-spacing:0px;text-transform:none;writing-mode:lr-tb;direction:ltr;text-orientation:mixed;dominant-baseline:auto;baseline-shift:baseline;text-anchor:start;white-space:normal;shape-padding:0;clip-rule:nonzero;display:inline;overflow:visible;visibility:visible;opacity:1;isolation:auto;mix-blend-mode:normal;color-interpolation:sRGB;color-interpolation-filters:linearRGB;solid-color:#000000;solid-opacity:1;vector-effect:none;fill:#ffffff;fill-opacity:0.87843137;fill-rule:nonzero;stroke:none;stroke-width:40.13336182;stroke-linecap:butt;stroke-linejoin:miter;stroke-miterlimit:4;stroke-dasharray:none;stroke-dashoffset:0;stroke-opacity:1;color-rendering:auto;image-rendering:auto;shape-rendering:auto;text-rendering:auto;enable-background:accumulate"
     d="m 298.26924,212.58403 c -66.93235,2.54354 -107.42832,55.5815 -108.11316,113.73731 0,31.77967 10.17823,60.18817 30.69968,80.7096 l 0.0275,0.0275 c 26.08235,20.00869 54.4641,30.34744 81.07023,30.67228 28.10503,-1.12959 47.82614,-7.00108 72.04017,-16.01415 v -79.84354 c -21.25148,8.79778 -44.23616,22.49088 -66.80401,22.7553 -40.2548,-0.10274 -53.55915,-43.58411 -31.14654,-68.60296 l 0.0391,-0.0431 c 6.72964,-7.41113 13.14755,-10.29593 24.31909,-10.29593 28.63799,3.66817 44.90512,17.77335 69.71213,33.59602 V 232.03539 C 346.7977,220.59897 322.04559,212.67345 298.26922,212.58404 Z m -51.82064,56.33172 c -0.014,0.0152 -0.0213,0.0356 -0.0353,0.0509 -0.012,0.0138 -0.0305,0.0214 -0.0431,0.0353 z"
     id="path833-1"
     inkscape:connector-curvature="0"
     sodipodi:nodetypes="ccsccccccccccccccc" />
  <path
     style="color:#000000;font-style:normal;font-variant:normal;font-weight:normal;font-stretch:normal;font-size:197.93014526px;line-height:1.25;font-family:'Gill Sans MT';-inkscape-font-specification:'Gill Sans MT, Normal';font-variant-ligatures:normal;font-variant-position:normal;font-variant-caps:normal;font-variant-numeric:normal;font-variant-alternates:normal;font-feature-settings:normal;text-indent:0;text-align:start;text-decoration:none;text-decoration-line:none;text-decoration-style:solid;text-decoration-color:#000000;letter-spacing:0px;word-spacing:0px;text-transform:none;writing-mode:lr-tb;direction:ltr;text-orientation:mixed;dominant-baseline:auto;baseline-shift:baseline;text-anchor:start;white-space:normal;shape-padding:0;clip-rule:nonzero;display:inline;overflow:visible;visibility:visible;opacity:1;isolation:auto;mix-blend-mode:normal;color-interpolation:sRGB;color-interpolation-filters:linearRGB;solid-color:#000000;solid-opacity:1;vector-effect:none;fill:#ffffff;fill-opacity:0.87843137;fill-rule:nonzero;stroke:none;stroke-width:40.13336182;stroke-linecap:butt;stroke-linejoin:miter;stroke-miterlimit:4;stroke-dasharray:none;stroke-dashoffset:0;stroke-opacity:1;color-rendering:auto;image-rendering:auto;shape-rendering:auto;text-rendering:auto;enable-background:accumulate"
     d="m 373.03723,123.56556 v 20.06668 290.99432 h 75.42642 V 294.99459 c 8.45244,-9.34034 25.38581,-20.55793 34.00754,-9.75899 l 0.10977,0.14109 c 4.10403,6.88135 5.21545,13.05381 5.26351,18.83603 V 434.62656 H 563.2748 V 312.94094 c -0.45746,-54.49363 -22.18135,-99.77251 -79.99237,-100.35692 -12.20285,0 -23.93096,2.62823 -34.81882,7.32905 v -96.34751 z m 140.69799,136.5083 0.2234,0.27827 c -0.0333,-0.0421 -0.0803,-0.0717 -0.11357,-0.11366 -0.0419,-0.0516 -0.0676,-0.11315 -0.10977,-0.1646 z"
     id="path835-6"
     inkscape:connector-curvature="0"
     sodipodi:nodetypes="cccccccccccccccccccc" />
  <path
     inkscape:connector-curvature="0"
     id="path831"
     style="font-style:normal;font-variant:normal;font-weight:normal;font-stretch:normal;font-size:197.93014526px;line-height:1.25;font-family:'Gill Sans MT';-inkscape-font-specification:'Gill Sans MT, Normal';font-variant-ligatures:normal;font-variant-caps:normal;font-variant-numeric:normal;font-feature-settings:normal;text-align:start;letter-spacing:0px;word-spacing:0px;writing-mode:lr-tb;text-anchor:start;fill:#000000;fill-opacity:1;stroke:none;stroke-width:9.92950344"
     d="M 109.76224,300.91526 C 86.049839,285.83688 56.79354,271.50379 40.721161,249.9102 32.963737,238.92052 29.085024,226.31471 29.085024,212.09276 c 0,-21.33292 7.369553,-38.65783 22.108658,-51.97474 14.868395,-13.31691 34.132663,-19.97537 57.792808,-19.97537 22.62582,0 43.37693,6.33523 62.25333,19.00569 v 44.02338 c -19.52285,-18.74711 -40.53254,-28.12066 -63.02907,-28.12066 -12.670465,0 -23.078339,2.97368 -31.223633,8.92104 -15.962826,13.14966 -14.44834,31.75056 -3.296906,45.38093 18.026991,18.00779 35.854849,26.39579 58.568559,39.7568 33.09833,19.65214 49.6475,44.73447 49.6475,75.24701 0,21.72079 -7.30491,39.36892 -21.91472,52.94441 -14.48052,13.57549 -33.35692,20.36324 -56.62919,20.36324 -26.763114,0 -51.134355,-8.20994 -73.113723,-24.62982 v -49.25965 c 20.945045,26.50454 45.186994,39.75681 72.725853,39.75681 21.99075,-0.4693 42.15374,-14.91036 42.4719,-35.68415 0,-16.54918 -11.89472,-32.1933 -35.68415,-46.93242 z"
     sodipodi:nodetypes="ccscsccscccscsccccc" />
  <path
     inkscape:connector-curvature="0"
     id="path833"
     style="font-style:normal;font-variant:normal;font-weight:normal;font-stretch:normal;font-size:197.93014526px;line-height:1.25;font-family:'Gill Sans MT';-inkscape-font-specification:'Gill Sans MT, Normal';font-variant-ligatures:normal;font-variant-caps:normal;font-variant-numeric:normal;font-feature-settings:normal;text-align:start;letter-spacing:0px;word-spacing:0px;writing-mode:lr-tb;text-anchor:start;fill:#000000;fill-opacity:1;stroke:none;stroke-width:9.92950344"
     d="m 353.92717,372.86537 v 34.9084 c -17.7128,6.59381 -35.03771,9.89072 -51.97475,9.89072 -59.31751,-3.62418 -91.12322,-38.215 -91.73154,-91.34367 3.32463,-57.07883 35.46258,-93.01176 88.04675,-93.67089 18.63465,-0.36569 37.063,5.89318 51.78081,12.41188 v 37.62351 c -17.84207,-11.37756 -34.39124,-17.06633 -49.6475,-17.06633 -35.85731,2.7545 -54.14337,28.41991 -54.4959,59.53823 2.46117,39.62162 26.35878,59.15372 61.28364,59.53822 13.57549,0 29.155,-3.94336 46.73849,-11.83007 z"
     sodipodi:nodetypes="ccccccccccc" />
  <path
     inkscape:connector-curvature="0"
     id="path835"
     style="font-style:normal;font-variant:normal;font-weight:normal;font-stretch:normal;font-size:197.93014526px;line-height:1.25;font-family:'Gill Sans MT';-inkscape-font-specification:'Gill Sans MT, Normal';font-variant-ligatures:normal;font-variant-caps:normal;font-variant-numeric:normal;font-feature-settings:normal;text-align:start;letter-spacing:0px;word-spacing:0px;writing-mode:lr-tb;text-anchor:start;fill:#000000;fill-opacity:1;stroke:none;stroke-width:9.92950344"
     d="m 393.10214,143.63349 h 35.29629 v 115.97349 c 14.7391,-17.97136 33.03369,-26.95705 54.88376,-26.95705 49.11555,1.89727 59.88076,43.15424 59.92611,80.28935 V 414.56152 H 507.91201 V 304.21218 c -1.26839,-34.64932 -27.09742,-54.44164 -56.82312,-37.42958 -6.85239,4.008 -14.41588,10.66646 -22.69046,19.97537 v 127.80355 h -35.29629 z"
     sodipodi:nodetypes="ccccccccccccc" />
</svg>
