<?xml version="1.0" encoding="UTF-8" standalone="no"?>
<svg
   xmlns:dc="http://purl.org/dc/elements/1.1/"
   xmlns:cc="http://creativecommons.org/ns#"
   xmlns:rdf="http://www.w3.org/1999/02/22-rdf-syntax-ns#"
   xmlns:svg="http://www.w3.org/2000/svg"
   xmlns="http://www.w3.org/2000/svg"
   xmlns:sodipodi="http://sodipodi.sourceforge.net/DTD/sodipodi-0.dtd"
   xmlns:inkscape="http://www.inkscape.org/namespaces/inkscape"
   height="580"
   width="580"
   version="1.0"
   id="svg22813"
   sodipodi:docname="school-night.svg"
   inkscape:version="0.92.4 (5da689c313, 2019-01-14)">
  <defs
     id="defs22817" />
  <sodipodi:namedview
     pagecolor="#ffffff"
     bordercolor="#666666"
     borderopacity="1"
     objecttolerance="10"
     gridtolerance="10"
     guidetolerance="10"
     inkscape:pageopacity="0"
     inkscape:pageshadow="2"
     inkscape:window-width="958"
     inkscape:window-height="1008"
     id="namedview22815"
     showgrid="false"
     inkscape:zoom="0.57543858"
     inkscape:cx="328.65411"
     inkscape:cy="404.30989"
     inkscape:window-x="1913"
     inkscape:window-y="0"
     inkscape:window-maximized="0"
     inkscape:current-layer="svg22813" />
  <metadata
     id="metadata2975">
    <rdf:RDF>
      <cc:Work
         rdf:about="">
        <dc:format>image/svg+xml</dc:format>
        <dc:type
           rdf:resource="http://purl.org/dc/dcmitype/StillImage" />
        <dc:title />
      </cc:Work>
    </rdf:RDF>
  </metadata>
  <path
     style="color:#000000;font-style:normal;font-variant:normal;font-weight:normal;font-stretch:normal;font-size:197.93014526px;line-height:1.25;font-family:'Gill Sans MT';-inkscape-font-specification:'Gill Sans MT, Normal';font-variant-ligatures:normal;font-variant-position:normal;font-variant-caps:normal;font-variant-numeric:normal;font-variant-alternates:normal;font-feature-settings:normal;text-indent:0;text-align:start;text-decoration:none;text-decoration-line:none;text-decoration-style:solid;text-decoration-color:#000000;letter-spacing:0px;word-spacing:0px;text-transform:none;writing-mode:lr-tb;direction:ltr;text-orientation:mixed;dominant-baseline:auto;baseline-shift:baseline;text-anchor:start;white-space:normal;shape-padding:0;clip-rule:nonzero;display:inline;overflow:visible;visibility:visible;opacity:1;isolation:auto;mix-blend-mode:normal;color-interpolation:sRGB;color-interpolation-filters:linearRGB;solid-color:#000000;solid-opacity:1;vector-effect:none;fill:#373737;fill-opacity:1;fill-rule:nonzero;stroke:none;stroke-width:39.00085831;stroke-linecap:butt;stroke-linejoin:miter;stroke-miterlimit:4;stroke-dasharray:none;stroke-dashoffset:0;stroke-opacity:1;color-rendering:auto;image-rendering:auto;shape-rendering:auto;text-rendering:auto;enable-background:accumulate"
     d="m 120.06939,125.29083 c -26.651035,0 -50.895118,8.01235 -69.173199,24.38315 l -0.03048,0.0305 -0.03428,0.0267 c -18.166546,16.41364 -27.90999,39.75791 -27.90999,64.97985 0,17.36615 5.052702,34.07582 14.876695,47.99314 l 0.140929,0.20186 0.148535,0.19805 c 19.918551,26.761 50.633255,40.61819 72.26965,54.37648 l 0.099,0.0608 c 9.04199,7.06899 25.02649,16.99611 25.51052,28.93443 -1.71413,10.48722 -12.98192,14.9424 -21.98368,15.30708 -20.393491,-0.0716 -37.427441,-4.98232 -55.13061,-27.38448 l -35.647076,-37.26196 0.847198,103.18284 7.826833,5.85013 c 24.39938,18.22777 52.728572,27.81096 82.724475,27.81096 26.39737,0 50.47037,-8.3011 68.34291,-25.04586 17.96968,-16.7202 27.48342,-40.23181 27.48342,-65.69208 0,-36.70252 -21.819,-68.53291 -57.79288,-89.89241 l -0.0305,-0.0191 -0.0381,-0.0229 c -13.79361,-11.0309 -55.72569,-26.3028 -55.587567,-43.50637 2.001473,-9.74075 15.117457,-11.53136 22.334077,-11.58981 16.44493,0 31.46894,3.72444 47.74178,19.35068 l 33.43342,26.18903 -0.42361,-90.88963 -8.63428,-5.793 c -21.33724,-14.32226 -45.73575,-21.77802 -71.36319,-21.77802 z"
     id="path831-9"
     inkscape:connector-curvature="0"
     sodipodi:nodetypes="scccscccccccccccscscccccccccs" />
  <path
     style="color:#000000;font-style:normal;font-variant:normal;font-weight:normal;font-stretch:normal;font-size:197.93014526px;line-height:1.25;font-family:'Gill Sans MT';-inkscape-font-specification:'Gill Sans MT, Normal';font-variant-ligatures:normal;font-variant-position:normal;font-variant-caps:normal;font-variant-numeric:normal;font-variant-alternates:normal;font-feature-settings:normal;text-indent:0;text-align:start;text-decoration:none;text-decoration-line:none;text-decoration-style:solid;text-decoration-color:#000000;letter-spacing:0px;word-spacing:0px;text-transform:none;writing-mode:lr-tb;direction:ltr;text-orientation:mixed;dominant-baseline:auto;baseline-shift:baseline;text-anchor:start;white-space:normal;shape-padding:0;clip-rule:nonzero;display:inline;overflow:visible;visibility:visible;opacity:1;isolation:auto;mix-blend-mode:normal;color-interpolation:sRGB;color-interpolation-filters:linearRGB;solid-color:#000000;solid-opacity:1;vector-effect:none;fill:#373737;fill-opacity:1;fill-rule:nonzero;stroke:none;stroke-width:39.00085831;stroke-linecap:butt;stroke-linejoin:miter;stroke-miterlimit:4;stroke-dasharray:none;stroke-dashoffset:0;stroke-opacity:1;color-rendering:auto;image-rendering:auto;shape-rendering:auto;text-rendering:auto;enable-background:accumulate"
     d="m 304.00948,215.18704 c -65.04363,2.47177 -104.39686,54.01308 -105.06237,110.52783 0,30.88289 9.89101,58.48975 29.83337,78.4321 l 0.0267,0.0267 c 25.34635,19.44408 52.92721,29.49109 78.78256,29.80676 27.31195,-1.09772 46.47656,-6.80352 70.0073,-15.56226 V 340.8277 c -20.65179,8.54951 -42.98788,21.85621 -64.9189,22.11317 -39.11888,-0.0998 -52.0478,-42.35423 -30.26763,-66.66708 l 0.038,-0.0419 c 6.53975,-7.202 12.77655,-10.0054 23.63285,-10.0054 27.82986,3.56466 43.63796,17.27181 67.74496,32.648 v -84.785 c -22.6578,-11.1137 -46.71145,-18.81558 -69.81688,-18.90247 z m -50.35834,54.74213 c -0.0137,0.0148 -0.0207,0.0346 -0.0343,0.0495 -0.0117,0.0135 -0.0296,0.0208 -0.0419,0.0343 z"
     id="path833-1"
     inkscape:connector-curvature="0"
     sodipodi:nodetypes="ccsccccccccccccccc" />
  <path
     style="color:#000000;font-style:normal;font-variant:normal;font-weight:normal;font-stretch:normal;font-size:197.93014526px;line-height:1.25;font-family:'Gill Sans MT';-inkscape-font-specification:'Gill Sans MT, Normal';font-variant-ligatures:normal;font-variant-position:normal;font-variant-caps:normal;font-variant-numeric:normal;font-variant-alternates:normal;font-feature-settings:normal;text-indent:0;text-align:start;text-decoration:none;text-decoration-line:none;text-decoration-style:solid;text-decoration-color:#000000;letter-spacing:0px;word-spacing:0px;text-transform:none;writing-mode:lr-tb;direction:ltr;text-orientation:mixed;dominant-baseline:auto;baseline-shift:baseline;text-anchor:start;white-space:normal;shape-padding:0;clip-rule:nonzero;display:inline;overflow:visible;visibility:visible;opacity:1;isolation:auto;mix-blend-mode:normal;color-interpolation:sRGB;color-interpolation-filters:linearRGB;solid-color:#000000;solid-opacity:1;vector-effect:none;fill:#373737;fill-opacity:1;fill-rule:nonzero;stroke:none;stroke-width:39.00085831;stroke-linecap:butt;stroke-linejoin:miter;stroke-miterlimit:4;stroke-dasharray:none;stroke-dashoffset:0;stroke-opacity:1;color-rendering:auto;image-rendering:auto;shape-rendering:auto;text-rendering:auto;enable-background:accumulate"
     d="m 376.66763,128.68055 v 19.50043 282.7829 h 73.298 V 295.27211 c 8.21393,-9.07677 24.66947,-19.97781 33.04791,-9.48361 l 0.10667,0.13711 c 3.98822,6.68717 5.06827,12.68545 5.11498,18.30451 v 126.73376 h 73.3018 V 312.71204 c -0.44455,-52.9559 -21.55542,-96.95709 -77.73511,-97.525 -11.8585,0 -23.25567,2.55406 -33.83629,7.12223 v -93.62872 z m 136.72771,132.65624 0.2171,0.27042 c -0.0324,-0.0409 -0.078,-0.0697 -0.11037,-0.11045 -0.0408,-0.0501 -0.0657,-0.10997 -0.10667,-0.15996 z"
     id="path835-6"
     inkscape:connector-curvature="0"
     sodipodi:nodetypes="cccccccccccccccccccc" />
  <path
     inkscape:connector-curvature="0"
     id="path831"
     style="font-style:normal;font-variant:normal;font-weight:normal;font-stretch:normal;font-size:197.93014526px;line-height:1.25;font-family:'Gill Sans MT';-inkscape-font-specification:'Gill Sans MT, Normal';font-variant-ligatures:normal;font-variant-caps:normal;font-variant-numeric:normal;font-feature-settings:normal;text-align:start;letter-spacing:0px;word-spacing:0px;writing-mode:lr-tb;text-anchor:start;fill:#a1a1a1;fill-opacity:1;stroke:none;stroke-width:9.6493082"
     d="M 120.82185,301.02571 C 97.778589,286.37281 69.347857,272.44418 53.729015,251.45993 46.190494,240.78036 42.421232,228.53026 42.421232,214.70964 c 0,-20.73093 7.161596,-37.56696 21.484786,-50.50809 14.448832,-12.94113 33.169493,-19.41169 56.161982,-19.41169 21.98735,0 42.1529,6.15646 60.49663,18.46938 v 42.78111 c -18.97194,-18.2181 -39.38877,-27.32714 -61.25048,-27.32714 -12.31292,0 -22.427101,2.88976 -30.342548,8.6693 -15.51238,12.77859 -14.040629,30.8546 -3.203872,44.10034 17.5183,17.49964 34.84307,25.65095 56.91583,38.63492 32.16435,19.09759 48.24653,43.47214 48.24653,73.12366 0,21.10787 -7.09877,38.25799 -21.29632,51.4504 -14.0719,13.19241 -32.41564,19.78863 -55.0312,19.78863 -26.007894,0 -49.691416,-7.97827 -71.05056,-23.93481 v -47.86962 c 20.354008,25.75662 43.911887,38.63494 70.67363,38.63494 21.37021,-0.45606 40.96423,-14.48962 41.27341,-34.67721 0,-16.08218 -11.55907,-31.28485 -34.6772,-45.60805 z"
     sodipodi:nodetypes="ccscsccscccscsccccc" />
  <path
     inkscape:connector-curvature="0"
     id="path833"
     style="font-style:normal;font-variant:normal;font-weight:normal;font-stretch:normal;font-size:197.93014526px;line-height:1.25;font-family:'Gill Sans MT';-inkscape-font-specification:'Gill Sans MT, Normal';font-variant-ligatures:normal;font-variant-caps:normal;font-variant-numeric:normal;font-feature-settings:normal;text-align:start;letter-spacing:0px;word-spacing:0px;writing-mode:lr-tb;text-anchor:start;fill:#a1a1a1;fill-opacity:1;stroke:none;stroke-width:9.6493082"
     d="m 358.09683,370.9455 v 33.92333 c -17.21298,6.40775 -34.049,9.61163 -50.50811,9.61163 -57.64366,-3.52192 -88.55186,-37.13664 -89.14302,-88.7661 3.23082,-55.46815 34.46189,-90.38711 85.56222,-91.02764 18.1088,-0.35537 36.01714,5.72688 50.31963,12.06164 v 36.56183 c -17.33859,-11.0565 -33.42077,-16.58475 -48.24652,-16.58475 -34.84548,2.67678 -52.61554,27.61795 -52.95812,57.85815 2.39173,38.50356 25.61498,57.4845 59.55431,57.85815 13.19241,0 28.33229,-3.83209 45.41961,-11.49624 z"
     sodipodi:nodetypes="ccccccccccc" />
  <path
     inkscape:connector-curvature="0"
     id="path835"
     style="font-style:normal;font-variant:normal;font-weight:normal;font-stretch:normal;font-size:197.93014526px;line-height:1.25;font-family:'Gill Sans MT';-inkscape-font-specification:'Gill Sans MT, Normal';font-variant-ligatures:normal;font-variant-caps:normal;font-variant-numeric:normal;font-feature-settings:normal;text-align:start;letter-spacing:0px;word-spacing:0px;writing-mode:lr-tb;text-anchor:start;fill:#a1a1a1;fill-opacity:1;stroke:none;stroke-width:9.6493082"
     d="m 396.16634,148.1822 h 34.30029 v 112.70089 c 14.32318,-17.46425 32.10153,-26.19637 53.33502,-26.19637 47.72958,1.84373 58.19102,41.93649 58.23509,78.02371 v 98.75462 H 507.73646 V 304.22959 c -1.23261,-33.67157 -26.33278,-52.90537 -55.21966,-36.37337 -6.65903,3.8949 -14.00909,10.36546 -22.05017,19.41169 v 124.19714 h -34.30029 z"
     sodipodi:nodetypes="ccccccccccccc" />
</svg>
