<?xml version="1.0" encoding="UTF-8" standalone="no"?>
<svg
   xmlns:dc="http://purl.org/dc/elements/1.1/"
   xmlns:cc="http://creativecommons.org/ns#"
   xmlns:rdf="http://www.w3.org/1999/02/22-rdf-syntax-ns#"
   xmlns:svg="http://www.w3.org/2000/svg"
   xmlns="http://www.w3.org/2000/svg"
   xmlns:sodipodi="http://sodipodi.sourceforge.net/DTD/sodipodi-0.dtd"
   xmlns:inkscape="http://www.inkscape.org/namespaces/inkscape"
   height="580"
   width="580"
   version="1.0"
   id="svg821"
   sodipodi:docname="scuba.svg"
   inkscape:version="0.92.4 (5da689c313, 2019-01-14)">
  <defs
     id="defs825" />
  <sodipodi:namedview
     pagecolor="#ffffff"
     bordercolor="#666666"
     borderopacity="1"
     objecttolerance="10"
     gridtolerance="10"
     guidetolerance="10"
     inkscape:pageopacity="0"
     inkscape:pageshadow="2"
     inkscape:window-width="1920"
     inkscape:window-height="1017"
     id="namedview823"
     showgrid="false"
     inkscape:zoom="0.20344828"
     inkscape:cx="-1799.1864"
     inkscape:cy="1560.5724"
     inkscape:window-x="-8"
     inkscape:window-y="-8"
     inkscape:window-maximized="1"
     inkscape:current-layer="svg821" />
  <metadata
     id="metadata2975">
    <rdf:RDF>
      <cc:Work
         rdf:about="">
        <dc:format>image/svg+xml</dc:format>
        <dc:type
           rdf:resource="http://purl.org/dc/dcmitype/StillImage" />
        <dc:title />
      </cc:Work>
    </rdf:RDF>
  </metadata>
  <rect
     style="opacity:1;fill:#0098e3;fill-opacity:0.78431373;stroke:none;stroke-width:33.52325821;stroke-linecap:butt;stroke-linejoin:round;stroke-miterlimit:4;stroke-dasharray:none;stroke-opacity:1"
     id="rect1370"
     width="126.15009"
     height="44.174805"
     x="300.39902"
     y="8.7512989"
     ry="22.087347"
     transform="matrix(0.86342572,0.50447599,-0.46552237,0.88503611,0,0)" />
  <path
     style="fill:#0098e3;fill-opacity:0.78431374;fill-rule:nonzero;stroke:none;stroke-width:48.56467819"
     d="m 29.684524,330.7261 v 53.80859 c 18.26033,0 30.15763,6.89761 46.62109,16.46485 20.00862,11.60696 44.824466,32.63476 84.113286,32.63476 38.41467,0 61.14398,-20.54353 79.4043,-31.81054 14.00217,-8.60009 25.40916,-15.56979 44.10547,-17.00391 -17.14479,-10.60431 -34.40417,-21.1885 -51.70508,-31.86914 -17.02928,11.4167 -38.52013,26.82617 -71.80469,26.82617 -39.28882,0 -64.104666,-20.98119 -84.113286,-32.63672 -16.46346,-9.56724 -28.36076,-16.41406 -46.62109,-16.41406 z m 523.089846,0 c -19.8144,0 -31.7126,6.99242 -48.2246,16.75391 -18.189,10.80402 -40.6157,29.77944 -75.5117,32.0664 9.3114,15.97038 18.6143,32.00035 27.8828,48.08399 19.8964,-7.04516 34.8156,-18.72897 47.6289,-26.33985 16.512,-9.7615 28.4102,-16.75586 48.2246,-16.75586 z M 29.684524,420.81399 v 53.8086 c 18.26033,0 30.15763,6.8976 46.62109,16.46484 20.00862,11.65553 44.824466,32.63476 84.113286,32.63476 38.41467,0 61.14398,-20.54328 79.4043,-31.76171 15.73497,-9.66438 28.16695,-17.33789 51.38086,-17.33789 23.21394,0 35.64614,7.67351 51.42969,17.33789 7.50935,4.61347 15.79313,10.79612 25.58789,16.48632 -3.78138,-3.60168 -6.85348,-7.25362 -8.99024,-10.49023 -7.84967,-11.89013 -11.49044,-20.55036 -11.91406,-21.14648 a 37.50375,37.50375 0 0 1 -1.95703,-3.05664 c -9.33219,-16.26003 -18.68073,-32.52345 -28.02539,-48.78516 -7.38325,-2.59217 -15.65518,-4.1543 -26.13086,-4.1543 -23.21391,0 -35.64589,7.62469 -51.38086,17.28906 -18.26032,11.26701 -40.98963,31.8086 -79.4043,31.8086 -39.28882,0 -64.104666,-21.02781 -84.113286,-32.63477 -16.46346,-9.56724 -28.36076,-16.46289 -46.62109,-16.46289 z m 523.089846,0 c -19.8144,0 -31.7126,7.04098 -48.2246,16.75391 -9.7752,5.80632 -20.7769,13.98372 -34.2774,20.66406 4.6807,27.95174 -11.436,54.89321 -37.1445,64.9043 32.5748,-3.43756 53.9542,-21.38224 71.4219,-31.75781 16.512,-9.71293 28.4102,-16.75586 48.2246,-16.75586 z"
     id="path3268"
     inkscape:connector-curvature="0" />
  <path
     inkscape:connector-curvature="0"
     style="fill:#0098e3;fill-opacity:0.78431373"
     d="M 105.02182,63.219755 C 86.821104,62.659853 68.765954,82.648273 77.773764,101.63186 c 22.980006,40.016 46.761036,79.60508 70.041036,119.45508 12.38,19.16999 21.40914,40.8907 36.86914,57.7207 47.21,30.42 95.48156,59.27031 143.10156,89.07031 16.7,29.07 33.40961,58.12899 50.09961,87.20899 9.16,12.89 13.57992,34.77992 32.91996,34.66992 15.3,0.15 26.9987,-16.99961 20.7187,-31.09961 -22.41,-39.1 -45.30991,-77.94922 -67.91991,-116.94922 -11.69,-18.07 -19.75969,-38.93961 -34.92969,-54.34961 -40.15,-25.18 -81.11984,-49.08172 -121.58984,-73.76172 -17.3,-29.38 -34.60039,-58.76844 -51.90039,-88.14844 -11.98,-18.67499 -21.04969,-39.579117 -35.42969,-56.453115 -4.52813,-3.851969 -9.63622,-5.618618 -14.73243,-5.77539 z"
     id="path3278-3" />
  <path
     inkscape:connector-curvature="0"
     style="fill:#0098e3;fill-opacity:0.78431373"
     d="m 395.66831,263.86233 c -12.38386,0.32921 -24.53453,5.93304 -31.39453,17.29492 -17.89,24.25 2.87,62.63031 33,60.82031 7.84478,0.28864 15.08339,-1.9877 21.17189,-5.95703 l 11.399,11.44316 24.39157,-40.65019 -17.40587,-6.31446 c -0.2104,-4.29198 -1.1578,-8.6056 -2.9863,-12.77148 -5.9456,-15.99187 -22.2537,-24.28852 -38.17576,-23.86523 z"
     id="path3276-7"
     sodipodi:nodetypes="ccccccccc" />
</svg>
