<?xml version="1.0" encoding="UTF-8" standalone="no"?>
<svg
   xmlns:dc="http://purl.org/dc/elements/1.1/"
   xmlns:cc="http://creativecommons.org/ns#"
   xmlns:rdf="http://www.w3.org/1999/02/22-rdf-syntax-ns#"
   xmlns:svg="http://www.w3.org/2000/svg"
   xmlns="http://www.w3.org/2000/svg"
   xmlns:sodipodi="http://sodipodi.sourceforge.net/DTD/sodipodi-0.dtd"
   xmlns:inkscape="http://www.inkscape.org/namespaces/inkscape"
   height="580"
   width="580"
   version="1.0"
   id="svg22813"
   sodipodi:docname="sewage-works.svg"
   inkscape:version="0.92.4 (5da689c313, 2019-01-14)">
  <defs
     id="defs22817" />
  <sodipodi:namedview
     pagecolor="#ffffff"
     bordercolor="#666666"
     borderopacity="1"
     objecttolerance="10"
     gridtolerance="10"
     guidetolerance="10"
     inkscape:pageopacity="0"
     inkscape:pageshadow="2"
     inkscape:window-width="1440"
     inkscape:window-height="848"
     id="namedview22815"
     showgrid="false"
     inkscape:zoom="1.1508772"
     inkscape:cx="384.42681"
     inkscape:cy="254.5168"
     inkscape:window-x="-8"
     inkscape:window-y="-8"
     inkscape:window-maximized="1"
     inkscape:current-layer="svg22813" />
  <metadata
     id="metadata2975">
    <rdf:RDF>
      <cc:Work
         rdf:about="">
        <dc:format>image/svg+xml</dc:format>
        <dc:type
           rdf:resource="http://purl.org/dc/dcmitype/StillImage" />
        <dc:title />
      </cc:Work>
    </rdf:RDF>
  </metadata>
  <path
     inkscape:connector-curvature="0"
     id="path866-7"
     style="font-style:normal;font-variant:normal;font-weight:normal;font-stretch:normal;font-size:187.0696106px;line-height:1.25;font-family:'Gill Sans MT';-inkscape-font-specification:'Gill Sans MT, Normal';font-variant-ligatures:normal;font-variant-caps:normal;font-variant-numeric:normal;font-feature-settings:normal;text-align:start;letter-spacing:0px;word-spacing:0px;writing-mode:lr-tb;text-anchor:start;fill:#000000;fill-opacity:1;stroke:#f8f8f8;stroke-width:24;stroke-opacity:1;stroke-miterlimit:4;stroke-dasharray:none;stroke-linejoin:round"
     d="m 214.13457,310.65064 h 18.17717 l -51.60856,128.15364 h -3.92773 L 135.03189,335.03911 92.922947,438.80428 h -3.92773 L 37.569347,310.65064 h 18.35986 l 35.16689,87.9629 35.349593,-87.9629 h 17.35509 l 35.53226,87.9629 z"
     sodipodi:nodetypes="cccccccccccccc" />
  <path
     inkscape:connector-curvature="0"
     id="path868-7"
     style="font-style:normal;font-variant:normal;font-weight:normal;font-stretch:normal;font-size:187.0696106px;line-height:1.25;font-family:'Gill Sans MT';-inkscape-font-specification:'Gill Sans MT, Normal';font-variant-ligatures:normal;font-variant-caps:normal;font-variant-numeric:normal;font-feature-settings:normal;text-align:start;letter-spacing:0px;word-spacing:0px;writing-mode:lr-tb;text-anchor:start;fill:#000000;fill-opacity:1;stroke:#f8f8f8;stroke-width:24;stroke-opacity:1;stroke-miterlimit:4;stroke-dasharray:none;stroke-linejoin:round"
     d="m 267.844,354.03836 q 19.18195,0 31.87857,12.4226 12.69661,12.33124 12.69661,31.05647 0,18.17718 -12.8793,30.2344 -12.8793,11.96588 -32.42662,11.96588 -18.90791,0 -31.60453,-12.14857 -12.69662,-12.2399 -12.69662,-30.50842 0,-18.4512 12.78796,-30.69111 12.87931,-12.33125 32.24393,-12.33125 z m -0.91342,14.98019 q -11.96588,0 -19.63866,7.85546 -7.67277,7.85546 -7.67277,20.00403 0,12.05722 7.85546,19.72999 7.85546,7.58144 20.18671,7.58144 12.2399,0 20.00402,-7.67278 7.85547,-7.76412 7.85547,-19.82134 0,-11.96588 -8.12949,-19.82134 -8.12949,-7.85546 -20.46074,-7.85546 z" />
  <path
     inkscape:connector-curvature="0"
     id="path870-2"
     style="font-style:normal;font-variant:normal;font-weight:normal;font-stretch:normal;font-size:187.0696106px;line-height:1.25;font-family:'Gill Sans MT';-inkscape-font-specification:'Gill Sans MT, Normal';font-variant-ligatures:normal;font-variant-caps:normal;font-variant-numeric:normal;font-feature-settings:normal;text-align:start;letter-spacing:0px;word-spacing:0px;writing-mode:lr-tb;text-anchor:start;fill:#000000;fill-opacity:1;stroke:#f8f8f8;stroke-width:24;stroke-opacity:1;stroke-miterlimit:4;stroke-dasharray:none;stroke-linejoin:round"
     d="m 348.86488,354.22105 v 19.27328 l 0.91343,-1.46148 c 8.03815,-12.97065 16.07629,-19.45597 24.11444,-19.45597 6.27219,0 12.81841,3.16654 19.63865,9.49963 l -8.76888,14.61481 c -5.78503,-5.48055 -11.1438,-8.22083 -16.0763,-8.22083 -5.35877,0 -10.01724,2.55759 -13.97541,7.67278 -3.89729,5.11519 -5.84593,11.17424 -5.84593,18.17717 v 43.93579 h -16.71569 v -84.03518 z"
     sodipodi:nodetypes="cccsccscscccc" />
  <path
     inkscape:connector-curvature="0"
     id="path872-4"
     style="font-style:normal;font-variant:normal;font-weight:normal;font-stretch:normal;font-size:187.0696106px;line-height:1.25;font-family:'Gill Sans MT';-inkscape-font-specification:'Gill Sans MT, Normal';font-variant-ligatures:normal;font-variant-caps:normal;font-variant-numeric:normal;font-feature-settings:normal;text-align:start;letter-spacing:0px;word-spacing:0px;writing-mode:lr-tb;text-anchor:start;fill:#000000;fill-opacity:1;stroke:#f8f8f8;stroke-width:24;stroke-opacity:1;stroke-miterlimit:4;stroke-dasharray:none;stroke-linejoin:round"
     d="m 453.84611,354.22105 h 19.82134 l -35.89764,41.1955 43.20505,42.83968 h -22.28759 l -42.10894,-42.83968 z m -48.62287,-43.57041 h 16.62435 v 127.60559 h -16.62435 z"
     sodipodi:nodetypes="cccccccccccc" />
  <path
     inkscape:connector-curvature="0"
     id="path874-4"
     style="font-style:normal;font-variant:normal;font-weight:normal;font-stretch:normal;font-size:187.0696106px;line-height:1.25;font-family:'Gill Sans MT';-inkscape-font-specification:'Gill Sans MT, Normal';font-variant-ligatures:normal;font-variant-caps:normal;font-variant-numeric:normal;font-feature-settings:normal;text-align:start;letter-spacing:0px;word-spacing:0px;writing-mode:lr-tb;text-anchor:start;fill:#000000;fill-opacity:1;stroke:#f8f8f8;stroke-width:24;stroke-opacity:1;stroke-miterlimit:4;stroke-dasharray:none;stroke-linejoin:round"
     d="m 488.62857,432.22762 v -17.90315 q 7.03338,4.9325 14.34079,8.03815 7.39875,3.0143 12.42259,3.0143 5.20653,0 8.95157,-2.55759 3.74505,-2.55759 3.74505,-6.11995 0,-3.65371 -2.46625,-6.02861 -2.37491,-2.46625 -10.41305,-7.03338 -16.0763,-8.95158 -21.10014,-15.25421 -4.9325,-6.39399 -4.9325,-13.88408 0,-9.68231 7.49009,-15.80226 7.58144,-6.11996 19.45597,-6.11996 12.33125,0 25.30186,6.94204 v 16.44166 q -14.79746,-8.95157 -24.20575,-8.95157 -4.84115,0 -7.85546,2.10088 -2.92296,2.00954 -2.92296,5.38921 0,2.92297 2.64893,5.5719 2.74028,2.64893 9.49963,6.39398 l 5.93727,3.37968 q 21.00874,11.87453 21.00874,26.30666 0,10.32171 -8.1294,16.98972 -8.03818,6.57667 -20.7348,6.57667 -7.49009,0 -13.33602,-1.55283 -5.84592,-1.64416 -14.70616,-5.93726 z" />
  <path
     inkscape:connector-curvature="0"
     id="path847-5"
     style="font-style:normal;font-variant:normal;font-weight:normal;font-stretch:normal;font-size:187.0696106px;line-height:1.25;font-family:'Gill Sans MT';-inkscape-font-specification:'Gill Sans MT, Normal';font-variant-ligatures:normal;font-variant-caps:normal;font-variant-numeric:normal;font-feature-settings:normal;text-align:start;letter-spacing:0px;word-spacing:0px;writing-mode:lr-tb;text-anchor:start;fill:#000000;fill-opacity:1;stroke:#f8f8f8;stroke-width:24;stroke-opacity:1;stroke-miterlimit:4;stroke-dasharray:none;stroke-linejoin:round"
     d="m 59.217537,170.9683 -13.88407,-8.40352 c -8.72008,-5.27795 -14.95375,-10.47954 -18.63389,-15.61958 -3.68832,-5.15147 -5.48055,-11.11335 -5.48055,-17.8118 0,-10.04769 3.45738,-18.22274 10.41305,-24.47981 6.98933,-6.28734 16.0763,-9.40829 27.22009,-9.40829 10.65664,0 29.32097,8.95157 29.32097,8.95157 v 20.73477 c 0,0 -19.0906,-13.24467 -29.68634,-13.24467 -5.96771,0 -10.85526,1.42055 -14.70615,4.20175 -3.822,2.76033 -5.75459,6.27219 -5.75459,10.59574 0,3.83639 1.40059,7.4292 4.20176,10.77843 2.80117,3.34923 7.35345,6.82405 13.61005,10.5044 l 13.97541,8.22083 c 15.62684,9.19225 23.3837,21.06969 23.3837,35.44092 0,10.23037 -3.45472,18.52734 -10.32171,24.93653 -6.83443,6.37881 -15.71092,9.59097 -26.67203,9.59097 -12.60528,0 -34.43616,-11.60051 -34.43616,-11.60051 v -23.20102 c 0,0 21.28282,18.72523 34.25347,18.72523 5.72414,0 10.47635,-1.58041 14.24944,-4.74981 3.83879,-3.22458 5.75459,-7.24651 5.75459,-12.05722 0,-7.79457 -5.53075,-15.27979 -16.80704,-22.10491 z"
     sodipodi:nodetypes="ssssssccsssssssssccssss" />
  <path
     inkscape:connector-curvature="0"
     id="path849-0"
     style="font-style:normal;font-variant:normal;font-weight:normal;font-stretch:normal;font-size:187.0696106px;line-height:1.25;font-family:'Gill Sans MT';-inkscape-font-specification:'Gill Sans MT, Normal';font-variant-ligatures:normal;font-variant-caps:normal;font-variant-numeric:normal;font-feature-settings:normal;text-align:start;letter-spacing:0px;word-spacing:0px;writing-mode:lr-tb;text-anchor:start;fill:#000000;fill-opacity:1;stroke:#f8f8f8;stroke-width:24;stroke-opacity:1;stroke-miterlimit:4;stroke-dasharray:none;stroke-linejoin:round"
     d="m 182.80407,183.93895 h -59.09866 c 0.42627,8.03815 3.09107,14.44732 8.03815,19.18194 4.97886,4.76504 11.41782,7.12472 19.27329,7.12472 10.96111,0 21.06968,-3.41012 30.32573,-10.23037 v 16.25898 c -5.11518,3.41013 -10.20229,5.83776 -15.25421,7.30741 -4.99577,1.45331 -10.86977,2.19222 -17.62912,2.19222 -9.25605,0 -16.74614,-1.91819 -22.47027,-5.75458 -5.72414,-3.83639 -10.35803,-8.96263 -13.79274,-15.4369 -3.44655,-6.49658 -5.11519,-14.03631 -5.11519,-22.56162 0,-12.78796 3.6384,-23.15685 10.86977,-31.14782 7.26168,-8.02445 16.65481,-12.05722 28.22487,-12.05722 11.14379,0 20.62758,3.42885 26.67203,11.69185 8.26958,11.30483 9.95635,21.95191 9.95635,33.43139 z m -58.73329,-9.95634 h 42.29162 c -0.42627,-6.63756 -2.40536,-11.75275 -5.93727,-15.34556 -3.53191,-3.59281 -8.28173,-5.38921 -14.24944,-5.38921 -5.96771,0 -10.88409,1.78117 -14.70616,5.38921 -3.78987,3.57764 -6.24174,8.708 -7.39875,15.34556 z"
     sodipodi:nodetypes="ccssccsssssssscccsssc" />
  <path
     inkscape:connector-curvature="0"
     id="path851-1"
     style="font-style:normal;font-variant:normal;font-weight:normal;font-stretch:normal;font-size:187.0696106px;line-height:1.25;font-family:'Gill Sans MT';-inkscape-font-specification:'Gill Sans MT, Normal';font-variant-ligatures:normal;font-variant-caps:normal;font-variant-numeric:normal;font-feature-settings:normal;text-align:start;letter-spacing:0px;word-spacing:0px;writing-mode:lr-tb;text-anchor:start;fill:#000000;fill-opacity:1;stroke:#f8f8f8;stroke-width:24;stroke-opacity:1;stroke-miterlimit:4;stroke-dasharray:none;stroke-linejoin:round"
     d="m 302.78255,140.45988 h 17.8118 l -37.08508,85.49666 h -5.20653 l -24.93653,-58.5506 -24.47981,58.5506 h -5.38921 l -37.45046,-85.49666 h 17.8118 l 22.01357,50.96916 21.37416,-50.96916 h 12.33125 l 21.28282,50.96916 z"
     sodipodi:nodetypes="cccccccccccccc" />
  <path
     inkscape:connector-curvature="0"
     id="path853-2"
     style="font-style:normal;font-variant:normal;font-weight:normal;font-stretch:normal;font-size:187.0696106px;line-height:1.25;font-family:'Gill Sans MT';-inkscape-font-specification:'Gill Sans MT, Normal';font-variant-ligatures:normal;font-variant-caps:normal;font-variant-numeric:normal;font-feature-settings:normal;text-align:start;letter-spacing:0px;word-spacing:0px;writing-mode:lr-tb;text-anchor:start;fill:#000000;fill-opacity:1;stroke:#f8f8f8;stroke-width:24;stroke-opacity:1;stroke-miterlimit:4;stroke-dasharray:none;stroke-linejoin:round"
     d="m 385.03653,173.98261 v 35.71495 c 0,2.86207 0.97432,4.2931 2.92297,4.2931 2.00953,0 9.40828,-4.47579 9.40828,-4.47579 v 10.13903 c 0,0 -6.82024,4.07997 -9.13425,4.9325 -2.25312,0.91343 -4.62803,1.37014 -7.12473,1.37014 -7.12472,0 -11.32648,-2.80117 -12.60527,-8.40352 -7.06383,5.48055 -14.58437,8.22083 -22.56162,8.22083 -5.84593,0 -10.71753,-1.91819 -14.61481,-5.75458 -3.89729,-3.89729 -5.84593,-8.76889 -5.84593,-14.61481 0,-5.29787 1.88775,-10.01724 5.66324,-14.1581 3.83639,-4.20176 9.25605,-7.52054 16.25898,-9.95635 l 21.28282,-7.3074 v -4.47579 c 0,-10.10858 -5.05429,-15.16287 -15.16287,-15.16287 -9.07336,0 -26.48935,14.06676 -26.48935,14.06676 v -18.17717 c 0,0 15.74138,-11.41783 27.85949,-11.41783 9.07337,0 16.35033,2.37491 21.83088,7.12472 1.82685,1.52238 3.47102,3.56237 4.9325,6.11996 1.46148,2.49669 2.37491,5.02384 2.74028,7.58143 0.42626,2.4967 0.63939,7.27696 0.63939,14.34079 z m -16.35032,33.8881 v -24.93653 l -11.14379,4.2931 c -5.66324,2.25312 -9.68231,4.53669 -12.05722,6.8507 -2.31401,2.25311 -3.47102,5.08473 -3.47102,8.49486 0,3.47101 1.09611,6.30263 3.28833,8.49486 2.25312,2.19222 5.14564,3.28833 8.67755,3.28833 5.29787,0 14.70615,-6.48532 14.70615,-6.48532 z"
     sodipodi:nodetypes="ssscccscscscccssccscccsccccscsc" />
  <path
     inkscape:connector-curvature="0"
     id="path855-6"
     style="font-style:normal;font-variant:normal;font-weight:normal;font-stretch:normal;font-size:187.0696106px;line-height:1.25;font-family:'Gill Sans MT';-inkscape-font-specification:'Gill Sans MT, Normal';font-variant-ligatures:normal;font-variant-caps:normal;font-variant-numeric:normal;font-feature-settings:normal;text-align:start;letter-spacing:0px;word-spacing:0px;writing-mode:lr-tb;text-anchor:start;fill:#000000;fill-opacity:1;stroke:#f8f8f8;stroke-width:24;stroke-opacity:1;stroke-miterlimit:4;stroke-dasharray:none;stroke-linejoin:round"
     d="m 407.96353,169.50682 c 0,-8.95157 3.25789,-16.0154 9.77366,-21.19148 6.57667,-5.23697 15.52824,-7.85546 26.85472,-7.85546 h 34.61884 v 12.97065 h -16.98972 c 3.28833,3.34923 5.5719,6.39398 6.85069,9.13425 1.2788,2.74028 1.9182,5.87638 1.9182,9.40829 0,4.38445 -1.24835,8.708 -3.74505,12.97065 -2.4967,4.20176 -5.72414,7.4292 -9.68231,9.68231 -3.89729,2.25312 -10.32172,4.04952 -19.27329,5.38921 -6.27219,0.91343 -9.40829,3.0752 -9.40829,6.48533 0,1.94864 1.15701,3.56236 3.47102,4.84115 2.37491,1.21791 6.63756,2.4967 12.78796,3.83639 10.29127,2.25312 16.89838,4.01908 19.82135,5.29787 2.98385,1.2788 5.66323,3.10565 8.03814,5.48056 4.01907,4.01907 6.02861,9.07336 6.02861,15.16287 0,7.97725 -3.56236,14.34078 -10.68708,19.0906 -7.06383,4.74981 -16.53301,7.12472 -28.40754,7.12472 -11.99633,0 -21.5873,-2.40536 -28.77292,-7.21607 -7.12472,-4.74981 -10.68708,-11.14379 -10.68708,-19.18194 0,-11.38737 7.03338,-18.72523 21.10014,-22.01356 -5.60235,-3.59281 -8.40352,-7.15517 -8.40352,-10.68708 0,-2.67939 1.18745,-5.11519 3.56236,-7.30741 2.4358,-2.19222 5.69369,-3.80594 9.77366,-4.84116 -12.3617,-5.48055 -18.54255,-14.34078 -18.54255,-26.58069 z m 31.23917,-14.61481 c -4.50623,0 -8.34262,1.52238 -11.50917,4.56713 -3.16654,3.04475 -4.74981,6.69846 -4.74981,10.96111 0,4.32355 1.55282,7.91635 4.65847,10.77842 3.10565,2.80117 7.03338,4.20176 11.78319,4.20176 4.68892,0 8.5862,-1.43103 11.69185,-4.2931 3.16655,-2.92296 4.74982,-6.54622 4.74982,-10.86977 0,-4.38444 -1.58327,-8.03814 -4.74982,-10.96111 -3.16654,-2.92296 -7.12472,-4.38444 -11.87453,-4.38444 z m -3.92773,73.53078 c -5.60235,0 -10.19992,1.18745 -13.79273,3.56236 -3.53191,2.37491 -5.29787,5.41966 -5.29787,9.13426 0,8.64709 7.79457,12.97064 23.3837,12.97064 7.3683,0 13.06199,-1.09611 17.08106,-3.28833 4.07997,-2.13133 6.11995,-5.17608 6.11995,-9.13426 0,-3.89728 -2.55759,-7.09427 -7.67277,-9.59097 -5.11519,-2.4358 -11.7223,-3.6537 -19.82134,-3.6537 z"
     sodipodi:nodetypes="scsccccscccscccsscscscsccsscscscsssscsscscs" />
  <path
     inkscape:connector-curvature="0"
     id="path857-2"
     style="font-style:normal;font-variant:normal;font-weight:normal;font-stretch:normal;font-size:187.0696106px;line-height:1.25;font-family:'Gill Sans MT';-inkscape-font-specification:'Gill Sans MT, Normal';font-variant-ligatures:normal;font-variant-caps:normal;font-variant-numeric:normal;font-feature-settings:normal;text-align:start;letter-spacing:0px;word-spacing:0px;writing-mode:lr-tb;text-anchor:start;fill:#000000;fill-opacity:1;stroke:#f8f8f8;stroke-width:24;stroke-opacity:1;stroke-miterlimit:4;stroke-dasharray:none;stroke-linejoin:round"
     d="m 563.88535,183.93895 h -59.09867 c 0.42627,8.03815 3.10565,14.43213 8.03815,19.18194 4.99339,4.74981 11.41782,7.12472 19.27328,7.12472 10.96114,0 21.06964,-3.41012 30.32574,-10.23037 v 16.25898 c -5.1152,3.41013 -10.1999,5.84593 -15.2542,7.30741 -4.9934,1.46148 -10.8698,2.19222 -17.62913,2.19222 -9.25605,0 -16.74614,-1.91819 -22.47027,-5.75458 -5.72414,-3.83639 -10.32172,-8.98202 -13.79273,-15.4369 -3.41013,-6.51577 -5.11519,-14.03631 -5.11519,-22.56162 0,-12.78796 3.62326,-23.17057 10.86977,-31.14782 7.24651,-8.03815 16.6548,-12.05722 28.22486,-12.05722 27.57119,2.17545 36.62839,22.22876 36.62839,45.12324 z m -58.7333,-9.95634 h 42.2916 c -0.4263,-6.63756 -2.4053,-11.75275 -5.9373,-15.34556 -3.5319,-3.59281 -8.2817,-5.38921 -14.24939,-5.38921 -5.96772,0 -10.86977,1.7964 -14.70616,5.38921 -3.77549,3.59281 -6.24174,8.708 -7.39875,15.34556 z"
     sodipodi:nodetypes="cccscccsscscccccsscc" />
  <path
     inkscape:connector-curvature="0"
     id="path866"
     style="font-style:normal;font-variant:normal;font-weight:normal;font-stretch:normal;font-size:187.0696106px;line-height:1.25;font-family:'Gill Sans MT';-inkscape-font-specification:'Gill Sans MT, Normal';font-variant-ligatures:normal;font-variant-caps:normal;font-variant-numeric:normal;font-feature-settings:normal;text-align:start;letter-spacing:0px;word-spacing:0px;writing-mode:lr-tb;text-anchor:start;fill:#000000;fill-opacity:1;stroke:none;stroke-width:4.67674017"
     d="m 214.13456,310.65064 h 18.17717 l -51.60856,128.15364 h -3.92773 L 135.03188,335.03911 92.922949,438.80428 H 88.995218 L 37.569344,310.65064 h 18.359859 l 35.166894,87.9629 35.349583,-87.9629 h 17.35509 l 35.53226,87.9629 z"
     sodipodi:nodetypes="cccccccccccccc" />
  <path
     inkscape:connector-curvature="0"
     id="path868"
     style="font-style:normal;font-variant:normal;font-weight:normal;font-stretch:normal;font-size:187.0696106px;line-height:1.25;font-family:'Gill Sans MT';-inkscape-font-specification:'Gill Sans MT, Normal';font-variant-ligatures:normal;font-variant-caps:normal;font-variant-numeric:normal;font-feature-settings:normal;text-align:start;letter-spacing:0px;word-spacing:0px;writing-mode:lr-tb;text-anchor:start;fill:#000000;fill-opacity:1;stroke:none;stroke-width:4.67674017"
     d="m 267.84399,354.03836 q 19.18195,0 31.87857,12.4226 12.69661,12.33124 12.69661,31.05647 0,18.17718 -12.8793,30.2344 -12.8793,11.96588 -32.42662,11.96588 -18.90791,0 -31.60453,-12.14857 -12.69662,-12.2399 -12.69662,-30.50842 0,-18.4512 12.78796,-30.69111 12.87931,-12.33125 32.24393,-12.33125 z m -0.91342,14.98019 q -11.96588,0 -19.63866,7.85546 -7.67277,7.85546 -7.67277,20.00403 0,12.05722 7.85546,19.72999 7.85546,7.58144 20.18671,7.58144 12.2399,0 20.00402,-7.67278 7.85547,-7.76412 7.85547,-19.82134 0,-11.96588 -8.12949,-19.82134 -8.12949,-7.85546 -20.46074,-7.85546 z" />
  <path
     inkscape:connector-curvature="0"
     id="path870"
     style="font-style:normal;font-variant:normal;font-weight:normal;font-stretch:normal;font-size:187.0696106px;line-height:1.25;font-family:'Gill Sans MT';-inkscape-font-specification:'Gill Sans MT, Normal';font-variant-ligatures:normal;font-variant-caps:normal;font-variant-numeric:normal;font-feature-settings:normal;text-align:start;letter-spacing:0px;word-spacing:0px;writing-mode:lr-tb;text-anchor:start;fill:#000000;fill-opacity:1;stroke:none;stroke-width:4.67674017"
     d="m 348.86487,354.22105 v 19.27328 l 0.91343,-1.46148 c 8.03815,-12.97065 16.07629,-19.45597 24.11444,-19.45597 6.27219,0 12.81841,3.16654 19.63865,9.49963 l -8.76888,14.61481 c -5.78503,-5.48055 -11.1438,-8.22083 -16.0763,-8.22083 -5.35877,0 -10.01724,2.55759 -13.97541,7.67278 -3.89729,5.11519 -5.84593,11.17424 -5.84593,18.17717 v 43.93579 h -16.71569 v -84.03518 z"
     sodipodi:nodetypes="cccsccscscccc" />
  <path
     inkscape:connector-curvature="0"
     id="path872"
     style="font-style:normal;font-variant:normal;font-weight:normal;font-stretch:normal;font-size:187.0696106px;line-height:1.25;font-family:'Gill Sans MT';-inkscape-font-specification:'Gill Sans MT, Normal';font-variant-ligatures:normal;font-variant-caps:normal;font-variant-numeric:normal;font-feature-settings:normal;text-align:start;letter-spacing:0px;word-spacing:0px;writing-mode:lr-tb;text-anchor:start;fill:#000000;fill-opacity:1;stroke:none;stroke-width:4.67674017"
     d="m 453.8461,354.22105 h 19.82134 l -35.89764,41.1955 43.20505,42.83968 h -22.28759 l -42.10894,-42.83968 z m -48.62287,-43.57041 h 16.62435 v 127.60559 h -16.62435 z"
     sodipodi:nodetypes="cccccccccccc" />
  <path
     inkscape:connector-curvature="0"
     id="path874"
     style="font-style:normal;font-variant:normal;font-weight:normal;font-stretch:normal;font-size:187.0696106px;line-height:1.25;font-family:'Gill Sans MT';-inkscape-font-specification:'Gill Sans MT, Normal';font-variant-ligatures:normal;font-variant-caps:normal;font-variant-numeric:normal;font-feature-settings:normal;text-align:start;letter-spacing:0px;word-spacing:0px;writing-mode:lr-tb;text-anchor:start;fill:#000000;fill-opacity:1;stroke:none;stroke-width:4.67674017"
     d="m 488.62856,432.22762 v -17.90315 q 7.03338,4.9325 14.34079,8.03815 7.39875,3.0143 12.42259,3.0143 5.20653,0 8.95157,-2.55759 3.74505,-2.55759 3.74505,-6.11995 0,-3.65371 -2.46625,-6.02861 -2.37491,-2.46625 -10.41305,-7.03338 -16.0763,-8.95158 -21.10014,-15.25421 -4.9325,-6.39399 -4.9325,-13.88408 0,-9.68231 7.49009,-15.80226 7.58144,-6.11996 19.45597,-6.11996 12.33125,0 25.3019,6.94204 v 16.44166 q -14.7975,-8.95157 -24.20579,-8.95157 -4.84115,0 -7.85546,2.10088 -2.92296,2.00954 -2.92296,5.38921 0,2.92297 2.64893,5.5719 2.74028,2.64893 9.49963,6.39398 l 5.93727,3.37968 q 21.00879,11.87453 21.00879,26.30666 0,10.32171 -8.12949,16.98972 -8.03814,6.57667 -20.73476,6.57667 -7.49009,0 -13.33602,-1.55283 -5.84592,-1.64416 -14.70616,-5.93726 z" />
  <path
     inkscape:connector-curvature="0"
     id="path847"
     style="font-style:normal;font-variant:normal;font-weight:normal;font-stretch:normal;font-size:187.0696106px;line-height:1.25;font-family:'Gill Sans MT';-inkscape-font-specification:'Gill Sans MT, Normal';font-variant-ligatures:normal;font-variant-caps:normal;font-variant-numeric:normal;font-feature-settings:normal;text-align:start;letter-spacing:0px;word-spacing:0px;writing-mode:lr-tb;text-anchor:start;fill:#000000;fill-opacity:1;stroke:none;stroke-width:4.67674017"
     d="M 59.217538,170.9683 45.333466,162.56478 C 36.613383,157.28683 30.37972,152.08524 26.699579,146.9452 c -3.688326,-5.15147 -5.480555,-11.11335 -5.480555,-17.8118 0,-10.04769 3.457384,-18.22274 10.413054,-24.47981 6.98933,-6.287346 16.076295,-9.408289 27.22009,-9.408289 10.656635,0 29.320969,8.951569 29.320969,8.951569 v 20.73477 c 0,0 -19.0906,-13.24467 -29.686339,-13.24467 -5.967716,0 -10.855265,1.42055 -14.706156,4.20175 -3.821991,2.76033 -5.754583,6.27219 -5.754583,10.59574 0,3.83639 1.400586,7.4292 4.201759,10.77843 2.801173,3.34923 7.353448,6.82405 13.610045,10.5044 l 13.975415,8.22083 c 15.626837,9.19225 23.383701,21.06969 23.383701,35.44092 0,10.23037 -3.454727,18.52734 -10.321712,24.93653 -6.834435,6.37881 -15.710924,9.59097 -26.672034,9.59097 -12.605277,0 -34.436154,-11.60051 -34.436154,-11.60051 v -23.20102 c 0,0 21.282822,18.72523 34.253469,18.72523 5.724135,0 10.476349,-1.58041 14.249443,-4.74981 3.83879,-3.22458 5.754583,-7.24651 5.754583,-12.05722 0,-7.79457 -5.530747,-15.27979 -16.807036,-22.10491 z"
     sodipodi:nodetypes="ssssssccsssssssssccssss" />
  <path
     inkscape:connector-curvature="0"
     id="path849"
     style="font-style:normal;font-variant:normal;font-weight:normal;font-stretch:normal;font-size:187.0696106px;line-height:1.25;font-family:'Gill Sans MT';-inkscape-font-specification:'Gill Sans MT, Normal';font-variant-ligatures:normal;font-variant-caps:normal;font-variant-numeric:normal;font-feature-settings:normal;text-align:start;letter-spacing:0px;word-spacing:0px;writing-mode:lr-tb;text-anchor:start;fill:#000000;fill-opacity:1;stroke:none;stroke-width:4.67674017"
     d="M 182.80406,183.93895 H 123.7054 c 0.42627,8.03815 3.09107,14.44732 8.03815,19.18194 4.97886,4.76504 11.41782,7.12472 19.27329,7.12472 10.96111,0 21.06968,-3.41012 30.32573,-10.23037 v 16.25898 c -5.11518,3.41013 -10.20229,5.83776 -15.25421,7.30741 -4.99577,1.45331 -10.86977,2.19222 -17.62912,2.19222 -9.25605,0 -16.74614,-1.91819 -22.47027,-5.75458 -5.72413,-3.83639 -10.35802,-8.96263 -13.79273,-15.4369 -3.44655,-6.49658 -5.11519,-14.03631 -5.11519,-22.56162 0,-12.78796 3.6384,-23.15685 10.86977,-31.14782 7.26167,-8.02445 16.6548,-12.05722 28.22486,-12.05722 11.14379,0 20.62758,3.42885 26.67203,11.69185 8.26958,11.30483 9.95635,21.95191 9.95635,33.43139 z m -58.73329,-9.95634 h 42.29162 c -0.42627,-6.63756 -2.40536,-11.75275 -5.93727,-15.34556 -3.53191,-3.59281 -8.28173,-5.38921 -14.24944,-5.38921 -5.96771,0 -10.88409,1.78117 -14.70616,5.38921 -3.78987,3.57764 -6.24174,8.708 -7.39875,15.34556 z"
     sodipodi:nodetypes="ccssccsssssssscccsssc" />
  <path
     inkscape:connector-curvature="0"
     id="path851"
     style="font-style:normal;font-variant:normal;font-weight:normal;font-stretch:normal;font-size:187.0696106px;line-height:1.25;font-family:'Gill Sans MT';-inkscape-font-specification:'Gill Sans MT, Normal';font-variant-ligatures:normal;font-variant-caps:normal;font-variant-numeric:normal;font-feature-settings:normal;text-align:start;letter-spacing:0px;word-spacing:0px;writing-mode:lr-tb;text-anchor:start;fill:#000000;fill-opacity:1;stroke:none;stroke-width:4.67674017"
     d="m 302.78254,140.45988 h 17.8118 l -37.08508,85.49666 h -5.20653 l -24.93653,-58.5506 -24.47981,58.5506 h -5.38921 l -37.45046,-85.49666 h 17.8118 l 22.01357,50.96916 21.37416,-50.96916 h 12.33125 l 21.28282,50.96916 z"
     sodipodi:nodetypes="cccccccccccccc" />
  <path
     inkscape:connector-curvature="0"
     id="path853"
     style="font-style:normal;font-variant:normal;font-weight:normal;font-stretch:normal;font-size:187.0696106px;line-height:1.25;font-family:'Gill Sans MT';-inkscape-font-specification:'Gill Sans MT, Normal';font-variant-ligatures:normal;font-variant-caps:normal;font-variant-numeric:normal;font-feature-settings:normal;text-align:start;letter-spacing:0px;word-spacing:0px;writing-mode:lr-tb;text-anchor:start;fill:#000000;fill-opacity:1;stroke:none;stroke-width:4.67674017"
     d="m 385.03652,173.98261 v 35.71495 c 0,2.86207 0.97432,4.2931 2.92297,4.2931 2.00953,0 9.40828,-4.47579 9.40828,-4.47579 v 10.13903 c 0,0 -6.82024,4.07997 -9.13425,4.9325 -2.25312,0.91343 -4.62803,1.37014 -7.12473,1.37014 -7.12472,0 -11.32648,-2.80117 -12.60527,-8.40352 -7.06383,5.48055 -14.58437,8.22083 -22.56162,8.22083 -5.84593,0 -10.71753,-1.91819 -14.61481,-5.75458 -3.89729,-3.89729 -5.84593,-8.76889 -5.84593,-14.61481 0,-5.29787 1.88775,-10.01724 5.66324,-14.1581 3.83639,-4.20176 9.25605,-7.52054 16.25898,-9.95635 l 21.28282,-7.3074 v -4.47579 c 0,-10.10858 -5.05429,-15.16287 -15.16287,-15.16287 -9.07336,0 -26.48935,14.06676 -26.48935,14.06676 v -18.17717 c 0,0 15.74138,-11.41783 27.85949,-11.41783 9.07337,0 16.35033,2.37491 21.83088,7.12472 1.82685,1.52238 3.47102,3.56237 4.9325,6.11996 1.46148,2.49669 2.37491,5.02384 2.74028,7.58143 0.42626,2.4967 0.63939,7.27696 0.63939,14.34079 z m -16.35032,33.8881 v -24.93653 l -11.14379,4.2931 c -5.66324,2.25312 -9.68231,4.53669 -12.05722,6.8507 -2.31401,2.25311 -3.47102,5.08473 -3.47102,8.49486 0,3.47101 1.09611,6.30263 3.28833,8.49486 2.25312,2.19222 5.14564,3.28833 8.67755,3.28833 5.29787,0 14.70615,-6.48532 14.70615,-6.48532 z"
     sodipodi:nodetypes="ssscccscscscccssccscccsccccscsc" />
  <path
     inkscape:connector-curvature="0"
     id="path855"
     style="font-style:normal;font-variant:normal;font-weight:normal;font-stretch:normal;font-size:187.0696106px;line-height:1.25;font-family:'Gill Sans MT';-inkscape-font-specification:'Gill Sans MT, Normal';font-variant-ligatures:normal;font-variant-caps:normal;font-variant-numeric:normal;font-feature-settings:normal;text-align:start;letter-spacing:0px;word-spacing:0px;writing-mode:lr-tb;text-anchor:start;fill:#000000;fill-opacity:1;stroke:none;stroke-width:4.67674017"
     d="m 407.96352,169.50682 c 0,-8.95157 3.25789,-16.0154 9.77366,-21.19148 6.57667,-5.23697 15.52824,-7.85546 26.85472,-7.85546 h 34.61884 v 12.97065 h -16.98972 c 3.28833,3.34923 5.5719,6.39398 6.85069,9.13425 1.2788,2.74028 1.9182,5.87638 1.9182,9.40829 0,4.38445 -1.24835,8.708 -3.74505,12.97065 -2.4967,4.20176 -5.72414,7.4292 -9.68231,9.68231 -3.89729,2.25312 -10.32172,4.04952 -19.27329,5.38921 -6.27219,0.91343 -9.40829,3.0752 -9.40829,6.48533 0,1.94864 1.15701,3.56236 3.47102,4.84115 2.37491,1.21791 6.63756,2.4967 12.78796,3.83639 10.29127,2.25312 16.89838,4.01908 19.82135,5.29787 2.98385,1.2788 5.66323,3.10565 8.03814,5.48056 4.01907,4.01907 6.02861,9.07336 6.02861,15.16287 0,7.97725 -3.56236,14.34078 -10.68708,19.0906 -7.06383,4.74981 -16.53301,7.12472 -28.40754,7.12472 -11.99633,0 -21.5873,-2.40536 -28.77292,-7.21607 -7.12472,-4.74981 -10.68708,-11.14379 -10.68708,-19.18194 0,-11.38737 7.03338,-18.72523 21.10014,-22.01356 -5.60235,-3.59281 -8.40352,-7.15517 -8.40352,-10.68708 0,-2.67939 1.18745,-5.11519 3.56236,-7.30741 2.4358,-2.19222 5.69369,-3.80594 9.77366,-4.84116 -12.3617,-5.48055 -18.54255,-14.34078 -18.54255,-26.58069 z m 31.23917,-14.61481 c -4.50623,0 -8.34262,1.52238 -11.50917,4.56713 -3.16654,3.04475 -4.74981,6.69846 -4.74981,10.96111 0,4.32355 1.55282,7.91635 4.65847,10.77842 3.10565,2.80117 7.03338,4.20176 11.78319,4.20176 4.68892,0 8.5862,-1.43103 11.69185,-4.2931 3.16655,-2.92296 4.74982,-6.54622 4.74982,-10.86977 0,-4.38444 -1.58327,-8.03814 -4.74982,-10.96111 -3.16654,-2.92296 -7.12472,-4.38444 -11.87453,-4.38444 z m -3.92773,73.53078 c -5.60235,0 -10.19992,1.18745 -13.79273,3.56236 -3.53191,2.37491 -5.29787,5.41966 -5.29787,9.13426 0,8.64709 7.79457,12.97064 23.3837,12.97064 7.3683,0 13.06199,-1.09611 17.08106,-3.28833 4.07997,-2.13133 6.11995,-5.17608 6.11995,-9.13426 0,-3.89728 -2.55759,-7.09427 -7.67277,-9.59097 -5.11519,-2.4358 -11.7223,-3.6537 -19.82134,-3.6537 z"
     sodipodi:nodetypes="scsccccscccscccsscscscsccsscscscsssscsscscs" />
  <path
     inkscape:connector-curvature="0"
     id="path857"
     style="font-style:normal;font-variant:normal;font-weight:normal;font-stretch:normal;font-size:187.0696106px;line-height:1.25;font-family:'Gill Sans MT';-inkscape-font-specification:'Gill Sans MT, Normal';font-variant-ligatures:normal;font-variant-caps:normal;font-variant-numeric:normal;font-feature-settings:normal;text-align:start;letter-spacing:0px;word-spacing:0px;writing-mode:lr-tb;text-anchor:start;fill:#000000;fill-opacity:1;stroke:none;stroke-width:4.67674017"
     d="m 563.88532,183.93895 h -59.09865 c 0.42627,8.03815 3.10565,14.43213 8.03815,19.18194 4.99339,4.74981 11.41782,7.12472 19.27328,7.12472 10.96111,0 21.06969,-3.41012 30.32574,-10.23037 v 16.25898 c -5.11518,3.41013 -10.19992,5.84593 -15.25421,7.30741 -4.99339,1.46148 -10.86977,2.19222 -17.62912,2.19222 -9.25605,0 -16.74614,-1.91819 -22.47027,-5.75458 -5.72414,-3.83639 -10.32172,-8.98202 -13.79273,-15.4369 -3.41013,-6.51577 -5.11519,-14.03631 -5.11519,-22.56162 0,-12.78796 3.62326,-23.17057 10.86977,-31.14782 7.24651,-8.03815 16.6548,-12.05722 28.22486,-12.05722 27.57122,2.17545 36.62837,22.22876 36.62837,45.12324 z m -58.73328,-9.95634 h 42.29162 c -0.42627,-6.63756 -2.40536,-11.75275 -5.93727,-15.34556 -3.53191,-3.59281 -8.28173,-5.38921 -14.24944,-5.38921 -5.96772,0 -10.86977,1.7964 -14.70616,5.38921 -3.77549,3.59281 -6.24174,8.708 -7.39875,15.34556 z"
     sodipodi:nodetypes="cccscccsscscccccsscc" />
</svg>
