<?xml version="1.0" encoding="UTF-8" standalone="no"?>
<svg
   xmlns:dc="http://purl.org/dc/elements/1.1/"
   xmlns:cc="http://creativecommons.org/ns#"
   xmlns:rdf="http://www.w3.org/1999/02/22-rdf-syntax-ns#"
   xmlns:svg="http://www.w3.org/2000/svg"
   xmlns="http://www.w3.org/2000/svg"
   xmlns:sodipodi="http://sodipodi.sourceforge.net/DTD/sodipodi-0.dtd"
   xmlns:inkscape="http://www.inkscape.org/namespaces/inkscape"
   height="580"
   width="580"
   version="1.0"
   id="svg17397"
   sodipodi:docname="shooting.svg"
   inkscape:version="0.92.4 (5da689c313, 2019-01-14)">
  <defs
     id="defs17401" />
  <sodipodi:namedview
     pagecolor="#ffffff"
     bordercolor="#666666"
     borderopacity="1"
     objecttolerance="10"
     gridtolerance="10"
     guidetolerance="10"
     inkscape:pageopacity="0"
     inkscape:pageshadow="2"
     inkscape:window-width="1920"
     inkscape:window-height="1017"
     id="namedview17399"
     showgrid="false"
     inkscape:zoom="1.1508772"
     inkscape:cx="56.299765"
     inkscape:cy="339.8838"
     inkscape:window-x="-8"
     inkscape:window-y="-8"
     inkscape:window-maximized="1"
     inkscape:current-layer="svg17397" />
  <metadata
     id="metadata2975">
    <rdf:RDF>
      <cc:Work
         rdf:about="">
        <dc:format>image/svg+xml</dc:format>
        <dc:type
           rdf:resource="http://purl.org/dc/dcmitype/StillImage" />
      </cc:Work>
    </rdf:RDF>
  </metadata>
  <g
     id="g8072"
     style="opacity:1;fill:#0098e3;fill-opacity:0.78431374">
    <g
       id="g8069"
       style="fill:#0098e3;fill-opacity:0.78431374">
      <path
         d="m 215.27,39.74 c -15.97,-0.108 -32.11,7.713 -39.63,22.842 -16.09,28.262 6.61,65.688 39.08,64.658 33.74,1.81 56.08,-41.271 36.37,-68.26 -7.78,-12.874 -21.73,-19.144 -35.82,-19.24 z m 278.6,79.52 c -80.77,3.07 -164.73,4.25 -234.38,5.74 -18.57,-0.5 -32.09,10.95 -9.37,15.28 h 0.1 v 0 c 17.11,23.17 -4.45,46.47 -26.81,42.92 h -58.43 c -0.17,53.92 0.34,107.9 -0.26,161.77 -11.31,58.05 -23.93,115.9 -34.42,174.08 -0.71,32.15 50.11,30.38 49.99,-0.62 11.28,-57.2 22.56,-114.41 33.84,-171.61 7.24,0.88 19.08,-3.83 17.67,7.59 11.69,57.9 22.34,116.05 34.68,173.79 10.61,29.23 57.91,10.86 45.81,-17.82 -11.07,-56.41 -22.81,-112.75 -33.46,-169.2 V 198.75 c 7.48,-9.68 14.97,-19.37 22.45,-29.06 7.8,-1.23 17.06,0.26 24.01,-2.56 6.5,-7.35 11.62,-17.32 18.97,-23.08 51.5,-2.87 103.01,-5.74 154.51,-8.61 -1,-6.05 2,-16.4 -4.86,-16.2 z m -267.65,17.99 c -35.56,2.69 -73.94,1.19 -110.42,1.19 -26.146,0.72 -27.586,34.97 2.66,34.93 35.3,-0.17 75.71,-0.35 111,-1 24.7,-3.54 20.76,-32.09 -3.24,-35.12 z"
         id="path8068"
         inkscape:connector-curvature="0"
         sodipodi:nodetypes="cccccccccccccccccccccccccccccccc"
         style="fill:#0098e3;fill-opacity:0.78431374" />
    </g>
  </g>
</svg>
