<?xml version="1.0" encoding="UTF-8" standalone="no"?>
<svg xmlns="http://www.w3.org/2000/svg" xmlns:sodipodi="http://sodipodi.sourceforge.net/DTD/sodipodi-0.dtd" xmlns:inkscape="http://www.inkscape.org/namespaces/inkscape" height="580" width="580" version="1.0">
 <metadata id="metadata2975"/>
 <path id="path8069" d="M 472.7,461.15 C 426.28,410.59 379.04,360.67 333.12,309.71 c -14.54,-21.25 -23.48,-48.55 -11.68,-73.25 5.72,-14.25 8.68,-31.15 22.36,-40.05 36.63,-32.82 73.52,-65.36 109.99,-98.35 C 471.58,80.289 454.55,49.831 431.73,48.253 410.19,45.66 397.63,65.979 382.51,77.524 354.1,102.87 325.68,128.22 297.27,153.57 280.61,151.94 263.74,153.2 246.99,152.8 216.96,114.75 188,75.767 157.29,38.312 136.96,18.659 96.347,39.047 103.15,67.478 c 6.84,16.767 20.98,29.409 31.22,44.232 21.06,27.08 42.11,54.17 63.17,81.25 -0.31,45.98 0.62,92.2 -0.46,138.04 -23.57,61.78 -47.52,123.43 -70.84,185.3 -7.95,28.93 33.46,48.22 53.91,29.5 11.94,-12.31 14.36,-30.45 21.46,-45.66 18.5,-48.28 37,-96.55 55.5,-144.83 10.46,0 20.93,0 31.39,0 45.7,49.24 91.1,98.77 136.98,147.83 20.43,19.97 60.75,-0.93 54.03,-29.3 -1.09,-4.73 -3.5,-9.13 -6.81,-12.69 z" opacity="0.8" fill="none" stroke="#ffffff" stroke-width="40"/>
 <path id="path2044" d="M 472.7,461.15 C 426.28,410.59 379.04,360.67 333.12,309.71 c -14.54,-21.25 -23.48,-48.55 -11.68,-73.25 5.72,-14.25 8.68,-31.15 22.36,-40.05 36.63,-32.82 73.52,-65.36 109.99,-98.35 C 471.58,80.289 454.55,49.831 431.73,48.253 410.19,45.66 397.63,65.979 382.51,77.524 354.1,102.87 325.68,128.22 297.27,153.57 280.61,151.94 263.74,153.2 246.99,152.8 216.96,114.75 188,75.767 157.29,38.312 136.96,18.659 96.347,39.047 103.15,67.478 c 6.84,16.767 20.98,29.409 31.22,44.232 21.06,27.08 42.11,54.17 63.17,81.25 -0.31,45.98 0.62,92.2 -0.46,138.04 -23.57,61.78 -47.52,123.43 -70.84,185.3 -7.95,28.93 33.46,48.22 53.91,29.5 11.94,-12.31 14.36,-30.45 21.46,-45.66 18.5,-48.28 37,-96.55 55.5,-144.83 10.46,0 20.93,0 31.39,0 45.7,49.24 91.1,98.77 136.98,147.83 20.43,19.97 60.75,-0.93 54.03,-29.3 -1.09,-4.73 -3.5,-9.13 -6.81,-12.69 z" fill="#ac3b98"/>
 <path id="circle2048" d="m 336.55,77.888 c 0.79,39.172 -47.84,63.202 -80.51,44.592 -30.94,-13.55 -38.35,-59.431 -11.82,-81.043 28.53,-28.004 84.86,-12.774 91.53,27.814 l 0.66,5.043 0.14,3.594 0,0 z" fill="#ac3b98"/>
</svg>
