<?xml version="1.0" encoding="UTF-8" standalone="no"?>
<svg xmlns="http://www.w3.org/2000/svg" xmlns:sodipodi="http://sodipodi.sourceforge.net/DTD/sodipodi-0.dtd" xmlns:inkscape="http://www.inkscape.org/namespaces/inkscape" enable-background="new 0 0 580 580" viewBox="0 0 580 580" height="580" width="580" version="1.1">
 <metadata id="metadata17"/>
 <path id="path8068" d="m 431.17,123.98 -69.48,0 c -7.06,20.65 -21.03,39.83 -43.29,45.06 -23.16,11.43 -46.43,0.1 -65.37,-11.33 C 240.86,150.38 227,123.98 227,123.98 l -78.17,0 c -37.28,28 -74.55,56 -111.825,84 l 0,87.29 C 74.788,283.81 112.57,272.34 150.35,260.88 l 0,195.14 280.82,0 0,-194.67 c 37.27,11.31 74.55,22.61 111.82,33.92 l 0,-87.29 c -37.27,-28 -74.55,-56 -111.82,-84 z" opacity="0.8" fill="none" stroke="#ffffff" stroke-linejoin="round" stroke-linecap="round" stroke-width="40"/>
 <path id="path11" d="m 431.17,123.98 -69.48,0 c -7.06,20.65 -21.03,39.83 -43.29,45.06 -23.16,11.43 -46.43,0.1 -65.37,-11.33 C 240.86,150.38 227,123.98 227,123.98 l -78.17,0 c -37.28,28 -74.55,56 -111.825,84 l 0,87.29 C 74.788,283.81 112.57,272.34 150.35,260.88 l 0,195.14 280.82,0 0,-194.67 c 37.27,11.31 74.55,22.61 111.82,33.92 l 0,-87.29 c -37.27,-28 -74.55,-56 -111.82,-84 z" fill="#ac3b98"/>
</svg>
