<?xml version="1.0" encoding="UTF-8" standalone="no"?>
<svg xmlns="http://www.w3.org/2000/svg" xmlns:sodipodi="http://sodipodi.sourceforge.net/DTD/sodipodi-0.dtd" xmlns:inkscape="http://www.inkscape.org/namespaces/inkscape" height="580" width="580" version="1.0">
 <metadata id="metadata2975"/>
 <path id="path8073" d="m 364.74,119.76 -2.71,-1.78 C 344.62,83.1 251.69,58.52 234.17,102.11 c -1.49,8.1 -10.59,16.05 -19.94,17.39 l -0.25,146.85 c 8.22,0 17.26,9.26 17.43,17.49 l 4.52,237.92 c 0.41,21.69 -17.31,21.99 -26.75,22.07 l -43.55,-0.1 c -9.5,0 -28.46,-6.26 -27.9,-24.66 l 6.54,-235.31 c 0.22,-8.19 9.23,-17.23 17.4,-17.34 0,0 0,-0.1 0.1,-0.1 l 0.2,-147.38 c -14.8,-0.79 -22.74,-7.54 -27.79,-16.43 -9.76,-17.163 -30.45,-11.537 -48.128,-9.987 l 0.05,7.22 C 85.975,110.64 76.287,119.3 64.215,119.28 52.142,119.26 42.45,110.55 42.467,99.777 l 0.04,-48.14 C 42.585,40.807 52.273,32.152 64.345,32.23 75.264,32.217 83.863,39.42 85.447,48.831 120.48,46.872 114.61,35.412 160.51,33.144 L 243,32.38 c 58.2,0.65 96.28,38.906 121.74,87.38 z m 16.96,424 c 0.44,-24.43 0.88,-48.85 1.32,-73.28 16.22,-7.36 32.45,-14.72 48.67,-22.08 15.06,7.23 30.13,14.45 45.19,21.68 l -2.13,74.55 c 9.91,0.33 19.83,0.65 29.74,0.98 6.8,-30.98 13.59,-61.95 20.39,-92.93 -24.36,-13.81 -48.71,-27.63 -73.07,-41.44 6.61,-118.55 13.54,-237.08 19.94,-355.633 -1.14,-36.105 -60.56,-41.837 -71.04,-8.321 -4.06,23.169 -0.64,47.078 -1.27,70.574 1.3,99 2.59,198 3.89,297 -22.75,11.77 -45.5,23.53 -68.25,35.3 5.68,31.05 11.37,62.09 17.05,93.14 9.86,0.15 19.71,0.31 29.57,0.46 z" opacity="0.8" fill="none" stroke="#ffffff" stroke-linejoin="round" stroke-width="40"/>
 <path id="path4657" d="m 381.7,543.76 c 0.44,-24.43 0.88,-48.85 1.32,-73.28 16.22,-7.36 32.45,-14.72 48.67,-22.08 15.06,7.23 30.13,14.45 45.19,21.68 l -2.13,74.55 c 9.91,0.33 19.83,0.65 29.74,0.98 6.8,-30.98 13.59,-61.95 20.39,-92.93 -24.36,-13.81 -48.71,-27.63 -73.07,-41.44 6.61,-118.55 13.54,-237.08 19.94,-355.633 -1.14,-36.105 -60.56,-41.837 -71.04,-8.321 -4.06,23.169 -0.64,47.078 -1.27,70.574 1.3,99 2.59,198 3.89,297 -22.75,11.77 -45.5,23.53 -68.25,35.3 5.68,31.05 11.37,62.09 17.05,93.14 9.86,0.15 19.71,0.31 29.57,0.46 z" fill="#ac3b98" stroke="#ac3b98" stroke-linejoin="round" stroke-linecap="round" stroke-width="0"/>
 <path d="m 364.74,119.76 -2.71,-1.78 C 344.62,83.1 251.69,58.52 234.17,102.11 c -1.49,8.1 -10.59,16.05 -19.94,17.39 l -0.25,146.85 c 8.22,0 17.26,9.26 17.43,17.49 l 4.52,237.92 c 0.41,21.69 -17.31,21.99 -26.75,22.07 l -43.55,-0.1 c -9.5,0 -28.46,-6.26 -27.9,-24.66 l 6.54,-235.31 c 0.22,-8.19 9.23,-17.23 17.4,-17.34 0,0 0,-0.1 0.1,-0.1 l 0.2,-147.38 c -14.8,-0.79 -22.74,-7.54 -27.79,-16.43 -9.76,-17.163 -30.45,-11.537 -48.128,-9.987 l 0.05,7.22 C 85.975,110.64 76.287,119.3 64.215,119.28 52.142,119.26 42.45,110.55 42.467,99.777 l 0.04,-48.14 C 42.585,40.807 52.273,32.152 64.345,32.23 75.264,32.217 83.863,39.42 85.447,48.831 120.48,46.872 114.61,35.412 160.51,33.144 L 243,32.38 c 58.2,0.65 96.28,38.906 121.74,87.38 z" id="use4686" inkscape:connector-curvature="0" fill="#ac3b98" stroke-linejoin="round" stroke-linecap="round" stroke-width="10.608"/>
</svg>
