<?xml version="1.0" encoding="UTF-8" standalone="no"?>
<svg xmlns="http://www.w3.org/2000/svg" xmlns:sodipodi="http://sodipodi.sourceforge.net/DTD/sodipodi-0.dtd" xmlns:inkscape="http://www.inkscape.org/namespaces/inkscape" height="580" width="580" version="1.0">
 <metadata id="metadata2975"/>
 <path id="path8076" d="m 298.7,31.9 227.65,261.73 0,120.35 L 292.17,552.45 58,287.82 58.725,162.4 Z" opacity="0.8" fill="none" fill-rule="evenodd" stroke="#ffffff" stroke-linejoin="round" stroke-linecap="round" stroke-width="40"/>
 <path id="path3774" d="m 69.188,176.65 c 76.552,86.61 153.092,173.21 229.642,259.82 0.49,32.14 0.99,64.28 1.48,96.42" fill="none" stroke="#eacdea" stroke-linejoin="round" stroke-linecap="round" stroke-width="18.4"/>
 <path id="path3766" d="m 515.51,309.14 c -68.75,40.28 -137.5,80.57 -206.25,120.85 17.02,-2.54 30.18,-16.26 45.67,-23.65 53.42,-31.31 106.84,-62.62 160.26,-93.93 0.11,-1.09 0.21,-2.18 0.32,-3.27 z" fill="#eacdea" fill-rule="evenodd" stroke="#eacdea" stroke-linejoin="round" stroke-linecap="round" stroke-width="16.477"/>
 <path id="path3470" d="M 73.931,159.89 C 150.1,246.38 226.27,332.87 302.43,419.37 375.37,377.42 448.31,335.46 521.25,293.5 447.02,207.65 372.79,121.8 298.56,35.955 223.68,77.263 148.81,118.58 73.931,159.89 Z" fill="#ac3b98" fill-rule="evenodd" stroke="#ac3b98" stroke-linejoin="round" stroke-linecap="round" stroke-width="10"/>
 <path id="path3768" d="m 515.51,349.14 c -68.75,40.28 -137.5,80.57 -206.25,120.85 17.02,-2.54 30.18,-16.26 45.67,-23.65 53.42,-31.31 106.84,-62.62 160.26,-93.93 0.11,-1.09 0.21,-2.18 0.32,-3.27 z" fill="#ffffff" fill-rule="evenodd" stroke="#eacdea" stroke-linejoin="round" stroke-linecap="round" stroke-width="16.477"/>
 <path id="path3474" d="m 61.653,188.6 c 74.877,85.2 149.757,170.41 224.627,255.61 0.32,32.28 0.65,64.55 0.97,96.83 C 211.73,455.67 136.21,370.3 60.685,284.94 c 0.323,-32.11 0.646,-64.23 0.968,-96.34 z" fill="#ac3b98" fill-rule="evenodd" stroke="#ac3b98" stroke-linejoin="round" stroke-linecap="round" stroke-width="10"/>
 <path id="path3476" d="m 519.51,327.14 c -68.75,40.28 -137.5,80.57 -206.25,120.85 22.67,-5.5 39.97,-22.97 60.92,-32.6 48.33,-28.33 96.67,-56.65 145.01,-84.98 0.11,-1.09 0.21,-2.18 0.32,-3.27 z" fill="#c182b7" fill-rule="evenodd" stroke="#c182b7" stroke-linejoin="round" stroke-linecap="round" stroke-width="16.477"/>
 <path id="path3770" d="m 515.51,389.14 c -68.75,40.28 -137.5,80.57 -206.25,120.85 17.02,-2.54 30.18,-16.26 45.67,-23.65 53.42,-31.31 106.84,-62.62 160.26,-93.93 0.11,-1.09 0.21,-2.18 0.32,-3.27 z" fill="#ffffff" fill-rule="evenodd" stroke="#eacdea" stroke-linejoin="round" stroke-linecap="round" stroke-width="16.477"/>
 <path id="path3505" d="m 519.51,367.14 c -68.75,40.28 -137.5,80.57 -206.25,120.85 22.67,-5.5 39.97,-22.97 60.92,-32.6 48.33,-28.33 96.67,-56.65 145.01,-84.98 0.11,-1.09 0.21,-2.18 0.32,-3.27 z" fill="#ffffff" fill-rule="evenodd" stroke="#c182b7" stroke-linejoin="round" stroke-linecap="round" stroke-width="16.477"/>
 <path id="path3507" d="m 519.51,407.14 c -68.75,40.28 -137.5,80.57 -206.25,120.85 22.67,-5.5 39.97,-22.97 60.92,-32.6 48.33,-28.33 96.67,-56.65 145.01,-84.98 0.11,-1.09 0.21,-2.18 0.32,-3.27 z" fill="none" fill-rule="evenodd" stroke="#c182b7" stroke-linejoin="round" stroke-linecap="round" stroke-width="16.477"/>
 <path d="M 300.15,31.175 Z" id="path8078" inkscape:connector-curvature="0" fill="none" fill-rule="evenodd" stroke="#000000"/>
</svg>
