<?xml version="1.0" encoding="UTF-8" standalone="no"?>
<svg xmlns="http://www.w3.org/2000/svg" xmlns:sodipodi="http://sodipodi.sourceforge.net/DTD/sodipodi-0.dtd" xmlns:inkscape="http://www.inkscape.org/namespaces/inkscape" height="580" width="580" version="1.0">
 <metadata id="metadata10"/>
 <path id="path8072" d="m 437.02,86.22 1.05,57.78 c 12.66,5.8 25.31,11.6 37.97,17.4 11.74,-5.69 23.49,-11.39 35.23,-17.08 -0.56,-19.6 -1.11,-39.19 -1.67,-58.79 7.42,0.708 17.85,-2.463 23.48,0.537 5.21,23.993 10.41,47.983 15.62,71.973 -19,10.89 -37.99,21.78 -56.99,32.67 5.16,93.46 10.57,186.92 15.57,280.39 -0.82,30.04 -51.22,32.6 -56.28,3.55 -1.42,-36.17 0.62,-72.54 0.58,-108.79 0.78,-59.33 1.55,-118.67 2.33,-178.01 -17.75,-9.28 -35.49,-18.56 -53.24,-27.84 4.43,-24.47 8.86,-48.95 13.29,-73.419 7.69,-0.124 15.37,-0.247 23.06,-0.371 z" opacity="0.8" fill="none" stroke="#ffffff" stroke-linejoin="round" stroke-linecap="round" stroke-width="47.706"/>
 <path id="path8069" d="m 136.4,140.99 c -22.53,-1.69 -40.681,16 -45.798,36.79 -9.531,25.12 -19.061,50.25 -28.592,75.37 -24.593,4.51 -37.427,31.03 -34.566,54.27 0,32 0,64 0,96 10.203,0 20.407,0 30.61,0 1.521,18.32 -4.522,39.02 7.05,54.93 15.292,19.39 50.416,7.51 50.286,-17.49 0.35,-12.47 0.1,-24.96 0.16,-37.44 68.95,0 137.91,0 206.86,0 1.52,18.28 -4.53,38.93 7.05,54.79 14.2,18.12 47.32,9.58 49.8,-13.78 1.3,-13.61 0.37,-27.35 0.65,-41.01 10.2,0 20.41,0 30.61,0 -0.16,-36.85 0.33,-73.71 -0.25,-110.55 1.41,-24.79 -25.26,-32.79 -36.69,-46 -11.25,-28.31 -20.78,-57.39 -33.2,-85.18 -10.89,-20.78 -35.76,-21.62 -56.31,-20.7 -49.21,0 -98.57,0 -147.67,0 z m -0.37,30.18 c 56.5,0.22 113.05,-0.45 169.53,0.34 15.34,4.44 15.35,23.45 21.49,35.74 5.45,15.01 10.91,30.03 16.36,45.04 -82.95,0 -165.9,0 -248.845,0 9.465,-24.68 17.155,-50.16 27.895,-74.26 2.94,-4.52 8.24,-6.98 13.57,-6.86 z M 87.726,284.02 c 28.604,-0.89 36.614,43.46 10.334,53.69 -23.816,11.58 -47.491,-20.98 -32.353,-41.38 4.675,-7.45 13.186,-12.39 22.019,-12.31 z m 262.544,0 c 28.61,-0.9 36.62,43.46 10.34,53.69 -23.82,11.58 -47.54,-20.97 -32.38,-41.38 4.69,-7.45 13.2,-12.39 22.04,-12.31 z" opacity="0.8" fill="none" stroke="#ffffff" stroke-linejoin="round" stroke-linecap="round" stroke-width="40"/>
 <path id="path2301" d="m 136.4,140.99 c -22.53,-1.69 -40.681,16 -45.798,36.79 -9.531,25.12 -19.061,50.25 -28.592,75.37 -24.593,4.51 -37.427,31.03 -34.566,54.27 0,32 0,64 0,96 10.203,0 20.407,0 30.61,0 1.521,18.32 -4.522,39.02 7.05,54.93 15.292,19.39 50.416,7.51 50.286,-17.49 0.35,-12.47 0.1,-24.96 0.16,-37.44 68.95,0 137.91,0 206.86,0 1.52,18.28 -4.53,38.93 7.05,54.79 14.2,18.12 47.32,9.58 49.8,-13.78 1.3,-13.61 0.37,-27.35 0.65,-41.01 10.2,0 20.41,0 30.61,0 -0.16,-36.85 0.33,-73.71 -0.25,-110.55 1.41,-24.79 -25.26,-32.79 -36.69,-46 -11.25,-28.31 -20.78,-57.39 -33.2,-85.18 -10.89,-20.78 -35.76,-21.62 -56.31,-20.7 -49.21,0 -98.57,0 -147.67,0 z m -0.37,30.18 c 56.5,0.22 113.05,-0.45 169.53,0.34 15.34,4.44 15.35,23.45 21.49,35.74 5.45,15.01 10.91,30.03 16.36,45.04 -82.95,0 -165.9,0 -248.845,0 9.465,-24.68 17.155,-50.16 27.895,-74.26 2.94,-4.52 8.24,-6.98 13.57,-6.86 z M 87.726,284.02 c 28.604,-0.89 36.614,43.46 10.334,53.69 -23.816,11.58 -47.491,-20.98 -32.353,-41.38 4.675,-7.45 13.186,-12.39 22.019,-12.31 z m 262.544,0 c 28.61,-0.9 36.62,43.46 10.34,53.69 -23.82,11.58 -47.54,-20.97 -32.38,-41.38 4.69,-7.45 13.2,-12.39 22.04,-12.31 z" fill="#ac39ac"/>
 <path id="path4657" d="m 437.02,86.22 1.05,57.78 c 12.66,5.8 25.31,11.6 37.97,17.4 11.74,-5.69 23.49,-11.39 35.23,-17.08 -0.56,-19.6 -1.11,-39.19 -1.67,-58.79 7.42,0.708 17.85,-2.463 23.48,0.537 5.21,23.993 10.41,47.983 15.62,71.973 -19,10.89 -37.99,21.78 -56.99,32.67 5.16,93.46 10.57,186.92 15.57,280.39 -0.82,30.04 -51.22,32.6 -56.28,3.55 -1.42,-36.17 0.62,-72.54 0.58,-108.79 0.78,-59.33 1.55,-118.67 2.33,-178.01 -17.75,-9.28 -35.49,-18.56 -53.24,-27.84 4.43,-24.47 8.86,-48.95 13.29,-73.419 7.69,-0.124 15.37,-0.247 23.06,-0.371 z" fill="#ac39ac" stroke="#ac39ac" stroke-linejoin="round" stroke-linecap="round" stroke-width="7.706"/>
</svg>
