<?xml version="1.0" encoding="UTF-8" standalone="no"?>
<svg xmlns="http://www.w3.org/2000/svg" xmlns:sodipodi="http://sodipodi.sourceforge.net/DTD/sodipodi-0.dtd" xmlns:inkscape="http://www.inkscape.org/namespaces/inkscape" height="580" width="580" version="1.0">
 <metadata id="metadata2975"/>
 <path id="path8071" d="m 125.89,28.039 c -4.76,0.02 -9.52,0.215 -14.26,0.549 10.24,44.384 39.14,92.442 87.75,100.342 18.6,2.31 56.32,5.53 41.07,-22.9 -9.72,-41.977 -48.38,-72.913 -90.82,-76.557 -7.87,-1.038 -15.8,-1.471 -23.74,-1.434 z m 150.4,20.748 c -8.35,0.113 -13.27,4.709 -7.26,17.488 12.07,51.625 11.36,105.225 13.14,157.955 9.79,-52.91 19.58,-105.82 29.37,-158.736 -3.5,-7.456 -23.05,-16.871 -35.25,-16.707 z M 454.06,69.74 c -9.64,0.02 -19.26,0.768 -28.77,2.438 -49.01,6.67 -88.44,47.682 -97.6,95.552 6.61,16.14 41.95,12.99 59.75,11.81 53.22,-9.03 87.63,-58.63 103.61,-106.688 -12.21,-1.964 -24.61,-3.138 -36.99,-3.112 z M 203.35,215.21 c -46.02,0.25 -91.38,29 -108.594,72.53 -14.984,33.14 -8.72,69.05 1.529,102.47 16.295,50.08 44.225,95.89 76.025,137.55 24.78,31.97 76.97,35.31 105.09,5.9 7.89,-17.84 13.51,-0.99 22.75,5.47 30.27,24.99 78.74,17.06 101.27,-14.39 34.51,-46.74 65.63,-98.06 79.12,-155.17 12.8,-44.02 -0.22,-95.22 -35.86,-125.29 -43.78,-40.06 -118.02,-37.94 -159.09,5.04 -14.03,-13.9 -31.58,-24.24 -50.61,-29.56 -10.35,-3.15 -21.01,-4.61 -31.63,-4.55 z" opacity="0.8" fill="none" stroke="#ffffff" stroke-linejoin="round" stroke-linecap="round" stroke-width="42"/>
 <path id="path6571" d="m 491.05,72.852 c -15.98,48.058 -50.39,97.658 -103.61,106.688 -17.8,1.18 -53.14,4.33 -59.75,-11.81 9.16,-47.87 48.59,-88.882 97.6,-95.552 21.74,-3.817 44.06,-2.816 65.76,0.674 z" fill="#ac3b98" stroke="#ac3b98" stroke-width="1.109"/>
 <path id="path6573" d="m 285.59,249.32 c 41.07,-42.98 115.31,-45.1 159.09,-5.04 35.64,30.07 48.66,81.27 35.86,125.29 -13.49,57.11 -44.61,108.43 -79.12,155.17 -22.53,31.45 -71,39.38 -101.27,14.39 -9.24,-6.46 -14.86,-23.31 -22.75,-5.47 -28.12,29.41 -80.31,26.07 -105.09,-5.9 C 140.51,486.1 112.58,440.29 96.285,390.21 86.036,356.79 79.772,320.88 94.756,287.74 115.94,234.16 179.76,202.98 234.98,219.76 c 19.03,5.32 36.58,15.66 50.61,29.56 z" fill="#ac3b98" stroke="#ac3b98" stroke-width="1.109"/>
 <path id="path10957" d="m 111.63,28.587 c 10.24,44.384 39.14,92.443 87.75,100.343 18.6,2.31 56.32,5.53 41.07,-22.9 -9.72,-41.976 -48.38,-72.913 -90.82,-76.557 -12.59,-1.66 -25.35,-1.776 -38,-0.886 z" fill="#ac3b98" stroke="#ac3b98" stroke-width="1.109"/>
 <path id="path10959" d="M 282.17,224.23 C 280.39,171.5 281.1,117.9 269.03,66.276 254.24,34.82 305.64,52.937 311.54,65.495 301.75,118.41 291.96,171.32 282.17,224.23 Z" fill="#ac3b98" stroke="#ac3b98" stroke-width="5.362"/>
</svg>
