<?xml version="1.0" encoding="UTF-8" standalone="no"?>
<svg xmlns="http://www.w3.org/2000/svg" xmlns:sodipodi="http://sodipodi.sourceforge.net/DTD/sodipodi-0.dtd" xmlns:inkscape="http://www.inkscape.org/namespaces/inkscape" height="580" width="580" version="1.0">
 <metadata id="metadata10"/>
 <path id="path8074" d="m 343.64,379.52 c 11.84,35.33 36.2,64.23 57.04,93.13 20.49,25.69 39.21,54.59 66.19,77.07 22.35,0 46.02,-19.27 55.78,-41.75 1.6,-22.47 -15.7,-41.74 -23.8,-61.01 C 475.35,405.21 453.19,360.25 419.79,324.93 400.59,305.66 387.2,279.97 371.88,257.49 330.84,186.84 309.54,109.77 289.33,32.702 216.1,58.392 146.11,90.505 79.775,129.04 69.675,145.1 92.91,174 97.258,193.27 c 30.802,73.86 76.192,141.29 124.072,205.52 13.9,9.63 26.14,48.17 44.33,32.11 25.99,-16.05 51.99,-35.32 77.98,-51.38 z" opacity="0.8" fill="none" fill-rule="evenodd" stroke="#ffffff" stroke-linejoin="round" stroke-linecap="round" stroke-width="40"/>
 <path id="path4038" d="m 343.64,378.65 c 11.84,35.25 36.2,64.75 57.04,95.1 20.48,25.97 39.22,54.75 66.2,74.42 22.34,0.32 45.99,-19.25 55.78,-39.25 1.48,-22.57 -15.73,-41.37 -23.81,-61.53 C 475.34,404.52 453.2,359.7 419.79,323.49 400.59,303.95 387.19,278.78 371.88,255.95 330.84,187.74 309.54,110.16 289.33,33.83 216.1,57.367 146.11,90.28 79.776,129.08 c -10.101,15.73 13.133,44.22 17.483,64.29 30.801,73.95 76.181,140.73 124.071,204.52 13.9,9.03 26.14,49.2 44.33,33.7 25.99,-17.65 51.98,-35.29 77.98,-52.94 z" fill="#d28dc6" fill-rule="evenodd"/>
 <path inkscape:connector-curvature="0" d="M 259.6,408.42 C 193.42,328.14 140.22,238.23 100.93,141.89 c 48.82,-28.91 101.6,-51.385 154.33,-70.653 29.03,-19.267 21.32,25.691 30.79,44.963 18.43,70.64 51.99,138.08 95.98,199.1 -38.88,32.11 -81.06,64.22 -122.43,93.12 z m 84.04,-28.9 c 11.84,35.33 36.2,64.23 57.04,93.13 20.49,25.69 39.21,54.59 66.19,77.07 22.35,0 46.02,-19.27 55.78,-41.75 1.6,-22.47 -15.7,-41.74 -23.8,-61.01 C 475.35,405.21 453.19,360.25 419.79,324.93 400.59,305.66 387.2,279.97 371.88,257.49 330.84,186.84 309.54,109.77 289.33,32.702 216.1,58.392 146.11,90.505 79.775,129.04 69.675,145.1 92.91,174 97.258,193.27 c 30.802,73.86 76.192,141.29 124.072,205.52 13.9,9.63 26.14,48.17 44.33,32.11 25.99,-16.05 51.99,-35.32 77.98,-51.38 z M 213.24,138.67 c 0.32,-41.742 70.23,-19.26 46.54,12.85 -12.74,19.27 -46.95,12.85 -46.54,-12.85 z" id="path3670" fill="#ac3b98" fill-rule="evenodd" stroke-width="0.311"/>
 <path inkscape:connector-curvature="0" d="M 259.6,408.42 C 193.42,328.14 140.22,238.23 100.93,141.89 c 48.82,-28.91 101.6,-51.385 154.33,-70.653 29.03,-19.267 21.32,25.691 30.79,44.963 18.43,70.64 51.99,138.08 95.98,199.1 -38.88,32.11 -81.06,64.22 -122.43,93.12 z m 84.04,-28.9 c 11.84,35.33 36.2,64.23 57.04,93.13 20.49,25.69 39.21,54.59 66.19,77.07 22.35,0 46.02,-19.27 55.78,-41.75 1.6,-22.47 -15.7,-41.74 -23.8,-61.01 C 475.35,405.21 453.19,360.25 419.79,324.93 400.59,305.66 387.2,279.97 371.88,257.49 330.84,186.84 309.54,109.77 289.33,32.702 216.1,58.392 146.11,90.505 79.775,129.04 69.675,145.1 92.91,174 97.258,193.27 c 30.802,73.86 76.192,141.29 124.072,205.52 13.9,9.63 26.14,48.17 44.33,32.11 25.99,-16.05 51.99,-35.32 77.98,-51.38 z M 213.24,138.67 c 0.32,-41.742 70.23,-19.26 46.54,12.85 -12.74,19.27 -46.95,12.85 -46.54,-12.85 z" id="path4008" fill="#ac3b98" fill-rule="evenodd" stroke-width="0.311"/>
 <path id="path3009" d="m 265.77,139.87 c 0.51,25.44 -37.31,34.67 -50.33,13.75 -13.91,-18.49 7.33,-44.46 28.43,-38.69 11.9,2.02 22.06,12.58 21.9,24.94 z" fill="#eacdea" stroke="#d28dc6" stroke-linejoin="round" stroke-width="1.2"/>
</svg>
