<?xml version="1.0" encoding="UTF-8" standalone="no"?>
<svg xmlns="http://www.w3.org/2000/svg" xmlns:sodipodi="http://sodipodi.sourceforge.net/DTD/sodipodi-0.dtd" xmlns:inkscape="http://www.inkscape.org/namespaces/inkscape" version="1.1" height="580" width="580">
 <metadata id="metadata2821"/>
 <path id="path8122" d="m 184.5,476.59 c 0.16,36.93 -49.15,55 -76.07,31.68 -23.82,-15.86 -20.315,-54.94 3.09,-67.77 28.36,-17.51 71.95,0 71.2,35.95 z m 0.26,-118.52 c 0.15,37.27 -49.1,55.01 -76.37,32.65 -23.237,-16.42 -20.077,-55.57 3.61,-68.34 28.01,-17.22 71.55,0.24 71.03,35.56 z m 8.66,19.26 c 99.82,26.47 199.16,54.26 298.5,80.96 m -301.5,10.69 C 290.01,418.02 389.16,366.18 489.29,314.7" opacity="0.8" fill="none" stroke="#ffffff" stroke-linejoin="round" stroke-linecap="round" color="#000000" stroke-width="75"/>
 <path id="path8094" d="m 517.6,54.203 c -4.31,-1.319 -10.97,0.452 -13.89,-0.736 l 0,0 0,0 -0.19,116.793 -51.98,-0 0.1,-109.579 c 3.6,-11.904 -13.56,-4.078 -20.18,-6.058 l 0,0 0,0 -0.17,115.627 -54.88,-0 0,-108.081 c 3.48,-11.616 -13.57,-4.078 -20.53,-6.178 l 0,0 -0.1,114.189 -54.87,-0.1 0.14,-108.418 c 3.48,-11.558 -13.62,-4.079 -20.24,-6.06 l 0,0 -0.44,114.128 -51.99,-0 0.42,-106.912 c 3.48,-11.616 -13.28,-4.019 -20.24,-6.117 l 0,0 -0.13,112.059 -51.7,-0 0.44,-104.674 c 3.72,-12.307 -13.91,-4.199 -20.87,-6.297 l 0,0 -0,110.611 -48.879,0.1 1.2,-104.948 C 92.309,51.244 74.33,59.174 68.062,57.314 l 0,0 -0.111,110.616 -11.258,0.45 c -20.475,4.32 -20.255,45.58 -0.573,50.14 l 478.34,1.43 c 23.21,-1.36 23.65,-44.91 5.02,-50.21 l -10.28,0.52 0.7,-111.531 c 1.62,-5.29 -3.45,-6.445 -6.55,-6.999 z" inkscape:connector-curvature="0" opacity="0.8" fill="none" stroke="#ffffff" stroke-linejoin="round" fill-opacity="0.986" stroke-linecap="round" color="#000000" stroke-width="40"/>
 <path inkscape:connector-curvature="0" d="m 51.926,171.56 c 160.464,0.33 320.594,0.48 481.284,1.23 20.53,6.18 19.81,49.39 -4.96,49.86 -159.65,-0.45 -319.03,-0.77 -478.396,-1.09 -19.552,-5.88 -19.382,-45.98 -0,-50.26 z" id="rect2826" opacity="0.939" fill="#ac3b98" fill-opacity="0.986" color="#000000"/>
 <path inkscape:connector-curvature="0" d="m 207.74,124.93 c 3.87,19.6 0.28,40.91 0.12,60.75 -3.3,-4.59 1.4,-16.59 -1.12,-23.83 0.14,-12.58 -0.98,-25.59 -0.44,-37 z" id="rect2833" opacity="0.939" fill="#ac3b98" fill-opacity="0.986" color="#000000"/>
 <path inkscape:connector-curvature="0" d="m 279.08,57.477 c 6.57,5.614 22.62,-5.512 20.53,6.178 0.12,40.105 -0.34,80.485 -0.45,120.245 -5.35,-1.56 -22.22,5.29 -20.59,-6.18 -0.18,-40.16 -0.1,-81.358 0.12,-121.46 l 0,0 z" id="rect2845" opacity="0.939" fill="#ac3b98" fill-opacity="0.986" color="#000000"/>
 <path inkscape:connector-curvature="0" d="m 354.96,57.594 c 6.63,5.558 22.45,-4.821 20.24,6.059 0.13,39.757 0,80.267 -0.16,120.367 -5.3,-1.56 -21.75,5 -20.54,-6.18 -0.11,-40.51 -0.1,-81.36 0.19,-121.807 l 0,0 z" id="rect2847" opacity="0.939" fill="#ac3b98" fill-opacity="0.986" color="#000000"/>
 <path inkscape:connector-curvature="0" d="m 430.91,56.27 c 6.33,1.861 22.85,-5.047 20.59,6.179 -0.46,40.101 -0.22,79.861 -0.39,119.961 -5.64,-1.74 -21.76,5 -20.88,-6.3 -0.11,-40.1 0.18,-80.954 0.53,-121.746 l 0,0 z" id="rect2853" opacity="0.939" fill="#ac3b98" fill-opacity="0.986" color="#000000"/>
 <path inkscape:connector-curvature="0" d="m 206.36,58.664 c 6.63,5.616 22.51,-5.108 20.53,6.237 0.12,40.039 -0,80.619 -0.11,120.369 -5.63,-1.74 -22.22,5.22 -20.87,-6.3 -0.11,-40.57 0.29,-81.3 0.12,-121.463 l 0,0 z" id="rect2857" opacity="0.939" fill="#ac3b98" fill-opacity="0.986" color="#000000"/>
 <path inkscape:connector-curvature="0" d="m 133.92,60.317 c 5.94,5.435 22.28,-5.573 20.19,6.116 0.12,39.757 -0.22,79.857 -0.34,119.957 -5.29,-1.62 -21.87,5.35 -20.87,-6.3 -0.12,-40.1 0.35,-80.828 0.53,-121.682 l 0,0 z" id="rect2861" opacity="0.939" fill="#ac3b98" fill-opacity="0.986" color="#000000"/>
 <path inkscape:connector-curvature="0" d="m 64.224,59.924 c 6.283,5.554 22.85,-5.047 20.586,6.237 0.119,40.049 -0.339,80.149 -0.51,120.249 -5.635,-1.69 -21.754,5 -20.873,-6.3 0.462,-40.45 0.294,-81.303 0.525,-121.689 l 0,0 z" id="rect2865" opacity="0.939" fill="#ac3b98" fill-opacity="0.986" color="#000000"/>
 <path inkscape:connector-curvature="0" d="m 503.69,54.679 c 6.34,5.554 22.56,-5.109 20.24,6.117 0.13,40.104 0,80.264 -0.16,120.364 -5.63,-1.68 -22.16,5.23 -20.87,-6.3 0.46,-40.44 -0,-81.357 0.23,-121.804 l 0,0 z" id="rect2867" opacity="0.939" fill="#ac3b98" fill-opacity="0.986" color="#000000"/>
 <path inkscape:connector-curvature="0" d="M 190.42,468.98 C 290.01,418.02 389.16,366.18 489.29,314.7" id="path2877" fill="#ac3b98" stroke="#ac3b98" stroke-width="35.866"/>
 <path inkscape:connector-curvature="0" d="m 193.42,377.33 c 99.82,26.47 199.16,54.26 298.5,80.96" id="path2881" fill="#ab374f" stroke="#ac3b98" stroke-width="35.866"/>
 <path inkscape:connector-curvature="0" d="m 184.76,358.07 c 0.15,37.27 -49.1,55.01 -76.37,32.65 -23.237,-16.42 -20.077,-55.57 3.61,-68.34 28.01,-17.22 71.55,0.24 71.03,35.56 z" id="path3685" opacity="0.939" fill="none" stroke="#ac3b98" color="#000000" stroke-width="30.465"/>
 <path inkscape:connector-curvature="0" d="m 184.5,476.59 c 0.16,36.93 -49.15,55 -76.07,31.68 -23.82,-15.86 -20.315,-54.94 3.09,-67.77 28.36,-17.51 71.95,-0 71.2,35.95 z" id="path3689" opacity="0.939" fill="none" stroke="#ac3b98" color="#000000" stroke-width="30.465"/>
</svg>
