<?xml version="1.0" encoding="UTF-8" standalone="no"?>
<svg xmlns="http://www.w3.org/2000/svg" xmlns:sodipodi="http://sodipodi.sourceforge.net/DTD/sodipodi-0.dtd" xmlns:inkscape="http://www.inkscape.org/namespaces/inkscape" height="580" width="580" version="1.0">
 <metadata id="metadata2975"/>
 <path id="path8077" d="m 82.438,65.406 c 0,151.654 0,303.314 0,454.974 137.262,0 274.522,0 411.782,0 0,-151.66 0,-303.32 0,-454.974 -137.26,0 -274.52,0 -411.782,0 z M 286,198.09 c 55.35,-1.56 104.29,50.04 99.9,105.21 -1.27,55.35 -55.28,101.52 -110.12,94.37 -55.22,-4.09 -98.56,-60.35 -88.69,-114.74 6.58,-47.73 50.69,-85.65 98.91,-84.84 z" opacity="0.8" fill="none" stroke="#ffffff" stroke-width="61"/>
 <path id="path7103" d="m 386.02,298.15 c 2.47,64.87 -68.4,117.01 -129.59,95.57 -62.67,-16.83 -91.65,-99.92 -53.01,-152.07 34.6,-54.9 122.54,-58.02 160.94,-5.69 13.95,17.5 21.73,39.8 21.66,62.19 z" fill="#eacdea" stroke-linejoin="round" stroke-linecap="round" stroke-width="20"/>
 <path id="path7099-7" d="m 82.438,65.406 c -0,151.654 0,303.314 0,454.974 137.262,0 274.522,0 411.782,0 0,-151.66 0,-303.32 0,-454.974 -137.26,0 -274.52,0 -411.782,0 z M 286,198.09 c 55.35,-1.56 104.29,50.04 99.9,105.21 -1.27,55.35 -55.28,101.52 -110.12,94.37 -55.22,-4.09 -98.56,-60.35 -88.69,-114.74 6.58,-47.73 50.69,-85.65 98.91,-84.84 z" fill="#ffffff" stroke="#ac39ac" stroke-linejoin="round" stroke-linecap="round" stroke-width="20.955"/>
 <path id="path7099" d="m 82.438,65.406 c -0,151.654 0,303.314 0,454.974 137.262,0 274.522,0 411.782,0 0,-151.66 0,-303.32 0,-454.974 -137.26,0 -274.52,0 -411.782,0 z M 286,198.09 c 55.35,-1.56 104.29,50.04 99.9,105.21 -1.27,55.35 -55.28,101.52 -110.12,94.37 -55.22,-4.09 -98.56,-60.35 -88.69,-114.74 6.58,-47.73 50.69,-85.65 98.91,-84.84 z" opacity="0.1" fill="#ac39ac" stroke="#ac39ac" stroke-linejoin="round" stroke-linecap="round" stroke-width="20.955"/>
 <path id="rect7039" d="m 82.438,65.406 c -0,151.654 0,303.314 0,454.974 137.262,0 274.522,0 411.782,0 0,-151.66 0,-303.32 0,-454.974 -137.26,0 -274.52,0 -411.782,0 z M 286,198.09 c 55.35,-1.56 104.29,50.04 99.9,105.21 -1.27,55.35 -55.28,101.52 -110.12,94.37 -55.22,-4.09 -98.56,-60.35 -88.69,-114.74 6.58,-47.73 50.69,-85.65 98.91,-84.84 z" fill="#c182b7" stroke="#ac39ac" stroke-linejoin="round" stroke-linecap="round" stroke-width="20.955"/>
 <path id="path7043" d="m 386.03,298.16 c 2.46,64.88 -68.41,117.02 -129.6,95.57 -62.67,-16.83 -91.65,-99.92 -53.01,-152.06 34.6,-54.91 122.54,-58.02 160.93,-5.7 13.97,17.51 21.74,39.8 21.68,62.19 z" fill="none" stroke="#ac39ac" stroke-linejoin="round" stroke-linecap="round" stroke-width="20.956"/>
 <path id="path7045" d="m 190.33,248.17 c 0,34.84 0,69.68 0,104.52" fill="none" fill-rule="evenodd" stroke="#ac39ac" stroke-linecap="round" stroke-width="19.557"/>
 <path id="path7047" d="m 378.2,300.43 c -6.95,0 -13.89,0 -20.84,0" fill="none" fill-rule="evenodd" stroke="#ac39ac" stroke-linejoin="round" stroke-linecap="round" stroke-width="41.703"/>
 <path id="path7049" d="m 392.73,118.07 c 0.6,10.95 -17.09,12.47 -18.37,1.56 -2.51,-11.08 15.56,-15.15 18.04,-4.04 0.22,0.8 0.33,1.64 0.33,2.48 z" fill="#ac39ac" stroke="#ac39ac" stroke-linejoin="round" stroke-linecap="round" stroke-width="21.326"/>
 <path id="path7051" d="m 450.01,118.07 c 0.59,10.95 -17.1,12.47 -18.38,1.56 -2.5,-11.08 15.57,-15.15 18.04,-4.04 0.23,0.8 0.34,1.64 0.34,2.48 z" fill="#ac39ac" stroke="#ac39ac" stroke-linejoin="round" stroke-linecap="round" stroke-width="21.326"/>
 <path id="path7053" d="m 335.45,118.07 c 0.6,10.95 -17.09,12.47 -18.37,1.56 -2.51,-11.08 15.57,-15.15 18.04,-4.04 0.22,0.8 0.33,1.64 0.33,2.48 z" fill="#ac39ac" stroke="#ac39ac" stroke-linejoin="round" stroke-linecap="round" stroke-width="21.326"/>
</svg>
