<?xml version="1.0" encoding="UTF-8" standalone="no"?>
<svg
   xmlns:dc="http://purl.org/dc/elements/1.1/"
   xmlns:cc="http://creativecommons.org/ns#"
   xmlns:rdf="http://www.w3.org/1999/02/22-rdf-syntax-ns#"
   xmlns:svg="http://www.w3.org/2000/svg"
   xmlns="http://www.w3.org/2000/svg"
   xmlns:sodipodi="http://sodipodi.sourceforge.net/DTD/sodipodi-0.dtd"
   xmlns:inkscape="http://www.inkscape.org/namespaces/inkscape"
   viewBox="0 0 580 580"
   height="580"
   width="580"
   version="1.0"
   id="svg2912"
   sodipodi:docname="spring.svg"
   inkscape:version="0.92.4 (5da689c313, 2019-01-14)">
  <defs
     id="defs2916" />
  <sodipodi:namedview
     pagecolor="#ffffff"
     bordercolor="#666666"
     borderopacity="1"
     objecttolerance="10"
     gridtolerance="10"
     guidetolerance="10"
     inkscape:pageopacity="0"
     inkscape:pageshadow="2"
     inkscape:window-width="1920"
     inkscape:window-height="1017"
     id="namedview2914"
     showgrid="false"
     inkscape:zoom="1.1508772"
     inkscape:cx="141.16131"
     inkscape:cy="274.70879"
     inkscape:window-x="-8"
     inkscape:window-y="-8"
     inkscape:window-maximized="1"
     inkscape:current-layer="svg2912" />
  <metadata
     id="metadata13">
    <rdf:RDF>
      <cc:Work
         rdf:about="">
        <dc:format>image/svg+xml</dc:format>
        <dc:type
           rdf:resource="http://purl.org/dc/dcmitype/StillImage" />
        <dc:title />
      </cc:Work>
    </rdf:RDF>
  </metadata>
  <path
     style="opacity:1;fill:#0098e3;fill-opacity:1;stroke:none;stroke-width:10;stroke-linejoin:round;stroke-miterlimit:4;stroke-dasharray:none;stroke-opacity:1;paint-order:markers fill stroke"
     d="m 287.6067,257.63767 a 30.411585,30.411585 0 0 0 -30.41211,30.41211 30.411585,30.411585 0 0 0 30.41211,30.41015 30.411585,30.411585 0 0 0 30.41211,-30.41015 30.411585,30.411585 0 0 0 -30.41211,-30.41211 z m 0,13.25 a 17.160822,17.160822 0 0 1 17.16015,17.16211 17.160822,17.160822 0 0 1 -17.16015,17.16015 17.160822,17.160822 0 0 1 -17.16016,-17.16015 17.160822,17.160822 0 0 1 17.16016,-17.16211 z"
     id="path4824"
     inkscape:connector-curvature="0" />
  <g
     id="g4094"
     transform="matrix(0.40476355,0,0,0.40476355,352.44911,173.01648)"
     style="fill:#0098e3;fill-opacity:1">
    <path
       sodipodi:nodetypes="ccscsccscccscsccccc"
       d="M 101.61434,281.08706 C 77.879322,266.2318 46.789212,250.16294 30.950272,228.88299 c -7.93979,-11.24803 -11.90968,-24.15018 -11.90968,-38.70645 0,-21.8344 7.5428,-39.56658 22.62839,-53.19655 15.21791,-13.62996 34.93504,-20.44494 59.151378,-20.44494 23.1577,0 44.39662,6.48416 63.71676,19.45247 v 45.05827 c -19.98179,-19.18781 -41.48537,-28.78171 -64.51074,-28.78171 -12.968308,0 -23.620848,3.04358 -31.957628,9.13075 -16.46507,14.04242 -15.18459,32.01217 -3.3744,46.44773 18.45076,18.43112 36.697708,27.0163 59.945358,40.69139 33.87641,20.11412 50.81461,45.78609 50.81461,77.0159 0,22.23139 -7.47663,40.2944 -22.42989,54.18902 -14.82093,13.89462 -34.14107,20.84193 -57.960408,20.84193 -27.39225,0 -52.33641,-8.40294 -74.83246,-25.20881 v -50.41763 c 21.43742,27.12759 46.24924,40.69139 74.43547,40.69139 23.195978,-1.20577 43.125308,-13.99642 43.470308,-36.523 0,-16.93821 -12.17433,-32.9501 -36.523,-48.03569 z"
       style="font-style:normal;font-variant:normal;font-weight:normal;font-stretch:normal;font-size:406.51690674px;line-height:1.25;font-family:'Gill Sans MT';-inkscape-font-specification:'Gill Sans MT, Normal';font-variant-ligatures:normal;font-variant-caps:normal;font-variant-numeric:normal;font-feature-settings:normal;text-align:start;letter-spacing:0px;word-spacing:0px;writing-mode:lr-tb;text-anchor:start;opacity:1;fill:#0098e3;fill-opacity:1;stroke:none;stroke-width:10;stroke-linejoin:round;stroke-miterlimit:4;stroke-dasharray:none;stroke-opacity:1;paint-order:markers fill stroke"
       id="path4038"
       inkscape:connector-curvature="0" />
    <path
       sodipodi:nodetypes="scccccscccc"
       inkscape:connector-curvature="0"
       id="path4088"
       d="m 247.48828,213.67188 c -10.93759,-0.0704 -22.69133,0.28987 -35.3125,1.11718 v 275.70899 h 36.91992 v -97.65821 c 74.28638,17.78544 133.29073,-22.41673 132.4375,-89.53515 1.12084,-48.04025 -28.31483,-88.95232 -134.04492,-89.63281 z m 98.01367,93.76562 c -0.4274,60.74513 -65.51576,62.48001 -96.40625,53.44531 V 248.5332 c 74.15833,-2.0465 98.07782,18.82299 96.40625,58.9043 z"
       style="font-style:normal;font-variant:normal;font-weight:normal;font-stretch:normal;font-size:406.51690674px;line-height:1.25;font-family:'Gill Sans MT';-inkscape-font-specification:'Gill Sans MT, Normal';font-variant-ligatures:normal;font-variant-caps:normal;font-variant-numeric:normal;font-feature-settings:normal;text-align:start;letter-spacing:0px;word-spacing:0px;writing-mode:lr-tb;text-anchor:start;opacity:1;fill:#0098e3;fill-opacity:1;stroke:none;stroke-width:10;stroke-linejoin:round;stroke-miterlimit:4;stroke-dasharray:none;stroke-opacity:1;paint-order:markers fill stroke" />
    <path
       sodipodi:nodetypes="ccccccccccc"
       d="m 456.52267,214.78987 v 41.88236 c 14.65974,-30.04956 33.6253,-44.8159 54.38752,-45.45526 13.62996,0 27.8554,6.88114 42.67633,20.64343 l -19.05548,31.75914 c -12.57132,-11.90967 -24.21633,-17.86451 -34.93504,-17.86451 -29.43492,3.34849 -42.8118,31.67643 -43.07333,56.17396 v 95.4759 H 420.19816 V 214.78987 Z"
       style="font-style:normal;font-variant:normal;font-weight:normal;font-stretch:normal;font-size:406.51690674px;line-height:1.25;font-family:'Gill Sans MT';-inkscape-font-specification:'Gill Sans MT, Normal';font-variant-ligatures:normal;font-variant-caps:normal;font-variant-numeric:normal;font-feature-settings:normal;text-align:start;letter-spacing:0px;word-spacing:0px;writing-mode:lr-tb;text-anchor:start;opacity:1;fill:#0098e3;fill-opacity:1;stroke:none;stroke-width:10;stroke-linejoin:round;stroke-miterlimit:4;stroke-dasharray:none;stroke-opacity:1;paint-order:markers fill stroke"
       id="path4042"
       inkscape:connector-curvature="0" />
  </g>
</svg>
