<?xml version="1.0" encoding="UTF-8" standalone="no"?>
<svg
   xmlns:dc="http://purl.org/dc/elements/1.1/"
   xmlns:cc="http://creativecommons.org/ns#"
   xmlns:rdf="http://www.w3.org/1999/02/22-rdf-syntax-ns#"
   xmlns:svg="http://www.w3.org/2000/svg"
   xmlns="http://www.w3.org/2000/svg"
   xmlns:sodipodi="http://sodipodi.sourceforge.net/DTD/sodipodi-0.dtd"
   xmlns:inkscape="http://www.inkscape.org/namespaces/inkscape"
   height="580"
   width="580"
   version="1.0"
   id="svg11"
   sodipodi:docname="stadium.svg"
   inkscape:version="0.92.4 (5da689c313, 2019-01-14)">
  <defs
     id="defs15" />
  <sodipodi:namedview
     pagecolor="#ffffff"
     bordercolor="#666666"
     borderopacity="1"
     objecttolerance="10"
     gridtolerance="10"
     guidetolerance="10"
     inkscape:pageopacity="0"
     inkscape:pageshadow="2"
     inkscape:window-width="1920"
     inkscape:window-height="1017"
     id="namedview13"
     showgrid="false"
     inkscape:zoom="1.1508772"
     inkscape:cx="278.47481"
     inkscape:cy="266.10157"
     inkscape:window-x="-8"
     inkscape:window-y="-8"
     inkscape:window-maximized="1"
     inkscape:current-layer="svg11" />
  <metadata
     id="metadata2975">
    <rdf:RDF>
      <cc:Work
         rdf:about="">
        <dc:format>image/svg+xml</dc:format>
        <dc:type
           rdf:resource="http://purl.org/dc/dcmitype/StillImage" />
        <dc:title></dc:title>
      </cc:Work>
    </rdf:RDF>
  </metadata>
  <path
     style="color:#000000;font-style:normal;font-variant:normal;font-weight:normal;font-stretch:normal;font-size:medium;line-height:normal;font-family:sans-serif;font-variant-ligatures:normal;font-variant-position:normal;font-variant-caps:normal;font-variant-numeric:normal;font-variant-alternates:normal;font-feature-settings:normal;text-indent:0;text-align:start;text-decoration:none;text-decoration-line:none;text-decoration-style:solid;text-decoration-color:#000000;letter-spacing:normal;word-spacing:normal;text-transform:none;writing-mode:lr-tb;direction:ltr;text-orientation:mixed;dominant-baseline:auto;baseline-shift:baseline;text-anchor:start;white-space:normal;shape-padding:0;clip-rule:nonzero;display:inline;overflow:visible;visibility:visible;opacity:0.78;isolation:auto;mix-blend-mode:normal;color-interpolation:sRGB;color-interpolation-filters:linearRGB;solid-color:#000000;solid-opacity:1;vector-effect:none;fill:#0098e3;fill-opacity:0.78431373;fill-rule:nonzero;stroke:none;stroke-width:30.09364319;stroke-linecap:round;stroke-linejoin:round;stroke-miterlimit:4;stroke-dasharray:none;stroke-dashoffset:0;stroke-opacity:1;color-rendering:auto;image-rendering:auto;shape-rendering:auto;text-rendering:auto;enable-background:accumulate"
     d="m 289.97249,106.78721 c -77.4725,0.83975 -156.86386,6.76346 -229.468083,35.83692 -24.168252,10.20654 -53.4599915,29.54614 -52.6904208,58.48631 a 15.048326,15.048326 0 0 0 0.146282,4.4195 C 18.269593,265.81999 32.629171,321.49467 42.671272,380.22196 a 15.048326,15.048326 0 0 0 0.396735,1.74431 c 1.205862,11.14438 18.451159,23.67667 32.618727,30.67273 48.887336,24.78325 103.036216,33.47737 156.991876,37.12688 0.34574,11.52643 3.80354,22.49789 13.83697,22.2903 25.41188,0.71492 50.86178,0.11296 76.29727,0.30587 11.60808,-1.32771 27.45204,5.29923 34.36968,-12.18797 0.11536,-3.81956 0.19204,-7.64352 0.25267,-11.46986 45.16842,-4.04424 89.83251,-12.92351 131.87344,-31.12044 19.47365,-8.66479 44.99413,-23.8675 47.27355,-36.47304 0.0575,-0.31827 0.0362,-0.67218 -0.0222,-1.0417 10.79434,-58.83325 24.27042,-113.7182 35.25624,-173.66584 a 15.048326,15.048326 0 0 0 0.26818,-2.59762 c 0.80976,-6.71086 -0.0949,-13.66827 -3.32681,-20.59033 C 550.99808,149.44373 510.50804,138.22068 476.57765,127.98483 415.798,112.0523 352.6359,107.02552 289.97249,106.78721 Z m 0,37.51695 c 15.59197,0.19423 31.26467,0.60437 46.93887,1.36309 -1.26905,20.30286 -2.54234,40.60065 -3.81885,60.89775 -13.24433,-0.44559 -26.48576,-0.68967 -39.69568,-0.64276 a 6.8094544,6.8094544 0 0 0 -0.0621,0.002 c -12.94932,0.16629 -25.92879,0.61354 -38.90886,1.25671 -1.2971,-20.64557 -2.59025,-41.29477 -3.88756,-61.95054 13.15721,-0.55289 26.31387,-0.84674 39.43415,-0.92646 z m -64.81855,2.36047 c 3.23214,15.72392 6.46156,31.44577 9.7056,47.17603 a 6.8094544,6.8094544 0 0 0 0.39674,1.27886 c 0.41849,0.98867 1.14999,6.16765 1.88173,11.02879 0.10133,0.67299 0.24133,1.35393 0.36126,2.03022 -20.21715,1.38056 -40.40565,3.45208 -60.47441,6.46524 -8.98929,-19.5208 -17.97449,-39.04465 -26.96469,-58.57496 24.78109,-4.6597 49.89636,-7.6125 75.09377,-9.40418 z m 137.05538,0.55854 c 25.08933,1.9345 50.07542,5.05802 74.63497,10.09126 -8.5072,18.48189 -17.00862,36.95872 -25.51516,55.43209 -20.3251,-2.65585 -40.7534,-4.38503 -61.19696,-5.4479 0.0615,-0.38133 0.14649,-0.76742 0.20391,-1.1481 0.73308,-4.8599 1.46627,-10.03907 1.88615,-11.031 a 6.8094544,6.8094544 0 0 0 0.39895,-1.2833 c 3.19697,-15.54242 6.39092,-31.07686 9.58814,-46.61305 z m -225.87087,11.60505 c 0.49269,1.06967 0.98575,2.13922 1.47834,3.20935 -0.71205,-1.02337 -1.42447,-2.04647 -2.13661,-3.06971 0.21927,-0.0475 0.43894,-0.0924 0.65827,-0.13964 z m 314.11453,1.49163 c 0.1123,0.0266 0.22461,0.0532 0.33688,0.0798 -0.36894,0.53025 -0.73702,1.0611 -1.10598,1.59137 0.25646,-0.55715 0.51266,-1.11418 0.7691,-1.67117 z m -329.05526,1.96596 c 10.65023,15.30419 21.29757,30.60859 31.95159,45.91488 a 6.8094544,6.8094544 0 0 0 0.42997,0.55632 c 1.49094,1.73005 3.69513,5.31962 5.92,8.78802 -19.23786,3.43062 -38.35215,7.66127 -57.21409,13.11221 a 6.8094544,6.8094544 0 0 0 -2.11,1.04392 c -19.23119,-7.374 -43.78028,-12.77187 -54.439164,-31.8718 10.829354,-19.22344 35.721412,-24.55777 55.024284,-32.02472 6.7742,-1.9987 13.59019,-3.82719 20.43741,-5.51883 z m 343.48179,1.70884 c 12.10271,3.30374 24.07232,7.14198 35.8591,11.62943 15.81905,5.07254 49.1253,24.00084 20.99372,37.64108 -10.65833,6.11919 -21.75334,11.15962 -33.15066,15.37737 a 6.8094544,6.8094544 0 0 0 -3.12292,-1.79529 c -18.57449,-4.77949 -37.35132,-8.47938 -56.22778,-11.45876 1.61037,-2.51408 3.34476,-5.33491 4.46826,-6.64477 a 6.8094544,6.8094544 0 0 0 0.4189,-0.54302 c 10.25738,-14.73647 20.50789,-29.47151 30.76138,-44.20604 z m -164.29048,54.51673 a 251.43678,69.021865 0 0 1 165.77325,17.2746 c -32.42744,8.97732 -66.57437,12.76007 -99.78001,16.33485 -80.41077,6.20206 -162.58353,4.6194 -241.33024,-13.90568 a 251.43678,69.021865 0 0 1 175.337,-19.70377 z m 231.85958,32.01143 c -8.5308,41.09129 -17.67729,81.47521 -25.55285,124.45072 a 15.048326,15.048326 0 0 0 -0.15294,1.07052 c -8.95479,14.93477 -52.45792,22.2304 -76.60535,29.2897 -23.91988,5.68835 -48.16922,9.91238 -72.58037,12.69109 -0.0461,-12.35601 -0.13552,-24.72002 -0.0288,-37.06038 -0.48794,-41.28387 -34.15463,-56.65884 -57.80365,-57.74824 -26.19099,-1.79298 -58.59995,13.5257 -66.15504,53.94712 -0.92846,14.03828 -0.71735,28.26417 -0.58734,42.47726 -29.80862,-2.61317 -59.43288,-7.38222 -88.56726,-14.30685 -37.16397,-10.83426 -70.276897,-20.37561 -73.183229,-36.75896 -0.05404,-0.30462 -0.132255,-0.56879 -0.201692,-0.84666 -7.129892,-40.19489 -15.900349,-78.47411 -23.839573,-117.11445 10.913363,5.81258 22.685888,10.29847 33.467608,14.24035 89.013366,28.0635 183.917296,31.30892 276.471226,25.72573 59.63842,-5.26513 121.31323,-12.62175 175.31927,-40.05695 z"
     id="path8386"
     inkscape:connector-curvature="0" />
</svg>
