<?xml version="1.0" encoding="UTF-8" standalone="no"?>
<svg
   xmlns:dc="http://purl.org/dc/elements/1.1/"
   xmlns:cc="http://creativecommons.org/ns#"
   xmlns:rdf="http://www.w3.org/1999/02/22-rdf-syntax-ns#"
   xmlns:svg="http://www.w3.org/2000/svg"
   xmlns="http://www.w3.org/2000/svg"
   xmlns:sodipodi="http://sodipodi.sourceforge.net/DTD/sodipodi-0.dtd"
   xmlns:inkscape="http://www.inkscape.org/namespaces/inkscape"
   enable-background="new 0 0 580 580"
   viewBox="0 0 580 580"
   height="580"
   width="580"
   version="1.1"
   id="svg10"
   sodipodi:docname="stile-night.svg"
   inkscape:version="0.92.4 (5da689c313, 2019-01-14)">
  <sodipodi:namedview
     pagecolor="#ffffff"
     bordercolor="#666666"
     borderopacity="1"
     objecttolerance="10"
     gridtolerance="10"
     guidetolerance="10"
     inkscape:pageopacity="0"
     inkscape:pageshadow="2"
     inkscape:window-width="1920"
     inkscape:window-height="1017"
     id="namedview12"
     showgrid="false"
     inkscape:zoom="1.1508772"
     inkscape:cx="214.73587"
     inkscape:cy="176.19114"
     inkscape:window-x="-8"
     inkscape:window-y="-8"
     inkscape:window-maximized="1"
     inkscape:current-layer="svg10" />
  <metadata
     id="metadata21">
    <rdf:RDF>
      <cc:Work
         rdf:about="">
        <dc:format>image/svg+xml</dc:format>
        <dc:type
           rdf:resource="http://purl.org/dc/dcmitype/StillImage" />
        <dc:title></dc:title>
      </cc:Work>
    </rdf:RDF>
  </metadata>
  <defs
     id="defs19">
    <filter
       id="filter3784">
      <feGaussianBlur
         id="feGaussianBlur3786"
         stdDeviation="4.27307" />
    </filter>
  </defs>
  <path
     id="path8079"
     d="m 235.48,350.14 c 40.18,0 80.37,0 120.31,0 0,17.43 0,34.86 0,52.29 -39.94,0 -80.13,0 -120.31,0 0,-17.43 0,-34.86 0,-52.29 z m -33.42,85.7 c 63.68,0 127.58,0 191.26,0 0,17.43 0,34.86 0,52.06 -63.68,0 -127.58,0 -191.26,0 0,-17.2 0,-34.63 0,-52.06 z M 517.89,300.25 c -11.76,2.99 -4.48,-13.74 -6.48,-20.86 0,-19.34 0,-38.68 0,-58.02 28.98,7.43 45.56,-38.98 16.23,-50.28 -15.29,1.71 -18.32,-4.75 -16.23,-18.58 2.56,-16.15 -4.54,-38.57 -24.4,-34.11 -19.72,4.51 -15.6,27.44 -15.91,43.05 3.75,12.93 -11.58,6.08 -18.69,7.73 -113.37,0 -226.75,0 -340.11,0 -1.62,-16.11 5.3,-36.31 -9.05,-47.79 C 83.774,108.5 67.503,132.14 71.986,151 c -1.518,6.97 4.714,21.98 -7.191,18.18 -35.039,-4.71 -35.979,55.94 -0.757,52.19 12.74,-4 6.548,11.62 7.948,19.36 0,19.84 0,39.67 0,59.52 -24.194,-6.37 -47.554,24.45 -27.432,44.68 7.926,13.41 33.546,-1.39 27.432,19.42 0,26.03 0,52.09 0,78.12 13.439,0 26.887,0 40.314,0 0,-30.01 0,-60.02 0,-90.04 31.69,0 63.36,0 95.05,0 0,-10.46 0,-20.93 0,-31.39 58.92,0 117.83,0 176.75,0 0,10.46 0,20.93 0,31.39 28.99,0 58.01,0 87,0 0,30.02 0,60.03 0,90.04 13.43,0 26.88,0 40.31,0 0,-30.01 0,-60.02 0,-90.04 28.97,7.42 45.57,-39 16.23,-50.29 l -4.78,-1.45 -4.97,-0.44 0,0 z m -46.79,0 c -119.6,0 -239.2,0 -358.8,0 0,-26.29 0,-52.59 0,-78.88 119.6,0 239.2,0 358.8,0 0,26.29 0,52.59 0,78.88 z"
     inkscape:connector-curvature="0"
     opacity="0.8"
     fill="none"
     stroke="#ffffff"
     stroke-linejoin="round"
     stroke-linecap="round"
     stroke-width="42.38"
     style="stroke:#373737;stroke-opacity:1;opacity:1" />
  <path
     id="rect13"
     d="m 202.06,435.84 c 63.68,0 127.58,0 191.26,0 0,17.43 0,34.86 0,52.06 -63.68,0 -127.58,0 -191.26,0 0,-17.2 0,-34.63 0,-52.06 z"
     inkscape:connector-curvature="0"
     fill="#2c2c2c"
     style="fill:#a1a1a1;fill-opacity:1" />
  <path
     id="rect15"
     d="m 235.48,350.14 c 40.18,0 80.37,0 120.31,0 0,17.43 0,34.86 0,52.29 -39.94,0 -80.13,0 -120.31,0 0,-17.43 0,-34.86 0,-52.29 z"
     inkscape:connector-curvature="0"
     fill="#2c2c2c"
     style="fill:#a1a1a1;fill-opacity:1" />
  <path
     id="path11"
     d="m 517.76,300.27 c -11.87,2.9 -4.36,-13.56 -6.29,-20.58 0,-19.37 0,-38.97 0,-58.34 29.53,6.77 45.26,-38.98 16.21,-50.36 -15.74,2.42 -18.4,-4.85 -16.21,-18.4 2.41,-15.73 -4.13,-38.49 -24.46,-34.38 -20.58,5.33 -15.26,28.81 -15.98,44.54 2.91,11.87 -13.56,4.37 -20.57,6.3 -112.59,0 -225.4,0 -338.21,0 -2.43,-15.98 5.31,-36.07 -8.97,-47.7 -20.09,-12.83 -35.825,11.14 -31.226,29.3 -2.421,7.03 4.843,22.03 -7.505,18.4 -35.104,-3.87 -35.83,55.45 0,52.3 12.832,-3.88 6.295,11.61 7.989,19.12 0,19.85 0,39.71 0,59.8 -24.936,-6.3 -47.45,24.94 -27.599,44.54 7.99,13.32 33.652,-2.41 27.599,19.37 0,26.15 0,52.06 0,78.2 13.316,0 26.876,0 40.182,0 0,-30.02 0,-60.04 0,-90.06 31.73,0 63.44,0 95.15,0 0,-10.41 0,-20.82 0,-31.23 58.83,0 117.66,0 176.73,0 0,10.41 0,21.06 0,31.47 29.06,0 57.87,0 86.92,0 0,30.03 0,60.04 0,90.06 13.55,0 26.87,0 40.42,0 0,-30.02 0,-60.03 0,-90.06 29.54,7.02 45.28,-38.97 16.23,-50.35 0,-4.6 -9.93,2.42 -9.93,-2.42 z m -46.73,0 c -119.59,0 -239.19,0 -358.78,0 0,-26.39 0,-52.54 0,-78.92 119.59,0 239.19,0 358.78,0 0,26.38 0,52.53 0,78.92 z"
     inkscape:connector-curvature="0"
     fill="#5f5f5f"
     style="fill:#a1a1a1;fill-opacity:1" />
</svg>
