<?xml version="1.0" encoding="UTF-8" standalone="no"?>
<svg
   xmlns:dc="http://purl.org/dc/elements/1.1/"
   xmlns:cc="http://creativecommons.org/ns#"
   xmlns:rdf="http://www.w3.org/1999/02/22-rdf-syntax-ns#"
   xmlns:svg="http://www.w3.org/2000/svg"
   xmlns="http://www.w3.org/2000/svg"
   xmlns:sodipodi="http://sodipodi.sourceforge.net/DTD/sodipodi-0.dtd"
   xmlns:inkscape="http://www.inkscape.org/namespaces/inkscape"
   height="580"
   width="580"
   version="1.0"
   id="svg7"
   sodipodi:docname="swimming.svg"
   inkscape:version="0.92.4 (5da689c313, 2019-01-14)">
  <defs
     id="defs11" />
  <sodipodi:namedview
     pagecolor="#ffffff"
     bordercolor="#666666"
     borderopacity="1"
     objecttolerance="10"
     gridtolerance="10"
     guidetolerance="10"
     inkscape:pageopacity="0"
     inkscape:pageshadow="2"
     inkscape:window-width="1920"
     inkscape:window-height="1017"
     id="namedview9"
     showgrid="false"
     inkscape:zoom="0.57543862"
     inkscape:cx="264.80539"
     inkscape:cy="362.05902"
     inkscape:window-x="1912"
     inkscape:window-y="-8"
     inkscape:window-maximized="1"
     inkscape:current-layer="svg7" />
  <metadata
     id="metadata1976">
    <rdf:RDF>
      <cc:Work
         rdf:about="">
        <dc:format>image/svg+xml</dc:format>
        <dc:type
           rdf:resource="http://purl.org/dc/dcmitype/StillImage" />
      </cc:Work>
    </rdf:RDF>
  </metadata>
  <path
     id="path7131"
     d="m 537.26,475.83 c -26.28,2.15 -46.87,-21.15 -74.15,-13.53 -22.98,8.48 -47.26,20.11 -72.68,10.74 -21.05,-14.01 -52.17,-16.53 -73.39,-1.65 -24.08,10.35 -50.47,2.89 -72.4,-8.31 -27.19,-9.2 -48.55,11.78 -74.12,12.74 -26.8,4.63 -46.9,-20.07 -74.04,-13.79 -16.325,-2.64 -46.159,27.43 -53.539,7.62 0,-13.84 0,-27.66 0,-41.5 26.334,1.95 46.654,-22.05 74.149,-14.18 23.07,8.07 47.32,21.41 72.78,11.11 20.7,-14.72 52.17,-16.76 73.33,-2 24.08,11.6 50.51,3.01 72.37,-8.33 27.24,-9.09 48.65,11.44 74.12,13.37 26.94,4.65 46.67,-21.1 74.1,-14.42 18.3,1.91 38.19,15.65 53.47,16.93 0,15.07 0,30.13 0,45.2 z"
     inkscape:connector-curvature="0"
     style="opacity:0.8;fill:#0098e3;fill-opacity:0.78431373" />
  <path
     id="path7133"
     d="m 464.19,340.75 c 38.76,0.93 67.35,-41.61 57.02,-77.77 -6.9,-34.41 -47.78,-56.6 -79.94,-41.28 -39.51,16.16 -47.88,74.14 -17.6,102.9 10.63,10.59 25.58,16.26 40.52,16.15 z"
     inkscape:connector-curvature="0"
     style="opacity:0.8;fill:#0098e3;fill-opacity:0.78431373" />
  <path
     id="path7135"
     d="m 121.54,375.18 c 19.8,11.63 46.8,20.69 70.29,9.02 21.21,-14.6 52.59,-13.27 73.35,1.53 25.45,10.61 49.65,-2.34 72.74,-10.66 27.48,-8.32 47.82,15.51 74.14,14.02 13.75,2.28 28.77,-6.17 16.28,-18.66 -30.6,-58.01 -61.2,-116.03 -91.81,-174.03 38.06,-7.29 76.11,-14.58 114.16,-21.86 18.9,-5.58 34.59,-25.32 27.43,-45.47 -5,-19.54 -27.37,-29.129 -45.66,-22.85 -55.53,10.63 -111.05,21.27 -166.58,31.9 -20.49,8.94 -26.76,33.25 -18.02,52.31 15.33,28.91 30.68,57.83 46.01,86.75 -57.45,33.33 -114.89,66.65 -172.33,99.98 v -1.23 z"
     inkscape:connector-curvature="0"
     style="opacity:0.8;fill:#0098e3;fill-opacity:0.78431373" />
</svg>
