<?xml version="1.0" encoding="UTF-8" standalone="no"?>
<svg
   xmlns:dc="http://purl.org/dc/elements/1.1/"
   xmlns:cc="http://creativecommons.org/ns#"
   xmlns:rdf="http://www.w3.org/1999/02/22-rdf-syntax-ns#"
   xmlns:svg="http://www.w3.org/2000/svg"
   xmlns="http://www.w3.org/2000/svg"
   xmlns:sodipodi="http://sodipodi.sourceforge.net/DTD/sodipodi-0.dtd"
   xmlns:inkscape="http://www.inkscape.org/namespaces/inkscape"
   height="580"
   width="580"
   version="1.0"
   id="svg4272"
   sodipodi:docname="telephone-night.svg"
   inkscape:version="0.92.4 (5da689c313, 2019-01-14)">
  <defs
     id="defs4276" />
  <sodipodi:namedview
     pagecolor="#ffffff"
     bordercolor="#666666"
     borderopacity="1"
     objecttolerance="10"
     gridtolerance="10"
     guidetolerance="10"
     inkscape:pageopacity="0"
     inkscape:pageshadow="2"
     inkscape:window-width="1920"
     inkscape:window-height="1017"
     id="namedview4274"
     showgrid="false"
     inkscape:zoom="1.1508772"
     inkscape:cx="92.824915"
     inkscape:cy="311.37763"
     inkscape:window-x="-8"
     inkscape:window-y="-8"
     inkscape:window-maximized="1"
     inkscape:current-layer="svg4272" />
  <metadata
     id="metadata2975">
    <rdf:RDF>
      <cc:Work
         rdf:about="">
        <dc:format>image/svg+xml</dc:format>
        <dc:type
           rdf:resource="http://purl.org/dc/dcmitype/StillImage" />
        <dc:title></dc:title>
      </cc:Work>
    </rdf:RDF>
  </metadata>
  <path
     inkscape:connector-curvature="0"
     id="path3138"
     style="fill:#a1a1a1;fill-opacity:1;fill-rule:evenodd;stroke:none;stroke-width:64.1985321"
     d="m 146.37968,395.56783 c 7.19024,-111.44866 107.85354,-230.08755 174.36322,-271.36721 4.4939,45.77356 18.87437,61.11701 41.27966,72.73694 12.64711,6.29146 44.10439,11.68414 53.09219,2.76054 l 91.67551,-91.67551 c 8.02481,-13.481691 12.58291,-30.558501 0,-49.497069 C 477.06633,15.384106 426.79888,-7.9199625 333.32581,42.34749 211.0918,108.02259 37.627362,328.22357 85.262675,506.18191 c 6.291456,25.16582 38.583315,53.92677 67.408465,60.15402 43.14141,9.052 86.21863,-11.61993 97.00398,-25.03743 l 27.92637,-89.94214 c 0.89878,-10.78536 -8.08902,-42.24264 -33.25485,-53.02799 -36.84995,-15.27925 -61.1812,-13.54589 -97.96696,-2.76054" />
</svg>
