<?xml version="1.0" encoding="UTF-8" standalone="no"?>
<svg
   xmlns:dc="http://purl.org/dc/elements/1.1/"
   xmlns:cc="http://creativecommons.org/ns#"
   xmlns:rdf="http://www.w3.org/1999/02/22-rdf-syntax-ns#"
   xmlns:svg="http://www.w3.org/2000/svg"
   xmlns="http://www.w3.org/2000/svg"
   xmlns:sodipodi="http://sodipodi.sourceforge.net/DTD/sodipodi-0.dtd"
   xmlns:inkscape="http://www.inkscape.org/namespaces/inkscape"
   height="580"
   width="580"
   version="1.0"
   id="svg4521"
   sodipodi:docname="toilets.svg"
   inkscape:version="0.92.4 (5da689c313, 2019-01-14)">
  <defs
     id="defs4525" />
  <sodipodi:namedview
     pagecolor="#ffffff"
     bordercolor="#666666"
     borderopacity="1"
     objecttolerance="10"
     gridtolerance="10"
     guidetolerance="10"
     inkscape:pageopacity="0"
     inkscape:pageshadow="2"
     inkscape:window-width="1920"
     inkscape:window-height="1017"
     id="namedview4523"
     showgrid="false"
     inkscape:zoom="0.73103448"
     inkscape:cx="-72.779015"
     inkscape:cy="140.88122"
     inkscape:window-x="-8"
     inkscape:window-y="-8"
     inkscape:window-maximized="1"
     inkscape:current-layer="svg4521" />
  <metadata
     id="metadata10">
    <rdf:RDF>
      <cc:Work
         rdf:about="">
        <dc:format>image/svg+xml</dc:format>
        <dc:type
           rdf:resource="http://purl.org/dc/dcmitype/StillImage" />
        <dc:title></dc:title>
      </cc:Work>
    </rdf:RDF>
  </metadata>
  <path
     style="opacity:1;fill:#0098e3;fill-opacity:0.78431373;fill-rule:evenodd;stroke:none;stroke-width:48.19099426"
     d="M 30.925781 32.292969 L 30.925781 550.44336 L 549.07422 550.44336 L 549.07422 32.292969 L 30.925781 32.292969 z M 267.7832 65.544922 L 307.30078 65.544922 L 307.30078 517.19141 L 267.7832 517.19141 L 267.7832 65.544922 z M 145.23438 84.099609 C 177.47414 84.099609 204.07617 109.88107 204.07617 142.98828 C 204.07617 175.22806 177.47415 201.83008 145.23438 201.83008 C 112.12716 201.83008 85.525391 175.22806 85.525391 142.98828 C 85.525391 109.88107 112.12716 84.099609 145.23438 84.099609 z M 433.12695 84.099609 C 465.41491 84.099609 492.06445 109.88107 492.06445 142.98828 C 492.06445 175.22806 465.41491 201.83008 433.12695 201.83008 C 400.11612 201.83008 374.33398 175.22806 374.33398 142.98828 C 374.33398 109.88107 400.11612 84.099609 433.12695 84.099609 z M 97.621094 235.75586 L 191.97852 235.75586 C 206.5322 235.75586 217.81055 247.85129 217.81055 262.30859 L 217.81055 375.26953 L 179.11328 375.26953 L 171.83594 498.68555 L 117.76562 498.68555 L 110.53711 375.26953 L 71.839844 375.26953 L 71.839844 262.30859 C 71.839844 247.85129 83.115604 235.75586 97.621094 235.75586 z M 407.3457 235.75586 L 458.18555 235.75586 C 472.69104 235.75586 483.96875 247.85129 483.96875 262.30859 L 508.16016 431.70117 L 463.82422 431.70117 L 459.77734 498.68555 L 405.75391 498.68555 L 401.6582 431.70117 L 357.37109 431.70117 L 381.51367 262.30859 C 381.51367 247.85129 393.61126 235.75586 407.3457 235.75586 z "
     id="path8393" />
</svg>
