<?xml version="1.0" encoding="UTF-8" standalone="no"?>
<svg
   xmlns:dc="http://purl.org/dc/elements/1.1/"
   xmlns:cc="http://creativecommons.org/ns#"
   xmlns:rdf="http://www.w3.org/1999/02/22-rdf-syntax-ns#"
   xmlns:svg="http://www.w3.org/2000/svg"
   xmlns="http://www.w3.org/2000/svg"
   xmlns:sodipodi="http://sodipodi.sourceforge.net/DTD/sodipodi-0.dtd"
   xmlns:inkscape="http://www.inkscape.org/namespaces/inkscape"
   id="svg1026"
   version="1.0"
   width="580"
   height="580"
   sodipodi:docname="toilets-night-50k.svg"
   inkscape:version="0.92.4 (5da689c313, 2019-01-14)">
  <sodipodi:namedview
     pagecolor="#ffffff"
     bordercolor="#666666"
     borderopacity="1"
     objecttolerance="10"
     gridtolerance="10"
     guidetolerance="10"
     inkscape:pageopacity="0"
     inkscape:pageshadow="2"
     inkscape:window-width="1920"
     inkscape:window-height="1017"
     id="namedview1596"
     showgrid="false"
     inkscape:zoom="1.0338389"
     inkscape:cx="258.9192"
     inkscape:cy="198.50785"
     inkscape:window-x="-8"
     inkscape:window-y="-8"
     inkscape:window-maximized="1"
     inkscape:current-layer="svg1026" />
  <defs
     id="defs1030">
    <clipPath
       clipPathUnits="userSpaceOnUse"
       id="clipPath1603">
      <g
         inkscape:label="Clip"
         id="use1605">
        <path
           inkscape:connector-curvature="0"
           id="path1609"
           style="opacity:1;fill:#00adef;fill-opacity:1;fill-rule:evenodd;stroke:none;stroke-width:48.19099426"
           d="m 464.50451,434.32742 -4.04804,66.98548 h -54.02211 l -4.09623,-66.98548 H 358.0506 l 24.14369,-169.39134 c 0,-14.4573 12.09594,-26.55324 25.83038,-26.55324 h 50.84149 c 14.50549,0 25.78219,12.09594 25.78219,26.55324 l 24.19187,169.39134 z M 307.98016,519.81824 H 268.46355 V 68.172248 h 39.51661 z M 218.48949,377.89577 h -38.69737 l -7.27684,123.41713 h -54.0703 L 111.21633,377.89577 H 72.518965 V 264.93608 c 0,-14.4573 11.276692,-26.55324 25.782182,-26.55324 h 94.357963 c 14.55368,0 25.83038,12.09594 25.83038,26.55324 z M 145.91385,86.72578 c 32.23977,0 58.8412,25.78218 58.8412,58.88939 0,32.23978 -26.60143,58.84121 -58.8412,58.84121 -33.10721,0 -59.708643,-26.60143 -59.708643,-58.84121 0,-33.10721 26.601433,-58.88939 59.708643,-58.88939 m 287.893,0 c 32.28796,0 58.93758,25.78218 58.93758,58.88939 0,32.23978 -26.64962,58.84121 -58.93758,58.84121 -33.01083,0 -58.79302,-26.60143 -58.79302,-58.84121 0,-33.10721 25.78219,-58.88939 58.79302,-58.88939 M 31.604811,553.07003 H 549.75438 V 34.920462 H 31.604811 Z"
           clip-path="none" />
      </g>
    </clipPath>
  </defs>
  <metadata
     id="metadata2975">
    <rdf:RDF>
      <cc:Work
         rdf:about="">
        <dc:format>image/svg+xml</dc:format>
        <dc:type
           rdf:resource="http://purl.org/dc/dcmitype/StillImage" />
        <dc:title />
      </cc:Work>
    </rdf:RDF>
  </metadata>
  <path
     inkscape:connector-curvature="0"
     id="path12643-8-3"
     style="font-variant:normal;font-weight:normal;font-stretch:normal;font-size:6px;font-family:'OS Univers';-inkscape-font-specification:OSUnivers-Regular;writing-mode:lr-tb;fill:#a1a1a1;fill-opacity:1;fill-rule:nonzero;stroke:#373737;stroke-width:60;stroke-miterlimit:4;stroke-dasharray:none;stroke-opacity:1"
     d="m 239.89846,220.13278 c 0,0 -2.48697,31.69881 -7.46091,45.80586 -4.83133,13.94049 -11.65267,26.05558 -20.46402,36.34527 -10.94252,12.77893 -23.87468,22.40477 -38.79649,28.87751 -14.92181,6.30619 -33.75162,9.45929 -56.48941,9.45929 H 74.48156 V 478.78323 H 32.27439 V 108.10998 h 86.11913 c 19.04298,0 35.17263,1.90974 48.38892,5.72923 13.2163,3.6538 24.94045,9.46249 35.17246,17.42606 12.07941,9.45951 21.38771,21.24257 27.92491,35.34919 6.6791,14.10704 10.01865,53.52215 10.01865,53.52215 z m -43.91197,1.24272 c 0,0 -1.91852,-23.89837 -5.75556,-33.3583 -3.83705,-9.45993 -9.66375,-17.17708 -17.4801,-23.15147 -6.82097,-5.14377 -14.63694,-8.79481 -23.44793,-10.9531 -8.66911,-2.32398 -19.68292,-3.48597 -33.04146,-3.48597 H 74.48156 v 148.12081 h 35.59811 c 17.05371,0 30.90957,-1.74192 41.56759,-5.22577 10.65839,-3.64955 19.32712,-9.37517 26.00621,-17.17688 6.67945,-7.96612 11.36908,-16.34733 14.06887,-25.14363 2.84132,-8.79545 4.26198,-29.62377 4.26198,-29.62377 z"
     sodipodi:nodetypes="ccccsccccsccccccsccsccsccccc" />
  <path
     inkscape:connector-curvature="0"
     id="path12645-4-3"
     style="font-variant:normal;font-weight:normal;font-stretch:normal;font-size:6px;font-family:'OS Univers';-inkscape-font-specification:OSUnivers-Regular;writing-mode:lr-tb;fill:#a1a1a1;fill-opacity:1;fill-rule:nonzero;stroke:#373737;stroke-width:60;stroke-miterlimit:4;stroke-dasharray:none;stroke-opacity:1"
     d="m 548.0865,451.89726 c -7.81597,3.98093 -14.92144,7.71524 -21.3164,11.20291 -6.25307,3.48385 -14.49544,7.1351 -24.72709,10.95374 -8.66946,3.15671 -18.12001,5.81336 -28.35165,7.96995 -10.08976,2.32398 -21.24547,3.48597 -33.46713,3.48597 -23.02193,0 -43.98326,-3.73388 -62.884,-11.20165 -18.75886,-7.63473 -35.1017,-19.50106 -49.02851,-35.599 -13.64267,-15.76655 -24.30106,-35.76471 -31.97515,-59.99447 -7.67409,-24.39673 -11.51114,-52.69325 -11.51114,-84.88955 0,-30.53681 3.69498,-57.83724 11.08493,-81.90131 7.3896,-24.06449 18.04781,-44.39488 31.97462,-60.99118 13.50079,-16.09836 29.77269,-28.37936 48.81568,-36.843 19.18488,-8.46449 40.43053,-12.69673 63.73694,-12.69673 17.05335,0 34.03558,2.40768 50.94667,7.22305 17.05298,4.81494 35.95372,13.279 56.70223,25.39217 v 58.50129 h -3.19238 c -17.47973,-17.09423 -34.8172,-29.54114 -52.01243,-37.34071 -17.19523,-7.80043 -35.59865,-11.70065 -55.21027,-11.70065 -16.05834,0 -30.55377,3.07025 -43.4863,9.21074 -12.78992,5.97481 -24.22994,15.35147 -34.32007,28.12998 -9.80527,12.44713 -17.479,28.21347 -23.0212,47.29902 -5.40031,18.91986 -8.10047,40.8267 -8.10047,65.72052 0,26.05581 2.98429,48.46058 8.95287,67.21431 6.11046,18.75332 13.92644,34.02172 23.44794,45.80521 9.94787,12.28143 21.52996,21.40933 34.74626,27.38371 13.35855,5.80869 27.4276,8.71303 42.20716,8.71303 20.32177,0 39.36476,-4.06612 57.12898,-12.19837 17.76386,-8.13181 34.39083,-20.32975 49.8809,-36.59382 h 2.98502 z"
     sodipodi:nodetypes="ccccscccscccscccccscccscccscccc" />
  <path
     inkscape:connector-curvature="0"
     id="path12643-8"
     style="font-variant:normal;font-weight:normal;font-stretch:normal;font-size:6px;font-family:'OS Univers';-inkscape-font-specification:OSUnivers-Regular;writing-mode:lr-tb;fill:#a1a1a1;fill-opacity:1;fill-rule:nonzero;stroke:none;stroke-width:78.62976837"
     d="m 239.89846,220.13278 c 0,0 -2.48697,31.69881 -7.46091,45.80586 -4.83133,13.94049 -11.65267,26.05558 -20.46402,36.34527 -10.94252,12.77893 -23.87468,22.40477 -38.79649,28.87751 -14.92181,6.30619 -33.75162,9.45929 -56.48941,9.45929 H 74.48156 V 478.78323 H 32.27439 V 108.10998 h 86.11913 c 19.04298,0 35.17263,1.90974 48.38892,5.72923 13.2163,3.6538 24.94045,9.46249 35.17246,17.42606 12.07941,9.45951 21.38771,21.24257 27.92491,35.34919 6.6791,14.10704 10.01865,53.52215 10.01865,53.52215 z m -43.91197,1.24272 c 0,0 -1.91852,-23.89837 -5.75556,-33.3583 -3.83705,-9.45993 -9.66375,-17.17708 -17.4801,-23.15147 -6.82097,-5.14377 -14.63694,-8.79481 -23.44793,-10.9531 -8.66911,-2.32398 -19.68292,-3.48597 -33.04146,-3.48597 H 74.48156 v 148.12081 h 35.59811 c 17.05371,0 30.90957,-1.74192 41.56759,-5.22577 10.65839,-3.64955 19.32712,-9.37517 26.00621,-17.17688 6.67945,-7.96612 11.36908,-16.34733 14.06887,-25.14363 2.84132,-8.79545 4.26198,-29.62377 4.26198,-29.62377 z"
     sodipodi:nodetypes="ccccsccccsccccccsccsccsccccc" />
  <path
     inkscape:connector-curvature="0"
     id="path12645-4"
     style="font-variant:normal;font-weight:normal;font-stretch:normal;font-size:6px;font-family:'OS Univers';-inkscape-font-specification:OSUnivers-Regular;writing-mode:lr-tb;fill:#a1a1a1;fill-opacity:1;fill-rule:nonzero;stroke:none;stroke-width:78.62976837"
     d="m 548.0865,451.89726 c -7.81597,3.98093 -14.92144,7.71524 -21.3164,11.20291 -6.25307,3.48385 -14.49544,7.1351 -24.72709,10.95374 -8.66946,3.15671 -18.12001,5.81336 -28.35165,7.96995 -10.08976,2.32398 -21.24547,3.48597 -33.46713,3.48597 -23.02193,0 -43.98326,-3.73388 -62.884,-11.20165 -18.75886,-7.63473 -35.1017,-19.50106 -49.02851,-35.599 -13.64267,-15.76655 -24.30106,-35.76471 -31.97515,-59.99447 -7.67409,-24.39673 -11.51114,-52.69325 -11.51114,-84.88955 0,-30.53681 3.69498,-57.83724 11.08493,-81.90131 7.3896,-24.06449 18.04781,-44.39488 31.97462,-60.99118 13.50079,-16.09836 29.77269,-28.37936 48.81568,-36.843 19.18488,-8.46449 40.43053,-12.69673 63.73694,-12.69673 17.05335,0 34.03558,2.40768 50.94667,7.22305 17.05298,4.81494 35.95372,13.279 56.70223,25.39217 v 58.50129 h -3.19238 c -17.47973,-17.09423 -34.8172,-29.54114 -52.01243,-37.34071 -17.19523,-7.80043 -35.59865,-11.70065 -55.21027,-11.70065 -16.05834,0 -30.55377,3.07025 -43.4863,9.21074 -12.78992,5.97481 -24.22994,15.35147 -34.32007,28.12998 -9.80527,12.44713 -17.479,28.21347 -23.0212,47.29902 -5.40031,18.91986 -8.10047,40.8267 -8.10047,65.72052 0,26.05581 2.98429,48.46058 8.95287,67.21431 6.11046,18.75332 13.92644,34.02172 23.44794,45.80521 9.94787,12.28143 21.52996,21.40933 34.74626,27.38371 13.35855,5.80869 27.4276,8.71303 42.20716,8.71303 20.32177,0 39.36476,-4.06612 57.12898,-12.19837 17.76386,-8.13181 34.39083,-20.32975 49.8809,-36.59382 h 2.98502 z"
     sodipodi:nodetypes="ccccscccscccscccccscccscccscccc" />
</svg>
