<?xml version="1.0" encoding="UTF-8" standalone="no"?>
<svg
   xmlns:dc="http://purl.org/dc/elements/1.1/"
   xmlns:cc="http://creativecommons.org/ns#"
   xmlns:rdf="http://www.w3.org/1999/02/22-rdf-syntax-ns#"
   xmlns:svg="http://www.w3.org/2000/svg"
   xmlns="http://www.w3.org/2000/svg"
   xmlns:sodipodi="http://sodipodi.sourceforge.net/DTD/sodipodi-0.dtd"
   xmlns:inkscape="http://www.inkscape.org/namespaces/inkscape"
   height="580"
   width="580"
   version="1.0"
   id="svg824"
   sodipodi:docname="toll-label-night.svg"
   inkscape:version="0.92.4 (5da689c313, 2019-01-14)">
  <defs
     id="defs828" />
  <sodipodi:namedview
     pagecolor="#ffffff"
     bordercolor="#666666"
     borderopacity="1"
     objecttolerance="10"
     gridtolerance="10"
     guidetolerance="10"
     inkscape:pageopacity="0"
     inkscape:pageshadow="2"
     inkscape:window-width="1920"
     inkscape:window-height="1017"
     id="namedview826"
     showgrid="false"
     inkscape:zoom="1.0338389"
     inkscape:cx="543.61845"
     inkscape:cy="207.32386"
     inkscape:window-x="-8"
     inkscape:window-y="-8"
     inkscape:window-maximized="1"
     inkscape:current-layer="g966" />
  <metadata
     id="metadata2975">
    <rdf:RDF>
      <cc:Work
         rdf:about="">
        <dc:format>image/svg+xml</dc:format>
        <dc:type
           rdf:resource="http://purl.org/dc/dcmitype/StillImage" />
        <dc:title></dc:title>
      </cc:Work>
    </rdf:RDF>
  </metadata>
  <g
     id="g966"
     transform="matrix(43.480197,0,0,-43.480197,307.88094,336.12543)">
    <g
       id="g846-3"
       style="stroke:#373737;stroke-width:0.73596722;stroke-miterlimit:4;stroke-dasharray:none;stroke-opacity:1">
      <path
         sodipodi:nodetypes="ccccccccc"
         d="M -1.882942,2.517886 H -3.7359847 V -2.0555069 H -4.425651 V 2.517886 h -1.8530427 v 0.6130367 h 4.3957517 z"
         style="font-style:normal;font-weight:normal;font-size:7.13351774px;line-height:1.25;font-family:sans-serif;letter-spacing:0px;word-spacing:0px;fill:#000000;fill-opacity:1;stroke:#373737;stroke-width:0.73596722;stroke-miterlimit:4;stroke-dasharray:none;stroke-opacity:1"
         id="path829-1"
         inkscape:connector-curvature="0" />
      <path
         sodipodi:nodetypes="zzzzzzzzzzzzzzzzzz"
         d="m 1.3180848,-0.11190201 c 0,-0.63393566 -0.1625476,-1.13434999 -0.48764285,-1.50124319 -0.32509522,-0.3668932 -0.75816846,-0.5503398 -1.30618611,-0.5503398 -0.54801764,0 -0.98921784,0.1834461 -1.31315244,0.5503398 -0.3239346,0.3668937 -0.4841596,0.86730753 -0.4841596,1.50124319 0,0.63393566 0.1602255,1.13318901 0.4841596,1.50124321 0.3239341,0.3680542 0.7651348,0.5538229 1.31315244,0.5538229 0.54801765,0 0.98109049,-0.1857682 1.30618611,-0.5538229 C 1.1555376,1.0212865 1.3180848,0.52203365 1.3180848,-0.11190201 Z m -0.67573365,0 c 0,0.4980923 -0.0986891,0.8765954 -0.29606885,1.12157851 -0.19737976,0.2449831 -0.46906594,0.3692152 -0.82202646,0.3692152 -0.35296052,0 -0.63277454,-0.1242327 -0.82899274,-0.3692152 -0.1962182,-0.24498249 -0.2925857,-0.62580832 -0.2925857,-1.12157851 0,-0.49577019 0.098689,-0.85917957 0.2960688,-1.11112899 0.1973797,-0.2519494 0.47487124,-0.3761816 0.82550964,-0.3761816 0.3506384,0 0.62000298,0.1230717 0.8185433,0.3726984 0.19854032,0.24962672 0.29955201,0.61651989 0.29955201,1.11461219 z"
         style="font-style:normal;font-weight:normal;font-size:7.13351774px;line-height:1.25;font-family:sans-serif;letter-spacing:0px;word-spacing:0px;fill:#000000;fill-opacity:1;stroke:#373737;stroke-width:0.73596722;stroke-miterlimit:4;stroke-dasharray:none;stroke-opacity:1"
         id="path831-9"
         inkscape:connector-curvature="0" />
      <path
         sodipodi:nodetypes="ccccc"
         d="M 2.9969691,-2.0555069 H 2.3421345 v 5.4198015 h 0.6548346 z"
         style="font-style:normal;font-weight:normal;font-size:7.13351774px;line-height:1.25;font-family:sans-serif;letter-spacing:0px;word-spacing:0px;fill:#000000;fill-opacity:1;stroke:#373737;stroke-width:0.73596722;stroke-miterlimit:4;stroke-dasharray:none;stroke-opacity:1"
         id="path833-0"
         inkscape:connector-curvature="0" />
      <path
         sodipodi:nodetypes="ccccc"
         d="M 4.9614734,-2.0555069 H 4.3066387 v 5.4198015 h 0.6548347 z"
         style="font-style:normal;font-weight:normal;font-size:7.13351774px;line-height:1.25;font-family:sans-serif;letter-spacing:0px;word-spacing:0px;fill:#000000;fill-opacity:1;stroke:#373737;stroke-width:0.73596722;stroke-miterlimit:4;stroke-dasharray:none;stroke-opacity:1"
         id="path835-3"
         inkscape:connector-curvature="0" />
    </g>
    <g
       id="g846"
       style="fill:#a1a1a1;fill-opacity:1;stroke:#a1a1a1;stroke-opacity:1">
      <path
         sodipodi:nodetypes="ccccccccc"
         d="M -1.882942,2.517886 H -3.7359847 V -2.0555069 H -4.425651 V 2.517886 h -1.8530427 v 0.6130367 h 4.3957517 z"
         style="font-style:normal;font-weight:normal;font-size:7.13351774px;line-height:1.25;font-family:sans-serif;letter-spacing:0px;word-spacing:0px;fill:#a1a1a1;fill-opacity:1;stroke:#a1a1a1;stroke-width:0.17833795;stroke-opacity:1"
         id="path829"
         inkscape:connector-curvature="0" />
      <path
         sodipodi:nodetypes="zzzzzzzzzzzzzzzzzz"
         d="m 1.3180848,-0.11190201 c 0,-0.63393566 -0.1625476,-1.13434999 -0.48764285,-1.50124319 -0.32509522,-0.3668932 -0.75816846,-0.5503398 -1.30618611,-0.5503398 -0.54801764,0 -0.98921784,0.1834461 -1.31315244,0.5503398 -0.3239346,0.3668937 -0.4841596,0.86730753 -0.4841596,1.50124319 0,0.63393566 0.1602255,1.13318901 0.4841596,1.50124321 0.3239341,0.3680542 0.7651348,0.5538229 1.31315244,0.5538229 0.54801765,0 0.98109049,-0.1857682 1.30618611,-0.5538229 C 1.1555376,1.0212865 1.3180848,0.52203365 1.3180848,-0.11190201 Z m -0.67573365,0 c 0,0.4980923 -0.0986891,0.8765954 -0.29606885,1.12157851 -0.19737976,0.2449831 -0.46906594,0.3692152 -0.82202646,0.3692152 -0.35296052,0 -0.63277454,-0.1242327 -0.82899274,-0.3692152 -0.1962182,-0.24498249 -0.2925857,-0.62580832 -0.2925857,-1.12157851 0,-0.49577019 0.098689,-0.85917957 0.2960688,-1.11112899 0.1973797,-0.2519494 0.47487124,-0.3761816 0.82550964,-0.3761816 0.3506384,0 0.62000298,0.1230717 0.8185433,0.3726984 0.19854032,0.24962672 0.29955201,0.61651989 0.29955201,1.11461219 z"
         style="font-style:normal;font-weight:normal;font-size:7.13351774px;line-height:1.25;font-family:sans-serif;letter-spacing:0px;word-spacing:0px;fill:#a1a1a1;fill-opacity:1;stroke:#a1a1a1;stroke-width:0.17833795;stroke-opacity:1"
         id="path831"
         inkscape:connector-curvature="0" />
      <path
         sodipodi:nodetypes="ccccc"
         d="M 2.9969691,-2.0555069 H 2.3421345 v 5.4198015 h 0.6548346 z"
         style="font-style:normal;font-weight:normal;font-size:7.13351774px;line-height:1.25;font-family:sans-serif;letter-spacing:0px;word-spacing:0px;fill:#a1a1a1;fill-opacity:1;stroke:#a1a1a1;stroke-width:0.17833795;stroke-opacity:1"
         id="path833"
         inkscape:connector-curvature="0" />
      <path
         sodipodi:nodetypes="ccccc"
         d="M 4.9614734,-2.0555069 H 4.3066387 v 5.4198015 h 0.6548347 z"
         style="font-style:normal;font-weight:normal;font-size:7.13351774px;line-height:1.25;font-family:sans-serif;letter-spacing:0px;word-spacing:0px;fill:#a1a1a1;fill-opacity:1;stroke:#a1a1a1;stroke-width:0.17833795;stroke-opacity:1"
         id="path835"
         inkscape:connector-curvature="0" />
    </g>
  </g>
</svg>
