<?xml version="1.0" encoding="UTF-8" standalone="no"?>
<svg
   xmlns:dc="http://purl.org/dc/elements/1.1/"
   xmlns:cc="http://creativecommons.org/ns#"
   xmlns:rdf="http://www.w3.org/1999/02/22-rdf-syntax-ns#"
   xmlns:svg="http://www.w3.org/2000/svg"
   xmlns="http://www.w3.org/2000/svg"
   xmlns:sodipodi="http://sodipodi.sourceforge.net/DTD/sodipodi-0.dtd"
   xmlns:inkscape="http://www.inkscape.org/namespaces/inkscape"
   enable-background="new -0.2 -0.2 19 19"
   viewBox="-0.2 -0.2 580 580"
   height="580"
   width="580"
   version="1.0"
   id="svg10"
   sodipodi:docname="traffic_signal.svg"
   inkscape:version="0.92.4 (5da689c313, 2019-01-14)">
  <defs
     id="defs14" />
  <sodipodi:namedview
     pagecolor="#ffffff"
     bordercolor="#666666"
     borderopacity="1"
     objecttolerance="10"
     gridtolerance="10"
     guidetolerance="10"
     inkscape:pageopacity="0"
     inkscape:pageshadow="2"
     inkscape:window-width="1920"
     inkscape:window-height="1017"
     id="namedview12"
     showgrid="false"
     inkscape:zoom="1.1508773"
     inkscape:cx="199.40218"
     inkscape:cy="302.65465"
     inkscape:window-x="-8"
     inkscape:window-y="-8"
     inkscape:window-maximized="1"
     inkscape:current-layer="svg10" />
  <metadata
     id="metadata20">
    <rdf:RDF>
      <cc:Work
         rdf:about="">
        <dc:format>image/svg+xml</dc:format>
        <dc:type
           rdf:resource="http://purl.org/dc/dcmitype/StillImage" />
      </cc:Work>
    </rdf:RDF>
  </metadata>
  <path
     id="path8084"
     d="m 381.09,457.95 c -61.96,0 -123.63,0 -185.59,0 0,-109.35 0,-218.71 0,-328.06 62.82,0 125.35,0 188.16,0 0,109.35 0,218.71 0,328.06 0,0 -2.85,0 -2.85,0 z m 3.14,-8.28 c 0,46.83 -34.83,92.22 -82.23,97.65 -44.83,6.85 -89.94,-24.84 -101.64,-68.24 -14.85,-46.54 8.85,-102.79 55.1,-121.06 37.98,-16.56 85.09,-2.86 108.79,31.98 12.56,17.13 19.98,38.26 19.98,59.67 z m -0.85,-319.78 c 0,46.82 -34.55,92.22 -81.95,97.65 -44.83,6.85 -90.22,-24.85 -101.65,-68.24 -14.84,-46.54 8.86,-102.792 55.11,-121.066 40.83,-17.702 91.94,0 113.92,38.546 9.71,15.703 14.57,34.55 14.57,53.11 z"
     opacity="0.8"
     fill="none"
     stroke="#ffffff"
     stroke-linejoin="round"
     stroke-linecap="round"
     stroke-width="40"
     style="stroke:#ffffff;stroke-opacity:1;stroke-width:55;stroke-miterlimit:4;stroke-dasharray:none" />
  <path
     id="path4"
     d="m 380.65585,135.33218 c 0,45.22609 -33.3738,89.08054 -79.16015,94.32568 -43.30384,6.61681 -87.14862,-24.00403 -98.18951,-65.91688 -14.3348,-44.95564 8.55837,-99.29264 53.23388,-116.944534 39.44001,-17.099367 88.81007,0 110.04179,37.233771 9.37945,15.168423 14.07399,33.373803 14.07399,51.301963 z"
     inkscape:connector-curvature="0"
     style="stroke:#000000;stroke-width:24.72849274;stroke-miterlimit:4;stroke-dasharray:none;stroke-opacity:1" />
  <path
     id="path6"
     d="m 380.7886,444.22584 c 0,45.23576 -33.64427,89.08054 -79.43063,94.32569 -43.30384,6.6168 -86.87815,-23.99437 -98.17984,-65.91689 -14.34446,-44.95564 8.54871,-99.2907 53.22421,-116.93874 36.68704,-15.99624 82.19327,-2.76263 105.08645,30.8913 12.13241,16.54684 19.29981,36.95751 19.29981,57.63864 z"
     inkscape:connector-curvature="0"
     style="stroke:#000000;stroke-width:24.72849274;stroke-miterlimit:4;stroke-dasharray:none;stroke-opacity:1" />
  <path
     id="path8"
     d="m 378.94719,430.08757 c -60.35537,0 -120.42827,0 -180.78366,0 0,-93.83128 0,-187.67115 0,-281.50242 61.19311,0 122.10374,0 183.2871,0 0,93.83127 0,187.67114 0,281.50242 0,0 -2.77618,0 -2.77618,0 z"
     inkscape:connector-curvature="0"
     style="stroke:#000000;stroke-width:23.40489388;stroke-miterlimit:4;stroke-dasharray:none;stroke-opacity:1" />
  <path
     id="path10"
     d="m 355.08747,135.33216 c 2.76263,38.88942 -34.74547,76.668 -74.46561,70.32165 -40.82133,-6.6168 -69.22047,-52.12302 -55.98686,-91.56304 9.37944,-37.507129 54.60554,-61.77776 90.19139,-44.402129 24.81543,11.30749 40.5412,38.616049 40.26108,65.643519 z"
     inkscape:connector-curvature="0"
     style="fill:#ff0000;stroke-width:0.96595681" />
  <path
     id="path12"
     d="m 357.8501,441.47287 c 2.75299,38.32917 -32.82321,74.46561 -71.71262,71.4325 -40.54121,0 -70.88191,-43.30384 -63.70485,-82.19326 3.85416,-38.0587 43.29418,-68.11928 81.0824,-59.01996 31.9925,6.34633 54.88567,37.78823 54.33507,69.78072 z"
     inkscape:connector-curvature="0"
     style="fill:#23dc50;stroke-width:0.96595681;fill-opacity:1" />
  <path
     id="path14"
     d="m 357.8501,288.53284 c 2.75299,38.05871 -32.82321,74.19515 -71.71262,71.16205 -40.54121,0 -70.88191,-43.30385 -63.70485,-82.19327 3.85416,-37.78823 43.29418,-68.11928 81.0824,-59.01996 31.9925,6.6168 54.88567,37.78822 54.33507,70.05118 z"
     inkscape:connector-curvature="0"
     style="fill:#ffe11f;stroke-width:0.96595681;fill-opacity:1" />
</svg>
