<?xml version="1.0" encoding="UTF-8" standalone="no"?>
<svg
   xmlns:dc="http://purl.org/dc/elements/1.1/"
   xmlns:cc="http://creativecommons.org/ns#"
   xmlns:rdf="http://www.w3.org/1999/02/22-rdf-syntax-ns#"
   xmlns:svg="http://www.w3.org/2000/svg"
   xmlns="http://www.w3.org/2000/svg"
   xmlns:sodipodi="http://sodipodi.sourceforge.net/DTD/sodipodi-0.dtd"
   xmlns:inkscape="http://www.inkscape.org/namespaces/inkscape"
   id="svg1026"
   version="1.0"
   width="580"
   height="580"
   sodipodi:docname="train.svg"
   inkscape:version="0.92.4 (5da689c313, 2019-01-14)">
  <sodipodi:namedview
     pagecolor="#ffffff"
     bordercolor="#666666"
     borderopacity="1"
     objecttolerance="10"
     gridtolerance="10"
     guidetolerance="10"
     inkscape:pageopacity="0"
     inkscape:pageshadow="2"
     inkscape:window-width="1920"
     inkscape:window-height="1017"
     id="namedview1596"
     showgrid="false"
     inkscape:zoom="4.1353555"
     inkscape:cx="200.37129"
     inkscape:cy="421.31493"
     inkscape:window-x="-8"
     inkscape:window-y="-8"
     inkscape:window-maximized="1"
     inkscape:current-layer="svg1026" />
  <defs
     id="defs1030">
    <clipPath
       clipPathUnits="userSpaceOnUse"
       id="clipPath1603">
      <g
         inkscape:label="Clip"
         id="use1605">
        <path
           inkscape:connector-curvature="0"
           id="path1609"
           style="opacity:1;fill:#00adef;fill-opacity:1;fill-rule:evenodd;stroke:none;stroke-width:48.19099426"
           d="m 464.50451,434.32742 -4.04804,66.98548 h -54.02211 l -4.09623,-66.98548 H 358.0506 l 24.14369,-169.39134 c 0,-14.4573 12.09594,-26.55324 25.83038,-26.55324 h 50.84149 c 14.50549,0 25.78219,12.09594 25.78219,26.55324 l 24.19187,169.39134 z M 307.98016,519.81824 H 268.46355 V 68.172248 h 39.51661 z M 218.48949,377.89577 h -38.69737 l -7.27684,123.41713 h -54.0703 L 111.21633,377.89577 H 72.518965 V 264.93608 c 0,-14.4573 11.276692,-26.55324 25.782182,-26.55324 h 94.357963 c 14.55368,0 25.83038,12.09594 25.83038,26.55324 z M 145.91385,86.72578 c 32.23977,0 58.8412,25.78218 58.8412,58.88939 0,32.23978 -26.60143,58.84121 -58.8412,58.84121 -33.10721,0 -59.708643,-26.60143 -59.708643,-58.84121 0,-33.10721 26.601433,-58.88939 59.708643,-58.88939 m 287.893,0 c 32.28796,0 58.93758,25.78218 58.93758,58.88939 0,32.23978 -26.64962,58.84121 -58.93758,58.84121 -33.01083,0 -58.79302,-26.60143 -58.79302,-58.84121 0,-33.10721 25.78219,-58.88939 58.79302,-58.88939 M 31.604811,553.07003 H 549.75438 V 34.920462 H 31.604811 Z"
           clip-path="none" />
      </g>
    </clipPath>
  </defs>
  <metadata
     id="metadata2975">
    <rdf:RDF>
      <cc:Work
         rdf:about="">
        <dc:format>image/svg+xml</dc:format>
        <dc:type
           rdf:resource="http://purl.org/dc/dcmitype/StillImage" />
        <dc:title />
      </cc:Work>
    </rdf:RDF>
  </metadata>
  <path
     style="fill:#0098e3;fill-opacity:0.78431373;fill-rule:evenodd;stroke:none;stroke-width:9.60848331"
     d="M 191.36914 140.16211 L 191.36914 141.77734 L 196.47266 147.02344 L 196.47266 163.96289 L 183.81836 163.96289 C 181.81017 163.96289 181.39648 161.54102 181.39648 161.54102 L 181.39648 154.81641 C 181.39648 150.52142 177.90827 146.87891 173.61328 146.87891 L 169.71289 146.87891 C 165.26417 146.87891 161.76562 150.52142 161.76562 154.81641 L 161.76562 161.54102 C 161.76562 161.54102 161.50591 163.96289 159.47852 163.96289 L 141.72266 163.96289 L 141.72266 146.3418 L 89.798828 146.3418 L 89.798828 160.73438 L 99.619141 160.73438 L 99.619141 176.07031 L 92.220703 176.07031 L 92.220703 201.77148 L 99.896484 201.77148 C 100.83811 209.43906 107.55582 215.48438 115.62695 215.48438 C 123.56356 215.48438 130.2986 209.43906 131.24023 201.77148 L 135.79492 201.77148 C 136.75577 209.43906 143.47184 215.48438 151.54297 215.48438 C 159.47958 215.48438 166.1954 209.43906 167.15625 201.77148 L 173.06641 201.77148 C 172.807 202.57859 172.65234 203.51154 172.65234 204.45312 C 172.65234 210.50647 177.6496 215.48438 183.69336 215.48438 C 189.75632 215.48438 194.72266 210.50648 194.72266 204.45312 C 194.72266 203.51154 194.58778 202.57859 194.46289 201.77148 L 199.01758 201.77148 C 198.62361 202.57859 198.625 203.51154 198.625 204.45312 C 198.625 210.50647 203.46659 215.48438 209.66406 215.48438 C 215.7078 215.48438 220.69531 210.50648 220.69531 204.45312 C 220.69531 203.51154 220.55055 202.57859 220.41602 201.77148 L 229.29492 201.77148 L 229.29492 192.2207 L 222.57812 192.2207 L 222.57812 163.96289 L 208.85742 163.96289 L 208.85742 147.02344 L 213.95898 141.77734 L 213.95898 140.16211 L 191.36914 140.16211 z M 112.52344 160.73438 L 128.27148 160.73438 L 128.27148 176.07031 L 112.52344 176.07031 L 112.52344 160.73438 z "
     id="path14" />
  <path
     style="fill:#0098e3;fill-opacity:0.78431373;fill-rule:evenodd;stroke:none;stroke-width:9.60848331"
     d="m 195.78969,131.27487 c 0,0 0.41315,-2.27721 -1.20106,-6.05335 -1.22026,-2.55587 -6.71632,-3.89142 -13.71131,-3.36299 -6.87006,0.40356 -22.2052,6.45691 -30.8144,9.14732 -8.46509,2.8249 -22.85859,4.03556 -31.89056,3.76649 -9.13767,-0.25943 -23.271748,-2.55581 -25.539358,-11.16503 -2.28682,-8.47469 6.04374,-12.91381 18.015918,-15.20061 12.10669,-2.42133 27.17278,4.1797 34.17736,6.72592 6.85085,2.56546 23.39667,-3.35334 29.59414,-5.37112 6.32238,-2.16191 16.40169,-2.29645 25.69309,2.2868 9.27219,4.69854 8.33056,19.22657 8.33056,19.22657 z"
     id="path12" />
</svg>
