<?xml version="1.0" encoding="UTF-8" standalone="no"?>
<svg
   xmlns:dc="http://purl.org/dc/elements/1.1/"
   xmlns:cc="http://creativecommons.org/ns#"
   xmlns:rdf="http://www.w3.org/1999/02/22-rdf-syntax-ns#"
   xmlns:svg="http://www.w3.org/2000/svg"
   xmlns="http://www.w3.org/2000/svg"
   xmlns:sodipodi="http://sodipodi.sourceforge.net/DTD/sodipodi-0.dtd"
   xmlns:inkscape="http://www.inkscape.org/namespaces/inkscape"
   height="791.3559"
   width="710.25421"
   version="1.1"
   id="svg12"
   sodipodi:docname="underground-private-parking-night.svg"
   inkscape:version="0.92.4 (5da689c313, 2019-01-14)">
  <metadata
     id="metadata18">
    <rdf:RDF>
      <cc:Work
         rdf:about="">
        <dc:format>image/svg+xml</dc:format>
        <dc:type
           rdf:resource="http://purl.org/dc/dcmitype/StillImage" />
        <dc:title />
      </cc:Work>
    </rdf:RDF>
  </metadata>
  <defs
     id="defs16">
    <clipPath
       id="clip0">
      <rect
         id="rect921"
         height="55"
         width="55"
         y="241"
         x="99" />
    </clipPath>
    <clipPath
       id="clip0-4">
      <rect
         id="rect921-2"
         height="55"
         width="55"
         y="241"
         x="99" />
    </clipPath>
    <clipPath
       id="clip0-7">
      <rect
         id="rect921-27"
         height="55"
         width="55"
         y="241"
         x="99" />
    </clipPath>
  </defs>
  <sodipodi:namedview
     pagecolor="#ffffff"
     bordercolor="#666666"
     borderopacity="1"
     objecttolerance="10"
     gridtolerance="10"
     guidetolerance="10"
     inkscape:pageopacity="0"
     inkscape:pageshadow="2"
     inkscape:window-width="1920"
     inkscape:window-height="1017"
     id="namedview14"
     showgrid="false"
     inkscape:zoom="1"
     inkscape:cx="8.44773"
     inkscape:cy="413.48222"
     inkscape:window-x="-8"
     inkscape:window-y="-8"
     inkscape:window-maximized="1"
     inkscape:current-layer="svg12" />
  <path
     style="color:#000000;font-style:normal;font-variant:normal;font-weight:normal;font-stretch:normal;font-size:medium;line-height:normal;font-family:sans-serif;font-variant-ligatures:normal;font-variant-position:normal;font-variant-caps:normal;font-variant-numeric:normal;font-variant-alternates:normal;font-feature-settings:normal;text-indent:0;text-align:start;text-decoration:none;text-decoration-line:none;text-decoration-style:solid;text-decoration-color:#000000;letter-spacing:normal;word-spacing:normal;text-transform:none;writing-mode:lr-tb;direction:ltr;text-orientation:mixed;dominant-baseline:auto;baseline-shift:baseline;text-anchor:start;white-space:normal;shape-padding:0;clip-rule:nonzero;display:inline;overflow:visible;visibility:visible;opacity:1;isolation:auto;mix-blend-mode:normal;color-interpolation:sRGB;color-interpolation-filters:linearRGB;solid-color:#000000;solid-opacity:1;vector-effect:none;fill:#e30000;fill-opacity:0.69019608;fill-rule:nonzero;stroke:none;stroke-width:35.09152603;stroke-linecap:round;stroke-linejoin:round;stroke-miterlimit:4;stroke-dasharray:none;stroke-dashoffset:0;stroke-opacity:1;paint-order:stroke fill markers;color-rendering:auto;image-rendering:auto;shape-rendering:auto;text-rendering:auto;enable-background:accumulate"
     d="m 357.62062,773.13262 c 72.96786,-33.9226 140.88046,-63.95501 211.00275,-96.83137 22.06349,-10.28045 39.14295,-14.89877 38.7705,-25.3242 -0.49339,-13.80793 -9.85404,-14.81194 -22.29177,-14.8128 -171.7271,0.40195 -287.49962,0.13194 -458.13058,0 -10.38081,0.52586 -20.32325,0.85841 -20.73876,14.8128 -0.37382,12.55506 13.17472,16.31595 31.42194,25.01329 73.03196,31.0514 147.84658,65.2782 219.96592,97.14228 z"
     id="path821-6-3"
     inkscape:connector-curvature="0"
     sodipodi:nodetypes="ccsccscc" />
  <path
     style="fill:#373737;fill-opacity:0.75294118;stroke:none;stroke-width:22.58747482;stroke-miterlimit:4;stroke-dasharray:none;stroke-opacity:0.78431373"
     d="M 138.76761,62.038099 V 495.12795 H 571.8575 V 62.038099 Z m 88.28711,53.824211 h 132.21289 c 29.48969,0 51.97589,3.29331 67.58009,9.58399 15.6883,6.32459 29.7361,17.4467 42.0234,33.66601 12.2874,16.21931 18.4317,36.12508 18.4317,59.7168 0,16.54697 -3.2788,32.68431 -9.8321,48.41211 -6.5532,15.72781 -15.8098,28.0967 -27.7695,37.10742 -11.9597,9.01074 -23.5974,14.97036 -34.8965,17.93946 -11.1458,2.92884 -28.6685,4.42382 -52.58787,4.42382 H 306.9219 v 124.59375 h -79.86718 z m 77.16601,60.94532 v 88.96094 h 51.11524 c 19.49593,0 33.17513,-4.50686 41.03903,-13.51758 7.8639,-9.01072 11.795,-19.33086 11.795,-30.96289 0,-13.59801 -4.46,-24.37084 -13.2696,-32.43946 -8.7205,-7.98703 -21.9529,-12.04101 -39.81053,-12.04101 z"
     id="path1368-7"
     inkscape:connector-curvature="0"
     sodipodi:nodetypes="ccccccssssssssccccccsssssc" />
  <path
     inkscape:connector-curvature="0"
     style="fill:#e30000;fill-opacity:0.69019608;stroke:none;stroke-width:24;stroke-miterlimit:4;stroke-dasharray:none;stroke-opacity:0.78431373"
     d="M 98.14197,21.413492 V 535.75332 H 612.48179 V 21.413492 Z m 40.625,40.625007 H 571.85679 V 495.12832 H 138.76697 Z"
     id="path2003-9" />
  <path
     style="fill:#e30000;fill-opacity:0.69019608;stroke:none;stroke-width:0.87841797;stroke-miterlimit:4;stroke-dasharray:none;stroke-opacity:0.78431373"
     d="m 227.05472,115.86231 v 335.44415 h 79.86737 V 326.71179 c 0,0 36.8627,0 55.294,0 23.9194,0 41.4426,-1.49413 52.5884,-4.42297 11.2991,-2.9691 22.9369,-8.92821 34.8966,-17.93895 11.9597,-9.01072 21.2164,-21.3802 27.7696,-37.10801 6.5533,-15.7278 9.8308,-31.86552 9.8308,-48.41249 0,-23.59172 -6.144,-43.49768 -18.4314,-59.71698 -12.2873,-16.21931 -26.3351,-27.34181 -42.0233,-33.6664 -15.6042,-6.29068 -38.0902,-9.58368 -67.5799,-9.58368 -44.0707,0 -132.21217,0 -132.21217,0 z m 77.16527,60.94539 c 0,0 33.9128,0 50.8693,0 17.8576,0 31.0896,4.05348 39.8102,12.04051 8.8096,8.06862 13.2706,18.84169 13.2706,32.4397 0,11.63203 -3.9313,21.9518 -11.7952,30.96252 -7.8639,9.01072 -21.5443,13.51768 -41.0403,13.51768 -17.0382,0 -51.1146,0 -51.1146,0 z"
     id="path4552-4-2-5"
     inkscape:connector-curvature="0"
     sodipodi:nodetypes="ccccssssssssccssssscc" />
</svg>
