<?xml version="1.0" encoding="UTF-8" standalone="no"?>
<svg
   xmlns:dc="http://purl.org/dc/elements/1.1/"
   xmlns:cc="http://creativecommons.org/ns#"
   xmlns:rdf="http://www.w3.org/1999/02/22-rdf-syntax-ns#"
   xmlns:svg="http://www.w3.org/2000/svg"
   xmlns="http://www.w3.org/2000/svg"
   xmlns:sodipodi="http://sodipodi.sourceforge.net/DTD/sodipodi-0.dtd"
   xmlns:inkscape="http://www.inkscape.org/namespaces/inkscape"
   height="580"
   width="580"
   version="1.0"
   id="svg4521"
   sodipodi:docname="underground_parking.svg"
   inkscape:version="0.92.4 (5da689c313, 2019-01-14)">
  <defs
     id="defs4525">
    <clipPath
       id="clip0">
      <rect
         id="rect814"
         height="70"
         width="70"
         y="356"
         x="154" />
    </clipPath>
    <clipPath
       id="clip0-8">
      <rect
         id="rect846"
         height="178"
         width="179"
         y="249"
         x="581" />
    </clipPath>
    <clipPath
       id="clip0-1">
      <rect
         id="rect814-5"
         height="70"
         width="70"
         y="356"
         x="154" />
    </clipPath>
  </defs>
  <sodipodi:namedview
     pagecolor="#ffffff"
     bordercolor="#666666"
     borderopacity="1"
     objecttolerance="10"
     gridtolerance="10"
     guidetolerance="10"
     inkscape:pageopacity="0"
     inkscape:pageshadow="2"
     inkscape:window-width="1920"
     inkscape:window-height="1001"
     id="namedview4523"
     showgrid="false"
     inkscape:zoom="1.0338389"
     inkscape:cx="43.282969"
     inkscape:cy="247.67379"
     inkscape:window-x="-9"
     inkscape:window-y="-9"
     inkscape:window-maximized="1"
     inkscape:current-layer="svg4521" />
  <metadata
     id="metadata10">
    <rdf:RDF>
      <cc:Work
         rdf:about="">
        <dc:format>image/svg+xml</dc:format>
        <dc:type
           rdf:resource="http://purl.org/dc/dcmitype/StillImage" />
        <dc:title />
      </cc:Work>
    </rdf:RDF>
  </metadata>
  <path
     style="opacity:1;fill:#0098e3;fill-opacity:0.78431373;stroke:none;stroke-width:23.82801056;stroke-linecap:round;stroke-linejoin:round;stroke-miterlimit:4;stroke-dasharray:none;stroke-opacity:1;paint-order:stroke fill markers"
     d="m 35.773438,33.566406 c -0.01399,0 -0.02539,0.01139 -0.02539,0.02539 V 543.77733 c 0,0.014 0.0114,0.0254 0.02539,0.0254 H 545.95899 c 0.014,0 0.0254,-0.0114 0.0254,-0.0254 V 33.591796 c 0,-0.014 -0.0114,-0.02539 -0.0254,-0.02539 z m 59.785156,59.14453 H 219.43164 c 27.62964,0 48.69645,3.08655 63.31641,8.980474 14.69867,5.92565 27.86076,16.34668 39.37304,31.54296 11.51237,15.19626 17.26954,33.84555 17.26954,55.94922 0,15.50327 -3.07099,30.62361 -9.21094,45.35938 -6.13985,14.73577 -14.81224,26.32521 -26.01758,34.76758 -11.20535,8.44238 -22.1089,14.02482 -32.69531,16.80664 -10.44278,2.74411 -26.86081,4.14453 -49.27149,4.14453 H 170.38867 V 406.99805 H 95.558594 Z M 167.85742,149.8125 v 83.34961 h 47.89063 c 18.26629,0 31.08329,-4.22365 38.45117,-12.66602 7.36788,-8.44236 11.05078,-18.11142 11.05078,-29.00976 0,-12.74032 -4.17965,-22.83289 -12.43359,-30.39258 -8.17055,-7.48325 -20.5676,-11.28125 -37.29883,-11.28125 z m 193.85742,165.27344 77.33789,77.33984 44.29493,-44.29492 V 482.35353 H 349.125 l 44.29297,-44.293 -77.33984,-77.33983 z"
     id="rect838-9"
     inkscape:connector-curvature="0" />
</svg>
