<?xml version="1.0" encoding="UTF-8" standalone="no"?>
<svg
   xmlns:dc="http://purl.org/dc/elements/1.1/"
   xmlns:cc="http://creativecommons.org/ns#"
   xmlns:rdf="http://www.w3.org/1999/02/22-rdf-syntax-ns#"
   xmlns:svg="http://www.w3.org/2000/svg"
   xmlns="http://www.w3.org/2000/svg"
   xmlns:sodipodi="http://sodipodi.sourceforge.net/DTD/sodipodi-0.dtd"
   xmlns:inkscape="http://www.inkscape.org/namespaces/inkscape"
   height="580"
   width="580"
   version="1.0"
   id="svg22813"
   sodipodi:docname="water-works-night.svg"
   inkscape:version="0.92.4 (5da689c313, 2019-01-14)">
  <defs
     id="defs22817" />
  <sodipodi:namedview
     pagecolor="#ffffff"
     bordercolor="#666666"
     borderopacity="1"
     objecttolerance="10"
     gridtolerance="10"
     guidetolerance="10"
     inkscape:pageopacity="0"
     inkscape:pageshadow="2"
     inkscape:window-width="1440"
     inkscape:window-height="848"
     id="namedview22815"
     showgrid="false"
     inkscape:zoom="0.81379307"
     inkscape:cx="284.9208"
     inkscape:cy="351.81117"
     inkscape:window-x="-8"
     inkscape:window-y="-8"
     inkscape:window-maximized="1"
     inkscape:current-layer="svg22813"
     showguides="false" />
  <metadata
     id="metadata2975">
    <rdf:RDF>
      <cc:Work
         rdf:about="">
        <dc:format>image/svg+xml</dc:format>
        <dc:type
           rdf:resource="http://purl.org/dc/dcmitype/StillImage" />
        <dc:title></dc:title>
      </cc:Work>
    </rdf:RDF>
  </metadata>
  <path
     inkscape:connector-curvature="0"
     id="path4630-5"
     style="font-style:normal;font-variant:normal;font-weight:normal;font-stretch:normal;font-size:186.66667175px;line-height:1.25;font-family:'Gill Sans MT';-inkscape-font-specification:'Gill Sans MT, Normal';font-variant-ligatures:normal;font-variant-caps:normal;font-variant-numeric:normal;font-feature-settings:normal;text-align:start;letter-spacing:0px;word-spacing:0px;writing-mode:lr-tb;text-anchor:start;fill:#f8f8f8;fill-opacity:1;stroke:#373737;stroke-width:25.43622047;stroke-miterlimit:4;stroke-dasharray:none;stroke-opacity:1;stroke-linejoin:round"
     d="m 222.23671,97.288149 h 18.13802 L 188.87734,225.16576 h -3.91927 L 143.30442,121.62409 101.28619,225.16576 H 97.366918 L 46.051811,97.288149 H 64.372124 L 99.463268,185.06159 134.73671,97.288149 h 17.31771 l 35.45573,87.773441 z"
     sodipodi:nodetypes="cccccccccccccc" />
  <path
     inkscape:connector-curvature="0"
     id="path4632-2"
     style="font-style:normal;font-variant:normal;font-weight:normal;font-stretch:normal;font-size:186.66667175px;line-height:1.25;font-family:'Gill Sans MT';-inkscape-font-specification:'Gill Sans MT, Normal';font-variant-ligatures:normal;font-variant-caps:normal;font-variant-numeric:normal;font-feature-settings:normal;text-align:start;letter-spacing:0px;word-spacing:0px;writing-mode:lr-tb;text-anchor:start;fill:#f8f8f8;fill-opacity:1;stroke:#373737;stroke-width:25.43622047;stroke-miterlimit:4;stroke-dasharray:none;stroke-opacity:1;stroke-linejoin:round"
     d="m 294.1052,174.21523 v 35.63803 c 0,2.8559 0.97222,4.28385 2.91667,4.28385 2.00521,0 9.38802,-4.46615 9.38802,-4.46615 v 10.11719 c 0,0 -6.80556,4.07119 -9.11459,4.92188 -2.24826,0.91145 -4.61805,1.36718 -7.10937,1.36718 -7.10938,0 -12.57813,-8.38541 -12.57813,-8.38541 0,0 -14.55295,8.20312 -22.51302,8.20312 -5.83333,0 -10.69444,-1.91406 -14.58333,-5.74218 -3.88889,-3.88889 -5.83334,-8.75001 -5.83334,-14.58334 0,-5.28646 1.88368,-9.99566 5.65105,-14.1276 3.82812,-4.19271 9.2361,-7.50435 16.22395,-9.9349 l 21.23698,-7.29167 v -4.46614 c 0,-10.08681 -5.0434,-15.13021 -15.1302,-15.13021 -9.05382,0 -26.4323,14.03646 -26.4323,14.03646 v -18.13802 c 0,0 15.70747,-11.39323 27.79948,-11.39323 9.05382,0 16.31511,2.36979 21.78386,7.10937 1.82291,1.5191 3.46354,3.55469 4.92187,6.10677 1.45833,2.49132 2.36979,5.01302 2.73438,7.56511 0.42535,2.49132 0.63802,7.26128 0.63802,14.30989 z m -16.31511,33.81511 v -24.88281 l -11.11979,4.28385 c -5.65104,2.24827 -9.66146,4.52691 -12.03125,6.83594 -2.30903,2.24826 -3.46354,5.07378 -3.46354,8.47656 0,3.46354 1.09375,6.28906 3.28125,8.47656 2.24827,2.1875 5.13455,3.28125 8.65885,3.28125 5.28646,0 14.67448,-6.47135 14.67448,-6.47135 z"
     sodipodi:nodetypes="ssscccscscscccssccscccsccccscsc" />
  <path
     inkscape:connector-curvature="0"
     id="path4634-6"
     style="font-style:normal;font-variant:normal;font-weight:normal;font-stretch:normal;font-size:186.66667175px;line-height:1.25;font-family:'Gill Sans MT';-inkscape-font-specification:'Gill Sans MT, Normal';font-variant-ligatures:normal;font-variant-caps:normal;font-variant-numeric:normal;font-feature-settings:normal;text-align:start;letter-spacing:0px;word-spacing:0px;writing-mode:lr-tb;text-anchor:start;fill:#f8f8f8;fill-opacity:1;stroke:#373737;stroke-width:25.43622047;stroke-miterlimit:4;stroke-dasharray:none;stroke-opacity:1;stroke-linejoin:round"
     d="m 309.64556,154.072 31.17188,-30.625 v 17.31771 h 26.52344 v 14.94792 h -26.52344 v 41.10677 c 0,9.60069 3.98003,14.40104 11.9401,14.40104 5.95486,0 18.86719,-6.01562 18.86719,-6.01562 v 15.49479 c 0,0 -13.33767,5.3776 -20.8724,5.3776 -7.59549,0 -13.91493,-2.21788 -18.95833,-6.65364 -1.57986,-1.33681 -2.88628,-2.82552 -3.91927,-4.46615 -1.03299,-1.70139 -1.91406,-3.88889 -2.64323,-6.5625 -0.66841,-2.73437 -1.00261,-7.8993 -1.00261,-15.49479 v -37.1875 h -14.58333 z"
     sodipodi:nodetypes="ccccccssccscccsccc" />
  <path
     inkscape:connector-curvature="0"
     id="path4636-5"
     style="font-style:normal;font-variant:normal;font-weight:normal;font-stretch:normal;font-size:186.66667175px;line-height:1.25;font-family:'Gill Sans MT';-inkscape-font-specification:'Gill Sans MT, Normal';font-variant-ligatures:normal;font-variant-caps:normal;font-variant-numeric:normal;font-feature-settings:normal;text-align:start;letter-spacing:0px;word-spacing:0px;writing-mode:lr-tb;text-anchor:start;fill:#f8f8f8;fill-opacity:1;stroke:#373737;stroke-width:25.43622047;stroke-miterlimit:4;stroke-dasharray:none;stroke-opacity:1;stroke-linejoin:round"
     d="M 455.20546,184.15013 H 396.2341 c 0,0 3.09896,14.40104 8.02084,19.14063 4.98264,4.73958 11.39323,7.10937 19.23177,7.10937 10.9375,0 30.26042,-10.20833 30.26042,-10.20833 v 16.22396 c 0,0 -10.17795,5.83333 -15.22136,7.29166 -4.98264,1.45833 -10.84635,2.1875 -17.59114,2.1875 -9.23611,0 -16.71007,-1.91406 -22.42188,-5.74218 -5.71181,-3.82813 -10.29948,-8.96268 -13.76302,-15.40365 -3.40278,-6.50174 -5.10417,-14.00608 -5.10417,-22.51302 0,-12.76042 3.61545,-23.12066 10.84636,-31.08073 7.2309,-8.02083 16.61892,-12.03125 28.16406,-12.03125 11.11979,0 19.99132,3.88889 26.61458,11.66666 6.62327,7.77778 9.9349,18.19879 9.9349,31.26303 z m -58.60677,-9.9349 h 42.20052 c 0,0 -2.40017,-11.72743 -5.92448,-15.3125 -3.52431,-3.58507 -8.26389,-5.3776 -14.21875,-5.3776 -5.95486,0 -10.84635,1.79253 -14.67448,5.3776 -3.76736,3.58507 -7.38281,15.3125 -7.38281,15.3125 z"
     sodipodi:nodetypes="cccscccsscscssscccsscc" />
  <path
     inkscape:connector-curvature="0"
     id="path4638-7"
     style="font-style:normal;font-variant:normal;font-weight:normal;font-stretch:normal;font-size:186.66667175px;line-height:1.25;font-family:'Gill Sans MT';-inkscape-font-specification:'Gill Sans MT, Normal';font-variant-ligatures:normal;font-variant-caps:normal;font-variant-numeric:normal;font-feature-settings:normal;text-align:start;letter-spacing:0px;word-spacing:0px;writing-mode:lr-tb;text-anchor:start;fill:#f8f8f8;fill-opacity:1;stroke:#373737;stroke-width:25.43622047;stroke-miterlimit:4;stroke-dasharray:none;stroke-opacity:1;stroke-linejoin:round"
     d="m 490.8435,140.76471 v 19.23177 l 0.91146,-1.45833 c 8.02083,-12.94271 16.04167,-19.41406 24.0625,-19.41406 6.25868,0 19.59635,9.47916 19.59635,9.47916 l -8.75,14.58334 c 0,0 -11.11979,-8.20313 -16.04166,-8.20313 -5.34723,0 -9.99567,2.55208 -13.94532,7.65625 -3.88889,5.10417 -5.83333,11.15017 -5.83333,18.13802 v 43.84115 h -16.67969 v -83.85417 z"
     sodipodi:nodetypes="cccsccscscccc" />
  <path
     inkscape:connector-curvature="0"
     id="path866-7"
     style="font-style:normal;font-variant:normal;font-weight:normal;font-stretch:normal;font-size:187.0696106px;line-height:1.25;font-family:'Gill Sans MT';-inkscape-font-specification:'Gill Sans MT, Normal';font-variant-ligatures:normal;font-variant-caps:normal;font-variant-numeric:normal;font-feature-settings:normal;text-align:start;letter-spacing:0px;word-spacing:0px;writing-mode:lr-tb;text-anchor:start;fill:#000000;fill-opacity:1;stroke:#373737;stroke-width:24;stroke-opacity:1;stroke-miterlimit:4;stroke-dasharray:none;stroke-linejoin:round"
     d="m 214.13457,310.65064 h 18.17717 l -51.60856,128.15364 h -3.92773 L 135.03189,335.03911 92.922947,438.80428 h -3.92773 L 37.569347,310.65064 h 18.35986 l 35.16689,87.9629 35.349593,-87.9629 h 17.35509 l 35.53226,87.9629 z"
     sodipodi:nodetypes="cccccccccccccc" />
  <path
     inkscape:connector-curvature="0"
     id="path868-7"
     style="font-style:normal;font-variant:normal;font-weight:normal;font-stretch:normal;font-size:187.0696106px;line-height:1.25;font-family:'Gill Sans MT';-inkscape-font-specification:'Gill Sans MT, Normal';font-variant-ligatures:normal;font-variant-caps:normal;font-variant-numeric:normal;font-feature-settings:normal;text-align:start;letter-spacing:0px;word-spacing:0px;writing-mode:lr-tb;text-anchor:start;fill:#000000;fill-opacity:1;stroke:#373737;stroke-width:24;stroke-opacity:1;stroke-miterlimit:4;stroke-dasharray:none;stroke-linejoin:round"
     d="m 267.844,354.03836 q 19.18195,0 31.87857,12.4226 12.69661,12.33124 12.69661,31.05647 0,18.17718 -12.8793,30.2344 -12.8793,11.96588 -32.42662,11.96588 -18.90791,0 -31.60453,-12.14857 -12.69662,-12.2399 -12.69662,-30.50842 0,-18.4512 12.78796,-30.69111 12.87931,-12.33125 32.24393,-12.33125 z m -0.91342,14.98019 q -11.96588,0 -19.63866,7.85546 -7.67277,7.85546 -7.67277,20.00403 0,12.05722 7.85546,19.72999 7.85546,7.58144 20.18671,7.58144 12.2399,0 20.00402,-7.67278 7.85547,-7.76412 7.85547,-19.82134 0,-11.96588 -8.12949,-19.82134 -8.12949,-7.85546 -20.46074,-7.85546 z" />
  <path
     inkscape:connector-curvature="0"
     id="path870-2"
     style="font-style:normal;font-variant:normal;font-weight:normal;font-stretch:normal;font-size:187.0696106px;line-height:1.25;font-family:'Gill Sans MT';-inkscape-font-specification:'Gill Sans MT, Normal';font-variant-ligatures:normal;font-variant-caps:normal;font-variant-numeric:normal;font-feature-settings:normal;text-align:start;letter-spacing:0px;word-spacing:0px;writing-mode:lr-tb;text-anchor:start;fill:#000000;fill-opacity:1;stroke:#373737;stroke-width:24;stroke-opacity:1;stroke-miterlimit:4;stroke-dasharray:none;stroke-linejoin:round"
     d="m 348.86488,354.22105 v 19.27328 l 0.91343,-1.46148 c 8.03815,-12.97065 16.07629,-19.45597 24.11444,-19.45597 6.27219,0 12.81841,3.16654 19.63865,9.49963 l -8.76888,14.61481 c -5.78503,-5.48055 -11.1438,-8.22083 -16.0763,-8.22083 -5.35877,0 -10.01724,2.55759 -13.97541,7.67278 -3.89729,5.11519 -5.84593,11.17424 -5.84593,18.17717 v 43.93579 h -16.71569 v -84.03518 z"
     sodipodi:nodetypes="cccsccscscccc" />
  <path
     inkscape:connector-curvature="0"
     id="path872-4"
     style="font-style:normal;font-variant:normal;font-weight:normal;font-stretch:normal;font-size:187.0696106px;line-height:1.25;font-family:'Gill Sans MT';-inkscape-font-specification:'Gill Sans MT, Normal';font-variant-ligatures:normal;font-variant-caps:normal;font-variant-numeric:normal;font-feature-settings:normal;text-align:start;letter-spacing:0px;word-spacing:0px;writing-mode:lr-tb;text-anchor:start;fill:#000000;fill-opacity:1;stroke:#373737;stroke-width:24;stroke-opacity:1;stroke-miterlimit:4;stroke-dasharray:none;stroke-linejoin:round"
     d="m 453.84611,354.22105 h 19.82134 l -35.89764,41.1955 43.20505,42.83968 h -22.28759 l -42.10894,-42.83968 z m -48.62287,-43.57041 h 16.62435 v 127.60559 h -16.62435 z"
     sodipodi:nodetypes="cccccccccccc" />
  <path
     inkscape:connector-curvature="0"
     id="path874-4"
     style="font-style:normal;font-variant:normal;font-weight:normal;font-stretch:normal;font-size:187.0696106px;line-height:1.25;font-family:'Gill Sans MT';-inkscape-font-specification:'Gill Sans MT, Normal';font-variant-ligatures:normal;font-variant-caps:normal;font-variant-numeric:normal;font-feature-settings:normal;text-align:start;letter-spacing:0px;word-spacing:0px;writing-mode:lr-tb;text-anchor:start;fill:#000000;fill-opacity:1;stroke:#373737;stroke-width:24;stroke-opacity:1;stroke-miterlimit:4;stroke-dasharray:none;stroke-linejoin:round"
     d="m 488.62857,432.22762 v -17.90315 q 7.03338,4.9325 14.34079,8.03815 7.39875,3.0143 12.42259,3.0143 5.20653,0 8.95157,-2.55759 3.74505,-2.55759 3.74505,-6.11995 0,-3.65371 -2.46625,-6.02861 -2.37491,-2.46625 -10.41305,-7.03338 -16.0763,-8.95158 -21.10014,-15.25421 -4.9325,-6.39399 -4.9325,-13.88408 0,-9.68231 7.49009,-15.80226 7.58144,-6.11996 19.45597,-6.11996 12.33125,0 25.30186,6.94204 v 16.44166 q -14.79746,-8.95157 -24.20575,-8.95157 -4.84115,0 -7.85546,2.10088 -2.92296,2.00954 -2.92296,5.38921 0,2.92297 2.64893,5.5719 2.74028,2.64893 9.49963,6.39398 l 5.93727,3.37968 q 21.00874,11.87453 21.00874,26.30666 0,10.32171 -8.1294,16.98972 -8.03818,6.57667 -20.7348,6.57667 -7.49009,0 -13.33602,-1.55283 -5.84592,-1.64416 -14.70616,-5.93726 z" />
  <path
     inkscape:connector-curvature="0"
     id="path866"
     style="font-style:normal;font-variant:normal;font-weight:normal;font-stretch:normal;font-size:187.0696106px;line-height:1.25;font-family:'Gill Sans MT';-inkscape-font-specification:'Gill Sans MT, Normal';font-variant-ligatures:normal;font-variant-caps:normal;font-variant-numeric:normal;font-feature-settings:normal;text-align:start;letter-spacing:0px;word-spacing:0px;writing-mode:lr-tb;text-anchor:start;fill:#a1a1a1;fill-opacity:1;stroke:none;stroke-width:4.67674017"
     d="m 214.13456,310.65064 h 18.17717 l -51.60856,128.15364 h -3.92773 L 135.03188,335.03911 92.922949,438.80428 H 88.995218 L 37.569344,310.65064 h 18.359859 l 35.166894,87.9629 35.349583,-87.9629 h 17.35509 l 35.53226,87.9629 z"
     sodipodi:nodetypes="cccccccccccccc" />
  <path
     inkscape:connector-curvature="0"
     id="path868"
     style="font-style:normal;font-variant:normal;font-weight:normal;font-stretch:normal;font-size:187.0696106px;line-height:1.25;font-family:'Gill Sans MT';-inkscape-font-specification:'Gill Sans MT, Normal';font-variant-ligatures:normal;font-variant-caps:normal;font-variant-numeric:normal;font-feature-settings:normal;text-align:start;letter-spacing:0px;word-spacing:0px;writing-mode:lr-tb;text-anchor:start;fill:#a1a1a1;fill-opacity:1;stroke:none;stroke-width:4.67674017"
     d="m 267.84399,354.03836 q 19.18195,0 31.87857,12.4226 12.69661,12.33124 12.69661,31.05647 0,18.17718 -12.8793,30.2344 -12.8793,11.96588 -32.42662,11.96588 -18.90791,0 -31.60453,-12.14857 -12.69662,-12.2399 -12.69662,-30.50842 0,-18.4512 12.78796,-30.69111 12.87931,-12.33125 32.24393,-12.33125 z m -0.91342,14.98019 q -11.96588,0 -19.63866,7.85546 -7.67277,7.85546 -7.67277,20.00403 0,12.05722 7.85546,19.72999 7.85546,7.58144 20.18671,7.58144 12.2399,0 20.00402,-7.67278 7.85547,-7.76412 7.85547,-19.82134 0,-11.96588 -8.12949,-19.82134 -8.12949,-7.85546 -20.46074,-7.85546 z" />
  <path
     inkscape:connector-curvature="0"
     id="path870"
     style="font-style:normal;font-variant:normal;font-weight:normal;font-stretch:normal;font-size:187.0696106px;line-height:1.25;font-family:'Gill Sans MT';-inkscape-font-specification:'Gill Sans MT, Normal';font-variant-ligatures:normal;font-variant-caps:normal;font-variant-numeric:normal;font-feature-settings:normal;text-align:start;letter-spacing:0px;word-spacing:0px;writing-mode:lr-tb;text-anchor:start;fill:#a1a1a1;fill-opacity:1;stroke:none;stroke-width:4.67674017"
     d="m 348.86487,354.22105 v 19.27328 l 0.91343,-1.46148 c 8.03815,-12.97065 16.07629,-19.45597 24.11444,-19.45597 6.27219,0 12.81841,3.16654 19.63865,9.49963 l -8.76888,14.61481 c -5.78503,-5.48055 -11.1438,-8.22083 -16.0763,-8.22083 -5.35877,0 -10.01724,2.55759 -13.97541,7.67278 -3.89729,5.11519 -5.84593,11.17424 -5.84593,18.17717 v 43.93579 h -16.71569 v -84.03518 z"
     sodipodi:nodetypes="cccsccscscccc" />
  <path
     inkscape:connector-curvature="0"
     id="path872"
     style="font-style:normal;font-variant:normal;font-weight:normal;font-stretch:normal;font-size:187.0696106px;line-height:1.25;font-family:'Gill Sans MT';-inkscape-font-specification:'Gill Sans MT, Normal';font-variant-ligatures:normal;font-variant-caps:normal;font-variant-numeric:normal;font-feature-settings:normal;text-align:start;letter-spacing:0px;word-spacing:0px;writing-mode:lr-tb;text-anchor:start;fill:#a1a1a1;fill-opacity:1;stroke:none;stroke-width:4.67674017"
     d="m 453.8461,354.22105 h 19.82134 l -35.89764,41.1955 43.20505,42.83968 h -22.28759 l -42.10894,-42.83968 z m -48.62287,-43.57041 h 16.62435 v 127.60559 h -16.62435 z"
     sodipodi:nodetypes="cccccccccccc" />
  <path
     inkscape:connector-curvature="0"
     id="path874"
     style="font-style:normal;font-variant:normal;font-weight:normal;font-stretch:normal;font-size:187.0696106px;line-height:1.25;font-family:'Gill Sans MT';-inkscape-font-specification:'Gill Sans MT, Normal';font-variant-ligatures:normal;font-variant-caps:normal;font-variant-numeric:normal;font-feature-settings:normal;text-align:start;letter-spacing:0px;word-spacing:0px;writing-mode:lr-tb;text-anchor:start;fill:#a1a1a1;fill-opacity:1;stroke:none;stroke-width:4.67674017"
     d="m 488.62856,432.22762 v -17.90315 q 7.03338,4.9325 14.34079,8.03815 7.39875,3.0143 12.42259,3.0143 5.20653,0 8.95157,-2.55759 3.74505,-2.55759 3.74505,-6.11995 0,-3.65371 -2.46625,-6.02861 -2.37491,-2.46625 -10.41305,-7.03338 -16.0763,-8.95158 -21.10014,-15.25421 -4.9325,-6.39399 -4.9325,-13.88408 0,-9.68231 7.49009,-15.80226 7.58144,-6.11996 19.45597,-6.11996 12.33125,0 25.3019,6.94204 v 16.44166 q -14.7975,-8.95157 -24.20579,-8.95157 -4.84115,0 -7.85546,2.10088 -2.92296,2.00954 -2.92296,5.38921 0,2.92297 2.64893,5.5719 2.74028,2.64893 9.49963,6.39398 l 5.93727,3.37968 q 21.00879,11.87453 21.00879,26.30666 0,10.32171 -8.12949,16.98972 -8.03814,6.57667 -20.73476,6.57667 -7.49009,0 -13.33602,-1.55283 -5.84592,-1.64416 -14.70616,-5.93726 z" />
  <text
     xml:space="preserve"
     style="font-style:normal;font-weight:normal;font-size:40px;line-height:1.25;font-family:sans-serif;letter-spacing:0px;word-spacing:0px;fill:#000000;fill-opacity:1;stroke:none"
     x="360.59451"
     y="64.74086"
     id="text4606"><tspan
       sodipodi:role="line"
       id="tspan4604"
       x="360.59451"
       y="101.23407" /></text>
  <path
     inkscape:connector-curvature="0"
     id="path4630"
     style="font-style:normal;font-variant:normal;font-weight:normal;font-stretch:normal;font-size:186.66667175px;line-height:1.25;font-family:'Gill Sans MT';-inkscape-font-specification:'Gill Sans MT, Normal';font-variant-ligatures:normal;font-variant-caps:normal;font-variant-numeric:normal;font-feature-settings:normal;text-align:start;letter-spacing:0px;word-spacing:0px;writing-mode:lr-tb;text-anchor:start;fill:#a1a1a1;fill-opacity:1;stroke:none"
     d="m 222.23671,97.288149 h 18.13802 L 188.87734,225.16576 h -3.91927 L 143.30442,121.62409 101.28619,225.16576 H 97.366917 L 46.051811,97.288149 H 64.372124 L 99.463271,185.06159 134.73671,97.288149 h 17.31771 l 35.45573,87.773441 z"
     sodipodi:nodetypes="cccccccccccccc" />
  <path
     inkscape:connector-curvature="0"
     id="path4632"
     style="font-style:normal;font-variant:normal;font-weight:normal;font-stretch:normal;font-size:186.66667175px;line-height:1.25;font-family:'Gill Sans MT';-inkscape-font-specification:'Gill Sans MT, Normal';font-variant-ligatures:normal;font-variant-caps:normal;font-variant-numeric:normal;font-feature-settings:normal;text-align:start;letter-spacing:0px;word-spacing:0px;writing-mode:lr-tb;text-anchor:start;fill:#a1a1a1;fill-opacity:1;stroke:none"
     d="m 294.1052,174.21523 v 35.63803 c 0,2.8559 0.97222,4.28385 2.91667,4.28385 2.00521,0 9.38802,-4.46615 9.38802,-4.46615 v 10.11719 c 0,0 -6.80556,4.07119 -9.11459,4.92188 -2.24826,0.91145 -4.61805,1.36718 -7.10937,1.36718 -7.10938,0 -12.57813,-8.38541 -12.57813,-8.38541 0,0 -14.55295,8.20312 -22.51302,8.20312 -5.83333,0 -10.69444,-1.91406 -14.58333,-5.74218 -3.88889,-3.88889 -5.83334,-8.75001 -5.83334,-14.58334 0,-5.28646 1.88368,-9.99566 5.65105,-14.1276 3.82812,-4.19271 9.2361,-7.50435 16.22395,-9.9349 l 21.23698,-7.29167 v -4.46614 c 0,-10.08681 -5.0434,-15.13021 -15.1302,-15.13021 -9.05382,0 -26.4323,14.03646 -26.4323,14.03646 v -18.13802 c 0,0 15.70747,-11.39323 27.79948,-11.39323 9.05382,0 16.31511,2.36979 21.78386,7.10937 1.82291,1.5191 3.46354,3.55469 4.92187,6.10677 1.45833,2.49132 2.36979,5.01302 2.73438,7.56511 0.42535,2.49132 0.63802,7.26128 0.63802,14.30989 z m -16.31511,33.81511 v -24.88281 l -11.11979,4.28385 c -5.65104,2.24827 -9.66146,4.52691 -12.03125,6.83594 -2.30903,2.24826 -3.46354,5.07378 -3.46354,8.47656 0,3.46354 1.09375,6.28906 3.28125,8.47656 2.24827,2.1875 5.13455,3.28125 8.65885,3.28125 5.28646,0 14.67448,-6.47135 14.67448,-6.47135 z"
     sodipodi:nodetypes="ssscccscscscccssccscccsccccscsc" />
  <path
     inkscape:connector-curvature="0"
     id="path4634"
     style="font-style:normal;font-variant:normal;font-weight:normal;font-stretch:normal;font-size:186.66667175px;line-height:1.25;font-family:'Gill Sans MT';-inkscape-font-specification:'Gill Sans MT, Normal';font-variant-ligatures:normal;font-variant-caps:normal;font-variant-numeric:normal;font-feature-settings:normal;text-align:start;letter-spacing:0px;word-spacing:0px;writing-mode:lr-tb;text-anchor:start;fill:#a1a1a1;fill-opacity:1;stroke:none"
     d="m 309.64556,154.072 31.17188,-30.625 v 17.31771 h 26.52344 v 14.94792 h -26.52344 v 41.10677 c 0,9.60069 3.98003,14.40104 11.9401,14.40104 5.95486,0 18.86719,-6.01562 18.86719,-6.01562 v 15.49479 c 0,0 -13.33767,5.3776 -20.8724,5.3776 -7.59549,0 -13.91493,-2.21788 -18.95833,-6.65364 -1.57986,-1.33681 -2.88628,-2.82552 -3.91927,-4.46615 -1.03299,-1.70139 -1.91406,-3.88889 -2.64323,-6.5625 -0.66841,-2.73437 -1.00261,-7.8993 -1.00261,-15.49479 v -37.1875 h -14.58333 z"
     sodipodi:nodetypes="ccccccssccscccsccc" />
  <path
     inkscape:connector-curvature="0"
     id="path4636"
     style="font-style:normal;font-variant:normal;font-weight:normal;font-stretch:normal;font-size:186.66667175px;line-height:1.25;font-family:'Gill Sans MT';-inkscape-font-specification:'Gill Sans MT, Normal';font-variant-ligatures:normal;font-variant-caps:normal;font-variant-numeric:normal;font-feature-settings:normal;text-align:start;letter-spacing:0px;word-spacing:0px;writing-mode:lr-tb;text-anchor:start;fill:#a1a1a1;fill-opacity:1;stroke:none"
     d="M 455.20546,184.15013 H 396.2341 c 0,0 3.09896,14.40104 8.02084,19.14063 4.98264,4.73958 11.39323,7.10937 19.23177,7.10937 10.9375,0 30.26042,-10.20833 30.26042,-10.20833 v 16.22396 c 0,0 -10.17795,5.83333 -15.22136,7.29166 -4.98264,1.45833 -10.84635,2.1875 -17.59114,2.1875 -9.23611,0 -16.71007,-1.91406 -22.42188,-5.74218 -5.71181,-3.82813 -10.29948,-8.96268 -13.76302,-15.40365 -3.40278,-6.50174 -5.10417,-14.00608 -5.10417,-22.51302 0,-12.76042 3.61545,-23.12066 10.84636,-31.08073 7.2309,-8.02083 16.61892,-12.03125 28.16406,-12.03125 11.11979,0 19.99132,3.88889 26.61458,11.66666 6.62327,7.77778 9.9349,18.19879 9.9349,31.26303 z m -58.60677,-9.9349 h 42.20052 c 0,0 -2.40017,-11.72743 -5.92448,-15.3125 -3.52431,-3.58507 -8.26389,-5.3776 -14.21875,-5.3776 -5.95486,0 -10.84635,1.79253 -14.67448,5.3776 -3.76736,3.58507 -7.38281,15.3125 -7.38281,15.3125 z"
     sodipodi:nodetypes="cccscccsscscssscccsscc" />
  <path
     inkscape:connector-curvature="0"
     id="path4638"
     style="font-style:normal;font-variant:normal;font-weight:normal;font-stretch:normal;font-size:186.66667175px;line-height:1.25;font-family:'Gill Sans MT';-inkscape-font-specification:'Gill Sans MT, Normal';font-variant-ligatures:normal;font-variant-caps:normal;font-variant-numeric:normal;font-feature-settings:normal;text-align:start;letter-spacing:0px;word-spacing:0px;writing-mode:lr-tb;text-anchor:start;fill:#a1a1a1;fill-opacity:1;stroke:none"
     d="m 490.8435,140.76471 v 19.23177 l 0.91146,-1.45833 c 8.02083,-12.94271 16.04167,-19.41406 24.0625,-19.41406 6.25868,0 19.59635,9.47916 19.59635,9.47916 l -8.75,14.58334 c 0,0 -11.11979,-8.20313 -16.04166,-8.20313 -5.34723,0 -9.99567,2.55208 -13.94532,7.65625 -3.88889,5.10417 -5.83333,11.15017 -5.83333,18.13802 v 43.84115 h -16.67969 v -83.85417 z"
     sodipodi:nodetypes="cccsccscscccc" />
</svg>
