<?xml version="1.0" encoding="UTF-8" standalone="no"?>
<svg
   xmlns:dc="http://purl.org/dc/elements/1.1/"
   xmlns:cc="http://creativecommons.org/ns#"
   xmlns:rdf="http://www.w3.org/1999/02/22-rdf-syntax-ns#"
   xmlns:svg="http://www.w3.org/2000/svg"
   xmlns="http://www.w3.org/2000/svg"
   xmlns:sodipodi="http://sodipodi.sourceforge.net/DTD/sodipodi-0.dtd"
   xmlns:inkscape="http://www.inkscape.org/namespaces/inkscape"
   viewBox="0 0 580 580"
   height="580"
   width="580"
   version="1.0"
   id="svg2912"
   sodipodi:docname="well.svg"
   inkscape:version="0.92.4 (5da689c313, 2019-01-14)">
  <defs
     id="defs2916" />
  <sodipodi:namedview
     pagecolor="#ffffff"
     bordercolor="#666666"
     borderopacity="1"
     objecttolerance="10"
     gridtolerance="10"
     guidetolerance="10"
     inkscape:pageopacity="0"
     inkscape:pageshadow="2"
     inkscape:window-width="1920"
     inkscape:window-height="1017"
     id="namedview2914"
     showgrid="false"
     inkscape:zoom="1.1508772"
     inkscape:cx="285.83357"
     inkscape:cy="274.70879"
     inkscape:window-x="-8"
     inkscape:window-y="-8"
     inkscape:window-maximized="1"
     inkscape:current-layer="svg2912" />
  <metadata
     id="metadata13">
    <rdf:RDF>
      <cc:Work
         rdf:about="">
        <dc:format>image/svg+xml</dc:format>
        <dc:type
           rdf:resource="http://purl.org/dc/dcmitype/StillImage" />
      </cc:Work>
    </rdf:RDF>
  </metadata>
  <g
     aria-label="W"
     style="font-style:normal;font-variant:normal;font-weight:normal;font-stretch:normal;font-size:219.45361328px;line-height:1.25;font-family:'Gill Sans MT';-inkscape-font-specification:'Gill Sans MT, Normal';font-variant-ligatures:normal;font-variant-caps:normal;font-variant-numeric:normal;font-feature-settings:normal;text-align:start;letter-spacing:0px;word-spacing:0px;writing-mode:lr-tb;text-anchor:start;fill:#0098e3;fill-opacity:0.78431374;stroke:none;stroke-width:5.48634052"
     id="text4098"
     transform="translate(-9.5579264,-122.08079)">
    <path
       d="m 564.24969,329.84138 h 21.32386 l -60.54262,150.33858 h -4.60767 l -48.96987,-121.72818 -49.3985,121.72818 h -4.60767 L 357.11891,329.84138 h 21.53817 l 41.25471,103.19034 41.46902,-103.19034 h 20.35946 l 41.68333,103.19034 z"
       style="fill:#0098e3;fill-opacity:0.78431374;stroke-width:5.48634052"
       id="path4100"
       inkscape:connector-curvature="0" />
  </g>
  <path
     style="opacity:1;fill:#0098e3;fill-opacity:0.78431374;stroke:none;stroke-width:10;stroke-linejoin:round;stroke-miterlimit:4;stroke-dasharray:none;stroke-opacity:1;paint-order:markers fill stroke"
     d="m 287.6067,257.63767 a 30.411585,30.411585 0 0 0 -30.41211,30.41211 30.411585,30.411585 0 0 0 30.41211,30.41015 30.411585,30.411585 0 0 0 30.41211,-30.41015 30.411585,30.411585 0 0 0 -30.41211,-30.41211 z m 0,13.25 a 17.160822,17.160822 0 0 1 17.16015,17.16211 17.160822,17.160822 0 0 1 -17.16015,17.16015 17.160822,17.160822 0 0 1 -17.16016,-17.16015 17.160822,17.160822 0 0 1 17.16016,-17.16211 z"
     id="path4824"
     inkscape:connector-curvature="0" />
</svg>
