<?xml version="1.0" encoding="UTF-8" standalone="no"?>
<svg
   xmlns:dc="http://purl.org/dc/elements/1.1/"
   xmlns:cc="http://creativecommons.org/ns#"
   xmlns:rdf="http://www.w3.org/1999/02/22-rdf-syntax-ns#"
   xmlns:svg="http://www.w3.org/2000/svg"
   xmlns="http://www.w3.org/2000/svg"
   xmlns:sodipodi="http://sodipodi.sourceforge.net/DTD/sodipodi-0.dtd"
   xmlns:inkscape="http://www.inkscape.org/namespaces/inkscape"
   height="580"
   width="580"
   version="1.0"
   id="svg3737"
   sodipodi:docname="windmill.svg"
   inkscape:version="0.92.4 (5da689c313, 2019-01-14)">
  <defs
     id="defs3741" />
  <sodipodi:namedview
     pagecolor="#ffffff"
     bordercolor="#666666"
     borderopacity="1"
     objecttolerance="10"
     gridtolerance="10"
     guidetolerance="10"
     inkscape:pageopacity="0"
     inkscape:pageshadow="2"
     inkscape:window-width="1920"
     inkscape:window-height="1017"
     id="namedview3739"
     showgrid="false"
     inkscape:zoom="1.1508772"
     inkscape:cx="155.23242"
     inkscape:cy="213.74303"
     inkscape:window-x="-8"
     inkscape:window-y="-8"
     inkscape:window-maximized="1"
     inkscape:current-layer="svg3737" />
  <metadata
     id="metadata10">
    <rdf:RDF>
      <cc:Work
         rdf:about="">
        <dc:format>image/svg+xml</dc:format>
        <dc:type
           rdf:resource="http://purl.org/dc/dcmitype/StillImage" />
        <dc:title></dc:title>
      </cc:Work>
    </rdf:RDF>
  </metadata>
  <path
     style="fill:#231f20;fill-opacity:1;fill-rule:evenodd;stroke:none;stroke-width:65.06655121"
     d="M 133.13286,9.2276602 106.58618,36.426141 263.52592,193.49578 107.17185,349.85221 l 26.61281,26.67657 40.21087,-39.69131 c 21.6021,48.27937 25.89561,122.39085 15.48497,179.97473 -3.18826,19.06451 -8.13358,36.43855 -16.13677,50.03747 h 233.71989 c -33.44421,-55.6319 -28.49914,-172.4274 0,-231.11743 L 447.7964,376.52878 474.40684,349.85221 317.92288,193.49578 474.99251,36.426141 448.44584,9.2276602 290.7244,167.60091 Z M 290.7244,220.04482 370.56045,299.751 c -22.90342,57.58389 -40.14536,144.77265 -22.90273,230.00983 H 231.38463 c 16.7221,-85.23718 -0.002,-170.66916 -22.18954,-228.12293 z"
     id="path18913"
     inkscape:connector-curvature="0" />
</svg>
