<?xml version="1.0" encoding="UTF-8" standalone="no"?>
<svg
   xmlns:dc="http://purl.org/dc/elements/1.1/"
   xmlns:cc="http://creativecommons.org/ns#"
   xmlns:rdf="http://www.w3.org/1999/02/22-rdf-syntax-ns#"
   xmlns:svg="http://www.w3.org/2000/svg"
   xmlns="http://www.w3.org/2000/svg"
   xmlns:sodipodi="http://sodipodi.sourceforge.net/DTD/sodipodi-0.dtd"
   xmlns:inkscape="http://www.inkscape.org/namespaces/inkscape"
   version="1.0"
   width="580"
   height="580"
   id="svg959"
   sodipodi:docname="zoo-night.svg"
   inkscape:version="0.92.4 (5da689c313, 2019-01-14)">
  <defs
     id="defs963" />
  <sodipodi:namedview
     pagecolor="#ffffff"
     bordercolor="#666666"
     borderopacity="1"
     objecttolerance="10"
     gridtolerance="10"
     guidetolerance="10"
     inkscape:pageopacity="0"
     inkscape:pageshadow="2"
     inkscape:window-width="1920"
     inkscape:window-height="1017"
     id="namedview961"
     showgrid="false"
     inkscape:zoom="1.1508772"
     inkscape:cx="66.004045"
     inkscape:cy="120.79623"
     inkscape:window-x="-8"
     inkscape:window-y="-8"
     inkscape:window-maximized="1"
     inkscape:current-layer="svg959" />
  <metadata
     id="metadata2975">
    <rdf:RDF>
      <cc:Work
         rdf:about="">
        <dc:format>image/svg+xml</dc:format>
        <dc:type
           rdf:resource="http://purl.org/dc/dcmitype/StillImage" />
        <dc:title></dc:title>
      </cc:Work>
    </rdf:RDF>
  </metadata>
  <path
     id="path8068"
     d="m 87.505,375.64 c 35.635,3.06 -13.207,-46.2 -19.786,-14.48 -4.125,25.69 -18.568,-15.05 -8.712,-24.03 13.302,-23.39 17.071,-49.72 25.857,-74.65 9.025,-25.29 36.856,-27.82 57.226,-38.6 27.57,-15.02 33.12,32.17 34.07,50.52 -3.47,21.82 -11.7,42.16 -15.56,64.09 -5.18,20.38 -14.16,40.45 -14.33,61.59 -7.47,14.7 -44.14,39.64 -11.63,49.01 20.81,3.47 61.98,8.69 61.93,-21.86 -6.87,-26.24 16.98,-40.68 22.55,-63.52 0.65,-7.86 11.93,-25.32 9.49,-6.38 0.91,27.86 32.11,53.55 10.13,79.41 -15.08,22.86 11.91,40.23 31.26,26.26 23.58,-1.04 53.94,-17.94 35.31,-44.13 -3.1,-28.64 -4.87,-57.27 -14.21,-84.38 0.36,-28.62 27.92,-16 41.53,-5.51 28.76,5.35 35.41,32.13 34.85,56.66 -3.03,18.34 -33.19,39.77 -0.49,47.55 24.4,4.6 66.35,9.43 64.86,-27.17 4.82,-13.92 -9.46,-47.75 3.96,-50.26 10.05,21.87 40.28,53.84 13.1,74.5 -22.65,22.11 14.37,35.12 32.76,33.53 35.32,10.48 50.8,-26.96 43.56,-55.81 -1.62,-24.34 -16.1,-46.02 -8.89,-70.7 2.63,-20.8 2.83,-41.92 -0.29,-62.6 5.07,-26.67 9.1,17.15 8.2,25.86 0,23.59 -3.1,47.75 3.44,70.82 -8.33,12.51 19.07,40.85 15.13,13.96 -16.93,-34.89 -0.11,-72.36 -0.35,-108.6 2.38,-36.97 -7.45,-78.32 -39.76,-100.3 -23.79,-18.44 -50.52,-32.71 -75.65,-49.04 -30.65,-12.04 -64.21,-0.37 -95.61,-8.52 -28.56,-4.37 -57.49,-6.2 -86.27,-7.09 -34.24,-7.48 -61.83,-40.913 -99.24,-33.193 -31.62,7.856 -53.604,35.313 -74.85,58.063 -15.776,25.62 -14.665,57.3 -28.49,83.83 -10.34,23.23 -15.448,49.23 -8.848,74.22 2.512,25.97 -5.456,51.55 -4.003,77.5 6.15,25.33 53.848,36.08 57.756,3.45 z"
     opacity="0.8"
     fill="none"
     stroke="#ffffff"
     stroke-linejoin="round"
     stroke-linecap="round"
     stroke-width="41.971"
     style="stroke:#373737;stroke-opacity:1;fill:#373737;fill-opacity:1" />
  <path
     d="m 87.505,375.64 c 35.635,3.06 -13.207,-46.2 -19.786,-14.48 -4.125,25.69 -18.568,-15.05 -8.712,-24.03 13.302,-23.39 17.071,-49.72 25.857,-74.65 9.025,-25.29 36.856,-27.82 57.226,-38.6 27.57,-15.02 33.12,32.17 34.07,50.52 -3.47,21.82 -11.7,42.16 -15.56,64.09 -5.18,20.38 -14.16,40.45 -14.33,61.59 -7.47,14.7 -44.14,39.64 -11.63,49.01 20.81,3.47 61.98,8.69 61.93,-21.86 -6.87,-26.24 16.98,-40.68 22.55,-63.52 0.65,-7.86 11.93,-25.32 9.49,-6.38 0.91,27.86 32.11,53.55 10.13,79.41 -15.08,22.86 11.91,40.23 31.26,26.26 23.58,-1.04 53.94,-17.94 35.31,-44.13 -3.1,-28.64 -4.87,-57.27 -14.21,-84.38 0.36,-28.62 27.92,-16 41.53,-5.51 28.76,5.35 35.41,32.13 34.85,56.66 -3.03,18.34 -33.19,39.77 -0.49,47.55 24.4,4.6 66.35,9.43 64.86,-27.17 4.82,-13.92 -9.46,-47.75 3.96,-50.26 10.05,21.87 40.28,53.84 13.1,74.5 -22.65,22.11 14.37,35.12 32.76,33.53 35.32,10.48 50.8,-26.96 43.56,-55.81 -1.62,-24.34 -16.1,-46.02 -8.89,-70.7 2.63,-20.8 2.83,-41.92 -0.29,-62.6 5.07,-26.67 9.1,17.15 8.2,25.86 0,23.59 -3.1,47.75 3.44,70.82 -8.33,12.51 19.07,40.85 15.13,13.96 -16.93,-34.89 -0.11,-72.36 -0.35,-108.6 2.38,-36.97 -7.45,-78.32 -39.76,-100.3 -23.79,-18.44 -50.52,-32.71 -75.65,-49.04 -30.65,-12.04 -64.21,-0.37 -95.61,-8.52 -28.56,-4.37 -57.49,-6.2 -86.27,-7.09 -34.24,-7.48 -61.83,-40.913 -99.24,-33.193 -31.62,7.856 -53.604,35.313 -74.85,58.063 -15.776,25.62 -14.665,57.3 -28.49,83.83 -10.34,23.23 -15.448,49.23 -8.848,74.22 2.512,25.97 -5.456,51.55 -4.003,77.5 6.15,25.33 53.848,36.08 57.756,3.45 z"
     id="path6"
     inkscape:connector-curvature="0"
     fill="#734a08"
     style="fill:#0393da;fill-opacity:1" />
</svg>
