<?xml version="1.0" encoding="UTF-8" standalone="no"?>
<!DOCTYPE svg PUBLIC "-//W3C//DTD SVG 1.1//EN" "http://www.w3.org/Graphics/SVG/1.1/DTD/svg11.dtd">
<svg width="100%" height="100%" viewBox="0 0 580 580" version="1.1" xmlns="http://www.w3.org/2000/svg" xmlns:xlink="http://www.w3.org/1999/xlink" xml:space="preserve" xmlns:serif="http://www.serif.com/" style="fill-rule:evenodd;clip-rule:evenodd;stroke-linejoin:round;stroke-miterlimit:2;">
    <g transform="matrix(4.15756,0,0,6.05178,-286.043,-1934.03)">
        <rect x="65.716" y="318.432" width="145.582" height="98.978" style="fill:rgb(244,251,239);fill-opacity:0.8;"/>
    </g>
    <g transform="matrix(-0.297334,0.26782,-0.520292,-0.577628,409.218,397.721)">
        <path d="M25.508,101.398C55.315,76.936 107.86,81.278 136.692,90.428C178.772,103.782 175.994,148.873 118.105,159.695C58.028,170.926 -47.673,161.456 25.508,101.398Z" style="fill:rgb(216,232,156);"/>
    </g>
    <g transform="matrix(-0.277357,-0.204864,0.310797,-0.420776,43.8602,538.806)">
        <path d="M32.781,107.65C51.471,73.922 112.093,72.824 136.692,90.428C152.599,101.812 160.274,137.556 130.53,151.574C100.786,165.591 10.018,148.728 32.781,107.65Z" style="fill:rgb(216,232,156);"/>
    </g>
    <g transform="matrix(-0.590638,0.0695138,-0.11951,-1.01544,567.105,595.606)">
        <path d="M32.781,107.65C51.471,73.922 112.093,72.824 136.692,90.428C152.599,101.812 160.274,137.556 130.53,151.574C100.786,165.591 10.018,148.728 32.781,107.65Z" style="fill:rgb(216,232,156);"/>
    </g>
    <g transform="matrix(-0.404283,0.0565743,-0.0934488,-0.667791,95.6538,385.753)">
        <path d="M32.781,107.65C51.471,73.922 112.093,72.824 136.692,90.428C152.599,101.812 160.274,137.556 130.53,151.574C100.786,165.591 10.018,148.728 32.781,107.65Z" style="fill:rgb(216,232,156);"/>
    </g>
    <g transform="matrix(-0.353975,0.236229,-0.267086,-0.400213,388.557,294.003)">
        <path d="M32.781,107.65C51.471,73.922 112.093,72.824 136.692,90.428C152.599,101.812 160.274,137.556 130.53,151.574C100.786,165.591 10.018,148.728 32.781,107.65Z" style="fill:rgb(216,232,156);"/>
    </g>
    <g transform="matrix(-0.182309,0.384533,-0.434763,-0.206124,296.302,416.005)">
        <path d="M32.781,107.65C51.471,73.922 112.093,72.824 136.692,90.428C152.599,101.812 160.274,137.556 130.53,151.574C100.786,165.591 10.018,148.728 32.781,107.65Z" style="fill:rgb(216,232,156);"/>
    </g>
    <g transform="matrix(0.211204,-0.274228,0.368151,0.283542,421.595,27.8318)">
        <path d="M32.781,107.65C51.471,73.922 112.093,72.824 136.692,90.428C152.599,101.812 160.274,137.556 130.53,151.574C100.786,165.591 10.018,148.728 32.781,107.65Z" style="fill:rgb(216,232,156);"/>
    </g>
    <g transform="matrix(0.291704,0.211111,-0.243832,0.336917,254.435,48.4715)">
        <path d="M32.781,107.65C51.471,73.922 112.093,72.824 136.692,90.428C152.599,101.812 160.274,137.556 130.53,151.574C100.786,165.591 10.018,148.728 32.781,107.65Z" style="fill:rgb(216,232,156);"/>
    </g>
    <g transform="matrix(0.726105,0,0,0.982823,64.1858,292.67)">
        <path d="M34.402,121.023C18.953,85.693 112.093,72.824 136.692,90.428C152.599,101.812 137.905,134.076 109.815,151.169C94.447,160.52 47.303,150.524 34.402,121.023Z" style="fill:rgb(216,232,156);"/>
    </g>
    <g transform="matrix(0.83574,0,0,1.32373,222.466,357.316)">
        <path d="M35.946,110.048C47.208,80.333 106.411,71.675 138.208,101.24C147.712,110.077 156.554,145.021 128.589,151.301C96.979,158.401 21.667,147.722 35.946,110.048Z" style="fill:rgb(216,232,156);"/>
    </g>
    <g transform="matrix(0.637513,0,0,1.15117,428.877,178.223)">
        <path d="M32.781,107.65C27.566,69.444 109.576,77.021 136.692,90.428C166.203,105.019 143.483,149.204 122.126,152.557C101.346,155.819 39.357,155.825 32.781,107.65Z" style="fill:rgb(216,232,156);"/>
    </g>
    <g transform="matrix(1,0,0,1,114.008,116.895)">
        <path d="M32.781,107.65C47.491,76.66 69.521,86.092 79.862,93.703C96.001,105.583 92.955,131.996 85.931,139.056C69.973,155.096 17.133,140.617 32.781,107.65Z" style="fill:rgb(216,232,156);"/>
    </g>
    <path d="M32.781,107.65C51.471,73.922 112.093,72.824 136.692,90.428C152.599,101.812 160.274,137.556 130.53,151.574C100.786,165.591 10.018,148.728 32.781,107.65Z" style="fill:rgb(216,232,156);"/>
    <g transform="matrix(1,0,0,1,329.587,29.3968)">
        <path d="M32.781,107.65C51.471,73.922 94.885,82.983 122.667,94.95C173.38,116.794 139.064,166.295 107.346,174.966C69.883,185.207 10.018,148.728 32.781,107.65Z" style="fill:rgb(216,232,156);"/>
    </g>
</svg>
