<?xml version="1.0" encoding="UTF-8" standalone="no"?>
<!DOCTYPE svg PUBLIC "-//W3C//DTD SVG 1.1//EN" "http://www.w3.org/Graphics/SVG/1.1/DTD/svg11.dtd">
<svg width="100%" height="100%" viewBox="0 0 580 580" version="1.1" xmlns="http://www.w3.org/2000/svg" xmlns:xlink="http://www.w3.org/1999/xlink" xml:space="preserve" xmlns:serif="http://www.serif.com/" style="fill-rule:evenodd;clip-rule:evenodd;stroke-linejoin:round;stroke-miterlimit:2;">
    <g transform="matrix(4.15756,0,0,6.05178,-286.043,-1934.03)">
        <rect x="65.716" y="318.432" width="145.582" height="98.978" style="fill:rgb(207,228,198);fill-opacity:0.8"/>
    </g>
    <g transform="matrix(4.84428,0,0,4.84428,353.212,263.49)">
        <path d="M13.263,11.026C10.58,16.099 7.896,21.172 5.212,26.244C6.432,26.056 7.652,25.868 8.872,25.679C7.251,27.544 5.63,29.409 4.009,31.274C5.438,31.005 6.867,30.737 8.296,30.468C6.264,32.393 4.232,34.317 2.2,36.241C5.173,35.838 8.147,35.435 11.12,35.032L11.12,42.827L13.111,42.827C13.162,32.226 13.213,21.626 13.263,11.026ZM13.133,11.566L13.133,42.826L15.123,42.826L15.123,35.032C18.055,35.461 20.988,35.89 23.92,36.319C22.072,34.369 20.225,32.419 18.378,30.468C19.664,30.737 20.95,31.005 22.236,31.274C20.639,29.44 19.042,27.607 17.446,25.774C18.689,25.924 19.932,26.073 21.175,26.223C18.494,21.337 15.814,16.452 13.133,11.566Z" style="fill-opacity:0.05;fill-rule:nonzero;"/>
    </g>
    <g transform="matrix(4.84428,0,0,4.84428,119.496,27.0752)">
        <path d="M13.263,11.026C10.58,16.099 7.896,21.172 5.212,26.244C6.432,26.056 7.652,25.868 8.872,25.679C7.251,27.544 5.63,29.409 4.009,31.274C5.438,31.005 6.867,30.737 8.296,30.468C6.264,32.393 4.232,34.317 2.2,36.241C5.173,35.838 8.147,35.435 11.12,35.032L11.12,42.827L13.111,42.827C13.162,32.226 13.213,21.626 13.263,11.026ZM13.133,11.566L13.133,42.826L15.123,42.826L15.123,35.032C18.055,35.461 20.988,35.89 23.92,36.319C22.072,34.369 20.225,32.419 18.378,30.468C19.664,30.737 20.95,31.005 22.236,31.274C20.639,29.44 19.042,27.607 17.446,25.774C18.689,25.924 19.932,26.073 21.175,26.223C18.494,21.337 15.814,16.452 13.133,11.566Z" style="fill-opacity:0.05;fill-rule:nonzero;"/>
    </g>
</svg>
