<?xml version="1.0" encoding="UTF-8" standalone="no"?>
<!DOCTYPE svg PUBLIC "-//W3C//DTD SVG 1.1//EN" "http://www.w3.org/Graphics/SVG/1.1/DTD/svg11.dtd">
<svg width="100%" height="100%" viewBox="0 0 580 580" version="1.1" xmlns="http://www.w3.org/2000/svg" xmlns:xlink="http://www.w3.org/1999/xlink" xml:space="preserve" xmlns:serif="http://www.serif.com/" style="fill-rule:evenodd;clip-rule:evenodd;stroke-linejoin:round;stroke-miterlimit:2;">
    <g transform="matrix(4.15756,0,0,6.05178,-286.043,-1934.03)">
        <rect x="65.716" y="318.432" width="145.582" height="98.978" style="fill:rgb(207,228,198);fill-opacity:0.8"/>
    </g>
    <g transform="matrix(0.196359,0,0,0.196359,338.22,317.301)">
        <path d="M634.57,81.808C596.112,81.808 564.824,113.096 564.824,151.554L564.824,283.653C564.824,323.064 535.942,355.842 498.235,361.968L498.235,98.235C498.235,44.068 454.167,0 400,0C345.833,0 301.765,44.068 301.765,98.235L301.765,475.925C264.058,469.799 235.176,437.021 235.176,397.61L235.176,265.511C235.176,227.054 203.888,195.765 165.43,195.765C126.972,195.765 95.683,227.052 95.683,265.511L95.683,397.61C95.683,513.995 187.011,609.454 301.763,616.089L301.763,774.468L498.235,774.468L498.235,502.129C612.987,495.494 704.315,400.037 704.315,283.651L704.315,151.552C704.317,113.094 673.028,81.808 634.57,81.808Z" style="fill-opacity:0.1;fill-rule:nonzero;"/>
    </g>
    <g transform="matrix(0.196359,0,0,0.196359,104.521,84.1443)">
        <path d="M634.57,81.808C596.112,81.808 564.824,113.096 564.824,151.554L564.824,283.653C564.824,323.064 535.942,355.842 498.235,361.968L498.235,98.235C498.235,44.068 454.167,0 400,0C345.833,0 301.765,44.068 301.765,98.235L301.765,475.925C264.058,469.799 235.176,437.021 235.176,397.61L235.176,265.511C235.176,227.054 203.888,195.765 165.43,195.765C126.972,195.765 95.683,227.052 95.683,265.511L95.683,397.61C95.683,513.995 187.011,609.454 301.763,616.089L301.763,774.468L498.235,774.468L498.235,502.129C612.987,495.494 704.315,400.037 704.315,283.651L704.315,151.552C704.317,113.094 673.028,81.808 634.57,81.808Z" style="fill-opacity:0.1;fill-rule:nonzero;"/>
    </g>
</svg>
