<?xml version="1.0" encoding="UTF-8" standalone="no"?>
<!DOCTYPE svg PUBLIC "-//W3C//DTD SVG 1.1//EN" "http://www.w3.org/Graphics/SVG/1.1/DTD/svg11.dtd">
<svg width="100%" height="100%" viewBox="0 0 580 580" version="1.1" xmlns="http://www.w3.org/2000/svg" xmlns:xlink="http://www.w3.org/1999/xlink" xml:space="preserve" xmlns:serif="http://www.serif.com/" style="fill-rule:evenodd;clip-rule:evenodd;stroke-linejoin:round;stroke-miterlimit:2;">
    <g transform="matrix(4.15756,0,0,6.05178,-286.043,-1934.03)">
        <rect x="65.716" y="318.432" width="145.582" height="98.978" style="fill:rgb(207,228,198);fill-opacity:0.8"/>
    </g>
    <g transform="matrix(4.84428,0,0,4.84428,353.212,263.49)">
        <path d="M13.263,11.026C10.58,16.099 7.896,21.172 5.212,26.244C6.432,26.056 7.652,25.868 8.872,25.679C7.251,27.544 5.63,29.409 4.009,31.274C5.438,31.005 6.867,30.737 8.296,30.468C6.264,32.393 4.232,34.317 2.2,36.241C5.173,35.838 8.147,35.435 11.12,35.032L11.12,42.827L13.111,42.827C13.162,32.226 13.213,21.626 13.263,11.026ZM13.133,11.566L13.133,42.826L15.123,42.826L15.123,35.032C18.055,35.461 20.988,35.89 23.92,36.319C22.072,34.369 20.225,32.419 18.378,30.468C19.664,30.737 20.95,31.005 22.236,31.274C20.639,29.44 19.042,27.607 17.446,25.774C18.689,25.924 19.932,26.073 21.175,26.223C18.494,21.337 15.814,16.452 13.133,11.566Z" style="fill-opacity:0.05;fill-rule:nonzero;"/>
    </g>
    <g transform="matrix(4.53125,0,0,4.53125,0,0)">
        <path d="M39.95,18.217C37.655,18.178 35.238,19.45 34.75,22.051C34.544,23.153 34.371,23.506 33.065,23.53C29.048,23.6 27.34,29.505 30.733,32.291C31.068,32.566 30.875,32.807 29.743,33.666C23.98,38.05 30.186,46.792 36.079,42.597C36.944,41.981 37.08,41.975 37.274,42.482C37.685,43.553 37.501,48.696 36.987,50.4L36.474,52.095L39.559,52.095C39.865,52.095 40.015,52.096 40.264,52.095C40.515,52.096 40.671,52.095 40.979,52.095L44.064,52.095L43.562,50.4C43.049,48.696 42.857,43.553 43.268,42.482C43.464,41.973 43.6,41.981 44.461,42.597C50.354,46.792 56.562,38.048 50.797,33.666C49.667,32.805 49.414,32.445 49.819,32.291C53.216,30.988 51.395,24.194 47.475,23.53C46.189,23.313 46.009,23.153 45.802,22.051C45.29,19.325 42.66,18.069 40.274,18.241C40.171,18.233 40.059,18.219 39.95,18.217Z" style="fill-opacity:0.05;fill-rule:nonzero;"/>
    </g>
</svg>
