<?xml version="1.0" encoding="UTF-8" standalone="no"?>
<!DOCTYPE svg PUBLIC "-//W3C//DTD SVG 1.1//EN" "http://www.w3.org/Graphics/SVG/1.1/DTD/svg11.dtd">
<svg width="100%" height="100%" viewBox="0 0 580 580" version="1.1" xmlns="http://www.w3.org/2000/svg" xmlns:xlink="http://www.w3.org/1999/xlink" xml:space="preserve" xmlns:serif="http://www.serif.com/" style="fill-rule:evenodd;clip-rule:evenodd;stroke-linejoin:round;stroke-miterlimit:2;">
    <g transform="matrix(4.15756,0,0,6.05178,-286.043,-1934.03)">
        <rect x="65.716" y="318.432" width="145.582" height="98.978" style="fill:rgb(207,228,198);fill-opacity:0.8"/>
    </g>
    <g transform="matrix(4.53125,0,0,4.53125,0,0)">
        <path d="M91.561,70.288C89.266,70.249 86.849,71.521 86.361,74.122C86.156,75.224 85.982,75.577 84.676,75.601C80.659,75.671 78.951,81.576 82.344,84.362C82.68,84.637 82.486,84.878 81.354,85.737C75.591,90.121 81.797,98.863 87.69,94.668C88.555,94.052 88.692,94.046 88.885,94.553C89.296,95.624 89.112,100.767 88.599,102.471L88.085,104.166L91.17,104.166C91.476,104.166 91.626,104.168 91.875,104.166C92.126,104.168 92.282,104.166 92.59,104.166L95.675,104.166L95.174,102.471C94.66,100.767 94.468,95.624 94.879,94.553C95.075,94.044 95.211,94.052 96.072,94.668C101.966,98.863 108.173,90.119 102.408,85.737C101.278,84.876 101.025,84.516 101.43,84.362C104.827,83.059 103.006,76.265 99.086,75.601C97.8,75.384 97.621,75.224 97.413,74.122C96.902,71.396 94.271,70.14 91.885,70.312C91.782,70.304 91.67,70.291 91.561,70.288Z" style="fill-opacity:0.1;fill-rule:nonzero;"/>
    </g>
    <g transform="matrix(4.53125,0,0,4.53125,0,0)">
        <path d="M39.95,18.217C37.655,18.178 35.238,19.45 34.75,22.051C34.544,23.153 34.371,23.506 33.065,23.53C29.048,23.6 27.34,29.505 30.733,32.291C31.068,32.566 30.875,32.807 29.743,33.666C23.98,38.05 30.186,46.792 36.079,42.597C36.944,41.981 37.08,41.975 37.274,42.482C37.685,43.553 37.501,48.696 36.987,50.4L36.474,52.095L39.559,52.095C39.865,52.095 40.015,52.096 40.264,52.095C40.515,52.096 40.671,52.095 40.979,52.095L44.064,52.095L43.562,50.4C43.049,48.696 42.857,43.553 43.268,42.482C43.464,41.973 43.6,41.981 44.461,42.597C50.354,46.792 56.562,38.048 50.797,33.666C49.667,32.805 49.414,32.445 49.819,32.291C53.216,30.988 51.395,24.194 47.475,23.53C46.189,23.313 46.009,23.153 45.802,22.051C45.29,19.325 42.66,18.069 40.274,18.241C40.171,18.233 40.059,18.219 39.95,18.217Z" style="fill-opacity:0.1;fill-rule:nonzero;"/>
    </g>
</svg>
