<?xml version="1.0" encoding="UTF-8" standalone="no"?>
<!DOCTYPE svg PUBLIC "-//W3C//DTD SVG 1.1//EN" "http://www.w3.org/Graphics/SVG/1.1/DTD/svg11.dtd">
<svg width="100%" height="100%" viewBox="0 0 580 580" version="1.1" xmlns="http://www.w3.org/2000/svg" xmlns:xlink="http://www.w3.org/1999/xlink" xml:space="preserve" xmlns:serif="http://www.serif.com/" style="fill-rule:evenodd;clip-rule:evenodd;stroke-linejoin:round;stroke-miterlimit:2;">
    <g transform="matrix(4.53125,0,0,4.53125,0,0)">
        <path d="M31.339,4.493C30.852,4.718 31.297,8.42 31.421,10.61C31.609,13.91 31.347,15.254 31.415,22.617L31.413,22.617C30.726,30.055 31.013,32.925 32.433,32.925C36.548,32.925 34.071,5.588 31.447,4.455C31.406,4.438 31.37,4.439 31.338,4.454L31.339,4.493ZM15.594,10.044C15.149,9.927 18.06,12.573 19.521,15.972C21.42,20.352 22.946,23.637 22.946,28.96C22.946,31.177 23.697,33.001 24.615,33.001C29.485,33.001 23.61,15.443 17.327,11.176C16.255,10.448 15.734,10.104 15.587,10.063L15.594,10.044ZM48.406,10.044C48.258,10.083 47.738,10.429 46.669,11.158C40.363,15.424 34.511,32.982 39.382,32.982C40.299,32.982 41.051,31.169 41.051,28.942C41.051,23.655 42.58,20.371 44.479,15.953C45.948,12.562 48.859,9.912 48.406,10.025L48.406,10.044ZM12.385,21.069C11.973,21.036 13.838,22.07 14.869,24.422C15.949,26.884 16.289,29.104 16.289,30.463C16.289,31.83 17.04,32.948 17.958,32.948C20.084,32.948 20.431,31.57 18.21,26.34C17.228,24.022 14.978,21.847 13.679,21.432C12.92,21.192 12.531,21.064 12.395,21.054L12.385,21.069ZM51.653,21.069C51.516,21.08 51.128,21.209 50.369,21.447C49.055,21.862 46.809,24.033 45.838,26.355C43.618,31.604 43.962,32.963 46.09,32.963C47.008,32.963 47.759,31.845 47.759,30.478L47.761,30.478C47.761,29.112 48.101,26.88 49.181,24.437C50.212,22.085 52.077,21.05 51.665,21.084L51.653,21.069ZM39.344,36.399C33.945,36.464 28.507,36.477 23.146,36.799C22.636,36.866 22.383,37.486 22.941,37.66C25.629,38.155 28.453,38.053 31.172,38.17C38.724,38.301 46.313,38.362 53.827,37.922C54.359,37.834 55.405,37.824 55.292,37.193C54.922,36.597 53.872,36.797 53.211,36.68C48.605,36.386 43.961,36.389 39.316,36.397L39.344,36.399ZM51.502,41.534C50.86,41.538 50.215,41.546 49.576,41.552C47.375,41.626 45.121,41.613 42.969,41.978C42.429,42.236 42.744,42.941 43.343,42.93C46.628,43.553 50.064,43.357 53.425,43.357C54.863,43.303 56.366,43.279 57.729,42.862C58.265,42.568 57.902,41.861 57.284,41.895C55.399,41.557 53.47,41.52 51.544,41.532L51.502,41.534ZM94.546,56.071C94.059,56.296 94.506,59.998 94.63,62.188C94.818,65.488 94.554,66.832 94.622,74.195C93.935,81.633 94.218,84.503 95.642,84.503C99.757,84.503 97.28,57.166 94.656,56.033C94.615,56.016 94.579,56.016 94.547,56.031L94.546,56.071ZM78.801,61.621C78.356,61.505 81.267,64.151 82.728,67.549C84.627,71.929 86.153,75.214 86.153,80.538C86.153,82.754 86.904,84.578 87.822,84.578C92.692,84.578 86.817,67.021 80.534,62.754C79.462,62.025 78.945,61.682 78.797,61.64L78.801,61.621ZM111.613,61.621C111.465,61.66 110.945,62.006 109.876,62.735C103.571,67.002 97.718,84.559 102.589,84.559C103.506,84.559 104.258,82.747 104.258,80.519C104.258,75.233 105.787,71.948 107.686,67.53C109.155,64.14 112.066,61.489 111.613,61.602L111.613,61.621ZM75.592,72.647C75.18,72.613 77.049,73.647 78.08,76C79.16,78.461 79.5,80.682 79.5,82.041C79.5,83.408 80.251,84.525 81.169,84.525C83.294,84.525 83.642,83.151 81.42,77.918C80.439,75.599 78.188,73.424 76.889,73.009C76.131,72.77 75.742,72.642 75.606,72.632L75.592,72.647ZM114.86,72.647C114.723,72.658 114.335,72.786 113.576,73.024C112.262,73.44 110.016,75.614 109.045,77.933C106.825,83.181 107.173,84.54 109.299,84.54C110.217,84.54 110.968,83.423 110.968,82.056C110.968,80.689 111.308,78.458 112.388,76.015C113.419,73.662 115.284,72.628 114.872,72.662L114.86,72.647ZM102.551,87.976C97.152,88.042 91.714,88.055 86.353,88.377C85.843,88.444 85.59,89.064 86.148,89.238C88.836,89.732 91.66,89.63 94.379,89.747C101.931,89.879 109.52,89.939 117.034,89.5C117.566,89.412 118.616,89.401 118.503,88.771C118.133,88.174 117.083,88.374 116.418,88.257C111.812,87.964 107.168,87.966 102.523,87.975L102.551,87.976ZM114.709,93.112C114.067,93.116 113.422,93.124 112.783,93.129C110.582,93.204 108.328,93.19 106.176,93.556C105.636,93.813 105.951,94.523 106.55,94.511C109.835,95.134 113.271,94.938 116.632,94.934C118.07,94.88 119.573,94.856 120.936,94.439C121.472,94.146 121.109,93.443 120.491,93.477C118.607,93.138 116.677,93.1 114.751,93.112L114.709,93.112Z" style="fill:rgb(0,146,217);fill-opacity:0.6;fill-rule:nonzero;"/>
    </g>
    <g transform="matrix(4.53125,0,0,4.53125,0,0)">
        <path d="M112.897,50.218C109.548,50.273 106.176,50.284 102.853,50.554C102.538,50.61 102.381,51.124 102.726,51.271C104.395,51.687 106.136,51.597 107.824,51.694C112.506,51.804 117.188,51.856 121.87,51.489C122.2,51.416 122.851,51.407 122.78,50.881C122.55,50.383 121.9,50.551 121.488,50.451C118.622,50.206 115.749,50.208 112.879,50.215L112.897,50.218ZM121.657,54.523C120.86,54.496 120.059,54.519 119.263,54.529C117.896,54.591 116.503,54.579 115.147,54.884C114.811,55.099 115.009,55.688 115.381,55.677C117.42,56.194 119.535,56.031 121.611,56.03C122.502,55.985 123.431,55.965 124.269,55.618C124.602,55.373 124.377,54.787 123.994,54.814C123.216,54.625 122.42,54.548 121.623,54.521L121.657,54.523ZM16.689,91.903C13.34,91.958 9.968,91.969 6.645,92.239C6.331,92.295 6.173,92.813 6.519,92.96C8.187,93.375 9.928,93.286 11.616,93.383C16.298,93.492 20.98,93.543 25.662,93.176C25.992,93.103 26.644,93.096 26.572,92.572C26.343,92.074 25.692,92.239 25.281,92.141C22.415,91.896 19.541,91.898 16.672,91.906L16.689,91.903ZM25.449,96.208C24.652,96.18 23.852,96.202 23.055,96.211C21.688,96.274 20.295,96.261 18.939,96.566C18.603,96.781 18.8,97.371 19.172,97.359C21.211,97.877 23.325,97.714 25.402,97.712C26.293,97.668 27.225,97.647 28.064,97.301C28.396,97.056 28.169,96.47 27.787,96.5C27.009,96.312 26.216,96.235 25.419,96.208L25.449,96.208Z" style="fill:rgb(0,146,217);fill-opacity:0.4;fill-rule:nonzero;"/>
    </g>
</svg>
