<?xml version="1.0" encoding="UTF-8" standalone="no"?>
<!DOCTYPE svg PUBLIC "-//W3C//DTD SVG 1.1//EN" "http://www.w3.org/Graphics/SVG/1.1/DTD/svg11.dtd">
<svg width="100%" height="100%" viewBox="0 0 580 580" version="1.1" xmlns="http://www.w3.org/2000/svg" xmlns:xlink="http://www.w3.org/1999/xlink" xml:space="preserve" xmlns:serif="http://www.serif.com/" style="fill-rule:evenodd;clip-rule:evenodd;stroke-linejoin:round;">
    <path id="path4162" d="M159.389,0L256.055,96.666L0,352.729L0,420.611L159.389,580L227.271,580L33.941,386.67L289.996,130.607L546.059,386.67C481.613,451.114 417.164,515.555 352.719,580L420.602,580C473.735,526.87 526.867,473.74 580,420.609L580,352.729L323.938,96.666C356.159,64.444 388.38,32.222 420.602,0L352.719,0L289.996,62.725L227.271,0L159.389,0Z" style="fill:none;fill-rule:nonzero;stroke:white;stroke-opacity:0.5;stroke-width:64px;"/>
    <path id="path4177" d="M159.389,0L256.055,96.666L0,352.729L0,420.611L159.389,580L227.271,580L33.941,386.67L289.996,130.607L546.059,386.67C481.613,451.114 417.164,515.555 352.719,580L420.602,580C473.735,526.87 526.867,473.74 580,420.609L580,352.729L323.938,96.666C356.159,64.444 388.38,32.222 420.602,0L352.719,0L289.996,62.725L227.271,0L159.389,0Z" style="fill:rgb(0,162,0);fill-opacity:0.5;"/>
</svg>
