<?xml version="1.0" encoding="UTF-8" standalone="no"?>
<!DOCTYPE svg PUBLIC "-//W3C//DTD SVG 1.1//EN" "http://www.w3.org/Graphics/SVG/1.1/DTD/svg11.dtd">
<svg width="100%" height="100%" viewBox="0 0 580 580" version="1.1" xmlns="http://www.w3.org/2000/svg" xmlns:xlink="http://www.w3.org/1999/xlink" xml:space="preserve" xmlns:serif="http://www.serif.com/" style="fill-rule:evenodd;clip-rule:evenodd;stroke-linejoin:round;">
    <g id="Layer-1" serif:id="Layer 1">
        <ellipse id="path4503" cx="290.697" cy="289.286" rx="277.617" ry="275.415" style="fill:rgb(126,90,32);stroke:white;stroke-width:19.78px;"/>
        <g id="path4170" transform="matrix(0.778117,0,0,0.778117,68.4316,33.2563)">
            <path d="M272.588,49.799C269.563,49.85 266.375,50.176 263,50.801C240,55.701 226,76.801 215,95.801C203,117.101 187.101,135.4 168.301,150.6C126.301,216.4 120.299,287.6 128.699,357.6C113.099,364 89.8,340.9 75.1,359.6C61.2,382.4 80.4,406.6 93.1,425.6C104.1,447.5 123.5,453.2 146.1,449.6C200.9,451.7 256.1,462.1 310.1,453.4C371.1,449.5 430.1,431.8 463.1,376.4C483.7,351.7 520.1,341.6 532.1,309.4C540.4,277.6 516.499,240.6 483.199,237.6C481.999,224.8 504.599,241.5 513.199,233C545.099,225.1 504.9,202 496.4,190C450,146 403,102 354,61C336,40 328,79 334,92C336,113 325,88 321,80C307,62.5 293.766,49.441 272.588,49.799ZM275,72.1C306.8,72.5 311,119.801 295.9,132.801L296,132.801C274.7,137.301 253,130.399 233,125.699C247.2,107.099 255,80.9 275,72.1L275,72.1ZM481,264.85C506.6,265.2 519,294 501,309C491.2,317 469,339.799 461,331.699C450.1,301.699 440.2,264.7 481,264.85ZM472.334,468.535C424.953,468.722 377.719,473.819 331,480C285,487.8 238,486.4 192,481.1C141,474.7 89,479.701 38,488.301L44.199,527.801C95.199,518.901 147.199,514.8 199.199,521.9C248.199,527.4 298.199,526.399 347.199,518.199C406.099,511.099 466.199,505.299 525.199,510.699L528,470.801C509.438,469.141 490.874,468.462 472.334,468.535Z" style="fill:white;fill-rule:nonzero;"/>
        </g>
    </g>
</svg>
