<?xml version="1.0" encoding="UTF-8" standalone="no"?>
<!DOCTYPE svg PUBLIC "-//W3C//DTD SVG 1.1//EN" "http://www.w3.org/Graphics/SVG/1.1/DTD/svg11.dtd">
<svg width="100%" height="100%" viewBox="0 0 580 580" version="1.1" xmlns="http://www.w3.org/2000/svg" xmlns:xlink="http://www.w3.org/1999/xlink" xml:space="preserve" xmlns:serif="http://www.serif.com/" style="fill-rule:evenodd;clip-rule:evenodd;stroke-linejoin:round;stroke-miterlimit:2;">
    <g transform="matrix(27.2291,0,0,27.2291,18.5765,18.5989)">
        <path d="M14.13,18.944L13.868,18.944L13.868,18.202C13.914,18.167 13.943,18.106 13.948,18.005C13.948,18.005 13.921,17.601 13.727,17.366C13.53,17.131 12.719,16.257 12.639,15.852C12.563,15.447 12.577,14.129 12.184,13.347C11.794,12.563 11.376,12.16 11.286,11.665C11.193,11.168 11.063,10.228 10.88,9.539C10.697,8.846 10.632,8.663 10.595,8.325C10.554,7.985 10.568,7.579 10.449,7.163C10.333,6.744 10.371,6.523 10.424,6.224C10.477,5.923 10.567,4.84 10.567,4.84C10.567,4.84 11.207,5.571 11.572,5.74C11.936,5.91 12.145,6.002 12.239,5.923C12.33,5.844 12.423,5.571 12.367,5.272C12.315,4.97 12.447,4.918 12.003,4.372C11.559,3.823 11.141,3.366 11.036,3.105C10.932,2.843 10.475,2.492 10.475,2.492C10.475,2.492 10.399,2.205 10.242,2.165C10.085,2.126 9.915,2.205 9.915,2.205C9.915,2.205 9.785,2.165 9.732,2.243C9.681,2.321 9.757,2.518 9.757,2.518C9.757,2.518 9.668,2.596 9.602,2.726C9.536,2.856 9.43,3.054 9.328,3.04C9.224,3.026 9.092,2.988 9.065,2.87C9.039,2.753 9.039,2.558 9.039,2.558C9.039,2.558 9.302,2.388 9.341,2.256C9.379,2.126 9.471,1.799 9.471,1.616C9.471,1.434 9.484,1.317 9.484,1.317L9.602,1.121C9.602,1.121 9.772,1.043 9.732,0.912C9.692,0.782 9.564,0.782 9.615,0.664C9.669,0.547 9.669,0.352 9.59,0.298C9.511,0.247 9.316,0.169 9.328,0.09C9.341,0.013 9.039,-0.04 8.976,0.038C8.911,0.117 8.806,0.169 8.663,0.09C8.521,0.013 8.284,0.038 8.206,0.143C8.128,0.247 8.088,0.26 8.009,0.26C7.931,0.26 7.839,0.236 7.801,0.353C7.763,0.469 7.709,0.561 7.618,0.586C7.527,0.613 7.449,0.613 7.476,0.705C7.499,0.796 7.463,1.07 7.384,1.096C7.304,1.12 7.293,1.187 7.319,1.265C7.344,1.342 7.397,1.395 7.344,1.472C7.293,1.552 7.266,1.59 7.331,1.643C7.397,1.697 7.539,1.8 7.514,1.852C7.487,1.904 7.384,1.957 7.436,2.034C7.487,2.113 7.646,2.18 7.593,2.283C7.539,2.387 7.567,2.439 7.646,2.479C7.722,2.519 7.816,2.544 7.816,2.544C7.816,2.544 7.878,3.144 7.699,3.314C7.514,3.484 7.111,3.705 6.888,3.783C6.666,3.862 6.248,4.123 6.159,4.436C6.066,4.75 6.172,5.336 6.092,5.596C6.014,5.857 5.936,6.341 5.923,6.681C5.91,7.019 5.896,7.358 5.858,7.554C5.817,7.75 5.779,8.115 5.833,8.493C5.883,8.872 5.923,9.027 5.895,9.289C5.87,9.55 6.065,9.837 6.103,10.06C6.143,10.282 6.248,10.347 6.392,10.439C6.535,10.53 6.535,10.738 6.873,10.842C7.213,10.947 7.395,10.947 7.395,10.947C7.395,10.947 7.424,10.934 7.457,10.916C7.602,11.406 7.751,11.881 7.773,12.003C7.813,12.226 7.813,12.707 7.836,12.878C7.865,13.046 7.773,13.66 7.903,14.248C7.972,14.565 8.214,15.078 8.433,15.553C8.383,15.579 8.303,15.613 8.241,15.579C8.15,15.526 8.031,15.447 8.031,15.447C8.031,15.447 7.927,15.551 7.903,15.735C7.874,15.917 7.678,16.047 7.678,16.047C7.678,16.047 8.137,16.256 8.202,16.543C8.266,16.83 8.202,17.104 8.149,17.3C8.116,17.416 8.07,17.585 8.034,17.705L7.864,17.705L7.864,18.944L7.608,18.944L7.608,19.153L7.722,19.153L7.648,19.935L14.089,19.935L14.013,19.153L14.13,19.153L14.13,18.944ZM7.331,7.502C7.293,7.776 7.239,8.297 7.163,8.545C7.096,8.753 7.121,9.174 7.17,9.613C7.15,9.583 7.13,9.557 7.11,9.538C6.926,9.368 6.494,9.29 6.484,9.016C6.471,8.741 6.824,8.194 6.758,7.737C6.692,7.28 6.704,7.15 6.824,6.771C6.939,6.393 7.032,5.792 7.032,5.792C7.032,5.792 7.464,6.288 7.5,6.602C7.539,6.916 7.369,7.228 7.331,7.502ZM10.357,17.706C10.332,17.599 10.278,17.435 10.189,17.263C10.032,16.962 9.927,16.729 9.851,16.48C9.772,16.231 9.889,16.115 9.719,15.984C9.551,15.853 9.589,15.815 9.589,15.657C9.589,15.501 9.578,15.127 9.558,14.961C9.513,14.781 9.487,14.644 9.41,14.436C9.304,14.149 9.214,13.921 9.176,13.818C9.081,13.56 8.993,13.094 8.966,12.857C8.988,12.499 8.976,12.054 8.961,11.769C8.948,11.468 8.924,10.972 8.948,10.737C8.975,10.502 8.975,10.135 8.975,10.135C8.975,10.135 9.276,10.685 9.483,10.971C9.691,11.258 9.901,11.389 9.979,11.612C10.058,11.833 10.213,12.368 10.371,12.629C10.53,12.891 10.711,12.942 10.802,13.359C10.894,13.776 11.052,14.35 11.273,14.586C11.496,14.82 11.745,15.408 11.873,15.797C12.004,16.191 12.185,16.347 12.174,16.699C12.161,17.051 12.227,17.299 12.383,17.377C12.534,17.453 12.7,17.542 12.779,17.704L10.359,17.704L10.359,17.706L10.357,17.706Z" style="fill:none;fill-rule:nonzero;stroke:white;stroke-width:1.29px;"/>
        <path d="M14.13,18.944L13.868,18.944L13.868,18.202C13.914,18.167 13.943,18.106 13.948,18.005C13.948,18.005 13.921,17.601 13.727,17.366C13.53,17.131 12.719,16.257 12.639,15.852C12.563,15.447 12.577,14.129 12.184,13.347C11.794,12.563 11.376,12.16 11.286,11.665C11.193,11.168 11.063,10.228 10.88,9.539C10.697,8.846 10.632,8.663 10.595,8.325C10.554,7.985 10.568,7.579 10.449,7.163C10.333,6.744 10.371,6.523 10.424,6.224C10.477,5.923 10.567,4.84 10.567,4.84C10.567,4.84 11.207,5.571 11.572,5.74C11.936,5.91 12.145,6.002 12.239,5.923C12.33,5.844 12.423,5.571 12.367,5.272C12.315,4.97 12.447,4.918 12.003,4.372C11.559,3.823 11.141,3.366 11.036,3.105C10.932,2.843 10.475,2.492 10.475,2.492C10.475,2.492 10.399,2.205 10.242,2.165C10.085,2.126 9.915,2.205 9.915,2.205C9.915,2.205 9.785,2.165 9.732,2.243C9.681,2.321 9.757,2.518 9.757,2.518C9.757,2.518 9.668,2.596 9.602,2.726C9.536,2.856 9.43,3.054 9.328,3.04C9.224,3.026 9.092,2.988 9.065,2.87C9.039,2.753 9.039,2.558 9.039,2.558C9.039,2.558 9.302,2.388 9.341,2.256C9.379,2.126 9.471,1.799 9.471,1.616C9.471,1.434 9.484,1.317 9.484,1.317L9.602,1.121C9.602,1.121 9.772,1.043 9.732,0.912C9.692,0.782 9.564,0.782 9.615,0.664C9.669,0.547 9.669,0.352 9.59,0.298C9.511,0.247 9.316,0.169 9.328,0.09C9.341,0.013 9.039,-0.04 8.976,0.038C8.911,0.117 8.806,0.169 8.663,0.09C8.521,0.013 8.284,0.038 8.206,0.143C8.128,0.247 8.088,0.26 8.009,0.26C7.931,0.26 7.839,0.236 7.801,0.353C7.763,0.469 7.709,0.561 7.618,0.586C7.527,0.613 7.449,0.613 7.476,0.705C7.499,0.796 7.463,1.07 7.384,1.096C7.304,1.12 7.293,1.187 7.319,1.265C7.344,1.342 7.397,1.395 7.344,1.472C7.293,1.552 7.266,1.59 7.331,1.643C7.397,1.697 7.539,1.8 7.514,1.852C7.487,1.904 7.384,1.957 7.436,2.034C7.487,2.113 7.646,2.18 7.593,2.283C7.539,2.387 7.567,2.439 7.646,2.479C7.722,2.519 7.816,2.544 7.816,2.544C7.816,2.544 7.878,3.144 7.699,3.314C7.514,3.484 7.111,3.705 6.888,3.783C6.666,3.862 6.248,4.123 6.159,4.436C6.066,4.75 6.172,5.336 6.092,5.596C6.014,5.857 5.936,6.341 5.923,6.681C5.91,7.019 5.896,7.358 5.858,7.554C5.817,7.75 5.779,8.115 5.833,8.493C5.883,8.872 5.923,9.027 5.895,9.289C5.87,9.55 6.065,9.837 6.103,10.06C6.143,10.282 6.248,10.347 6.392,10.439C6.535,10.53 6.535,10.738 6.873,10.842C7.213,10.947 7.395,10.947 7.395,10.947C7.395,10.947 7.424,10.934 7.457,10.916C7.602,11.406 7.751,11.881 7.773,12.003C7.813,12.226 7.813,12.707 7.836,12.878C7.865,13.046 7.773,13.66 7.903,14.248C7.972,14.565 8.214,15.078 8.433,15.553C8.383,15.579 8.303,15.613 8.241,15.579C8.15,15.526 8.031,15.447 8.031,15.447C8.031,15.447 7.927,15.551 7.903,15.735C7.874,15.917 7.678,16.047 7.678,16.047C7.678,16.047 8.137,16.256 8.202,16.543C8.266,16.83 8.202,17.104 8.149,17.3C8.116,17.416 8.07,17.585 8.034,17.705L7.864,17.705L7.864,18.944L7.608,18.944L7.608,19.153L7.722,19.153L7.648,19.935L14.089,19.935L14.013,19.153L14.13,19.153L14.13,18.944ZM7.331,7.502C7.293,7.776 7.239,8.297 7.163,8.545C7.096,8.753 7.121,9.174 7.17,9.613C7.15,9.583 7.13,9.557 7.11,9.538C6.926,9.368 6.494,9.29 6.484,9.016C6.471,8.741 6.824,8.194 6.758,7.737C6.692,7.28 6.704,7.15 6.824,6.771C6.939,6.393 7.032,5.792 7.032,5.792C7.032,5.792 7.464,6.288 7.5,6.602C7.539,6.916 7.369,7.228 7.331,7.502ZM10.357,17.706C10.332,17.599 10.278,17.435 10.189,17.263C10.032,16.962 9.927,16.729 9.851,16.48C9.772,16.231 9.889,16.115 9.719,15.984C9.551,15.853 9.589,15.815 9.589,15.657C9.589,15.501 9.578,15.127 9.558,14.961C9.513,14.781 9.487,14.644 9.41,14.436C9.304,14.149 9.214,13.921 9.176,13.818C9.081,13.56 8.993,13.094 8.966,12.857C8.988,12.499 8.976,12.054 8.961,11.769C8.948,11.468 8.924,10.972 8.948,10.737C8.975,10.502 8.975,10.135 8.975,10.135C8.975,10.135 9.276,10.685 9.483,10.971C9.691,11.258 9.901,11.389 9.979,11.612C10.058,11.833 10.213,12.368 10.371,12.629C10.53,12.891 10.711,12.942 10.802,13.359C10.894,13.776 11.052,14.35 11.273,14.586C11.496,14.82 11.745,15.408 11.873,15.797C12.004,16.191 12.185,16.347 12.174,16.699C12.161,17.051 12.227,17.299 12.383,17.377C12.534,17.453 12.7,17.542 12.779,17.704L10.359,17.704L10.359,17.706L10.357,17.706Z" style="fill-rule:nonzero;"/>
    </g>
</svg>
