<?xml version="1.0" encoding="UTF-8" standalone="no"?>
<!DOCTYPE svg PUBLIC "-//W3C//DTD SVG 1.1//EN" "http://www.w3.org/Graphics/SVG/1.1/DTD/svg11.dtd">
<svg width="100%" height="100%" viewBox="0 0 480 589" version="1.1" xmlns="http://www.w3.org/2000/svg" xmlns:xlink="http://www.w3.org/1999/xlink" xml:space="preserve" xmlns:serif="http://www.serif.com/" style="fill-rule:evenodd;clip-rule:evenodd;stroke-linejoin:round;stroke-miterlimit:2;">
    <g transform="matrix(19.1631,0,0,19.1685,-57.0274,-12.268)">
        <path d="M24,13.5L24,13C24,11.9 23.1,11 22,11L9,11C7.9,11 7,11.9 7,13L7,13.5C7,16.55 8.62,19.23 11.05,20.73C11.04,20.74 11.03,20.75 11.03,20.76L9.03,28.76C8.9,29.29 9.22,29.84 9.76,29.97C9.84,29.99 9.92,30 10,30C10.45,30 10.86,29.7 10.97,29.24L11.78,26L19.22,26L20.03,29.24C20.14,29.7 20.55,30 21,30C21.08,30 21.16,29.99 21.24,29.97C21.78,29.84 22.1,29.29 21.97,28.76L19.97,20.76C19.97,20.76 19.97,20.74 19.95,20.73C22.38,19.23 24,16.55 24,13.5ZM12.28,24L12.88,21.58C13.71,21.85 14.59,22 15.5,22C16.41,22 17.29,21.85 18.12,21.58L18.72,24L12.28,24ZM8.88,5.03C8.72,4.36 8.92,3.67 9.41,3.18L10.29,2.3C10.68,1.91 11.31,1.91 11.7,2.3C12.09,2.69 12.09,3.32 11.7,3.71L10.82,4.59C11.47,4.77 11.95,5.3 12.11,5.97C12.27,6.64 12.07,7.33 11.58,7.82L10.7,8.7C10.5,8.9 10.25,8.99 9.99,8.99C9.73,8.99 9.48,8.89 9.28,8.7C8.89,8.31 8.89,7.68 9.28,7.29L10.16,6.41C9.51,6.23 9.03,5.7 8.87,5.03L8.88,5.03ZM13.88,5.03C13.72,4.36 13.92,3.67 14.41,3.18L15.29,2.3C15.68,1.91 16.31,1.91 16.7,2.3C17.09,2.69 17.09,3.32 16.7,3.71L15.82,4.59C16.47,4.77 16.95,5.3 17.11,5.97C17.27,6.64 17.07,7.33 16.58,7.82L15.7,8.7C15.5,8.9 15.25,8.99 14.99,8.99C14.73,8.99 14.48,8.89 14.28,8.7C13.89,8.31 13.89,7.68 14.28,7.29L15.16,6.41C14.51,6.23 14.03,5.7 13.87,5.03L13.88,5.03ZM18.88,5.03C18.72,4.36 18.92,3.67 19.41,3.18L20.29,2.3C20.68,1.91 21.31,1.91 21.7,2.3C22.09,2.69 22.09,3.32 21.7,3.71L20.82,4.59C21.47,4.77 21.95,5.3 22.11,5.97C22.27,6.64 22.07,7.33 21.58,7.82L20.7,8.7C20.5,8.9 20.25,8.99 19.99,8.99C19.73,8.99 19.48,8.89 19.28,8.7C18.89,8.31 18.89,7.68 19.28,7.29L20.16,6.41C19.51,6.23 19.03,5.7 18.87,5.03L18.88,5.03Z" style="fill:none;fill-rule:nonzero;stroke:white;stroke-width:1.93px;"/>
        <path d="M24,13.5L24,13C24,11.9 23.1,11 22,11L9,11C7.9,11 7,11.9 7,13L7,13.5C7,16.55 8.62,19.23 11.05,20.73C11.04,20.74 11.03,20.75 11.03,20.76L9.03,28.76C8.9,29.29 9.22,29.84 9.76,29.97C9.84,29.99 9.92,30 10,30C10.45,30 10.86,29.7 10.97,29.24L11.78,26L19.22,26L20.03,29.24C20.14,29.7 20.55,30 21,30C21.08,30 21.16,29.99 21.24,29.97C21.78,29.84 22.1,29.29 21.97,28.76L19.97,20.76C19.97,20.76 19.97,20.74 19.95,20.73C22.38,19.23 24,16.55 24,13.5ZM12.28,24L12.88,21.58C13.71,21.85 14.59,22 15.5,22C16.41,22 17.29,21.85 18.12,21.58L18.72,24L12.28,24ZM8.88,5.03C8.72,4.36 8.92,3.67 9.41,3.18L10.29,2.3C10.68,1.91 11.31,1.91 11.7,2.3C12.09,2.69 12.09,3.32 11.7,3.71L10.82,4.59C11.47,4.77 11.95,5.3 12.11,5.97C12.27,6.64 12.07,7.33 11.58,7.82L10.7,8.7C10.5,8.9 10.25,8.99 9.99,8.99C9.73,8.99 9.48,8.89 9.28,8.7C8.89,8.31 8.89,7.68 9.28,7.29L10.16,6.41C9.51,6.23 9.03,5.7 8.87,5.03L8.88,5.03ZM13.88,5.03C13.72,4.36 13.92,3.67 14.41,3.18L15.29,2.3C15.68,1.91 16.31,1.91 16.7,2.3C17.09,2.69 17.09,3.32 16.7,3.71L15.82,4.59C16.47,4.77 16.95,5.3 17.11,5.97C17.27,6.64 17.07,7.33 16.58,7.82L15.7,8.7C15.5,8.9 15.25,8.99 14.99,8.99C14.73,8.99 14.48,8.89 14.28,8.7C13.89,8.31 13.89,7.68 14.28,7.29L15.16,6.41C14.51,6.23 14.03,5.7 13.87,5.03L13.88,5.03ZM18.88,5.03C18.72,4.36 18.92,3.67 19.41,3.18L20.29,2.3C20.68,1.91 21.31,1.91 21.7,2.3C22.09,2.69 22.09,3.32 21.7,3.71L20.82,4.59C21.47,4.77 21.95,5.3 22.11,5.97C22.27,6.64 22.07,7.33 21.58,7.82L20.7,8.7C20.5,8.9 20.25,8.99 19.99,8.99C19.73,8.99 19.48,8.89 19.28,8.7C18.89,8.31 18.89,7.68 19.28,7.29L20.16,6.41C19.51,6.23 19.03,5.7 18.87,5.03L18.88,5.03Z" style="fill:rgb(128,90,32);fill-rule:nonzero;"/>
    </g>
</svg>
