<?xml version="1.0" encoding="UTF-8" standalone="no"?>
<!DOCTYPE svg PUBLIC "-//W3C//DTD SVG 1.1//EN" "http://www.w3.org/Graphics/SVG/1.1/DTD/svg11.dtd">
<svg width="100%" height="100%" viewBox="0 0 580 580" version="1.1" xmlns="http://www.w3.org/2000/svg" xmlns:xlink="http://www.w3.org/1999/xlink" xml:space="preserve" xmlns:serif="http://www.serif.com/" style="fill-rule:evenodd;clip-rule:evenodd;stroke-linejoin:round;stroke-miterlimit:2;">
    <g id="path2" transform="matrix(0.376907,0,0,0.376907,188.72,35.125)">
        <g id="path2303" transform="matrix(1.85012e-16,-3.02147,3.02147,1.85012e-16,-605.338,1624.13)">
            <path d="M459.1,103.5C453.7,108.4 450.2,115.9 450.35,120.45L455.8,374L412.8,400.8L428.7,476.8L459.2,476.9C459.2,473.8 459.5,437.1 459.6,424.9L478.5,414.5L497.2,425.1L496.8,477.1L525.6,477.3L539.8,401.3L498.9,373.3L508.35,121.3C508.4,116.3 504.8,108.4 499.2,103.4C493.6,98.3 486.3,96 479.1,96.05C471.8,96.1 464.6,98.6 459.1,103.5ZM488.4,123.6C488.4,128.4 484.5,132.2 479.7,132.2C474.9,132.2 471.1,128.3 471.1,123.5C471.1,118.7 475,114.9 479.8,114.9C484.6,114.9 488.4,118.8 488.4,123.6Z" style="fill:none;fill-rule:nonzero;stroke:white;stroke-width:56.2px;"/>
        </g>
        <g id="path23031" serif:id="path2303" transform="matrix(1.85012e-16,-3.02147,3.02147,1.85012e-16,-605.338,1624.13)">
            <path d="M459.1,103.5C453.7,108.4 450.2,115.9 450.35,120.45L455.8,374L412.8,400.8L428.7,476.8L459.2,476.9C459.2,473.8 459.5,437.1 459.6,424.9L478.5,414.5L497.2,425.1L496.8,477.1L525.6,477.3L539.8,401.3L498.9,373.3L508.35,121.3C508.4,116.3 504.8,108.4 499.2,103.4C493.6,98.3 486.3,96 479.1,96.05C471.8,96.1 464.6,98.6 459.1,103.5ZM488.4,123.6C488.4,128.4 484.5,132.2 479.7,132.2C474.9,132.2 471.1,128.3 471.1,123.5C471.1,118.7 475,114.9 479.8,114.9C484.6,114.9 488.4,118.8 488.4,123.6Z" style="fill:rgb(0,146,218);fill-rule:nonzero;"/>
        </g>
    </g>
    <g id="path21" serif:id="path2">
    </g>
    <path id="path4137" d="M350.2,236.8L348.6,258.8L384.6,258.9C400.3,262.1 375.9,269.6 373.6,277.9C372,287.3 376,295.8 378,303.5L214,304.3L204.3,280.6C214.7,278.2 240.1,272.2 243.3,268.8C247.4,265 243.3,259.4 240.1,259.4L155.1,259.4C156.2,278.2 170.9,282.3 178.9,283.4L188.3,306.4C177.6,326.4 167.3,343.4 157.3,362.4C74.3,338.4 35.3,401 34.3,446.4C34.3,496.4 74.3,536.4 124.3,536.4C170.9,536.4 209.3,500.7 214.3,455.4L235.8,455.4C238.2,459.8 242.2,463.4 247.1,465.7L238.1,486.7L221.9,486.8C212.9,488 215.2,499.2 222,499.3L258,499C267.2,497.9 264.8,486.5 257.9,486.5L247.6,486.6L255.5,468.2C278.5,470.1 287.2,452.6 284.5,440.7L396.5,364.7C397.5,368.1 398.4,371.4 399.4,374.6C378.9,391.1 365.7,416.4 365.7,444.6C365.7,494.6 405.7,534.6 455.7,534.6C505.7,534.6 545.7,494.6 545.7,444.6C542.7,387.6 497.8,340.6 421.7,361.6C411.7,337.7 399.8,300.6 398.8,286.6C400.5,276.9 414.8,276.1 417.2,263.6C415.5,239.7 395.9,235.9 376.1,236C367,236 357.8,236.8 350.2,236.8ZM389.8,344L389.7,344C352.1,370.9 314.7,397.9 275.7,423L283.4,405.4C290.6,405.2 290,405.3 298.4,404.8C307.6,403.1 304.4,392.4 298.5,392.4L262.5,392.7C253.3,393.8 255.7,405.2 262.6,405.2L272.9,405.1L265.2,423C264.5,422.8 263.7,422.7 263,422.6L223.1,324.6C260.1,324.6 327.1,324.4 384.05,324.2C385.8,330.3 387.7,337 389.8,344ZM240.1,430.4C238.7,431.8 237.5,433.4 236.5,435.1L214.5,435.1C211.1,409.4 197.1,387.4 177.5,373.4L200.2,331.4L240.1,430.4ZM520.3,445C520.4,480.7 491.7,509 456.4,509L456.6,509.4C397.8,506.3 375.6,450.4 408.6,402.4C412.8,417.6 419.6,433.9 430.6,444L430.8,444.2C463.3,473.8 483.8,449.3 446.1,426C438.1,414.8 433.6,401 429.3,387C439.9,382.1 449.8,380 459.2,380.1C495.3,380.3 519.3,413.9 520.3,445ZM147.1,386.5L118.1,440.4C114.4,447.2 119.4,455.4 127.1,455.4L189.9,455.4C185.6,486.9 158.9,511.4 126.1,511.4C90.4,511.4 62.1,482.8 62.1,447.4C62,412.4 85.5,383.4 124.1,383.3C131.3,383.2 138.9,384.3 147.1,386.5ZM188.7,435.8L143.8,435.8L164.8,396.8C177.1,406.3 185.8,420.1 188.7,435.8Z" style="fill:none;fill-rule:nonzero;stroke:white;stroke-opacity:0.8;stroke-width:64px;stroke-miterlimit:4;"/>
    <path id="path596-0" d="M350.2,236.8L348.6,258.8L384.6,258.9C400.3,262.1 375.9,269.6 373.6,277.9C372,287.3 376,295.8 378,303.5L214,304.3L204.3,280.6C214.7,278.2 240.1,272.2 243.3,268.8C247.4,265 243.3,259.4 240.1,259.4L155.1,259.4C156.2,278.2 170.9,282.3 178.9,283.4L188.3,306.4C177.6,326.4 167.3,343.4 157.3,362.4C74.3,338.4 35.3,401 34.3,446.4C34.3,496.4 74.3,536.4 124.3,536.4C170.9,536.4 209.3,500.7 214.3,455.4L235.8,455.4C238.2,459.8 242.2,463.4 247.1,465.7L238.1,486.7L221.9,486.8C212.9,488 215.2,499.2 222,499.3L258,499C267.2,497.9 264.8,486.5 257.9,486.5L247.6,486.6L255.5,468.2C278.5,470.1 287.2,452.6 284.5,440.7L396.5,364.7C397.5,368.1 398.4,371.4 399.4,374.6C378.9,391.1 365.7,416.4 365.7,444.6C365.7,494.6 405.7,534.6 455.7,534.6C505.7,534.6 545.7,494.6 545.7,444.6C542.7,387.6 497.8,340.6 421.7,361.6C411.7,337.7 399.8,300.6 398.8,286.6C400.5,276.9 414.8,276.1 417.2,263.6C415.5,239.7 395.9,235.9 376.1,236C367,236 357.8,236.8 350.2,236.8ZM389.8,344L389.7,344C352.1,370.9 314.7,397.9 275.7,423L283.4,405.4C290.6,405.2 290,405.3 298.4,404.8C307.6,403.1 304.4,392.4 298.5,392.4L262.5,392.7C253.3,393.8 255.7,405.2 262.6,405.2L272.9,405.1L265.2,423C264.5,422.8 263.7,422.7 263,422.6L223.1,324.6C260.1,324.6 327.1,324.4 384.05,324.2C385.8,330.3 387.7,337 389.8,344ZM240.1,430.4C238.7,431.8 237.5,433.4 236.5,435.1L214.5,435.1C211.1,409.4 197.1,387.4 177.5,373.4L200.2,331.4L240.1,430.4ZM520.3,445C520.4,480.7 491.7,509 456.4,509L456.6,509.4C397.8,506.3 375.6,450.4 408.6,402.4C412.8,417.6 419.6,433.9 430.6,444L430.8,444.2C463.3,473.8 483.8,449.3 446.1,426C438.1,414.8 433.6,401 429.3,387C439.9,382.1 449.8,380 459.2,380.1C495.3,380.3 519.3,413.9 520.3,445ZM147.1,386.5L118.1,440.4C114.4,447.2 119.4,455.4 127.1,455.4L189.9,455.4C185.6,486.9 158.9,511.4 126.1,511.4C90.4,511.4 62.1,482.8 62.1,447.4C62,412.4 85.5,383.4 124.1,383.3C131.3,383.2 138.9,384.3 147.1,386.5ZM188.7,435.8L143.8,435.8L164.8,396.8C177.1,406.3 185.8,420.1 188.7,435.8Z" style="fill:rgb(0,146,218);fill-rule:nonzero;"/>
</svg>
