<?xml version="1.0" encoding="UTF-8" standalone="no"?>
<!DOCTYPE svg PUBLIC "-//W3C//DTD SVG 1.1//EN" "http://www.w3.org/Graphics/SVG/1.1/DTD/svg11.dtd">
<svg width="100%" height="100%" viewBox="0 0 580 580" version="1.1" xmlns="http://www.w3.org/2000/svg" xmlns:xlink="http://www.w3.org/1999/xlink" xml:space="preserve" xmlns:serif="http://www.serif.com/" style="fill-rule:evenodd;clip-rule:evenodd;stroke-linejoin:round;stroke-miterlimit:2;">
    <g id="path2" transform="matrix(0.376907,0,0,0.376907,188.72,35.125)">
        <path d="M243,0C108.8,0 0,108.8 0,243C0,377.2 108.8,486 243,486C377.2,486 486,377.2 486,243C486,108.8 377.2,0 243,0ZM312.8,338.8C302.2,351.7 288.4,360.4 272.3,364.8C265.3,366.7 262.1,370.4 262.5,377.7C262.8,384.9 262.5,392 262.4,399.2C262.4,405.6 259.1,409 252.8,409.2C248.7,409.3 244.6,409.4 240.5,409.4C236.9,409.4 233.3,409.4 229.7,409.3C222.9,409.2 219.7,405.3 219.7,398.7C219.6,393.5 219.6,388.2 219.6,383C219.5,371.4 219.1,371 208,369.2C193.8,366.9 179.8,363.7 166.8,357.4C156.6,352.4 155.5,349.9 158.4,339.1C160.6,331.1 162.8,323.1 165.3,315.2C167.1,309.4 168.8,306.8 171.9,306.8C173.7,306.8 176,307.7 179.1,309.3C193.5,316.8 208.8,321 224.9,323C227.6,323.3 230.3,323.5 233,323.5C240.5,323.5 247.8,322.1 254.9,319C272.8,311.2 275.6,290.5 260.5,278.1C255.4,273.9 249.5,270.8 243.4,268.1C227.7,261.2 211.4,256 196.6,247.1C172.6,232.7 157.4,213 159.2,183.8C161.2,150.8 179.9,130.2 210.2,119.2C222.7,114.7 222.8,114.8 222.8,101.8C222.8,97.4 222.7,93 222.9,88.5C223.2,78.7 224.8,77 234.6,76.7L246,76.7C264.6,76.7 264.6,77.5 264.7,97.6C264.8,112.4 264.8,112.4 279.5,114.7C290.8,116.5 301.5,119.8 311.9,124.4C317.6,126.9 319.8,130.9 318,137C315.4,146 312.9,155.1 310.1,164C308.3,169.4 306.6,171.9 303.4,171.9C301.6,171.9 299.4,171.2 296.6,169.8C282.2,162.8 267.1,159.4 251.3,159.4C249.3,159.4 247.2,159.5 245.2,159.6C240.5,159.9 235.9,160.5 231.5,162.4C215.9,169.2 213.4,186.4 226.7,197C233.4,202.4 241.1,206.2 249,209.5C262.8,215.2 276.6,220.7 289.7,227.9C330.9,250.9 342.1,303.2 312.8,338.8Z" style="fill:none;fill-rule:nonzero;stroke:white;stroke-opacity:0.8;stroke-width:169.8px;"/>
    </g>
    <g id="path21" serif:id="path2" transform="matrix(0.376907,0,0,0.376907,188.72,35.125)">
        <path d="M243,0C108.8,0 0,108.8 0,243C0,377.2 108.8,486 243,486C377.2,486 486,377.2 486,243C486,108.8 377.2,0 243,0ZM312.8,338.8C302.2,351.7 288.4,360.4 272.3,364.8C265.3,366.7 262.1,370.4 262.5,377.7C262.8,384.9 262.5,392 262.4,399.2C262.4,405.6 259.1,409 252.8,409.2C248.7,409.3 244.6,409.4 240.5,409.4C236.9,409.4 233.3,409.4 229.7,409.3C222.9,409.2 219.7,405.3 219.7,398.7C219.6,393.5 219.6,388.2 219.6,383C219.5,371.4 219.1,371 208,369.2C193.8,366.9 179.8,363.7 166.8,357.4C156.6,352.4 155.5,349.9 158.4,339.1C160.6,331.1 162.8,323.1 165.3,315.2C167.1,309.4 168.8,306.8 171.9,306.8C173.7,306.8 176,307.7 179.1,309.3C193.5,316.8 208.8,321 224.9,323C227.6,323.3 230.3,323.5 233,323.5C240.5,323.5 247.8,322.1 254.9,319C272.8,311.2 275.6,290.5 260.5,278.1C255.4,273.9 249.5,270.8 243.4,268.1C227.7,261.2 211.4,256 196.6,247.1C172.6,232.7 157.4,213 159.2,183.8C161.2,150.8 179.9,130.2 210.2,119.2C222.7,114.7 222.8,114.8 222.8,101.8C222.8,97.4 222.7,93 222.9,88.5C223.2,78.7 224.8,77 234.6,76.7L246,76.7C264.6,76.7 264.6,77.5 264.7,97.6C264.8,112.4 264.8,112.4 279.5,114.7C290.8,116.5 301.5,119.8 311.9,124.4C317.6,126.9 319.8,130.9 318,137C315.4,146 312.9,155.1 310.1,164C308.3,169.4 306.6,171.9 303.4,171.9C301.6,171.9 299.4,171.2 296.6,169.8C282.2,162.8 267.1,159.4 251.3,159.4C249.3,159.4 247.2,159.5 245.2,159.6C240.5,159.9 235.9,160.5 231.5,162.4C215.9,169.2 213.4,186.4 226.7,197C233.4,202.4 241.1,206.2 249,209.5C262.8,215.2 276.6,220.7 289.7,227.9C330.9,250.9 342.1,303.2 312.8,338.8Z" style="fill:rgb(0,146,218);fill-rule:nonzero;"/>
    </g>
    <path id="path4137" d="M350.2,236.8L348.6,258.8L384.6,258.9C400.3,262.1 375.9,269.6 373.6,277.9C372,287.3 376,295.8 378,303.5L214,304.3L204.3,280.6C214.7,278.2 240.1,272.2 243.3,268.8C247.4,265 243.3,259.4 240.1,259.4L155.1,259.4C156.2,278.2 170.9,282.3 178.9,283.4L188.3,306.4C177.6,326.4 167.3,343.4 157.3,362.4C74.3,338.4 35.3,401 34.3,446.4C34.3,496.4 74.3,536.4 124.3,536.4C170.9,536.4 209.3,500.7 214.3,455.4L235.8,455.4C238.2,459.8 242.2,463.4 247.1,465.7L238.1,486.7L221.9,486.8C212.9,488 215.2,499.2 222,499.3L258,499C267.2,497.9 264.8,486.5 257.9,486.5L247.6,486.6L255.5,468.2C278.5,470.1 287.2,452.6 284.5,440.7L396.5,364.7C397.5,368.1 398.4,371.4 399.4,374.6C378.9,391.1 365.7,416.4 365.7,444.6C365.7,494.6 405.7,534.6 455.7,534.6C505.7,534.6 545.7,494.6 545.7,444.6C542.7,387.6 497.8,340.6 421.7,361.6C411.7,337.7 399.8,300.6 398.8,286.6C400.5,276.9 414.8,276.1 417.2,263.6C415.5,239.7 395.9,235.9 376.1,236C367,236 357.8,236.8 350.2,236.8ZM389.8,344L389.7,344C352.1,370.9 314.7,397.9 275.7,423L283.4,405.4C290.6,405.2 290,405.3 298.4,404.8C307.6,403.1 304.4,392.4 298.5,392.4L262.5,392.7C253.3,393.8 255.7,405.2 262.6,405.2L272.9,405.1L265.2,423C264.5,422.8 263.7,422.7 263,422.6L223.1,324.6C260.1,324.6 327.1,324.4 384.05,324.2C385.8,330.3 387.7,337 389.8,344ZM240.1,430.4C238.7,431.8 237.5,433.4 236.5,435.1L214.5,435.1C211.1,409.4 197.1,387.4 177.5,373.4L200.2,331.4L240.1,430.4ZM520.3,445C520.4,480.7 491.7,509 456.4,509L456.6,509.4C397.8,506.3 375.6,450.4 408.6,402.4C412.8,417.6 419.6,433.9 430.6,444L430.8,444.2C463.3,473.8 483.8,449.3 446.1,426C438.1,414.8 433.6,401 429.3,387C439.9,382.1 449.8,380 459.2,380.1C495.3,380.3 519.3,413.9 520.3,445ZM147.1,386.5L118.1,440.4C114.4,447.2 119.4,455.4 127.1,455.4L189.9,455.4C185.6,486.9 158.9,511.4 126.1,511.4C90.4,511.4 62.1,482.8 62.1,447.4C62,412.4 85.5,383.4 124.1,383.3C131.3,383.2 138.9,384.3 147.1,386.5ZM188.7,435.8L143.8,435.8L164.8,396.8C177.1,406.3 185.8,420.1 188.7,435.8Z" style="fill:none;fill-rule:nonzero;stroke:white;stroke-opacity:0.8;stroke-width:64px;stroke-miterlimit:4;"/>
    <path id="path596-0" d="M350.2,236.8L348.6,258.8L384.6,258.9C400.3,262.1 375.9,269.6 373.6,277.9C372,287.3 376,295.8 378,303.5L214,304.3L204.3,280.6C214.7,278.2 240.1,272.2 243.3,268.8C247.4,265 243.3,259.4 240.1,259.4L155.1,259.4C156.2,278.2 170.9,282.3 178.9,283.4L188.3,306.4C177.6,326.4 167.3,343.4 157.3,362.4C74.3,338.4 35.3,401 34.3,446.4C34.3,496.4 74.3,536.4 124.3,536.4C170.9,536.4 209.3,500.7 214.3,455.4L235.8,455.4C238.2,459.8 242.2,463.4 247.1,465.7L238.1,486.7L221.9,486.8C212.9,488 215.2,499.2 222,499.3L258,499C267.2,497.9 264.8,486.5 257.9,486.5L247.6,486.6L255.5,468.2C278.5,470.1 287.2,452.6 284.5,440.7L396.5,364.7C397.5,368.1 398.4,371.4 399.4,374.6C378.9,391.1 365.7,416.4 365.7,444.6C365.7,494.6 405.7,534.6 455.7,534.6C505.7,534.6 545.7,494.6 545.7,444.6C542.7,387.6 497.8,340.6 421.7,361.6C411.7,337.7 399.8,300.6 398.8,286.6C400.5,276.9 414.8,276.1 417.2,263.6C415.5,239.7 395.9,235.9 376.1,236C367,236 357.8,236.8 350.2,236.8ZM389.8,344L389.7,344C352.1,370.9 314.7,397.9 275.7,423L283.4,405.4C290.6,405.2 290,405.3 298.4,404.8C307.6,403.1 304.4,392.4 298.5,392.4L262.5,392.7C253.3,393.8 255.7,405.2 262.6,405.2L272.9,405.1L265.2,423C264.5,422.8 263.7,422.7 263,422.6L223.1,324.6C260.1,324.6 327.1,324.4 384.05,324.2C385.8,330.3 387.7,337 389.8,344ZM240.1,430.4C238.7,431.8 237.5,433.4 236.5,435.1L214.5,435.1C211.1,409.4 197.1,387.4 177.5,373.4L200.2,331.4L240.1,430.4ZM520.3,445C520.4,480.7 491.7,509 456.4,509L456.6,509.4C397.8,506.3 375.6,450.4 408.6,402.4C412.8,417.6 419.6,433.9 430.6,444L430.8,444.2C463.3,473.8 483.8,449.3 446.1,426C438.1,414.8 433.6,401 429.3,387C439.9,382.1 449.8,380 459.2,380.1C495.3,380.3 519.3,413.9 520.3,445ZM147.1,386.5L118.1,440.4C114.4,447.2 119.4,455.4 127.1,455.4L189.9,455.4C185.6,486.9 158.9,511.4 126.1,511.4C90.4,511.4 62.1,482.8 62.1,447.4C62,412.4 85.5,383.4 124.1,383.3C131.3,383.2 138.9,384.3 147.1,386.5ZM188.7,435.8L143.8,435.8L164.8,396.8C177.1,406.3 185.8,420.1 188.7,435.8Z" style="fill:rgb(0,146,218);fill-rule:nonzero;"/>
</svg>
