<?xml version="1.0" encoding="UTF-8" standalone="no"?>
<!DOCTYPE svg PUBLIC "-//W3C//DTD SVG 1.1//EN" "http://www.w3.org/Graphics/SVG/1.1/DTD/svg11.dtd">
<svg width="100%" height="100%" viewBox="0 0 580 580" version="1.1" xmlns="http://www.w3.org/2000/svg" xmlns:xlink="http://www.w3.org/1999/xlink" xml:space="preserve" xmlns:serif="http://www.serif.com/" style="fill-rule:evenodd;clip-rule:evenodd;stroke-linecap:round;stroke-linejoin:round;stroke-miterlimit:1.5;">
    <g id="Layer-1" serif:id="Layer 1">
    </g>
    <g id="Layer-2" serif:id="Layer 2">
        <g transform="matrix(0.477143,-0.0284044,-0.0140967,0.476505,307.295,24.2531)">
            <path d="M469.715,82.398L103.731,437.562" style="fill:none;stroke:white;stroke-opacity:0.8;stroke-width:98.97px;"/>
        </g>
        <g transform="matrix(0.920288,0,0,0.920288,12.2336,24.1112)">
            <g id="path3470" transform="matrix(1.06924,0,0,1.06924,-74.1297,33.6396)">
                <path id="path876" d="M114.408,185.184L299.371,395.226L476.497,293.34L296.236,84.865L114.408,185.184Z" style="fill:none;stroke:white;stroke-opacity:0.8;stroke-width:65.04px;stroke-linecap:butt;stroke-miterlimit:2;"/>
                <path id="path878" d="M294.281,81.32L112.453,181.641C111.164,182.352 110.361,183.712 110.361,185.184C110.361,186.169 110.72,187.12 111.371,187.859L296.334,397.9C297.601,399.339 299.726,399.69 301.389,398.734L478.514,296.848C479.768,296.126 480.543,294.786 480.543,293.339C480.543,292.368 480.193,291.428 479.559,290.693L299.297,82.217C298.051,80.777 295.949,80.401 294.281,81.32ZM295.32,89.992L470.229,292.277L300.221,390.068L120.775,186.293L295.32,89.992Z" style="fill:none;stroke:white;stroke-opacity:0.8;stroke-width:65.04px;stroke-linecap:butt;stroke-miterlimit:2;"/>
            </g>
            <g id="path3474" transform="matrix(1.06924,0,0,1.06924,-74.1297,33.6396)">
                <path id="path870" d="M104.47,208.425L286.297,415.333L287.081,493.707L103.686,286.407L104.47,208.425Z" style="fill:none;stroke:white;stroke-opacity:0.8;stroke-width:65.04px;stroke-linecap:butt;stroke-miterlimit:2;"/>
                <path id="path872" d="M103.061,204.631C101.492,205.213 100.439,206.711 100.422,208.385L99.639,286.367C99.629,287.369 99.991,288.34 100.654,289.09L284.051,496.389C284.819,497.256 285.923,497.753 287.081,497.753C289.302,497.753 291.129,495.926 291.129,493.706C291.129,493.692 291.129,493.679 291.129,493.666L290.344,415.293C290.334,414.324 289.977,413.39 289.338,412.662L107.51,205.754C106.405,204.497 104.63,204.048 103.061,204.631ZM108.41,219.041L282.266,416.875L282.926,482.9L107.748,284.891L108.41,219.041Z" style="fill:none;stroke:white;stroke-opacity:0.8;stroke-width:65.04px;stroke-linecap:butt;stroke-miterlimit:2;"/>
            </g>
            <g id="path2" transform="matrix(0.69487,0,0,0.69487,301.263,-41.676)">
                <path d="M312.8,338.8C302.2,351.7 288.4,360.4 272.3,364.8C265.3,366.7 262.1,370.4 262.5,377.7C262.8,384.9 262.5,392 262.4,399.2C262.4,405.6 259.1,409 252.8,409.2C248.7,409.3 244.6,409.4 240.5,409.4C236.9,409.4 233.3,409.4 229.7,409.3C222.9,409.2 219.7,405.3 219.7,398.7C219.6,393.5 219.6,388.2 219.6,383C219.5,371.4 219.1,371 208,369.2C193.8,366.9 179.8,363.7 166.8,357.4C156.6,352.4 155.5,349.9 158.4,339.1C160.6,331.1 162.8,323.1 165.3,315.2C167.1,309.4 168.8,306.8 171.9,306.8C173.7,306.8 176,307.7 179.1,309.3C193.5,316.8 208.8,321 224.9,323C227.6,323.3 230.3,323.5 233,323.5C240.5,323.5 247.8,322.1 254.9,319C272.8,311.2 275.6,290.5 260.5,278.1C255.4,273.9 249.5,270.8 243.4,268.1C227.7,261.2 211.4,256 196.6,247.1C172.6,232.7 157.4,213 159.2,183.8C161.2,150.8 179.9,130.2 210.2,119.2C222.7,114.7 222.8,114.8 222.8,101.8C222.8,97.4 222.7,93 222.9,88.5C223.2,78.7 224.8,77 234.6,76.7L246,76.7C264.6,76.7 264.6,77.5 264.7,97.6C264.8,112.4 264.8,112.4 279.5,114.7C290.8,116.5 301.5,119.8 311.9,124.4C317.6,126.9 319.8,130.9 318,137C315.4,146 312.9,155.1 310.1,164C308.3,169.4 306.6,171.9 303.4,171.9C301.6,171.9 299.4,171.2 296.6,169.8C282.2,162.8 267.1,159.4 251.3,159.4C249.3,159.4 247.2,159.5 245.2,159.6C240.5,159.9 235.9,160.5 231.5,162.4C215.9,169.2 213.4,186.4 226.7,197C233.4,202.4 241.1,206.2 249,209.5C262.8,215.2 276.6,220.7 289.7,227.9C330.9,250.9 342.1,303.2 312.8,338.8Z" style="fill:none;fill-rule:nonzero;stroke:white;stroke-opacity:0.8;stroke-width:100.08px;stroke-linecap:butt;stroke-miterlimit:2;"/>
            </g>
            <g id="path3476" transform="matrix(1.06924,0,0,1.06924,-74.1297,33.6396)">
                <g opacity="0.75">
                    <path id="path925" d="M475.086,320.565L308.135,418.391L308.018,420.969L474.829,323.213L475.086,320.565Z" style="fill:none;stroke:white;stroke-opacity:0.8;stroke-width:65.04px;stroke-linecap:butt;stroke-miterlimit:2;"/>
                    <path id="path927" d="M475.215,313.898C473.987,313.874 472.775,314.19 471.715,314.811L304.764,412.637C302.815,413.778 301.575,415.834 301.473,418.09L301.355,420.668C301.351,420.768 301.349,420.868 301.349,420.969C301.349,424.627 304.359,427.638 308.018,427.638C309.204,427.638 310.368,427.322 311.391,426.723L478.201,328.967C480.044,327.886 481.26,325.984 481.467,323.857L481.723,321.209C481.743,320.996 481.754,320.781 481.754,320.567C481.754,316.957 478.824,313.969 475.215,313.898Z" style="fill:none;stroke:white;stroke-opacity:0.8;stroke-width:65.04px;stroke-linecap:butt;stroke-miterlimit:2;"/>
                </g>
            </g>
            <g id="path3505" transform="matrix(1.06924,0,0,1.06924,-74.1297,33.6396)">
                <g opacity="0.75">
                    <path id="path919" d="M475.086,352.943L308.135,450.769L308.018,453.348L474.829,355.592L475.086,352.943Z" style="fill:none;stroke:white;stroke-opacity:0.8;stroke-width:65.04px;stroke-linecap:butt;stroke-miterlimit:2;"/>
                    <path id="path921" d="M475.215,346.275C473.986,346.252 472.775,346.568 471.715,347.189L304.764,445.016C302.816,446.157 301.575,448.212 301.473,450.467L301.355,453.045C301.351,453.146 301.349,453.247 301.349,453.348C301.349,457.006 304.359,460.017 308.018,460.017C309.204,460.017 310.368,459.701 311.391,459.102L478.201,361.346C480.044,360.265 481.26,358.363 481.467,356.236L481.723,353.588C481.743,353.374 481.754,353.159 481.754,352.944C481.754,349.334 478.824,346.346 475.215,346.275Z" style="fill:none;stroke:white;stroke-opacity:0.8;stroke-width:65.04px;stroke-linecap:butt;stroke-miterlimit:2;"/>
                </g>
            </g>
            <g id="path3507" transform="matrix(1.06924,0,0,1.06924,-74.1297,33.6396)">
                <g opacity="0.75">
                    <path id="path913" d="M475.086,385.322L308.135,483.148L308.018,485.726L474.829,387.97L475.086,385.322Z" style="fill:none;stroke:white;stroke-opacity:0.8;stroke-width:65.04px;stroke-linecap:butt;stroke-miterlimit:2;"/>
                    <path id="path915" d="M475.215,378.654C473.986,378.631 472.775,378.947 471.715,379.568L304.764,477.395C302.816,478.536 301.575,480.591 301.473,482.846L301.355,485.424C301.351,485.525 301.349,485.626 301.349,485.726C301.349,489.385 304.359,492.396 308.018,492.396C309.204,492.396 310.368,492.08 311.391,491.48L478.201,393.725C480.045,392.644 481.261,390.74 481.467,388.613L481.723,385.965C481.743,385.751 481.754,385.537 481.754,385.323C481.754,381.713 478.824,378.725 475.215,378.654Z" style="fill:none;stroke:white;stroke-opacity:0.8;stroke-width:65.04px;stroke-linecap:butt;stroke-miterlimit:2;"/>
                </g>
            </g>
        </g>
        <g transform="matrix(0.920288,0,0,0.920288,12.2336,24.1112)">
            <g id="path34701" serif:id="path3470" transform="matrix(1.06924,0,0,1.06924,-74.1297,33.6396)">
                <path id="path8761" serif:id="path876" d="M114.408,185.184L299.371,395.226L476.497,293.34L296.236,84.865L114.408,185.184Z" style="fill:rgb(126,90,32);"/>
                <path id="path8781" serif:id="path878" d="M294.281,81.32L112.453,181.641C111.164,182.352 110.361,183.712 110.361,185.184C110.361,186.169 110.72,187.12 111.371,187.859L296.334,397.9C297.601,399.339 299.726,399.69 301.389,398.734L478.514,296.848C479.768,296.126 480.543,294.786 480.543,293.339C480.543,292.368 480.193,291.428 479.559,290.693L299.297,82.217C298.051,80.777 295.949,80.401 294.281,81.32ZM295.32,89.992L470.229,292.277L300.221,390.068L120.775,186.293L295.32,89.992Z" style="fill:rgb(126,90,32);"/>
            </g>
            <g id="path34741" serif:id="path3474" transform="matrix(1.06924,0,0,1.06924,-74.1297,33.6396)">
                <path id="path8701" serif:id="path870" d="M104.47,208.425L286.297,415.333L287.081,493.707L103.686,286.407L104.47,208.425Z" style="fill:rgb(126,90,32);"/>
                <path id="path8721" serif:id="path872" d="M103.061,204.631C101.492,205.213 100.439,206.711 100.422,208.385L99.639,286.367C99.629,287.369 99.991,288.34 100.654,289.09L284.051,496.389C284.819,497.256 285.923,497.753 287.081,497.753C289.302,497.753 291.129,495.926 291.129,493.706C291.129,493.692 291.129,493.679 291.129,493.666L290.344,415.293C290.334,414.324 289.977,413.39 289.338,412.662L107.51,205.754C106.405,204.497 104.63,204.048 103.061,204.631ZM108.41,219.041L282.266,416.875L282.926,482.9L107.748,284.891L108.41,219.041Z" style="fill:rgb(126,90,32);"/>
            </g>
            <g id="path21" serif:id="path2" transform="matrix(0.69487,0,0,0.69487,301.263,-41.676)">
                <path d="M312.8,338.8C302.2,351.7 288.4,360.4 272.3,364.8C265.3,366.7 262.1,370.4 262.5,377.7C262.8,384.9 262.5,392 262.4,399.2C262.4,405.6 259.1,409 252.8,409.2C248.7,409.3 244.6,409.4 240.5,409.4C236.9,409.4 233.3,409.4 229.7,409.3C222.9,409.2 219.7,405.3 219.7,398.7C219.6,393.5 219.6,388.2 219.6,383C219.5,371.4 219.1,371 208,369.2C193.8,366.9 179.8,363.7 166.8,357.4C156.6,352.4 155.5,349.9 158.4,339.1C160.6,331.1 162.8,323.1 165.3,315.2C167.1,309.4 168.8,306.8 171.9,306.8C173.7,306.8 176,307.7 179.1,309.3C193.5,316.8 208.8,321 224.9,323C227.6,323.3 230.3,323.5 233,323.5C240.5,323.5 247.8,322.1 254.9,319C272.8,311.2 275.6,290.5 260.5,278.1C255.4,273.9 249.5,270.8 243.4,268.1C227.7,261.2 211.4,256 196.6,247.1C172.6,232.7 157.4,213 159.2,183.8C161.2,150.8 179.9,130.2 210.2,119.2C222.7,114.7 222.8,114.8 222.8,101.8C222.8,97.4 222.7,93 222.9,88.5C223.2,78.7 224.8,77 234.6,76.7L246,76.7C264.6,76.7 264.6,77.5 264.7,97.6C264.8,112.4 264.8,112.4 279.5,114.7C290.8,116.5 301.5,119.8 311.9,124.4C317.6,126.9 319.8,130.9 318,137C315.4,146 312.9,155.1 310.1,164C308.3,169.4 306.6,171.9 303.4,171.9C301.6,171.9 299.4,171.2 296.6,169.8C282.2,162.8 267.1,159.4 251.3,159.4C249.3,159.4 247.2,159.5 245.2,159.6C240.5,159.9 235.9,160.5 231.5,162.4C215.9,169.2 213.4,186.4 226.7,197C233.4,202.4 241.1,206.2 249,209.5C262.8,215.2 276.6,220.7 289.7,227.9C330.9,250.9 342.1,303.2 312.8,338.8Z" style="fill:rgb(126,90,32);fill-rule:nonzero;"/>
            </g>
            <g id="path34761" serif:id="path3476" transform="matrix(1.06924,0,0,1.06924,-74.1297,33.6396)">
                <g opacity="0.75">
                    <path id="path9251" serif:id="path925" d="M475.086,320.565L308.135,418.391L308.018,420.969L474.829,323.213L475.086,320.565Z" style="fill:rgb(126,90,32);"/>
                    <path id="path9271" serif:id="path927" d="M475.215,313.898C473.987,313.874 472.775,314.19 471.715,314.811L304.764,412.637C302.815,413.778 301.575,415.834 301.473,418.09L301.355,420.668C301.351,420.768 301.349,420.868 301.349,420.969C301.349,424.627 304.359,427.638 308.018,427.638C309.204,427.638 310.368,427.322 311.391,426.723L478.201,328.967C480.044,327.886 481.26,325.984 481.467,323.857L481.723,321.209C481.743,320.996 481.754,320.781 481.754,320.567C481.754,316.957 478.824,313.969 475.215,313.898Z" style="fill:rgb(126,90,32);"/>
                </g>
            </g>
            <g id="path35051" serif:id="path3505" transform="matrix(1.06924,0,0,1.06924,-74.1297,33.6396)">
                <g opacity="0.75">
                    <path id="path9191" serif:id="path919" d="M475.086,352.943L308.135,450.769L308.018,453.348L474.829,355.592L475.086,352.943Z" style="fill:rgb(126,90,32);"/>
                    <path id="path9211" serif:id="path921" d="M475.215,346.275C473.986,346.252 472.775,346.568 471.715,347.189L304.764,445.016C302.816,446.157 301.575,448.212 301.473,450.467L301.355,453.045C301.351,453.146 301.349,453.247 301.349,453.348C301.349,457.006 304.359,460.017 308.018,460.017C309.204,460.017 310.368,459.701 311.391,459.102L478.201,361.346C480.044,360.265 481.26,358.363 481.467,356.236L481.723,353.588C481.743,353.374 481.754,353.159 481.754,352.944C481.754,349.334 478.824,346.346 475.215,346.275Z" style="fill:rgb(126,90,32);"/>
                </g>
            </g>
            <g id="path35071" serif:id="path3507" transform="matrix(1.06924,0,0,1.06924,-74.1297,33.6396)">
                <g opacity="0.75">
                    <path id="path9131" serif:id="path913" d="M475.086,385.322L308.135,483.148L308.018,485.726L474.829,387.97L475.086,385.322Z" style="fill:rgb(126,90,32);"/>
                    <path id="path9151" serif:id="path915" d="M475.215,378.654C473.986,378.631 472.775,378.947 471.715,379.568L304.764,477.395C302.816,478.536 301.575,480.591 301.473,482.846L301.355,485.424C301.351,485.525 301.349,485.626 301.349,485.726C301.349,489.385 304.359,492.396 308.018,492.396C309.204,492.396 310.368,492.08 311.391,491.48L478.201,393.725C480.045,392.644 481.261,390.74 481.467,388.613L481.723,385.965C481.743,385.751 481.754,385.537 481.754,385.323C481.754,381.713 478.824,378.725 475.215,378.654Z" style="fill:rgb(126,90,32);"/>
                </g>
            </g>
        </g>
        <g transform="matrix(0.477143,-0.0284044,-0.0140967,0.476505,307.295,24.2531)">
            <path d="M469.715,82.398L103.731,437.562" style="fill:none;stroke:rgb(236,20,20);stroke-width:34px;"/>
        </g>
    </g>
</svg>
