<?xml version="1.0" encoding="UTF-8" standalone="no"?>
<!DOCTYPE svg PUBLIC "-//W3C//DTD SVG 1.1//EN" "http://www.w3.org/Graphics/SVG/1.1/DTD/svg11.dtd">
<svg width="100%" height="100%" viewBox="0 0 580 580" version="1.1" xmlns="http://www.w3.org/2000/svg" xmlns:xlink="http://www.w3.org/1999/xlink" xml:space="preserve" xmlns:serif="http://www.serif.com/" style="fill-rule:evenodd;clip-rule:evenodd;stroke-linejoin:round;">
    <g id="Layer-1" serif:id="Layer 1">
        <ellipse id="path4503" cx="290.435" cy="290.829" rx="273.934" ry="274.361" style="fill:rgb(172,57,172);stroke:white;stroke-width:19.37px;"/>
    </g>
    <g id="Layer-2" serif:id="Layer 2">
        <g id="path2303" transform="matrix(0.83768,0,0,0.83768,34.6664,40.0917)">
            <path d="M459.1,103.5C453.7,108.4 450.2,115.9 450.35,120.45L455.8,374L412.8,400.8L428.7,476.8L459.2,476.9C459.2,473.8 459.5,437.1 459.6,424.9L478.5,414.5L497.2,425.1L496.8,477.1L525.6,477.3L539.8,401.3L498.9,373.3L508.35,121.3C508.4,116.3 504.8,108.4 499.2,103.4C493.6,98.3 486.3,96 479.1,96.05C471.8,96.1 464.6,98.6 459.1,103.5ZM488.4,123.6C488.4,128.4 484.5,132.2 479.7,132.2C474.9,132.2 471.1,128.3 471.1,123.5C471.1,118.7 475,114.9 479.8,114.9C484.6,114.9 488.4,118.8 488.4,123.6Z" style="fill:white;fill-rule:nonzero;"/>
        </g>
        <g id="path2301" transform="matrix(0.83768,0,0,0.83768,34.6664,40.0917)">
            <path d="M103,184L76,255C65,257 45,270 45,294L45,385L72,385L72,414C72,450 123,450 123,414L123,385L305,385L305,414C305,450 356,450 356,414L356,385L383,385L383,294C383,270 364,257 353,255L325,184C320,170 308,158 287,158L141,158C120,158 109,170 103,184ZM287,185C296,185 300,190 303,198L324,255L104,255L125,198C128,190 132,185 141,185L287,185ZM122,306C122,320 111,330 98,330C85,330 75,320 75,306C75,293 85,282 98,282C111,282 122,293 122,306ZM353,306C353,320 343,330 330,330C317,330 306,320 306,306C306,293 317,282 330,282C343,282 353,293 353,306Z" style="fill:white;fill-rule:nonzero;"/>
        </g>
    </g>
</svg>
