<?xml version="1.0" encoding="UTF-8" standalone="no"?>
<!DOCTYPE svg PUBLIC "-//W3C//DTD SVG 1.1//EN" "http://www.w3.org/Graphics/SVG/1.1/DTD/svg11.dtd">
<svg width="100%" height="100%" viewBox="0 0 580 580" version="1.1" xmlns="http://www.w3.org/2000/svg" xmlns:xlink="http://www.w3.org/1999/xlink" xml:space="preserve" xmlns:serif="http://www.serif.com/" style="fill-rule:evenodd;clip-rule:evenodd;stroke-linejoin:round;">
    <g id="Layer-1" serif:id="Layer 1">
        <ellipse id="path4503" cx="290.435" cy="290.829" rx="273.934" ry="274.361" style="fill:rgb(0,146,218);stroke:white;stroke-width:20px;"/>
        <g id="g22114" transform="matrix(0.605513,0,0,0.617439,167.475,25.431)">
            <path id="path1897" d="M194.831,83.521C184.649,83.521 174.499,90.658 174.499,102.076L174.274,469.103L195.206,469.103L195.394,498.137L387.57,498.027L387.72,469.103L405.726,469.249L405.726,98.292C405.726,90.38 401,83.521 392.109,83.521L194.831,83.521Z" style="fill:white;"/>
            <rect id="rect4562" x="201.818" y="119.818" width="176.364" height="176.364" style="fill:rgb(0,146,218);"/>
        </g>
        <g id="g3859" transform="matrix(0.538667,0,0,0.538667,132.539,273.622)">
            <g id="path596" transform="matrix(-0.983459,0,0,0.983459,323.422,-101.892)">
                <circle cx="200.532" cy="461.963" r="78.381" style="fill:none;stroke:white;stroke-width:26px;stroke-linejoin:miter;"/>
            </g>
            <g id="path595" transform="matrix(-0.983459,0,0,0.983459,653.783,-103.393)">
                <circle cx="200.532" cy="461.963" r="78.381" style="fill:none;stroke:white;stroke-width:26px;stroke-linejoin:miter;"/>
            </g>
            <path id="path594" d="M395.501,219.785L197.284,220.786L127.208,350.928L261.354,350.928L401.507,255.824" style="fill:none;stroke:white;stroke-width:20.53px;"/>
            <path id="path593" d="M387.884,141.791C398.651,141.791 406.789,141.551 415.131,154.294C417.532,158.542 418.629,163.729 417.743,168.893C416.679,174.764 413.203,180.532 409.106,183.946C403.68,188.468 398.531,188.119 399.363,192.184C400.431,197.399 403.689,204.647 407.211,216.415C410.786,228.361 415.03,242.982 419.197,257.383C423.363,271.783 427.453,285.972 430.691,297.028C432.31,302.556 433.724,307.303 434.809,310.858C435.867,314.322 436.801,317.012 436.715,316.82C440.088,322.755 440.547,326.622 446.205,331.673C452.548,337.225 457.713,341.327 459.505,342.579C464.058,345.887 466.175,352.866 463.771,356.315C460.741,361.015 454.483,361.736 449.91,360.33C445.567,358.952 438.693,356.584 430.722,349.981L430.66,349.889L430.568,349.828C419.477,340.314 415.373,328.768 414.956,328.1L414.372,327.208L413.972,326.225C413.011,323.859 412.435,321.773 411.298,318.05C410.161,314.327 408.72,309.517 407.088,303.943C403.824,292.797 399.755,278.586 395.594,264.205C391.433,249.825 387.199,235.278 383.669,223.484C380.14,211.69 377.91,202.003 377.086,199.942C375.08,194.927 374.055,189.513 375.426,184.084C376.798,178.656 380.896,174.274 384.575,173.256C392.972,170.907 390.744,164.867 386.448,164.858L350.447,164.785L350.359,141.791C350.359,141.791 373.726,141.791 387.884,141.791L387.884,141.791Z" style="fill:white;"/>
            <path id="path599" d="M258.786,346.853L190.829,180.502" style="fill:none;stroke:white;stroke-width:24.59px;stroke-linejoin:miter;"/>
            <path id="path600" d="M282.147,304.379L241.087,399.946" style="fill:none;stroke:white;stroke-width:8.97px;stroke-linecap:round;stroke-linejoin:miter;"/>
            <g id="path597" transform="matrix(-0.277291,0,0,0.244915,316.209,238.036)">
                <circle cx="200.532" cy="461.963" r="78.381" style="fill:white;stroke:white;stroke-width:31.31px;stroke-linejoin:miter;"/>
            </g>
            <path id="path601" d="M300.426,304.422L264.156,304.755" style="fill:none;stroke:white;stroke-width:12.54px;stroke-linecap:round;stroke-linejoin:miter;"/>
            <path id="path602" d="M259.577,398.574L223.307,398.906" style="fill:none;stroke:white;stroke-width:12.54px;stroke-linecap:round;stroke-linejoin:miter;"/>
            <path id="path603" d="M157.559,165.636L242.858,165.636C246.044,165.636 250.155,171.271 246.044,175.015C241.597,179.247 201.624,187.934 201.624,187.934C201.624,187.934 190.652,190.942 184.812,190.235C178.972,189.527 158.797,187.757 157.559,165.636Z" style="fill:white;"/>
        </g>
    </g>
    <g transform="matrix(-3.51387,0,0,3.51387,471.276,49.889)">
        <path d="M75.794,79.826C80.067,78.995 83,74.997 83,70.645L83,32C87.971,32 92,27.971 92,23L92,18.5C92,17.671 91.328,17 90.5,17L89,17L89,11C89,9.343 87.657,8 86,8C84.343,8 83,9.343 83,11L83,17L77,17L77,11C77,9.343 75.657,8 74,8C72.343,8 71,9.343 71,11L71,17L69.5,17C68.672,17 68,17.671 68,18.5L68,23C68,27.971 72.029,32 77,32L77,71C77,72.654 75.654,74 74,74C72.346,74 71,72.654 71,71L71,53C71,49.686 68.314,47 65,47L56,47L56,53L65,53L65,71C65,76.55 70.048,80.942 75.794,79.826Z" style="fill:white;fill-rule:nonzero;"/>
    </g>
</svg>
