<?xml version="1.0" encoding="UTF-8" standalone="no"?>
<!DOCTYPE svg PUBLIC "-//W3C//DTD SVG 1.1//EN" "http://www.w3.org/Graphics/SVG/1.1/DTD/svg11.dtd">
<svg width="100%" height="100%" viewBox="0 0 851 1063" version="1.1" xmlns="http://www.w3.org/2000/svg" xmlns:xlink="http://www.w3.org/1999/xlink" xml:space="preserve" xmlns:serif="http://www.serif.com/" style="fill-rule:evenodd;clip-rule:evenodd;stroke-linejoin:round;stroke-miterlimit:2;">
    <g>
        <path d="M424.621,48.2C462.318,48.316 491.8,77.274 491.9,114.3C492,140.9 475.5,164.8 450,175.3C449.3,175.6 448.8,176.3 448.8,177.1L448.9,211.5C448.9,212.5 449.6,213.3 450.6,213.4L550,223.7L550,273.1L452.8,283.4C451.8,283.5 451.1,284.3 451.1,285.3C451.1,294.7 451,302.9 451,310.7C450.9,331.1 450.8,347.3 451.2,371.7C453.3,452.7 454.6,519.4 455.3,581.4C455.7,620.2 457.2,655.8 458.7,662.4C462.5,679.3 471,686.1 487.7,686.1C497.6,686.1 510.6,683.7 530,678.3C580.4,664.3 642.4,633.7 652.9,617.5C661.6,604.1 662.9,592.3 656.3,585C654.4,582.9 651.9,581.2 649.5,580.4C665.1,567.1 734.2,511.5 745.5,504.2C746.5,510 745.5,532.5 740.8,573.3C737.3,603.4 733.6,628 731.5,638.1C728.8,632.4 723.9,629.3 717.2,629.3C705.3,629.3 689,638.9 672.5,655.5C650.8,677.4 609,709.5 591,718.1C589.6,718.8 586.9,720.1 583.4,721.9C570.1,728.6 545.3,740.9 534.4,744.7C522.5,748.8 462.4,770 445.6,785.1C444.3,786.2 442.9,787.8 441.3,789.4C436.917,793.982 430.947,800.251 426.354,800.3L426.3,800.3C422.1,800.3 415.8,794 411.2,789.3C409.6,787.7 408.2,786.3 407,785.2C393.9,773.6 350.9,756.4 318.1,745.3C307.1,741.6 282.2,729.3 268.7,722.7C265.3,721 262.6,719.7 261.2,719C243.2,710.5 201.2,678.6 179.4,656.8C162.8,640.3 146.5,630.8 134.7,630.8C127.9,630.8 122.9,633.9 120.3,639.7C118.1,629.6 114.3,605 110.6,574.9C105.9,534.3 104.8,511.7 105.7,505.9C117.1,513.2 186.6,568.4 202.3,581.6C199.9,582.4 197.4,584.1 195.5,586.2C189,593.5 190.2,605.3 199,618.7C209.6,634.8 271.9,665.1 322.3,678.8C341.5,684 354.5,686.3 364.3,686.3C381.2,686.3 389.7,679.4 393.4,662.4C394.9,655.8 396.2,620.3 396.3,581.4C396.7,519.2 397.7,452.6 399.3,371.7C399.5,348.2 399.4,331.9 399.1,313C399,304.6 398.9,295.7 398.8,285.4C398.8,284.4 398.1,283.6 397.1,283.5L300.7,273.7L300.7,224.2L399.2,213.5C400.2,213.4 400.9,212.6 400.9,211.6L400.8,177.2C400.8,176.4 400.3,175.7 399.6,175.4C374,165.1 357.5,141.2 357.4,114.7C357.3,96.9 364.2,80.2 376.6,67.8C389.1,55.2 406.1,48.3 424.4,48.2L424.621,48.2ZM569.3,284.7L559.5,284.7C556.5,284.7 554.1,282.3 554.1,279.3L554.1,220C554.1,217 556.5,214.6 559.5,214.6L569.3,214.6C572.3,214.6 574.7,217 574.7,220L574.7,279.3C574.7,282.3 572.3,284.7 569.3,284.7ZM291.7,284.7L281.9,284.7C278.9,284.7 276.5,282.3 276.5,279.3L276.5,220C276.5,217 278.9,214.6 281.9,214.6L291.7,214.6C294.7,214.6 297.1,217 297.1,220L297.1,279.3C297.1,282.3 294.7,284.7 291.7,284.7ZM254.1,233.6C255.1,230.1 256.2,229.2 256.6,229.2L272.7,227.5L272.7,271L255.7,269.3C252.9,267.6 250.8,245.4 254.1,233.6ZM578.5,270.2L578.5,226.8L593.4,228.3C594,228.3 595.1,229.2 596.1,232.8C599.4,244.6 597.5,266.8 594.7,268.5L578.5,270.2ZM425.3,148.6C444.9,148.5 460.7,132.7 460.6,113.2C460.5,93.8 444.7,78 425.3,78L425.2,78C415.8,78 406.9,81.7 400.2,88.4C393.5,95.1 389.9,104 389.9,113.4C390,132.8 405.9,148.6 425.3,148.6Z" style="fill:none;fill-rule:nonzero;stroke:white;stroke-width:30px;"/>
        <path d="M424.621,48.2C462.318,48.316 491.8,77.274 491.9,114.3C492,140.9 475.5,164.8 450,175.3C449.3,175.6 448.8,176.3 448.8,177.1L448.9,211.5C448.9,212.5 449.6,213.3 450.6,213.4L550,223.7L550,273.1L452.8,283.4C451.8,283.5 451.1,284.3 451.1,285.3C451.1,294.7 451,302.9 451,310.7C450.9,331.1 450.8,347.3 451.2,371.7C453.3,452.7 454.6,519.4 455.3,581.4C455.7,620.2 457.2,655.8 458.7,662.4C462.5,679.3 471,686.1 487.7,686.1C497.6,686.1 510.6,683.7 530,678.3C580.4,664.3 642.4,633.7 652.9,617.5C661.6,604.1 662.9,592.3 656.3,585C654.4,582.9 651.9,581.2 649.5,580.4C665.1,567.1 734.2,511.5 745.5,504.2C746.5,510 745.5,532.5 740.8,573.3C737.3,603.4 733.6,628 731.5,638.1C728.8,632.4 723.9,629.3 717.2,629.3C705.3,629.3 689,638.9 672.5,655.5C650.8,677.4 609,709.5 591,718.1C589.6,718.8 586.9,720.1 583.4,721.9C570.1,728.6 545.3,740.9 534.4,744.7C522.5,748.8 462.4,770 445.6,785.1C444.3,786.2 442.9,787.8 441.3,789.4C436.917,793.982 430.947,800.251 426.354,800.3L426.3,800.3C422.1,800.3 415.8,794 411.2,789.3C409.6,787.7 408.2,786.3 407,785.2C393.9,773.6 350.9,756.4 318.1,745.3C307.1,741.6 282.2,729.3 268.7,722.7C265.3,721 262.6,719.7 261.2,719C243.2,710.5 201.2,678.6 179.4,656.8C162.8,640.3 146.5,630.8 134.7,630.8C127.9,630.8 122.9,633.9 120.3,639.7C118.1,629.6 114.3,605 110.6,574.9C105.9,534.3 104.8,511.7 105.7,505.9C117.1,513.2 186.6,568.4 202.3,581.6C199.9,582.4 197.4,584.1 195.5,586.2C189,593.5 190.2,605.3 199,618.7C209.6,634.8 271.9,665.1 322.3,678.8C341.5,684 354.5,686.3 364.3,686.3C381.2,686.3 389.7,679.4 393.4,662.4C394.9,655.8 396.2,620.3 396.3,581.4C396.7,519.2 397.7,452.6 399.3,371.7C399.5,348.2 399.4,331.9 399.1,313C399,304.6 398.9,295.7 398.8,285.4C398.8,284.4 398.1,283.6 397.1,283.5L300.7,273.7L300.7,224.2L399.2,213.5C400.2,213.4 400.9,212.6 400.9,211.6L400.8,177.2C400.8,176.4 400.3,175.7 399.6,175.4C374,165.1 357.5,141.2 357.4,114.7C357.3,96.9 364.2,80.2 376.6,67.8C389.1,55.2 406.1,48.3 424.4,48.2L424.621,48.2ZM569.3,284.7L559.5,284.7C556.5,284.7 554.1,282.3 554.1,279.3L554.1,220C554.1,217 556.5,214.6 559.5,214.6L569.3,214.6C572.3,214.6 574.7,217 574.7,220L574.7,279.3C574.7,282.3 572.3,284.7 569.3,284.7ZM291.7,284.7L281.9,284.7C278.9,284.7 276.5,282.3 276.5,279.3L276.5,220C276.5,217 278.9,214.6 281.9,214.6L291.7,214.6C294.7,214.6 297.1,217 297.1,220L297.1,279.3C297.1,282.3 294.7,284.7 291.7,284.7ZM254.1,233.6C255.1,230.1 256.2,229.2 256.6,229.2L272.7,227.5L272.7,271L255.7,269.3C252.9,267.6 250.8,245.4 254.1,233.6ZM578.5,270.2L578.5,226.8L593.4,228.3C594,228.3 595.1,229.2 596.1,232.8C599.4,244.6 597.5,266.8 594.7,268.5L578.5,270.2ZM425.3,148.6C444.9,148.5 460.7,132.7 460.6,113.2C460.5,93.8 444.7,78 425.3,78L425.2,78C415.8,78 406.9,81.7 400.2,88.4C393.5,95.1 389.9,104 389.9,113.4C390,132.8 405.9,148.6 425.3,148.6Z" style="fill-rule:nonzero;"/>
    </g>
</svg>
