<?xml version="1.0" encoding="UTF-8" standalone="no"?>
<!DOCTYPE svg PUBLIC "-//W3C//DTD SVG 1.1//EN" "http://www.w3.org/Graphics/SVG/1.1/DTD/svg11.dtd">
<svg width="100%" height="100%" viewBox="0 0 580 580" version="1.1" xmlns="http://www.w3.org/2000/svg" xmlns:xlink="http://www.w3.org/1999/xlink" xml:space="preserve" xmlns:serif="http://www.serif.com/" style="fill-rule:evenodd;clip-rule:evenodd;stroke-linejoin:round;stroke-miterlimit:2;">
    <g transform="matrix(9.36,0,0,9.28,55.7653,58.3554)">
        <g transform="matrix(1.21111,0,0,1.21111,-5.28313,-5.26975)">
            <path d="M1.2,46.6L1.4,47C1.9,48.2 3.4,48.8 4.7,48.4L22.1,42.7L13.6,40L2.7,43.6C1.4,44 0.7,45.3 1.2,46.6Z" style="fill:none;fill-rule:nonzero;stroke:white;stroke-width:2.92px;"/>
            <path d="M1.2,46.6L1.4,47C1.9,48.2 3.4,48.8 4.7,48.4L22.1,42.7L13.6,40L2.7,43.6C1.4,44 0.7,45.3 1.2,46.6Z" style="fill:rgb(128,90,32);fill-rule:nonzero;"/>
        </g>
        <g transform="matrix(1.21111,0,0,1.21111,-5.28313,-5.26975)">
            <path d="M48.7,31C48.2,29.8 46.7,29.2 45.4,29.6L28,35.3L36.4,38.1L47.3,34.5C48.6,34.1 49.3,32.7 48.9,31.5L48.7,31Z" style="fill:none;fill-rule:nonzero;stroke:white;stroke-width:2.92px;"/>
            <path d="M48.7,31C48.2,29.8 46.7,29.2 45.4,29.6L28,35.3L36.4,38.1L47.3,34.5C48.6,34.1 49.3,32.7 48.9,31.5L48.7,31Z" style="fill:rgb(128,90,32);fill-rule:nonzero;"/>
        </g>
        <g transform="matrix(1.21111,0,0,1.21111,-5.28313,-5.26975)">
            <path d="M1.4,31L1.2,31.5C0.7,32.7 1.4,34.1 2.8,34.5C50.3,50.1 19.5,40 45.3,48.4C46.7,48.8 48.1,48.2 48.6,47L48.8,46.5C49.3,45.3 48.6,43.9 47.2,43.5C41.2,41.5 47.8,43.7 4.6,29.6C3.3,29.2 1.8,29.8 1.4,31Z" style="fill:none;fill-rule:nonzero;stroke:white;stroke-width:2.92px;"/>
            <path d="M1.4,31L1.2,31.5C0.7,32.7 1.4,34.1 2.8,34.5C50.3,50.1 19.5,40 45.3,48.4C46.7,48.8 48.1,48.2 48.6,47L48.8,46.5C49.3,45.3 48.6,43.9 47.2,43.5C41.2,41.5 47.8,43.7 4.6,29.6C3.3,29.2 1.8,29.8 1.4,31Z" style="fill:rgb(128,90,32);fill-rule:nonzero;"/>
        </g>
        <g transform="matrix(1.21111,0,0,1.21111,-5.28313,-5.26975)">
            <path d="M13.1,24.4C14.1,28.1 16.5,30.6 20.1,32.1C18.9,31.3 18.4,30.1 18.1,28.9C18.1,28.9 19.6,29.3 19.7,29C19.7,29 18.2,25.1 20.6,21.3C20.6,21.3 21.5,23.7 22.4,24.7C22.4,24.7 22.4,18.5 27.9,15.5C28,17.6 25.8,17.6 29.3,26.9C29.3,26.9 30.9,25.1 30.9,23.1C30.9,23.1 32.8,24.7 31.5,29.3C31.2,30.6 30.4,31.7 29.4,32.5C32.8,31.3 35.3,28.3 36.2,25.2C38.3,17.4 35.2,14.6 35.2,14.6L35.2,15.2C35,18.3 32.5,21.1 32.5,21.1C30.8,16.5 31.1,17.1 30.5,15.8C27.6,10.3 30,1.4 30,1.4C20.5,6.5 20.5,17.1 20.5,17.1C19,15.4 17.5,11.3 17.5,11.3C13.4,17.9 15.9,24.6 15.9,24.6C15.6,25.1 13.1,24.4 13.1,24.4Z" style="fill:none;fill-rule:nonzero;stroke:white;stroke-width:2.92px;"/>
            <path d="M13.1,24.4C14.1,28.1 16.5,30.6 20.1,32.1C18.9,31.3 18.4,30.1 18.1,28.9C18.1,28.9 19.6,29.3 19.7,29C19.7,29 18.2,25.1 20.6,21.3C20.6,21.3 21.5,23.7 22.4,24.7C22.4,24.7 22.4,18.5 27.9,15.5C28,17.6 25.8,17.6 29.3,26.9C29.3,26.9 30.9,25.1 30.9,23.1C30.9,23.1 32.8,24.7 31.5,29.3C31.2,30.6 30.4,31.7 29.4,32.5C32.8,31.3 35.3,28.3 36.2,25.2C38.3,17.4 35.2,14.6 35.2,14.6L35.2,15.2C35,18.3 32.5,21.1 32.5,21.1C30.8,16.5 31.1,17.1 30.5,15.8C27.6,10.3 30,1.4 30,1.4C20.5,6.5 20.5,17.1 20.5,17.1C19,15.4 17.5,11.3 17.5,11.3C13.4,17.9 15.9,24.6 15.9,24.6C15.6,25.1 13.1,24.4 13.1,24.4Z" style="fill:rgb(128,90,32);fill-rule:nonzero;"/>
        </g>
    </g>
</svg>
