<?xml version="1.0" encoding="UTF-8" standalone="no"?>
<!DOCTYPE svg PUBLIC "-//W3C//DTD SVG 1.1//EN" "http://www.w3.org/Graphics/SVG/1.1/DTD/svg11.dtd">
<svg width="100%" height="100%" viewBox="0 0 580 580" version="1.1" xmlns="http://www.w3.org/2000/svg" xmlns:xlink="http://www.w3.org/1999/xlink" xml:space="preserve" xmlns:serif="http://www.serif.com/" style="fill-rule:evenodd;clip-rule:evenodd;stroke-linejoin:round;stroke-miterlimit:2;">
    <g id="path3236" transform="matrix(1,0,0,1,-6.80477,-31.6662)">
        <path d="M86.6,509.724C133.3,483.924 189.6,465.724 234.6,478.724C280.5,492.724 318.6,526.324 365.6,535.724C419.4,548.724 475.6,534.124 523.6,509.724C517.6,492.524 508.3,474.724 506,467.124C463.1,483.824 409,497.124 369,485.824C303,461.724 263,429.724 201,423.724C153,424.424 105,443.224 65,468.724C67.2,476.524 82.4,504.724 86.6,509.724ZM86.6,402.353C133.3,376.553 189.6,358.353 234.6,371.353C280.5,385.353 318.6,418.953 365.6,428.353C419.4,441.353 475.6,426.753 523.6,402.353C517.6,385.153 508.3,367.353 506,359.753C463.1,376.453 409,389.753 369,378.453C303,354.353 263,322.353 201,316.353C153,317.053 105,335.853 65,361.353C67.2,369.153 82.4,397.353 86.6,402.353Z" style="fill:none;fill-rule:nonzero;stroke:white;stroke-opacity:0.8;stroke-width:64px;"/>
    </g>
    <g id="path32361" serif:id="path3236" transform="matrix(1,0,0,1,-6.80477,-31.6662)">
        <path d="M86.6,509.724C133.3,483.924 189.6,465.724 234.6,478.724C280.5,492.724 318.6,526.324 365.6,535.724C419.4,548.724 475.6,534.124 523.6,509.724C517.6,492.524 508.3,474.724 506,467.124C463.1,483.824 409,497.124 369,485.824C303,461.724 263,429.724 201,423.724C153,424.424 105,443.224 65,468.724C67.2,476.524 82.4,504.724 86.6,509.724ZM86.6,402.353C133.3,376.553 189.6,358.353 234.6,371.353C280.5,385.353 318.6,418.953 365.6,428.353C419.4,441.353 475.6,426.753 523.6,402.353C517.6,385.153 508.3,367.353 506,359.753C463.1,376.453 409,389.753 369,378.453C303,354.353 263,322.353 201,316.353C153,317.053 105,335.853 65,361.353C67.2,369.153 82.4,397.353 86.6,402.353Z" style="fill:rgb(0,146,218);fill-rule:nonzero;"/>
    </g>
    <g transform="matrix(1.08906,0,0,1.10484,-68.5243,-23.435)">
        <path d="M164.949,170.008L164.949,205.269L109.916,151.022L164.949,96.774L164.949,132.035L488.861,132.035L488.861,96.774L543.894,151.022L488.861,205.269L488.861,170.008L164.949,170.008Z" style="fill:none;stroke:white;stroke-opacity:0.8;stroke-width:58.34px;stroke-linecap:round;stroke-miterlimit:1.5;"/>
    </g>
    <g transform="matrix(1.08906,0,0,1.10484,-68.5243,-23.435)">
        <path d="M164.949,170.008L164.949,205.269L109.916,151.022L164.949,96.774L164.949,132.035L488.861,132.035L488.861,96.774L543.894,151.022L488.861,205.269L488.861,170.008L164.949,170.008Z" style="fill:rgb(0,146,218);"/>
    </g>
</svg>
