<?xml version="1.0" encoding="UTF-8" standalone="no"?>
<!-- Created with Inkscape (http://www.inkscape.org/) -->

<svg
   xmlns:dc="http://purl.org/dc/elements/1.1/"
   xmlns:cc="http://creativecommons.org/ns#"
   xmlns:rdf="http://www.w3.org/1999/02/22-rdf-syntax-ns#"
   xmlns:svg="http://www.w3.org/2000/svg"
   xmlns="http://www.w3.org/2000/svg"
   xmlns:sodipodi="http://sodipodi.sourceforge.net/DTD/sodipodi-0.dtd"
   xmlns:inkscape="http://www.inkscape.org/namespaces/inkscape"
   version="1.0"
   width="580"
   height="580"
   id="svg2"
   sodipodi:version="0.32"
   inkscape:version="0.92.3 (2405546, 2018-03-11)"
   sodipodi:docname=".svg"
   inkscape:output_extension="org.inkscape.output.svg.inkscape">
  <metadata
     id="metadata2975">
    <rdf:RDF>
      <cc:Work
         rdf:about="">
        <dc:format>image/svg+xml</dc:format>
        <dc:type
           rdf:resource="http://purl.org/dc/dcmitype/StillImage" />
        <cc:license
           rdf:resource="http://web.resource.org/cc/PublicDomain" />
        <dc:language>en</dc:language>
        <dc:title></dc:title>
      </cc:Work>
    </rdf:RDF>
  </metadata>
  <sodipodi:namedview
     inkscape:window-height="922"
     inkscape:window-width="1300"
     inkscape:pageshadow="2"
     inkscape:pageopacity="0.0"
     guidetolerance="10.0"
     gridtolerance="10.0"
     objecttolerance="10.0"
     borderopacity="1.0"
     bordercolor="#666666"
     pagecolor="#ffffff"
     id="base"
     inkscape:zoom="1.1"
     inkscape:cx="261.24402"
     inkscape:cy="290"
     inkscape:window-x="44"
     inkscape:window-y="44"
     inkscape:current-layer="layer4"
     showgrid="false"
     inkscape:window-maximized="0" />
  <defs
     id="defs4">
    <inkscape:perspective
       sodipodi:type="inkscape:persp3d"
       inkscape:vp_x="0 : 290 : 1"
       inkscape:vp_y="6.1230318e-14 : 1000 : 0"
       inkscape:vp_z="580 : 290 : 1"
       inkscape:persp3d-origin="290 : 193.33333 : 1"
       id="perspective2441" />
    <inkscape:perspective
       id="perspective3452"
       inkscape:persp3d-origin="30 : 20 : 1"
       inkscape:vp_z="60 : 30 : 1"
       inkscape:vp_y="0 : 1000 : 0"
       inkscape:vp_x="0 : 30 : 1"
       sodipodi:type="inkscape:persp3d" />
    <symbol
       viewBox="244.5 110 489 219.9"
       id="symbol-university">
      <path
         id="path4460"
         d="M79,43l57,119c0,0,21-96,104-96s124,106,124,106l43-133l82-17L0,17L79,43z" />
      <path
         id="path4462"
         d="M94,176l-21,39"
         stroke-width="20"
         stroke="#000000"
         fill="none" />
      <path
         id="path4464"
         d="M300,19c0,10.5-22.6,19-50.5,19S199,29.5,199,19s22.6-19,50.5-19S300,8.5,300,19z" />
      <path
         id="path4466"
         d="M112,216l-16-38L64,88c0,0-9-8-4-35s16-24,16-24"
         stroke-width="20"
         stroke="#000000"
         ill="none" />
    </symbol>
    <inkscape:perspective
       id="perspective4471"
       inkscape:persp3d-origin="372.04724 : 350.78739 : 1"
       inkscape:vp_z="744.09448 : 526.18109 : 1"
       inkscape:vp_y="0 : 1000 : 0"
       inkscape:vp_x="0 : 526.18109 : 1"
       sodipodi:type="inkscape:persp3d" />
    <inkscape:perspective
       id="perspective4668"
       inkscape:persp3d-origin="6 : 4 : 1"
       inkscape:vp_z="12 : 6 : 1"
       inkscape:vp_y="0 : 1000 : 0"
       inkscape:vp_x="0 : 6 : 1"
       sodipodi:type="inkscape:persp3d" />
    <inkscape:perspective
       id="perspective7157"
       inkscape:persp3d-origin="372.04724 : 350.78739 : 1"
       inkscape:vp_z="744.09448 : 526.18109 : 1"
       inkscape:vp_y="0 : 1000 : 0"
       inkscape:vp_x="0 : 526.18109 : 1"
       sodipodi:type="inkscape:persp3d" />
  </defs>
  <g
     id="layer3"
     inkscape:label="Layout"
     style="display:none;stroke:#757575;stroke-opacity:1"
     transform="matrix(48.14969,0,0,48.14969,-536.27327,-33.306752)">
    <rect
       style="fill:none;stroke:#757575;stroke-width:0.10000000000000001;stroke-miterlimit:4;stroke-dasharray:none;stroke-opacity:1;display:inline"
       id="rect4134"
       width="10"
       height="10"
       x="1"
       y="1" />
    <rect
       style="fill:none;stroke:#757575;stroke-width:0.10000000000000001;stroke-miterlimit:4;stroke-dasharray:none;stroke-opacity:1;display:inline"
       id="rect4136"
       width="8"
       height="8"
       x="2"
       y="2" />
  </g>
  <g
     inkscape:groupmode="layer"
     id="layer4"
     inkscape:label="Layer 1"
     style="display:inline">
    <g
       id="g3338"
       transform="matrix(1.3973279,-0.2437849,0.2437849,1.3973279,-185.07403,-53.636756)" />
    <ellipse
       style="fill:#0092da;fill-opacity:1;stroke:#ffffff;stroke-width:19.37233162;stroke-linejoin:round;stroke-miterlimit:4;stroke-dasharray:none;stroke-opacity:1"
       id="path4503"
       cx="290.4346"
       cy="290.82874"
       rx="273.93365"
       ry="274.36142" />
    <g
       id="g3780"
       transform="matrix(1.2643052,0,0,1.2643052,-78.664675,-98.063945)">
      <path
         inkscape:connector-curvature="0"
         sodipodi:nodetypes="cc"
         id="path2872"
         d="m 265.10872,398.21695 h 133.2798"
         style="fill:#ffffff;fill-opacity:1;stroke:#ffffff;stroke-width:18.70000076;stroke-linecap:round;stroke-linejoin:round;stroke-miterlimit:4;stroke-dasharray:none;stroke-opacity:1" />
      <path
         inkscape:connector-curvature="0"
         sodipodi:nodetypes="cccccccccccccccccccccc"
         id="path3660"
         d="m 325.40054,283.74495 c -27.11433,0.84507 -53.34269,9.42465 -80.529,9.87961 -34.92928,2.29399 -76.99751,3.87666 -111.94063,2.33695 1.99656,1.29533 11.54415,0.37374 11.46146,10.50423 2.816,5.21168 -6.14351,12.8561 -2.37094,14.37937 44.41493,2.77835 104.78136,26.58994 152.50411,46.64984 24.34401,8.36603 50.93941,6.82358 76.25,4.625 13.21538,-2.20492 29.92826,-3.26191 37.15625,-16.5 3.20298,-9.11621 -8.6e-4,-19.28648 -3.34375,-27.875 -11.6761,-27.02707 -41.17439,-41.70987 -69.46548,-43.73707 -3.23142,-0.26887 -6.48062,-0.35427 -9.72202,-0.26293 z m 25.96291,11.97167 c 12.0857,1.03859 24.30274,7.05641 32.10105,16.18312 8.62377,8.08029 13.16131,20.04676 14.02395,31.94188 -15.66602,0.52921 -28.81749,-0.0801 -43.71661,-0.0801 -7.73602,-16.05957 -16.47031,-31.19742 -24.12714,-47.29488 7.2289,-0.56234 12.93621,-1.23604 21.71875,-0.75 z m -34.59375,1.72517 c 7.20805,7.01924 17.11979,39.02726 20.93546,47.78885 -12.84377,-0.14361 -32.90884,0.35436 -45.75234,0.19042 -0.13401,-7.95854 -0.61938,-39.77742 -0.75146,-47.73599 8.10431,-0.12441 17.46396,-0.13307 25.56834,-0.24328 z"
         style="fill:#ffffff;fill-opacity:1;stroke:#ffffff;stroke-width:8.5;stroke-linecap:round;stroke-linejoin:round;stroke-miterlimit:4;stroke-dasharray:none;stroke-opacity:1" />
      <path
         inkscape:connector-curvature="0"
         sodipodi:nodetypes="ccccc"
         id="path3662"
         d="m 311.72788,272.31885 c -12.3058,-2.26182 -27.05427,8.72945 -38.93108,13.81425 l 36.4194,2.51168 41.79147,-5.02336 c -8.58846,-4.45605 -26.07283,-13.00453 -39.27979,-11.30257 z"
         style="fill:#ffffff;fill-opacity:1;stroke:#ffffff;stroke-width:3.70000005;stroke-linecap:butt;stroke-linejoin:miter;stroke-miterlimit:4;stroke-dasharray:none;stroke-opacity:1" />
      <path
         inkscape:connector-curvature="0"
         id="path3664"
         d="m 311.72788,245.31825 -0.62792,30.76812"
         style="fill:#ffffff;fill-opacity:1;stroke:#ffffff;stroke-width:10.39999962;stroke-linecap:butt;stroke-linejoin:miter;stroke-miterlimit:4;stroke-dasharray:none;stroke-opacity:1" />
      <path
         inkscape:connector-curvature="0"
         id="path3666"
         d="m 156.08241,228.99232 154.38963,14.44217 159.41299,-13.81425 -7.53504,8.79089 -150.62211,8.16297 -148.11042,-6.90713 z"
         style="fill:#ffffff;fill-opacity:1;stroke:#ffffff;stroke-width:5.0999999;stroke-linecap:round;stroke-linejoin:round;stroke-miterlimit:4;stroke-dasharray:none;stroke-opacity:1"
         sodipodi:nodetypes="ccccccc" />
      <path
         inkscape:connector-curvature="0"
         id="path3726"
         d="m 124.32868,293.75121 c -3.56225,-9.47953 -6.98912,-19.03812 -10.52189,-28.53751 l -6.59375,0.375 v 0 c 4.65512,9.70907 9.08305,19.82866 13.73933,29.53563"
         style="fill:#ffffff;fill-opacity:1;stroke:#ffffff;stroke-width:10.10000038;stroke-linecap:round;stroke-linejoin:round;stroke-miterlimit:4;stroke-dasharray:none;stroke-opacity:1" />
      <path
         inkscape:connector-curvature="0"
         id="path3678"
         d="m 132.4186,323.78079 10.16944,29.18291 c 1.68267,-0.54311 6.53218,0.98878 6.90625,-1.0625 -5.3782,-9.42179 -9.37675,-19.68689 -13.76577,-29.71518"
         style="fill:#ffffff;fill-opacity:1;stroke:#ffffff;stroke-width:10.10000038;stroke-linecap:round;stroke-linejoin:round;stroke-miterlimit:4;stroke-dasharray:none;stroke-opacity:1" />
      <path
         inkscape:connector-curvature="0"
         id="path3680"
         d="m 126.58241,291.30255 c -12.63207,0.0284 -21.2103,15.46427 -14.75279,26.22719 5.63246,11.59712 23.73241,12.38102 30.43823,1.4131 8.08174,-11.83297 -1.22345,-28.58449 -15.68544,-27.64029 z m 0.48045,7.99816 c 8.34686,-0.78819 13.60603,10.54095 7.57423,16.36373 -5.34325,6.46098 -17.01785,2.13193 -16.92897,-6.21765 -0.30203,-5.24668 4.09881,-10.01936 9.35474,-10.14608 z"
         style="fill:#ffffff;fill-opacity:1;stroke-width:18.70000076;stroke-linecap:round;stroke-linejoin:round;stroke-miterlimit:4" />
    </g>
  </g>
</svg>
