<?xml version="1.0" encoding="UTF-8" standalone="no"?>
<!DOCTYPE svg PUBLIC "-//W3C//DTD SVG 1.1//EN" "http://www.w3.org/Graphics/SVG/1.1/DTD/svg11.dtd">
<svg width="100%" height="100%" viewBox="0 0 500 500" version="1.1" xmlns="http://www.w3.org/2000/svg" xmlns:xlink="http://www.w3.org/1999/xlink" xml:space="preserve" xmlns:serif="http://www.serif.com/" style="fill-rule:evenodd;clip-rule:evenodd;stroke-linecap:round;stroke-linejoin:round;">
    <g id="g273" transform="matrix(1,0,0,1,-38.182,-31.818)">
        <g id="path2709">
            <path d="M127.656,182.428C121.007,182.429 115.536,187.9 115.535,194.549L115.535,462.427C115.536,469.076 121.007,474.547 127.656,474.548L155.471,474.548C162.119,474.547 167.59,469.076 167.591,462.427L167.591,194.549C167.59,187.9 162.119,182.429 155.471,182.428L127.656,182.428ZM420.893,182.428C414.244,182.429 408.773,187.9 408.772,194.549L408.772,462.427C408.773,469.076 414.244,474.547 420.893,474.548L448.708,474.548C455.357,474.547 460.827,469.076 460.828,462.427L460.828,194.549C460.827,187.9 455.357,182.429 448.708,182.428L420.893,182.428ZM288.182,68.98C286.527,68.98 284.898,69.387 283.437,70.165L60.333,189.153C57.053,190.903 54.996,194.331 54.996,198.049C54.996,200.721 56.058,203.285 57.946,205.175L72.81,220.053C75.665,222.91 79.973,223.787 83.718,222.274L156.665,192.796L288.091,177.241L419.228,193.026L492.578,222.611C496.351,224.132 500.69,223.226 503.54,220.324L518.479,205.113C520.33,203.228 521.368,200.69 521.368,198.049C521.368,194.331 519.311,190.903 516.032,189.153L292.927,70.165C291.467,69.387 289.837,68.98 288.182,68.98Z" style="fill:none;fill-rule:nonzero;stroke:white;stroke-width:31.99px;"/>
            <path d="M127.656,182.428C121.007,182.429 115.536,187.9 115.535,194.549L115.535,462.427C115.536,469.076 121.007,474.547 127.656,474.548L155.471,474.548C162.119,474.547 167.59,469.076 167.591,462.427L167.591,194.549C167.59,187.9 162.119,182.429 155.471,182.428L127.656,182.428ZM420.893,182.428C414.244,182.429 408.773,187.9 408.772,194.549L408.772,462.427C408.773,469.076 414.244,474.547 420.893,474.548L448.708,474.548C455.357,474.547 460.827,469.076 460.828,462.427L460.828,194.549C460.827,187.9 455.357,182.429 448.708,182.428L420.893,182.428ZM288.182,68.98C286.527,68.98 284.898,69.387 283.437,70.165L60.333,189.153C57.053,190.903 54.996,194.331 54.996,198.049C54.996,200.721 56.058,203.285 57.946,205.175L72.81,220.053C75.665,222.91 79.973,223.787 83.718,222.274L156.665,192.796L288.091,177.241L419.228,193.026L492.578,222.611C496.351,224.132 500.69,223.226 503.54,220.324L518.479,205.113C520.33,203.228 521.368,200.69 521.368,198.049C521.368,194.331 519.311,190.903 516.032,189.153L292.927,70.165C291.467,69.387 289.837,68.98 288.182,68.98Z" style="fill:rgb(0,146,218);fill-rule:nonzero;"/>
        </g>
    </g>
</svg>
