<?xml version="1.0" encoding="UTF-8" standalone="no"?>
<!DOCTYPE svg PUBLIC "-//W3C//DTD SVG 1.1//EN" "http://www.w3.org/Graphics/SVG/1.1/DTD/svg11.dtd">
<svg width="100%" height="100%" viewBox="0 0 500 500" version="1.1" xmlns="http://www.w3.org/2000/svg" xmlns:xlink="http://www.w3.org/1999/xlink" xml:space="preserve" xmlns:serif="http://www.serif.com/" style="fill-rule:evenodd;clip-rule:evenodd;stroke-linecap:round;stroke-linejoin:round;">
    <g id="g273" transform="matrix(1,0,0,1,-38.182,-31.818)">
        <g id="path2709">
            <path d="M127.656,182.428C121.007,182.429 115.536,187.9 115.535,194.549L115.535,462.427C115.536,469.076 121.007,474.547 127.656,474.548L155.471,474.548C162.119,474.547 167.59,469.076 167.591,462.427L167.591,194.549C167.59,187.9 162.119,182.429 155.471,182.428L127.656,182.428ZM420.893,182.428C414.244,182.429 408.773,187.9 408.772,194.549L408.772,462.427C408.773,469.076 414.244,474.547 420.893,474.548L448.708,474.548C455.357,474.547 460.827,469.076 460.828,462.427L460.828,194.549C460.827,187.9 455.357,182.429 448.708,182.428L420.893,182.428ZM288.182,68.98C286.527,68.98 284.898,69.387 283.437,70.165L60.333,189.153C57.053,190.903 54.996,194.331 54.996,198.049C54.996,200.721 56.058,203.285 57.946,205.175L72.81,220.053C75.665,222.91 79.973,223.787 83.718,222.274L156.665,192.796L288.091,177.241L419.228,193.026L492.578,222.611C496.351,224.132 500.69,223.226 503.54,220.324L518.479,205.113C520.33,203.228 521.368,200.69 521.368,198.049C521.368,194.331 519.311,190.903 516.032,189.153L292.927,70.165C291.467,69.387 289.837,68.98 288.182,68.98Z" style="fill:none;fill-rule:nonzero;stroke:white;stroke-width:31.99px;"/>
            <path d="M127.656,182.428C121.007,182.429 115.536,187.9 115.535,194.549L115.535,462.427C115.536,469.076 121.007,474.547 127.656,474.548L155.471,474.548C162.119,474.547 167.59,469.076 167.591,462.427L167.591,194.549C167.59,187.9 162.119,182.429 155.471,182.428L127.656,182.428ZM420.893,182.428C414.244,182.429 408.773,187.9 408.772,194.549L408.772,462.427C408.773,469.076 414.244,474.547 420.893,474.548L448.708,474.548C455.357,474.547 460.827,469.076 460.828,462.427L460.828,194.549C460.827,187.9 455.357,182.429 448.708,182.428L420.893,182.428ZM288.182,68.98C286.527,68.98 284.898,69.387 283.437,70.165L60.333,189.153C57.053,190.903 54.996,194.331 54.996,198.049C54.996,200.721 56.058,203.285 57.946,205.175L72.81,220.053C75.665,222.91 79.973,223.787 83.718,222.274L156.665,192.796L288.091,177.241L419.228,193.026L492.578,222.611C496.351,224.132 500.69,223.226 503.54,220.324L518.479,205.113C520.33,203.228 521.368,200.69 521.368,198.049C521.368,194.331 519.311,190.903 516.032,189.153L292.927,70.165C291.467,69.387 289.837,68.98 288.182,68.98Z" style="fill:rgb(0,146,218);fill-rule:nonzero;"/>
        </g>
        <g transform="matrix(0.831704,0,0,0.831704,63.9294,238.596)">
            <path d="M289.967,211.268L246.388,211.268C246.274,205.002 246.217,201.185 246.217,199.818C246.217,185.691 248.553,174.069 253.224,164.955C257.895,155.84 267.238,145.586 281.251,134.193C295.265,122.8 303.639,115.337 306.373,111.805C310.589,106.223 312.697,100.07 312.697,93.348C312.697,84.006 308.965,76.002 301.503,69.337C294.04,62.672 283.986,59.34 271.339,59.34C259.148,59.34 248.951,62.815 240.748,69.764C232.545,76.714 226.906,87.31 223.829,101.552L179.738,96.083C180.991,75.689 189.678,58.371 205.8,44.13C221.921,29.888 243.084,22.767 269.288,22.767C296.86,22.767 318.792,29.974 335.084,44.386C351.377,58.798 359.523,75.575 359.523,94.716C359.523,105.311 356.532,115.337 350.551,124.794C344.569,134.25 331.78,147.124 312.184,163.417C302.044,171.848 295.749,178.627 293.3,183.754C290.85,188.881 289.739,198.052 289.967,211.268ZM246.388,275.868L246.388,227.846L294.41,227.846L294.41,275.868L246.388,275.868Z" style="fill:none;fill-rule:nonzero;stroke:white;stroke-width:49.3px;stroke-linecap:butt;stroke-miterlimit:2;"/>
            <path d="M289.967,211.268L246.388,211.268C246.274,205.002 246.217,201.185 246.217,199.818C246.217,185.691 248.553,174.069 253.224,164.955C257.895,155.84 267.238,145.586 281.251,134.193C295.265,122.8 303.639,115.337 306.373,111.805C310.589,106.223 312.697,100.07 312.697,93.348C312.697,84.006 308.965,76.002 301.503,69.337C294.04,62.672 283.986,59.34 271.339,59.34C259.148,59.34 248.951,62.815 240.748,69.764C232.545,76.714 226.906,87.31 223.829,101.552L179.738,96.083C180.991,75.689 189.678,58.371 205.8,44.13C221.921,29.888 243.084,22.767 269.288,22.767C296.86,22.767 318.792,29.974 335.084,44.386C351.377,58.798 359.523,75.575 359.523,94.716C359.523,105.311 356.532,115.337 350.551,124.794C344.569,134.25 331.78,147.124 312.184,163.417C302.044,171.848 295.749,178.627 293.3,183.754C290.85,188.881 289.739,198.052 289.967,211.268ZM246.388,275.868L246.388,227.846L294.41,227.846L294.41,275.868L246.388,275.868Z" style="fill:rgb(0,146,218);fill-rule:nonzero;"/>
        </g>
    </g>
</svg>
