<?xml version="1.0" encoding="UTF-8" standalone="no"?>
<!DOCTYPE svg PUBLIC "-//W3C//DTD SVG 1.1//EN" "http://www.w3.org/Graphics/SVG/1.1/DTD/svg11.dtd">
<svg width="100%" height="100%" viewBox="0 0 500 500" version="1.1" xmlns="http://www.w3.org/2000/svg" xmlns:xlink="http://www.w3.org/1999/xlink" xml:space="preserve" xmlns:serif="http://www.serif.com/" style="fill-rule:evenodd;clip-rule:evenodd;stroke-linejoin:round;">
    <g transform="matrix(0.892471,0,0,0.892471,1.07529,-18.7086)">
        <circle cx="250" cy="330" r="240" style="fill:rgb(0,146,218);stroke:white;stroke-width:20px;"/>
        <g>
            <g transform="matrix(0.72079,0,0,0.72078,42.197,52.31)">
                <path d="M31.672,267.243L288.3,130.375L544.927,267.243L527.744,284.741L441.949,250.135L288.208,231.632L134.116,249.868L48.769,284.356L31.672,267.243Z" style="fill:white;stroke:white;stroke-width:25.95px;stroke-linecap:round;"/>
            </g>
            <g transform="matrix(8.40449,0,5.28708e-33,0.789134,-597.156,13.0263)">
                <rect x="84.8" y="266.578" width="31.996" height="308.131" style="fill:white;stroke:white;stroke-width:0.15px;stroke-linecap:round;"/>
            </g>
        </g>
        <g transform="matrix(2.96597,0,0,2.96597,101.617,185.994)">
            <path d="M82.109,39.23C81.863,36.628 79.66,34.656 77.05,34.699L22.999,34.699C20.402,34.699 18.222,36.656 17.937,39.238C17.656,41.82 19.363,44.199 21.898,44.761L36.41,48L36.41,86.191C36.394,88.745 38.308,90.902 40.851,91.191C41.082,91.222 41.316,91.237 41.55,91.237C43.859,91.245 45.875,89.663 46.422,87.421L50,73.659L53.578,87.468C54.125,89.714 56.14,91.296 58.449,91.288C58.683,91.288 58.918,91.269 59.148,91.238C61.691,90.952 63.605,88.796 63.589,86.238L63.589,48L78.148,44.761C80.715,44.238 82.441,41.824 82.109,39.23ZM51.91,65.101L51.91,65.179L51.91,65.101ZM50.543,63.703L50.633,63.703L50.543,63.703Z" style="fill:rgb(0,146,218);fill-rule:nonzero;"/>
            <g transform="matrix(1,0,0,1,0.0283074,0)">
                <path d="M61.59,20.309C61.59,26.711 56.403,31.899 50,31.899C43.597,31.899 38.41,26.712 38.41,20.309C38.41,13.911 43.597,8.719 50,8.719C56.403,8.719 61.59,13.91 61.59,20.309" style="fill:rgb(0,146,218);fill-rule:nonzero;"/>
            </g>
        </g>
    </g>
    <g>
        <g transform="matrix(1,0,0,1,-41.9799,-21.9996)">
            <path d="M450,57.7C445.3,55.1 440.7,52.4 436,49.8C433.7,53.8 431.3,57.8 429,61.8L450,73.8L450,100.8C442.3,96.1 434.7,91.5 427,86.8L427,62.8L413,62.8L413,78.8C407.7,75.8 402.3,72.8 397,69.8C394.7,73.8 392.3,77.8 390,81.8C395.3,84.8 400.7,87.8 406,90.8C401.3,93.5 396.7,96.1 392,98.8C394.3,102.8 396.7,106.8 399,110.8L420,98.8C427.7,103.5 435.3,108.1 443,112.8C435.3,117.1 427.7,121.5 420,125.8L399,113.8C396.7,118.1 394.3,122.5 392,126.8C396.7,129.5 401.3,132.1 406,134.8C400.7,137.8 395.3,140.8 390,143.8C392.3,147.8 394.7,151.8 397,155.8C402.3,152.8 407.7,149.8 413,146.8L413,162.8L427,162.8L427,138.8C434.7,134.1 442.3,129.5 450,124.8L450,151.8L429,163.8C431.3,167.8 433.7,171.8 436,175.8C440.7,173.1 445.3,170.5 450,167.8L450,186.8L464,186.8L464,167.8C468.7,170.5 473.3,173.1 478,175.8C480.3,171.8 482.7,167.8 485,163.8L464,151.8L464,124.8C471.7,129.5 479.3,134.1 487,138.8L487,162.8L501,162.8L501,146.8C506.3,149.8 511.7,152.8 517,155.8C519.3,151.8 521.7,147.8 524,143.8C518.7,140.8 513.3,137.8 508,134.8C512.7,132.1 517.3,129.5 522,126.8C519.7,122.8 517.3,118.8 515,114.8L494,126.8C486.3,122.1 478.7,117.5 471,112.8C478.7,108.5 486.3,104.1 494,99.8L515,111.8C517.3,107.5 519.7,103.1 522,98.8C517.3,96.1 512.7,93.5 508,90.8C513.3,87.8 518.7,84.8 524,81.8C521.7,77.8 519.3,73.8 517,69.8C511.7,72.8 506.3,75.8 501,78.8L501,62.8L487,62.8L487,86.8C479.3,91.5 471.7,96.1 464,100.8L464,73.8L485,61.8C482.7,57.8 480.3,53.8 478,49.8C473.3,52.5 468.7,55.1 464,57.8L464,39L450,39L450,57.7Z" style="fill:none;fill-rule:nonzero;stroke:white;stroke-width:32px;"/>
        </g>
        <g transform="matrix(1,0,0,1,-41.9799,-21.9996)">
            <path d="M450,57.7C445.3,55.1 440.7,52.4 436,49.8C433.7,53.8 431.3,57.8 429,61.8L450,73.8L450,100.8C442.3,96.1 434.7,91.5 427,86.8L427,62.8L413,62.8L413,78.8C407.7,75.8 402.3,72.8 397,69.8C394.7,73.8 392.3,77.8 390,81.8C395.3,84.8 400.7,87.8 406,90.8C401.3,93.5 396.7,96.1 392,98.8C394.3,102.8 396.7,106.8 399,110.8L420,98.8C427.7,103.5 435.3,108.1 443,112.8C435.3,117.1 427.7,121.5 420,125.8L399,113.8C396.7,118.1 394.3,122.5 392,126.8C396.7,129.5 401.3,132.1 406,134.8C400.7,137.8 395.3,140.8 390,143.8C392.3,147.8 394.7,151.8 397,155.8C402.3,152.8 407.7,149.8 413,146.8L413,162.8L427,162.8L427,138.8C434.7,134.1 442.3,129.5 450,124.8L450,151.8L429,163.8C431.3,167.8 433.7,171.8 436,175.8C440.7,173.1 445.3,170.5 450,167.8L450,186.8L464,186.8L464,167.8C468.7,170.5 473.3,173.1 478,175.8C480.3,171.8 482.7,167.8 485,163.8L464,151.8L464,124.8C471.7,129.5 479.3,134.1 487,138.8L487,162.8L501,162.8L501,146.8C506.3,149.8 511.7,152.8 517,155.8C519.3,151.8 521.7,147.8 524,143.8C518.7,140.8 513.3,137.8 508,134.8C512.7,132.1 517.3,129.5 522,126.8C519.7,122.8 517.3,118.8 515,114.8L494,126.8C486.3,122.1 478.7,117.5 471,112.8C478.7,108.5 486.3,104.1 494,99.8L515,111.8C517.3,107.5 519.7,103.1 522,98.8C517.3,96.1 512.7,93.5 508,90.8C513.3,87.8 518.7,84.8 524,81.8C521.7,77.8 519.3,73.8 517,69.8C511.7,72.8 506.3,75.8 501,78.8L501,62.8L487,62.8L487,86.8C479.3,91.5 471.7,96.1 464,100.8L464,73.8L485,61.8C482.7,57.8 480.3,53.8 478,49.8C473.3,52.5 468.7,55.1 464,57.8L464,39L450,39L450,57.7Z" style="fill:rgb(0,146,218);fill-rule:nonzero;"/>
        </g>
    </g>
</svg>
