<?xml version="1.0" encoding="UTF-8" standalone="no"?>
<!DOCTYPE svg PUBLIC "-//W3C//DTD SVG 1.1//EN" "http://www.w3.org/Graphics/SVG/1.1/DTD/svg11.dtd">
<svg width="100%" height="100%" viewBox="0 0 580 580" version="1.1" xmlns="http://www.w3.org/2000/svg" xmlns:xlink="http://www.w3.org/1999/xlink" xml:space="preserve" xmlns:serif="http://www.serif.com/" style="fill-rule:evenodd;clip-rule:evenodd;stroke-linejoin:round;">
    <path id="path4149" d="M193.6,267.519C282.858,247.989 372.121,228.937 460.4,209C480.4,202.3 484,171 465,160.3C461,157.7 456.2,156.3 451.7,156.05C426.5,159.6 402,166.8 376,171.8C315.295,185.317 253.935,198.506 192.971,212.113C192.674,195.663 193.948,179.04 192.1,162.7C188.3,146.7 171.1,136.7 155.1,138.9C146,139 136,139 127,139C108.2,138.2 92.6,157.2 95.4,175.5C95.5,254.5 95.2,333.5 95.5,412.5C96.8,430.3 115.2,443.5 132.5,440.5C146.7,439.6 161.5,442.9 175.3,437.7C188.7,431.6 195.3,416.1 193.6,401.9L193.6,267.519ZM169,166L119,166L119,419L169,419L169,166Z" style="fill:none;fill-rule:nonzero;stroke:white;stroke-opacity:0.8;stroke-width:64px;"/>
    <path id="rect3925" d="M95.4,175.5C95.5,254.5 95.2,333.5 95.5,412.5C96.8,430.3 115.2,443.5 132.5,440.5C146.7,439.6 161.5,442.9 175.3,437.7C188.7,431.6 195.3,416.1 193.6,401.9L193.6,264.9C178.3,268.9 160.9,278.6 145.7,268.9C128.8,259.6 132.8,231.2 150,224.9C164,221.1 181.8,219.6 193,213.5C192.6,196.6 194,179.5 192.1,162.7C188.3,146.7 171.1,136.7 155.1,138.9C146,139 136,139 127,139C108.2,138.2 92.6,157.2 95.4,175.5Z" style="fill:rgb(133,133,133);fill-rule:nonzero;"/>
    <path id="path3732" d="M376,171.8C301,188.5 225,204.7 150,221.8C131,228.3 126.5,257.7 143.4,268.8C157.9,279.7 176.1,270.4 191.4,268C281.4,248.3 371.4,229.1 460.4,209C480.4,202.3 484,171 465,160.3C461,157.7 456.2,156.3 451.7,156.05C426.5,159.6 402,166.8 376,171.8Z" style="fill:rgb(102,102,102);fill-rule:nonzero;"/>
</svg>
