<?xml version="1.0" encoding="UTF-8" standalone="no"?><!DOCTYPE svg PUBLIC "-//W3C//DTD SVG 1.1//EN" "http://www.w3.org/Graphics/SVG/1.1/DTD/svg11.dtd"><svg width="100%" height="100%" viewBox="0 0 580 580" version="1.1" xmlns="http://www.w3.org/2000/svg" xmlns:xlink="http://www.w3.org/1999/xlink" xml:space="preserve" xmlns:serif="http://www.serif.com/" style="fill-rule:evenodd;clip-rule:evenodd;stroke-linejoin:round;"><g opacity="0.33"><rect x="56.88" y="8.949" width="466.24" height="562.102" style="fill:#339af0;"/><path d="M146.876,76.892c-6.613,0.002 -11.974,5.644 -11.975,12.605l0,400.895c0,5.784 3.739,10.828 8.068,11.772l54.656,0.944c6.612,-0.002 11.973,-5.645 11.975,-12.605l-0,-150.64l85.09,0c55.775,0 96.585,-11.83 119.732,-38.64c23.147,-26.81 34.677,-59.236 34.677,-96.012c-0,-21.262 -4.165,-41.577 -12.718,-59.954c-8.445,-18.257 -19.947,-33.035 -34.437,-43.583c-14.37,-10.462 -31.733,-17.251 -51.732,-20.823c-14.647,-2.65 -34.23,-3.959 -59.847,-3.959l-143.489,0Zm62.83,72.74l85.09,0c22.315,0 37.894,1.502 43.836,3.127c10.435,3.054 18.424,8.933 24.974,18.73c6.497,9.716 9.846,21.304 9.846,35.833c-0,20.55 -5.51,34.242 -16.396,44.492c-10.635,9.634 -30.8,16.087 -61.732,16.087l-85.619,0l0.001,-118.269Z" style="fill:#fff;fill-rule:nonzero;stroke:#fff;stroke-width:20px;"/><path d="M486.462,39.363l-395.236,395.237" style="fill:none;stroke:#ec1414;stroke-width:41.53px;stroke-linecap:round;stroke-miterlimit:1.5;"/></g></svg>