<?xml version="1.0" encoding="UTF-8" standalone="no"?>
<!DOCTYPE svg PUBLIC "-//W3C//DTD SVG 1.1//EN" "http://www.w3.org/Graphics/SVG/1.1/DTD/svg11.dtd">
<svg width="100%" height="100%" viewBox="0 0 580 580" version="1.1" xmlns="http://www.w3.org/2000/svg" xmlns:xlink="http://www.w3.org/1999/xlink" xml:space="preserve" xmlns:serif="http://www.serif.com/" style="fill-rule:evenodd;clip-rule:evenodd;stroke-linejoin:round;">
    <rect x="56.88" y="8.949" width="466.24" height="562.102" style="fill:rgb(51,154,240);fill-rule:nonzero;"/>
    <path d="M146.876,76.892C140.263,76.894 134.902,82.536 134.901,89.497L134.901,490.392C134.901,496.176 138.64,501.22 142.969,502.164L197.625,503.108C204.237,503.106 209.598,497.463 209.6,490.503L209.6,339.863L294.69,339.863C350.465,339.863 391.275,328.033 414.422,301.223C437.569,274.413 449.099,241.987 449.099,205.211C449.099,183.949 444.934,163.634 436.381,145.257C427.936,127 416.434,112.222 401.944,101.674C387.574,91.212 370.211,84.423 350.212,80.851C335.565,78.201 315.982,76.892 290.365,76.892L146.876,76.892ZM209.706,149.632L294.796,149.632C317.111,149.632 332.69,151.134 338.632,152.759C349.067,155.813 357.056,161.692 363.606,171.489C370.103,181.205 373.452,192.793 373.452,207.322C373.452,227.872 367.942,241.564 357.056,251.814C346.421,261.448 326.256,267.901 295.324,267.901L209.705,267.901L209.706,149.632Z" style="fill:white;fill-rule:nonzero;stroke:white;stroke-width:20px;"/>
</svg>
