<?xml version="1.0" encoding="UTF-8" standalone="no"?>
<!DOCTYPE svg PUBLIC "-//W3C//DTD SVG 1.1//EN" "http://www.w3.org/Graphics/SVG/1.1/DTD/svg11.dtd">
<svg width="100%" height="100%" viewBox="0 0 580 580" version="1.1" xmlns="http://www.w3.org/2000/svg" xmlns:xlink="http://www.w3.org/1999/xlink" xml:space="preserve" xmlns:serif="http://www.serif.com/" style="fill-rule:evenodd;clip-rule:evenodd;stroke-linejoin:round;">
    <rect x="56.88" y="8.949" width="466.24" height="562.102" style="fill:rgb(51,154,240);"/>
    <path d="M146.876,76.892C140.263,76.894 134.902,82.536 134.901,89.497L134.901,490.392C134.901,496.176 138.64,501.22 142.969,502.164L197.625,503.108C204.237,503.106 209.598,497.463 209.6,490.503L209.6,339.863L294.69,339.863C350.465,339.863 391.275,328.033 414.422,301.223C437.569,274.413 449.099,241.987 449.099,205.211C449.099,183.949 444.934,163.634 436.381,145.257C427.936,127 416.434,112.222 401.944,101.674C387.574,91.212 370.211,84.423 350.212,80.851C335.565,78.201 315.982,76.892 290.365,76.892L146.876,76.892ZM209.706,149.632L294.796,149.632C317.111,149.632 332.69,151.134 338.632,152.759C349.067,155.813 357.056,161.692 363.606,171.489C370.103,181.205 373.452,192.793 373.452,207.322C373.452,227.872 367.942,241.564 357.056,251.814C346.421,261.448 326.256,267.901 295.324,267.901L209.705,267.901L209.706,149.632Z" style="fill:white;fill-rule:nonzero;stroke:white;stroke-width:20px;"/>
    <g id="path2" transform="matrix(0.354568,0,0,0.354568,379.812,362.126)">
        <path d="M243,0C108.8,0 0,108.8 0,243C0,377.2 108.8,486 243,486C377.2,486 486,377.2 486,243C486,108.8 377.2,0 243,0ZM312.8,338.8C302.2,351.7 288.4,360.4 272.3,364.8C265.3,366.7 262.1,370.4 262.5,377.7C262.8,384.9 262.5,392 262.4,399.2C262.4,405.6 259.1,409 252.8,409.2C248.7,409.3 244.6,409.4 240.5,409.4C236.9,409.4 233.3,409.4 229.7,409.3C222.9,409.2 219.7,405.3 219.7,398.7C219.6,393.5 219.6,388.2 219.6,383C219.5,371.4 219.1,371 208,369.2C193.8,366.9 179.8,363.7 166.8,357.4C156.6,352.4 155.5,349.9 158.4,339.1C160.6,331.1 162.8,323.1 165.3,315.2C167.1,309.4 168.8,306.8 171.9,306.8C173.7,306.8 176,307.7 179.1,309.3C193.5,316.8 208.8,321 224.9,323C227.6,323.3 230.3,323.5 233,323.5C240.5,323.5 247.8,322.1 254.9,319C272.8,311.2 275.6,290.5 260.5,278.1C255.4,273.9 249.5,270.8 243.4,268.1C227.7,261.2 211.4,256 196.6,247.1C172.6,232.7 157.4,213 159.2,183.8C161.2,150.8 179.9,130.2 210.2,119.2C222.7,114.7 222.8,114.8 222.8,101.8C222.8,97.4 222.7,93 222.9,88.5C223.2,78.7 224.8,77 234.6,76.7L246,76.7C264.6,76.7 264.6,77.5 264.7,97.6C264.8,112.4 264.8,112.4 279.5,114.7C290.8,116.5 301.5,119.8 311.9,124.4C317.6,126.9 319.8,130.9 318,137C315.4,146 312.9,155.1 310.1,164C308.3,169.4 306.6,171.9 303.4,171.9C301.6,171.9 299.4,171.2 296.6,169.8C282.2,162.8 267.1,159.4 251.3,159.4C249.3,159.4 247.2,159.5 245.2,159.6C240.5,159.9 235.9,160.5 231.5,162.4C215.9,169.2 213.4,186.4 226.7,197C233.4,202.4 241.1,206.2 249,209.5C262.8,215.2 276.6,220.7 289.7,227.9C330.9,250.9 342.1,303.2 312.8,338.8Z" style="fill:none;fill-rule:nonzero;stroke:white;stroke-width:132.56px;stroke-miterlimit:2;"/>
        <path d="M243,0C108.8,0 0,108.8 0,243C0,377.2 108.8,486 243,486C377.2,486 486,377.2 486,243C486,108.8 377.2,0 243,0ZM312.8,338.8C302.2,351.7 288.4,360.4 272.3,364.8C265.3,366.7 262.1,370.4 262.5,377.7C262.8,384.9 262.5,392 262.4,399.2C262.4,405.6 259.1,409 252.8,409.2C248.7,409.3 244.6,409.4 240.5,409.4C236.9,409.4 233.3,409.4 229.7,409.3C222.9,409.2 219.7,405.3 219.7,398.7C219.6,393.5 219.6,388.2 219.6,383C219.5,371.4 219.1,371 208,369.2C193.8,366.9 179.8,363.7 166.8,357.4C156.6,352.4 155.5,349.9 158.4,339.1C160.6,331.1 162.8,323.1 165.3,315.2C167.1,309.4 168.8,306.8 171.9,306.8C173.7,306.8 176,307.7 179.1,309.3C193.5,316.8 208.8,321 224.9,323C227.6,323.3 230.3,323.5 233,323.5C240.5,323.5 247.8,322.1 254.9,319C272.8,311.2 275.6,290.5 260.5,278.1C255.4,273.9 249.5,270.8 243.4,268.1C227.7,261.2 211.4,256 196.6,247.1C172.6,232.7 157.4,213 159.2,183.8C161.2,150.8 179.9,130.2 210.2,119.2C222.7,114.7 222.8,114.8 222.8,101.8C222.8,97.4 222.7,93 222.9,88.5C223.2,78.7 224.8,77 234.6,76.7L246,76.7C264.6,76.7 264.6,77.5 264.7,97.6C264.8,112.4 264.8,112.4 279.5,114.7C290.8,116.5 301.5,119.8 311.9,124.4C317.6,126.9 319.8,130.9 318,137C315.4,146 312.9,155.1 310.1,164C308.3,169.4 306.6,171.9 303.4,171.9C301.6,171.9 299.4,171.2 296.6,169.8C282.2,162.8 267.1,159.4 251.3,159.4C249.3,159.4 247.2,159.5 245.2,159.6C240.5,159.9 235.9,160.5 231.5,162.4C215.9,169.2 213.4,186.4 226.7,197C233.4,202.4 241.1,206.2 249,209.5C262.8,215.2 276.6,220.7 289.7,227.9C330.9,250.9 342.1,303.2 312.8,338.8Z" style="fill:rgb(255,128,0);fill-rule:nonzero;"/>
    </g>
</svg>
