<?xml version="1.0" encoding="UTF-8" standalone="no"?>
<!DOCTYPE svg PUBLIC "-//W3C//DTD SVG 1.1//EN" "http://www.w3.org/Graphics/SVG/1.1/DTD/svg11.dtd">
<svg width="100%" height="100%" viewBox="0 0 100 125" version="1.1" xmlns="http://www.w3.org/2000/svg" xmlns:xlink="http://www.w3.org/1999/xlink" xml:space="preserve" xmlns:serif="http://www.serif.com/" style="fill-rule:evenodd;clip-rule:evenodd;stroke-linejoin:round;stroke-miterlimit:2;">
    <g transform="matrix(1,0,0,1,0.648985,7.277)">
        <path d="M69.023,54.143L36.108,92.774C51.01,95.575 66.556,93.839 80.658,87.565C83.993,74.906 79.177,61.746 69.023,54.143ZM31.527,91.765L65.522,51.866C64.895,51.515 64.255,51.184 63.599,50.873C55.65,57.175 44.408,57.175 36.465,50.873C22.684,57.409 15.518,72.826 19.399,87.565C23.344,89.32 27.402,90.72 31.527,91.765ZM35.743,29.189C44.972,32.546 55.086,32.546 64.317,29.189C65.262,32.152 65.262,35.329 64.317,38.291C61.803,46.187 53.364,50.545 45.476,48.031C37.585,45.518 33.221,37.078 35.743,29.189ZM33.885,24.047L34.145,26.341C44.274,30.75 55.783,30.75 65.912,26.341L66.166,24.047C55.891,19.482 44.161,19.482 33.885,24.047ZM69.27,16.312L65.604,21.849C55.651,17.613 44.401,17.613 34.454,21.849L30.788,16.312C30.741,16.239 30.688,16.152 30.66,16.072C30.372,15.354 30.716,14.551 31.425,14.268C36.084,12.378 40.341,9.622 43.974,6.15C47.359,2.914 52.702,2.914 56.087,6.15C59.72,9.623 63.976,12.379 68.634,14.268C68.722,14.301 68.802,14.342 68.882,14.396C69.518,14.817 69.693,15.675 69.27,16.312ZM46.406,8.355C46.064,11.238 47.492,14.046 50.026,15.481C52.559,14.046 53.994,11.238 53.652,8.355C53.591,8.395 53.539,8.435 53.472,8.468C52.271,9.171 50.728,8.77 50.025,7.571C49.992,7.638 49.952,7.698 49.91,7.759C49.1,8.892 47.54,9.153 46.406,8.355Z" style="fill:none;fill-rule:nonzero;stroke:white;stroke-width:8.5px;"/>
        <path d="M69.023,54.143L36.108,92.774C51.01,95.575 66.556,93.839 80.658,87.565C83.993,74.906 79.177,61.746 69.023,54.143ZM31.527,91.765L65.522,51.866C64.895,51.515 64.255,51.184 63.599,50.873C55.65,57.175 44.408,57.175 36.465,50.873C22.684,57.409 15.518,72.826 19.399,87.565C23.344,89.32 27.402,90.72 31.527,91.765ZM35.743,29.189C44.972,32.546 55.086,32.546 64.317,29.189C65.262,32.152 65.262,35.329 64.317,38.291C61.803,46.187 53.364,50.545 45.476,48.031C37.585,45.518 33.221,37.078 35.743,29.189ZM33.885,24.047L34.145,26.341C44.274,30.75 55.783,30.75 65.912,26.341L66.166,24.047C55.891,19.482 44.161,19.482 33.885,24.047ZM69.27,16.312L65.604,21.849C55.651,17.613 44.401,17.613 34.454,21.849L30.788,16.312C30.741,16.239 30.688,16.152 30.66,16.072C30.372,15.354 30.716,14.551 31.425,14.268C36.084,12.378 40.341,9.622 43.974,6.15C47.359,2.914 52.702,2.914 56.087,6.15C59.72,9.623 63.976,12.379 68.634,14.268C68.722,14.301 68.802,14.342 68.882,14.396C69.518,14.817 69.693,15.675 69.27,16.312ZM46.406,8.355C46.064,11.238 47.492,14.046 50.026,15.481C52.559,14.046 53.994,11.238 53.652,8.355C53.591,8.395 53.539,8.435 53.472,8.468C52.271,9.171 50.728,8.77 50.025,7.571C49.992,7.638 49.952,7.698 49.91,7.759C49.1,8.892 47.54,9.153 46.406,8.355Z" style="fill-rule:nonzero;"/>
    </g>
</svg>
