<?xml version="1.0" encoding="UTF-8" standalone="no"?>
<!DOCTYPE svg PUBLIC "-//W3C//DTD SVG 1.1//EN" "http://www.w3.org/Graphics/SVG/1.1/DTD/svg11.dtd">
<svg width="100%" height="100%" viewBox="0 0 580 580" version="1.1" xmlns="http://www.w3.org/2000/svg" xmlns:xlink="http://www.w3.org/1999/xlink" xml:space="preserve" xmlns:serif="http://www.serif.com/" style="fill-rule:evenodd;clip-rule:evenodd;stroke-linejoin:round;stroke-miterlimit:2;">
    <g transform="matrix(0.435435,0,0,0.435435,1.6694,14.4218)">
        <g id="path2" transform="matrix(10,0,0,10,361.626,-185.862)">
            <path d="M2.695,38.956C-6.897,38.956 -13.001,44.042 -18.388,48.529C-22.503,51.958 -26.058,54.919 -30.389,54.919C-32.046,54.919 -33.389,56.262 -33.389,57.919C-33.389,59.576 -32.046,60.919 -30.389,60.919C-23.886,60.919 -19.139,56.964 -14.548,53.139C-10.398,49.682 -6.437,46.383 -1.042,45.315C-1.443,48.623 -1.358,53.178 1.166,56.599C2.619,58.57 5.49,60.919 10.914,60.919C18.378,60.919 23.021,56.538 27.119,52.672C30.523,49.461 33.773,46.395 38.643,45.341C38.246,48.647 38.337,53.187 40.855,56.599C41.844,57.941 43.517,59.441 46.179,60.273C47.292,60.712 48.758,60.981 50.808,60.981C58.272,60.981 62.915,56.6 67.013,52.734C70.417,49.523 73.667,46.457 78.537,45.403C78.14,48.709 78.231,53.249 80.749,56.661C82.202,58.632 85.073,60.981 90.497,60.981C92.154,60.981 93.497,59.638 93.497,57.981C93.497,56.324 92.153,54.981 90.496,54.981C86.971,54.981 85.925,53.57 85.582,53.107C83.532,50.341 84.606,44.667 85.143,42.904C85.424,41.993 85.256,41.004 84.691,40.237C84.126,39.47 83.229,39.018 82.277,39.018C72.808,39.018 67.542,43.986 62.895,48.37C59.06,51.988 56.009,54.854 51.111,54.97C50.945,54.941 50.777,54.919 50.602,54.919C47.077,54.919 46.031,53.508 45.688,53.045C43.638,50.279 44.712,44.605 45.249,42.842C45.53,41.931 45.362,40.942 44.797,40.175C44.232,39.408 43.335,38.956 42.383,38.956C32.914,38.956 27.648,43.924 23.001,48.308C19.086,52.001 15.993,54.919 10.913,54.919C7.388,54.919 6.343,53.509 5.999,53.045C3.949,50.279 5.024,44.605 5.561,42.842C5.842,41.932 5.674,40.942 5.109,40.175C4.544,39.408 3.648,38.956 2.695,38.956Z" style="fill-rule:nonzero;"/>
        </g>
        <g id="path6" transform="matrix(10,0,0,10,361.626,133.197)">
            <path d="M2.695,38.956C-6.897,38.956 -13.001,44.042 -18.388,48.529C-22.503,51.958 -26.058,54.919 -30.389,54.919C-32.046,54.919 -33.389,56.262 -33.389,57.919C-33.389,59.576 -32.046,60.919 -30.389,60.919C-23.886,60.919 -19.139,56.964 -14.548,53.139C-10.398,49.682 -6.437,46.383 -1.042,45.315C-1.443,48.623 -1.358,53.178 1.166,56.599C2.619,58.57 5.49,60.919 10.914,60.919C18.378,60.919 23.021,56.538 27.119,52.672C30.523,49.461 33.773,46.395 38.643,45.341C38.246,48.647 38.337,53.187 40.855,56.599C41.844,57.941 43.517,59.441 46.179,60.273C47.292,60.712 48.758,60.981 50.808,60.981C58.272,60.981 62.915,56.6 67.013,52.734C70.417,49.523 73.667,46.457 78.537,45.403C78.14,48.709 78.231,53.249 80.749,56.661C82.202,58.632 85.073,60.981 90.497,60.981C92.154,60.981 93.497,59.638 93.497,57.981C93.497,56.324 92.153,54.981 90.496,54.981C86.971,54.981 85.925,53.57 85.582,53.107C83.532,50.341 84.606,44.667 85.143,42.904C85.424,41.993 85.256,41.004 84.691,40.237C84.126,39.47 83.229,39.018 82.277,39.018C72.808,39.018 67.542,43.986 62.895,48.37C59.06,51.988 56.009,54.854 51.111,54.97C50.945,54.941 50.777,54.919 50.602,54.919C47.077,54.919 46.031,53.508 45.688,53.045C43.638,50.279 44.712,44.605 45.249,42.842C45.53,41.931 45.362,40.942 44.797,40.175C44.232,39.408 43.335,38.956 42.383,38.956C32.914,38.956 27.648,43.924 23.001,48.308C19.086,52.001 15.993,54.919 10.913,54.919C7.388,54.919 6.343,53.509 5.999,53.045C3.949,50.279 5.024,44.605 5.561,42.842C5.842,41.932 5.674,40.942 5.109,40.175C4.544,39.408 3.648,38.956 2.695,38.956Z" style="fill-rule:nonzero;"/>
        </g>
        <g id="path6-2" transform="matrix(10,0,0,10,361.626,452.256)">
            <path d="M2.695,38.956C-6.897,38.956 -13.001,44.042 -18.388,48.529C-22.503,51.958 -26.058,54.919 -30.389,54.919C-32.046,54.919 -33.389,56.262 -33.389,57.919C-33.389,59.576 -32.046,60.919 -30.389,60.919C-23.886,60.919 -19.139,56.964 -14.548,53.139C-10.398,49.682 -6.437,46.383 -1.042,45.315C-1.443,48.623 -1.358,53.178 1.166,56.599C2.619,58.57 5.49,60.919 10.914,60.919C18.378,60.919 23.021,56.538 27.119,52.672C30.523,49.461 33.773,46.395 38.643,45.341C38.246,48.647 38.337,53.187 40.855,56.599C41.844,57.941 43.517,59.441 46.179,60.273C47.292,60.712 48.758,60.981 50.808,60.981C58.272,60.981 62.915,56.6 67.013,52.734C70.417,49.523 73.667,46.457 78.537,45.403C78.14,48.709 78.231,53.249 80.749,56.661C82.202,58.632 85.073,60.981 90.497,60.981C92.154,60.981 93.497,59.638 93.497,57.981C93.497,56.324 92.153,54.981 90.496,54.981C86.971,54.981 85.925,53.57 85.582,53.107C83.532,50.341 84.606,44.667 85.143,42.904C85.424,41.993 85.256,41.004 84.691,40.237C84.126,39.47 83.229,39.018 82.277,39.018C72.808,39.018 67.542,43.986 62.895,48.37C59.06,51.988 56.009,54.854 51.111,54.97C50.945,54.941 50.777,54.919 50.602,54.919C47.077,54.919 46.031,53.508 45.688,53.045C43.638,50.279 44.712,44.605 45.249,42.842C45.53,41.931 45.362,40.942 44.797,40.175C44.232,39.408 43.335,38.956 42.383,38.956C32.914,38.956 27.648,43.924 23.001,48.308C19.086,52.001 15.993,54.919 10.913,54.919C7.388,54.919 6.343,53.509 5.999,53.045C3.949,50.279 5.024,44.605 5.561,42.842C5.842,41.932 5.674,40.942 5.109,40.175C4.544,39.408 3.648,38.956 2.695,38.956Z" style="fill-rule:nonzero;"/>
        </g>
    </g>
</svg>
