<?xml version="1.0" encoding="UTF-8" standalone="no"?>
<!DOCTYPE svg PUBLIC "-//W3C//DTD SVG 1.1//EN" "http://www.w3.org/Graphics/SVG/1.1/DTD/svg11.dtd">
<svg width="100%" height="100%" viewBox="0 0 580 580" version="1.1" xmlns="http://www.w3.org/2000/svg" xmlns:xlink="http://www.w3.org/1999/xlink" xml:space="preserve" xmlns:serif="http://www.serif.com/" style="fill-rule:evenodd;clip-rule:evenodd;">
    <rect id="path888" x="242.057" y="168.427" width="28.308" height="357.31" style="fill:none;fill-rule:nonzero;stroke:white;stroke-opacity:0.8;stroke-width:64px;"/>
    <path id="path890" d="M99.727,233.752C90.819,233.752 82.901,236.919 75.675,243.353C70.331,248.302 66.767,253.845 64.986,259.981L40.34,342.133C36.993,351.958 44.027,359.112 51.525,359.256C57.266,359.256 61.027,356.089 62.808,349.655L85.276,274.432L97.55,274.432L60.928,408.052L96.56,408.052L96.56,511.979C96.56,521.283 101.014,525.836 109.922,525.836C118.83,525.836 123.284,521.184 123.284,511.979L123.284,408.052L136.646,408.052L136.646,512.969C136.646,521.877 141.1,526.331 150.008,526.331C158.916,526.331 163.37,521.877 163.37,512.969L163.37,409.042L199.002,409.042L161.588,275.422L174.455,275.422L196.923,350.645C198.705,357.079 202.466,360.246 208.108,360.246C218.174,358.452 223.105,351.451 219.292,343.123L194.647,260.971C192.865,255.23 188.807,249.688 182.374,244.343C174.554,237.909 165.943,234.742 156.837,234.247L99.727,233.752Z" style="fill:none;fill-rule:nonzero;stroke:white;stroke-opacity:0.8;stroke-width:64px;"/>
    <path id="path892" d="M158.817,200.1C157.526,182.659 145.261,171.01 129.421,170.802C112.312,172.123 100.729,184.643 100.519,200.1C101.833,216.868 114.15,228.694 129.421,228.902C146.407,227.696 158.598,215.657 158.817,200.1Z" style="fill:none;fill-rule:nonzero;stroke:white;stroke-opacity:0.8;stroke-width:64px;"/>
    <path id="path894" d="M408.637,199.506C407.412,182.43 395.384,170.816 379.835,170.604C362.646,171.916 351.234,183.958 351.032,199.506C352.307,216.221 364.611,228.193 379.835,228.407C396.603,227.094 408.429,214.776 408.637,199.506Z" style="fill:none;fill-rule:nonzero;stroke:white;stroke-opacity:0.8;stroke-width:64px;"/>
    <path id="path896" d="M341.233,234.247C330.94,234.247 322.032,237.909 314.707,245.135C307.383,252.459 303.82,261.466 303.82,272.156L303.82,361.236C303.82,369.748 307.779,374.103 315.598,374.103C323.12,374.103 326.882,369.847 326.882,361.236L326.882,275.125L340.738,275.125L340.738,510.692C340.738,521.382 346.083,526.727 356.773,526.727C367.462,526.727 372.807,521.382 372.807,510.692L372.807,374.103L386.664,374.103L386.664,510.692C386.664,521.382 392.009,526.727 402.699,526.727C413.784,526.727 419.327,521.382 419.327,510.692L419.327,275.125L432.689,275.125L432.689,362.226C432.689,371.134 436.45,375.588 443.972,375.588C451.495,375.588 455.256,371.134 455.256,362.226L455.256,274.135C455.256,263.841 451.792,254.834 444.863,247.114C437.935,239.394 429.027,235.633 417.644,234.94L341.233,234.247Z" style="fill:none;fill-rule:nonzero;stroke:white;stroke-opacity:0.8;stroke-width:64px;"/>
    <g id="g904" transform="matrix(0.264779,0,0,0.264779,411.834,53.2731)">
        <g opacity="0.8">
            <g id="path898" transform="matrix(1,0,0,1,17.3827,-62.711)">
                <path d="M243,0C108.8,0 0,108.8 0,243C0,377.2 108.8,486 243,486C377.2,486 486,377.2 486,243C486,108.8 377.2,0 243,0ZM312.8,338.8C302.2,351.7 288.4,360.4 272.3,364.8C265.3,366.7 262.1,370.4 262.5,377.7C262.8,384.9 262.5,392 262.4,399.2C262.4,405.6 259.1,409 252.8,409.2C248.7,409.3 244.6,409.4 240.5,409.4C236.9,409.4 233.3,409.4 229.7,409.3C222.9,409.2 219.7,405.3 219.7,398.7C219.6,393.5 219.6,388.2 219.6,383C219.5,371.4 219.1,371 208,369.2C193.8,366.9 179.8,363.7 166.8,357.4C156.6,352.4 155.5,349.9 158.4,339.1C160.6,331.1 162.8,323.1 165.3,315.2C167.1,309.4 168.8,306.8 171.9,306.8C173.7,306.8 176,307.7 179.1,309.3C193.5,316.8 208.8,321 224.9,323C227.6,323.3 230.3,323.5 233,323.5C240.5,323.5 247.8,322.1 254.9,319C272.8,311.2 275.6,290.5 260.5,278.1C255.4,273.9 249.5,270.8 243.4,268.1C227.7,261.2 211.4,256 196.6,247.1C172.6,232.7 157.4,213 159.2,183.8C161.2,150.8 179.9,130.2 210.2,119.2C222.7,114.7 222.8,114.8 222.8,101.8C222.8,97.4 222.7,93 222.9,88.5C223.2,78.7 224.8,77 234.6,76.7L246,76.7C264.6,76.7 264.6,77.5 264.7,97.6C264.8,112.4 264.8,112.4 279.5,114.7C290.8,116.5 301.5,119.8 311.9,124.4C317.6,126.9 319.8,130.9 318,137C315.4,146 312.9,155.1 310.1,164C308.3,169.4 306.6,171.9 303.4,171.9C301.6,171.9 299.4,171.2 296.6,169.8C282.2,162.8 267.1,159.4 251.3,159.4C249.3,159.4 247.2,159.5 245.2,159.6C240.5,159.9 235.9,160.5 231.5,162.4C215.9,169.2 213.4,186.4 226.7,197C233.4,202.4 241.1,206.2 249,209.5C262.8,215.2 276.6,220.7 289.7,227.9C330.9,250.9 342.1,303.2 312.8,338.8Z" style="fill:none;fill-rule:nonzero;stroke:white;stroke-width:241.7px;"/>
            </g>
        </g>
    </g>
    <rect id="path856" x="242.057" y="168.427" width="28.308" height="357.31" style="fill-rule:nonzero;"/>
    <path id="path858" d="M99.727,233.752C90.819,233.752 82.901,236.919 75.675,243.353C70.331,248.302 66.767,253.845 64.986,259.981L40.34,342.133C36.993,351.958 44.027,359.112 51.525,359.256C57.266,359.256 61.027,356.089 62.808,349.655L85.276,274.432L97.55,274.432L60.928,408.052L96.56,408.052L96.56,511.979C96.56,521.283 101.014,525.836 109.922,525.836C118.83,525.836 123.284,521.184 123.284,511.979L123.284,408.052L136.646,408.052L136.646,512.969C136.646,521.877 141.1,526.331 150.008,526.331C158.916,526.331 163.37,521.877 163.37,512.969L163.37,409.042L199.002,409.042L161.588,275.422L174.455,275.422L196.923,350.645C198.705,357.079 202.466,360.246 208.108,360.246C218.174,358.452 223.105,351.451 219.292,343.123L194.647,260.971C192.865,255.23 188.807,249.688 182.374,244.343C174.554,237.909 165.943,234.742 156.837,234.247L99.727,233.752Z" style="fill-rule:nonzero;"/>
    <path id="path860" d="M158.817,200.1C157.526,182.659 145.261,171.01 129.421,170.802C112.312,172.123 100.729,184.643 100.519,200.1C101.833,216.868 114.15,228.694 129.421,228.902C146.407,227.696 158.598,215.657 158.817,200.1Z" style="fill-rule:nonzero;"/>
    <path id="path862" d="M408.637,199.506C407.412,182.43 395.384,170.816 379.835,170.604C362.646,171.916 351.234,183.958 351.032,199.506C352.307,216.221 364.611,228.193 379.835,228.407C396.603,227.094 408.429,214.776 408.637,199.506Z" style="fill-rule:nonzero;"/>
    <path id="path864" d="M341.233,234.247C330.94,234.247 322.032,237.909 314.707,245.135C307.383,252.459 303.82,261.466 303.82,272.156L303.82,361.236C303.82,369.748 307.779,374.103 315.598,374.103C323.12,374.103 326.882,369.847 326.882,361.236L326.882,275.125L340.738,275.125L340.738,510.692C340.738,521.382 346.083,526.727 356.773,526.727C367.462,526.727 372.807,521.382 372.807,510.692L372.807,374.103L386.664,374.103L386.664,510.692C386.664,521.382 392.009,526.727 402.699,526.727C413.784,526.727 419.327,521.382 419.327,510.692L419.327,275.125L432.689,275.125L432.689,362.226C432.689,371.134 436.45,375.588 443.972,375.588C451.495,375.588 455.256,371.134 455.256,362.226L455.256,274.135C455.256,263.841 451.792,254.834 444.863,247.114C437.935,239.394 429.027,235.633 417.644,234.94L341.233,234.247Z" style="fill-rule:nonzero;"/>
    <g transform="matrix(0.264779,0,0,0.264779,416.436,36.6685)">
        <g id="g872">
            <path id="path866" d="M243,0C108.8,0 0,108.8 0,243C0,377.2 108.8,486 243,486C377.2,486 486,377.2 486,243C486,108.8 377.2,0 243,0ZM312.8,338.8C302.2,351.7 288.4,360.4 272.3,364.8C265.3,366.7 262.1,370.4 262.5,377.7C262.8,384.9 262.5,392 262.4,399.2C262.4,405.6 259.1,409 252.8,409.2C248.7,409.3 244.6,409.4 240.5,409.4C236.9,409.4 233.3,409.4 229.7,409.3C222.9,409.2 219.7,405.3 219.7,398.7C219.6,393.5 219.6,388.2 219.6,383C219.5,371.4 219.1,371 208,369.2C193.8,366.9 179.8,363.7 166.8,357.4C156.6,352.4 155.5,349.9 158.4,339.1C160.6,331.1 162.8,323.1 165.3,315.2C167.1,309.4 168.8,306.8 171.9,306.8C173.7,306.8 176,307.7 179.1,309.3C193.5,316.8 208.8,321 224.9,323C227.6,323.3 230.3,323.5 233,323.5C240.5,323.5 247.8,322.1 254.9,319C272.8,311.2 275.6,290.5 260.5,278.1C255.4,273.9 249.5,270.8 243.4,268.1C227.7,261.2 211.4,256 196.6,247.1C172.6,232.7 157.4,213 159.2,183.8C161.2,150.8 179.9,130.2 210.2,119.2C222.7,114.7 222.8,114.8 222.8,101.8C222.8,97.4 222.7,93 222.9,88.5C223.2,78.7 224.8,77 234.6,76.7L246,76.7C264.6,76.7 264.6,77.5 264.7,97.6C264.8,112.4 264.8,112.4 279.5,114.7C290.8,116.5 301.5,119.8 311.9,124.4C317.6,126.9 319.8,130.9 318,137C315.4,146 312.9,155.1 310.1,164C308.3,169.4 306.6,171.9 303.4,171.9C301.6,171.9 299.4,171.2 296.6,169.8C282.2,162.8 267.1,159.4 251.3,159.4C249.3,159.4 247.2,159.5 245.2,159.6C240.5,159.9 235.9,160.5 231.5,162.4C215.9,169.2 213.4,186.4 226.7,197C233.4,202.4 241.1,206.2 249,209.5C262.8,215.2 276.6,220.7 289.7,227.9C330.9,250.9 342.1,303.2 312.8,338.8Z" style="fill:rgb(255,128,0);fill-rule:nonzero;"/>
        </g>
    </g>
</svg>
