<?xml version="1.0" encoding="UTF-8" standalone="no"?>
<!-- Created with Inkscape (http://www.inkscape.org/) -->

<svg
   xmlns:dc="http://purl.org/dc/elements/1.1/"
   xmlns:cc="http://creativecommons.org/ns#"
   xmlns:rdf="http://www.w3.org/1999/02/22-rdf-syntax-ns#"
   xmlns:svg="http://www.w3.org/2000/svg"
   xmlns="http://www.w3.org/2000/svg"
   xmlns:sodipodi="http://sodipodi.sourceforge.net/DTD/sodipodi-0.dtd"
   xmlns:inkscape="http://www.inkscape.org/namespaces/inkscape"
   version="1.0"
   width="580"
   height="580"
   id="svg2"
   sodipodi:version="0.32"
   inkscape:version="0.92.3 (2405546, 2018-03-11)"
   sodipodi:docname="trainstation.svg"
   inkscape:output_extension="org.inkscape.output.svg.inkscape">
  <metadata
     id="metadata2975">
    <rdf:RDF>
      <cc:Work
         rdf:about="">
        <dc:format>image/svg+xml</dc:format>
        <dc:type
           rdf:resource="http://purl.org/dc/dcmitype/StillImage" />
        <cc:license
           rdf:resource="http://creativecommons.org/licenses/by-nc-sa/4.0/" />
        <dc:language>en</dc:language>
        <dc:title></dc:title>
      </cc:Work>
      <cc:License
         rdf:about="http://creativecommons.org/licenses/by-nc-sa/4.0/">
        <cc:permits
           rdf:resource="http://creativecommons.org/ns#Reproduction" />
        <cc:permits
           rdf:resource="http://creativecommons.org/ns#Distribution" />
        <cc:requires
           rdf:resource="http://creativecommons.org/ns#Notice" />
        <cc:requires
           rdf:resource="http://creativecommons.org/ns#Attribution" />
        <cc:prohibits
           rdf:resource="http://creativecommons.org/ns#CommercialUse" />
        <cc:permits
           rdf:resource="http://creativecommons.org/ns#DerivativeWorks" />
        <cc:requires
           rdf:resource="http://creativecommons.org/ns#ShareAlike" />
      </cc:License>
    </rdf:RDF>
  </metadata>
  <sodipodi:namedview
     inkscape:window-height="1057"
     inkscape:window-width="1920"
     inkscape:pageshadow="2"
     inkscape:pageopacity="0.0"
     guidetolerance="10.0"
     gridtolerance="10.0"
     objecttolerance="10.0"
     borderopacity="1.0"
     bordercolor="#666666"
     pagecolor="#ffffff"
     id="base"
     inkscape:zoom="1.1"
     inkscape:cx="170.31308"
     inkscape:cy="290"
     inkscape:window-x="1592"
     inkscape:window-y="-8"
     inkscape:current-layer="layer4"
     showgrid="false"
     inkscape:window-maximized="1" />
  <defs
     id="defs4">
    <inkscape:perspective
       sodipodi:type="inkscape:persp3d"
       inkscape:vp_x="0 : 290 : 1"
       inkscape:vp_y="6.1230318e-14 : 1000 : 0"
       inkscape:vp_z="580 : 290 : 1"
       inkscape:persp3d-origin="290 : 193.33333 : 1"
       id="perspective2441" />
    <inkscape:perspective
       id="perspective3452"
       inkscape:persp3d-origin="30 : 20 : 1"
       inkscape:vp_z="60 : 30 : 1"
       inkscape:vp_y="0 : 1000 : 0"
       inkscape:vp_x="0 : 30 : 1"
       sodipodi:type="inkscape:persp3d" />
    <symbol
       viewBox="244.5 110 489 219.9"
       id="symbol-university">
      <path
         id="path4460"
         d="M79,43l57,119c0,0,21-96,104-96s124,106,124,106l43-133l82-17L0,17L79,43z" />
      <path
         id="path4462"
         d="M94,176l-21,39"
         stroke-width="20"
         stroke="#000000"
         fill="none" />
      <path
         id="path4464"
         d="M300,19c0,10.5-22.6,19-50.5,19S199,29.5,199,19s22.6-19,50.5-19S300,8.5,300,19z" />
      <path
         id="path4466"
         d="M112,216l-16-38L64,88c0,0-9-8-4-35s16-24,16-24"
         stroke-width="20"
         stroke="#000000"
         ill="none" />
    </symbol>
    <inkscape:perspective
       id="perspective4471"
       inkscape:persp3d-origin="372.04724 : 350.78739 : 1"
       inkscape:vp_z="744.09448 : 526.18109 : 1"
       inkscape:vp_y="0 : 1000 : 0"
       inkscape:vp_x="0 : 526.18109 : 1"
       sodipodi:type="inkscape:persp3d" />
    <inkscape:perspective
       id="perspective4668"
       inkscape:persp3d-origin="6 : 4 : 1"
       inkscape:vp_z="12 : 6 : 1"
       inkscape:vp_y="0 : 1000 : 0"
       inkscape:vp_x="0 : 6 : 1"
       sodipodi:type="inkscape:persp3d" />
    <inkscape:perspective
       id="perspective7157"
       inkscape:persp3d-origin="372.04724 : 350.78739 : 1"
       inkscape:vp_z="744.09448 : 526.18109 : 1"
       inkscape:vp_y="0 : 1000 : 0"
       inkscape:vp_x="0 : 526.18109 : 1"
       sodipodi:type="inkscape:persp3d" />
  </defs>
  <g
     id="layer3"
     inkscape:label="Layout"
     style="display:none;stroke:#757575;stroke-opacity:1"
     transform="matrix(48.14969,0,0,48.14969,-536.27327,-33.306752)">
    <rect
       style="fill:none;stroke:#757575;stroke-width:0.10000000000000001;stroke-miterlimit:4;stroke-dasharray:none;stroke-opacity:1;display:inline"
       id="rect4134"
       width="10"
       height="10"
       x="1"
       y="1" />
    <rect
       style="fill:none;stroke:#757575;stroke-width:0.10000000000000001;stroke-miterlimit:4;stroke-dasharray:none;stroke-opacity:1;display:inline"
       id="rect4136"
       width="8"
       height="8"
       x="2"
       y="2" />
  </g>
  <g
     inkscape:groupmode="layer"
     id="layer4"
     inkscape:label="Layer 1"
     style="display:inline">
    <g
       id="g3338"
       transform="matrix(1.3973279,-0.2437849,0.2437849,1.3973279,-185.07403,-53.636756)" />
    <ellipse
       style="fill:#000000;fill-opacity:1;stroke:#ffffff;stroke-width:20;stroke-linejoin:round;stroke-miterlimit:4;stroke-dasharray:none;stroke-opacity:1"
       id="path4503"
       cx="290"
       cy="290"
       rx="273.93365"
       ry="274.36142" />
    <g
       id="g3576"
       transform="matrix(0.90188534,0,0,0.90188534,14.238214,-9.6144187)">
      <path
         id="path3578"
         transform="matrix(0.8977168,0,0,0.8977168,40.710583,46.777129)"
         d="M 295.5625,77.1875 213.03125,77.25 c -38.43866,-1.1e-5 -66.71875,30.86801 -66.71875,64.5 v 238.21875 c 3e-5,32.58264 25.49108,59.30702 51.125,63.4375 l -76.875,115.3125 h 44.375 L 219.90625,478.125 h 75.28125 0.0625 0.0625 75.28125 l 54.96875,80.59375 h 44.375 l -76.875,-115.3125 c 25.63388,-4.1305 51.15625,-30.85484 51.15625,-63.4375 V 141.75 c -4e-5,-33.63196 -28.31137,-64.5 -66.75,-64.5 z M 262.875,91 h 32.3125 0.0625 0.0625 32.3125 c 5.84817,0 10.9375,4.90183 10.9375,10.75 v 18.9375 c 0,5.84817 -4.81084,10.875 -10.9375,10.875 H 295.3125 295.25 295.1875 262.875 c -6.12665,0 -10.9375,-5.02683 -10.9375,-10.875 V 101.75 c 0,-5.84817 5.08932,-10.749997 10.9375,-10.75 z m -47.625,53.40625 h 79.9375 0.125 79.9375 c 21.72176,1e-5 33.25001,15.552 33.25,33.375 v 42.875 c 0.16931,20.60784 -14.87004,33.25 -33.25,33.25 H 295.3125 295.25 295.1875 215.25 c -18.37997,0 -33.41932,-12.64216 -33.25,-33.25 v -42.875 c -1e-5,-17.823 11.52822,-33.375 33.25,-33.375 z m -3.625,205.75 c 16.15766,-3e-5 29.28125,13.09234 29.28125,29.25 0,16.1565 -13.12359,29.25 -29.28125,29.25 -16.15769,-2e-5 -29.25,-13.09346 -29.25,-29.25 -4e-5,-16.1577 13.09234,-29.25 29.25,-29.25 z m 166.5625,0 c 16.15764,-2e-5 29.25,13.09233 29.25,29.25 -2e-5,16.15652 -13.09233,29.25001 -29.25,29.25 -16.15768,-2e-5 -29.25001,-13.09347 -29.25,-29.25 -2e-5,-16.15768 13.09235,-29.25 29.25,-29.25 z"
         style="fill:#ffffff;stroke:none"
         inkscape:connector-curvature="0" />
    </g>
    <g
       id="g3584"
       transform="matrix(0.97724683,0,0,0.97724683,-8.8044255,-42.650183)" />
  </g>
</svg>
