<?xml version="1.0" encoding="UTF-8" standalone="no"?>
<!DOCTYPE svg PUBLIC "-//W3C//DTD SVG 1.1//EN" "http://www.w3.org/Graphics/SVG/1.1/DTD/svg11.dtd">
<svg width="100%" height="100%" viewBox="0 0 580 580" version="1.1" xmlns="http://www.w3.org/2000/svg" xmlns:xlink="http://www.w3.org/1999/xlink" xml:space="preserve" xmlns:serif="http://www.serif.com/" style="fill-rule:evenodd;clip-rule:evenodd;stroke-linejoin:round;">
    <g id="Layer-1" serif:id="Layer 1">
        <ellipse id="path4503" cx="290" cy="290" rx="273.934" ry="274.361" style="stroke:white;stroke-width:20px;"/>
        <g transform="matrix(0.809638,0,0,0.809638,50.9545,32.5732)">
            <g id="g3576">
                <path id="path3578" d="M295.563,77.188L213.031,77.25C174.593,77.25 146.313,108.118 146.313,141.75L146.313,379.969C146.313,412.551 171.804,439.276 197.438,443.406L120.563,558.719L164.938,558.719L219.906,478.125L370.594,478.125L425.563,558.719L469.938,558.719L393.063,443.406C418.696,439.276 444.219,412.551 444.219,379.969L444.219,141.75C444.219,108.118 415.907,77.25 377.469,77.25L295.563,77.188ZM262.875,91L327.625,91C333.473,91 338.563,95.902 338.563,101.75L338.563,120.688C338.563,126.536 333.752,131.563 327.625,131.563L262.875,131.563C256.748,131.563 251.938,126.536 251.938,120.688L251.938,101.75C251.938,95.902 257.027,91 262.875,91ZM215.25,144.406L375.25,144.406C396.972,144.406 408.5,159.958 408.5,177.781L408.5,220.656C408.669,241.264 393.63,253.906 375.25,253.906L215.25,253.906C196.87,253.906 181.831,241.264 182,220.656L182,177.781C182,159.958 193.528,144.406 215.25,144.406ZM211.625,350.156C227.783,350.156 240.906,363.249 240.906,379.406C240.906,395.563 227.783,408.656 211.625,408.656C195.467,408.656 182.375,395.563 182.375,379.406C182.375,363.249 195.467,350.156 211.625,350.156ZM378.188,350.156C394.345,350.156 407.438,363.249 407.438,379.406C407.437,395.563 394.345,408.656 378.188,408.656C362.03,408.656 348.937,395.563 348.938,379.406C348.937,363.249 362.03,350.156 378.188,350.156Z" style="fill:white;fill-rule:nonzero;"/>
            </g>
        </g>
    </g>
    <g transform="matrix(1.69794e-16,2.77294,-4.32409,2.64774e-16,359.264,200.51)">
        <path d="M-10.053,63.154L-10.053,56.091L29.849,56.091L29.849,49.532L70.669,59.622L29.849,69.713L29.849,63.154L-10.053,63.154Z" style="fill:white;"/>
    </g>
</svg>
